<?xml version="1.0" encoding="UTF-8" standalone="no"?>
<!DOCTYPE svg PUBLIC "-//W3C//DTD SVG 1.1//EN"
 "http://www.w3.org/Graphics/SVG/1.1/DTD/svg11.dtd">
<!-- Generated by graphviz version 2.40.1 (20161225.0304)
 -->
<!-- Title: /home/runner/work/snek5000&#45;abl/snek5000&#45;abl/lib/Nek5000/core/byte.c Pages: 1 -->
<svg width="609pt" height="106pt"
 viewBox="0.00 0.00 609.00 106.00" xmlns="http://www.w3.org/2000/svg" xmlns:xlink="http://www.w3.org/1999/xlink">
<g id="graph0" class="graph" transform="scale(1 1) rotate(0) translate(4 102)">
<title>/home/runner/work/snek5000&#45;abl/snek5000&#45;abl/lib/Nek5000/core/byte.c</title>
<polygon fill="#ffffff" stroke="transparent" points="-4,4 -4,-102 605,-102 605,4 -4,4"/>
<!-- Node0 -->
<g id="node1" class="node">
<title>Node0</title>
<polygon fill="#bfbfbf" stroke="#000000" points="213,-56.5 213,-97.5 361,-97.5 361,-56.5 213,-56.5"/>
<text text-anchor="start" x="221" y="-85.5" font-family="Helvetica,sans-Serif" font-size="10.00" fill="#000000">/home/runner/work/snek5000</text>
<text text-anchor="start" x="221" y="-74.5" font-family="Helvetica,sans-Serif" font-size="10.00" fill="#000000">&#45;abl/snek5000&#45;abl/lib/Nek5000</text>
<text text-anchor="middle" x="287" y="-63.5" font-family="Helvetica,sans-Serif" font-size="10.00" fill="#000000">/core/byte.c</text>
</g>
<!-- Node1 -->
<g id="node2" class="node">
<title>Node1</title>
<polygon fill="#ffffff" stroke="#bfbfbf" points="0,-.5 0,-19.5 46,-19.5 46,-.5 0,-.5"/>
<text text-anchor="middle" x="23" y="-7.5" font-family="Helvetica,sans-Serif" font-size="10.00" fill="#000000">stdio.h</text>
</g>
<!-- Node0&#45;&gt;Node1 -->
<g id="edge1" class="edge">
<title>Node0&#45;&gt;Node1</title>
<path fill="none" stroke="#191970" d="M212.7729,-60.0003C169.4973,-49.7992 113.6894,-36.1501 55.721,-20.0864"/>
<polygon fill="#191970" stroke="#191970" points="56.5941,-16.6964 46.0214,-17.3813 54.7136,-23.4391 56.5941,-16.6964"/>
</g>
<!-- Node2 -->
<g id="node3" class="node">
<title>Node2</title>
<polygon fill="#ffffff" stroke="#bfbfbf" points="64,-.5 64,-19.5 112,-19.5 112,-.5 64,-.5"/>
<text text-anchor="middle" x="88" y="-7.5" font-family="Helvetica,sans-Serif" font-size="10.00" fill="#000000">stdlib.h</text>
</g>
<!-- Node0&#45;&gt;Node2 -->
<g id="edge2" class="edge">
<title>Node0&#45;&gt;Node2</title>
<path fill="none" stroke="#191970" d="M225.941,-56.4425C191.6012,-44.8808 150.0428,-30.8888 121.5748,-21.3041"/>
<polygon fill="#191970" stroke="#191970" points="122.6786,-17.9827 112.0845,-18.1089 120.445,-24.6168 122.6786,-17.9827"/>
</g>
<!-- Node3 -->
<g id="node4" class="node">
<title>Node3</title>
<polygon fill="#ffffff" stroke="#bfbfbf" points="130.5,-.5 130.5,-19.5 179.5,-19.5 179.5,-.5 130.5,-.5"/>
<text text-anchor="middle" x="155" y="-7.5" font-family="Helvetica,sans-Serif" font-size="10.00" fill="#000000">string.h</text>
</g>
<!-- Node0&#45;&gt;Node3 -->
<g id="edge3" class="edge">
<title>Node0&#45;&gt;Node3</title>
<path fill="none" stroke="#191970" d="M246.3186,-56.3511C225.8053,-45.9391 201.446,-33.5748 183.0472,-24.2361"/>
<polygon fill="#191970" stroke="#191970" points="184.5223,-21.0598 174.0211,-19.6546 181.354,-27.3018 184.5223,-21.0598"/>
</g>
<!-- Node4 -->
<g id="node5" class="node">
<title>Node4</title>
<polygon fill="#ffffff" stroke="#bfbfbf" points="197.5,-.5 197.5,-19.5 246.5,-19.5 246.5,-.5 197.5,-.5"/>
<text text-anchor="middle" x="222" y="-7.5" font-family="Helvetica,sans-Serif" font-size="10.00" fill="#000000">ctype.h</text>
</g>
<!-- Node0&#45;&gt;Node4 -->
<g id="edge4" class="edge">
<title>Node0&#45;&gt;Node4</title>
<path fill="none" stroke="#191970" d="M266.7899,-56.168C257.7735,-46.8742 247.2772,-36.0549 238.7128,-27.227"/>
<polygon fill="#191970" stroke="#191970" points="240.9638,-24.5208 231.4885,-19.7805 235.9396,-29.395 240.9638,-24.5208"/>
</g>
<!-- Node5 -->
<g id="node6" class="node">
<title>Node5</title>
<polygon fill="#ffffff" stroke="#bfbfbf" points="265,-.5 265,-19.5 309,-19.5 309,-.5 265,-.5"/>
<text text-anchor="middle" x="287" y="-7.5" font-family="Helvetica,sans-Serif" font-size="10.00" fill="#000000">float.h</text>
</g>
<!-- Node0&#45;&gt;Node5 -->
<g id="edge5" class="edge">
<title>Node0&#45;&gt;Node5</title>
<path fill="none" stroke="#191970" d="M287,-56.168C287,-47.8226 287,-38.2471 287,-29.9879"/>
<polygon fill="#191970" stroke="#191970" points="290.5001,-29.7804 287,-19.7805 283.5001,-29.7805 290.5001,-29.7804"/>
</g>
<!-- Node6 -->
<g id="node7" class="node">
<title>Node6</title>
<polygon fill="#ffffff" stroke="#bfbfbf" points="327.5,-.5 327.5,-19.5 374.5,-19.5 374.5,-.5 327.5,-.5"/>
<text text-anchor="middle" x="351" y="-7.5" font-family="Helvetica,sans-Serif" font-size="10.00" fill="#000000">math.h</text>
</g>
<!-- Node0&#45;&gt;Node6 -->
<g id="edge6" class="edge">
<title>Node0&#45;&gt;Node6</title>
<path fill="none" stroke="#191970" d="M306.8992,-56.168C315.7768,-46.8742 326.1117,-36.0549 334.5444,-27.227"/>
<polygon fill="#191970" stroke="#191970" points="337.281,-29.4292 341.6575,-19.7805 332.2192,-24.594 337.281,-29.4292"/>
</g>
<!-- Node7 -->
<g id="node8" class="node">
<title>Node7</title>
<polygon fill="#ffffff" stroke="#bfbfbf" points="393,-.5 393,-19.5 437,-19.5 437,-.5 393,-.5"/>
<text text-anchor="middle" x="415" y="-7.5" font-family="Helvetica,sans-Serif" font-size="10.00" fill="#000000">time.h</text>
</g>
<!-- Node0&#45;&gt;Node7 -->
<g id="edge7" class="edge">
<title>Node0&#45;&gt;Node7</title>
<path fill="none" stroke="#191970" d="M326.4487,-56.3511C346.1578,-46.0346 369.5284,-33.8015 387.3102,-24.4939"/>
<polygon fill="#191970" stroke="#191970" points="389.3188,-27.3931 396.5553,-19.6546 386.0725,-21.1913 389.3188,-27.3931"/>
</g>
<!-- Node8 -->
<g id="node9" class="node">
<title>Node8</title>
<polygon fill="#ffffff" stroke="#bfbfbf" points="455,-.5 455,-19.5 515,-19.5 515,-.5 455,-.5"/>
<text text-anchor="middle" x="485" y="-7.5" font-family="Helvetica,sans-Serif" font-size="10.00" fill="#000000">sys/stat.h</text>
</g>
<!-- Node0&#45;&gt;Node8 -->
<g id="edge8" class="edge">
<title>Node0&#45;&gt;Node8</title>
<path fill="none" stroke="#191970" d="M347.7521,-56.4425C380.1503,-45.4795 419.0063,-32.3312 447.0922,-22.8274"/>
<polygon fill="#191970" stroke="#191970" points="448.5699,-26.0224 456.9204,-19.5017 446.3261,-19.3917 448.5699,-26.0224"/>
</g>
<!-- Node9 -->
<g id="node10" class="node">
<title>Node9</title>
<polygon fill="#ffffff" stroke="#bfbfbf" points="533,-.5 533,-19.5 601,-19.5 601,-.5 533,-.5"/>
<text text-anchor="middle" x="567" y="-7.5" font-family="Helvetica,sans-Serif" font-size="10.00" fill="#000000">sys/types.h</text>
</g>
<!-- Node0&#45;&gt;Node9 -->
<g id="edge9" class="edge">
<title>Node0&#45;&gt;Node9</title>
<path fill="none" stroke="#191970" d="M361.2997,-59.2211C412.7463,-46.9107 479.5009,-30.9373 522.7865,-20.5796"/>
<polygon fill="#191970" stroke="#191970" points="523.8136,-23.9328 532.7245,-18.2016 522.1845,-17.125 523.8136,-23.9328"/>
</g>
</g>
</svg>
