<?xml version="1.0" encoding="UTF-8" standalone="no"?>
<!DOCTYPE svg PUBLIC "-//W3C//DTD SVG 1.1//EN"
 "http://www.w3.org/Graphics/SVG/1.1/DTD/svg11.dtd">
<!-- Generated by graphviz version 2.40.1 (20161225.0304)
 -->
<!-- Title: /home/runner/work/snek5000&#45;abl/snek5000&#45;abl/lib/Nek5000/core/chelpers.c Pages: 1 -->
<svg width="354pt" height="106pt"
 viewBox="0.00 0.00 353.50 106.00" xmlns="http://www.w3.org/2000/svg" xmlns:xlink="http://www.w3.org/1999/xlink">
<g id="graph0" class="graph" transform="scale(1 1) rotate(0) translate(4 102)">
<title>/home/runner/work/snek5000&#45;abl/snek5000&#45;abl/lib/Nek5000/core/chelpers.c</title>
<polygon fill="#ffffff" stroke="transparent" points="-4,4 -4,-102 349.5,-102 349.5,4 -4,4"/>
<!-- Node0 -->
<g id="node1" class="node">
<title>Node0</title>
<polygon fill="#bfbfbf" stroke="#000000" points="97,-56.5 97,-97.5 245,-97.5 245,-56.5 97,-56.5"/>
<text text-anchor="start" x="105" y="-85.5" font-family="Helvetica,sans-Serif" font-size="10.00" fill="#000000">/home/runner/work/snek5000</text>
<text text-anchor="start" x="105" y="-74.5" font-family="Helvetica,sans-Serif" font-size="10.00" fill="#000000">&#45;abl/snek5000&#45;abl/lib/Nek5000</text>
<text text-anchor="middle" x="171" y="-63.5" font-family="Helvetica,sans-Serif" font-size="10.00" fill="#000000">/core/chelpers.c</text>
</g>
<!-- Node1 -->
<g id="node2" class="node">
<title>Node1</title>
<polygon fill="#ffffff" stroke="#bfbfbf" points="0,-.5 0,-19.5 46,-19.5 46,-.5 0,-.5"/>
<text text-anchor="middle" x="23" y="-7.5" font-family="Helvetica,sans-Serif" font-size="10.00" fill="#000000">stdio.h</text>
</g>
<!-- Node0&#45;&gt;Node1 -->
<g id="edge1" class="edge">
<title>Node0&#45;&gt;Node1</title>
<path fill="none" stroke="#191970" d="M125.3875,-56.3511C102.0713,-45.7958 74.3232,-33.2342 53.599,-23.8523"/>
<polygon fill="#191970" stroke="#191970" points="54.8801,-20.5903 44.3267,-19.6546 51.9932,-26.9673 54.8801,-20.5903"/>
</g>
<!-- Node2 -->
<g id="node3" class="node">
<title>Node2</title>
<polygon fill="#ffffff" stroke="#bfbfbf" points="64,-.5 64,-19.5 112,-19.5 112,-.5 64,-.5"/>
<text text-anchor="middle" x="88" y="-7.5" font-family="Helvetica,sans-Serif" font-size="10.00" fill="#000000">stdlib.h</text>
</g>
<!-- Node0&#45;&gt;Node2 -->
<g id="edge2" class="edge">
<title>Node0&#45;&gt;Node2</title>
<path fill="none" stroke="#191970" d="M145.1933,-56.168C133.2101,-46.4949 119.1797,-35.1692 108.0144,-26.1562"/>
<polygon fill="#191970" stroke="#191970" points="110.0957,-23.3383 100.1161,-19.7805 105.6989,-28.7851 110.0957,-23.3383"/>
</g>
<!-- Node3 -->
<g id="node4" class="node">
<title>Node3</title>
<polygon fill="#ffffff" stroke="#bfbfbf" points="130.5,-.5 130.5,-19.5 211.5,-19.5 211.5,-.5 130.5,-.5"/>
<text text-anchor="middle" x="171" y="-7.5" font-family="Helvetica,sans-Serif" font-size="10.00" fill="#000000">sys/resource.h</text>
</g>
<!-- Node0&#45;&gt;Node3 -->
<g id="edge3" class="edge">
<title>Node0&#45;&gt;Node3</title>
<path fill="none" stroke="#191970" d="M171,-56.168C171,-47.8226 171,-38.2471 171,-29.9879"/>
<polygon fill="#191970" stroke="#191970" points="174.5001,-29.7804 171,-19.7805 167.5001,-29.7805 174.5001,-29.7804"/>
</g>
<!-- Node4 -->
<g id="node5" class="node">
<title>Node4</title>
<polygon fill="#ffffff" stroke="#bfbfbf" points="229.5,-.5 229.5,-19.5 278.5,-19.5 278.5,-.5 229.5,-.5"/>
<text text-anchor="middle" x="254" y="-7.5" font-family="Helvetica,sans-Serif" font-size="10.00" fill="#000000">string.h</text>
</g>
<!-- Node0&#45;&gt;Node4 -->
<g id="edge4" class="edge">
<title>Node0&#45;&gt;Node4</title>
<path fill="none" stroke="#191970" d="M196.8067,-56.168C208.7899,-46.4949 222.8203,-35.1692 233.9856,-26.1562"/>
<polygon fill="#191970" stroke="#191970" points="236.3011,-28.7851 241.8839,-19.7805 231.9043,-23.3383 236.3011,-28.7851"/>
</g>
<!-- Node5 -->
<g id="node6" class="node">
<title>Node5</title>
<g id="a_node6"><a xlink:href="name_8h.html" target="_top" xlink:title="name.h">
<polygon fill="#ffffff" stroke="#000000" points="296.5,-.5 296.5,-19.5 345.5,-19.5 345.5,-.5 296.5,-.5"/>
<text text-anchor="middle" x="321" y="-7.5" font-family="Helvetica,sans-Serif" font-size="10.00" fill="#000000">name.h</text>
</a>
</g>
</g>
<!-- Node0&#45;&gt;Node5 -->
<g id="edge5" class="edge">
<title>Node0&#45;&gt;Node5</title>
<path fill="none" stroke="#191970" d="M217.2289,-56.3511C240.8602,-45.7958 268.9832,-33.2342 289.9875,-23.8523"/>
<polygon fill="#191970" stroke="#191970" points="291.682,-26.9287 299.3851,-19.6546 288.8271,-20.5373 291.682,-26.9287"/>
</g>
</g>
</svg>
