<?xml version="1.0" encoding="UTF-8" standalone="no"?>
<!DOCTYPE svg PUBLIC "-//W3C//DTD SVG 1.1//EN"
 "http://www.w3.org/Graphics/SVG/1.1/DTD/svg11.dtd">
<!-- Generated by graphviz version 2.40.1 (20161225.0304)
 -->
<!-- Title: /home/runner/work/snek5000&#45;abl/snek5000&#45;abl/lib/Nek5000/core/crs_amg.c Pages: 1 -->
<svg width="624pt" height="106pt"
 viewBox="0.00 0.00 623.50 106.00" xmlns="http://www.w3.org/2000/svg" xmlns:xlink="http://www.w3.org/1999/xlink">
<g id="graph0" class="graph" transform="scale(1 1) rotate(0) translate(4 102)">
<title>/home/runner/work/snek5000&#45;abl/snek5000&#45;abl/lib/Nek5000/core/crs_amg.c</title>
<polygon fill="#ffffff" stroke="transparent" points="-4,4 -4,-102 619.5,-102 619.5,4 -4,4"/>
<!-- Node0 -->
<g id="node1" class="node">
<title>Node0</title>
<polygon fill="#bfbfbf" stroke="#000000" points="217,-56.5 217,-97.5 365,-97.5 365,-56.5 217,-56.5"/>
<text text-anchor="start" x="225" y="-85.5" font-family="Helvetica,sans-Serif" font-size="10.00" fill="#000000">/home/runner/work/snek5000</text>
<text text-anchor="start" x="225" y="-74.5" font-family="Helvetica,sans-Serif" font-size="10.00" fill="#000000">&#45;abl/snek5000&#45;abl/lib/Nek5000</text>
<text text-anchor="middle" x="291" y="-63.5" font-family="Helvetica,sans-Serif" font-size="10.00" fill="#000000">/core/crs_amg.c</text>
</g>
<!-- Node1 -->
<g id="node2" class="node">
<title>Node1</title>
<polygon fill="#ffffff" stroke="#bfbfbf" points="0,-.5 0,-19.5 52,-19.5 52,-.5 0,-.5"/>
<text text-anchor="middle" x="26" y="-7.5" font-family="Helvetica,sans-Serif" font-size="10.00" fill="#000000">stddef.h</text>
</g>
<!-- Node0&#45;&gt;Node1 -->
<g id="edge1" class="edge">
<title>Node0&#45;&gt;Node1</title>
<path fill="none" stroke="#191970" d="M216.7685,-59.3087C174.0964,-48.9733 119.2585,-35.4132 62.2581,-20.2776"/>
<polygon fill="#191970" stroke="#191970" points="62.9098,-16.8292 52.3456,-17.6353 61.1067,-23.593 62.9098,-16.8292"/>
</g>
<!-- Node2 -->
<g id="node3" class="node">
<title>Node2</title>
<polygon fill="#ffffff" stroke="#bfbfbf" points="70,-.5 70,-19.5 118,-19.5 118,-.5 70,-.5"/>
<text text-anchor="middle" x="94" y="-7.5" font-family="Helvetica,sans-Serif" font-size="10.00" fill="#000000">stdlib.h</text>
</g>
<!-- Node0&#45;&gt;Node2 -->
<g id="edge2" class="edge">
<title>Node0&#45;&gt;Node2</title>
<path fill="none" stroke="#191970" d="M230.5547,-56.4425C196.8092,-44.9656 156.022,-31.0938 127.8592,-21.5155"/>
<polygon fill="#191970" stroke="#191970" points="128.6854,-18.0997 118.091,-18.1934 126.4314,-24.7269 128.6854,-18.0997"/>
</g>
<!-- Node3 -->
<g id="node4" class="node">
<title>Node3</title>
<polygon fill="#ffffff" stroke="#bfbfbf" points="136,-.5 136,-19.5 182,-19.5 182,-.5 136,-.5"/>
<text text-anchor="middle" x="159" y="-7.5" font-family="Helvetica,sans-Serif" font-size="10.00" fill="#000000">stdio.h</text>
</g>
<!-- Node0&#45;&gt;Node3 -->
<g id="edge3" class="edge">
<title>Node0&#45;&gt;Node3</title>
<path fill="none" stroke="#191970" d="M250.3186,-56.3511C229.8053,-45.9391 205.446,-33.5748 187.0472,-24.2361"/>
<polygon fill="#191970" stroke="#191970" points="188.5223,-21.0598 178.0211,-19.6546 185.354,-27.3018 188.5223,-21.0598"/>
</g>
<!-- Node4 -->
<g id="node5" class="node">
<title>Node4</title>
<polygon fill="#ffffff" stroke="#bfbfbf" points="200.5,-.5 200.5,-19.5 249.5,-19.5 249.5,-.5 200.5,-.5"/>
<text text-anchor="middle" x="225" y="-7.5" font-family="Helvetica,sans-Serif" font-size="10.00" fill="#000000">string.h</text>
</g>
<!-- Node0&#45;&gt;Node4 -->
<g id="edge4" class="edge">
<title>Node0&#45;&gt;Node4</title>
<path fill="none" stroke="#191970" d="M270.479,-56.168C261.2305,-46.7794 250.4484,-35.834 241.7043,-26.9574"/>
<polygon fill="#191970" stroke="#191970" points="244.1456,-24.4483 234.6345,-19.7805 239.1588,-29.3607 244.1456,-24.4483"/>
</g>
<!-- Node5 -->
<g id="node6" class="node">
<title>Node5</title>
<polygon fill="#ffffff" stroke="#bfbfbf" points="267.5,-.5 267.5,-19.5 314.5,-19.5 314.5,-.5 267.5,-.5"/>
<text text-anchor="middle" x="291" y="-7.5" font-family="Helvetica,sans-Serif" font-size="10.00" fill="#000000">math.h</text>
</g>
<!-- Node0&#45;&gt;Node5 -->
<g id="edge5" class="edge">
<title>Node0&#45;&gt;Node5</title>
<path fill="none" stroke="#191970" d="M291,-56.168C291,-47.8226 291,-38.2471 291,-29.9879"/>
<polygon fill="#191970" stroke="#191970" points="294.5001,-29.7804 291,-19.7805 287.5001,-29.7805 294.5001,-29.7804"/>
</g>
<!-- Node6 -->
<g id="node7" class="node">
<title>Node6</title>
<polygon fill="#ffffff" stroke="#bfbfbf" points="333,-.5 333,-19.5 393,-19.5 393,-.5 333,-.5"/>
<text text-anchor="middle" x="363" y="-7.5" font-family="Helvetica,sans-Serif" font-size="10.00" fill="#000000">sys/stat.h</text>
</g>
<!-- Node0&#45;&gt;Node6 -->
<g id="edge6" class="edge">
<title>Node0&#45;&gt;Node6</title>
<path fill="none" stroke="#191970" d="M313.3866,-56.168C323.5778,-46.6846 335.4759,-35.6127 345.0655,-26.689"/>
<polygon fill="#191970" stroke="#191970" points="347.5532,-29.1551 352.4896,-19.7805 342.7846,-24.0306 347.5532,-29.1551"/>
</g>
<!-- Node7 -->
<g id="node8" class="node">
<title>Node7</title>
<polygon fill="#ffffff" stroke="#bfbfbf" points="411,-.5 411,-19.5 459,-19.5 459,-.5 411,-.5"/>
<text text-anchor="middle" x="435" y="-7.5" font-family="Helvetica,sans-Serif" font-size="10.00" fill="#000000">limits.h</text>
</g>
<!-- Node0&#45;&gt;Node7 -->
<g id="edge7" class="edge">
<title>Node0&#45;&gt;Node7</title>
<path fill="none" stroke="#191970" d="M335.3797,-56.3511C357.9631,-45.8435 384.8196,-33.3478 404.9538,-23.9798"/>
<polygon fill="#191970" stroke="#191970" points="406.6596,-27.0465 414.2497,-19.6546 403.7066,-20.6999 406.6596,-27.0465"/>
</g>
<!-- Node8 -->
<g id="node9" class="node">
<title>Node8</title>
<polygon fill="#ffffff" stroke="#bfbfbf" points="477.5,-.5 477.5,-19.5 522.5,-19.5 522.5,-.5 477.5,-.5"/>
<text text-anchor="middle" x="500" y="-7.5" font-family="Helvetica,sans-Serif" font-size="10.00" fill="#000000">gslib.h</text>
</g>
<!-- Node0&#45;&gt;Node8 -->
<g id="edge8" class="edge">
<title>Node0&#45;&gt;Node8</title>
<path fill="none" stroke="#191970" d="M355.1272,-56.4425C392.266,-44.5367 437.4442,-30.0538 467.3705,-20.4602"/>
<polygon fill="#191970" stroke="#191970" points="468.8273,-23.6687 477.2815,-17.283 466.6903,-17.0028 468.8273,-23.6687"/>
</g>
<!-- Node9 -->
<g id="node10" class="node">
<title>Node9</title>
<g id="a_node10"><a xlink:href="crs__amg__io_8h.html" target="_top" xlink:title="crs_amg_io.h">
<polygon fill="#ffffff" stroke="#000000" points="540.5,-.5 540.5,-19.5 615.5,-19.5 615.5,-.5 540.5,-.5"/>
<text text-anchor="middle" x="578" y="-7.5" font-family="Helvetica,sans-Serif" font-size="10.00" fill="#000000">crs_amg_io.h</text>
</a>
</g>
</g>
<!-- Node0&#45;&gt;Node9 -->
<g id="edge9" class="edge">
<title>Node0&#45;&gt;Node9</title>
<path fill="none" stroke="#191970" d="M365.2829,-59.6587C417.4734,-47.4749 485.7265,-31.5412 530.6669,-21.0499"/>
<polygon fill="#191970" stroke="#191970" points="531.5039,-24.4487 540.4464,-18.7669 529.9125,-17.632 531.5039,-24.4487"/>
</g>
</g>
</svg>
