<?xml version="1.0" encoding="UTF-8" standalone="no"?>
<!DOCTYPE svg PUBLIC "-//W3C//DTD SVG 1.1//EN"
 "http://www.w3.org/Graphics/SVG/1.1/DTD/svg11.dtd">
<!-- Generated by graphviz version 2.40.1 (20161225.0304)
 -->
<!-- Title: /home/runner/work/snek5000&#45;abl/snek5000&#45;abl/lib/Nek5000/core/crs_xxt.c Pages: 1 -->
<svg width="514pt" height="106pt"
 viewBox="0.00 0.00 513.50 106.00" xmlns="http://www.w3.org/2000/svg" xmlns:xlink="http://www.w3.org/1999/xlink">
<g id="graph0" class="graph" transform="scale(1 1) rotate(0) translate(4 102)">
<title>/home/runner/work/snek5000&#45;abl/snek5000&#45;abl/lib/Nek5000/core/crs_xxt.c</title>
<polygon fill="#ffffff" stroke="transparent" points="-4,4 -4,-102 509.5,-102 509.5,4 -4,4"/>
<!-- Node0 -->
<g id="node1" class="node">
<title>Node0</title>
<polygon fill="#bfbfbf" stroke="#000000" points="182,-56.5 182,-97.5 330,-97.5 330,-56.5 182,-56.5"/>
<text text-anchor="start" x="190" y="-85.5" font-family="Helvetica,sans-Serif" font-size="10.00" fill="#000000">/home/runner/work/snek5000</text>
<text text-anchor="start" x="190" y="-74.5" font-family="Helvetica,sans-Serif" font-size="10.00" fill="#000000">&#45;abl/snek5000&#45;abl/lib/Nek5000</text>
<text text-anchor="middle" x="256" y="-63.5" font-family="Helvetica,sans-Serif" font-size="10.00" fill="#000000">/core/crs_xxt.c</text>
</g>
<!-- Node1 -->
<g id="node2" class="node">
<title>Node1</title>
<polygon fill="#ffffff" stroke="#bfbfbf" points="0,-.5 0,-19.5 52,-19.5 52,-.5 0,-.5"/>
<text text-anchor="middle" x="26" y="-7.5" font-family="Helvetica,sans-Serif" font-size="10.00" fill="#000000">stddef.h</text>
</g>
<!-- Node0&#45;&gt;Node1 -->
<g id="edge1" class="edge">
<title>Node0&#45;&gt;Node1</title>
<path fill="none" stroke="#191970" d="M185.4294,-56.4425C144.5022,-44.5202 94.7032,-30.0135 61.771,-20.4203"/>
<polygon fill="#191970" stroke="#191970" points="62.7006,-17.0456 52.1207,-17.6091 60.7427,-23.7663 62.7006,-17.0456"/>
</g>
<!-- Node2 -->
<g id="node3" class="node">
<title>Node2</title>
<polygon fill="#ffffff" stroke="#bfbfbf" points="70,-.5 70,-19.5 118,-19.5 118,-.5 70,-.5"/>
<text text-anchor="middle" x="94" y="-7.5" font-family="Helvetica,sans-Serif" font-size="10.00" fill="#000000">stdlib.h</text>
</g>
<!-- Node0&#45;&gt;Node2 -->
<g id="edge2" class="edge">
<title>Node0&#45;&gt;Node2</title>
<path fill="none" stroke="#191970" d="M206.0728,-56.3511C180.32,-45.7003 149.628,-33.0066 126.8795,-23.5983"/>
<polygon fill="#191970" stroke="#191970" points="127.9226,-20.2422 117.344,-19.6546 125.2473,-26.7108 127.9226,-20.2422"/>
</g>
<!-- Node3 -->
<g id="node4" class="node">
<title>Node3</title>
<polygon fill="#ffffff" stroke="#bfbfbf" points="136,-.5 136,-19.5 182,-19.5 182,-.5 136,-.5"/>
<text text-anchor="middle" x="159" y="-7.5" font-family="Helvetica,sans-Serif" font-size="10.00" fill="#000000">stdio.h</text>
</g>
<!-- Node0&#45;&gt;Node3 -->
<g id="edge3" class="edge">
<title>Node0&#45;&gt;Node3</title>
<path fill="none" stroke="#191970" d="M226.1053,-56.3511C211.7227,-46.4167 194.767,-34.7051 181.498,-25.5398"/>
<polygon fill="#191970" stroke="#191970" points="183.1948,-22.4581 172.9776,-19.6546 179.2165,-28.2178 183.1948,-22.4581"/>
</g>
<!-- Node4 -->
<g id="node5" class="node">
<title>Node4</title>
<polygon fill="#ffffff" stroke="#bfbfbf" points="200,-.5 200,-19.5 248,-19.5 248,-.5 200,-.5"/>
<text text-anchor="middle" x="224" y="-7.5" font-family="Helvetica,sans-Serif" font-size="10.00" fill="#000000">limits.h</text>
</g>
<!-- Node0&#45;&gt;Node4 -->
<g id="edge4" class="edge">
<title>Node0&#45;&gt;Node4</title>
<path fill="none" stroke="#191970" d="M246.0504,-56.168C241.8833,-47.4433 237.0742,-37.374 233.0126,-28.87"/>
<polygon fill="#191970" stroke="#191970" points="236.1394,-27.2957 228.6713,-19.7805 229.8228,-30.3125 236.1394,-27.2957"/>
</g>
<!-- Node5 -->
<g id="node6" class="node">
<title>Node5</title>
<polygon fill="#ffffff" stroke="#bfbfbf" points="266,-.5 266,-19.5 310,-19.5 310,-.5 266,-.5"/>
<text text-anchor="middle" x="288" y="-7.5" font-family="Helvetica,sans-Serif" font-size="10.00" fill="#000000">float.h</text>
</g>
<!-- Node0&#45;&gt;Node5 -->
<g id="edge5" class="edge">
<title>Node0&#45;&gt;Node5</title>
<path fill="none" stroke="#191970" d="M265.9496,-56.168C270.1167,-47.4433 274.9258,-37.374 278.9874,-28.87"/>
<polygon fill="#191970" stroke="#191970" points="282.1772,-30.3125 283.3287,-19.7805 275.8606,-27.2957 282.1772,-30.3125"/>
</g>
<!-- Node6 -->
<g id="node7" class="node">
<title>Node6</title>
<polygon fill="#ffffff" stroke="#bfbfbf" points="328.5,-.5 328.5,-19.5 377.5,-19.5 377.5,-.5 328.5,-.5"/>
<text text-anchor="middle" x="353" y="-7.5" font-family="Helvetica,sans-Serif" font-size="10.00" fill="#000000">string.h</text>
</g>
<!-- Node0&#45;&gt;Node6 -->
<g id="edge6" class="edge">
<title>Node0&#45;&gt;Node6</title>
<path fill="none" stroke="#191970" d="M285.8947,-56.3511C300.2773,-46.4167 317.233,-34.7051 330.502,-25.5398"/>
<polygon fill="#191970" stroke="#191970" points="332.7835,-28.2178 339.0224,-19.6546 328.8052,-22.4581 332.7835,-28.2178"/>
</g>
<!-- Node7 -->
<g id="node8" class="node">
<title>Node7</title>
<polygon fill="#ffffff" stroke="#bfbfbf" points="395.5,-.5 395.5,-19.5 442.5,-19.5 442.5,-.5 395.5,-.5"/>
<text text-anchor="middle" x="419" y="-7.5" font-family="Helvetica,sans-Serif" font-size="10.00" fill="#000000">math.h</text>
</g>
<!-- Node0&#45;&gt;Node7 -->
<g id="edge7" class="edge">
<title>Node0&#45;&gt;Node7</title>
<path fill="none" stroke="#191970" d="M306.2354,-56.3511C332.2633,-45.6525 363.3057,-32.8928 386.2249,-23.472"/>
<polygon fill="#191970" stroke="#191970" points="387.5934,-26.6937 395.5119,-19.6546 384.9321,-20.2193 387.5934,-26.6937"/>
</g>
<!-- Node8 -->
<g id="node9" class="node">
<title>Node8</title>
<polygon fill="#ffffff" stroke="#bfbfbf" points="460.5,-.5 460.5,-19.5 505.5,-19.5 505.5,-.5 460.5,-.5"/>
<text text-anchor="middle" x="483" y="-7.5" font-family="Helvetica,sans-Serif" font-size="10.00" fill="#000000">gslib.h</text>
</g>
<!-- Node0&#45;&gt;Node8 -->
<g id="edge8" class="edge">
<title>Node0&#45;&gt;Node8</title>
<path fill="none" stroke="#191970" d="M328.7524,-56.3867C363.28,-46.475 405.3241,-34.2215 450.6229,-20.3734"/>
<polygon fill="#191970" stroke="#191970" points="451.8027,-23.6725 460.337,-17.3944 449.7503,-16.9802 451.8027,-23.6725"/>
</g>
</g>
</svg>
