<?xml version="1.0" encoding="UTF-8" standalone="no"?>
<!DOCTYPE svg PUBLIC "-//W3C//DTD SVG 1.1//EN"
 "http://www.w3.org/Graphics/SVG/1.1/DTD/svg11.dtd">
<!-- Generated by graphviz version 2.40.1 (20161225.0304)
 -->
<!-- Title: /home/runner/work/snek5000&#45;abl/snek5000&#45;abl/lib/Nek5000/core/crs.h Pages: 1 -->
<svg width="156pt" height="128pt"
 viewBox="0.00 0.00 156.00 128.00" xmlns="http://www.w3.org/2000/svg" xmlns:xlink="http://www.w3.org/1999/xlink">
<g id="graph0" class="graph" transform="scale(1 1) rotate(0) translate(4 124)">
<title>/home/runner/work/snek5000&#45;abl/snek5000&#45;abl/lib/Nek5000/core/crs.h</title>
<polygon fill="#ffffff" stroke="transparent" points="-4,4 -4,-124 152,-124 152,4 -4,4"/>
<!-- Node1 -->
<g id="node1" class="node">
<title>Node1</title>
<polygon fill="#bfbfbf" stroke="#000000" points="0,-78.5 0,-119.5 148,-119.5 148,-78.5 0,-78.5"/>
<text text-anchor="start" x="8" y="-107.5" font-family="Helvetica,sans-Serif" font-size="10.00" fill="#000000">/home/runner/work/snek5000</text>
<text text-anchor="start" x="8" y="-96.5" font-family="Helvetica,sans-Serif" font-size="10.00" fill="#000000">&#45;abl/snek5000&#45;abl/lib/Nek5000</text>
<text text-anchor="middle" x="74" y="-85.5" font-family="Helvetica,sans-Serif" font-size="10.00" fill="#000000">/core/crs.h</text>
</g>
<!-- Node2 -->
<g id="node2" class="node">
<title>Node2</title>
<g id="a_node2"><a xlink:href="fcrs_8c.html" target="_top" xlink:title="/home/runner/work/snek5000\l&#45;abl/snek5000&#45;abl/lib/Nek5000\l/core/fcrs.c">
<polygon fill="#ffffff" stroke="#000000" points="0,-.5 0,-41.5 148,-41.5 148,-.5 0,-.5"/>
<text text-anchor="start" x="8" y="-29.5" font-family="Helvetica,sans-Serif" font-size="10.00" fill="#000000">/home/runner/work/snek5000</text>
<text text-anchor="start" x="8" y="-18.5" font-family="Helvetica,sans-Serif" font-size="10.00" fill="#000000">&#45;abl/snek5000&#45;abl/lib/Nek5000</text>
<text text-anchor="middle" x="74" y="-7.5" font-family="Helvetica,sans-Serif" font-size="10.00" fill="#000000">/core/fcrs.c</text>
</a>
</g>
</g>
<!-- Node1&#45;&gt;Node2 -->
<g id="edge1" class="edge">
<title>Node1&#45;&gt;Node2</title>
<path fill="none" stroke="#191970" d="M74,-68.0789C74,-59.2178 74,-49.7747 74,-41.6898"/>
<polygon fill="#191970" stroke="#191970" points="70.5001,-68.0974 74,-78.0974 77.5001,-68.0975 70.5001,-68.0974"/>
</g>
</g>
</svg>
