<?xml version="1.0" encoding="UTF-8" standalone="no"?>
<!DOCTYPE svg PUBLIC "-//W3C//DTD SVG 1.1//EN"
 "http://www.w3.org/Graphics/SVG/1.1/DTD/svg11.dtd">
<!-- Generated by graphviz version 2.43.0 (0)
 -->
<!-- Title: /home/runner/work/snek5000&#45;abl/snek5000&#45;abl/lib/Nek5000/core/crs_xxt.c Pages: 1 -->
<svg width="548pt" height="106pt"
 viewBox="0.00 0.00 547.50 106.00" xmlns="http://www.w3.org/2000/svg" xmlns:xlink="http://www.w3.org/1999/xlink">
<g id="graph0" class="graph" transform="scale(1 1) rotate(0) translate(4 102)">
<title>/home/runner/work/snek5000&#45;abl/snek5000&#45;abl/lib/Nek5000/core/crs_xxt.c</title>
<polygon fill="white" stroke="transparent" points="-4,4 -4,-102 543.5,-102 543.5,4 -4,4"/>
<!-- Node1 -->
<g id="node1" class="node">
<title>Node1</title>
<g id="a_node1"><a xlink:title=" ">
<polygon fill="#bfbfbf" stroke="black" points="192,-56.5 192,-97.5 358,-97.5 358,-56.5 192,-56.5"/>
<text text-anchor="start" x="200" y="-85.5" font-family="Helvetica,sans-Serif" font-size="10.00">/home/runner/work/snek5000</text>
<text text-anchor="start" x="200" y="-74.5" font-family="Helvetica,sans-Serif" font-size="10.00">&#45;abl/snek5000&#45;abl/lib/Nek5000</text>
<text text-anchor="middle" x="275" y="-63.5" font-family="Helvetica,sans-Serif" font-size="10.00">/core/crs_xxt.c</text>
</a>
</g>
</g>
<!-- Node2 -->
<g id="node2" class="node">
<title>Node2</title>
<g id="a_node2"><a xlink:title=" ">
<polygon fill="white" stroke="#bfbfbf" points="0,-0.5 0,-19.5 56,-19.5 56,-0.5 0,-0.5"/>
<text text-anchor="middle" x="28" y="-7.5" font-family="Helvetica,sans-Serif" font-size="10.00">stddef.h</text>
</a>
</g>
</g>
<!-- Node1&#45;&gt;Node2 -->
<g id="edge1" class="edge">
<title>Node1&#45;&gt;Node2</title>
<path fill="none" stroke="midnightblue" d="M200.89,-56.5C156.53,-44.82 101.99,-30.47 66.17,-21.05"/>
<polygon fill="midnightblue" stroke="midnightblue" points="66.71,-17.57 56.14,-18.41 64.92,-24.34 66.71,-17.57"/>
</g>
<!-- Node3 -->
<g id="node3" class="node">
<title>Node3</title>
<g id="a_node3"><a xlink:title=" ">
<polygon fill="white" stroke="#bfbfbf" points="74.5,-0.5 74.5,-19.5 127.5,-19.5 127.5,-0.5 74.5,-0.5"/>
<text text-anchor="middle" x="101" y="-7.5" font-family="Helvetica,sans-Serif" font-size="10.00">stdlib.h</text>
</a>
</g>
</g>
<!-- Node1&#45;&gt;Node3 -->
<g id="edge2" class="edge">
<title>Node1&#45;&gt;Node3</title>
<path fill="none" stroke="midnightblue" d="M222.79,-56.5C193.81,-45.67 158.65,-32.54 133.58,-23.17"/>
<polygon fill="midnightblue" stroke="midnightblue" points="134.75,-19.87 124.16,-19.65 132.3,-26.43 134.75,-19.87"/>
</g>
<!-- Node4 -->
<g id="node4" class="node">
<title>Node4</title>
<g id="a_node4"><a xlink:title=" ">
<polygon fill="white" stroke="#bfbfbf" points="146,-0.5 146,-19.5 196,-19.5 196,-0.5 146,-0.5"/>
<text text-anchor="middle" x="171" y="-7.5" font-family="Helvetica,sans-Serif" font-size="10.00">stdio.h</text>
</a>
</g>
</g>
<!-- Node1&#45;&gt;Node4 -->
<g id="edge3" class="edge">
<title>Node1&#45;&gt;Node4</title>
<path fill="none" stroke="midnightblue" d="M243.8,-56.5C227.7,-46.44 208.42,-34.38 193.74,-25.21"/>
<polygon fill="midnightblue" stroke="midnightblue" points="195.18,-21.98 184.84,-19.65 191.47,-27.92 195.18,-21.98"/>
</g>
<!-- Node5 -->
<g id="node5" class="node">
<title>Node5</title>
<g id="a_node5"><a xlink:title=" ">
<polygon fill="white" stroke="#bfbfbf" points="214.5,-0.5 214.5,-19.5 267.5,-19.5 267.5,-0.5 214.5,-0.5"/>
<text text-anchor="middle" x="241" y="-7.5" font-family="Helvetica,sans-Serif" font-size="10.00">limits.h</text>
</a>
</g>
</g>
<!-- Node1&#45;&gt;Node5 -->
<g id="edge4" class="edge">
<title>Node1&#45;&gt;Node5</title>
<path fill="none" stroke="midnightblue" d="M264.8,-56.5C260.19,-47.68 254.78,-37.34 250.28,-28.74"/>
<polygon fill="midnightblue" stroke="midnightblue" points="253.26,-26.89 245.53,-19.65 247.06,-30.14 253.26,-26.89"/>
</g>
<!-- Node6 -->
<g id="node6" class="node">
<title>Node6</title>
<g id="a_node6"><a xlink:title=" ">
<polygon fill="white" stroke="#bfbfbf" points="285.5,-0.5 285.5,-19.5 332.5,-19.5 332.5,-0.5 285.5,-0.5"/>
<text text-anchor="middle" x="309" y="-7.5" font-family="Helvetica,sans-Serif" font-size="10.00">float.h</text>
</a>
</g>
</g>
<!-- Node1&#45;&gt;Node6 -->
<g id="edge5" class="edge">
<title>Node1&#45;&gt;Node6</title>
<path fill="none" stroke="midnightblue" d="M285.2,-56.5C289.81,-47.68 295.22,-37.34 299.72,-28.74"/>
<polygon fill="midnightblue" stroke="midnightblue" points="302.94,-30.14 304.47,-19.65 296.74,-26.89 302.94,-30.14"/>
</g>
<!-- Node7 -->
<g id="node7" class="node">
<title>Node7</title>
<g id="a_node7"><a xlink:title=" ">
<polygon fill="white" stroke="#bfbfbf" points="350.5,-0.5 350.5,-19.5 403.5,-19.5 403.5,-0.5 350.5,-0.5"/>
<text text-anchor="middle" x="377" y="-7.5" font-family="Helvetica,sans-Serif" font-size="10.00">string.h</text>
</a>
</g>
</g>
<!-- Node1&#45;&gt;Node7 -->
<g id="edge6" class="edge">
<title>Node1&#45;&gt;Node7</title>
<path fill="none" stroke="midnightblue" d="M305.6,-56.5C321.39,-46.44 340.3,-34.38 354.7,-25.21"/>
<polygon fill="midnightblue" stroke="midnightblue" points="356.87,-27.98 363.42,-19.65 353.11,-22.08 356.87,-27.98"/>
</g>
<!-- Node8 -->
<g id="node8" class="node">
<title>Node8</title>
<g id="a_node8"><a xlink:title=" ">
<polygon fill="white" stroke="#bfbfbf" points="421.5,-0.5 421.5,-19.5 472.5,-19.5 472.5,-0.5 421.5,-0.5"/>
<text text-anchor="middle" x="447" y="-7.5" font-family="Helvetica,sans-Serif" font-size="10.00">math.h</text>
</a>
</g>
</g>
<!-- Node1&#45;&gt;Node8 -->
<g id="edge7" class="edge">
<title>Node1&#45;&gt;Node8</title>
<path fill="none" stroke="midnightblue" d="M326.61,-56.5C355.13,-45.72 389.7,-32.65 414.47,-23.29"/>
<polygon fill="midnightblue" stroke="midnightblue" points="415.99,-26.46 424.1,-19.65 413.51,-19.91 415.99,-26.46"/>
</g>
<!-- Node9 -->
<g id="node9" class="node">
<title>Node9</title>
<g id="a_node9"><a xlink:title=" ">
<polygon fill="white" stroke="#bfbfbf" points="490.5,-0.5 490.5,-19.5 539.5,-19.5 539.5,-0.5 490.5,-0.5"/>
<text text-anchor="middle" x="515" y="-7.5" font-family="Helvetica,sans-Serif" font-size="10.00">gslib.h</text>
</a>
</g>
</g>
<!-- Node1&#45;&gt;Node9 -->
<g id="edge8" class="edge">
<title>Node1&#45;&gt;Node9</title>
<path fill="none" stroke="midnightblue" d="M347.34,-56.47C384.6,-46.4 431.04,-33.84 480.55,-20.39"/>
<polygon fill="midnightblue" stroke="midnightblue" points="481.76,-23.69 490.49,-17.69 479.93,-16.93 481.76,-23.69"/>
</g>
</g>
</svg>
