<?xml version="1.0" encoding="UTF-8" standalone="no"?>
<!DOCTYPE svg PUBLIC "-//W3C//DTD SVG 1.1//EN"
 "http://www.w3.org/Graphics/SVG/1.1/DTD/svg11.dtd">
<!-- Generated by graphviz version 2.43.0 (0)
 -->
<!-- Title: comp_mij Pages: 1 -->
<svg width="265pt" height="28pt"
 viewBox="0.00 0.00 265.00 28.00" xmlns="http://www.w3.org/2000/svg" xmlns:xlink="http://www.w3.org/1999/xlink">
<g id="graph0" class="graph" transform="scale(1 1) rotate(0) translate(4 24)">
<title>comp_mij</title>
<polygon fill="white" stroke="transparent" points="-4,4 -4,-24 261,-24 261,4 -4,4"/>
<!-- Node1 -->
<g id="node1" class="node">
<title>Node1</title>
<g id="a_node1"><a xlink:title="Compute &#160;for dynamic Smagorinsky model:">
<polygon fill="#bfbfbf" stroke="black" points="192,-0.5 192,-19.5 257,-19.5 257,-0.5 192,-0.5"/>
<text text-anchor="middle" x="224.5" y="-7.5" font-family="Helvetica,sans-Serif" font-size="10.00">comp_mij</text>
</a>
</g>
</g>
<!-- Node2 -->
<g id="node2" class="node">
<title>Node2</title>
<g id="a_node2"><a xlink:href="dyn__smag_8f.html#aaf0f4048a4e81a838bf903f040cf2db1" target="_top" xlink:title="Compute eddy viscosity using dynamic smagorinsky model.">
<polygon fill="white" stroke="black" points="91,-0.5 91,-19.5 156,-19.5 156,-0.5 91,-0.5"/>
<text text-anchor="middle" x="123.5" y="-7.5" font-family="Helvetica,sans-Serif" font-size="10.00">eddy_visc</text>
</a>
</g>
</g>
<!-- Node1&#45;&gt;Node2 -->
<g id="edge1" class="edge">
<title>Node1&#45;&gt;Node2</title>
<path fill="none" stroke="midnightblue" d="M181.69,-10C173.14,-10 164.26,-10 156.14,-10"/>
<polygon fill="midnightblue" stroke="midnightblue" points="181.9,-13.5 191.9,-10 181.9,-6.5 181.9,-13.5"/>
</g>
<!-- Node3 -->
<g id="node3" class="node">
<title>Node3</title>
<g id="a_node3"><a xlink:href="group__abl.html#gaab7e65383186bbbe5e8ee746f763b233" target="_top" xlink:title="Compute the turbulent stress tensors and write statistics.">
<polygon fill="white" stroke="black" points="0,-0.5 0,-19.5 55,-19.5 55,-0.5 0,-0.5"/>
<text text-anchor="middle" x="27.5" y="-7.5" font-family="Helvetica,sans-Serif" font-size="10.00">userchk</text>
</a>
</g>
</g>
<!-- Node2&#45;&gt;Node3 -->
<g id="edge2" class="edge">
<title>Node2&#45;&gt;Node3</title>
<path fill="none" stroke="midnightblue" d="M80.86,-10C72.12,-10 63.13,-10 55.12,-10"/>
<polygon fill="midnightblue" stroke="midnightblue" points="80.94,-13.5 90.94,-10 80.94,-6.5 80.94,-13.5"/>
</g>
</g>
</svg>
