<?xml version="1.0" encoding="UTF-8" standalone="no"?>
<!DOCTYPE svg PUBLIC "-//W3C//DTD SVG 1.1//EN"
 "http://www.w3.org/Graphics/SVG/1.1/DTD/svg11.dtd">
<!-- Generated by graphviz version 2.40.1 (20161225.0304)
 -->
<!-- Title: comp_mij Pages: 1 -->
<svg width="251pt" height="28pt"
 viewBox="0.00 0.00 251.00 28.00" xmlns="http://www.w3.org/2000/svg" xmlns:xlink="http://www.w3.org/1999/xlink">
<g id="graph0" class="graph" transform="scale(1 1) rotate(0) translate(4 24)">
<title>comp_mij</title>
<polygon fill="#ffffff" stroke="transparent" points="-4,4 -4,-24 247,-24 247,4 -4,4"/>
<!-- Node12 -->
<g id="node1" class="node">
<title>Node12</title>
<polygon fill="#bfbfbf" stroke="#000000" points="0,-.5 0,-19.5 59,-19.5 59,-.5 0,-.5"/>
<text text-anchor="middle" x="29.5" y="-7.5" font-family="Helvetica,sans-Serif" font-size="10.00" fill="#000000">comp_mij</text>
</g>
<!-- Node13 -->
<g id="node2" class="node">
<title>Node13</title>
<g id="a_node2"><a xlink:href="dyn__smag_8f.html#aaf0f4048a4e81a838bf903f040cf2db1" target="_top" xlink:title="Compute eddy viscosity using dynamic smagorinsky model. ">
<polygon fill="#ffffff" stroke="#000000" points="95,-.5 95,-19.5 156,-19.5 156,-.5 95,-.5"/>
<text text-anchor="middle" x="125.5" y="-7.5" font-family="Helvetica,sans-Serif" font-size="10.00" fill="#000000">eddy_visc</text>
</a>
</g>
</g>
<!-- Node12&#45;&gt;Node13 -->
<g id="edge1" class="edge">
<title>Node12&#45;&gt;Node13</title>
<path fill="none" stroke="#191970" d="M69.2581,-10C77.8053,-10 86.7119,-10 94.8497,-10"/>
<polygon fill="#191970" stroke="#191970" points="69.0865,-6.5001 59.0865,-10 69.0865,-13.5001 69.0865,-6.5001"/>
</g>
<!-- Node14 -->
<g id="node3" class="node">
<title>Node14</title>
<g id="a_node3"><a xlink:href="group__abl.html#gaab7e65383186bbbe5e8ee746f763b233" target="_top" xlink:title="Compute the turbulent stress tensors and write statistics. ">
<polygon fill="#ffffff" stroke="#000000" points="192,-.5 192,-19.5 243,-19.5 243,-.5 192,-.5"/>
<text text-anchor="middle" x="217.5" y="-7.5" font-family="Helvetica,sans-Serif" font-size="10.00" fill="#000000">userchk</text>
</a>
</g>
</g>
<!-- Node13&#45;&gt;Node14 -->
<g id="edge2" class="edge">
<title>Node13&#45;&gt;Node14</title>
<path fill="none" stroke="#191970" d="M166.1985,-10C174.9382,-10 183.9366,-10 191.9092,-10"/>
<polygon fill="#191970" stroke="#191970" points="166.1347,-6.5001 156.1347,-10 166.1346,-13.5001 166.1347,-6.5001"/>
</g>
</g>
</svg>
