<?xml version="1.0" encoding="UTF-8" standalone="no"?>
<!DOCTYPE svg PUBLIC "-//W3C//DTD SVG 1.1//EN"
 "http://www.w3.org/Graphics/SVG/1.1/DTD/svg11.dtd">
<!-- Generated by graphviz version 2.40.1 (20161225.0304)
 -->
<!-- Title: comp_mij Pages: 1 -->
<svg width="181pt" height="142pt"
 viewBox="0.00 0.00 181.00 142.00" xmlns="http://www.w3.org/2000/svg" xmlns:xlink="http://www.w3.org/1999/xlink">
<g id="graph0" class="graph" transform="scale(1 1) rotate(0) translate(4 138)">
<title>comp_mij</title>
<polygon fill="#ffffff" stroke="transparent" points="-4,4 -4,-138 177,-138 177,4 -4,4"/>
<!-- Node7 -->
<g id="node1" class="node">
<title>Node7</title>
<polygon fill="#bfbfbf" stroke="#000000" points="0,-57.5 0,-76.5 59,-76.5 59,-57.5 0,-57.5"/>
<text text-anchor="middle" x="29.5" y="-64.5" font-family="Helvetica,sans-Serif" font-size="10.00" fill="#000000">comp_mij</text>
</g>
<!-- Node8 -->
<g id="node2" class="node">
<title>Node8</title>
<g id="a_node2"><a xlink:href="postpro_8f.html#af9d2aff92c48c37b10261e543b5f18fb" target="_top" xlink:title="mag_tensor_e">
<polygon fill="#ffffff" stroke="#000000" points="95,-114.5 95,-133.5 173,-133.5 173,-114.5 95,-114.5"/>
<text text-anchor="middle" x="134" y="-121.5" font-family="Helvetica,sans-Serif" font-size="10.00" fill="#000000">mag_tensor_e</text>
</a>
</g>
</g>
<!-- Node7&#45;&gt;Node8 -->
<g id="edge1" class="edge">
<title>Node7&#45;&gt;Node8</title>
<path fill="none" stroke="#191970" d="M45.2022,-76.539C58.3595,-84.4277 77.7119,-95.7895 95,-105 98.0847,-106.6434 101.3325,-108.3154 104.5831,-109.9515"/>
<polygon fill="#191970" stroke="#191970" points="103.1018,-113.1235 113.6178,-114.4142 106.202,-106.8474 103.1018,-113.1235"/>
</g>
<!-- Node9 -->
<g id="node3" class="node">
<title>Node9</title>
<g id="a_node3"><a xlink:href="math_8f.html#ad2b51b68d370651f4f6d81952503e7be" target="_top" xlink:title="cmult">
<polygon fill="#ffffff" stroke="#000000" points="113.5,-76.5 113.5,-95.5 154.5,-95.5 154.5,-76.5 113.5,-76.5"/>
<text text-anchor="middle" x="134" y="-83.5" font-family="Helvetica,sans-Serif" font-size="10.00" fill="#000000">cmult</text>
</a>
</g>
</g>
<!-- Node7&#45;&gt;Node9 -->
<g id="edge2" class="edge">
<title>Node7&#45;&gt;Node9</title>
<path fill="none" stroke="#191970" d="M59.166,-72.3938C72.9182,-74.8942 89.255,-77.8645 103.1506,-80.391"/>
<polygon fill="#191970" stroke="#191970" points="102.7527,-83.876 113.2175,-82.2214 104.0049,-76.9889 102.7527,-83.876"/>
</g>
<!-- Node10 -->
<g id="node4" class="node">
<title>Node10</title>
<g id="a_node4"><a xlink:href="postpro_8f.html#a2b64593a113feea75ebb2c0820824729" target="_top" xlink:title="tens3d1">
<polygon fill="#ffffff" stroke="#000000" points="108.5,-38.5 108.5,-57.5 159.5,-57.5 159.5,-38.5 108.5,-38.5"/>
<text text-anchor="middle" x="134" y="-45.5" font-family="Helvetica,sans-Serif" font-size="10.00" fill="#000000">tens3d1</text>
</a>
</g>
</g>
<!-- Node7&#45;&gt;Node10 -->
<g id="edge3" class="edge">
<title>Node7&#45;&gt;Node10</title>
<path fill="none" stroke="#191970" d="M59.166,-61.6062C71.3549,-59.39 85.5743,-56.8047 98.3247,-54.4864"/>
<polygon fill="#191970" stroke="#191970" points="98.956,-57.9291 108.1685,-52.6966 97.7037,-51.042 98.956,-57.9291"/>
</g>
<!-- Node11 -->
<g id="node5" class="node">
<title>Node11</title>
<g id="a_node5"><a xlink:href="math_8f.html#a0d9af374781723c272547a185cb3da5e" target="_top" xlink:title="col3">
<polygon fill="#ffffff" stroke="#000000" points="116.5,-.5 116.5,-19.5 151.5,-19.5 151.5,-.5 116.5,-.5"/>
<text text-anchor="middle" x="134" y="-7.5" font-family="Helvetica,sans-Serif" font-size="10.00" fill="#000000">col3</text>
</a>
</g>
</g>
<!-- Node7&#45;&gt;Node11 -->
<g id="edge4" class="edge">
<title>Node7&#45;&gt;Node11</title>
<path fill="none" stroke="#191970" d="M45.2022,-57.461C58.3595,-49.5723 77.7119,-38.2105 95,-29 98.8885,-26.9283 103.0365,-24.8113 107.1221,-22.7778"/>
<polygon fill="#191970" stroke="#191970" points="108.9452,-25.7824 116.3912,-18.2453 105.8702,-19.494 108.9452,-25.7824"/>
</g>
</g>
</svg>
