<?xml version="1.0" encoding="UTF-8" standalone="no"?>
<!DOCTYPE svg PUBLIC "-//W3C//DTD SVG 1.1//EN"
 "http://www.w3.org/Graphics/SVG/1.1/DTD/svg11.dtd">
<!-- Generated by graphviz version 2.40.1 (20161225.0304)
 -->
<!-- Title: eddy_visc Pages: 1 -->
<svg width="496pt" height="484pt"
 viewBox="0.00 0.00 496.00 484.00" xmlns="http://www.w3.org/2000/svg" xmlns:xlink="http://www.w3.org/1999/xlink">
<g id="graph0" class="graph" transform="scale(1 1) rotate(0) translate(4 480)">
<title>eddy_visc</title>
<polygon fill="#ffffff" stroke="transparent" points="-4,4 -4,-480 492,-480 492,4 -4,4"/>
<!-- Node15 -->
<g id="node1" class="node">
<title>Node15</title>
<polygon fill="#bfbfbf" stroke="#000000" points="0,-209.5 0,-228.5 61,-228.5 61,-209.5 0,-209.5"/>
<text text-anchor="middle" x="30.5" y="-216.5" font-family="Helvetica,sans-Serif" font-size="10.00" fill="#000000">eddy_visc</text>
</g>
<!-- Node16 -->
<g id="node2" class="node">
<title>Node16</title>
<g id="a_node2"><a xlink:href="utils_8f.html#a2ab8eae9c2bc94febc81540730efd902" target="_top" xlink:title="Setup test filter. ">
<polygon fill="#ffffff" stroke="#000000" points="111,-418.5 111,-437.5 173,-437.5 173,-418.5 111,-418.5"/>
<text text-anchor="middle" x="142" y="-425.5" font-family="Helvetica,sans-Serif" font-size="10.00" fill="#000000">set_ds_filt</text>
</a>
</g>
</g>
<!-- Node15&#45;&gt;Node16 -->
<g id="edge1" class="edge">
<title>Node15&#45;&gt;Node16</title>
<path fill="none" stroke="#191970" d="M32.4888,-228.697C38.4688,-256.133 58.3068,-335.8255 97,-390 102.9357,-398.3105 111.0892,-405.9204 118.8266,-412.1115"/>
<polygon fill="#191970" stroke="#191970" points="116.8462,-415.0019 126.9345,-418.2385 121.0665,-409.4171 116.8462,-415.0019"/>
</g>
<!-- Node19 -->
<g id="node5" class="node">
<title>Node19</title>
<g id="a_node5"><a xlink:href="group__postpro.html#ga2282f2912315313d8c35cfd37389c7f3" target="_top" xlink:title="Compute the gradient tensor G_ij := du_i/du_j, for element e. ">
<polygon fill="#ffffff" stroke="#000000" points="111.5,-361.5 111.5,-380.5 172.5,-380.5 172.5,-361.5 111.5,-361.5"/>
<text text-anchor="middle" x="142" y="-368.5" font-family="Helvetica,sans-Serif" font-size="10.00" fill="#000000">comp_gije</text>
</a>
</g>
</g>
<!-- Node15&#45;&gt;Node19 -->
<g id="edge4" class="edge">
<title>Node15&#45;&gt;Node19</title>
<path fill="none" stroke="#191970" d="M32.8618,-228.774C39.1662,-252.9081 58.5861,-315.9739 97,-352 98.6585,-353.5554 100.4633,-354.9935 102.3654,-356.3216"/>
<polygon fill="#191970" stroke="#191970" points="100.7764,-359.4467 111.1773,-361.4646 104.3049,-353.4011 100.7764,-359.4467"/>
</g>
<!-- Node30 -->
<g id="node16" class="node">
<title>Node30</title>
<g id="a_node16"><a xlink:href="utils_8f.html#a75d89f87799764b6cb777d9ce36c19b7" target="_top" xlink:title="Adjust gradient at the boundary using the MOST relation. ">
<polygon fill="#ffffff" stroke="#000000" points="108.5,-323.5 108.5,-342.5 175.5,-342.5 175.5,-323.5 108.5,-323.5"/>
<text text-anchor="middle" x="142" y="-330.5" font-family="Helvetica,sans-Serif" font-size="10.00" fill="#000000">gij_from_bc</text>
</a>
</g>
</g>
<!-- Node15&#45;&gt;Node30 -->
<g id="edge16" class="edge">
<title>Node15&#45;&gt;Node30</title>
<path fill="none" stroke="#191970" d="M34.9675,-228.6972C44.0977,-247.5509 66.6255,-289.4477 97,-314 99.0198,-315.6326 101.2003,-317.1465 103.4742,-318.5468"/>
<polygon fill="#191970" stroke="#191970" points="102.0943,-321.7774 112.5649,-323.3947 105.3882,-315.6008 102.0943,-321.7774"/>
</g>
<!-- Node31 -->
<g id="node17" class="node">
<title>Node31</title>
<g id="a_node17"><a xlink:href="group__postpro.html#gab683ff84116ad23a19188953209855d0" target="_top" xlink:title="Compute symmetric part of a tensor gije for element. Does not call any other subroutine, but simply evaluates: &#160;. ">
<polygon fill="#ffffff" stroke="#000000" points="111.5,-285.5 111.5,-304.5 172.5,-304.5 172.5,-285.5 111.5,-285.5"/>
<text text-anchor="middle" x="142" y="-292.5" font-family="Helvetica,sans-Serif" font-size="10.00" fill="#000000">comp_sije</text>
</a>
</g>
</g>
<!-- Node15&#45;&gt;Node31 -->
<g id="edge17" class="edge">
<title>Node15&#45;&gt;Node31</title>
<path fill="none" stroke="#191970" d="M41.817,-228.8426C54.7002,-239.8068 76.6075,-257.7326 97,-271 102.1349,-274.3408 107.7811,-277.6288 113.2873,-280.6485"/>
<polygon fill="#191970" stroke="#191970" points="111.8331,-283.8392 122.3064,-285.4392 115.1168,-277.6572 111.8331,-283.8392"/>
</g>
<!-- Node32 -->
<g id="node18" class="node">
<title>Node32</title>
<g id="a_node18"><a xlink:href="postpro_8f.html#af9d2aff92c48c37b10261e543b5f18fb" target="_top" xlink:title="mag_tensor_e">
<polygon fill="#ffffff" stroke="#000000" points="224,-247.5 224,-266.5 302,-266.5 302,-247.5 224,-247.5"/>
<text text-anchor="middle" x="263" y="-254.5" font-family="Helvetica,sans-Serif" font-size="10.00" fill="#000000">mag_tensor_e</text>
</a>
</g>
</g>
<!-- Node15&#45;&gt;Node32 -->
<g id="edge18" class="edge">
<title>Node15&#45;&gt;Node32</title>
<path fill="none" stroke="#191970" d="M61.2107,-225.8933C72.4409,-228.3008 85.2669,-230.919 97,-233 136.0662,-239.929 180.5718,-246.2809 213.6599,-250.7072"/>
<polygon fill="#191970" stroke="#191970" points="213.607,-254.2308 223.9802,-252.075 214.5267,-247.2914 213.607,-254.2308"/>
</g>
<!-- Node33 -->
<g id="node19" class="node">
<title>Node33</title>
<g id="a_node19"><a xlink:href="math_8f.html#ad2b51b68d370651f4f6d81952503e7be" target="_top" xlink:title="cmult">
<polygon fill="#ffffff" stroke="#000000" points="242.5,-209.5 242.5,-228.5 283.5,-228.5 283.5,-209.5 242.5,-209.5"/>
<text text-anchor="middle" x="263" y="-216.5" font-family="Helvetica,sans-Serif" font-size="10.00" fill="#000000">cmult</text>
</a>
</g>
</g>
<!-- Node15&#45;&gt;Node33 -->
<g id="edge19" class="edge">
<title>Node15&#45;&gt;Node33</title>
<path fill="none" stroke="#191970" d="M61.3742,-219C105.8792,-219 187.5912,-219 232.1068,-219"/>
<polygon fill="#191970" stroke="#191970" points="232.3177,-222.5001 242.3177,-219 232.3177,-215.5001 232.3177,-222.5001"/>
</g>
<!-- Node34 -->
<g id="node20" class="node">
<title>Node34</title>
<g id="a_node20"><a xlink:href="dyn__smag_8f.html#ab22253a8777b36796e27d454d220ca8c" target="_top" xlink:title="Compute &#160;for dynamic Smagorinsky model: . ">
<polygon fill="#ffffff" stroke="#000000" points="112.5,-171.5 112.5,-190.5 171.5,-190.5 171.5,-171.5 112.5,-171.5"/>
<text text-anchor="middle" x="142" y="-178.5" font-family="Helvetica,sans-Serif" font-size="10.00" fill="#000000">comp_mij</text>
</a>
</g>
</g>
<!-- Node15&#45;&gt;Node34 -->
<g id="edge20" class="edge">
<title>Node15&#45;&gt;Node34</title>
<path fill="none" stroke="#191970" d="M58.6362,-209.411C72.5015,-204.6856 89.4156,-198.9211 104.3758,-193.8226"/>
<polygon fill="#191970" stroke="#191970" points="105.5365,-197.1248 113.8728,-190.5859 103.2784,-190.499 105.5365,-197.1248"/>
</g>
<!-- Node37 -->
<g id="node23" class="node">
<title>Node37</title>
<g id="a_node23"><a xlink:href="dyn__smag_8f.html#a7010f3628067a6e1db2ecd29852f3031" target="_top" xlink:title="Compute &#160;for dynamic Smagorinsky model: . ">
<polygon fill="#ffffff" stroke="#000000" points="115.5,-133.5 115.5,-152.5 168.5,-152.5 168.5,-133.5 115.5,-133.5"/>
<text text-anchor="middle" x="142" y="-140.5" font-family="Helvetica,sans-Serif" font-size="10.00" fill="#000000">comp_lij</text>
</a>
</g>
</g>
<!-- Node15&#45;&gt;Node37 -->
<g id="edge25" class="edge">
<title>Node15&#45;&gt;Node37</title>
<path fill="none" stroke="#191970" d="M39.6724,-209.4868C51.8647,-197.2508 74.5002,-175.9211 97,-162 99.9748,-160.1594 103.1593,-158.4187 106.4086,-156.7935"/>
<polygon fill="#191970" stroke="#191970" points="108.0123,-159.908 115.6177,-152.5317 105.0724,-153.5553 108.0123,-159.908"/>
</g>
<!-- Node39 -->
<g id="node25" class="node">
<title>Node39</title>
<g id="a_node25"><a xlink:href="math_8f.html#a3b43508554f14bdea8e14473d7d0803c" target="_top" xlink:title="copy">
<polygon fill="#ffffff" stroke="#000000" points="123,-95.5 123,-114.5 161,-114.5 161,-95.5 123,-95.5"/>
<text text-anchor="middle" x="142" y="-102.5" font-family="Helvetica,sans-Serif" font-size="10.00" fill="#000000">copy</text>
</a>
</g>
</g>
<!-- Node15&#45;&gt;Node39 -->
<g id="edge29" class="edge">
<title>Node15&#45;&gt;Node39</title>
<path fill="none" stroke="#191970" d="M34.9675,-209.3028C44.0977,-190.4491 66.6255,-148.5523 97,-124 101.8165,-120.1067 107.5472,-116.8885 113.2785,-114.277"/>
<polygon fill="#191970" stroke="#191970" points="114.8038,-117.4356 122.7632,-110.4428 112.1803,-110.9458 114.8038,-117.4356"/>
</g>
<!-- Node40 -->
<g id="node26" class="node">
<title>Node40</title>
<g id="a_node26"><a xlink:href="ic_8f.html#a12fbcc70f37b3490eeda7dfb002dcc7d" target="_top" xlink:title="dsavg">
<polygon fill="#ffffff" stroke="#000000" points="120.5,-57.5 120.5,-76.5 163.5,-76.5 163.5,-57.5 120.5,-57.5"/>
<text text-anchor="middle" x="142" y="-64.5" font-family="Helvetica,sans-Serif" font-size="10.00" fill="#000000">dsavg</text>
</a>
</g>
</g>
<!-- Node15&#45;&gt;Node40 -->
<g id="edge30" class="edge">
<title>Node15&#45;&gt;Node40</title>
<path fill="none" stroke="#191970" d="M32.8618,-209.226C39.1662,-185.0919 58.5861,-122.0261 97,-86 100.9202,-82.3235 105.6572,-79.3029 110.5665,-76.8387"/>
<polygon fill="#191970" stroke="#191970" points="112.2465,-79.9262 120.0498,-72.7597 109.4805,-73.4958 112.2465,-79.9262"/>
</g>
<!-- Node41 -->
<g id="node27" class="node">
<title>Node41</title>
<g id="a_node27"><a xlink:href="utils_8f.html#acdb01a4b3d25323d8e05757532080584" target="_top" xlink:title="Compute planar average of quantity u along horizontal directions. ">
<polygon fill="#ffffff" stroke="#000000" points="97,-19.5 97,-38.5 187,-38.5 187,-19.5 97,-19.5"/>
<text text-anchor="middle" x="142" y="-26.5" font-family="Helvetica,sans-Serif" font-size="10.00" fill="#000000">planar_avg_horiz</text>
</a>
</g>
</g>
<!-- Node15&#45;&gt;Node41 -->
<g id="edge31" class="edge">
<title>Node15&#45;&gt;Node41</title>
<path fill="none" stroke="#191970" d="M31.6,-209.4744C35.3569,-181.112 50.1599,-96.2004 97,-48 98.3741,-46.586 99.8698,-45.2721 101.4536,-44.0519"/>
<polygon fill="#191970" stroke="#191970" points="103.3555,-46.9904 109.9528,-38.7002 99.6256,-41.0668 103.3555,-46.9904"/>
</g>
<!-- Node17 -->
<g id="node3" class="node">
<title>Node17</title>
<g id="a_node3"><a xlink:href="math_8f.html#ae1294c8ac3b5b3c38bbcc250d252b9cb" target="_top" xlink:title="rone">
<polygon fill="#ffffff" stroke="#000000" points="245.5,-456.5 245.5,-475.5 280.5,-475.5 280.5,-456.5 245.5,-456.5"/>
<text text-anchor="middle" x="263" y="-463.5" font-family="Helvetica,sans-Serif" font-size="10.00" fill="#000000">rone</text>
</a>
</g>
</g>
<!-- Node16&#45;&gt;Node17 -->
<g id="edge2" class="edge">
<title>Node16&#45;&gt;Node17</title>
<path fill="none" stroke="#191970" d="M172.5334,-437.589C191.9087,-443.6738 216.7699,-451.4815 235.5255,-457.3716"/>
<polygon fill="#191970" stroke="#191970" points="234.6542,-460.7665 245.2435,-460.4236 236.7516,-454.0881 234.6542,-460.7665"/>
</g>
<!-- Node18 -->
<g id="node4" class="node">
<title>Node18</title>
<g id="a_node4"><a xlink:href="postpro_8f.html#a384436e1573243f4e088689bbea00453" target="_top" xlink:title="build_1d_filt">
<polygon fill="#ffffff" stroke="#000000" points="229,-418.5 229,-437.5 297,-437.5 297,-418.5 229,-418.5"/>
<text text-anchor="middle" x="263" y="-425.5" font-family="Helvetica,sans-Serif" font-size="10.00" fill="#000000">build_1d_filt</text>
</a>
</g>
</g>
<!-- Node16&#45;&gt;Node18 -->
<g id="edge3" class="edge">
<title>Node16&#45;&gt;Node18</title>
<path fill="none" stroke="#191970" d="M173.1605,-428C187.0424,-428 203.6436,-428 218.7768,-428"/>
<polygon fill="#191970" stroke="#191970" points="218.9677,-431.5001 228.9677,-428 218.9677,-424.5001 218.9677,-431.5001"/>
</g>
<!-- Node20 -->
<g id="node6" class="node">
<title>Node20</title>
<g id="a_node6"><a xlink:href="group__postpro.html#gad24367e4a843f60b63a2205aef1ba551" target="_top" xlink:title="Uses mxm() to compute gradient of 3D arrays. ">
<polygon fill="#ffffff" stroke="#000000" points="230,-380.5 230,-399.5 296,-399.5 296,-380.5 230,-380.5"/>
<text text-anchor="middle" x="263" y="-387.5" font-family="Helvetica,sans-Serif" font-size="10.00" fill="#000000">local_grad3</text>
</a>
</g>
</g>
<!-- Node19&#45;&gt;Node20 -->
<g id="edge5" class="edge">
<title>Node19&#45;&gt;Node20</title>
<path fill="none" stroke="#191970" d="M172.5334,-375.7945C186.891,-378.049 204.2609,-380.7765 219.9265,-383.2364"/>
<polygon fill="#191970" stroke="#191970" points="219.5043,-386.7129 229.9262,-384.8066 220.5902,-379.7976 219.5043,-386.7129"/>
</g>
<!-- Node28 -->
<g id="node14" class="node">
<title>Node28</title>
<g id="a_node14"><a xlink:href="byte_8c.html#a2da8eeb074dfd3ffbfb3e9a4d301cda4" target="_top" xlink:title="exitt">
<polygon fill="#ffffff" stroke="#000000" points="245.5,-304.5 245.5,-323.5 280.5,-323.5 280.5,-304.5 245.5,-304.5"/>
<text text-anchor="middle" x="263" y="-311.5" font-family="Helvetica,sans-Serif" font-size="10.00" fill="#000000">exitt</text>
</a>
</g>
</g>
<!-- Node19&#45;&gt;Node28 -->
<g id="edge13" class="edge">
<title>Node19&#45;&gt;Node28</title>
<path fill="none" stroke="#191970" d="M165.9908,-361.321C172.8315,-358.4399 180.2563,-355.196 187,-352 203.3486,-344.252 206.8255,-341.1052 223,-333 227.2121,-330.8893 231.6997,-328.7003 236.0896,-326.5916"/>
<polygon fill="#191970" stroke="#191970" points="237.8708,-329.6202 245.3986,-322.1647 234.8646,-323.2985 237.8708,-329.6202"/>
</g>
<!-- Node29 -->
<g id="node15" class="node">
<title>Node29</title>
<g id="a_node15"><a xlink:href="group__postpro.html#ga53feb767cebebba399ab3c5a50f53155" target="_top" xlink:title="Uses mxm() to compute gradient of 2D arrays. ">
<polygon fill="#ffffff" stroke="#000000" points="230,-342.5 230,-361.5 296,-361.5 296,-342.5 230,-342.5"/>
<text text-anchor="middle" x="263" y="-349.5" font-family="Helvetica,sans-Serif" font-size="10.00" fill="#000000">local_grad2</text>
</a>
</g>
</g>
<!-- Node19&#45;&gt;Node29 -->
<g id="edge14" class="edge">
<title>Node19&#45;&gt;Node29</title>
<path fill="none" stroke="#191970" d="M172.5334,-366.2055C186.891,-363.951 204.2609,-361.2235 219.9265,-358.7636"/>
<polygon fill="#191970" stroke="#191970" points="220.5902,-362.2024 229.9262,-357.1934 219.5043,-355.2871 220.5902,-362.2024"/>
</g>
<!-- Node21 -->
<g id="node7" class="node">
<title>Node21</title>
<g id="a_node7"><a xlink:href="group__postpro.html#gab9ec2260a10061af6ce1c52f3c8a41da" target="_top" xlink:title="Compute matrix&#45;matrix product C = A*B for contiguously packed matrices A,B, and C. ">
<polygon fill="#ffffff" stroke="#000000" points="339,-361.5 339,-380.5 377,-380.5 377,-361.5 339,-361.5"/>
<text text-anchor="middle" x="358" y="-368.5" font-family="Helvetica,sans-Serif" font-size="10.00" fill="#000000">mxm</text>
</a>
</g>
</g>
<!-- Node20&#45;&gt;Node21 -->
<g id="edge6" class="edge">
<title>Node20&#45;&gt;Node21</title>
<path fill="none" stroke="#191970" d="M296.2264,-383.3547C306.7897,-381.2421 318.3913,-378.9217 328.6599,-376.868"/>
<polygon fill="#191970" stroke="#191970" points="329.6595,-380.2375 338.7789,-374.8442 328.2867,-373.3734 329.6595,-380.2375"/>
</g>
<!-- Node22 -->
<g id="node8" class="node">
<title>Node22</title>
<g id="a_node8"><a xlink:href="comm__mpi_8f.html#af06ec29f06aac3f8809e19de2a7e8946" target="_top" xlink:title="dnekclock">
<polygon fill="#ffffff" stroke="#000000" points="420,-456.5 420,-475.5 481,-475.5 481,-456.5 420,-456.5"/>
<text text-anchor="middle" x="450.5" y="-463.5" font-family="Helvetica,sans-Serif" font-size="10.00" fill="#000000">dnekclock</text>
</a>
</g>
</g>
<!-- Node21&#45;&gt;Node22 -->
<g id="edge7" class="edge">
<title>Node21&#45;&gt;Node22</title>
<path fill="none" stroke="#191970" d="M362.92,-380.5276C371.3661,-396.1232 389.9603,-427.3302 413,-447 414.7138,-448.4631 416.5596,-449.8497 418.4808,-451.1569"/>
<polygon fill="#191970" stroke="#191970" points="416.8296,-454.2474 427.2095,-456.371 420.4194,-448.238 416.8296,-454.2474"/>
</g>
<!-- Node23 -->
<g id="node9" class="node">
<title>Node23</title>
<g id="a_node9"><a xlink:href="mxm__bgq_8f.html#a8faaef428336095704ece51624bbfe92" target="_top" xlink:title="mxm_bgq_8">
<polygon fill="#ffffff" stroke="#000000" points="415.5,-418.5 415.5,-437.5 485.5,-437.5 485.5,-418.5 415.5,-418.5"/>
<text text-anchor="middle" x="450.5" y="-425.5" font-family="Helvetica,sans-Serif" font-size="10.00" fill="#000000">mxm_bgq_8</text>
</a>
</g>
</g>
<!-- Node21&#45;&gt;Node23 -->
<g id="edge8" class="edge">
<title>Node21&#45;&gt;Node23</title>
<path fill="none" stroke="#191970" d="M370.7851,-380.5709C381.728,-388.5813 398.0394,-400.0975 413,-409 415.6734,-410.5909 418.4962,-412.1787 421.3445,-413.7204"/>
<polygon fill="#191970" stroke="#191970" points="419.8933,-416.911 430.3779,-418.4352 423.1322,-410.7054 419.8933,-416.911"/>
</g>
<!-- Node24 -->
<g id="node10" class="node">
<title>Node24</title>
<g id="a_node10"><a xlink:href="mxm__bgq_8f.html#a3fda9ea4bc7a5713a19d6939fa2b541f" target="_top" xlink:title="mxm_bgq_16">
<polygon fill="#ffffff" stroke="#000000" points="413,-380.5 413,-399.5 488,-399.5 488,-380.5 413,-380.5"/>
<text text-anchor="middle" x="450.5" y="-387.5" font-family="Helvetica,sans-Serif" font-size="10.00" fill="#000000">mxm_bgq_16</text>
</a>
</g>
</g>
<!-- Node21&#45;&gt;Node24 -->
<g id="edge9" class="edge">
<title>Node21&#45;&gt;Node24</title>
<path fill="none" stroke="#191970" d="M377.1661,-374.9368C384.7052,-376.4854 393.7267,-378.3385 402.822,-380.2067"/>
<polygon fill="#191970" stroke="#191970" points="402.1539,-383.6424 412.6536,-382.2261 403.5624,-376.7856 402.1539,-383.6424"/>
</g>
<!-- Node25 -->
<g id="node11" class="node">
<title>Node25</title>
<g id="a_node11"><a xlink:href="mxm__bgq_8f.html#a8a70163b4dbfdbfcce7bff170597fcad" target="_top" xlink:title="mxm_bgq_10">
<polygon fill="#ffffff" stroke="#000000" points="413,-342.5 413,-361.5 488,-361.5 488,-342.5 413,-342.5"/>
<text text-anchor="middle" x="450.5" y="-349.5" font-family="Helvetica,sans-Serif" font-size="10.00" fill="#000000">mxm_bgq_10</text>
</a>
</g>
</g>
<!-- Node21&#45;&gt;Node25 -->
<g id="edge10" class="edge">
<title>Node21&#45;&gt;Node25</title>
<path fill="none" stroke="#191970" d="M377.1661,-367.0632C384.7052,-365.5146 393.7267,-363.6615 402.822,-361.7933"/>
<polygon fill="#191970" stroke="#191970" points="403.5624,-365.2144 412.6536,-359.7739 402.1539,-358.3576 403.5624,-365.2144"/>
</g>
<!-- Node26 -->
<g id="node12" class="node">
<title>Node26</title>
<g id="a_node12"><a xlink:href="mxm__bgq_8f.html#af192c3c8b982aa5bbc2a757156718a91" target="_top" xlink:title="mxm_bgq_6">
<polygon fill="#ffffff" stroke="#000000" points="415.5,-304.5 415.5,-323.5 485.5,-323.5 485.5,-304.5 415.5,-304.5"/>
<text text-anchor="middle" x="450.5" y="-311.5" font-family="Helvetica,sans-Serif" font-size="10.00" fill="#000000">mxm_bgq_6</text>
</a>
</g>
</g>
<!-- Node21&#45;&gt;Node26 -->
<g id="edge11" class="edge">
<title>Node21&#45;&gt;Node26</title>
<path fill="none" stroke="#191970" d="M370.7851,-361.4291C381.728,-353.4187 398.0394,-341.9025 413,-333 415.6734,-331.4091 418.4962,-329.8213 421.3445,-328.2796"/>
<polygon fill="#191970" stroke="#191970" points="423.1322,-331.2946 430.3779,-323.5648 419.8933,-325.089 423.1322,-331.2946"/>
</g>
<!-- Node27 -->
<g id="node13" class="node">
<title>Node27</title>
<g id="a_node13"><a xlink:href="mxm__std_8f.html#aa9e8685c4a72f18fb5d1ee88ed17a3d6" target="_top" xlink:title="mxmf2">
<polygon fill="#ffffff" stroke="#000000" points="427,-266.5 427,-285.5 474,-285.5 474,-266.5 427,-266.5"/>
<text text-anchor="middle" x="450.5" y="-273.5" font-family="Helvetica,sans-Serif" font-size="10.00" fill="#000000">mxmf2</text>
</a>
</g>
</g>
<!-- Node21&#45;&gt;Node27 -->
<g id="edge12" class="edge">
<title>Node21&#45;&gt;Node27</title>
<path fill="none" stroke="#191970" d="M362.92,-361.4724C371.3661,-345.8768 389.9603,-314.6698 413,-295 414.7138,-293.5369 416.5596,-292.1503 418.4808,-290.8431"/>
<polygon fill="#191970" stroke="#191970" points="420.4194,-293.762 427.2095,-285.629 416.8296,-287.7526 420.4194,-293.762"/>
</g>
<!-- Node29&#45;&gt;Node21 -->
<g id="edge15" class="edge">
<title>Node29&#45;&gt;Node21</title>
<path fill="none" stroke="#191970" d="M296.2264,-358.6453C306.7897,-360.7579 318.3913,-363.0783 328.6599,-365.132"/>
<polygon fill="#191970" stroke="#191970" points="328.2867,-368.6266 338.7789,-367.1558 329.6595,-361.7625 328.2867,-368.6266"/>
</g>
<!-- Node34&#45;&gt;Node32 -->
<g id="edge21" class="edge">
<title>Node34&#45;&gt;Node32</title>
<path fill="none" stroke="#191970" d="M154.1892,-190.5679C169.6724,-202.4853 197.4566,-223.091 223,-238 225.8551,-239.6665 228.8796,-241.3091 231.9361,-242.889"/>
<polygon fill="#191970" stroke="#191970" points="230.5483,-246.1072 241.0638,-247.4012 233.6504,-239.8321 230.5483,-246.1072"/>
</g>
<!-- Node34&#45;&gt;Node33 -->
<g id="edge22" class="edge">
<title>Node34&#45;&gt;Node33</title>
<path fill="none" stroke="#191970" d="M171.5999,-190.2958C190.1362,-196.1171 213.9624,-203.5998 232.6406,-209.4657"/>
<polygon fill="#191970" stroke="#191970" points="231.8322,-212.8803 242.4215,-212.5373 233.9296,-206.2019 231.8322,-212.8803"/>
</g>
<!-- Node35 -->
<g id="node21" class="node">
<title>Node35</title>
<g id="a_node21"><a xlink:href="postpro_8f.html#a2b64593a113feea75ebb2c0820824729" target="_top" xlink:title="tens3d1">
<polygon fill="#ffffff" stroke="#000000" points="237.5,-171.5 237.5,-190.5 288.5,-190.5 288.5,-171.5 237.5,-171.5"/>
<text text-anchor="middle" x="263" y="-178.5" font-family="Helvetica,sans-Serif" font-size="10.00" fill="#000000">tens3d1</text>
</a>
</g>
</g>
<!-- Node34&#45;&gt;Node35 -->
<g id="edge23" class="edge">
<title>Node34&#45;&gt;Node35</title>
<path fill="none" stroke="#191970" d="M171.5999,-181C188.2865,-181 209.2599,-181 226.9057,-181"/>
<polygon fill="#191970" stroke="#191970" points="227.3945,-184.5001 237.3945,-181 227.3945,-177.5001 227.3945,-184.5001"/>
</g>
<!-- Node36 -->
<g id="node22" class="node">
<title>Node36</title>
<g id="a_node22"><a xlink:href="math_8f.html#a0d9af374781723c272547a185cb3da5e" target="_top" xlink:title="col3">
<polygon fill="#ffffff" stroke="#000000" points="245.5,-133.5 245.5,-152.5 280.5,-152.5 280.5,-133.5 245.5,-133.5"/>
<text text-anchor="middle" x="263" y="-140.5" font-family="Helvetica,sans-Serif" font-size="10.00" fill="#000000">col3</text>
</a>
</g>
</g>
<!-- Node34&#45;&gt;Node36 -->
<g id="edge24" class="edge">
<title>Node34&#45;&gt;Node36</title>
<path fill="none" stroke="#191970" d="M171.5999,-171.7042C191.1709,-165.5579 216.6389,-157.5597 235.7186,-151.5677"/>
<polygon fill="#191970" stroke="#191970" points="236.8236,-154.8893 245.3155,-148.5538 234.7262,-148.2109 236.8236,-154.8893"/>
</g>
<!-- Node37&#45;&gt;Node35 -->
<g id="edge26" class="edge">
<title>Node37&#45;&gt;Node35</title>
<path fill="none" stroke="#191970" d="M168.554,-151.3393C185.8908,-156.7839 208.7264,-163.9554 227.6004,-169.8828"/>
<polygon fill="#191970" stroke="#191970" points="226.7486,-173.2837 237.3379,-172.9408 228.846,-166.6053 226.7486,-173.2837"/>
</g>
<!-- Node37&#45;&gt;Node36 -->
<g id="edge27" class="edge">
<title>Node37&#45;&gt;Node36</title>
<path fill="none" stroke="#191970" d="M168.554,-143C188.3675,-143 215.363,-143 235.4191,-143"/>
<polygon fill="#191970" stroke="#191970" points="235.4783,-146.5001 245.4783,-143 235.4783,-139.5001 235.4783,-146.5001"/>
</g>
<!-- Node38 -->
<g id="node24" class="node">
<title>Node38</title>
<g id="a_node24"><a xlink:href="math_8f.html#a0f22065d62634acdc3883ba95bfcc18a" target="_top" xlink:title="sub2">
<polygon fill="#ffffff" stroke="#000000" points="244,-95.5 244,-114.5 282,-114.5 282,-95.5 244,-95.5"/>
<text text-anchor="middle" x="263" y="-102.5" font-family="Helvetica,sans-Serif" font-size="10.00" fill="#000000">sub2</text>
</a>
</g>
</g>
<!-- Node37&#45;&gt;Node38 -->
<g id="edge28" class="edge">
<title>Node37&#45;&gt;Node38</title>
<path fill="none" stroke="#191970" d="M168.554,-134.6607C187.8664,-128.5957 214.0022,-120.3878 233.8843,-114.1438"/>
<polygon fill="#191970" stroke="#191970" points="235.1502,-117.4148 243.6421,-111.0793 233.0528,-110.7364 235.1502,-117.4148"/>
</g>
<!-- Node42 -->
<g id="node28" class="node">
<title>Node42</title>
<g id="a_node28"><a xlink:href="dssum_8f.html#a93169b7e53973103de1372a81375375a" target="_top" xlink:title="gtpp_gs_setup">
<polygon fill="#ffffff" stroke="#000000" points="223,-38.5 223,-57.5 303,-57.5 303,-38.5 223,-38.5"/>
<text text-anchor="middle" x="263" y="-45.5" font-family="Helvetica,sans-Serif" font-size="10.00" fill="#000000">gtpp_gs_setup</text>
</a>
</g>
</g>
<!-- Node41&#45;&gt;Node42 -->
<g id="edge32" class="edge">
<title>Node41&#45;&gt;Node42</title>
<path fill="none" stroke="#191970" d="M187.0559,-36.0749C195.3677,-37.3801 204.0963,-38.7507 212.5551,-40.0789"/>
<polygon fill="#191970" stroke="#191970" points="212.2711,-43.5771 222.693,-41.6708 213.357,-36.6618 212.2711,-43.5771"/>
</g>
<!-- Node43 -->
<g id="node29" class="node">
<title>Node43</title>
<g id="a_node29"><a xlink:href="navier5_8f.html#a43c9d798cb7be60e09268f4176c0d13f" target="_top" xlink:title="planar_avg">
<polygon fill="#ffffff" stroke="#000000" points="231,-.5 231,-19.5 295,-19.5 295,-.5 231,-.5"/>
<text text-anchor="middle" x="263" y="-7.5" font-family="Helvetica,sans-Serif" font-size="10.00" fill="#000000">planar_avg</text>
</a>
</g>
</g>
<!-- Node41&#45;&gt;Node43 -->
<g id="edge33" class="edge">
<title>Node41&#45;&gt;Node43</title>
<path fill="none" stroke="#191970" d="M187.0559,-21.9251C198.0543,-20.1981 209.7825,-18.3565 220.6497,-16.65"/>
<polygon fill="#191970" stroke="#191970" points="221.417,-20.0725 230.753,-15.0636 220.3311,-13.1573 221.417,-20.0725"/>
</g>
</g>
</svg>
