<?xml version="1.0" encoding="UTF-8" standalone="no"?>
<!DOCTYPE svg PUBLIC "-//W3C//DTD SVG 1.1//EN"
 "http://www.w3.org/Graphics/SVG/1.1/DTD/svg11.dtd">
<!-- Generated by graphviz version 2.40.1 (20161225.0304)
 -->
<!-- Title: comp_lij Pages: 1 -->
<svg width="245pt" height="28pt"
 viewBox="0.00 0.00 245.00 28.00" xmlns="http://www.w3.org/2000/svg" xmlns:xlink="http://www.w3.org/1999/xlink">
<g id="graph0" class="graph" transform="scale(1 1) rotate(0) translate(4 24)">
<title>comp_lij</title>
<polygon fill="#ffffff" stroke="transparent" points="-4,4 -4,-24 241,-24 241,4 -4,4"/>
<!-- Node4 -->
<g id="node1" class="node">
<title>Node4</title>
<polygon fill="#bfbfbf" stroke="#000000" points="0,-.5 0,-19.5 53,-19.5 53,-.5 0,-.5"/>
<text text-anchor="middle" x="26.5" y="-7.5" font-family="Helvetica,sans-Serif" font-size="10.00" fill="#000000">comp_lij</text>
</g>
<!-- Node5 -->
<g id="node2" class="node">
<title>Node5</title>
<g id="a_node2"><a xlink:href="dyn__smag_8f.html#aaf0f4048a4e81a838bf903f040cf2db1" target="_top" xlink:title="Compute eddy viscosity using dynamic smagorinsky model. ">
<polygon fill="#ffffff" stroke="#000000" points="89,-.5 89,-19.5 150,-19.5 150,-.5 89,-.5"/>
<text text-anchor="middle" x="119.5" y="-7.5" font-family="Helvetica,sans-Serif" font-size="10.00" fill="#000000">eddy_visc</text>
</a>
</g>
</g>
<!-- Node4&#45;&gt;Node5 -->
<g id="edge1" class="edge">
<title>Node4&#45;&gt;Node5</title>
<path fill="none" stroke="#191970" d="M63.6348,-10C71.9588,-10 80.7004,-10 88.7321,-10"/>
<polygon fill="#191970" stroke="#191970" points="63.3995,-6.5001 53.3995,-10 63.3994,-13.5001 63.3995,-6.5001"/>
</g>
<!-- Node6 -->
<g id="node3" class="node">
<title>Node6</title>
<g id="a_node3"><a xlink:href="group__abl.html#gaab7e65383186bbbe5e8ee746f763b233" target="_top" xlink:title="Compute the turbulent stress tensors and write statistics. ">
<polygon fill="#ffffff" stroke="#000000" points="186,-.5 186,-19.5 237,-19.5 237,-.5 186,-.5"/>
<text text-anchor="middle" x="211.5" y="-7.5" font-family="Helvetica,sans-Serif" font-size="10.00" fill="#000000">userchk</text>
</a>
</g>
</g>
<!-- Node5&#45;&gt;Node6 -->
<g id="edge2" class="edge">
<title>Node5&#45;&gt;Node6</title>
<path fill="none" stroke="#191970" d="M160.1985,-10C168.9382,-10 177.9366,-10 185.9092,-10"/>
<polygon fill="#191970" stroke="#191970" points="160.1347,-6.5001 150.1347,-10 160.1346,-13.5001 160.1347,-6.5001"/>
</g>
</g>
</svg>
