<?xml version="1.0" encoding="UTF-8" standalone="no"?>
<!DOCTYPE svg PUBLIC "-//W3C//DTD SVG 1.1//EN"
 "http://www.w3.org/Graphics/SVG/1.1/DTD/svg11.dtd">
<!-- Generated by graphviz version 2.40.1 (20161225.0304)
 -->
<!-- Title: comp_lij Pages: 1 -->
<svg width="148pt" height="104pt"
 viewBox="0.00 0.00 148.00 104.00" xmlns="http://www.w3.org/2000/svg" xmlns:xlink="http://www.w3.org/1999/xlink">
<g id="graph0" class="graph" transform="scale(1 1) rotate(0) translate(4 100)">
<title>comp_lij</title>
<polygon fill="#ffffff" stroke="transparent" points="-4,4 -4,-100 144,-100 144,4 -4,4"/>
<!-- Node0 -->
<g id="node1" class="node">
<title>Node0</title>
<polygon fill="#bfbfbf" stroke="#000000" points="0,-38.5 0,-57.5 53,-57.5 53,-38.5 0,-38.5"/>
<text text-anchor="middle" x="26.5" y="-45.5" font-family="Helvetica,sans-Serif" font-size="10.00" fill="#000000">comp_lij</text>
</g>
<!-- Node1 -->
<g id="node2" class="node">
<title>Node1</title>
<g id="a_node2"><a xlink:href="postpro_8f.html#a2b64593a113feea75ebb2c0820824729" target="_top" xlink:title="tens3d1">
<polygon fill="#ffffff" stroke="#000000" points="89,-76.5 89,-95.5 140,-95.5 140,-76.5 89,-76.5"/>
<text text-anchor="middle" x="114.5" y="-83.5" font-family="Helvetica,sans-Serif" font-size="10.00" fill="#000000">tens3d1</text>
</a>
</g>
</g>
<!-- Node0&#45;&gt;Node1 -->
<g id="edge1" class="edge">
<title>Node0&#45;&gt;Node1</title>
<path fill="none" stroke="#191970" d="M48.7061,-57.589C59.1281,-62.0894 71.7325,-67.5322 83.1087,-72.4447"/>
<polygon fill="#191970" stroke="#191970" points="81.7328,-75.6629 92.301,-76.4141 84.5079,-69.2364 81.7328,-75.6629"/>
</g>
<!-- Node2 -->
<g id="node3" class="node">
<title>Node2</title>
<g id="a_node3"><a xlink:href="math_8f.html#a0d9af374781723c272547a185cb3da5e" target="_top" xlink:title="col3">
<polygon fill="#ffffff" stroke="#000000" points="97,-38.5 97,-57.5 132,-57.5 132,-38.5 97,-38.5"/>
<text text-anchor="middle" x="114.5" y="-45.5" font-family="Helvetica,sans-Serif" font-size="10.00" fill="#000000">col3</text>
</a>
</g>
</g>
<!-- Node0&#45;&gt;Node2 -->
<g id="edge2" class="edge">
<title>Node0&#45;&gt;Node2</title>
<path fill="none" stroke="#191970" d="M53.3811,-48C63.9956,-48 76.1848,-48 86.8713,-48"/>
<polygon fill="#191970" stroke="#191970" points="86.943,-51.5001 96.9429,-48 86.9429,-44.5001 86.943,-51.5001"/>
</g>
<!-- Node3 -->
<g id="node4" class="node">
<title>Node3</title>
<g id="a_node4"><a xlink:href="math_8f.html#a0f22065d62634acdc3883ba95bfcc18a" target="_top" xlink:title="sub2">
<polygon fill="#ffffff" stroke="#000000" points="95.5,-.5 95.5,-19.5 133.5,-19.5 133.5,-.5 95.5,-.5"/>
<text text-anchor="middle" x="114.5" y="-7.5" font-family="Helvetica,sans-Serif" font-size="10.00" fill="#000000">sub2</text>
</a>
</g>
</g>
<!-- Node0&#45;&gt;Node3 -->
<g id="edge3" class="edge">
<title>Node0&#45;&gt;Node3</title>
<path fill="none" stroke="#191970" d="M48.7061,-38.411C60.0358,-33.5186 73.9448,-27.5125 86.0511,-22.2848"/>
<polygon fill="#191970" stroke="#191970" points="87.4969,-25.4729 95.29,-18.2952 84.7218,-19.0464 87.4969,-25.4729"/>
</g>
</g>
</svg>
