<?xml version="1.0" encoding="UTF-8" standalone="no"?>
<!DOCTYPE svg PUBLIC "-//W3C//DTD SVG 1.1//EN"
 "http://www.w3.org/Graphics/SVG/1.1/DTD/svg11.dtd">
<!-- Generated by graphviz version 2.43.0 (0)
 -->
<!-- Title: eddy_visc Pages: 1 -->
<svg width="529pt" height="484pt"
 viewBox="0.00 0.00 529.00 484.00" xmlns="http://www.w3.org/2000/svg" xmlns:xlink="http://www.w3.org/1999/xlink">
<g id="graph0" class="graph" transform="scale(1 1) rotate(0) translate(4 480)">
<title>eddy_visc</title>
<polygon fill="white" stroke="transparent" points="-4,4 -4,-480 525,-480 525,4 -4,4"/>
<!-- Node1 -->
<g id="node1" class="node">
<title>Node1</title>
<g id="a_node1"><a xlink:title="Compute eddy viscosity using dynamic smagorinsky model.">
<polygon fill="#bfbfbf" stroke="black" points="0,-228.5 0,-247.5 65,-247.5 65,-228.5 0,-228.5"/>
<text text-anchor="middle" x="32.5" y="-235.5" font-family="Helvetica,sans-Serif" font-size="10.00">eddy_visc</text>
</a>
</g>
</g>
<!-- Node2 -->
<g id="node2" class="node">
<title>Node2</title>
<g id="a_node2"><a xlink:href="math_8f.html#ad2b51b68d370651f4f6d81952503e7be" target="_top" xlink:title=" ">
<polygon fill="white" stroke="black" points="258.5,-456.5 258.5,-475.5 302.5,-475.5 302.5,-456.5 258.5,-456.5"/>
<text text-anchor="middle" x="280.5" y="-463.5" font-family="Helvetica,sans-Serif" font-size="10.00">cmult</text>
</a>
</g>
</g>
<!-- Node1&#45;&gt;Node2 -->
<g id="edge1" class="edge">
<title>Node1&#45;&gt;Node2</title>
<path fill="none" stroke="midnightblue" d="M34.46,-247.73C37.85,-276.66 51.82,-363 101,-409 142.13,-447.47 209.27,-459.98 248.42,-464.04"/>
<polygon fill="midnightblue" stroke="midnightblue" points="248.17,-467.53 258.45,-464.96 248.81,-460.56 248.17,-467.53"/>
</g>
<!-- Node3 -->
<g id="node3" class="node">
<title>Node3</title>
<g id="a_node3"><a xlink:href="group__postpro.html#ga2282f2912315313d8c35cfd37389c7f3" target="_top" xlink:title="Compute the gradient tensor G_ij := du_i/du_j, for element e.">
<polygon fill="white" stroke="black" points="117.5,-266.5 117.5,-285.5 184.5,-285.5 184.5,-266.5 117.5,-266.5"/>
<text text-anchor="middle" x="151" y="-273.5" font-family="Helvetica,sans-Serif" font-size="10.00">comp_gije</text>
</a>
</g>
</g>
<!-- Node1&#45;&gt;Node3 -->
<g id="edge2" class="edge">
<title>Node1&#45;&gt;Node3</title>
<path fill="none" stroke="midnightblue" d="M62.9,-247.59C77.39,-252.31 95.06,-258.08 110.69,-263.18"/>
<polygon fill="midnightblue" stroke="midnightblue" points="110.02,-266.64 120.61,-266.41 112.19,-259.99 110.02,-266.64"/>
</g>
<!-- Node14 -->
<g id="node14" class="node">
<title>Node14</title>
<g id="a_node14"><a xlink:href="dyn__smag_8f.html#a7010f3628067a6e1db2ecd29852f3031" target="_top" xlink:title="Compute &#160;for dynamic Smagorinsky model:">
<polygon fill="white" stroke="black" points="122,-342.5 122,-361.5 180,-361.5 180,-342.5 122,-342.5"/>
<text text-anchor="middle" x="151" y="-349.5" font-family="Helvetica,sans-Serif" font-size="10.00">comp_lij</text>
</a>
</g>
</g>
<!-- Node1&#45;&gt;Node14 -->
<g id="edge14" class="edge">
<title>Node1&#45;&gt;Node14</title>
<path fill="none" stroke="midnightblue" d="M38.63,-247.58C48.59,-265.42 72.11,-304.09 101,-328 105.38,-331.62 110.4,-334.87 115.51,-337.71"/>
<polygon fill="midnightblue" stroke="midnightblue" points="114.21,-340.98 124.71,-342.39 117.39,-334.74 114.21,-340.98"/>
</g>
<!-- Node18 -->
<g id="node18" class="node">
<title>Node18</title>
<g id="a_node18"><a xlink:href="dyn__smag_8f.html#ab22253a8777b36796e27d454d220ca8c" target="_top" xlink:title="Compute &#160;for dynamic Smagorinsky model:">
<polygon fill="white" stroke="black" points="118.5,-380.5 118.5,-399.5 183.5,-399.5 183.5,-380.5 118.5,-380.5"/>
<text text-anchor="middle" x="151" y="-387.5" font-family="Helvetica,sans-Serif" font-size="10.00">comp_mij</text>
</a>
</g>
</g>
<!-- Node1&#45;&gt;Node18 -->
<g id="edge18" class="edge">
<title>Node1&#45;&gt;Node18</title>
<path fill="none" stroke="midnightblue" d="M35.88,-247.85C42.23,-272.14 61.83,-335.56 101,-371 103.47,-373.23 106.23,-375.22 109.15,-376.98"/>
<polygon fill="midnightblue" stroke="midnightblue" points="107.75,-380.19 118.25,-381.6 110.92,-373.95 107.75,-380.19"/>
</g>
<!-- Node19 -->
<g id="node19" class="node">
<title>Node19</title>
<g id="a_node19"><a xlink:href="postpro_8f.html#af9d2aff92c48c37b10261e543b5f18fb" target="_top" xlink:title=" ">
<polygon fill="white" stroke="black" points="237.5,-304.5 237.5,-323.5 323.5,-323.5 323.5,-304.5 237.5,-304.5"/>
<text text-anchor="middle" x="280.5" y="-311.5" font-family="Helvetica,sans-Serif" font-size="10.00">mag_tensor_e</text>
</a>
</g>
</g>
<!-- Node1&#45;&gt;Node19 -->
<g id="edge27" class="edge">
<title>Node1&#45;&gt;Node19</title>
<path fill="none" stroke="midnightblue" d="M41.49,-247.66C53.07,-260.91 75.89,-284.28 101,-295 140.91,-312.05 190.22,-316.17 226.89,-316.38"/>
<polygon fill="midnightblue" stroke="midnightblue" points="227.37,-319.88 237.36,-316.34 227.35,-312.88 227.37,-319.88"/>
</g>
<!-- Node20 -->
<g id="node20" class="node">
<title>Node20</title>
<g id="a_node20"><a xlink:href="group__postpro.html#gab683ff84116ad23a19188953209855d0" target="_top" xlink:title="Compute symmetric part of a tensor gije for element. Does not call any other subroutine,...">
<polygon fill="white" stroke="black" points="118,-228.5 118,-247.5 184,-247.5 184,-228.5 118,-228.5"/>
<text text-anchor="middle" x="151" y="-235.5" font-family="Helvetica,sans-Serif" font-size="10.00">comp_sije</text>
</a>
</g>
</g>
<!-- Node1&#45;&gt;Node20 -->
<g id="edge23" class="edge">
<title>Node1&#45;&gt;Node20</title>
<path fill="none" stroke="midnightblue" d="M65.03,-238C78.02,-238 93.28,-238 107.26,-238"/>
<polygon fill="midnightblue" stroke="midnightblue" points="107.64,-241.5 117.64,-238 107.64,-234.5 107.64,-241.5"/>
</g>
<!-- Node21 -->
<g id="node21" class="node">
<title>Node21</title>
<g id="a_node21"><a xlink:href="math_8f.html#a3b43508554f14bdea8e14473d7d0803c" target="_top" xlink:title=" ">
<polygon fill="white" stroke="black" points="131,-190.5 131,-209.5 171,-209.5 171,-190.5 131,-190.5"/>
<text text-anchor="middle" x="151" y="-197.5" font-family="Helvetica,sans-Serif" font-size="10.00">copy</text>
</a>
</g>
</g>
<!-- Node1&#45;&gt;Node21 -->
<g id="edge24" class="edge">
<title>Node1&#45;&gt;Node21</title>
<path fill="none" stroke="midnightblue" d="M62.9,-228.41C80.7,-222.6 103.32,-215.23 121.05,-209.44"/>
<polygon fill="midnightblue" stroke="midnightblue" points="122.42,-212.68 130.84,-206.25 120.25,-206.02 122.42,-212.68"/>
</g>
<!-- Node22 -->
<g id="node22" class="node">
<title>Node22</title>
<g id="a_node22"><a xlink:href="ic_8f.html#a12fbcc70f37b3490eeda7dfb002dcc7d" target="_top" xlink:title=" ">
<polygon fill="white" stroke="black" points="128,-152.5 128,-171.5 174,-171.5 174,-152.5 128,-152.5"/>
<text text-anchor="middle" x="151" y="-159.5" font-family="Helvetica,sans-Serif" font-size="10.00">dsavg</text>
</a>
</g>
</g>
<!-- Node1&#45;&gt;Node22 -->
<g id="edge25" class="edge">
<title>Node1&#45;&gt;Node22</title>
<path fill="none" stroke="midnightblue" d="M42.78,-228.39C55.11,-216.06 78.05,-194.62 101,-181 106.33,-177.84 112.28,-175.02 118.14,-172.58"/>
<polygon fill="midnightblue" stroke="midnightblue" points="119.75,-175.71 127.81,-168.84 117.22,-169.18 119.75,-175.71"/>
</g>
<!-- Node23 -->
<g id="node23" class="node">
<title>Node23</title>
<g id="a_node23"><a xlink:href="utils_8f.html#a75d89f87799764b6cb777d9ce36c19b7" target="_top" xlink:title="Adjust gradient at the boundary using the MOST relation.">
<polygon fill="white" stroke="black" points="114,-114.5 114,-133.5 188,-133.5 188,-114.5 114,-114.5"/>
<text text-anchor="middle" x="151" y="-121.5" font-family="Helvetica,sans-Serif" font-size="10.00">gij_from_bc</text>
</a>
</g>
</g>
<!-- Node1&#45;&gt;Node23 -->
<g id="edge26" class="edge">
<title>Node1&#45;&gt;Node23</title>
<path fill="none" stroke="midnightblue" d="M38.01,-228.23C47.23,-209.24 70.03,-167.11 101,-143 103.29,-141.21 105.78,-139.58 108.37,-138.08"/>
<polygon fill="midnightblue" stroke="midnightblue" points="110.09,-141.14 117.46,-133.52 106.95,-134.88 110.09,-141.14"/>
</g>
<!-- Node24 -->
<g id="node24" class="node">
<title>Node24</title>
<g id="a_node24"><a xlink:href="utils_8f.html#acdb01a4b3d25323d8e05757532080584" target="_top" xlink:title="Compute planar average of quantity u along horizontal directions.">
<polygon fill="white" stroke="black" points="101,-76.5 101,-95.5 201,-95.5 201,-76.5 101,-76.5"/>
<text text-anchor="middle" x="151" y="-83.5" font-family="Helvetica,sans-Serif" font-size="10.00">planar_avg_horiz</text>
</a>
</g>
</g>
<!-- Node1&#45;&gt;Node24 -->
<g id="edge28" class="edge">
<title>Node1&#45;&gt;Node24</title>
<path fill="none" stroke="midnightblue" d="M35.88,-228.15C42.23,-203.86 61.83,-140.44 101,-105 102.73,-103.43 104.61,-101.99 106.58,-100.66"/>
<polygon fill="midnightblue" stroke="midnightblue" points="108.7,-103.48 115.71,-95.54 105.28,-97.38 108.7,-103.48"/>
</g>
<!-- Node27 -->
<g id="node27" class="node">
<title>Node27</title>
<g id="a_node27"><a xlink:href="utils_8f.html#a2ab8eae9c2bc94febc81540730efd902" target="_top" xlink:title="Setup test filter.">
<polygon fill="white" stroke="black" points="118,-38.5 118,-57.5 184,-57.5 184,-38.5 118,-38.5"/>
<text text-anchor="middle" x="151" y="-45.5" font-family="Helvetica,sans-Serif" font-size="10.00">set_ds_filt</text>
</a>
</g>
</g>
<!-- Node1&#45;&gt;Node27 -->
<g id="edge31" class="edge">
<title>Node1&#45;&gt;Node27</title>
<path fill="none" stroke="midnightblue" d="M34.6,-228.41C38.35,-199.86 53.24,-114.48 101,-67 103.36,-64.65 106.05,-62.59 108.91,-60.77"/>
<polygon fill="midnightblue" stroke="midnightblue" points="110.69,-63.79 117.92,-56.05 107.44,-57.59 110.69,-63.79"/>
</g>
<!-- Node4 -->
<g id="node4" class="node">
<title>Node4</title>
<g id="a_node4"><a xlink:href="byte_8c.html#a2da8eeb074dfd3ffbfb3e9a4d301cda4" target="_top" xlink:title=" ">
<polygon fill="white" stroke="black" points="261,-266.5 261,-285.5 300,-285.5 300,-266.5 261,-266.5"/>
<text text-anchor="middle" x="280.5" y="-273.5" font-family="Helvetica,sans-Serif" font-size="10.00">exitt</text>
</a>
</g>
</g>
<!-- Node3&#45;&gt;Node4 -->
<g id="edge3" class="edge">
<title>Node3&#45;&gt;Node4</title>
<path fill="none" stroke="midnightblue" d="M184.5,-276C204.92,-276 231.02,-276 250.7,-276"/>
<polygon fill="midnightblue" stroke="midnightblue" points="250.89,-279.5 260.89,-276 250.89,-272.5 250.89,-279.5"/>
</g>
<!-- Node5 -->
<g id="node5" class="node">
<title>Node5</title>
<g id="a_node5"><a xlink:href="group__postpro.html#ga53feb767cebebba399ab3c5a50f53155" target="_top" xlink:title="Uses mxm() to compute gradient of 2D arrays.">
<polygon fill="white" stroke="black" points="244,-228.5 244,-247.5 317,-247.5 317,-228.5 244,-228.5"/>
<text text-anchor="middle" x="280.5" y="-235.5" font-family="Helvetica,sans-Serif" font-size="10.00">local_grad2</text>
</a>
</g>
</g>
<!-- Node3&#45;&gt;Node5 -->
<g id="edge4" class="edge">
<title>Node3&#45;&gt;Node5</title>
<path fill="none" stroke="midnightblue" d="M184.17,-266.41C200.33,-261.6 220.11,-255.7 237.45,-250.53"/>
<polygon fill="midnightblue" stroke="midnightblue" points="238.75,-253.8 247.34,-247.59 236.75,-247.09 238.75,-253.8"/>
</g>
<!-- Node13 -->
<g id="node13" class="node">
<title>Node13</title>
<g id="a_node13"><a xlink:href="group__postpro.html#gad24367e4a843f60b63a2205aef1ba551" target="_top" xlink:title="Uses mxm() to compute gradient of 3D arrays.">
<polygon fill="white" stroke="black" points="244,-190.5 244,-209.5 317,-209.5 317,-190.5 244,-190.5"/>
<text text-anchor="middle" x="280.5" y="-197.5" font-family="Helvetica,sans-Serif" font-size="10.00">local_grad3</text>
</a>
</g>
</g>
<!-- Node3&#45;&gt;Node13 -->
<g id="edge12" class="edge">
<title>Node3&#45;&gt;Node13</title>
<path fill="none" stroke="midnightblue" d="M182.84,-266.44C189.11,-263.85 195.47,-260.71 201,-257 220.32,-244.03 218.02,-232.45 237,-219 239.35,-217.34 241.87,-215.77 244.46,-214.3"/>
<polygon fill="midnightblue" stroke="midnightblue" points="246.14,-217.37 253.45,-209.7 242.95,-211.14 246.14,-217.37"/>
</g>
<!-- Node6 -->
<g id="node6" class="node">
<title>Node6</title>
<g id="a_node6"><a xlink:href="group__postpro.html#gab9ec2260a10061af6ce1c52f3c8a41da" target="_top" xlink:title="Compute matrix&#45;matrix product C = A*B for contiguously packed matrices A,B, and C.">
<polygon fill="white" stroke="black" points="360,-209.5 360,-228.5 402,-228.5 402,-209.5 360,-209.5"/>
<text text-anchor="middle" x="381" y="-216.5" font-family="Helvetica,sans-Serif" font-size="10.00">mxm</text>
</a>
</g>
</g>
<!-- Node5&#45;&gt;Node6 -->
<g id="edge5" class="edge">
<title>Node5&#45;&gt;Node6</title>
<path fill="none" stroke="midnightblue" d="M317.06,-231.14C327.89,-229.05 339.68,-226.78 350.09,-224.77"/>
<polygon fill="midnightblue" stroke="midnightblue" points="350.81,-228.2 359.96,-222.86 349.48,-221.32 350.81,-228.2"/>
</g>
<!-- Node7 -->
<g id="node7" class="node">
<title>Node7</title>
<g id="a_node7"><a xlink:href="comm__mpi_8f.html#af06ec29f06aac3f8809e19de2a7e8946" target="_top" xlink:title=" ">
<polygon fill="white" stroke="black" points="446.5,-304.5 446.5,-323.5 512.5,-323.5 512.5,-304.5 446.5,-304.5"/>
<text text-anchor="middle" x="479.5" y="-311.5" font-family="Helvetica,sans-Serif" font-size="10.00">dnekclock</text>
</a>
</g>
</g>
<!-- Node6&#45;&gt;Node7 -->
<g id="edge6" class="edge">
<title>Node6&#45;&gt;Node7</title>
<path fill="none" stroke="midnightblue" d="M386.99,-228.6C395.55,-244.3 414.43,-275.66 438,-295 439.8,-296.48 441.74,-297.88 443.76,-299.19"/>
<polygon fill="midnightblue" stroke="midnightblue" points="442.51,-302.5 452.93,-304.37 445.95,-296.4 442.51,-302.5"/>
</g>
<!-- Node8 -->
<g id="node8" class="node">
<title>Node8</title>
<g id="a_node8"><a xlink:href="mxm__bgq_8f.html#a8a70163b4dbfdbfcce7bff170597fcad" target="_top" xlink:title=" ">
<polygon fill="white" stroke="black" points="438,-266.5 438,-285.5 521,-285.5 521,-266.5 438,-266.5"/>
<text text-anchor="middle" x="479.5" y="-273.5" font-family="Helvetica,sans-Serif" font-size="10.00">mxm_bgq_10</text>
</a>
</g>
</g>
<!-- Node6&#45;&gt;Node8 -->
<g id="edge7" class="edge">
<title>Node6&#45;&gt;Node8</title>
<path fill="none" stroke="midnightblue" d="M394.97,-228.67C406.09,-236.73 422.68,-248.28 438,-257 440.9,-258.65 443.97,-260.28 447.07,-261.86"/>
<polygon fill="midnightblue" stroke="midnightblue" points="445.8,-265.13 456.32,-266.36 448.86,-258.84 445.8,-265.13"/>
</g>
<!-- Node9 -->
<g id="node9" class="node">
<title>Node9</title>
<g id="a_node9"><a xlink:href="mxm__bgq_8f.html#a3fda9ea4bc7a5713a19d6939fa2b541f" target="_top" xlink:title=" ">
<polygon fill="white" stroke="black" points="438,-228.5 438,-247.5 521,-247.5 521,-228.5 438,-228.5"/>
<text text-anchor="middle" x="479.5" y="-235.5" font-family="Helvetica,sans-Serif" font-size="10.00">mxm_bgq_16</text>
</a>
</g>
</g>
<!-- Node6&#45;&gt;Node9 -->
<g id="edge8" class="edge">
<title>Node6&#45;&gt;Node9</title>
<path fill="none" stroke="midnightblue" d="M402.47,-223.03C409.94,-224.5 418.77,-226.24 427.71,-228"/>
<polygon fill="midnightblue" stroke="midnightblue" points="427.31,-231.49 437.79,-229.99 428.66,-224.62 427.31,-231.49"/>
</g>
<!-- Node10 -->
<g id="node10" class="node">
<title>Node10</title>
<g id="a_node10"><a xlink:href="mxm__bgq_8f.html#af192c3c8b982aa5bbc2a757156718a91" target="_top" xlink:title=" ">
<polygon fill="white" stroke="black" points="441,-190.5 441,-209.5 518,-209.5 518,-190.5 441,-190.5"/>
<text text-anchor="middle" x="479.5" y="-197.5" font-family="Helvetica,sans-Serif" font-size="10.00">mxm_bgq_6</text>
</a>
</g>
</g>
<!-- Node6&#45;&gt;Node10 -->
<g id="edge9" class="edge">
<title>Node6&#45;&gt;Node10</title>
<path fill="none" stroke="midnightblue" d="M402.47,-214.97C410.85,-213.32 420.93,-211.34 430.96,-209.36"/>
<polygon fill="midnightblue" stroke="midnightblue" points="431.79,-212.76 440.92,-207.4 430.44,-205.9 431.79,-212.76"/>
</g>
<!-- Node11 -->
<g id="node11" class="node">
<title>Node11</title>
<g id="a_node11"><a xlink:href="mxm__bgq_8f.html#a8faaef428336095704ece51624bbfe92" target="_top" xlink:title=" ">
<polygon fill="white" stroke="black" points="441,-152.5 441,-171.5 518,-171.5 518,-152.5 441,-152.5"/>
<text text-anchor="middle" x="479.5" y="-159.5" font-family="Helvetica,sans-Serif" font-size="10.00">mxm_bgq_8</text>
</a>
</g>
</g>
<!-- Node6&#45;&gt;Node11 -->
<g id="edge10" class="edge">
<title>Node6&#45;&gt;Node11</title>
<path fill="none" stroke="midnightblue" d="M394.97,-209.33C406.09,-201.27 422.68,-189.72 438,-181 440.9,-179.35 443.97,-177.72 447.07,-176.14"/>
<polygon fill="midnightblue" stroke="midnightblue" points="448.86,-179.16 456.32,-171.64 445.8,-172.87 448.86,-179.16"/>
</g>
<!-- Node12 -->
<g id="node12" class="node">
<title>Node12</title>
<g id="a_node12"><a xlink:href="mxm__std_8f.html#aa9e8685c4a72f18fb5d1ee88ed17a3d6" target="_top" xlink:title=" ">
<polygon fill="white" stroke="black" points="453.5,-114.5 453.5,-133.5 505.5,-133.5 505.5,-114.5 453.5,-114.5"/>
<text text-anchor="middle" x="479.5" y="-121.5" font-family="Helvetica,sans-Serif" font-size="10.00">mxmf2</text>
</a>
</g>
</g>
<!-- Node6&#45;&gt;Node12 -->
<g id="edge11" class="edge">
<title>Node6&#45;&gt;Node12</title>
<path fill="none" stroke="midnightblue" d="M386.99,-209.4C395.55,-193.7 414.43,-162.34 438,-143 440,-141.36 442.16,-139.83 444.41,-138.4"/>
<polygon fill="midnightblue" stroke="midnightblue" points="446.32,-141.34 453.36,-133.42 442.92,-135.22 446.32,-141.34"/>
</g>
<!-- Node13&#45;&gt;Node6 -->
<g id="edge13" class="edge">
<title>Node13&#45;&gt;Node6</title>
<path fill="none" stroke="midnightblue" d="M317.06,-206.86C327.89,-208.95 339.68,-211.22 350.09,-213.23"/>
<polygon fill="midnightblue" stroke="midnightblue" points="349.48,-216.68 359.96,-215.14 350.81,-209.8 349.48,-216.68"/>
</g>
<!-- Node15 -->
<g id="node15" class="node">
<title>Node15</title>
<g id="a_node15"><a xlink:href="math_8f.html#a0d9af374781723c272547a185cb3da5e" target="_top" xlink:title=" ">
<polygon fill="white" stroke="black" points="262,-418.5 262,-437.5 299,-437.5 299,-418.5 262,-418.5"/>
<text text-anchor="middle" x="280.5" y="-425.5" font-family="Helvetica,sans-Serif" font-size="10.00">col3</text>
</a>
</g>
</g>
<!-- Node14&#45;&gt;Node15 -->
<g id="edge15" class="edge">
<title>Node14&#45;&gt;Node15</title>
<path fill="none" stroke="midnightblue" d="M180.02,-360.42C187.17,-363.21 194.64,-366.73 201,-371 220.32,-383.97 218.02,-395.55 237,-409 241.7,-412.33 247.07,-415.28 252.39,-417.8"/>
<polygon fill="midnightblue" stroke="midnightblue" points="251.15,-421.08 261.72,-421.86 253.95,-414.66 251.15,-421.08"/>
</g>
<!-- Node16 -->
<g id="node16" class="node">
<title>Node16</title>
<g id="a_node16"><a xlink:href="math_8f.html#a0f22065d62634acdc3883ba95bfcc18a" target="_top" xlink:title=" ">
<polygon fill="white" stroke="black" points="260.5,-342.5 260.5,-361.5 300.5,-361.5 300.5,-342.5 260.5,-342.5"/>
<text text-anchor="middle" x="280.5" y="-349.5" font-family="Helvetica,sans-Serif" font-size="10.00">sub2</text>
</a>
</g>
</g>
<!-- Node14&#45;&gt;Node16 -->
<g id="edge16" class="edge">
<title>Node14&#45;&gt;Node16</title>
<path fill="none" stroke="midnightblue" d="M180.3,-352C201.04,-352 229.12,-352 250.11,-352"/>
<polygon fill="midnightblue" stroke="midnightblue" points="250.37,-355.5 260.37,-352 250.37,-348.5 250.37,-355.5"/>
</g>
<!-- Node17 -->
<g id="node17" class="node">
<title>Node17</title>
<g id="a_node17"><a xlink:href="postpro_8f.html#a2b64593a113feea75ebb2c0820824729" target="_top" xlink:title=" ">
<polygon fill="white" stroke="black" points="252.5,-380.5 252.5,-399.5 308.5,-399.5 308.5,-380.5 252.5,-380.5"/>
<text text-anchor="middle" x="280.5" y="-387.5" font-family="Helvetica,sans-Serif" font-size="10.00">tens3d1</text>
</a>
</g>
</g>
<!-- Node14&#45;&gt;Node17 -->
<g id="edge17" class="edge">
<title>Node14&#45;&gt;Node17</title>
<path fill="none" stroke="midnightblue" d="M180.3,-360.43C198.62,-365.9 222.68,-373.07 242.51,-378.98"/>
<polygon fill="midnightblue" stroke="midnightblue" points="241.57,-382.35 252.16,-381.85 243.57,-375.64 241.57,-382.35"/>
</g>
<!-- Node18&#45;&gt;Node2 -->
<g id="edge19" class="edge">
<title>Node18&#45;&gt;Node2</title>
<path fill="none" stroke="midnightblue" d="M164.81,-399.6C181.08,-411.56 210.26,-432.2 237,-447 240.82,-449.11 244.92,-451.18 249.01,-453.13"/>
<polygon fill="midnightblue" stroke="midnightblue" points="247.85,-456.45 258.4,-457.42 250.76,-450.08 247.85,-456.45"/>
</g>
<!-- Node18&#45;&gt;Node15 -->
<g id="edge20" class="edge">
<title>Node18&#45;&gt;Node15</title>
<path fill="none" stroke="midnightblue" d="M183.52,-399.39C204.49,-405.64 231.78,-413.78 251.9,-419.77"/>
<polygon fill="midnightblue" stroke="midnightblue" points="251.11,-423.19 261.69,-422.69 253.11,-416.48 251.11,-423.19"/>
</g>
<!-- Node18&#45;&gt;Node17 -->
<g id="edge22" class="edge">
<title>Node18&#45;&gt;Node17</title>
<path fill="none" stroke="midnightblue" d="M183.52,-390C201.23,-390 223.45,-390 242.05,-390"/>
<polygon fill="midnightblue" stroke="midnightblue" points="242.23,-393.5 252.23,-390 242.23,-386.5 242.23,-393.5"/>
</g>
<!-- Node18&#45;&gt;Node19 -->
<g id="edge21" class="edge">
<title>Node18&#45;&gt;Node19</title>
<path fill="none" stroke="midnightblue" d="M182.84,-380.44C189.11,-377.85 195.47,-374.71 201,-371 220.32,-358.03 218.02,-346.45 237,-333 239.35,-331.34 241.87,-329.77 244.46,-328.3"/>
<polygon fill="midnightblue" stroke="midnightblue" points="246.14,-331.37 253.45,-323.7 242.95,-325.14 246.14,-331.37"/>
</g>
<!-- Node25 -->
<g id="node25" class="node">
<title>Node25</title>
<g id="a_node25"><a xlink:href="dssum_8f.html#a93169b7e53973103de1372a81375375a" target="_top" xlink:title=" ">
<polygon fill="white" stroke="black" points="237,-114.5 237,-133.5 324,-133.5 324,-114.5 237,-114.5"/>
<text text-anchor="middle" x="280.5" y="-121.5" font-family="Helvetica,sans-Serif" font-size="10.00">gtpp_gs_setup</text>
</a>
</g>
</g>
<!-- Node24&#45;&gt;Node25 -->
<g id="edge29" class="edge">
<title>Node24&#45;&gt;Node25</title>
<path fill="none" stroke="midnightblue" d="M184.17,-95.59C200.33,-100.4 220.11,-106.3 237.45,-111.47"/>
<polygon fill="midnightblue" stroke="midnightblue" points="236.75,-114.91 247.34,-114.41 238.75,-108.2 236.75,-114.91"/>
</g>
<!-- Node26 -->
<g id="node26" class="node">
<title>Node26</title>
<g id="a_node26"><a xlink:href="navier5_8f.html#a43c9d798cb7be60e09268f4176c0d13f" target="_top" xlink:title=" ">
<polygon fill="white" stroke="black" points="245,-76.5 245,-95.5 316,-95.5 316,-76.5 245,-76.5"/>
<text text-anchor="middle" x="280.5" y="-83.5" font-family="Helvetica,sans-Serif" font-size="10.00">planar_avg</text>
</a>
</g>
</g>
<!-- Node24&#45;&gt;Node26 -->
<g id="edge30" class="edge">
<title>Node24&#45;&gt;Node26</title>
<path fill="none" stroke="midnightblue" d="M201.29,-86C212.34,-86 224,-86 234.84,-86"/>
<polygon fill="midnightblue" stroke="midnightblue" points="234.94,-89.5 244.94,-86 234.94,-82.5 234.94,-89.5"/>
</g>
<!-- Node28 -->
<g id="node28" class="node">
<title>Node28</title>
<g id="a_node28"><a xlink:href="postpro_8f.html#a384436e1573243f4e088689bbea00453" target="_top" xlink:title=" ">
<polygon fill="white" stroke="black" points="242.5,-38.5 242.5,-57.5 318.5,-57.5 318.5,-38.5 242.5,-38.5"/>
<text text-anchor="middle" x="280.5" y="-45.5" font-family="Helvetica,sans-Serif" font-size="10.00">build_1d_filt</text>
</a>
</g>
</g>
<!-- Node27&#45;&gt;Node28 -->
<g id="edge32" class="edge">
<title>Node27&#45;&gt;Node28</title>
<path fill="none" stroke="midnightblue" d="M184.17,-48C198.7,-48 216.15,-48 232.12,-48"/>
<polygon fill="midnightblue" stroke="midnightblue" points="232.36,-51.5 242.36,-48 232.36,-44.5 232.36,-51.5"/>
</g>
<!-- Node29 -->
<g id="node29" class="node">
<title>Node29</title>
<g id="a_node29"><a xlink:href="math_8f.html#ae1294c8ac3b5b3c38bbcc250d252b9cb" target="_top" xlink:title=" ">
<polygon fill="white" stroke="black" points="261.5,-0.5 261.5,-19.5 299.5,-19.5 299.5,-0.5 261.5,-0.5"/>
<text text-anchor="middle" x="280.5" y="-7.5" font-family="Helvetica,sans-Serif" font-size="10.00">rone</text>
</a>
</g>
</g>
<!-- Node27&#45;&gt;Node29 -->
<g id="edge33" class="edge">
<title>Node27&#45;&gt;Node29</title>
<path fill="none" stroke="midnightblue" d="M184.17,-38.41C204.9,-32.23 231.6,-24.28 251.46,-18.36"/>
<polygon fill="midnightblue" stroke="midnightblue" points="252.57,-21.68 261.16,-15.47 250.57,-14.97 252.57,-21.68"/>
</g>
</g>
</svg>
