<?xml version="1.0" encoding="UTF-8" standalone="no"?>
<!DOCTYPE svg PUBLIC "-//W3C//DTD SVG 1.1//EN"
 "http://www.w3.org/Graphics/SVG/1.1/DTD/svg11.dtd">
<!-- Generated by graphviz version 2.40.1 (20161225.0304)
 -->
<!-- Title: /home/runner/work/snek5000&#45;abl/snek5000&#45;abl/lib/Nek5000/core/fcrs.c Pages: 1 -->
<svg width="377pt" height="106pt"
 viewBox="0.00 0.00 377.00 106.00" xmlns="http://www.w3.org/2000/svg" xmlns:xlink="http://www.w3.org/1999/xlink">
<g id="graph0" class="graph" transform="scale(1 1) rotate(0) translate(4 102)">
<title>/home/runner/work/snek5000&#45;abl/snek5000&#45;abl/lib/Nek5000/core/fcrs.c</title>
<polygon fill="#ffffff" stroke="transparent" points="-4,4 -4,-102 373,-102 373,4 -4,4"/>
<!-- Node0 -->
<g id="node1" class="node">
<title>Node0</title>
<polygon fill="#bfbfbf" stroke="#000000" points="117,-56.5 117,-97.5 265,-97.5 265,-56.5 117,-56.5"/>
<text text-anchor="start" x="125" y="-85.5" font-family="Helvetica,sans-Serif" font-size="10.00" fill="#000000">/home/runner/work/snek5000</text>
<text text-anchor="start" x="125" y="-74.5" font-family="Helvetica,sans-Serif" font-size="10.00" fill="#000000">&#45;abl/snek5000&#45;abl/lib/Nek5000</text>
<text text-anchor="middle" x="191" y="-63.5" font-family="Helvetica,sans-Serif" font-size="10.00" fill="#000000">/core/fcrs.c</text>
</g>
<!-- Node1 -->
<g id="node2" class="node">
<title>Node1</title>
<polygon fill="#ffffff" stroke="#bfbfbf" points="0,-.5 0,-19.5 46,-19.5 46,-.5 0,-.5"/>
<text text-anchor="middle" x="23" y="-7.5" font-family="Helvetica,sans-Serif" font-size="10.00" fill="#000000">stdio.h</text>
</g>
<!-- Node0&#45;&gt;Node1 -->
<g id="edge1" class="edge">
<title>Node0&#45;&gt;Node1</title>
<path fill="none" stroke="#191970" d="M139.2236,-56.3511C112.0599,-45.5179 79.597,-32.5714 55.893,-23.1181"/>
<polygon fill="#191970" stroke="#191970" points="56.8965,-19.7502 46.3114,-19.2968 54.3034,-26.2522 56.8965,-19.7502"/>
</g>
<!-- Node2 -->
<g id="node3" class="node">
<title>Node2</title>
<polygon fill="#ffffff" stroke="#bfbfbf" points="64,-.5 64,-19.5 116,-19.5 116,-.5 64,-.5"/>
<text text-anchor="middle" x="90" y="-7.5" font-family="Helvetica,sans-Serif" font-size="10.00" fill="#000000">stddef.h</text>
</g>
<!-- Node0&#45;&gt;Node2 -->
<g id="edge2" class="edge">
<title>Node0&#45;&gt;Node2</title>
<path fill="none" stroke="#191970" d="M159.8725,-56.3511C144.7528,-46.3212 126.9022,-34.4797 113.0283,-25.2762"/>
<polygon fill="#191970" stroke="#191970" points="114.822,-22.266 104.554,-19.6546 110.9524,-28.0992 114.822,-22.266"/>
</g>
<!-- Node3 -->
<g id="node4" class="node">
<title>Node3</title>
<polygon fill="#ffffff" stroke="#bfbfbf" points="134,-.5 134,-19.5 182,-19.5 182,-.5 134,-.5"/>
<text text-anchor="middle" x="158" y="-7.5" font-family="Helvetica,sans-Serif" font-size="10.00" fill="#000000">stdlib.h</text>
</g>
<!-- Node0&#45;&gt;Node3 -->
<g id="edge3" class="edge">
<title>Node0&#45;&gt;Node3</title>
<path fill="none" stroke="#191970" d="M180.7395,-56.168C176.4422,-47.4433 171.4827,-37.374 167.2942,-28.87"/>
<polygon fill="#191970" stroke="#191970" points="170.3756,-27.2049 162.8172,-19.7805 164.096,-30.2979 170.3756,-27.2049"/>
</g>
<!-- Node4 -->
<g id="node5" class="node">
<title>Node4</title>
<polygon fill="#ffffff" stroke="#bfbfbf" points="200.5,-.5 200.5,-19.5 249.5,-19.5 249.5,-.5 200.5,-.5"/>
<text text-anchor="middle" x="225" y="-7.5" font-family="Helvetica,sans-Serif" font-size="10.00" fill="#000000">string.h</text>
</g>
<!-- Node0&#45;&gt;Node4 -->
<g id="edge4" class="edge">
<title>Node0&#45;&gt;Node4</title>
<path fill="none" stroke="#191970" d="M201.5714,-56.168C205.9989,-47.4433 211.1087,-37.374 215.4242,-28.87"/>
<polygon fill="#191970" stroke="#191970" points="218.6326,-30.2818 220.0368,-19.7805 212.3903,-27.1141 218.6326,-30.2818"/>
</g>
<!-- Node5 -->
<g id="node6" class="node">
<title>Node5</title>
<polygon fill="#ffffff" stroke="#bfbfbf" points="267.5,-.5 267.5,-19.5 312.5,-19.5 312.5,-.5 267.5,-.5"/>
<text text-anchor="middle" x="290" y="-7.5" font-family="Helvetica,sans-Serif" font-size="10.00" fill="#000000">gslib.h</text>
</g>
<!-- Node0&#45;&gt;Node5 -->
<g id="edge5" class="edge">
<title>Node0&#45;&gt;Node5</title>
<path fill="none" stroke="#191970" d="M221.5111,-56.3511C236.3314,-46.3212 253.8285,-34.4797 267.4278,-25.2762"/>
<polygon fill="#191970" stroke="#191970" points="269.4142,-28.1581 275.7342,-19.6546 265.4908,-22.3609 269.4142,-28.1581"/>
</g>
<!-- Node6 -->
<g id="node7" class="node">
<title>Node6</title>
<g id="a_node7"><a xlink:href="crs_8h.html" target="_top" xlink:title="crs.h">
<polygon fill="#ffffff" stroke="#000000" points="331,-.5 331,-19.5 369,-19.5 369,-.5 331,-.5"/>
<text text-anchor="middle" x="350" y="-7.5" font-family="Helvetica,sans-Serif" font-size="10.00" fill="#000000">crs.h</text>
</a>
</g>
</g>
<!-- Node0&#45;&gt;Node6 -->
<g id="edge6" class="edge">
<title>Node0&#45;&gt;Node6</title>
<path fill="none" stroke="#191970" d="M240.0026,-56.3511C266.7092,-45.0974 298.8279,-31.5631 321.4435,-22.0332"/>
<polygon fill="#191970" stroke="#191970" points="322.9549,-25.1945 330.811,-18.0859 320.2366,-18.7438 322.9549,-25.1945"/>
</g>
</g>
</svg>
