<?xml version="1.0" encoding="UTF-8" standalone="no"?>
<!DOCTYPE svg PUBLIC "-//W3C//DTD SVG 1.1//EN"
 "http://www.w3.org/Graphics/SVG/1.1/DTD/svg11.dtd">
<!-- Generated by graphviz version 2.40.1 (20161225.0304)
 -->
<!-- Title: local_grad2 Pages: 1 -->
<svg width="259pt" height="218pt"
 viewBox="0.00 0.00 259.00 218.00" xmlns="http://www.w3.org/2000/svg" xmlns:xlink="http://www.w3.org/1999/xlink">
<g id="graph0" class="graph" transform="scale(1 1) rotate(0) translate(4 214)">
<title>local_grad2</title>
<polygon fill="#ffffff" stroke="transparent" points="-4,4 -4,-214 255,-214 255,4 -4,4"/>
<!-- Node11 -->
<g id="node1" class="node">
<title>Node11</title>
<polygon fill="#bfbfbf" stroke="#000000" points="0,-95.5 0,-114.5 66,-114.5 66,-95.5 0,-95.5"/>
<text text-anchor="middle" x="33" y="-102.5" font-family="Helvetica,sans-Serif" font-size="10.00" fill="#000000">local_grad2</text>
</g>
<!-- Node12 -->
<g id="node2" class="node">
<title>Node12</title>
<g id="a_node2"><a xlink:href="group__postpro.html#gab9ec2260a10061af6ce1c52f3c8a41da" target="_top" xlink:title="Compute matrix&#45;matrix product C = A*B for contiguously packed matrices A,B, and C. ">
<polygon fill="#ffffff" stroke="#000000" points="102,-95.5 102,-114.5 140,-114.5 140,-95.5 102,-95.5"/>
<text text-anchor="middle" x="121" y="-102.5" font-family="Helvetica,sans-Serif" font-size="10.00" fill="#000000">mxm</text>
</a>
</g>
</g>
<!-- Node11&#45;&gt;Node12 -->
<g id="edge1" class="edge">
<title>Node11&#45;&gt;Node12</title>
<path fill="none" stroke="#191970" d="M66.0183,-105C74.4281,-105 83.4097,-105 91.6241,-105"/>
<polygon fill="#191970" stroke="#191970" points="91.8681,-108.5001 101.868,-105 91.868,-101.5001 91.8681,-108.5001"/>
</g>
<!-- Node13 -->
<g id="node3" class="node">
<title>Node13</title>
<g id="a_node3"><a xlink:href="comm__mpi_8f.html#af06ec29f06aac3f8809e19de2a7e8946" target="_top" xlink:title="dnekclock">
<polygon fill="#ffffff" stroke="#000000" points="183,-190.5 183,-209.5 244,-209.5 244,-190.5 183,-190.5"/>
<text text-anchor="middle" x="213.5" y="-197.5" font-family="Helvetica,sans-Serif" font-size="10.00" fill="#000000">dnekclock</text>
</a>
</g>
</g>
<!-- Node12&#45;&gt;Node13 -->
<g id="edge2" class="edge">
<title>Node12&#45;&gt;Node13</title>
<path fill="none" stroke="#191970" d="M125.92,-114.5276C134.3661,-130.1232 152.9603,-161.3302 176,-181 177.7138,-182.4631 179.5596,-183.8497 181.4808,-185.1569"/>
<polygon fill="#191970" stroke="#191970" points="179.8296,-188.2474 190.2095,-190.371 183.4194,-182.238 179.8296,-188.2474"/>
</g>
<!-- Node14 -->
<g id="node4" class="node">
<title>Node14</title>
<g id="a_node4"><a xlink:href="mxm__bgq_8f.html#a8faaef428336095704ece51624bbfe92" target="_top" xlink:title="mxm_bgq_8">
<polygon fill="#ffffff" stroke="#000000" points="178.5,-152.5 178.5,-171.5 248.5,-171.5 248.5,-152.5 178.5,-152.5"/>
<text text-anchor="middle" x="213.5" y="-159.5" font-family="Helvetica,sans-Serif" font-size="10.00" fill="#000000">mxm_bgq_8</text>
</a>
</g>
</g>
<!-- Node12&#45;&gt;Node14 -->
<g id="edge3" class="edge">
<title>Node12&#45;&gt;Node14</title>
<path fill="none" stroke="#191970" d="M133.7851,-114.5709C144.728,-122.5813 161.0394,-134.0975 176,-143 178.6734,-144.5909 181.4962,-146.1787 184.3445,-147.7204"/>
<polygon fill="#191970" stroke="#191970" points="182.8933,-150.911 193.3779,-152.4352 186.1322,-144.7054 182.8933,-150.911"/>
</g>
<!-- Node15 -->
<g id="node5" class="node">
<title>Node15</title>
<g id="a_node5"><a xlink:href="mxm__bgq_8f.html#a3fda9ea4bc7a5713a19d6939fa2b541f" target="_top" xlink:title="mxm_bgq_16">
<polygon fill="#ffffff" stroke="#000000" points="176,-114.5 176,-133.5 251,-133.5 251,-114.5 176,-114.5"/>
<text text-anchor="middle" x="213.5" y="-121.5" font-family="Helvetica,sans-Serif" font-size="10.00" fill="#000000">mxm_bgq_16</text>
</a>
</g>
</g>
<!-- Node12&#45;&gt;Node15 -->
<g id="edge4" class="edge">
<title>Node12&#45;&gt;Node15</title>
<path fill="none" stroke="#191970" d="M140.1661,-108.9368C147.7052,-110.4854 156.7267,-112.3385 165.822,-114.2067"/>
<polygon fill="#191970" stroke="#191970" points="165.1539,-117.6424 175.6536,-116.2261 166.5624,-110.7856 165.1539,-117.6424"/>
</g>
<!-- Node16 -->
<g id="node6" class="node">
<title>Node16</title>
<g id="a_node6"><a xlink:href="mxm__bgq_8f.html#a8a70163b4dbfdbfcce7bff170597fcad" target="_top" xlink:title="mxm_bgq_10">
<polygon fill="#ffffff" stroke="#000000" points="176,-76.5 176,-95.5 251,-95.5 251,-76.5 176,-76.5"/>
<text text-anchor="middle" x="213.5" y="-83.5" font-family="Helvetica,sans-Serif" font-size="10.00" fill="#000000">mxm_bgq_10</text>
</a>
</g>
</g>
<!-- Node12&#45;&gt;Node16 -->
<g id="edge5" class="edge">
<title>Node12&#45;&gt;Node16</title>
<path fill="none" stroke="#191970" d="M140.1661,-101.0632C147.7052,-99.5146 156.7267,-97.6615 165.822,-95.7933"/>
<polygon fill="#191970" stroke="#191970" points="166.5624,-99.2144 175.6536,-93.7739 165.1539,-92.3576 166.5624,-99.2144"/>
</g>
<!-- Node17 -->
<g id="node7" class="node">
<title>Node17</title>
<g id="a_node7"><a xlink:href="mxm__bgq_8f.html#af192c3c8b982aa5bbc2a757156718a91" target="_top" xlink:title="mxm_bgq_6">
<polygon fill="#ffffff" stroke="#000000" points="178.5,-38.5 178.5,-57.5 248.5,-57.5 248.5,-38.5 178.5,-38.5"/>
<text text-anchor="middle" x="213.5" y="-45.5" font-family="Helvetica,sans-Serif" font-size="10.00" fill="#000000">mxm_bgq_6</text>
</a>
</g>
</g>
<!-- Node12&#45;&gt;Node17 -->
<g id="edge6" class="edge">
<title>Node12&#45;&gt;Node17</title>
<path fill="none" stroke="#191970" d="M133.7851,-95.4291C144.728,-87.4187 161.0394,-75.9025 176,-67 178.6734,-65.4091 181.4962,-63.8213 184.3445,-62.2796"/>
<polygon fill="#191970" stroke="#191970" points="186.1322,-65.2946 193.3779,-57.5648 182.8933,-59.089 186.1322,-65.2946"/>
</g>
<!-- Node18 -->
<g id="node8" class="node">
<title>Node18</title>
<g id="a_node8"><a xlink:href="mxm__std_8f.html#aa9e8685c4a72f18fb5d1ee88ed17a3d6" target="_top" xlink:title="mxmf2">
<polygon fill="#ffffff" stroke="#000000" points="190,-.5 190,-19.5 237,-19.5 237,-.5 190,-.5"/>
<text text-anchor="middle" x="213.5" y="-7.5" font-family="Helvetica,sans-Serif" font-size="10.00" fill="#000000">mxmf2</text>
</a>
</g>
</g>
<!-- Node12&#45;&gt;Node18 -->
<g id="edge7" class="edge">
<title>Node12&#45;&gt;Node18</title>
<path fill="none" stroke="#191970" d="M125.92,-95.4724C134.3661,-79.8768 152.9603,-48.6698 176,-29 177.7138,-27.5369 179.5596,-26.1503 181.4808,-24.8431"/>
<polygon fill="#191970" stroke="#191970" points="183.4194,-27.762 190.2095,-19.629 179.8296,-21.7526 183.4194,-27.762"/>
</g>
</g>
</svg>
