<?xml version="1.0" encoding="UTF-8" standalone="no"?>
<!DOCTYPE svg PUBLIC "-//W3C//DTD SVG 1.1//EN"
 "http://www.w3.org/Graphics/SVG/1.1/DTD/svg11.dtd">
<!-- Generated by graphviz version 2.43.0 (0)
 -->
<!-- Title: local_cart_dy Pages: 1 -->
<svg width="286pt" height="218pt"
 viewBox="0.00 0.00 286.00 218.00" xmlns="http://www.w3.org/2000/svg" xmlns:xlink="http://www.w3.org/1999/xlink">
<g id="graph0" class="graph" transform="scale(1 1) rotate(0) translate(4 214)">
<title>local_cart_dy</title>
<polygon fill="white" stroke="transparent" points="-4,4 -4,-214 282,-214 282,4 -4,4"/>
<!-- Node1 -->
<g id="node1" class="node">
<title>Node1</title>
<g id="a_node1"><a xlink:title="Assuming the mesh is cartesian, compute exact y&#45;derivative for an element, by operating.">
<polygon fill="#bfbfbf" stroke="black" points="0,-95.5 0,-114.5 81,-114.5 81,-95.5 0,-95.5"/>
<text text-anchor="middle" x="40.5" y="-102.5" font-family="Helvetica,sans-Serif" font-size="10.00">local_cart_dy</text>
</a>
</g>
</g>
<!-- Node2 -->
<g id="node2" class="node">
<title>Node2</title>
<g id="a_node2"><a xlink:href="group__postpro.html#gab9ec2260a10061af6ce1c52f3c8a41da" target="_top" xlink:title="Compute matrix&#45;matrix product C = A*B for contiguously packed matrices A,B, and C.">
<polygon fill="white" stroke="black" points="117,-95.5 117,-114.5 159,-114.5 159,-95.5 117,-95.5"/>
<text text-anchor="middle" x="138" y="-102.5" font-family="Helvetica,sans-Serif" font-size="10.00">mxm</text>
</a>
</g>
</g>
<!-- Node1&#45;&gt;Node2 -->
<g id="edge1" class="edge">
<title>Node1&#45;&gt;Node2</title>
<path fill="none" stroke="midnightblue" d="M81.17,-105C89.72,-105 98.63,-105 106.75,-105"/>
<polygon fill="midnightblue" stroke="midnightblue" points="106.89,-108.5 116.89,-105 106.89,-101.5 106.89,-108.5"/>
</g>
<!-- Node3 -->
<g id="node3" class="node">
<title>Node3</title>
<g id="a_node3"><a xlink:href="comm__mpi_8f.html#af06ec29f06aac3f8809e19de2a7e8946" target="_top" xlink:title=" ">
<polygon fill="white" stroke="black" points="203.5,-190.5 203.5,-209.5 269.5,-209.5 269.5,-190.5 203.5,-190.5"/>
<text text-anchor="middle" x="236.5" y="-197.5" font-family="Helvetica,sans-Serif" font-size="10.00">dnekclock</text>
</a>
</g>
</g>
<!-- Node2&#45;&gt;Node3 -->
<g id="edge2" class="edge">
<title>Node2&#45;&gt;Node3</title>
<path fill="none" stroke="midnightblue" d="M143.99,-114.6C152.55,-130.3 171.43,-161.66 195,-181 196.8,-182.48 198.74,-183.88 200.76,-185.19"/>
<polygon fill="midnightblue" stroke="midnightblue" points="199.51,-188.5 209.93,-190.37 202.95,-182.4 199.51,-188.5"/>
</g>
<!-- Node4 -->
<g id="node4" class="node">
<title>Node4</title>
<g id="a_node4"><a xlink:href="mxm__bgq_8f.html#a8a70163b4dbfdbfcce7bff170597fcad" target="_top" xlink:title=" ">
<polygon fill="white" stroke="black" points="195,-152.5 195,-171.5 278,-171.5 278,-152.5 195,-152.5"/>
<text text-anchor="middle" x="236.5" y="-159.5" font-family="Helvetica,sans-Serif" font-size="10.00">mxm_bgq_10</text>
</a>
</g>
</g>
<!-- Node2&#45;&gt;Node4 -->
<g id="edge3" class="edge">
<title>Node2&#45;&gt;Node4</title>
<path fill="none" stroke="midnightblue" d="M151.97,-114.67C163.09,-122.73 179.68,-134.28 195,-143 197.9,-144.65 200.97,-146.28 204.07,-147.86"/>
<polygon fill="midnightblue" stroke="midnightblue" points="202.8,-151.13 213.32,-152.36 205.86,-144.84 202.8,-151.13"/>
</g>
<!-- Node5 -->
<g id="node5" class="node">
<title>Node5</title>
<g id="a_node5"><a xlink:href="mxm__bgq_8f.html#a3fda9ea4bc7a5713a19d6939fa2b541f" target="_top" xlink:title=" ">
<polygon fill="white" stroke="black" points="195,-114.5 195,-133.5 278,-133.5 278,-114.5 195,-114.5"/>
<text text-anchor="middle" x="236.5" y="-121.5" font-family="Helvetica,sans-Serif" font-size="10.00">mxm_bgq_16</text>
</a>
</g>
</g>
<!-- Node2&#45;&gt;Node5 -->
<g id="edge4" class="edge">
<title>Node2&#45;&gt;Node5</title>
<path fill="none" stroke="midnightblue" d="M159.47,-109.03C166.94,-110.5 175.77,-112.24 184.71,-114"/>
<polygon fill="midnightblue" stroke="midnightblue" points="184.31,-117.49 194.79,-115.99 185.66,-110.62 184.31,-117.49"/>
</g>
<!-- Node6 -->
<g id="node6" class="node">
<title>Node6</title>
<g id="a_node6"><a xlink:href="mxm__bgq_8f.html#af192c3c8b982aa5bbc2a757156718a91" target="_top" xlink:title=" ">
<polygon fill="white" stroke="black" points="198,-76.5 198,-95.5 275,-95.5 275,-76.5 198,-76.5"/>
<text text-anchor="middle" x="236.5" y="-83.5" font-family="Helvetica,sans-Serif" font-size="10.00">mxm_bgq_6</text>
</a>
</g>
</g>
<!-- Node2&#45;&gt;Node6 -->
<g id="edge5" class="edge">
<title>Node2&#45;&gt;Node6</title>
<path fill="none" stroke="midnightblue" d="M159.47,-100.97C167.85,-99.32 177.93,-97.34 187.96,-95.36"/>
<polygon fill="midnightblue" stroke="midnightblue" points="188.79,-98.76 197.92,-93.4 187.44,-91.9 188.79,-98.76"/>
</g>
<!-- Node7 -->
<g id="node7" class="node">
<title>Node7</title>
<g id="a_node7"><a xlink:href="mxm__bgq_8f.html#a8faaef428336095704ece51624bbfe92" target="_top" xlink:title=" ">
<polygon fill="white" stroke="black" points="198,-38.5 198,-57.5 275,-57.5 275,-38.5 198,-38.5"/>
<text text-anchor="middle" x="236.5" y="-45.5" font-family="Helvetica,sans-Serif" font-size="10.00">mxm_bgq_8</text>
</a>
</g>
</g>
<!-- Node2&#45;&gt;Node7 -->
<g id="edge6" class="edge">
<title>Node2&#45;&gt;Node7</title>
<path fill="none" stroke="midnightblue" d="M151.97,-95.33C163.09,-87.27 179.68,-75.72 195,-67 197.9,-65.35 200.97,-63.72 204.07,-62.14"/>
<polygon fill="midnightblue" stroke="midnightblue" points="205.86,-65.16 213.32,-57.64 202.8,-58.87 205.86,-65.16"/>
</g>
<!-- Node8 -->
<g id="node8" class="node">
<title>Node8</title>
<g id="a_node8"><a xlink:href="mxm__std_8f.html#aa9e8685c4a72f18fb5d1ee88ed17a3d6" target="_top" xlink:title=" ">
<polygon fill="white" stroke="black" points="210.5,-0.5 210.5,-19.5 262.5,-19.5 262.5,-0.5 210.5,-0.5"/>
<text text-anchor="middle" x="236.5" y="-7.5" font-family="Helvetica,sans-Serif" font-size="10.00">mxmf2</text>
</a>
</g>
</g>
<!-- Node2&#45;&gt;Node8 -->
<g id="edge7" class="edge">
<title>Node2&#45;&gt;Node8</title>
<path fill="none" stroke="midnightblue" d="M143.99,-95.4C152.55,-79.7 171.43,-48.34 195,-29 197,-27.36 199.16,-25.83 201.41,-24.4"/>
<polygon fill="midnightblue" stroke="midnightblue" points="203.32,-27.34 210.36,-19.42 199.92,-21.22 203.32,-27.34"/>
</g>
</g>
</svg>
