<?xml version="1.0" encoding="UTF-8" standalone="no"?>
<!DOCTYPE svg PUBLIC "-//W3C//DTD SVG 1.1//EN"
 "http://www.w3.org/Graphics/SVG/1.1/DTD/svg11.dtd">
<!-- Generated by graphviz version 2.40.1 (20161225.0304)
 -->
<!-- Title: plan3 Pages: 1 -->
<svg width="241pt" height="902pt"
 viewBox="0.00 0.00 241.00 902.00" xmlns="http://www.w3.org/2000/svg" xmlns:xlink="http://www.w3.org/1999/xlink">
<g id="graph0" class="graph" transform="scale(1 1) rotate(0) translate(4 898)">
<title>plan3</title>
<polygon fill="#ffffff" stroke="transparent" points="-4,4 -4,-898 237,-898 237,4 -4,4"/>
<!-- Node176 -->
<g id="node1" class="node">
<title>Node176</title>
<polygon fill="#bfbfbf" stroke="#000000" points="0,-513.5 0,-532.5 40,-532.5 40,-513.5 0,-513.5"/>
<text text-anchor="middle" x="20" y="-520.5" font-family="Helvetica,sans-Serif" font-size="10.00" fill="#000000">plan3</text>
</g>
<!-- Node177 -->
<g id="node2" class="node">
<title>Node177</title>
<g id="a_node2"><a xlink:href="group__core.html#ga83189b3d1938d87f00ace2e7e05d9e4c" target="_top" xlink:title="Compute and add. ">
<polygon fill="#ffffff" stroke="#000000" points="83.5,-722.5 83.5,-741.5 127.5,-741.5 127.5,-722.5 83.5,-722.5"/>
<text text-anchor="middle" x="105.5" y="-729.5" font-family="Helvetica,sans-Serif" font-size="10.00" fill="#000000">makef</text>
</a>
</g>
</g>
<!-- Node176&#45;&gt;Node177 -->
<g id="edge1" class="edge">
<title>Node176&#45;&gt;Node177</title>
<path fill="none" stroke="#191970" d="M23.8959,-532.5234C37.0545,-564.6887 80.0136,-669.6999 97.7415,-713.0348"/>
<polygon fill="#191970" stroke="#191970" points="94.5554,-714.4904 101.5812,-722.4207 101.0342,-711.84 94.5554,-714.4904"/>
</g>
<!-- Node186 -->
<g id="node11" class="node">
<title>Node186</title>
<g id="a_node11"><a xlink:href="subs1_8f.html#ae2376b70f309c6118b4e43df9cbe66b1" target="_top" xlink:title="sethlm">
<polygon fill="#ffffff" stroke="#000000" points="82.5,-589.5 82.5,-608.5 128.5,-608.5 128.5,-589.5 82.5,-589.5"/>
<text text-anchor="middle" x="105.5" y="-596.5" font-family="Helvetica,sans-Serif" font-size="10.00" fill="#000000">sethlm</text>
</a>
</g>
</g>
<!-- Node176&#45;&gt;Node186 -->
<g id="edge10" class="edge">
<title>Node176&#45;&gt;Node186</title>
<path fill="none" stroke="#191970" d="M28.154,-532.5181C38.5767,-544.384 57.4948,-564.9368 76,-580 77.5237,-581.2403 79.1316,-582.4696 80.7784,-583.671"/>
<polygon fill="#191970" stroke="#191970" points="78.8931,-586.6217 89.126,-589.3674 82.8388,-580.8397 78.8931,-586.6217"/>
</g>
<!-- Node187 -->
<g id="node12" class="node">
<title>Node187</title>
<g id="a_node12"><a xlink:href="planx_8f.html#a02873cc7b2b98973667aa8cb9f2cbadb" target="_top" xlink:title="cresvif">
<polygon fill="#ffffff" stroke="#000000" points="82.5,-551.5 82.5,-570.5 128.5,-570.5 128.5,-551.5 82.5,-551.5"/>
<text text-anchor="middle" x="105.5" y="-558.5" font-family="Helvetica,sans-Serif" font-size="10.00" fill="#000000">cresvif</text>
</a>
</g>
</g>
<!-- Node176&#45;&gt;Node187 -->
<g id="edge11" class="edge">
<title>Node176&#45;&gt;Node187</title>
<path fill="none" stroke="#191970" d="M40.2623,-532.0055C50.5245,-536.5664 63.2035,-542.2016 74.6469,-547.2875"/>
<polygon fill="#191970" stroke="#191970" points="73.3289,-550.5318 83.8885,-551.3949 76.1719,-544.1351 73.3289,-550.5318"/>
</g>
<!-- Node188 -->
<g id="node13" class="node">
<title>Node188</title>
<g id="a_node13"><a xlink:href="induct_8f.html#aa0804a1aad3b9e0820df2c055d97942d" target="_top" xlink:title="ophinv_pr">
<polygon fill="#ffffff" stroke="#000000" points="76,-513.5 76,-532.5 135,-532.5 135,-513.5 76,-513.5"/>
<text text-anchor="middle" x="105.5" y="-520.5" font-family="Helvetica,sans-Serif" font-size="10.00" fill="#000000">ophinv_pr</text>
</a>
</g>
</g>
<!-- Node176&#45;&gt;Node188 -->
<g id="edge12" class="edge">
<title>Node176&#45;&gt;Node188</title>
<path fill="none" stroke="#191970" d="M40.2623,-523C47.9288,-523 56.9443,-523 65.7856,-523"/>
<polygon fill="#191970" stroke="#191970" points="65.9935,-526.5001 75.9935,-523 65.9934,-519.5001 65.9935,-526.5001"/>
</g>
<!-- Node189 -->
<g id="node14" class="node">
<title>Node189</title>
<g id="a_node14"><a xlink:href="navier1_8f.html#abc5cd1542bbd239734ba41882d091e03" target="_top" xlink:title="ophinv">
<polygon fill="#ffffff" stroke="#000000" points="83,-475.5 83,-494.5 128,-494.5 128,-475.5 83,-475.5"/>
<text text-anchor="middle" x="105.5" y="-482.5" font-family="Helvetica,sans-Serif" font-size="10.00" fill="#000000">ophinv</text>
</a>
</g>
</g>
<!-- Node176&#45;&gt;Node189 -->
<g id="edge13" class="edge">
<title>Node176&#45;&gt;Node189</title>
<path fill="none" stroke="#191970" d="M40.2623,-513.9945C50.5245,-509.4336 63.2035,-503.7984 74.6469,-498.7125"/>
<polygon fill="#191970" stroke="#191970" points="76.1719,-501.8649 83.8885,-494.6051 73.3289,-495.4682 76.1719,-501.8649"/>
</g>
<!-- Node190 -->
<g id="node15" class="node">
<title>Node190</title>
<g id="a_node15"><a xlink:href="navier1_8f.html#ad1bbe02eb4b6eb1d16f7612e1947dac5" target="_top" xlink:title="opadd2">
<polygon fill="#ffffff" stroke="#000000" points="81.5,-437.5 81.5,-456.5 129.5,-456.5 129.5,-437.5 81.5,-437.5"/>
<text text-anchor="middle" x="105.5" y="-444.5" font-family="Helvetica,sans-Serif" font-size="10.00" fill="#000000">opadd2</text>
</a>
</g>
</g>
<!-- Node176&#45;&gt;Node190 -->
<g id="edge14" class="edge">
<title>Node176&#45;&gt;Node190</title>
<path fill="none" stroke="#191970" d="M28.154,-513.4819C38.5767,-501.616 57.4948,-481.0632 76,-466 77.5237,-464.7597 79.1316,-463.5304 80.7784,-462.329"/>
<polygon fill="#191970" stroke="#191970" points="82.8388,-465.1603 89.126,-456.6326 78.8931,-459.3783 82.8388,-465.1603"/>
</g>
<!-- Node191 -->
<g id="node16" class="node">
<title>Node191</title>
<g id="a_node16"><a xlink:href="group__core.html#gaeb2c6d4ae2c98143118acce2419c034d" target="_top" xlink:title="Project U onto the closest incompressible field. ">
<polygon fill="#ffffff" stroke="#000000" points="77.5,-304.5 77.5,-323.5 133.5,-323.5 133.5,-304.5 77.5,-304.5"/>
<text text-anchor="middle" x="105.5" y="-311.5" font-family="Helvetica,sans-Serif" font-size="10.00" fill="#000000">incomprn</text>
</a>
</g>
</g>
<!-- Node176&#45;&gt;Node191 -->
<g id="edge15" class="edge">
<title>Node176&#45;&gt;Node191</title>
<path fill="none" stroke="#191970" d="M23.8959,-513.4766C37.0545,-481.3113 80.0136,-376.3001 97.7415,-332.9652"/>
<polygon fill="#191970" stroke="#191970" points="101.0342,-334.16 101.5812,-323.5793 94.5554,-331.5096 101.0342,-334.16"/>
</g>
<!-- Node178 -->
<g id="node3" class="node">
<title>Node178</title>
<g id="a_node3"><a xlink:href="navier1_8f.html#a04edbb4ba3cfada4513a76a4e65a5561" target="_top" xlink:title="makeuf">
<polygon fill="#ffffff" stroke="#000000" points="177.5,-874.5 177.5,-893.5 226.5,-893.5 226.5,-874.5 177.5,-874.5"/>
<text text-anchor="middle" x="202" y="-881.5" font-family="Helvetica,sans-Serif" font-size="10.00" fill="#000000">makeuf</text>
</a>
</g>
</g>
<!-- Node177&#45;&gt;Node178 -->
<g id="edge2" class="edge">
<title>Node177&#45;&gt;Node178</title>
<path fill="none" stroke="#191970" d="M108.2333,-741.7768C115.2373,-765.3828 135.7968,-826.3902 171,-865 172.0367,-866.137 173.157,-867.2297 174.3356,-868.2763"/>
<polygon fill="#191970" stroke="#191970" points="172.5792,-871.332 182.6913,-874.4937 176.758,-865.7161 172.5792,-871.332"/>
</g>
<!-- Node179 -->
<g id="node4" class="node">
<title>Node179</title>
<g id="a_node4"><a xlink:href="hpf_8f.html#aa74c82c5e339de802f489470b23422a0" target="_top" xlink:title="make_hpf">
<polygon fill="#ffffff" stroke="#000000" points="172.5,-836.5 172.5,-855.5 231.5,-855.5 231.5,-836.5 172.5,-836.5"/>
<text text-anchor="middle" x="202" y="-843.5" font-family="Helvetica,sans-Serif" font-size="10.00" fill="#000000">make_hpf</text>
</a>
</g>
</g>
<!-- Node177&#45;&gt;Node179 -->
<g id="edge3" class="edge">
<title>Node177&#45;&gt;Node179</title>
<path fill="none" stroke="#191970" d="M110.349,-741.5965C119.9583,-759.9147 142.9352,-800.4051 171,-827 172.26,-828.194 173.6071,-829.3508 175.0079,-830.4645"/>
<polygon fill="#191970" stroke="#191970" points="173.1885,-833.4632 183.3875,-836.3321 177.2036,-827.7292 173.1885,-833.4632"/>
</g>
<!-- Node180 -->
<g id="node5" class="node">
<title>Node180</title>
<g id="a_node5"><a xlink:href="navier1_8f.html#ae6ed8f0409f034c9d0dff152a3445d90" target="_top" xlink:title="makevis">
<polygon fill="#ffffff" stroke="#000000" points="175.5,-798.5 175.5,-817.5 228.5,-817.5 228.5,-798.5 175.5,-798.5"/>
<text text-anchor="middle" x="202" y="-805.5" font-family="Helvetica,sans-Serif" font-size="10.00" fill="#000000">makevis</text>
</a>
</g>
</g>
<!-- Node177&#45;&gt;Node180 -->
<g id="edge4" class="edge">
<title>Node177&#45;&gt;Node180</title>
<path fill="none" stroke="#191970" d="M115.7141,-741.8436C128.2337,-753.6789 150.3382,-773.8404 171,-789 172.8195,-790.335 174.7353,-791.6676 176.6852,-792.9725"/>
<polygon fill="#191970" stroke="#191970" points="174.9436,-796.013 185.2573,-798.4374 178.7066,-790.1104 174.9436,-796.013"/>
</g>
<!-- Node181 -->
<g id="node6" class="node">
<title>Node181</title>
<g id="a_node6"><a xlink:href="navier1_8f.html#a344ec731e4a89d0f136c91bc1963e8d5" target="_top" xlink:title="advab">
<polygon fill="#ffffff" stroke="#000000" points="180.5,-760.5 180.5,-779.5 223.5,-779.5 223.5,-760.5 180.5,-760.5"/>
<text text-anchor="middle" x="202" y="-767.5" font-family="Helvetica,sans-Serif" font-size="10.00" fill="#000000">advab</text>
</a>
</g>
</g>
<!-- Node177&#45;&gt;Node181 -->
<g id="edge5" class="edge">
<title>Node177&#45;&gt;Node181</title>
<path fill="none" stroke="#191970" d="M127.8816,-740.8135C140.6057,-745.824 156.7375,-752.1764 170.6999,-757.6746"/>
<polygon fill="#191970" stroke="#191970" points="169.8166,-761.0883 180.4036,-761.4957 172.3814,-754.5751 169.8166,-761.0883"/>
</g>
<!-- Node182 -->
<g id="node7" class="node">
<title>Node182</title>
<g id="a_node7"><a xlink:href="mvmesh_8f.html#a1b9c194ae1f554f335f3d6c21eacded3" target="_top" xlink:title="admeshv">
<polygon fill="#ffffff" stroke="#000000" points="174,-722.5 174,-741.5 230,-741.5 230,-722.5 174,-722.5"/>
<text text-anchor="middle" x="202" y="-729.5" font-family="Helvetica,sans-Serif" font-size="10.00" fill="#000000">admeshv</text>
</a>
</g>
</g>
<!-- Node177&#45;&gt;Node182 -->
<g id="edge6" class="edge">
<title>Node177&#45;&gt;Node182</title>
<path fill="none" stroke="#191970" d="M127.8816,-732C138.4752,-732 151.4308,-732 163.53,-732"/>
<polygon fill="#191970" stroke="#191970" points="163.8613,-735.5001 173.8613,-732 163.8612,-728.5001 163.8613,-735.5001"/>
</g>
<!-- Node183 -->
<g id="node8" class="node">
<title>Node183</title>
<g id="a_node8"><a xlink:href="navier1_8f.html#ab907b0b4f57c160c86799b03de3cef19" target="_top" xlink:title="makeabf">
<polygon fill="#ffffff" stroke="#000000" points="175,-684.5 175,-703.5 229,-703.5 229,-684.5 175,-684.5"/>
<text text-anchor="middle" x="202" y="-691.5" font-family="Helvetica,sans-Serif" font-size="10.00" fill="#000000">makeabf</text>
</a>
</g>
</g>
<!-- Node177&#45;&gt;Node183 -->
<g id="edge7" class="edge">
<title>Node177&#45;&gt;Node183</title>
<path fill="none" stroke="#191970" d="M127.8816,-723.1865C139.8889,-718.4583 154.9307,-712.5351 168.3204,-707.2624"/>
<polygon fill="#191970" stroke="#191970" points="169.6891,-710.4851 177.7113,-703.5645 167.1243,-703.9719 169.6891,-710.4851"/>
</g>
<!-- Node184 -->
<g id="node9" class="node">
<title>Node184</title>
<g id="a_node9"><a xlink:href="navier1_8f.html#a0510a60155ebc71a3acda4b1e7e507e5" target="_top" xlink:title="makebdf">
<polygon fill="#ffffff" stroke="#000000" points="175,-646.5 175,-665.5 229,-665.5 229,-646.5 175,-646.5"/>
<text text-anchor="middle" x="202" y="-653.5" font-family="Helvetica,sans-Serif" font-size="10.00" fill="#000000">makebdf</text>
</a>
</g>
</g>
<!-- Node177&#45;&gt;Node184 -->
<g id="edge8" class="edge">
<title>Node177&#45;&gt;Node184</title>
<path fill="none" stroke="#191970" d="M115.7141,-722.1564C128.2337,-710.3211 150.3382,-690.1596 171,-675 172.8195,-673.665 174.7353,-672.3324 176.6852,-671.0275"/>
<polygon fill="#191970" stroke="#191970" points="178.7066,-673.8896 185.2573,-665.5626 174.9436,-667.987 178.7066,-673.8896"/>
</g>
<!-- Node185 -->
<g id="node10" class="node">
<title>Node185</title>
<g id="a_node10"><a xlink:href="convect_8f.html#afc0b2ce765c4ad0f0ec6f2a62536bf57" target="_top" xlink:title="advchar">
<polygon fill="#ffffff" stroke="#000000" points="176.5,-608.5 176.5,-627.5 227.5,-627.5 227.5,-608.5 176.5,-608.5"/>
<text text-anchor="middle" x="202" y="-615.5" font-family="Helvetica,sans-Serif" font-size="10.00" fill="#000000">advchar</text>
</a>
</g>
</g>
<!-- Node177&#45;&gt;Node185 -->
<g id="edge9" class="edge">
<title>Node177&#45;&gt;Node185</title>
<path fill="none" stroke="#191970" d="M110.349,-722.4035C119.9583,-704.0853 142.9352,-663.5949 171,-637 172.26,-635.806 173.6071,-634.6492 175.0079,-633.5355"/>
<polygon fill="#191970" stroke="#191970" points="177.2036,-636.2708 183.3875,-627.6679 173.1885,-630.5368 177.2036,-636.2708"/>
</g>
<!-- Node192 -->
<g id="node17" class="node">
<title>Node192</title>
<g id="a_node17"><a xlink:href="comm__mpi_8f.html#af06ec29f06aac3f8809e19de2a7e8946" target="_top" xlink:title="dnekclock">
<polygon fill="#ffffff" stroke="#000000" points="171.5,-570.5 171.5,-589.5 232.5,-589.5 232.5,-570.5 171.5,-570.5"/>
<text text-anchor="middle" x="202" y="-577.5" font-family="Helvetica,sans-Serif" font-size="10.00" fill="#000000">dnekclock</text>
</a>
</g>
</g>
<!-- Node191&#45;&gt;Node192 -->
<g id="edge16" class="edge">
<title>Node191&#45;&gt;Node192</title>
<path fill="none" stroke="#191970" d="M107.9882,-323.5759C119.7328,-368.752 169.1328,-558.4926 171,-561 171.6786,-561.9113 172.4151,-562.7884 173.1979,-563.6316"/>
<polygon fill="#191970" stroke="#191970" points="171.2683,-566.5806 181.184,-570.3128 175.76,-561.2117 171.2683,-566.5806"/>
</g>
<!-- Node193 -->
<g id="node18" class="node">
<title>Node193</title>
<g id="a_node18"><a xlink:href="math_8f.html#af44de42b023a4a68cd98ea341204342d" target="_top" xlink:title="rzero">
<polygon fill="#ffffff" stroke="#000000" points="183,-532.5 183,-551.5 221,-551.5 221,-532.5 183,-532.5"/>
<text text-anchor="middle" x="202" y="-539.5" font-family="Helvetica,sans-Serif" font-size="10.00" fill="#000000">rzero</text>
</a>
</g>
</g>
<!-- Node191&#45;&gt;Node193 -->
<g id="edge17" class="edge">
<title>Node191&#45;&gt;Node193</title>
<path fill="none" stroke="#191970" d="M108.1137,-323.7227C118.6532,-362.7118 158.0807,-506.4332 171,-523 172.0942,-524.4031 173.3232,-525.7276 174.6442,-526.9737"/>
<polygon fill="#191970" stroke="#191970" points="172.8354,-529.9949 182.9157,-533.2564 177.0694,-524.4206 172.8354,-529.9949"/>
</g>
<!-- Node194 -->
<g id="node19" class="node">
<title>Node194</title>
<g id="a_node19"><a xlink:href="math_8f.html#a3b43508554f14bdea8e14473d7d0803c" target="_top" xlink:title="copy">
<polygon fill="#ffffff" stroke="#000000" points="183,-494.5 183,-513.5 221,-513.5 221,-494.5 183,-494.5"/>
<text text-anchor="middle" x="202" y="-501.5" font-family="Helvetica,sans-Serif" font-size="10.00" fill="#000000">copy</text>
</a>
</g>
</g>
<!-- Node191&#45;&gt;Node194 -->
<g id="edge18" class="edge">
<title>Node191&#45;&gt;Node194</title>
<path fill="none" stroke="#191970" d="M106.9514,-323.6059C111.59,-351.4797 128.3309,-433.6546 171,-485 172.1095,-486.3351 173.3383,-487.6026 174.6481,-488.8016"/>
<polygon fill="#191970" stroke="#191970" points="172.6724,-491.6952 182.7665,-494.9139 176.8828,-486.103 172.6724,-491.6952"/>
</g>
<!-- Node195 -->
<g id="node20" class="node">
<title>Node195</title>
<g id="a_node20"><a xlink:href="math_8f.html#a0fcb0ff151fe3548d0d07961e8365efe" target="_top" xlink:title="invers2">
<polygon fill="#ffffff" stroke="#000000" points="178,-456.5 178,-475.5 226,-475.5 226,-456.5 178,-456.5"/>
<text text-anchor="middle" x="202" y="-463.5" font-family="Helvetica,sans-Serif" font-size="10.00" fill="#000000">invers2</text>
</a>
</g>
</g>
<!-- Node191&#45;&gt;Node195 -->
<g id="edge19" class="edge">
<title>Node191&#45;&gt;Node195</title>
<path fill="none" stroke="#191970" d="M108.2333,-323.7768C115.2373,-347.3828 135.7968,-408.3902 171,-447 172.0367,-448.137 173.157,-449.2297 174.3356,-450.2763"/>
<polygon fill="#191970" stroke="#191970" points="172.5792,-453.332 182.6913,-456.4937 176.758,-447.7161 172.5792,-453.332"/>
</g>
<!-- Node196 -->
<g id="node21" class="node">
<title>Node196</title>
<g id="a_node21"><a xlink:href="navier1_8f.html#a58af49abaf1ee0cc07be356ad2721d90" target="_top" xlink:title="opdiv">
<polygon fill="#ffffff" stroke="#000000" points="182,-418.5 182,-437.5 222,-437.5 222,-418.5 182,-418.5"/>
<text text-anchor="middle" x="202" y="-425.5" font-family="Helvetica,sans-Serif" font-size="10.00" fill="#000000">opdiv</text>
</a>
</g>
</g>
<!-- Node191&#45;&gt;Node196 -->
<g id="edge20" class="edge">
<title>Node191&#45;&gt;Node196</title>
<path fill="none" stroke="#191970" d="M110.349,-323.5965C119.9583,-341.9147 142.9352,-382.4051 171,-409 172.26,-410.194 173.6071,-411.3508 175.0079,-412.4645"/>
<polygon fill="#191970" stroke="#191970" points="173.1885,-415.4632 183.3875,-418.3321 177.2036,-409.7292 173.1885,-415.4632"/>
</g>
<!-- Node197 -->
<g id="node22" class="node">
<title>Node197</title>
<g id="a_node22"><a xlink:href="math_8f.html#ad2b51b68d370651f4f6d81952503e7be" target="_top" xlink:title="cmult">
<polygon fill="#ffffff" stroke="#000000" points="181.5,-380.5 181.5,-399.5 222.5,-399.5 222.5,-380.5 181.5,-380.5"/>
<text text-anchor="middle" x="202" y="-387.5" font-family="Helvetica,sans-Serif" font-size="10.00" fill="#000000">cmult</text>
</a>
</g>
</g>
<!-- Node191&#45;&gt;Node197 -->
<g id="edge21" class="edge">
<title>Node191&#45;&gt;Node197</title>
<path fill="none" stroke="#191970" d="M115.7141,-323.8436C128.2337,-335.6789 150.3382,-355.8404 171,-371 172.8195,-372.335 174.7353,-373.6676 176.6852,-374.9725"/>
<polygon fill="#191970" stroke="#191970" points="174.9436,-378.013 185.2573,-380.4374 178.7066,-372.1104 174.9436,-378.013"/>
</g>
<!-- Node198 -->
<g id="node23" class="node">
<title>Node198</title>
<g id="a_node23"><a xlink:href="math_8f.html#a1c8c804ea900711911c4c33fe1f5b184" target="_top" xlink:title="add2col2">
<polygon fill="#ffffff" stroke="#000000" points="174,-342.5 174,-361.5 230,-361.5 230,-342.5 174,-342.5"/>
<text text-anchor="middle" x="202" y="-349.5" font-family="Helvetica,sans-Serif" font-size="10.00" fill="#000000">add2col2</text>
</a>
</g>
</g>
<!-- Node191&#45;&gt;Node198 -->
<g id="edge22" class="edge">
<title>Node191&#45;&gt;Node198</title>
<path fill="none" stroke="#191970" d="M129.851,-323.589C141.5082,-328.1794 155.6554,-333.7503 168.3235,-338.7388"/>
<polygon fill="#191970" stroke="#191970" points="167.0698,-342.0066 177.6568,-342.4141 169.6346,-335.4934 167.0698,-342.0066"/>
</g>
<!-- Node199 -->
<g id="node24" class="node">
<title>Node199</title>
<g id="a_node24"><a xlink:href="navier1_8f.html#a4905d51f51b57bfec184a6b44f858bdb" target="_top" xlink:title="ortho">
<polygon fill="#ffffff" stroke="#000000" points="183,-304.5 183,-323.5 221,-323.5 221,-304.5 183,-304.5"/>
<text text-anchor="middle" x="202" y="-311.5" font-family="Helvetica,sans-Serif" font-size="10.00" fill="#000000">ortho</text>
</a>
</g>
</g>
<!-- Node191&#45;&gt;Node199 -->
<g id="edge23" class="edge">
<title>Node191&#45;&gt;Node199</title>
<path fill="none" stroke="#191970" d="M133.6712,-314C145.891,-314 160.2021,-314 172.5609,-314"/>
<polygon fill="#191970" stroke="#191970" points="172.8176,-317.5001 182.8175,-314 172.8175,-310.5001 172.8176,-317.5001"/>
</g>
<!-- Node200 -->
<g id="node25" class="node">
<title>Node200</title>
<g id="a_node25"><a xlink:href="induct_8f.html#a85f2bbdd91096e0df0353ebd6968b71d" target="_top" xlink:title="setrhsp">
<polygon fill="#ffffff" stroke="#000000" points="177.5,-266.5 177.5,-285.5 226.5,-285.5 226.5,-266.5 177.5,-266.5"/>
<text text-anchor="middle" x="202" y="-273.5" font-family="Helvetica,sans-Serif" font-size="10.00" fill="#000000">setrhsp</text>
</a>
</g>
</g>
<!-- Node191&#45;&gt;Node200 -->
<g id="edge24" class="edge">
<title>Node191&#45;&gt;Node200</title>
<path fill="none" stroke="#191970" d="M129.851,-304.411C141.5082,-299.8206 155.6554,-294.2497 168.3235,-289.2612"/>
<polygon fill="#191970" stroke="#191970" points="169.6346,-292.5066 177.6568,-285.5859 167.0698,-285.9934 169.6346,-292.5066"/>
</g>
<!-- Node201 -->
<g id="node26" class="node">
<title>Node201</title>
<g id="a_node26"><a xlink:href="navier0_8f.html#aaba079db7e38db9800deef09526370ec" target="_top" xlink:title="esolver">
<polygon fill="#ffffff" stroke="#000000" points="178,-228.5 178,-247.5 226,-247.5 226,-228.5 178,-228.5"/>
<text text-anchor="middle" x="202" y="-235.5" font-family="Helvetica,sans-Serif" font-size="10.00" fill="#000000">esolver</text>
</a>
</g>
</g>
<!-- Node191&#45;&gt;Node201 -->
<g id="edge25" class="edge">
<title>Node191&#45;&gt;Node201</title>
<path fill="none" stroke="#191970" d="M115.7141,-304.1564C128.2337,-292.3211 150.3382,-272.1596 171,-257 172.8195,-255.665 174.7353,-254.3324 176.6852,-253.0275"/>
<polygon fill="#191970" stroke="#191970" points="178.7066,-255.8896 185.2573,-247.5626 174.9436,-249.987 178.7066,-255.8896"/>
</g>
<!-- Node202 -->
<g id="node27" class="node">
<title>Node202</title>
<g id="a_node27"><a xlink:href="induct_8f.html#a92d19447dae1fa7af20c94dbf1c09992" target="_top" xlink:title="gensolnp">
<polygon fill="#ffffff" stroke="#000000" points="174,-190.5 174,-209.5 230,-209.5 230,-190.5 174,-190.5"/>
<text text-anchor="middle" x="202" y="-197.5" font-family="Helvetica,sans-Serif" font-size="10.00" fill="#000000">gensolnp</text>
</a>
</g>
</g>
<!-- Node191&#45;&gt;Node202 -->
<g id="edge26" class="edge">
<title>Node191&#45;&gt;Node202</title>
<path fill="none" stroke="#191970" d="M110.349,-304.4035C119.9583,-286.0853 142.9352,-245.5949 171,-219 172.26,-217.806 173.6071,-216.6492 175.0079,-215.5355"/>
<polygon fill="#191970" stroke="#191970" points="177.2036,-218.2708 183.3875,-209.6679 173.1885,-212.5368 177.2036,-218.2708"/>
</g>
<!-- Node203 -->
<g id="node28" class="node">
<title>Node203</title>
<g id="a_node28"><a xlink:href="math_8f.html#a30b83d516b6ab162d3fafe73e03a3e92" target="_top" xlink:title="add2">
<polygon fill="#ffffff" stroke="#000000" points="183,-152.5 183,-171.5 221,-171.5 221,-152.5 183,-152.5"/>
<text text-anchor="middle" x="202" y="-159.5" font-family="Helvetica,sans-Serif" font-size="10.00" fill="#000000">add2</text>
</a>
</g>
</g>
<!-- Node191&#45;&gt;Node203 -->
<g id="edge27" class="edge">
<title>Node191&#45;&gt;Node203</title>
<path fill="none" stroke="#191970" d="M108.2333,-304.2232C115.2373,-280.6172 135.7968,-219.6098 171,-181 172.0367,-179.863 173.157,-178.7703 174.3356,-177.7237"/>
<polygon fill="#191970" stroke="#191970" points="176.758,-180.2839 182.6913,-171.5063 172.5792,-174.668 176.758,-180.2839"/>
</g>
<!-- Node204 -->
<g id="node29" class="node">
<title>Node204</title>
<g id="a_node29"><a xlink:href="navier1_8f.html#a0319e77dcb754cfe343f5e1e0a54f8dd" target="_top" xlink:title="opgradt">
<polygon fill="#ffffff" stroke="#000000" points="177.5,-114.5 177.5,-133.5 226.5,-133.5 226.5,-114.5 177.5,-114.5"/>
<text text-anchor="middle" x="202" y="-121.5" font-family="Helvetica,sans-Serif" font-size="10.00" fill="#000000">opgradt</text>
</a>
</g>
</g>
<!-- Node191&#45;&gt;Node204 -->
<g id="edge28" class="edge">
<title>Node191&#45;&gt;Node204</title>
<path fill="none" stroke="#191970" d="M106.9514,-304.3941C111.59,-276.5203 128.3309,-194.3454 171,-143 171.8397,-141.9896 172.7477,-141.0179 173.7074,-140.0853"/>
<polygon fill="#191970" stroke="#191970" points="176.1124,-142.6463 181.8002,-133.7077 171.7796,-137.1483 176.1124,-142.6463"/>
</g>
<!-- Node205 -->
<g id="node30" class="node">
<title>Node205</title>
<g id="a_node30"><a xlink:href="navier1_8f.html#a4d7a006ce8ef086e842bc09f74169951" target="_top" xlink:title="opbinv">
<polygon fill="#ffffff" stroke="#000000" points="179.5,-76.5 179.5,-95.5 224.5,-95.5 224.5,-76.5 179.5,-76.5"/>
<text text-anchor="middle" x="202" y="-83.5" font-family="Helvetica,sans-Serif" font-size="10.00" fill="#000000">opbinv</text>
</a>
</g>
</g>
<!-- Node191&#45;&gt;Node205 -->
<g id="edge29" class="edge">
<title>Node191&#45;&gt;Node205</title>
<path fill="none" stroke="#191970" d="M106.1699,-304.1508C108.8096,-272.1026 120.9595,-169.1682 171,-105 171.8079,-103.964 172.6893,-102.9709 173.627,-102.0205"/>
<polygon fill="#191970" stroke="#191970" points="176.0403,-104.5708 181.6289,-95.5698 171.647,-99.121 176.0403,-104.5708"/>
</g>
<!-- Node206 -->
<g id="node31" class="node">
<title>Node206</title>
<g id="a_node31"><a xlink:href="plan4_8f.html#a8cde16ca4292836a681d1021ada2dc28" target="_top" xlink:title="opadd2cm">
<polygon fill="#ffffff" stroke="#000000" points="171,-38.5 171,-57.5 233,-57.5 233,-38.5 171,-38.5"/>
<text text-anchor="middle" x="202" y="-45.5" font-family="Helvetica,sans-Serif" font-size="10.00" fill="#000000">opadd2cm</text>
</a>
</g>
</g>
<!-- Node191&#45;&gt;Node206 -->
<g id="edge30" class="edge">
<title>Node191&#45;&gt;Node206</title>
<path fill="none" stroke="#191970" d="M107.057,-304.4516C113.8061,-263.9453 141.5222,-106.5851 171,-67 171.6786,-66.0887 172.4151,-65.2116 173.1979,-64.3684"/>
<polygon fill="#191970" stroke="#191970" points="175.76,-66.7883 181.184,-57.6872 171.2683,-61.4194 175.76,-66.7883"/>
</g>
<!-- Node207 -->
<g id="node32" class="node">
<title>Node207</title>
<g id="a_node32"><a xlink:href="navier4_8f.html#a43f20a275a318725bfdf9e8eaa0839fa" target="_top" xlink:title="chkptol">
<polygon fill="#ffffff" stroke="#000000" points="178,-.5 178,-19.5 226,-19.5 226,-.5 178,-.5"/>
<text text-anchor="middle" x="202" y="-7.5" font-family="Helvetica,sans-Serif" font-size="10.00" fill="#000000">chkptol</text>
</a>
</g>
</g>
<!-- Node191&#45;&gt;Node207 -->
<g id="edge31" class="edge">
<title>Node191&#45;&gt;Node207</title>
<path fill="none" stroke="#191970" d="M106.7199,-304.2183C112.4397,-259.5646 137.7293,-75.2679 171,-29 171.6633,-28.0775 172.3867,-27.1908 173.1583,-26.3394"/>
<polygon fill="#191970" stroke="#191970" points="175.7234,-28.7534 181.0894,-19.6179 171.1976,-23.4132 175.7234,-28.7534"/>
</g>
</g>
</svg>
