<?xml version="1.0" encoding="UTF-8" standalone="no"?>
<!DOCTYPE svg PUBLIC "-//W3C//DTD SVG 1.1//EN"
 "http://www.w3.org/Graphics/SVG/1.1/DTD/svg11.dtd">
<!-- Generated by graphviz version 2.40.1 (20161225.0304)
 -->
<!-- Title: nek_advance Pages: 1 -->
<svg width="499pt" height="978pt"
 viewBox="0.00 0.00 499.00 978.00" xmlns="http://www.w3.org/2000/svg" xmlns:xlink="http://www.w3.org/1999/xlink">
<g id="graph0" class="graph" transform="scale(1 1) rotate(0) translate(4 974)">
<title>nek_advance</title>
<polygon fill="#ffffff" stroke="transparent" points="-4,4 -4,-974 495,-974 495,4 -4,4"/>
<!-- Node66 -->
<g id="node1" class="node">
<title>Node66</title>
<polygon fill="#bfbfbf" stroke="#000000" points="0,-570.5 0,-589.5 74,-589.5 74,-570.5 0,-570.5"/>
<text text-anchor="middle" x="37" y="-577.5" font-family="Helvetica,sans-Serif" font-size="10.00" fill="#000000">nek_advance</text>
</g>
<!-- Node67 -->
<g id="node2" class="node">
<title>Node67</title>
<g id="a_node2"><a xlink:href="comm__mpi_8f.html#a4acb4d8e379294232e9219bec063d8f3" target="_top" xlink:title="nekgsync">
<polygon fill="#ffffff" stroke="#000000" points="127.5,-950.5 127.5,-969.5 186.5,-969.5 186.5,-950.5 127.5,-950.5"/>
<text text-anchor="middle" x="157" y="-957.5" font-family="Helvetica,sans-Serif" font-size="10.00" fill="#000000">nekgsync</text>
</a>
</g>
</g>
<!-- Node66&#45;&gt;Node67 -->
<g id="edge1" class="edge">
<title>Node66&#45;&gt;Node67</title>
<path fill="none" stroke="#191970" d="M37.7304,-589.6567C41.8135,-641.3188 63.3254,-884.8008 110,-941 112.3898,-943.8775 115.2816,-946.3233 118.4427,-948.4013"/>
<polygon fill="#191970" stroke="#191970" points="116.8052,-951.4946 127.2797,-953.0872 120.0845,-945.3103 116.8052,-951.4946"/>
</g>
<!-- Node68 -->
<g id="node3" class="node">
<title>Node68</title>
<g id="a_node3"><a xlink:href="convect_8f.html#a9b58d62988f53102b490531b844a1891" target="_top" xlink:title="setup_convect">
<polygon fill="#ffffff" stroke="#000000" points="117,-912.5 117,-931.5 197,-931.5 197,-912.5 117,-912.5"/>
<text text-anchor="middle" x="157" y="-919.5" font-family="Helvetica,sans-Serif" font-size="10.00" fill="#000000">setup_convect</text>
</a>
</g>
</g>
<!-- Node66&#45;&gt;Node68 -->
<g id="edge2" class="edge">
<title>Node66&#45;&gt;Node68</title>
<path fill="none" stroke="#191970" d="M37.9713,-589.5816C43.0282,-637.7701 67.7419,-853.2801 110,-903 111.1364,-904.3371 112.3809,-905.5811 113.7097,-906.7385"/>
<polygon fill="#191970" stroke="#191970" points="111.8479,-909.7055 122.0772,-912.4643 115.801,-903.9285 111.8479,-909.7055"/>
</g>
<!-- Node69 -->
<g id="node4" class="node">
<title>Node69</title>
<g id="a_node4"><a xlink:href="drive2_8f.html#a6f905c80a0a2b0d5ed7f0449eda3e127" target="_top" xlink:title="settime">
<polygon fill="#ffffff" stroke="#000000" points="132.5,-874.5 132.5,-893.5 181.5,-893.5 181.5,-874.5 132.5,-874.5"/>
<text text-anchor="middle" x="157" y="-881.5" font-family="Helvetica,sans-Serif" font-size="10.00" fill="#000000">settime</text>
</a>
</g>
</g>
<!-- Node66&#45;&gt;Node69 -->
<g id="edge3" class="edge">
<title>Node66&#45;&gt;Node69</title>
<path fill="none" stroke="#191970" d="M38.2878,-589.6227C44.4467,-634.3699 72.1678,-821.7508 110,-865 113.5312,-869.0368 118.0443,-872.2283 122.8719,-874.7483"/>
<polygon fill="#191970" stroke="#191970" points="121.7969,-878.0952 132.3675,-878.8122 124.5512,-871.6598 121.7969,-878.0952"/>
</g>
<!-- Node70 -->
<g id="node5" class="node">
<title>Node70</title>
<g id="a_node5"><a xlink:href="induct_8f.html#a75294e71da0c68adb56f3804f5dad60f" target="_top" xlink:title="cfl_check">
<polygon fill="#ffffff" stroke="#000000" points="127.5,-836.5 127.5,-855.5 186.5,-855.5 186.5,-836.5 127.5,-836.5"/>
<text text-anchor="middle" x="157" y="-843.5" font-family="Helvetica,sans-Serif" font-size="10.00" fill="#000000">cfl_check</text>
</a>
</g>
</g>
<!-- Node66&#45;&gt;Node70 -->
<g id="edge4" class="edge">
<title>Node66&#45;&gt;Node70</title>
<path fill="none" stroke="#191970" d="M38.7055,-589.6896C46.1054,-630.7741 76.5673,-790.1635 110,-827 112.3789,-829.6212 115.1705,-831.8877 118.1862,-833.8463"/>
<polygon fill="#191970" stroke="#191970" points="116.6487,-836.9926 127.1225,-838.5896 119.9306,-830.8097 116.6487,-836.9926"/>
</g>
<!-- Node71 -->
<g id="node6" class="node">
<title>Node71</title>
<g id="a_node6"><a xlink:href="subs1_8f.html#aede23f2856c88d81d4315ea73f0177e8" target="_top" xlink:title="setsolv">
<polygon fill="#ffffff" stroke="#000000" points="133,-798.5 133,-817.5 181,-817.5 181,-798.5 133,-798.5"/>
<text text-anchor="middle" x="157" y="-805.5" font-family="Helvetica,sans-Serif" font-size="10.00" fill="#000000">setsolv</text>
</a>
</g>
</g>
<!-- Node66&#45;&gt;Node71 -->
<g id="edge5" class="edge">
<title>Node66&#45;&gt;Node71</title>
<path fill="none" stroke="#191970" d="M37.6308,-589.7622C40.25,-622.4233 52.992,-729.1798 110,-789 113.7,-792.8826 118.3017,-795.9933 123.166,-798.4797"/>
<polygon fill="#191970" stroke="#191970" points="122.1044,-801.8317 132.6762,-802.5303 124.8475,-795.3915 122.1044,-801.8317"/>
</g>
<!-- Node72 -->
<g id="node7" class="node">
<title>Node72</title>
<g id="a_node7"><a xlink:href="drive2_8f.html#ab79ec3c35ce2079b236a435feee313c2" target="_top" xlink:title="comment">
<polygon fill="#ffffff" stroke="#000000" points="128.5,-760.5 128.5,-779.5 185.5,-779.5 185.5,-760.5 128.5,-760.5"/>
<text text-anchor="middle" x="157" y="-767.5" font-family="Helvetica,sans-Serif" font-size="10.00" fill="#000000">comment</text>
</a>
</g>
</g>
<!-- Node66&#45;&gt;Node72 -->
<g id="edge6" class="edge">
<title>Node66&#45;&gt;Node72</title>
<path fill="none" stroke="#191970" d="M38.4666,-589.5726C43.3142,-618.0661 61.3764,-703.3063 110,-751 112.6704,-753.6193 115.7495,-755.8926 119.028,-757.8625"/>
<polygon fill="#191970" stroke="#191970" points="117.5231,-761.0234 128.0284,-762.3979 120.6732,-754.7722 117.5231,-761.0234"/>
</g>
<!-- Node73 -->
<g id="node8" class="node">
<title>Node73</title>
<g id="a_node8"><a xlink:href="multimesh_8f.html#a0960e928ef8c9884daa9faa261b9ebb8" target="_top" xlink:title="userchk_set_xfer">
<polygon fill="#ffffff" stroke="#000000" points="111,-722.5 111,-741.5 203,-741.5 203,-722.5 111,-722.5"/>
<text text-anchor="middle" x="157" y="-729.5" font-family="Helvetica,sans-Serif" font-size="10.00" fill="#000000">userchk_set_xfer</text>
</a>
</g>
</g>
<!-- Node66&#45;&gt;Node73 -->
<g id="edge7" class="edge">
<title>Node66&#45;&gt;Node73</title>
<path fill="none" stroke="#191970" d="M39.8406,-589.8154C47.3269,-614.0437 69.8341,-677.3076 110,-713 111.7105,-714.52 113.5584,-715.9273 115.4981,-717.229"/>
<polygon fill="#191970" stroke="#191970" points="114.0203,-720.4139 124.4491,-722.2827 117.4619,-714.3184 114.0203,-720.4139"/>
</g>
<!-- Node74 -->
<g id="node9" class="node">
<title>Node74</title>
<g id="a_node9"><a xlink:href="drive2_8f.html#aee60b6a659972e6dbd4c16aad7b6f855" target="_top" xlink:title="heat_cvode">
<polygon fill="#ffffff" stroke="#000000" points="123.5,-684.5 123.5,-703.5 190.5,-703.5 190.5,-684.5 123.5,-684.5"/>
<text text-anchor="middle" x="157" y="-691.5" font-family="Helvetica,sans-Serif" font-size="10.00" fill="#000000">heat_cvode</text>
</a>
</g>
</g>
<!-- Node66&#45;&gt;Node74 -->
<g id="edge8" class="edge">
<title>Node66&#45;&gt;Node74</title>
<path fill="none" stroke="#191970" d="M42.1183,-589.7211C52.5164,-608.6165 77.8737,-650.583 110,-675 112.2992,-676.7475 114.7812,-678.3591 117.3612,-679.8411"/>
<polygon fill="#191970" stroke="#191970" points="115.883,-683.0154 126.3884,-684.3887 119.0324,-676.7638 115.883,-683.0154"/>
</g>
<!-- Node75 -->
<g id="node10" class="node">
<title>Node75</title>
<g id="a_node10"><a xlink:href="drive2_8f.html#aefc07385d7e7539fb57662470f694136" target="_top" xlink:title="gengeom">
<polygon fill="#ffffff" stroke="#000000" points="129,-646.5 129,-665.5 185,-665.5 185,-646.5 129,-646.5"/>
<text text-anchor="middle" x="157" y="-653.5" font-family="Helvetica,sans-Serif" font-size="10.00" fill="#000000">gengeom</text>
</a>
</g>
</g>
<!-- Node66&#45;&gt;Node75 -->
<g id="edge9" class="edge">
<title>Node66&#45;&gt;Node75</title>
<path fill="none" stroke="#191970" d="M47.6845,-589.9173C61.3282,-602.1952 86.048,-623.1728 110,-637 113.2395,-638.8701 116.6987,-640.643 120.2155,-642.2993"/>
<polygon fill="#191970" stroke="#191970" points="118.9841,-645.5811 129.5474,-646.3983 121.7993,-639.1721 118.9841,-645.5811"/>
</g>
<!-- Node76 -->
<g id="node11" class="node">
<title>Node76</title>
<g id="a_node11"><a xlink:href="drive2_8f.html#a7f0d055bb47546a4859ac7d63339197e" target="_top" xlink:title="geneig">
<polygon fill="#ffffff" stroke="#000000" points="134.5,-608.5 134.5,-627.5 179.5,-627.5 179.5,-608.5 134.5,-608.5"/>
<text text-anchor="middle" x="157" y="-615.5" font-family="Helvetica,sans-Serif" font-size="10.00" fill="#000000">geneig</text>
</a>
</g>
</g>
<!-- Node66&#45;&gt;Node76 -->
<g id="edge10" class="edge">
<title>Node66&#45;&gt;Node76</title>
<path fill="none" stroke="#191970" d="M67.2811,-589.589C84.6932,-595.1029 106.5727,-602.0314 124.366,-607.6659"/>
<polygon fill="#191970" stroke="#191970" points="123.7154,-611.1311 134.3055,-610.8134 125.8287,-604.4577 123.7154,-611.1311"/>
</g>
<!-- Node77 -->
<g id="node12" class="node">
<title>Node77</title>
<g id="a_node12"><a xlink:href="drive2_8f.html#acce80cd37f20e9b52729eb52d86a9c86" target="_top" xlink:title="heat">
<polygon fill="#ffffff" stroke="#000000" points="139.5,-570.5 139.5,-589.5 174.5,-589.5 174.5,-570.5 139.5,-570.5"/>
<text text-anchor="middle" x="157" y="-577.5" font-family="Helvetica,sans-Serif" font-size="10.00" fill="#000000">heat</text>
</a>
</g>
</g>
<!-- Node66&#45;&gt;Node77 -->
<g id="edge11" class="edge">
<title>Node66&#45;&gt;Node77</title>
<path fill="none" stroke="#191970" d="M74.311,-580C92.1455,-580 113.1167,-580 129.4769,-580"/>
<polygon fill="#191970" stroke="#191970" points="129.4828,-583.5001 139.4827,-580 129.4827,-576.5001 129.4828,-583.5001"/>
</g>
<!-- Node78 -->
<g id="node13" class="node">
<title>Node78</title>
<g id="a_node13"><a xlink:href="subs1_8f.html#af114fff998975a6e77422a65106222ca" target="_top" xlink:title="setprop">
<polygon fill="#ffffff" stroke="#000000" points="132.5,-532.5 132.5,-551.5 181.5,-551.5 181.5,-532.5 132.5,-532.5"/>
<text text-anchor="middle" x="157" y="-539.5" font-family="Helvetica,sans-Serif" font-size="10.00" fill="#000000">setprop</text>
</a>
</g>
</g>
<!-- Node66&#45;&gt;Node78 -->
<g id="edge12" class="edge">
<title>Node66&#45;&gt;Node78</title>
<path fill="none" stroke="#191970" d="M67.2811,-570.411C84.1128,-565.0809 105.1191,-558.429 122.5733,-552.9018"/>
<polygon fill="#191970" stroke="#191970" points="123.9045,-556.1516 132.3813,-549.7959 121.7912,-549.4782 123.9045,-556.1516"/>
</g>
<!-- Node79 -->
<g id="node14" class="node">
<title>Node79</title>
<g id="a_node14"><a xlink:href="math_8f.html#af44de42b023a4a68cd98ea341204342d" target="_top" xlink:title="rzero">
<polygon fill="#ffffff" stroke="#000000" points="441.5,-547.5 441.5,-566.5 479.5,-566.5 479.5,-547.5 441.5,-547.5"/>
<text text-anchor="middle" x="460.5" y="-554.5" font-family="Helvetica,sans-Serif" font-size="10.00" fill="#000000">rzero</text>
</a>
</g>
</g>
<!-- Node66&#45;&gt;Node79 -->
<g id="edge13" class="edge">
<title>Node66&#45;&gt;Node79</title>
<path fill="none" stroke="#191970" d="M45.2453,-570.4022C57.6605,-556.7724 82.6325,-532.419 110,-523 149.5036,-509.4042 165.6219,-506.4923 204,-523 225.3713,-532.1925 218.6287,-551.8075 240,-561 264.0884,-571.3612 272.7798,-561.3247 299,-561 345.1093,-560.4291 398.6067,-558.9416 430.9833,-557.9503"/>
<polygon fill="#191970" stroke="#191970" points="431.226,-561.4446 441.1123,-557.6353 431.0083,-554.448 431.226,-561.4446"/>
</g>
<!-- Node80 -->
<g id="node15" class="node">
<title>Node80</title>
<g id="a_node15"><a xlink:href="plan4_8f.html#a26aff16d60c39fbe34c5ca86c4041824" target="_top" xlink:title="qthermal">
<polygon fill="#ffffff" stroke="#000000" points="130,-418.5 130,-437.5 184,-437.5 184,-418.5 130,-418.5"/>
<text text-anchor="middle" x="157" y="-425.5" font-family="Helvetica,sans-Serif" font-size="10.00" fill="#000000">qthermal</text>
</a>
</g>
</g>
<!-- Node66&#45;&gt;Node80 -->
<g id="edge14" class="edge">
<title>Node66&#45;&gt;Node80</title>
<path fill="none" stroke="#191970" d="M39.8406,-570.1846C47.3269,-545.9563 69.8341,-482.6924 110,-447 113.1826,-444.1719 116.8406,-441.7341 120.6808,-439.6402"/>
<polygon fill="#191970" stroke="#191970" points="122.2602,-442.7655 129.8338,-435.3565 119.293,-436.4254 122.2602,-442.7655"/>
</g>
<!-- Node81 -->
<g id="node16" class="node">
<title>Node81</title>
<g id="a_node16"><a xlink:href="group__core.html#gab0aeca9ad3db8be87a01ba29d069d71e" target="_top" xlink:title="Driver for solving the incompressible Navier&#45;Stokes equations. ">
<polygon fill="#ffffff" stroke="#000000" points="139.5,-456.5 139.5,-475.5 174.5,-475.5 174.5,-456.5 139.5,-456.5"/>
<text text-anchor="middle" x="157" y="-463.5" font-family="Helvetica,sans-Serif" font-size="10.00" fill="#000000">fluid</text>
</a>
</g>
</g>
<!-- Node66&#45;&gt;Node81 -->
<g id="edge15" class="edge">
<title>Node66&#45;&gt;Node81</title>
<path fill="none" stroke="#191970" d="M42.7778,-570.4957C53.9283,-552.7803 79.9815,-514.3105 110,-490 116.0698,-485.0844 123.309,-480.7812 130.2657,-477.2276"/>
<polygon fill="#191970" stroke="#191970" points="131.9163,-480.3183 139.4407,-472.8594 128.9072,-473.998 131.9163,-480.3183"/>
</g>
<!-- Node120 -->
<g id="node45" class="node">
<title>Node120</title>
<g id="a_node45"><a xlink:href="drive2_8f.html#aa4f676fe0a57e3cbdce8c8fe353edeb0" target="_top" xlink:title="meshv">
<polygon fill="#ffffff" stroke="#000000" points="134,-380.5 134,-399.5 180,-399.5 180,-380.5 134,-380.5"/>
<text text-anchor="middle" x="157" y="-387.5" font-family="Helvetica,sans-Serif" font-size="10.00" fill="#000000">meshv</text>
</a>
</g>
</g>
<!-- Node66&#45;&gt;Node120 -->
<g id="edge46" class="edge">
<title>Node66&#45;&gt;Node120</title>
<path fill="none" stroke="#191970" d="M38.4666,-570.4274C43.3142,-541.9339 61.3764,-456.6937 110,-409 114.0841,-404.994 119.1242,-401.7974 124.3717,-399.2575"/>
<polygon fill="#191970" stroke="#191970" points="125.9529,-402.392 133.8791,-395.3617 123.2987,-395.9147 125.9529,-402.392"/>
</g>
<!-- Node121 -->
<g id="node46" class="node">
<title>Node121</title>
<g id="a_node46"><a xlink:href="navier5_8f.html#a519066c177fc94530849e83d3b9d4cfb" target="_top" xlink:title="q_filter">
<polygon fill="#ffffff" stroke="#000000" points="134,-342.5 134,-361.5 180,-361.5 180,-342.5 134,-342.5"/>
<text text-anchor="middle" x="157" y="-349.5" font-family="Helvetica,sans-Serif" font-size="10.00" fill="#000000">q_filter</text>
</a>
</g>
</g>
<!-- Node66&#45;&gt;Node121 -->
<g id="edge47" class="edge">
<title>Node66&#45;&gt;Node121</title>
<path fill="none" stroke="#191970" d="M37.6308,-570.2378C40.25,-537.5767 52.992,-430.8202 110,-371 113.9467,-366.8586 118.9192,-363.5954 124.1422,-361.0313"/>
<polygon fill="#191970" stroke="#191970" points="125.7231,-364.1659 133.6466,-357.1325 123.0665,-357.6896 125.7231,-364.1659"/>
</g>
<!-- Node122 -->
<g id="node47" class="node">
<title>Node122</title>
<g id="a_node47"><a xlink:href="multimesh_8f.html#aa5ca8c9a0bec7eae623afb4b2a8e582c" target="_top" xlink:title="multimesh_create">
<polygon fill="#ffffff" stroke="#000000" points="110,-304.5 110,-323.5 204,-323.5 204,-304.5 110,-304.5"/>
<text text-anchor="middle" x="157" y="-311.5" font-family="Helvetica,sans-Serif" font-size="10.00" fill="#000000">multimesh_create</text>
</a>
</g>
</g>
<!-- Node66&#45;&gt;Node122 -->
<g id="edge48" class="edge">
<title>Node66&#45;&gt;Node122</title>
<path fill="none" stroke="#191970" d="M38.7055,-570.3104C46.1054,-529.2259 76.5673,-369.8365 110,-333 111.1793,-331.7006 112.46,-330.4884 113.8191,-329.3576"/>
<polygon fill="#191970" stroke="#191970" points="115.9018,-332.1762 122.3012,-323.7324 112.0329,-326.3425 115.9018,-332.1762"/>
</g>
<!-- Node123 -->
<g id="node48" class="node">
<title>Node123</title>
<g id="a_node48"><a xlink:href="induct_8f.html#aa44a44eb5a5e3f510211f8fd8e6b12b7" target="_top" xlink:title="induct">
<polygon fill="#ffffff" stroke="#000000" points="135.5,-266.5 135.5,-285.5 178.5,-285.5 178.5,-266.5 135.5,-266.5"/>
<text text-anchor="middle" x="157" y="-273.5" font-family="Helvetica,sans-Serif" font-size="10.00" fill="#000000">induct</text>
</a>
</g>
</g>
<!-- Node66&#45;&gt;Node123 -->
<g id="edge49" class="edge">
<title>Node66&#45;&gt;Node123</title>
<path fill="none" stroke="#191970" d="M38.2878,-570.3773C44.4467,-525.6301 72.1678,-338.2492 110,-295 114.2591,-290.131 119.9469,-286.4917 125.8918,-283.7773"/>
<polygon fill="#191970" stroke="#191970" points="127.1609,-287.0394 135.2772,-280.2294 124.6856,-280.4916 127.1609,-287.0394"/>
</g>
<!-- Node124 -->
<g id="node49" class="node">
<title>Node124</title>
<g id="a_node49"><a xlink:href="perturb_8f.html#ad8d4119d40930d56b2095e9457f93bab" target="_top" xlink:title="fluidp">
<polygon fill="#ffffff" stroke="#000000" points="137,-228.5 137,-247.5 177,-247.5 177,-228.5 137,-228.5"/>
<text text-anchor="middle" x="157" y="-235.5" font-family="Helvetica,sans-Serif" font-size="10.00" fill="#000000">fluidp</text>
</a>
</g>
</g>
<!-- Node66&#45;&gt;Node124 -->
<g id="edge50" class="edge">
<title>Node66&#45;&gt;Node124</title>
<path fill="none" stroke="#191970" d="M37.9713,-570.4184C43.0282,-522.2299 67.7419,-306.7199 110,-257 114.5189,-251.6832 120.7466,-247.8372 127.1913,-245.0611"/>
<polygon fill="#191970" stroke="#191970" points="128.3642,-248.3588 136.615,-241.7124 126.0203,-241.7628 128.3642,-248.3588"/>
</g>
<!-- Node125 -->
<g id="node50" class="node">
<title>Node125</title>
<g id="a_node50"><a xlink:href="perturb_8f.html#ac353eeb6dfd3fec540b933d9c701b0e7" target="_top" xlink:title="heatp">
<polygon fill="#ffffff" stroke="#000000" points="136.5,-190.5 136.5,-209.5 177.5,-209.5 177.5,-190.5 136.5,-190.5"/>
<text text-anchor="middle" x="157" y="-197.5" font-family="Helvetica,sans-Serif" font-size="10.00" fill="#000000">heatp</text>
</a>
</g>
</g>
<!-- Node66&#45;&gt;Node125 -->
<g id="edge51" class="edge">
<title>Node66&#45;&gt;Node125</title>
<path fill="none" stroke="#191970" d="M37.7304,-570.3433C41.8135,-518.6812 63.3254,-275.1992 110,-219 114.2806,-213.8458 120.1714,-210.0769 126.3363,-207.3252"/>
<polygon fill="#191970" stroke="#191970" points="127.8586,-210.4957 136.0574,-203.7853 125.4634,-203.9182 127.8586,-210.4957"/>
</g>
<!-- Node82 -->
<g id="node17" class="node">
<title>Node82</title>
<g id="a_node17"><a xlink:href="subs1_8f.html#a8f2e17fa9df4e1df865aa17b294f867c" target="_top" xlink:title="unorm">
<polygon fill="#ffffff" stroke="#000000" points="247.5,-380.5 247.5,-399.5 291.5,-399.5 291.5,-380.5 247.5,-380.5"/>
<text text-anchor="middle" x="269.5" y="-387.5" font-family="Helvetica,sans-Serif" font-size="10.00" fill="#000000">unorm</text>
</a>
</g>
</g>
<!-- Node81&#45;&gt;Node82 -->
<g id="edge16" class="edge">
<title>Node81&#45;&gt;Node82</title>
<path fill="none" stroke="#191970" d="M174.8584,-460.8035C184.0375,-457.6463 195.1276,-453.0477 204,-447 223.2234,-433.8967 222.0916,-423.85 240,-409 241.5123,-407.746 243.1118,-406.5063 244.7524,-405.2974"/>
<polygon fill="#191970" stroke="#191970" points="246.8174,-408.1253 253.086,-399.5839 242.8591,-402.3519 246.8174,-408.1253"/>
</g>
<!-- Node83 -->
<g id="node18" class="node">
<title>Node83</title>
<g id="a_node18"><a xlink:href="ssolv_8f.html#a2042097d2d5ef6c25e65f059e2c56756" target="_top" xlink:title="settolv">
<polygon fill="#ffffff" stroke="#000000" points="246.5,-342.5 246.5,-361.5 292.5,-361.5 292.5,-342.5 246.5,-342.5"/>
<text text-anchor="middle" x="269.5" y="-349.5" font-family="Helvetica,sans-Serif" font-size="10.00" fill="#000000">settolv</text>
</a>
</g>
</g>
<!-- Node81&#45;&gt;Node83 -->
<g id="edge17" class="edge">
<title>Node81&#45;&gt;Node83</title>
<path fill="none" stroke="#191970" d="M174.8104,-462.1646C184.4219,-459.3316 195.9336,-454.61 204,-447 231.1864,-421.3517 215.3414,-399.0872 240,-371 240.9797,-369.8841 242.0402,-368.8085 243.1574,-367.7756"/>
<polygon fill="#191970" stroke="#191970" points="245.348,-370.5058 251.0938,-361.6043 241.0511,-364.9798 245.348,-370.5058"/>
</g>
<!-- Node84 -->
<g id="node19" class="node">
<title>Node84</title>
<g id="a_node19"><a xlink:href="plan4_8f.html#a247fc105464de543a464773054eb509e" target="_top" xlink:title="plan4">
<polygon fill="#ffffff" stroke="#000000" points="249.5,-304.5 249.5,-323.5 289.5,-323.5 289.5,-304.5 249.5,-304.5"/>
<text text-anchor="middle" x="269.5" y="-311.5" font-family="Helvetica,sans-Serif" font-size="10.00" fill="#000000">plan4</text>
</a>
</g>
</g>
<!-- Node81&#45;&gt;Node84 -->
<g id="edge18" class="edge">
<title>Node81&#45;&gt;Node84</title>
<path fill="none" stroke="#191970" d="M174.7639,-462.7037C184.6019,-460.0216 196.3519,-455.2716 204,-447 240.0716,-407.9878 207.75,-375.2261 240,-333 240.7904,-331.9652 241.6544,-330.9707 242.5743,-330.017"/>
<polygon fill="#191970" stroke="#191970" points="244.9566,-332.5885 250.4241,-323.5134 240.4906,-327.1981 244.9566,-332.5885"/>
</g>
<!-- Node85 -->
<g id="node20" class="node">
<title>Node85</title>
<g id="a_node20"><a xlink:href="navier4_8f.html#a43f20a275a318725bfdf9e8eaa0839fa" target="_top" xlink:title="chkptol">
<polygon fill="#ffffff" stroke="#000000" points="436.5,-485.5 436.5,-504.5 484.5,-504.5 484.5,-485.5 436.5,-485.5"/>
<text text-anchor="middle" x="460.5" y="-492.5" font-family="Helvetica,sans-Serif" font-size="10.00" fill="#000000">chkptol</text>
</a>
</g>
</g>
<!-- Node81&#45;&gt;Node85 -->
<g id="edge19" class="edge">
<title>Node81&#45;&gt;Node85</title>
<path fill="none" stroke="#191970" d="M174.927,-466.3907C202.3001,-467.4303 255.8804,-471.2201 299,-485 316.2331,-490.5073 317.439,-499.6502 335,-504 360.453,-510.3047 367.8371,-505.7624 394,-504 404.5488,-503.2894 415.9754,-501.9516 426.3318,-500.5206"/>
<polygon fill="#191970" stroke="#191970" points="426.8665,-503.9798 436.2593,-499.0783 425.86,-497.0525 426.8665,-503.9798"/>
</g>
<!-- Node86 -->
<g id="node21" class="node">
<title>Node86</title>
<g id="a_node21"><a xlink:href="drive2_8f.html#ae46d95459d293cfb4656cbeb0e086f2a" target="_top" xlink:title="vol_flow">
<polygon fill="#ffffff" stroke="#000000" points="243,-266.5 243,-285.5 296,-285.5 296,-266.5 243,-266.5"/>
<text text-anchor="middle" x="269.5" y="-273.5" font-family="Helvetica,sans-Serif" font-size="10.00" fill="#000000">vol_flow</text>
</a>
</g>
</g>
<!-- Node81&#45;&gt;Node86 -->
<g id="edge20" class="edge">
<title>Node81&#45;&gt;Node86</title>
<path fill="none" stroke="#191970" d="M174.5317,-463.0307C184.5419,-460.4439 196.5455,-455.6799 204,-447 249.2317,-394.3327 199.9121,-351.6808 240,-295 240.6508,-294.0799 241.3615,-293.1935 242.1202,-292.3408"/>
<polygon fill="#191970" stroke="#191970" points="244.6585,-294.7723 249.9168,-285.5743 240.0703,-289.4856 244.6585,-294.7723"/>
</g>
<!-- Node87 -->
<g id="node22" class="node">
<title>Node87</title>
<g id="a_node22"><a xlink:href="plan4_8f.html#a7dc32896a9c8fafb6bcb0103e7507909" target="_top" xlink:title="printdiverr">
<polygon fill="#ffffff" stroke="#000000" points="240,-228.5 240,-247.5 299,-247.5 299,-228.5 240,-228.5"/>
<text text-anchor="middle" x="269.5" y="-235.5" font-family="Helvetica,sans-Serif" font-size="10.00" fill="#000000">printdiverr</text>
</a>
</g>
</g>
<!-- Node81&#45;&gt;Node87 -->
<g id="edge21" class="edge">
<title>Node81&#45;&gt;Node87</title>
<path fill="none" stroke="#191970" d="M174.676,-463.1518C184.7373,-460.6079 196.744,-455.8465 204,-447 258.5053,-380.5467 191.9736,-328.2764 240,-257 240.6127,-256.0906 241.2851,-255.2152 242.0058,-254.3735"/>
<polygon fill="#191970" stroke="#191970" points="244.3547,-256.9684 249.4864,-247.6992 239.6944,-251.7451 244.3547,-256.9684"/>
</g>
<!-- Node88 -->
<g id="node23" class="node">
<title>Node88</title>
<g id="a_node23"><a xlink:href="plan5_8f.html#ae6f47947bd1a89d608ae3b90ac8f433d" target="_top" xlink:title="plan5">
<polygon fill="#ffffff" stroke="#000000" points="249.5,-532.5 249.5,-551.5 289.5,-551.5 289.5,-532.5 249.5,-532.5"/>
<text text-anchor="middle" x="269.5" y="-539.5" font-family="Helvetica,sans-Serif" font-size="10.00" fill="#000000">plan5</text>
</a>
</g>
</g>
<!-- Node81&#45;&gt;Node88 -->
<g id="edge22" class="edge">
<title>Node81&#45;&gt;Node88</title>
<path fill="none" stroke="#191970" d="M174.605,-473.6022C183.7147,-477.8743 194.8193,-483.6239 204,-490 221.8273,-502.3813 222.8142,-509.7425 240,-523 241.5917,-524.2279 243.2633,-525.455 244.9677,-526.661"/>
<polygon fill="#191970" stroke="#191970" points="243.2923,-529.7519 253.545,-532.4223 247.1954,-523.941 243.2923,-529.7519"/>
</g>
<!-- Node89 -->
<g id="node24" class="node">
<title>Node89</title>
<g id="a_node24"><a xlink:href="group__core.html#ga142f9186a662d3de60f09bb0ee26782d" target="_top" xlink:title="Compute pressure and velocity using consistent approximation spaces. Operator splitting technique...">
<polygon fill="#ffffff" stroke="#000000" points="249.5,-418.5 249.5,-437.5 289.5,-437.5 289.5,-418.5 249.5,-418.5"/>
<text text-anchor="middle" x="269.5" y="-425.5" font-family="Helvetica,sans-Serif" font-size="10.00" fill="#000000">plan3</text>
</a>
</g>
</g>
<!-- Node81&#45;&gt;Node89 -->
<g id="edge23" class="edge">
<title>Node81&#45;&gt;Node89</title>
<path fill="none" stroke="#191970" d="M174.5781,-460.0625C191.9975,-454.1786 219.0068,-445.0555 239.7672,-438.0431"/>
<polygon fill="#191970" stroke="#191970" points="241.0332,-441.3098 249.3873,-434.7936 238.793,-434.6779 241.0332,-441.3098"/>
</g>
<!-- Node119 -->
<g id="node44" class="node">
<title>Node119</title>
<g id="a_node44"><a xlink:href="navier1_8f.html#a23e6343990072aa1a6b17109ccc7ba2b" target="_top" xlink:title="plan1">
<polygon fill="#ffffff" stroke="#000000" points="249.5,-494.5 249.5,-513.5 289.5,-513.5 289.5,-494.5 249.5,-494.5"/>
<text text-anchor="middle" x="269.5" y="-501.5" font-family="Helvetica,sans-Serif" font-size="10.00" fill="#000000">plan1</text>
</a>
</g>
</g>
<!-- Node81&#45;&gt;Node119 -->
<g id="edge45" class="edge">
<title>Node81&#45;&gt;Node119</title>
<path fill="none" stroke="#191970" d="M174.5781,-471.9375C191.9975,-477.8214 219.0068,-486.9445 239.7672,-493.9569"/>
<polygon fill="#191970" stroke="#191970" points="238.793,-497.3221 249.3873,-497.2064 241.0332,-490.6902 238.793,-497.3221"/>
</g>
<!-- Node90 -->
<g id="node25" class="node">
<title>Node90</title>
<g id="a_node25"><a xlink:href="group__core.html#ga83189b3d1938d87f00ace2e7e05d9e4c" target="_top" xlink:title="Compute and add. ">
<polygon fill="#ffffff" stroke="#000000" points="342.5,-171.5 342.5,-190.5 386.5,-190.5 386.5,-171.5 342.5,-171.5"/>
<text text-anchor="middle" x="364.5" y="-178.5" font-family="Helvetica,sans-Serif" font-size="10.00" fill="#000000">makef</text>
</a>
</g>
</g>
<!-- Node89&#45;&gt;Node90 -->
<g id="edge24" class="edge">
<title>Node89&#45;&gt;Node90</title>
<path fill="none" stroke="#191970" d="M288.9527,-418.331C292.7114,-415.732 296.3108,-412.6181 299,-409 324.1856,-375.1147 351.0431,-249.2597 360.7395,-200.4864"/>
<polygon fill="#191970" stroke="#191970" points="364.1939,-201.0585 362.6841,-190.5718 357.3248,-199.7112 364.1939,-201.0585"/>
</g>
<!-- Node99 -->
<g id="node34" class="node">
<title>Node99</title>
<g id="a_node34"><a xlink:href="subs1_8f.html#ae2376b70f309c6118b4e43df9cbe66b1" target="_top" xlink:title="sethlm">
<polygon fill="#ffffff" stroke="#000000" points="341.5,-133.5 341.5,-152.5 387.5,-152.5 387.5,-133.5 341.5,-133.5"/>
<text text-anchor="middle" x="364.5" y="-140.5" font-family="Helvetica,sans-Serif" font-size="10.00" fill="#000000">sethlm</text>
</a>
</g>
</g>
<!-- Node89&#45;&gt;Node99 -->
<g id="edge33" class="edge">
<title>Node89&#45;&gt;Node99</title>
<path fill="none" stroke="#191970" d="M289.6343,-418.3802C293.2552,-415.8055 296.6269,-412.6888 299,-409 359.0211,-315.7014 274.9789,-255.2986 335,-162 335.5933,-161.0778 336.2489,-160.1914 336.9553,-159.3402"/>
<polygon fill="#191970" stroke="#191970" points="339.3094,-161.9303 344.3657,-152.6198 334.6069,-156.745 339.3094,-161.9303"/>
</g>
<!-- Node100 -->
<g id="node35" class="node">
<title>Node100</title>
<g id="a_node35"><a xlink:href="planx_8f.html#a02873cc7b2b98973667aa8cb9f2cbadb" target="_top" xlink:title="cresvif">
<polygon fill="#ffffff" stroke="#000000" points="341.5,-475.5 341.5,-494.5 387.5,-494.5 387.5,-475.5 341.5,-475.5"/>
<text text-anchor="middle" x="364.5" y="-482.5" font-family="Helvetica,sans-Serif" font-size="10.00" fill="#000000">cresvif</text>
</a>
</g>
</g>
<!-- Node89&#45;&gt;Node100 -->
<g id="edge34" class="edge">
<title>Node89&#45;&gt;Node100</title>
<path fill="none" stroke="#191970" d="M285.6155,-437.6693C300.4445,-446.5667 322.6603,-459.8962 339.7411,-470.1446"/>
<polygon fill="#191970" stroke="#191970" points="338.2468,-473.3298 348.6225,-475.4735 341.8484,-467.3273 338.2468,-473.3298"/>
</g>
<!-- Node101 -->
<g id="node36" class="node">
<title>Node101</title>
<g id="a_node36"><a xlink:href="induct_8f.html#aa0804a1aad3b9e0820df2c055d97942d" target="_top" xlink:title="ophinv_pr">
<polygon fill="#ffffff" stroke="#000000" points="335,-437.5 335,-456.5 394,-456.5 394,-437.5 335,-437.5"/>
<text text-anchor="middle" x="364.5" y="-444.5" font-family="Helvetica,sans-Serif" font-size="10.00" fill="#000000">ophinv_pr</text>
</a>
</g>
</g>
<!-- Node89&#45;&gt;Node101 -->
<g id="edge35" class="edge">
<title>Node89&#45;&gt;Node101</title>
<path fill="none" stroke="#191970" d="M289.6471,-432.0294C299.8594,-434.0719 312.6305,-436.6261 324.7168,-439.0434"/>
<polygon fill="#191970" stroke="#191970" points="324.1447,-442.4982 334.6369,-441.0274 325.5176,-435.6341 324.1447,-442.4982"/>
</g>
<!-- Node102 -->
<g id="node37" class="node">
<title>Node102</title>
<g id="a_node37"><a xlink:href="navier1_8f.html#abc5cd1542bbd239734ba41882d091e03" target="_top" xlink:title="ophinv">
<polygon fill="#ffffff" stroke="#000000" points="342,-399.5 342,-418.5 387,-418.5 387,-399.5 342,-399.5"/>
<text text-anchor="middle" x="364.5" y="-406.5" font-family="Helvetica,sans-Serif" font-size="10.00" fill="#000000">ophinv</text>
</a>
</g>
</g>
<!-- Node89&#45;&gt;Node102 -->
<g id="edge36" class="edge">
<title>Node89&#45;&gt;Node102</title>
<path fill="none" stroke="#191970" d="M289.6471,-423.9706C301.7997,-421.5401 317.5759,-418.3848 331.5095,-415.5981"/>
<polygon fill="#191970" stroke="#191970" points="332.5956,-418.9503 341.7149,-413.557 331.2227,-412.0862 332.5956,-418.9503"/>
</g>
<!-- Node103 -->
<g id="node38" class="node">
<title>Node103</title>
<g id="a_node38"><a xlink:href="navier1_8f.html#ad1bbe02eb4b6eb1d16f7612e1947dac5" target="_top" xlink:title="opadd2">
<polygon fill="#ffffff" stroke="#000000" points="340.5,-361.5 340.5,-380.5 388.5,-380.5 388.5,-361.5 340.5,-361.5"/>
<text text-anchor="middle" x="364.5" y="-368.5" font-family="Helvetica,sans-Serif" font-size="10.00" fill="#000000">opadd2</text>
</a>
</g>
</g>
<!-- Node89&#45;&gt;Node103 -->
<g id="edge37" class="edge">
<title>Node89&#45;&gt;Node103</title>
<path fill="none" stroke="#191970" d="M285.6155,-418.3307C300.4445,-409.4333 322.6603,-396.1038 339.7411,-385.8554"/>
<polygon fill="#191970" stroke="#191970" points="341.8484,-388.6727 348.6225,-380.5265 338.2468,-382.6702 341.8484,-388.6727"/>
</g>
<!-- Node104 -->
<g id="node39" class="node">
<title>Node104</title>
<g id="a_node39"><a xlink:href="group__core.html#gaeb2c6d4ae2c98143118acce2419c034d" target="_top" xlink:title="Project U onto the closest incompressible field. ">
<polygon fill="#ffffff" stroke="#ff0000" points="336.5,-323.5 336.5,-342.5 392.5,-342.5 392.5,-323.5 336.5,-323.5"/>
<text text-anchor="middle" x="364.5" y="-330.5" font-family="Helvetica,sans-Serif" font-size="10.00" fill="#000000">incomprn</text>
</a>
</g>
</g>
<!-- Node89&#45;&gt;Node104 -->
<g id="edge38" class="edge">
<title>Node89&#45;&gt;Node104</title>
<path fill="none" stroke="#191970" d="M287.2933,-418.3148C291.4019,-415.6148 295.5692,-412.4613 299,-409 320.0927,-387.7192 313.9073,-373.2808 335,-352 336.0721,-350.9183 337.2162,-349.8667 338.4079,-348.8496"/>
<polygon fill="#191970" stroke="#191970" points="340.7661,-351.4579 346.7067,-342.6852 336.592,-345.8385 340.7661,-351.4579"/>
</g>
<!-- Node91 -->
<g id="node26" class="node">
<title>Node91</title>
<g id="a_node26"><a xlink:href="navier1_8f.html#a04edbb4ba3cfada4513a76a4e65a5561" target="_top" xlink:title="makeuf">
<polygon fill="#ffffff" stroke="#000000" points="436,-114.5 436,-133.5 485,-133.5 485,-114.5 436,-114.5"/>
<text text-anchor="middle" x="460.5" y="-121.5" font-family="Helvetica,sans-Serif" font-size="10.00" fill="#000000">makeuf</text>
</a>
</g>
</g>
<!-- Node90&#45;&gt;Node91 -->
<g id="edge25" class="edge">
<title>Node90&#45;&gt;Node91</title>
<path fill="none" stroke="#191970" d="M380.7851,-171.3307C395.7703,-162.4333 418.2199,-149.1038 435.4804,-138.8554"/>
<polygon fill="#191970" stroke="#191970" points="437.6438,-141.6414 444.4554,-133.5265 434.0699,-135.6224 437.6438,-141.6414"/>
</g>
<!-- Node92 -->
<g id="node27" class="node">
<title>Node92</title>
<g id="a_node27"><a xlink:href="hpf_8f.html#aa74c82c5e339de802f489470b23422a0" target="_top" xlink:title="make_hpf">
<polygon fill="#ffffff" stroke="#000000" points="431,-76.5 431,-95.5 490,-95.5 490,-76.5 431,-76.5"/>
<text text-anchor="middle" x="460.5" y="-83.5" font-family="Helvetica,sans-Serif" font-size="10.00" fill="#000000">make_hpf</text>
</a>
</g>
</g>
<!-- Node90&#45;&gt;Node92 -->
<g id="edge26" class="edge">
<title>Node90&#45;&gt;Node92</title>
<path fill="none" stroke="#191970" d="M382.2933,-171.3148C386.4019,-168.6148 390.5692,-165.4613 394,-162 415.0927,-140.7192 408.7475,-126.1213 430,-105 431.2169,-103.7907 432.5242,-102.6219 433.8886,-101.4989"/>
<polygon fill="#191970" stroke="#191970" points="436.014,-104.2817 442.0935,-95.6047 431.9299,-98.5966 436.014,-104.2817"/>
</g>
<!-- Node93 -->
<g id="node28" class="node">
<title>Node93</title>
<g id="a_node28"><a xlink:href="navier1_8f.html#ae6ed8f0409f034c9d0dff152a3445d90" target="_top" xlink:title="makevis">
<polygon fill="#ffffff" stroke="#000000" points="434,-38.5 434,-57.5 487,-57.5 487,-38.5 434,-38.5"/>
<text text-anchor="middle" x="460.5" y="-45.5" font-family="Helvetica,sans-Serif" font-size="10.00" fill="#000000">makevis</text>
</a>
</g>
</g>
<!-- Node90&#45;&gt;Node93 -->
<g id="edge27" class="edge">
<title>Node90&#45;&gt;Node93</title>
<path fill="none" stroke="#191970" d="M383.4238,-171.367C387.3041,-168.7354 391.0873,-165.5988 394,-162 422.4059,-126.9027 401.3305,-101.8823 430,-67 430.9408,-65.8554 431.9695,-64.7596 433.0618,-63.7134"/>
<polygon fill="#191970" stroke="#191970" points="435.2259,-66.4642 440.9333,-57.538 430.9052,-60.9567 435.2259,-66.4642"/>
</g>
<!-- Node94 -->
<g id="node29" class="node">
<title>Node94</title>
<g id="a_node29"><a xlink:href="navier1_8f.html#a344ec731e4a89d0f136c91bc1963e8d5" target="_top" xlink:title="advab">
<polygon fill="#ffffff" stroke="#000000" points="439,-.5 439,-19.5 482,-19.5 482,-.5 439,-.5"/>
<text text-anchor="middle" x="460.5" y="-7.5" font-family="Helvetica,sans-Serif" font-size="10.00" fill="#000000">advab</text>
</a>
</g>
</g>
<!-- Node90&#45;&gt;Node94 -->
<g id="edge28" class="edge">
<title>Node90&#45;&gt;Node94</title>
<path fill="none" stroke="#191970" d="M383.995,-171.3622C387.7511,-168.7613 391.3388,-165.6387 394,-162 430.151,-112.571 393.4776,-78.1552 430,-29 430.7744,-27.9578 431.6244,-26.9595 432.5327,-26.0048"/>
<polygon fill="#191970" stroke="#191970" points="434.8756,-28.609 440.3469,-19.5362 430.4119,-23.2168 434.8756,-28.609"/>
</g>
<!-- Node95 -->
<g id="node30" class="node">
<title>Node95</title>
<g id="a_node30"><a xlink:href="mvmesh_8f.html#a1b9c194ae1f554f335f3d6c21eacded3" target="_top" xlink:title="admeshv">
<polygon fill="#ffffff" stroke="#000000" points="432.5,-266.5 432.5,-285.5 488.5,-285.5 488.5,-266.5 432.5,-266.5"/>
<text text-anchor="middle" x="460.5" y="-273.5" font-family="Helvetica,sans-Serif" font-size="10.00" fill="#000000">admeshv</text>
</a>
</g>
</g>
<!-- Node90&#45;&gt;Node95 -->
<g id="edge29" class="edge">
<title>Node90&#45;&gt;Node95</title>
<path fill="none" stroke="#191970" d="M371.3528,-190.7058C382.4707,-206.0102 405.6589,-236.1501 430,-257 431.4925,-258.2784 433.0794,-259.5299 434.715,-260.7417"/>
<polygon fill="#191970" stroke="#191970" points="432.8438,-263.7015 443.0862,-266.4112 436.7691,-257.9056 432.8438,-263.7015"/>
</g>
<!-- Node96 -->
<g id="node31" class="node">
<title>Node96</title>
<g id="a_node31"><a xlink:href="navier1_8f.html#ab907b0b4f57c160c86799b03de3cef19" target="_top" xlink:title="makeabf">
<polygon fill="#ffffff" stroke="#000000" points="433.5,-228.5 433.5,-247.5 487.5,-247.5 487.5,-228.5 433.5,-228.5"/>
<text text-anchor="middle" x="460.5" y="-235.5" font-family="Helvetica,sans-Serif" font-size="10.00" fill="#000000">makeabf</text>
</a>
</g>
</g>
<!-- Node90&#45;&gt;Node96 -->
<g id="edge30" class="edge">
<title>Node90&#45;&gt;Node96</title>
<path fill="none" stroke="#191970" d="M380.7851,-190.6693C395.7703,-199.5667 418.2199,-212.8962 435.4804,-223.1446"/>
<polygon fill="#191970" stroke="#191970" points="434.0699,-226.3776 444.4554,-228.4735 437.6438,-220.3586 434.0699,-226.3776"/>
</g>
<!-- Node97 -->
<g id="node32" class="node">
<title>Node97</title>
<g id="a_node32"><a xlink:href="navier1_8f.html#a0510a60155ebc71a3acda4b1e7e507e5" target="_top" xlink:title="makebdf">
<polygon fill="#ffffff" stroke="#000000" points="433.5,-190.5 433.5,-209.5 487.5,-209.5 487.5,-190.5 433.5,-190.5"/>
<text text-anchor="middle" x="460.5" y="-197.5" font-family="Helvetica,sans-Serif" font-size="10.00" fill="#000000">makebdf</text>
</a>
</g>
</g>
<!-- Node90&#45;&gt;Node97 -->
<g id="edge31" class="edge">
<title>Node90&#45;&gt;Node97</title>
<path fill="none" stroke="#191970" d="M386.7656,-185.4067C397.5839,-187.5478 410.8782,-190.179 423.1853,-192.6148"/>
<polygon fill="#191970" stroke="#191970" points="422.7257,-196.0917 433.215,-194.5998 424.0848,-189.2249 422.7257,-196.0917"/>
</g>
<!-- Node98 -->
<g id="node33" class="node">
<title>Node98</title>
<g id="a_node33"><a xlink:href="convect_8f.html#afc0b2ce765c4ad0f0ec6f2a62536bf57" target="_top" xlink:title="advchar">
<polygon fill="#ffffff" stroke="#000000" points="435,-152.5 435,-171.5 486,-171.5 486,-152.5 435,-152.5"/>
<text text-anchor="middle" x="460.5" y="-159.5" font-family="Helvetica,sans-Serif" font-size="10.00" fill="#000000">advchar</text>
</a>
</g>
</g>
<!-- Node90&#45;&gt;Node98 -->
<g id="edge32" class="edge">
<title>Node90&#45;&gt;Node98</title>
<path fill="none" stroke="#191970" d="M386.7656,-176.5933C398.1291,-174.3442 412.2246,-171.5545 425.0381,-169.0185"/>
<polygon fill="#191970" stroke="#191970" points="425.8327,-172.4292 434.9629,-167.0542 424.4736,-165.5624 425.8327,-172.4292"/>
</g>
<!-- Node104&#45;&gt;Node79 -->
<g id="edge40" class="edge">
<title>Node104&#45;&gt;Node79</title>
<path fill="none" stroke="#191970" d="M384.1221,-342.5471C387.8703,-345.1536 391.4226,-348.3015 394,-352 436.1701,-412.5118 400.0729,-446.588 430,-514 434.0038,-523.0188 440.0448,-532.0677 445.6969,-539.5218"/>
<polygon fill="#191970" stroke="#191970" points="443.039,-541.8026 452.0081,-547.4423 448.5136,-537.4403 443.039,-541.8026"/>
</g>
<!-- Node104&#45;&gt;Node85 -->
<g id="edge44" class="edge">
<title>Node104&#45;&gt;Node85</title>
<path fill="none" stroke="#191970" d="M383.4238,-342.633C387.3041,-345.2646 391.0873,-348.4012 394,-352 422.4059,-387.0973 409.7874,-406.6247 430,-447 435.183,-457.3532 442.0173,-468.2931 447.9027,-477.1099"/>
<polygon fill="#191970" stroke="#191970" points="445.049,-479.1374 453.5833,-485.4157 450.827,-475.1857 445.049,-479.1374"/>
</g>
<!-- Node105 -->
<g id="node40" class="node">
<title>Node105</title>
<g id="a_node40"><a xlink:href="comm__mpi_8f.html#af06ec29f06aac3f8809e19de2a7e8946" target="_top" xlink:title="dnekclock">
<polygon fill="#ffffff" stroke="#000000" points="430,-418.5 430,-437.5 491,-437.5 491,-418.5 430,-418.5"/>
<text text-anchor="middle" x="460.5" y="-425.5" font-family="Helvetica,sans-Serif" font-size="10.00" fill="#000000">dnekclock</text>
</a>
</g>
</g>
<!-- Node104&#45;&gt;Node105 -->
<g id="edge39" class="edge">
<title>Node104&#45;&gt;Node105</title>
<path fill="none" stroke="#191970" d="M382.2933,-342.6852C386.4019,-345.3852 390.5692,-348.5387 394,-352 415.0927,-373.2808 408.7475,-387.8787 430,-409 431.2169,-410.2093 432.5242,-411.3781 433.8886,-412.5011"/>
<polygon fill="#191970" stroke="#191970" points="431.9299,-415.4034 442.0935,-418.3953 436.014,-409.7183 431.9299,-415.4034"/>
</g>
<!-- Node106 -->
<g id="node41" class="node">
<title>Node106</title>
<g id="a_node41"><a xlink:href="math_8f.html#a3b43508554f14bdea8e14473d7d0803c" target="_top" xlink:title="copy">
<polygon fill="#ffffff" stroke="#000000" points="441.5,-380.5 441.5,-399.5 479.5,-399.5 479.5,-380.5 441.5,-380.5"/>
<text text-anchor="middle" x="460.5" y="-387.5" font-family="Helvetica,sans-Serif" font-size="10.00" fill="#000000">copy</text>
</a>
</g>
</g>
<!-- Node104&#45;&gt;Node106 -->
<g id="edge41" class="edge">
<title>Node104&#45;&gt;Node106</title>
<path fill="none" stroke="#191970" d="M380.7851,-342.6693C395.7703,-351.5667 418.2199,-364.8962 435.4804,-375.1446"/>
<polygon fill="#191970" stroke="#191970" points="434.0699,-378.3776 444.4554,-380.4735 437.6438,-372.3586 434.0699,-378.3776"/>
</g>
<!-- Node107 -->
<g id="node42" class="node">
<title>Node107</title>
<g id="a_node42"><a xlink:href="math_8f.html#a0fcb0ff151fe3548d0d07961e8365efe" target="_top" xlink:title="invers2">
<polygon fill="#ffffff" stroke="#000000" points="436.5,-342.5 436.5,-361.5 484.5,-361.5 484.5,-342.5 436.5,-342.5"/>
<text text-anchor="middle" x="460.5" y="-349.5" font-family="Helvetica,sans-Serif" font-size="10.00" fill="#000000">invers2</text>
</a>
</g>
</g>
<!-- Node104&#45;&gt;Node107 -->
<g id="edge42" class="edge">
<title>Node104&#45;&gt;Node107</title>
<path fill="none" stroke="#191970" d="M392.5252,-338.5467C403.0102,-340.6218 415.0428,-343.0033 426.0421,-345.1802"/>
<polygon fill="#191970" stroke="#191970" points="425.6977,-348.6799 436.1869,-347.188 427.0568,-341.8131 425.6977,-348.6799"/>
</g>
<!-- Node108 -->
<g id="node43" class="node">
<title>Node108</title>
<g id="a_node43"><a xlink:href="navier1_8f.html#a58af49abaf1ee0cc07be356ad2721d90" target="_top" xlink:title="opdiv">
<polygon fill="#ffffff" stroke="#000000" points="440.5,-304.5 440.5,-323.5 480.5,-323.5 480.5,-304.5 440.5,-304.5"/>
<text text-anchor="middle" x="460.5" y="-311.5" font-family="Helvetica,sans-Serif" font-size="10.00" fill="#000000">opdiv</text>
</a>
</g>
</g>
<!-- Node104&#45;&gt;Node108 -->
<g id="edge43" class="edge">
<title>Node104&#45;&gt;Node108</title>
<path fill="none" stroke="#191970" d="M392.5252,-327.4533C404.3393,-325.1151 418.1182,-322.3881 430.1699,-320.0028"/>
<polygon fill="#191970" stroke="#191970" points="431.0932,-323.3881 440.2234,-318.0131 429.7341,-316.5213 431.0932,-323.3881"/>
</g>
</g>
</svg>
