<?xml version="1.0" encoding="UTF-8" standalone="no"?>
<!DOCTYPE svg PUBLIC "-//W3C//DTD SVG 1.1//EN"
 "http://www.w3.org/Graphics/SVG/1.1/DTD/svg11.dtd">
<!-- Generated by graphviz version 2.43.0 (0)
 -->
<!-- Title: incomprn Pages: 1 -->
<svg width="174pt" height="598pt"
 viewBox="0.00 0.00 174.00 598.00" xmlns="http://www.w3.org/2000/svg" xmlns:xlink="http://www.w3.org/1999/xlink">
<g id="graph0" class="graph" transform="scale(1 1) rotate(0) translate(4 594)">
<title>incomprn</title>
<polygon fill="white" stroke="transparent" points="-4,4 -4,-594 170,-594 170,4 -4,4"/>
<!-- Node1 -->
<g id="node1" class="node">
<title>Node1</title>
<g id="a_node1"><a xlink:title="Project U onto the closest incompressible field.">
<polygon fill="#bfbfbf" stroke="black" points="0,-285.5 0,-304.5 62,-304.5 62,-285.5 0,-285.5"/>
<text text-anchor="middle" x="31" y="-292.5" font-family="Helvetica,sans-Serif" font-size="10.00">incomprn</text>
</a>
</g>
</g>
<!-- Node2 -->
<g id="node2" class="node">
<title>Node2</title>
<g id="a_node2"><a xlink:href="math_8f.html#a30b83d516b6ab162d3fafe73e03a3e92" target="_top" xlink:title=" ">
<polygon fill="white" stroke="black" points="111.5,-570.5 111.5,-589.5 152.5,-589.5 152.5,-570.5 111.5,-570.5"/>
<text text-anchor="middle" x="132" y="-577.5" font-family="Helvetica,sans-Serif" font-size="10.00">add2</text>
</a>
</g>
</g>
<!-- Node1&#45;&gt;Node2 -->
<g id="edge1" class="edge">
<title>Node1&#45;&gt;Node2</title>
<path fill="none" stroke="midnightblue" d="M31.81,-304.59C31.55,-341.66 35.14,-477.59 98,-561 99.39,-562.84 101.02,-564.54 102.79,-566.09"/>
<polygon fill="midnightblue" stroke="midnightblue" points="101,-569.12 111.2,-572 105.03,-563.39 101,-569.12"/>
</g>
<!-- Node3 -->
<g id="node3" class="node">
<title>Node3</title>
<g id="a_node3"><a xlink:href="math_8f.html#a1c8c804ea900711911c4c33fe1f5b184" target="_top" xlink:title=" ">
<polygon fill="white" stroke="black" points="101.5,-532.5 101.5,-551.5 162.5,-551.5 162.5,-532.5 101.5,-532.5"/>
<text text-anchor="middle" x="132" y="-539.5" font-family="Helvetica,sans-Serif" font-size="10.00">add2col2</text>
</a>
</g>
</g>
<!-- Node1&#45;&gt;Node3 -->
<g id="edge2" class="edge">
<title>Node1&#45;&gt;Node3</title>
<path fill="none" stroke="midnightblue" d="M32.31,-304.83C33.85,-338.8 43.07,-452.96 98,-523 98.92,-524.17 99.93,-525.28 101.01,-526.34"/>
<polygon fill="midnightblue" stroke="midnightblue" points="98.87,-529.1 108.92,-532.47 103.16,-523.57 98.87,-529.1"/>
</g>
<!-- Node4 -->
<g id="node4" class="node">
<title>Node4</title>
<g id="a_node4"><a xlink:href="navier4_8f.html#a43f20a275a318725bfdf9e8eaa0839fa" target="_top" xlink:title=" ">
<polygon fill="white" stroke="black" points="105.5,-494.5 105.5,-513.5 158.5,-513.5 158.5,-494.5 105.5,-494.5"/>
<text text-anchor="middle" x="132" y="-501.5" font-family="Helvetica,sans-Serif" font-size="10.00">chkptol</text>
</a>
</g>
</g>
<!-- Node1&#45;&gt;Node4 -->
<g id="edge3" class="edge">
<title>Node1&#45;&gt;Node4</title>
<path fill="none" stroke="midnightblue" d="M33,-304.85C36.51,-335.1 50.8,-427.97 98,-485 98.95,-486.15 99.98,-487.24 101.09,-488.27"/>
<polygon fill="midnightblue" stroke="midnightblue" points="98.99,-491.08 109.07,-494.35 103.23,-485.51 98.99,-491.08"/>
</g>
<!-- Node5 -->
<g id="node5" class="node">
<title>Node5</title>
<g id="a_node5"><a xlink:href="math_8f.html#ad2b51b68d370651f4f6d81952503e7be" target="_top" xlink:title=" ">
<polygon fill="white" stroke="black" points="110,-456.5 110,-475.5 154,-475.5 154,-456.5 110,-456.5"/>
<text text-anchor="middle" x="132" y="-463.5" font-family="Helvetica,sans-Serif" font-size="10.00">cmult</text>
</a>
</g>
</g>
<!-- Node1&#45;&gt;Node5 -->
<g id="edge4" class="edge">
<title>Node1&#45;&gt;Node5</title>
<path fill="none" stroke="midnightblue" d="M33.97,-304.69C39.66,-330.62 58.33,-402.58 98,-447 99.15,-448.29 100.41,-449.51 101.74,-450.67"/>
<polygon fill="midnightblue" stroke="midnightblue" points="99.8,-453.58 109.96,-456.59 103.89,-447.9 99.8,-453.58"/>
</g>
<!-- Node6 -->
<g id="node6" class="node">
<title>Node6</title>
<g id="a_node6"><a xlink:href="math_8f.html#a3b43508554f14bdea8e14473d7d0803c" target="_top" xlink:title=" ">
<polygon fill="white" stroke="black" points="112,-418.5 112,-437.5 152,-437.5 152,-418.5 112,-418.5"/>
<text text-anchor="middle" x="132" y="-425.5" font-family="Helvetica,sans-Serif" font-size="10.00">copy</text>
</a>
</g>
</g>
<!-- Node1&#45;&gt;Node6 -->
<g id="edge5" class="edge">
<title>Node1&#45;&gt;Node6</title>
<path fill="none" stroke="midnightblue" d="M35.57,-304.66C43.77,-325.8 65.78,-376.86 98,-409 99.64,-410.63 101.44,-412.17 103.33,-413.61"/>
<polygon fill="midnightblue" stroke="midnightblue" points="101.72,-416.74 112,-419.3 105.56,-410.89 101.72,-416.74"/>
</g>
<!-- Node7 -->
<g id="node7" class="node">
<title>Node7</title>
<g id="a_node7"><a xlink:href="comm__mpi_8f.html#af06ec29f06aac3f8809e19de2a7e8946" target="_top" xlink:title=" ">
<polygon fill="white" stroke="black" points="99,-380.5 99,-399.5 165,-399.5 165,-380.5 99,-380.5"/>
<text text-anchor="middle" x="132" y="-387.5" font-family="Helvetica,sans-Serif" font-size="10.00">dnekclock</text>
</a>
</g>
</g>
<!-- Node1&#45;&gt;Node7 -->
<g id="edge6" class="edge">
<title>Node1&#45;&gt;Node7</title>
<path fill="none" stroke="midnightblue" d="M38.84,-304.8C49.94,-320.24 73.18,-350.56 98,-371 99.57,-372.29 101.24,-373.55 102.96,-374.76"/>
<polygon fill="midnightblue" stroke="midnightblue" points="101.47,-377.96 111.79,-380.38 105.23,-372.05 101.47,-377.96"/>
</g>
<!-- Node8 -->
<g id="node8" class="node">
<title>Node8</title>
<g id="a_node8"><a xlink:href="navier0_8f.html#aaba079db7e38db9800deef09526370ec" target="_top" xlink:title=" ">
<polygon fill="white" stroke="black" points="105.5,-342.5 105.5,-361.5 158.5,-361.5 158.5,-342.5 105.5,-342.5"/>
<text text-anchor="middle" x="132" y="-349.5" font-family="Helvetica,sans-Serif" font-size="10.00">esolver</text>
</a>
</g>
</g>
<!-- Node1&#45;&gt;Node8 -->
<g id="edge7" class="edge">
<title>Node1&#45;&gt;Node8</title>
<path fill="none" stroke="midnightblue" d="M48.79,-304.67C64.39,-313.65 87.83,-327.14 105.69,-337.43"/>
<polygon fill="midnightblue" stroke="midnightblue" points="104.04,-340.52 114.45,-342.47 107.53,-334.45 104.04,-340.52"/>
</g>
<!-- Node9 -->
<g id="node9" class="node">
<title>Node9</title>
<g id="a_node9"><a xlink:href="induct_8f.html#a92d19447dae1fa7af20c94dbf1c09992" target="_top" xlink:title=" ">
<polygon fill="white" stroke="black" points="101.5,-304.5 101.5,-323.5 162.5,-323.5 162.5,-304.5 101.5,-304.5"/>
<text text-anchor="middle" x="132" y="-311.5" font-family="Helvetica,sans-Serif" font-size="10.00">gensolnp</text>
</a>
</g>
</g>
<!-- Node1&#45;&gt;Node9 -->
<g id="edge8" class="edge">
<title>Node1&#45;&gt;Node9</title>
<path fill="none" stroke="midnightblue" d="M62.24,-300.8C71.44,-302.57 81.69,-304.54 91.41,-306.4"/>
<polygon fill="midnightblue" stroke="midnightblue" points="90.8,-309.85 101.28,-308.3 92.12,-302.97 90.8,-309.85"/>
</g>
<!-- Node10 -->
<g id="node10" class="node">
<title>Node10</title>
<g id="a_node10"><a xlink:href="math_8f.html#a0fcb0ff151fe3548d0d07961e8365efe" target="_top" xlink:title=" ">
<polygon fill="white" stroke="black" points="105.5,-266.5 105.5,-285.5 158.5,-285.5 158.5,-266.5 105.5,-266.5"/>
<text text-anchor="middle" x="132" y="-273.5" font-family="Helvetica,sans-Serif" font-size="10.00">invers2</text>
</a>
</g>
</g>
<!-- Node1&#45;&gt;Node10 -->
<g id="edge9" class="edge">
<title>Node1&#45;&gt;Node10</title>
<path fill="none" stroke="midnightblue" d="M62.24,-289.2C72.67,-287.19 84.45,-284.93 95.27,-282.86"/>
<polygon fill="midnightblue" stroke="midnightblue" points="96.12,-286.26 105.28,-280.94 94.8,-279.38 96.12,-286.26"/>
</g>
<!-- Node11 -->
<g id="node11" class="node">
<title>Node11</title>
<g id="a_node11"><a xlink:href="plan4_8f.html#a8cde16ca4292836a681d1021ada2dc28" target="_top" xlink:title=" ">
<polygon fill="white" stroke="black" points="98,-228.5 98,-247.5 166,-247.5 166,-228.5 98,-228.5"/>
<text text-anchor="middle" x="132" y="-235.5" font-family="Helvetica,sans-Serif" font-size="10.00">opadd2cm</text>
</a>
</g>
</g>
<!-- Node1&#45;&gt;Node11 -->
<g id="edge10" class="edge">
<title>Node1&#45;&gt;Node11</title>
<path fill="none" stroke="midnightblue" d="M48.79,-285.33C64.39,-276.35 87.83,-262.86 105.69,-252.57"/>
<polygon fill="midnightblue" stroke="midnightblue" points="107.53,-255.55 114.45,-247.53 104.04,-249.48 107.53,-255.55"/>
</g>
<!-- Node12 -->
<g id="node12" class="node">
<title>Node12</title>
<g id="a_node12"><a xlink:href="navier1_8f.html#a4d7a006ce8ef086e842bc09f74169951" target="_top" xlink:title=" ">
<polygon fill="white" stroke="black" points="107,-190.5 107,-209.5 157,-209.5 157,-190.5 107,-190.5"/>
<text text-anchor="middle" x="132" y="-197.5" font-family="Helvetica,sans-Serif" font-size="10.00">opbinv</text>
</a>
</g>
</g>
<!-- Node1&#45;&gt;Node12 -->
<g id="edge11" class="edge">
<title>Node1&#45;&gt;Node12</title>
<path fill="none" stroke="midnightblue" d="M38.84,-285.2C49.94,-269.76 73.18,-239.44 98,-219 99.57,-217.71 101.24,-216.45 102.96,-215.24"/>
<polygon fill="midnightblue" stroke="midnightblue" points="105.23,-217.95 111.79,-209.62 101.47,-212.04 105.23,-217.95"/>
</g>
<!-- Node13 -->
<g id="node13" class="node">
<title>Node13</title>
<g id="a_node13"><a xlink:href="navier1_8f.html#a58af49abaf1ee0cc07be356ad2721d90" target="_top" xlink:title=" ">
<polygon fill="white" stroke="black" points="110,-152.5 110,-171.5 154,-171.5 154,-152.5 110,-152.5"/>
<text text-anchor="middle" x="132" y="-159.5" font-family="Helvetica,sans-Serif" font-size="10.00">opdiv</text>
</a>
</g>
</g>
<!-- Node1&#45;&gt;Node13 -->
<g id="edge12" class="edge">
<title>Node1&#45;&gt;Node13</title>
<path fill="none" stroke="midnightblue" d="M35.57,-285.34C43.77,-264.2 65.78,-213.14 98,-181 99.25,-179.75 100.61,-178.55 102.03,-177.41"/>
<polygon fill="midnightblue" stroke="midnightblue" points="104.36,-180.05 110.62,-171.5 100.4,-174.28 104.36,-180.05"/>
</g>
<!-- Node14 -->
<g id="node14" class="node">
<title>Node14</title>
<g id="a_node14"><a xlink:href="navier1_8f.html#a0319e77dcb754cfe343f5e1e0a54f8dd" target="_top" xlink:title=" ">
<polygon fill="white" stroke="black" points="105,-114.5 105,-133.5 159,-133.5 159,-114.5 105,-114.5"/>
<text text-anchor="middle" x="132" y="-121.5" font-family="Helvetica,sans-Serif" font-size="10.00">opgradt</text>
</a>
</g>
</g>
<!-- Node1&#45;&gt;Node14 -->
<g id="edge13" class="edge">
<title>Node1&#45;&gt;Node14</title>
<path fill="none" stroke="midnightblue" d="M33.97,-285.31C39.66,-259.38 58.33,-187.42 98,-143 99.02,-141.86 100.12,-140.77 101.29,-139.73"/>
<polygon fill="midnightblue" stroke="midnightblue" points="103.62,-142.36 109.62,-133.62 99.49,-136.71 103.62,-142.36"/>
</g>
<!-- Node15 -->
<g id="node15" class="node">
<title>Node15</title>
<g id="a_node15"><a xlink:href="navier1_8f.html#a4905d51f51b57bfec184a6b44f858bdb" target="_top" xlink:title=" ">
<polygon fill="white" stroke="black" points="111,-76.5 111,-95.5 153,-95.5 153,-76.5 111,-76.5"/>
<text text-anchor="middle" x="132" y="-83.5" font-family="Helvetica,sans-Serif" font-size="10.00">ortho</text>
</a>
</g>
</g>
<!-- Node1&#45;&gt;Node15 -->
<g id="edge14" class="edge">
<title>Node1&#45;&gt;Node15</title>
<path fill="none" stroke="midnightblue" d="M33,-285.15C36.51,-254.9 50.8,-162.03 98,-105 99.3,-103.43 100.76,-101.97 102.32,-100.61"/>
<polygon fill="midnightblue" stroke="midnightblue" points="104.64,-103.25 110.78,-94.61 100.6,-97.54 104.64,-103.25"/>
</g>
<!-- Node16 -->
<g id="node16" class="node">
<title>Node16</title>
<g id="a_node16"><a xlink:href="math_8f.html#af44de42b023a4a68cd98ea341204342d" target="_top" xlink:title=" ">
<polygon fill="white" stroke="black" points="111.5,-38.5 111.5,-57.5 152.5,-57.5 152.5,-38.5 111.5,-38.5"/>
<text text-anchor="middle" x="132" y="-45.5" font-family="Helvetica,sans-Serif" font-size="10.00">rzero</text>
</a>
</g>
</g>
<!-- Node1&#45;&gt;Node16 -->
<g id="edge15" class="edge">
<title>Node1&#45;&gt;Node16</title>
<path fill="none" stroke="midnightblue" d="M32.31,-285.17C33.85,-251.2 43.07,-137.04 98,-67 99.43,-65.18 101.08,-63.51 102.86,-61.97"/>
<polygon fill="midnightblue" stroke="midnightblue" points="105.1,-64.68 111.31,-56.09 101.1,-58.93 105.1,-64.68"/>
</g>
<!-- Node17 -->
<g id="node17" class="node">
<title>Node17</title>
<g id="a_node17"><a xlink:href="induct_8f.html#a85f2bbdd91096e0df0353ebd6968b71d" target="_top" xlink:title=" ">
<polygon fill="white" stroke="black" points="105.5,-0.5 105.5,-19.5 158.5,-19.5 158.5,-0.5 105.5,-0.5"/>
<text text-anchor="middle" x="132" y="-7.5" font-family="Helvetica,sans-Serif" font-size="10.00">setrhsp</text>
</a>
</g>
</g>
<!-- Node1&#45;&gt;Node17 -->
<g id="edge16" class="edge">
<title>Node1&#45;&gt;Node17</title>
<path fill="none" stroke="midnightblue" d="M31.81,-285.41C31.55,-248.34 35.14,-112.41 98,-29 98.78,-27.96 99.64,-26.97 100.56,-26.02"/>
<polygon fill="midnightblue" stroke="midnightblue" points="102.87,-28.66 108.46,-19.66 98.48,-23.2 102.87,-28.66"/>
</g>
</g>
</svg>
