<?xml version="1.0" encoding="UTF-8" standalone="no"?>
<!DOCTYPE svg PUBLIC "-//W3C//DTD SVG 1.1//EN"
 "http://www.w3.org/Graphics/SVG/1.1/DTD/svg11.dtd">
<!-- Generated by graphviz version 2.43.0 (0)
 -->
<!-- Title: userchk Pages: 1 -->
<svg width="644pt" height="503pt"
 viewBox="0.00 0.00 644.00 503.00" xmlns="http://www.w3.org/2000/svg" xmlns:xlink="http://www.w3.org/1999/xlink">
<g id="graph0" class="graph" transform="scale(1 1) rotate(0) translate(4 499)">
<title>userchk</title>
<polygon fill="white" stroke="transparent" points="-4,4 -4,-499 640,-499 640,4 -4,4"/>
<!-- Node1 -->
<g id="node1" class="node">
<title>Node1</title>
<g id="a_node1"><a xlink:title="Compute the turbulent stress tensors and write statistics.">
<polygon fill="#bfbfbf" stroke="black" points="0,-209.5 0,-228.5 55,-228.5 55,-209.5 0,-209.5"/>
<text text-anchor="middle" x="27.5" y="-216.5" font-family="Helvetica,sans-Serif" font-size="10.00">userchk</text>
</a>
</g>
</g>
<!-- Node2 -->
<g id="node2" class="node">
<title>Node2</title>
<g id="a_node2"><a xlink:href="group__framework.html#gabfa9321d0e78857e5fafb7bada7c3ae3" target="_top" xlink:title="Check for nan or infinity.">
<polygon fill="white" stroke="black" points="92.5,-418.5 92.5,-437.5 178.5,-437.5 178.5,-418.5 92.5,-418.5"/>
<text text-anchor="middle" x="135.5" y="-425.5" font-family="Helvetica,sans-Serif" font-size="10.00">bounds_check</text>
</a>
</g>
</g>
<!-- Node1&#45;&gt;Node2 -->
<g id="edge1" class="edge">
<title>Node1&#45;&gt;Node2</title>
<path fill="none" stroke="midnightblue" d="M28.98,-228.65C31.01,-259.09 41.21,-354.3 91,-409 92.18,-410.3 93.47,-411.51 94.83,-412.65"/>
<polygon fill="midnightblue" stroke="midnightblue" points="93.08,-415.68 103.34,-418.31 96.96,-409.86 93.08,-415.68"/>
</g>
<!-- Node3 -->
<g id="node3" class="node">
<title>Node3</title>
<g id="a_node3"><a xlink:href="group__chkpoint.html#ga2d682999600b8303ea7c4850cb54c9ca" target="_top" xlink:title="Main checkpoint interface.">
<polygon fill="white" stroke="black" points="98.5,-380.5 98.5,-399.5 172.5,-399.5 172.5,-380.5 98.5,-380.5"/>
<text text-anchor="middle" x="135.5" y="-387.5" font-family="Helvetica,sans-Serif" font-size="10.00">chkpt_main</text>
</a>
</g>
</g>
<!-- Node1&#45;&gt;Node3 -->
<g id="edge2" class="edge">
<title>Node1&#45;&gt;Node3</title>
<path fill="none" stroke="midnightblue" d="M30.34,-228.78C35.58,-254.25 52.72,-323.6 91,-366 94.07,-369.41 97.75,-372.43 101.64,-375.09"/>
<polygon fill="midnightblue" stroke="midnightblue" points="99.99,-378.18 110.36,-380.32 103.59,-372.18 99.99,-378.18"/>
</g>
<!-- Node4 -->
<g id="node4" class="node">
<title>Node4</title>
<g id="a_node4"><a xlink:href="math_8f.html#a3b43508554f14bdea8e14473d7d0803c" target="_top" xlink:title=" ">
<polygon fill="white" stroke="black" points="246,-475.5 246,-494.5 286,-494.5 286,-475.5 246,-475.5"/>
<text text-anchor="middle" x="266" y="-482.5" font-family="Helvetica,sans-Serif" font-size="10.00">copy</text>
</a>
</g>
</g>
<!-- Node1&#45;&gt;Node4 -->
<g id="edge3" class="edge">
<title>Node1&#45;&gt;Node4</title>
<path fill="none" stroke="midnightblue" d="M31.36,-228.63C38.22,-250.16 57.56,-302.68 91,-333 122.87,-361.89 150.22,-339.97 180,-371 211.26,-403.58 184.2,-433.95 216,-466 221.48,-471.52 228.74,-475.47 235.99,-478.29"/>
<polygon fill="midnightblue" stroke="midnightblue" points="235.12,-481.68 245.71,-481.46 237.29,-475.03 235.12,-481.68"/>
</g>
<!-- Node5 -->
<g id="node5" class="node">
<title>Node5</title>
<g id="a_node5"><a xlink:href="dyn__smag_8f.html#aaf0f4048a4e81a838bf903f040cf2db1" target="_top" xlink:title="Compute eddy viscosity using dynamic smagorinsky model.">
<polygon fill="white" stroke="black" points="103,-304.5 103,-323.5 168,-323.5 168,-304.5 103,-304.5"/>
<text text-anchor="middle" x="135.5" y="-311.5" font-family="Helvetica,sans-Serif" font-size="10.00">eddy_visc</text>
</a>
</g>
</g>
<!-- Node1&#45;&gt;Node5 -->
<g id="edge4" class="edge">
<title>Node1&#45;&gt;Node5</title>
<path fill="none" stroke="midnightblue" d="M34.28,-228.64C44.14,-244.4 65.65,-275.84 91,-295 93.28,-296.72 95.74,-298.33 98.29,-299.82"/>
<polygon fill="midnightblue" stroke="midnightblue" points="96.69,-302.93 107.18,-304.42 99.91,-296.71 96.69,-302.93"/>
</g>
<!-- Node33 -->
<g id="node33" class="node">
<title>Node33</title>
<g id="a_node33"><a xlink:href="frame_8f.html#a81cd9de9df55590aae9e54090dd1a3ce" target="_top" xlink:title="Finalise framework.">
<polygon fill="white" stroke="black" points="101,-266.5 101,-285.5 170,-285.5 170,-266.5 101,-266.5"/>
<text text-anchor="middle" x="135.5" y="-273.5" font-family="Helvetica,sans-Serif" font-size="10.00">frame_end</text>
</a>
</g>
</g>
<!-- Node1&#45;&gt;Node33 -->
<g id="edge38" class="edge">
<title>Node1&#45;&gt;Node33</title>
<path fill="none" stroke="midnightblue" d="M43.08,-228.63C55.54,-236.68 74.1,-248.22 91,-257 94.34,-258.74 97.88,-260.46 101.43,-262.11"/>
<polygon fill="midnightblue" stroke="midnightblue" points="100.19,-265.4 110.75,-266.31 103.07,-259.01 100.19,-265.4"/>
</g>
<!-- Node34 -->
<g id="node34" class="node">
<title>Node34</title>
<g id="a_node34"><a xlink:href="frame_8f.html#a3100879c73f67d2e4449da55049c8eae" target="_top" xlink:title="Simulataion monitoring.">
<polygon fill="white" stroke="black" points="91,-228.5 91,-247.5 180,-247.5 180,-228.5 91,-228.5"/>
<text text-anchor="middle" x="135.5" y="-235.5" font-family="Helvetica,sans-Serif" font-size="10.00">frame_monitor</text>
</a>
</g>
</g>
<!-- Node1&#45;&gt;Node34 -->
<g id="edge39" class="edge">
<title>Node1&#45;&gt;Node34</title>
<path fill="none" stroke="midnightblue" d="M55.25,-223.79C63.09,-225.2 71.96,-226.79 80.85,-228.38"/>
<polygon fill="midnightblue" stroke="midnightblue" points="80.39,-231.86 90.85,-230.18 81.62,-224.97 80.39,-231.86"/>
</g>
<!-- Node35 -->
<g id="node35" class="node">
<title>Node35</title>
<g id="a_node35"><a xlink:href="frame_8f.html#a3b2fa5ca96c4d901949ed15b9e1e459c" target="_top" xlink:title="Start framework.">
<polygon fill="white" stroke="black" points="98.5,-190.5 98.5,-209.5 172.5,-209.5 172.5,-190.5 98.5,-190.5"/>
<text text-anchor="middle" x="135.5" y="-197.5" font-family="Helvetica,sans-Serif" font-size="10.00">frame_start</text>
</a>
</g>
</g>
<!-- Node1&#45;&gt;Node35 -->
<g id="edge40" class="edge">
<title>Node1&#45;&gt;Node35</title>
<path fill="none" stroke="midnightblue" d="M55.25,-214.21C65.2,-212.42 76.81,-210.34 88.02,-208.33"/>
<polygon fill="midnightblue" stroke="midnightblue" points="88.93,-211.72 98.15,-206.52 87.69,-204.83 88.93,-211.72"/>
</g>
<!-- Node36 -->
<g id="node36" class="node">
<title>Node36</title>
<g id="a_node36"><a xlink:href="navier5_8f.html#aef718c6a74c3602cfcd7871434619ee5" target="_top" xlink:title=" ">
<polygon fill="white" stroke="black" points="108.5,-152.5 108.5,-171.5 162.5,-171.5 162.5,-152.5 108.5,-152.5"/>
<text text-anchor="middle" x="135.5" y="-159.5" font-family="Helvetica,sans-Serif" font-size="10.00">gradm1</text>
</a>
</g>
</g>
<!-- Node1&#45;&gt;Node36 -->
<g id="edge41" class="edge">
<title>Node1&#45;&gt;Node36</title>
<path fill="none" stroke="midnightblue" d="M43.08,-209.37C55.54,-201.32 74.1,-189.78 91,-181 94.34,-179.26 97.88,-177.54 101.43,-175.89"/>
<polygon fill="midnightblue" stroke="midnightblue" points="103.07,-178.99 110.75,-171.69 100.19,-172.6 103.07,-178.99"/>
</g>
<!-- Node37 -->
<g id="node37" class="node">
<title>Node37</title>
<g id="a_node37"><a xlink:href="prepost_8f.html#aacb528c0b28bc79dff8db48d7ae9ac64" target="_top" xlink:title=" ">
<polygon fill="white" stroke="black" points="109,-114.5 109,-133.5 162,-133.5 162,-114.5 109,-114.5"/>
<text text-anchor="middle" x="135.5" y="-121.5" font-family="Helvetica,sans-Serif" font-size="10.00">outpost</text>
</a>
</g>
</g>
<!-- Node1&#45;&gt;Node37 -->
<g id="edge42" class="edge">
<title>Node1&#45;&gt;Node37</title>
<path fill="none" stroke="midnightblue" d="M34.28,-209.36C44.14,-193.6 65.65,-162.16 91,-143 93.63,-141.01 96.5,-139.18 99.47,-137.51"/>
<polygon fill="midnightblue" stroke="midnightblue" points="101.18,-140.57 108.55,-132.96 98.04,-134.31 101.18,-140.57"/>
</g>
<!-- Node38 -->
<g id="node38" class="node">
<title>Node38</title>
<g id="a_node38"><a xlink:href="group__penalty__mini.html#gaad698038b43804d17a718e007d0dd8a9" target="_top" xlink:title="Update penalty.">
<polygon fill="white" stroke="black" points="98.5,-76.5 98.5,-95.5 172.5,-95.5 172.5,-76.5 98.5,-76.5"/>
<text text-anchor="middle" x="135.5" y="-83.5" font-family="Helvetica,sans-Serif" font-size="10.00">pen_update</text>
</a>
</g>
</g>
<!-- Node1&#45;&gt;Node38 -->
<g id="edge43" class="edge">
<title>Node1&#45;&gt;Node38</title>
<path fill="none" stroke="midnightblue" d="M31.38,-209.39C38.28,-187.91 57.68,-135.46 91,-105 92.68,-103.46 94.5,-102.04 96.42,-100.72"/>
<polygon fill="midnightblue" stroke="midnightblue" points="98.38,-103.63 105.27,-95.57 94.86,-97.57 98.38,-103.63"/>
</g>
<!-- Node39 -->
<g id="node39" class="node">
<title>Node39</title>
<g id="a_node39"><a xlink:href="group__framework.html#gad7bf1bb6172cfe21bceaf5b288b6de10" target="_top" xlink:title="Calculate spatial averaged quantities and write it into a text file.">
<polygon fill="white" stroke="black" points="91.5,-38.5 91.5,-57.5 179.5,-57.5 179.5,-38.5 91.5,-38.5"/>
<text text-anchor="middle" x="135.5" y="-45.5" font-family="Helvetica,sans-Serif" font-size="10.00">spatial_means</text>
</a>
</g>
</g>
<!-- Node1&#45;&gt;Node39 -->
<g id="edge44" class="edge">
<title>Node1&#45;&gt;Node39</title>
<path fill="none" stroke="midnightblue" d="M29.89,-209.45C34.17,-183.25 49.49,-109.42 91,-67 92.38,-65.59 93.89,-64.27 95.48,-63.05"/>
<polygon fill="midnightblue" stroke="midnightblue" points="97.43,-65.96 104.02,-57.67 93.69,-60.04 97.43,-65.96"/>
</g>
<!-- Node40 -->
<g id="node40" class="node">
<title>Node40</title>
<g id="a_node40"><a xlink:href="group__stat.html#ga16cd0d213c2bea15c7caf8c205241388" target="_top" xlink:title="Main interface of statistics module.">
<polygon fill="white" stroke="black" points="106,-0.5 106,-19.5 165,-19.5 165,-0.5 106,-0.5"/>
<text text-anchor="middle" x="135.5" y="-7.5" font-family="Helvetica,sans-Serif" font-size="10.00">stat_avg</text>
</a>
</g>
</g>
<!-- Node1&#45;&gt;Node40 -->
<g id="edge45" class="edge">
<title>Node1&#45;&gt;Node40</title>
<path fill="none" stroke="midnightblue" d="M28.98,-209.35C31.01,-178.91 41.21,-83.7 91,-29 92.75,-27.08 94.72,-25.35 96.85,-23.78"/>
<polygon fill="midnightblue" stroke="midnightblue" points="98.81,-26.68 105.58,-18.54 95.2,-20.68 98.81,-26.68"/>
</g>
<!-- Node5&#45;&gt;Node4 -->
<g id="edge28" class="edge">
<title>Node5&#45;&gt;Node4</title>
<path fill="none" stroke="midnightblue" d="M161.57,-323.51C168.37,-327.15 175.18,-331.92 180,-338 216.72,-384.31 176.26,-422.26 216,-466 221.38,-471.92 228.81,-476.01 236.27,-478.83"/>
<polygon fill="midnightblue" stroke="midnightblue" points="235.32,-482.2 245.91,-481.86 237.41,-475.52 235.32,-482.2"/>
</g>
<!-- Node6 -->
<g id="node6" class="node">
<title>Node6</title>
<g id="a_node6"><a xlink:href="math_8f.html#ad2b51b68d370651f4f6d81952503e7be" target="_top" xlink:title=" ">
<polygon fill="white" stroke="black" points="373.5,-323.5 373.5,-342.5 417.5,-342.5 417.5,-323.5 373.5,-323.5"/>
<text text-anchor="middle" x="395.5" y="-330.5" font-family="Helvetica,sans-Serif" font-size="10.00">cmult</text>
</a>
</g>
</g>
<!-- Node5&#45;&gt;Node6 -->
<g id="edge5" class="edge">
<title>Node5&#45;&gt;Node6</title>
<path fill="none" stroke="midnightblue" d="M168.14,-316.33C217.9,-319.99 313.89,-327.06 363.36,-330.71"/>
<polygon fill="midnightblue" stroke="midnightblue" points="363.23,-334.21 373.46,-331.45 363.74,-327.23 363.23,-334.21"/>
</g>
<!-- Node7 -->
<g id="node7" class="node">
<title>Node7</title>
<g id="a_node7"><a xlink:href="group__postpro.html#ga2282f2912315313d8c35cfd37389c7f3" target="_top" xlink:title="Compute the gradient tensor G_ij := du_i/du_j, for element e.">
<polygon fill="white" stroke="black" points="232.5,-142.5 232.5,-161.5 299.5,-161.5 299.5,-142.5 232.5,-142.5"/>
<text text-anchor="middle" x="266" y="-149.5" font-family="Helvetica,sans-Serif" font-size="10.00">comp_gije</text>
</a>
</g>
</g>
<!-- Node5&#45;&gt;Node7 -->
<g id="edge6" class="edge">
<title>Node5&#45;&gt;Node7</title>
<path fill="none" stroke="midnightblue" d="M167.12,-304.47C171.88,-301.96 176.4,-298.85 180,-295 212.28,-260.51 189.4,-234.04 216,-195 223.03,-184.69 233.09,-175.28 242.27,-167.92"/>
<polygon fill="midnightblue" stroke="midnightblue" points="244.51,-170.6 250.34,-161.76 240.27,-165.04 244.51,-170.6"/>
</g>
<!-- Node18 -->
<g id="node18" class="node">
<title>Node18</title>
<g id="a_node18"><a xlink:href="dyn__smag_8f.html#a7010f3628067a6e1db2ecd29852f3031" target="_top" xlink:title="Compute &#160;for dynamic Smagorinsky model:">
<polygon fill="white" stroke="black" points="237,-247.5 237,-266.5 295,-266.5 295,-247.5 237,-247.5"/>
<text text-anchor="middle" x="266" y="-254.5" font-family="Helvetica,sans-Serif" font-size="10.00">comp_lij</text>
</a>
</g>
</g>
<!-- Node5&#45;&gt;Node18 -->
<g id="edge18" class="edge">
<title>Node5&#45;&gt;Node18</title>
<path fill="none" stroke="midnightblue" d="M159.22,-304.45C165.96,-301.52 173.32,-298.22 180,-295 196.3,-287.15 199.54,-283.51 216,-276 220.22,-274.07 224.7,-272.16 229.17,-270.34"/>
<polygon fill="midnightblue" stroke="midnightblue" points="230.83,-273.45 238.83,-266.5 228.24,-266.94 230.83,-273.45"/>
</g>
<!-- Node22 -->
<g id="node22" class="node">
<title>Node22</title>
<g id="a_node22"><a xlink:href="dyn__smag_8f.html#ab22253a8777b36796e27d454d220ca8c" target="_top" xlink:title="Compute &#160;for dynamic Smagorinsky model:">
<polygon fill="white" stroke="black" points="233.5,-285.5 233.5,-304.5 298.5,-304.5 298.5,-285.5 233.5,-285.5"/>
<text text-anchor="middle" x="266" y="-292.5" font-family="Helvetica,sans-Serif" font-size="10.00">comp_mij</text>
</a>
</g>
</g>
<!-- Node5&#45;&gt;Node22 -->
<g id="edge22" class="edge">
<title>Node5&#45;&gt;Node22</title>
<path fill="none" stroke="midnightblue" d="M168.26,-309.3C184.79,-306.86 205.21,-303.84 223.02,-301.21"/>
<polygon fill="midnightblue" stroke="midnightblue" points="223.78,-304.63 233.16,-299.71 222.75,-297.71 223.78,-304.63"/>
</g>
<!-- Node23 -->
<g id="node23" class="node">
<title>Node23</title>
<g id="a_node23"><a xlink:href="postpro_8f.html#af9d2aff92c48c37b10261e543b5f18fb" target="_top" xlink:title=" ">
<polygon fill="white" stroke="black" points="352.5,-171.5 352.5,-190.5 438.5,-190.5 438.5,-171.5 352.5,-171.5"/>
<text text-anchor="middle" x="395.5" y="-178.5" font-family="Helvetica,sans-Serif" font-size="10.00">mag_tensor_e</text>
</a>
</g>
</g>
<!-- Node5&#45;&gt;Node23 -->
<g id="edge31" class="edge">
<title>Node5&#45;&gt;Node23</title>
<path fill="none" stroke="midnightblue" d="M165.09,-304.44C170.39,-301.88 175.62,-298.76 180,-295 202.73,-275.48 192.3,-256.33 216,-238 252.85,-209.5 304.33,-195.05 342.54,-187.85"/>
<polygon fill="midnightblue" stroke="midnightblue" points="343.21,-191.28 352.44,-186.09 341.99,-184.39 343.21,-191.28"/>
</g>
<!-- Node24 -->
<g id="node24" class="node">
<title>Node24</title>
<g id="a_node24"><a xlink:href="group__postpro.html#gab683ff84116ad23a19188953209855d0" target="_top" xlink:title="Compute symmetric part of a tensor gije for element. Does not call any other subroutine,...">
<polygon fill="white" stroke="black" points="233,-104.5 233,-123.5 299,-123.5 299,-104.5 233,-104.5"/>
<text text-anchor="middle" x="266" y="-111.5" font-family="Helvetica,sans-Serif" font-size="10.00">comp_sije</text>
</a>
</g>
</g>
<!-- Node5&#45;&gt;Node24 -->
<g id="edge27" class="edge">
<title>Node5&#45;&gt;Node24</title>
<path fill="none" stroke="midnightblue" d="M168.42,-304.35C172.8,-301.89 176.86,-298.82 180,-295 226.88,-238.06 167.94,-188.94 216,-133 218.3,-130.32 221.02,-128.02 223.99,-126.04"/>
<polygon fill="midnightblue" stroke="midnightblue" points="225.69,-129.1 232.84,-121.28 222.38,-122.94 225.69,-129.1"/>
</g>
<!-- Node25 -->
<g id="node25" class="node">
<title>Node25</title>
<g id="a_node25"><a xlink:href="ic_8f.html#a12fbcc70f37b3490eeda7dfb002dcc7d" target="_top" xlink:title=" ">
<polygon fill="white" stroke="black" points="243,-66.5 243,-85.5 289,-85.5 289,-66.5 243,-66.5"/>
<text text-anchor="middle" x="266" y="-73.5" font-family="Helvetica,sans-Serif" font-size="10.00">dsavg</text>
</a>
</g>
</g>
<!-- Node5&#45;&gt;Node25 -->
<g id="edge29" class="edge">
<title>Node5&#45;&gt;Node25</title>
<path fill="none" stroke="midnightblue" d="M168.13,-304.71C172.65,-302.19 176.83,-299.01 180,-295 235.98,-224.13 158.55,-164.69 216,-95 220.48,-89.56 226.73,-85.67 233.25,-82.9"/>
<polygon fill="midnightblue" stroke="midnightblue" points="234.55,-86.15 242.86,-79.57 232.26,-79.54 234.55,-86.15"/>
</g>
<!-- Node26 -->
<g id="node26" class="node">
<title>Node26</title>
<g id="a_node26"><a xlink:href="utils_8f.html#a75d89f87799764b6cb777d9ce36c19b7" target="_top" xlink:title="Adjust gradient at the boundary using the MOST relation.">
<polygon fill="white" stroke="black" points="229,-437.5 229,-456.5 303,-456.5 303,-437.5 229,-437.5"/>
<text text-anchor="middle" x="266" y="-444.5" font-family="Helvetica,sans-Serif" font-size="10.00">gij_from_bc</text>
</a>
</g>
</g>
<!-- Node5&#45;&gt;Node26 -->
<g id="edge30" class="edge">
<title>Node5&#45;&gt;Node26</title>
<path fill="none" stroke="midnightblue" d="M160.72,-323.61C167.65,-327.28 174.75,-332.05 180,-338 208.52,-370.29 185.38,-397.7 216,-428 217.46,-429.44 219.04,-430.78 220.71,-432.02"/>
<polygon fill="midnightblue" stroke="midnightblue" points="219.29,-435.25 229.66,-437.41 222.9,-429.25 219.29,-435.25"/>
</g>
<!-- Node27 -->
<g id="node27" class="node">
<title>Node27</title>
<g id="a_node27"><a xlink:href="utils_8f.html#acdb01a4b3d25323d8e05757532080584" target="_top" xlink:title="Compute planar average of quantity u along horizontal directions.">
<polygon fill="white" stroke="black" points="216,-399.5 216,-418.5 316,-418.5 316,-399.5 216,-399.5"/>
<text text-anchor="middle" x="266" y="-406.5" font-family="Helvetica,sans-Serif" font-size="10.00">planar_avg_horiz</text>
</a>
</g>
</g>
<!-- Node5&#45;&gt;Node27 -->
<g id="edge32" class="edge">
<title>Node5&#45;&gt;Node27</title>
<path fill="none" stroke="midnightblue" d="M158.59,-323.67C165.88,-327.49 173.73,-332.33 180,-338 200.86,-356.84 193.93,-372.6 216,-390 218.25,-391.77 220.69,-393.4 223.23,-394.88"/>
<polygon fill="midnightblue" stroke="midnightblue" points="221.66,-398.01 232.16,-399.41 224.82,-391.77 221.66,-398.01"/>
</g>
<!-- Node30 -->
<g id="node30" class="node">
<title>Node30</title>
<g id="a_node30"><a xlink:href="utils_8f.html#a2ab8eae9c2bc94febc81540730efd902" target="_top" xlink:title="Setup test filter.">
<polygon fill="white" stroke="black" points="233,-361.5 233,-380.5 299,-380.5 299,-361.5 233,-361.5"/>
<text text-anchor="middle" x="266" y="-368.5" font-family="Helvetica,sans-Serif" font-size="10.00">set_ds_filt</text>
</a>
</g>
</g>
<!-- Node5&#45;&gt;Node30 -->
<g id="edge35" class="edge">
<title>Node5&#45;&gt;Node30</title>
<path fill="none" stroke="midnightblue" d="M158.01,-323.54C178.86,-332.79 210.69,-346.91 234.22,-357.35"/>
<polygon fill="midnightblue" stroke="midnightblue" points="232.86,-360.57 243.42,-361.43 235.7,-354.17 232.86,-360.57"/>
</g>
<!-- Node8 -->
<g id="node8" class="node">
<title>Node8</title>
<g id="a_node8"><a xlink:href="byte_8c.html#a2da8eeb074dfd3ffbfb3e9a4d301cda4" target="_top" xlink:title=" ">
<polygon fill="white" stroke="black" points="376,-57.5 376,-76.5 415,-76.5 415,-57.5 376,-57.5"/>
<text text-anchor="middle" x="395.5" y="-64.5" font-family="Helvetica,sans-Serif" font-size="10.00">exitt</text>
</a>
</g>
</g>
<!-- Node7&#45;&gt;Node8 -->
<g id="edge7" class="edge">
<title>Node7&#45;&gt;Node8</title>
<path fill="none" stroke="midnightblue" d="M299.18,-142.44C305.08,-139.9 310.96,-136.78 316,-133 337.05,-117.21 331.36,-102.31 352,-86 356.25,-82.64 361.19,-79.74 366.16,-77.28"/>
<polygon fill="midnightblue" stroke="midnightblue" points="367.87,-80.36 375.6,-73.11 365.04,-73.95 367.87,-80.36"/>
</g>
<!-- Node9 -->
<g id="node9" class="node">
<title>Node9</title>
<g id="a_node9"><a xlink:href="group__postpro.html#ga53feb767cebebba399ab3c5a50f53155" target="_top" xlink:title="Uses mxm() to compute gradient of 2D arrays.">
<polygon fill="white" stroke="black" points="359,-133.5 359,-152.5 432,-152.5 432,-133.5 359,-133.5"/>
<text text-anchor="middle" x="395.5" y="-140.5" font-family="Helvetica,sans-Serif" font-size="10.00">local_grad2</text>
</a>
</g>
</g>
<!-- Node7&#45;&gt;Node9 -->
<g id="edge8" class="edge">
<title>Node7&#45;&gt;Node9</title>
<path fill="none" stroke="midnightblue" d="M299.5,-149.71C314.39,-148.65 332.3,-147.39 348.54,-146.24"/>
<polygon fill="midnightblue" stroke="midnightblue" points="349.19,-149.71 358.92,-145.51 348.69,-142.72 349.19,-149.71"/>
</g>
<!-- Node17 -->
<g id="node17" class="node">
<title>Node17</title>
<g id="a_node17"><a xlink:href="group__postpro.html#gad24367e4a843f60b63a2205aef1ba551" target="_top" xlink:title="Uses mxm() to compute gradient of 3D arrays.">
<polygon fill="white" stroke="black" points="359,-95.5 359,-114.5 432,-114.5 432,-95.5 359,-95.5"/>
<text text-anchor="middle" x="395.5" y="-102.5" font-family="Helvetica,sans-Serif" font-size="10.00">local_grad3</text>
</a>
</g>
</g>
<!-- Node7&#45;&gt;Node17 -->
<g id="edge16" class="edge">
<title>Node7&#45;&gt;Node17</title>
<path fill="none" stroke="midnightblue" d="M292.8,-142.49C311.77,-135.5 337.79,-125.9 358.76,-118.17"/>
<polygon fill="midnightblue" stroke="midnightblue" points="360.13,-121.4 368.3,-114.66 357.71,-114.83 360.13,-121.4"/>
</g>
<!-- Node10 -->
<g id="node10" class="node">
<title>Node10</title>
<g id="a_node10"><a xlink:href="group__postpro.html#gab9ec2260a10061af6ce1c52f3c8a41da" target="_top" xlink:title="Compute matrix&#45;matrix product C = A*B for contiguously packed matrices A,B, and C.">
<polygon fill="white" stroke="black" points="475,-114.5 475,-133.5 517,-133.5 517,-114.5 475,-114.5"/>
<text text-anchor="middle" x="496" y="-121.5" font-family="Helvetica,sans-Serif" font-size="10.00">mxm</text>
</a>
</g>
</g>
<!-- Node9&#45;&gt;Node10 -->
<g id="edge9" class="edge">
<title>Node9&#45;&gt;Node10</title>
<path fill="none" stroke="midnightblue" d="M432.06,-136.14C442.89,-134.05 454.68,-131.78 465.09,-129.77"/>
<polygon fill="midnightblue" stroke="midnightblue" points="465.81,-133.2 474.96,-127.86 464.48,-126.32 465.81,-133.2"/>
</g>
<!-- Node11 -->
<g id="node11" class="node">
<title>Node11</title>
<g id="a_node11"><a xlink:href="comm__mpi_8f.html#af06ec29f06aac3f8809e19de2a7e8946" target="_top" xlink:title=" ">
<polygon fill="white" stroke="black" points="561.5,-209.5 561.5,-228.5 627.5,-228.5 627.5,-209.5 561.5,-209.5"/>
<text text-anchor="middle" x="594.5" y="-216.5" font-family="Helvetica,sans-Serif" font-size="10.00">dnekclock</text>
</a>
</g>
</g>
<!-- Node10&#45;&gt;Node11 -->
<g id="edge10" class="edge">
<title>Node10&#45;&gt;Node11</title>
<path fill="none" stroke="midnightblue" d="M501.99,-133.6C510.55,-149.3 529.43,-180.66 553,-200 554.8,-201.48 556.74,-202.88 558.76,-204.19"/>
<polygon fill="midnightblue" stroke="midnightblue" points="557.51,-207.5 567.93,-209.37 560.95,-201.4 557.51,-207.5"/>
</g>
<!-- Node12 -->
<g id="node12" class="node">
<title>Node12</title>
<g id="a_node12"><a xlink:href="mxm__bgq_8f.html#a8a70163b4dbfdbfcce7bff170597fcad" target="_top" xlink:title=" ">
<polygon fill="white" stroke="black" points="553,-171.5 553,-190.5 636,-190.5 636,-171.5 553,-171.5"/>
<text text-anchor="middle" x="594.5" y="-178.5" font-family="Helvetica,sans-Serif" font-size="10.00">mxm_bgq_10</text>
</a>
</g>
</g>
<!-- Node10&#45;&gt;Node12 -->
<g id="edge11" class="edge">
<title>Node10&#45;&gt;Node12</title>
<path fill="none" stroke="midnightblue" d="M509.97,-133.67C521.09,-141.73 537.68,-153.28 553,-162 555.9,-163.65 558.97,-165.28 562.07,-166.86"/>
<polygon fill="midnightblue" stroke="midnightblue" points="560.8,-170.13 571.32,-171.36 563.86,-163.84 560.8,-170.13"/>
</g>
<!-- Node13 -->
<g id="node13" class="node">
<title>Node13</title>
<g id="a_node13"><a xlink:href="mxm__bgq_8f.html#a3fda9ea4bc7a5713a19d6939fa2b541f" target="_top" xlink:title=" ">
<polygon fill="white" stroke="black" points="553,-133.5 553,-152.5 636,-152.5 636,-133.5 553,-133.5"/>
<text text-anchor="middle" x="594.5" y="-140.5" font-family="Helvetica,sans-Serif" font-size="10.00">mxm_bgq_16</text>
</a>
</g>
</g>
<!-- Node10&#45;&gt;Node13 -->
<g id="edge12" class="edge">
<title>Node10&#45;&gt;Node13</title>
<path fill="none" stroke="midnightblue" d="M517.47,-128.03C524.94,-129.5 533.77,-131.24 542.71,-133"/>
<polygon fill="midnightblue" stroke="midnightblue" points="542.31,-136.49 552.79,-134.99 543.66,-129.62 542.31,-136.49"/>
</g>
<!-- Node14 -->
<g id="node14" class="node">
<title>Node14</title>
<g id="a_node14"><a xlink:href="mxm__bgq_8f.html#af192c3c8b982aa5bbc2a757156718a91" target="_top" xlink:title=" ">
<polygon fill="white" stroke="black" points="556,-95.5 556,-114.5 633,-114.5 633,-95.5 556,-95.5"/>
<text text-anchor="middle" x="594.5" y="-102.5" font-family="Helvetica,sans-Serif" font-size="10.00">mxm_bgq_6</text>
</a>
</g>
</g>
<!-- Node10&#45;&gt;Node14 -->
<g id="edge13" class="edge">
<title>Node10&#45;&gt;Node14</title>
<path fill="none" stroke="midnightblue" d="M517.47,-119.97C525.85,-118.32 535.93,-116.34 545.96,-114.36"/>
<polygon fill="midnightblue" stroke="midnightblue" points="546.79,-117.76 555.92,-112.4 545.44,-110.9 546.79,-117.76"/>
</g>
<!-- Node15 -->
<g id="node15" class="node">
<title>Node15</title>
<g id="a_node15"><a xlink:href="mxm__bgq_8f.html#a8faaef428336095704ece51624bbfe92" target="_top" xlink:title=" ">
<polygon fill="white" stroke="black" points="556,-57.5 556,-76.5 633,-76.5 633,-57.5 556,-57.5"/>
<text text-anchor="middle" x="594.5" y="-64.5" font-family="Helvetica,sans-Serif" font-size="10.00">mxm_bgq_8</text>
</a>
</g>
</g>
<!-- Node10&#45;&gt;Node15 -->
<g id="edge14" class="edge">
<title>Node10&#45;&gt;Node15</title>
<path fill="none" stroke="midnightblue" d="M509.97,-114.33C521.09,-106.27 537.68,-94.72 553,-86 555.9,-84.35 558.97,-82.72 562.07,-81.14"/>
<polygon fill="midnightblue" stroke="midnightblue" points="563.86,-84.16 571.32,-76.64 560.8,-77.87 563.86,-84.16"/>
</g>
<!-- Node16 -->
<g id="node16" class="node">
<title>Node16</title>
<g id="a_node16"><a xlink:href="mxm__std_8f.html#aa9e8685c4a72f18fb5d1ee88ed17a3d6" target="_top" xlink:title=" ">
<polygon fill="white" stroke="black" points="568.5,-19.5 568.5,-38.5 620.5,-38.5 620.5,-19.5 568.5,-19.5"/>
<text text-anchor="middle" x="594.5" y="-26.5" font-family="Helvetica,sans-Serif" font-size="10.00">mxmf2</text>
</a>
</g>
</g>
<!-- Node10&#45;&gt;Node16 -->
<g id="edge15" class="edge">
<title>Node10&#45;&gt;Node16</title>
<path fill="none" stroke="midnightblue" d="M501.99,-114.4C510.55,-98.7 529.43,-67.34 553,-48 555,-46.36 557.16,-44.83 559.41,-43.4"/>
<polygon fill="midnightblue" stroke="midnightblue" points="561.32,-46.34 568.36,-38.42 557.92,-40.22 561.32,-46.34"/>
</g>
<!-- Node17&#45;&gt;Node10 -->
<g id="edge17" class="edge">
<title>Node17&#45;&gt;Node10</title>
<path fill="none" stroke="midnightblue" d="M432.06,-111.86C442.89,-113.95 454.68,-116.22 465.09,-118.23"/>
<polygon fill="midnightblue" stroke="midnightblue" points="464.48,-121.68 474.96,-120.14 465.81,-114.8 464.48,-121.68"/>
</g>
<!-- Node19 -->
<g id="node19" class="node">
<title>Node19</title>
<g id="a_node19"><a xlink:href="math_8f.html#a0d9af374781723c272547a185cb3da5e" target="_top" xlink:title=" ">
<polygon fill="white" stroke="black" points="377,-285.5 377,-304.5 414,-304.5 414,-285.5 377,-285.5"/>
<text text-anchor="middle" x="395.5" y="-292.5" font-family="Helvetica,sans-Serif" font-size="10.00">col3</text>
</a>
</g>
</g>
<!-- Node18&#45;&gt;Node19 -->
<g id="edge19" class="edge">
<title>Node18&#45;&gt;Node19</title>
<path fill="none" stroke="midnightblue" d="M295.3,-265.43C316.73,-271.82 346.01,-280.55 367.2,-286.86"/>
<polygon fill="midnightblue" stroke="midnightblue" points="366.3,-290.25 376.88,-289.75 368.3,-283.54 366.3,-290.25"/>
</g>
<!-- Node20 -->
<g id="node20" class="node">
<title>Node20</title>
<g id="a_node20"><a xlink:href="math_8f.html#a0f22065d62634acdc3883ba95bfcc18a" target="_top" xlink:title=" ">
<polygon fill="white" stroke="black" points="375.5,-209.5 375.5,-228.5 415.5,-228.5 415.5,-209.5 375.5,-209.5"/>
<text text-anchor="middle" x="395.5" y="-216.5" font-family="Helvetica,sans-Serif" font-size="10.00">sub2</text>
</a>
</g>
</g>
<!-- Node18&#45;&gt;Node20 -->
<g id="edge20" class="edge">
<title>Node18&#45;&gt;Node20</title>
<path fill="none" stroke="midnightblue" d="M295.3,-248.57C316.23,-242.33 344.64,-233.86 365.69,-227.59"/>
<polygon fill="midnightblue" stroke="midnightblue" points="366.79,-230.91 375.37,-224.7 364.79,-224.2 366.79,-230.91"/>
</g>
<!-- Node21 -->
<g id="node21" class="node">
<title>Node21</title>
<g id="a_node21"><a xlink:href="postpro_8f.html#a2b64593a113feea75ebb2c0820824729" target="_top" xlink:title=" ">
<polygon fill="white" stroke="black" points="367.5,-247.5 367.5,-266.5 423.5,-266.5 423.5,-247.5 367.5,-247.5"/>
<text text-anchor="middle" x="395.5" y="-254.5" font-family="Helvetica,sans-Serif" font-size="10.00">tens3d1</text>
</a>
</g>
</g>
<!-- Node18&#45;&gt;Node21 -->
<g id="edge21" class="edge">
<title>Node18&#45;&gt;Node21</title>
<path fill="none" stroke="midnightblue" d="M295.3,-257C313.46,-257 337.24,-257 356.97,-257"/>
<polygon fill="midnightblue" stroke="midnightblue" points="357.16,-260.5 367.16,-257 357.16,-253.5 357.16,-260.5"/>
</g>
<!-- Node22&#45;&gt;Node6 -->
<g id="edge23" class="edge">
<title>Node22&#45;&gt;Node6</title>
<path fill="none" stroke="midnightblue" d="M298.52,-304.39C318.36,-310.31 343.86,-317.91 363.59,-323.79"/>
<polygon fill="midnightblue" stroke="midnightblue" points="362.73,-327.18 373.32,-326.69 364.73,-320.48 362.73,-327.18"/>
</g>
<!-- Node22&#45;&gt;Node19 -->
<g id="edge24" class="edge">
<title>Node22&#45;&gt;Node19</title>
<path fill="none" stroke="midnightblue" d="M298.52,-295C319.39,-295 346.53,-295 366.62,-295"/>
<polygon fill="midnightblue" stroke="midnightblue" points="366.69,-298.5 376.69,-295 366.69,-291.5 366.69,-298.5"/>
</g>
<!-- Node22&#45;&gt;Node21 -->
<g id="edge26" class="edge">
<title>Node22&#45;&gt;Node21</title>
<path fill="none" stroke="midnightblue" d="M298.52,-285.61C316.39,-280.28 338.86,-273.58 357.56,-268.01"/>
<polygon fill="midnightblue" stroke="midnightblue" points="358.65,-271.34 367.23,-265.13 356.65,-264.63 358.65,-271.34"/>
</g>
<!-- Node22&#45;&gt;Node23 -->
<g id="edge25" class="edge">
<title>Node22&#45;&gt;Node23</title>
<path fill="none" stroke="midnightblue" d="M298.59,-286.82C304.88,-284.13 311.06,-280.6 316,-276 343.37,-250.55 325.28,-226.14 352,-200 353.43,-198.6 354.98,-197.3 356.62,-196.08"/>
<polygon fill="midnightblue" stroke="midnightblue" points="358.65,-198.93 365.32,-190.7 354.97,-192.98 358.65,-198.93"/>
</g>
<!-- Node28 -->
<g id="node28" class="node">
<title>Node28</title>
<g id="a_node28"><a xlink:href="dssum_8f.html#a93169b7e53973103de1372a81375375a" target="_top" xlink:title=" ">
<polygon fill="white" stroke="black" points="352,-475.5 352,-494.5 439,-494.5 439,-475.5 352,-475.5"/>
<text text-anchor="middle" x="395.5" y="-482.5" font-family="Helvetica,sans-Serif" font-size="10.00">gtpp_gs_setup</text>
</a>
</g>
</g>
<!-- Node27&#45;&gt;Node28 -->
<g id="edge33" class="edge">
<title>Node27&#45;&gt;Node28</title>
<path fill="none" stroke="midnightblue" d="M297.84,-418.56C304.11,-421.15 310.47,-424.29 316,-428 335.32,-440.97 333.02,-452.55 352,-466 354.35,-467.66 356.87,-469.23 359.46,-470.7"/>
<polygon fill="midnightblue" stroke="midnightblue" points="357.95,-473.86 368.45,-475.3 361.14,-467.63 357.95,-473.86"/>
</g>
<!-- Node29 -->
<g id="node29" class="node">
<title>Node29</title>
<g id="a_node29"><a xlink:href="navier5_8f.html#a43c9d798cb7be60e09268f4176c0d13f" target="_top" xlink:title=" ">
<polygon fill="white" stroke="black" points="360,-437.5 360,-456.5 431,-456.5 431,-437.5 360,-437.5"/>
<text text-anchor="middle" x="395.5" y="-444.5" font-family="Helvetica,sans-Serif" font-size="10.00">planar_avg</text>
</a>
</g>
</g>
<!-- Node27&#45;&gt;Node29 -->
<g id="edge34" class="edge">
<title>Node27&#45;&gt;Node29</title>
<path fill="none" stroke="midnightblue" d="M299.17,-418.59C315.33,-423.4 335.11,-429.3 352.45,-434.47"/>
<polygon fill="midnightblue" stroke="midnightblue" points="351.75,-437.91 362.34,-437.41 353.75,-431.2 351.75,-437.91"/>
</g>
<!-- Node31 -->
<g id="node31" class="node">
<title>Node31</title>
<g id="a_node31"><a xlink:href="postpro_8f.html#a384436e1573243f4e088689bbea00453" target="_top" xlink:title=" ">
<polygon fill="white" stroke="black" points="357.5,-399.5 357.5,-418.5 433.5,-418.5 433.5,-399.5 357.5,-399.5"/>
<text text-anchor="middle" x="395.5" y="-406.5" font-family="Helvetica,sans-Serif" font-size="10.00">build_1d_filt</text>
</a>
</g>
</g>
<!-- Node30&#45;&gt;Node31 -->
<g id="edge36" class="edge">
<title>Node30&#45;&gt;Node31</title>
<path fill="none" stroke="midnightblue" d="M299.17,-380.59C315.33,-385.4 335.11,-391.3 352.45,-396.47"/>
<polygon fill="midnightblue" stroke="midnightblue" points="351.75,-399.91 362.34,-399.41 353.75,-393.2 351.75,-399.91"/>
</g>
<!-- Node32 -->
<g id="node32" class="node">
<title>Node32</title>
<g id="a_node32"><a xlink:href="math_8f.html#ae1294c8ac3b5b3c38bbcc250d252b9cb" target="_top" xlink:title=" ">
<polygon fill="white" stroke="black" points="376.5,-361.5 376.5,-380.5 414.5,-380.5 414.5,-361.5 376.5,-361.5"/>
<text text-anchor="middle" x="395.5" y="-368.5" font-family="Helvetica,sans-Serif" font-size="10.00">rone</text>
</a>
</g>
</g>
<!-- Node30&#45;&gt;Node32 -->
<g id="edge37" class="edge">
<title>Node30&#45;&gt;Node32</title>
<path fill="none" stroke="midnightblue" d="M299.17,-371C319.71,-371 346.11,-371 365.91,-371"/>
<polygon fill="midnightblue" stroke="midnightblue" points="366.16,-374.5 376.16,-371 366.16,-367.5 366.16,-374.5"/>
</g>
</g>
</svg>
