<?xml version="1.0" encoding="UTF-8" standalone="no"?>
<!DOCTYPE svg PUBLIC "-//W3C//DTD SVG 1.1//EN"
 "http://www.w3.org/Graphics/SVG/1.1/DTD/svg11.dtd">
<!-- Generated by graphviz version 2.43.0 (0)
 -->
<!-- Title: pen_fterms_get Pages: 1 -->
<svg width="559pt" height="218pt"
 viewBox="0.00 0.00 559.00 218.00" xmlns="http://www.w3.org/2000/svg" xmlns:xlink="http://www.w3.org/1999/xlink">
<g id="graph0" class="graph" transform="scale(1 1) rotate(0) translate(4 214)">
<title>pen_fterms_get</title>
<polygon fill="white" stroke="transparent" points="-4,4 -4,-214 555,-214 555,4 -4,4"/>
<!-- Node1 -->
<g id="node1" class="node">
<title>Node1</title>
<g id="a_node1"><a xlink:title="Generate forcing terms: pen_k_len and pen_fstab.">
<polygon fill="#bfbfbf" stroke="black" points="0,-95.5 0,-114.5 92,-114.5 92,-95.5 0,-95.5"/>
<text text-anchor="middle" x="46" y="-102.5" font-family="Helvetica,sans-Serif" font-size="10.00">pen_fterms_get</text>
</a>
</g>
</g>
<!-- Node2 -->
<g id="node2" class="node">
<title>Node2</title>
<g id="a_node2"><a xlink:href="group__bc__channel.html#ga254f23587dbb1681663a4611ef44bef4" target="_top" xlink:title="Compute the K term in penalty forcing.">
<polygon fill="white" stroke="black" points="129,-133.5 129,-152.5 195,-152.5 195,-133.5 129,-133.5"/>
<text text-anchor="middle" x="162" y="-140.5" font-family="Helvetica,sans-Serif" font-size="10.00">abl_pen_k</text>
</a>
</g>
</g>
<!-- Node1&#45;&gt;Node2 -->
<g id="edge1" class="edge">
<title>Node1&#45;&gt;Node2</title>
<path fill="none" stroke="midnightblue" d="M75.77,-114.59C89.94,-119.31 107.24,-125.08 122.53,-130.18"/>
<polygon fill="midnightblue" stroke="midnightblue" points="121.65,-133.57 132.24,-133.41 123.86,-126.93 121.65,-133.57"/>
</g>
<!-- Node3 -->
<g id="node3" class="node">
<title>Node3</title>
<g id="a_node3"><a xlink:href="group__penalty__mini.html#ga689a6a1fa1bd03e4bd215f4877e5bd86" target="_top" xlink:title=" ">
<polygon fill="white" stroke="black" points="128,-95.5 128,-114.5 196,-114.5 196,-95.5 128,-95.5"/>
<text text-anchor="middle" x="162" y="-102.5" font-family="Helvetica,sans-Serif" font-size="10.00">cart_diff_y</text>
</a>
</g>
</g>
<!-- Node1&#45;&gt;Node3 -->
<g id="edge2" class="edge">
<title>Node1&#45;&gt;Node3</title>
<path fill="none" stroke="midnightblue" d="M92.06,-105C100.55,-105 109.42,-105 117.85,-105"/>
<polygon fill="midnightblue" stroke="midnightblue" points="117.87,-108.5 127.87,-105 117.87,-101.5 117.87,-108.5"/>
</g>
<!-- Node13 -->
<g id="node13" class="node">
<title>Node13</title>
<g id="a_node13"><a xlink:href="prepost_8f.html#aacb528c0b28bc79dff8db48d7ae9ac64" target="_top" xlink:title=" ">
<polygon fill="white" stroke="black" points="135.5,-57.5 135.5,-76.5 188.5,-76.5 188.5,-57.5 135.5,-57.5"/>
<text text-anchor="middle" x="162" y="-64.5" font-family="Helvetica,sans-Serif" font-size="10.00">outpost</text>
</a>
</g>
</g>
<!-- Node1&#45;&gt;Node13 -->
<g id="edge13" class="edge">
<title>Node1&#45;&gt;Node13</title>
<path fill="none" stroke="midnightblue" d="M75.77,-95.41C90.95,-90.35 109.71,-84.1 125.77,-78.74"/>
<polygon fill="midnightblue" stroke="midnightblue" points="126.97,-82.03 135.35,-75.55 124.76,-75.39 126.97,-82.03"/>
</g>
<!-- Node4 -->
<g id="node4" class="node">
<title>Node4</title>
<g id="a_node4"><a xlink:href="group__penalty__mini.html#ga0ce4b99b400fee68110bae64c6a6277c" target="_top" xlink:title="Assuming the mesh is cartesian, compute exact y&#45;derivative for an element, by operating.">
<polygon fill="white" stroke="black" points="252.5,-114.5 252.5,-133.5 333.5,-133.5 333.5,-114.5 252.5,-114.5"/>
<text text-anchor="middle" x="293" y="-121.5" font-family="Helvetica,sans-Serif" font-size="10.00">local_cart_dy</text>
</a>
</g>
</g>
<!-- Node3&#45;&gt;Node4 -->
<g id="edge3" class="edge">
<title>Node3&#45;&gt;Node4</title>
<path fill="none" stroke="midnightblue" d="M196.22,-109.89C210.31,-111.97 227.02,-114.43 242.5,-116.71"/>
<polygon fill="midnightblue" stroke="midnightblue" points="242.06,-120.18 252.47,-118.18 243.08,-113.26 242.06,-120.18"/>
</g>
<!-- Node12 -->
<g id="node12" class="node">
<title>Node12</title>
<g id="a_node12"><a xlink:href="group__penalty__mini.html#gaa8eaa7869bcd674f01457cb5dd2eb012" target="_top" xlink:title="Assuming the mesh is cartesian, compute pseudo(?) y&#45;derivative along y&#45;axis for an element,...">
<polygon fill="white" stroke="black" points="232,-76.5 232,-95.5 354,-95.5 354,-76.5 232,-76.5"/>
<text text-anchor="middle" x="293" y="-83.5" font-family="Helvetica,sans-Serif" font-size="10.00">local_cart_dy_pseudo</text>
</a>
</g>
</g>
<!-- Node3&#45;&gt;Node12 -->
<g id="edge11" class="edge">
<title>Node3&#45;&gt;Node12</title>
<path fill="none" stroke="midnightblue" d="M196.22,-100.11C204.14,-98.94 212.89,-97.65 221.78,-96.34"/>
<polygon fill="midnightblue" stroke="midnightblue" points="222.47,-99.78 231.85,-94.86 221.45,-92.85 222.47,-99.78"/>
</g>
<!-- Node5 -->
<g id="node5" class="node">
<title>Node5</title>
<g id="a_node5"><a xlink:href="group__postpro.html#gab9ec2260a10061af6ce1c52f3c8a41da" target="_top" xlink:title="Compute matrix&#45;matrix product C = A*B for contiguously packed matrices A,B, and C.">
<polygon fill="white" stroke="black" points="390,-95.5 390,-114.5 432,-114.5 432,-95.5 390,-95.5"/>
<text text-anchor="middle" x="411" y="-102.5" font-family="Helvetica,sans-Serif" font-size="10.00">mxm</text>
</a>
</g>
</g>
<!-- Node4&#45;&gt;Node5 -->
<g id="edge4" class="edge">
<title>Node4&#45;&gt;Node5</title>
<path fill="none" stroke="midnightblue" d="M333.6,-117.51C348.66,-115.05 365.57,-112.28 379.64,-109.97"/>
<polygon fill="midnightblue" stroke="midnightblue" points="380.48,-113.38 389.78,-108.31 379.34,-106.47 380.48,-113.38"/>
</g>
<!-- Node6 -->
<g id="node6" class="node">
<title>Node6</title>
<g id="a_node6"><a xlink:href="comm__mpi_8f.html#af06ec29f06aac3f8809e19de2a7e8946" target="_top" xlink:title=" ">
<polygon fill="white" stroke="black" points="476.5,-190.5 476.5,-209.5 542.5,-209.5 542.5,-190.5 476.5,-190.5"/>
<text text-anchor="middle" x="509.5" y="-197.5" font-family="Helvetica,sans-Serif" font-size="10.00">dnekclock</text>
</a>
</g>
</g>
<!-- Node5&#45;&gt;Node6 -->
<g id="edge5" class="edge">
<title>Node5&#45;&gt;Node6</title>
<path fill="none" stroke="midnightblue" d="M416.99,-114.6C425.55,-130.3 444.43,-161.66 468,-181 469.8,-182.48 471.74,-183.88 473.76,-185.19"/>
<polygon fill="midnightblue" stroke="midnightblue" points="472.51,-188.5 482.93,-190.37 475.95,-182.4 472.51,-188.5"/>
</g>
<!-- Node7 -->
<g id="node7" class="node">
<title>Node7</title>
<g id="a_node7"><a xlink:href="mxm__bgq_8f.html#a8a70163b4dbfdbfcce7bff170597fcad" target="_top" xlink:title=" ">
<polygon fill="white" stroke="black" points="468,-152.5 468,-171.5 551,-171.5 551,-152.5 468,-152.5"/>
<text text-anchor="middle" x="509.5" y="-159.5" font-family="Helvetica,sans-Serif" font-size="10.00">mxm_bgq_10</text>
</a>
</g>
</g>
<!-- Node5&#45;&gt;Node7 -->
<g id="edge6" class="edge">
<title>Node5&#45;&gt;Node7</title>
<path fill="none" stroke="midnightblue" d="M424.97,-114.67C436.09,-122.73 452.68,-134.28 468,-143 470.9,-144.65 473.97,-146.28 477.07,-147.86"/>
<polygon fill="midnightblue" stroke="midnightblue" points="475.8,-151.13 486.32,-152.36 478.86,-144.84 475.8,-151.13"/>
</g>
<!-- Node8 -->
<g id="node8" class="node">
<title>Node8</title>
<g id="a_node8"><a xlink:href="mxm__bgq_8f.html#a3fda9ea4bc7a5713a19d6939fa2b541f" target="_top" xlink:title=" ">
<polygon fill="white" stroke="black" points="468,-114.5 468,-133.5 551,-133.5 551,-114.5 468,-114.5"/>
<text text-anchor="middle" x="509.5" y="-121.5" font-family="Helvetica,sans-Serif" font-size="10.00">mxm_bgq_16</text>
</a>
</g>
</g>
<!-- Node5&#45;&gt;Node8 -->
<g id="edge7" class="edge">
<title>Node5&#45;&gt;Node8</title>
<path fill="none" stroke="midnightblue" d="M432.47,-109.03C439.94,-110.5 448.77,-112.24 457.71,-114"/>
<polygon fill="midnightblue" stroke="midnightblue" points="457.31,-117.49 467.79,-115.99 458.66,-110.62 457.31,-117.49"/>
</g>
<!-- Node9 -->
<g id="node9" class="node">
<title>Node9</title>
<g id="a_node9"><a xlink:href="mxm__bgq_8f.html#af192c3c8b982aa5bbc2a757156718a91" target="_top" xlink:title=" ">
<polygon fill="white" stroke="black" points="471,-76.5 471,-95.5 548,-95.5 548,-76.5 471,-76.5"/>
<text text-anchor="middle" x="509.5" y="-83.5" font-family="Helvetica,sans-Serif" font-size="10.00">mxm_bgq_6</text>
</a>
</g>
</g>
<!-- Node5&#45;&gt;Node9 -->
<g id="edge8" class="edge">
<title>Node5&#45;&gt;Node9</title>
<path fill="none" stroke="midnightblue" d="M432.47,-100.97C440.85,-99.32 450.93,-97.34 460.96,-95.36"/>
<polygon fill="midnightblue" stroke="midnightblue" points="461.79,-98.76 470.92,-93.4 460.44,-91.9 461.79,-98.76"/>
</g>
<!-- Node10 -->
<g id="node10" class="node">
<title>Node10</title>
<g id="a_node10"><a xlink:href="mxm__bgq_8f.html#a8faaef428336095704ece51624bbfe92" target="_top" xlink:title=" ">
<polygon fill="white" stroke="black" points="471,-38.5 471,-57.5 548,-57.5 548,-38.5 471,-38.5"/>
<text text-anchor="middle" x="509.5" y="-45.5" font-family="Helvetica,sans-Serif" font-size="10.00">mxm_bgq_8</text>
</a>
</g>
</g>
<!-- Node5&#45;&gt;Node10 -->
<g id="edge9" class="edge">
<title>Node5&#45;&gt;Node10</title>
<path fill="none" stroke="midnightblue" d="M424.97,-95.33C436.09,-87.27 452.68,-75.72 468,-67 470.9,-65.35 473.97,-63.72 477.07,-62.14"/>
<polygon fill="midnightblue" stroke="midnightblue" points="478.86,-65.16 486.32,-57.64 475.8,-58.87 478.86,-65.16"/>
</g>
<!-- Node11 -->
<g id="node11" class="node">
<title>Node11</title>
<g id="a_node11"><a xlink:href="mxm__std_8f.html#aa9e8685c4a72f18fb5d1ee88ed17a3d6" target="_top" xlink:title=" ">
<polygon fill="white" stroke="black" points="483.5,-0.5 483.5,-19.5 535.5,-19.5 535.5,-0.5 483.5,-0.5"/>
<text text-anchor="middle" x="509.5" y="-7.5" font-family="Helvetica,sans-Serif" font-size="10.00">mxmf2</text>
</a>
</g>
</g>
<!-- Node5&#45;&gt;Node11 -->
<g id="edge10" class="edge">
<title>Node5&#45;&gt;Node11</title>
<path fill="none" stroke="midnightblue" d="M416.99,-95.4C425.55,-79.7 444.43,-48.34 468,-29 470,-27.36 472.16,-25.83 474.41,-24.4"/>
<polygon fill="midnightblue" stroke="midnightblue" points="476.32,-27.34 483.36,-19.42 472.92,-21.22 476.32,-27.34"/>
</g>
<!-- Node12&#45;&gt;Node5 -->
<g id="edge12" class="edge">
<title>Node12&#45;&gt;Node5</title>
<path fill="none" stroke="midnightblue" d="M352.34,-95.56C361.86,-97.12 371.37,-98.67 379.84,-100.06"/>
<polygon fill="midnightblue" stroke="midnightblue" points="379.5,-103.55 389.94,-101.71 380.63,-96.64 379.5,-103.55"/>
</g>
</g>
</svg>
