<?xml version="1.0" encoding="UTF-8" standalone="no"?>
<!DOCTYPE svg PUBLIC "-//W3C//DTD SVG 1.1//EN"
 "http://www.w3.org/Graphics/SVG/1.1/DTD/svg11.dtd">
<!-- Generated by graphviz version 2.43.0 (0)
 -->
<!-- Title: nek_advance Pages: 1 -->
<svg width="545pt" height="1092pt"
 viewBox="0.00 0.00 545.00 1092.00" xmlns="http://www.w3.org/2000/svg" xmlns:xlink="http://www.w3.org/1999/xlink">
<g id="graph0" class="graph" transform="scale(1 1) rotate(0) translate(4 1088)">
<title>nek_advance</title>
<polygon fill="white" stroke="transparent" points="-4,4 -4,-1088 541,-1088 541,4 -4,4"/>
<!-- Node1 -->
<g id="node1" class="node">
<title>Node1</title>
<g id="a_node1"><a xlink:title="Time advancement. What it does differs based on solver flags and formulation. Summary of calls:">
<polygon fill="#bfbfbf" stroke="black" points="0,-380.5 0,-399.5 81,-399.5 81,-380.5 0,-380.5"/>
<text text-anchor="middle" x="40.5" y="-387.5" font-family="Helvetica,sans-Serif" font-size="10.00">nek_advance</text>
</a>
</g>
</g>
<!-- Node2 -->
<g id="node2" class="node">
<title>Node2</title>
<g id="a_node2"><a xlink:href="induct_8f.html#a75294e71da0c68adb56f3804f5dad60f" target="_top" xlink:title=" ">
<polygon fill="white" stroke="black" points="138.5,-893.5 138.5,-912.5 200.5,-912.5 200.5,-893.5 138.5,-893.5"/>
<text text-anchor="middle" x="169.5" y="-900.5" font-family="Helvetica,sans-Serif" font-size="10.00">cfl_check</text>
</a>
</g>
</g>
<!-- Node1&#45;&gt;Node2 -->
<g id="edge1" class="edge">
<title>Node1&#45;&gt;Node2</title>
<path fill="none" stroke="midnightblue" d="M41.68,-399.75C43.02,-462.19 53.23,-805.86 117,-884 120.3,-888.05 124.56,-891.24 129.2,-893.74"/>
<polygon fill="midnightblue" stroke="midnightblue" points="127.9,-896.99 138.46,-897.78 130.69,-890.57 127.9,-896.99"/>
</g>
<!-- Node3 -->
<g id="node3" class="node">
<title>Node3</title>
<g id="a_node3"><a xlink:href="drive2_8f.html#ab79ec3c35ce2079b236a435feee313c2" target="_top" xlink:title=" ">
<polygon fill="white" stroke="black" points="138,-855.5 138,-874.5 201,-874.5 201,-855.5 138,-855.5"/>
<text text-anchor="middle" x="169.5" y="-862.5" font-family="Helvetica,sans-Serif" font-size="10.00">comment</text>
</a>
</g>
</g>
<!-- Node1&#45;&gt;Node3 -->
<g id="edge2" class="edge">
<title>Node1&#45;&gt;Node3</title>
<path fill="none" stroke="midnightblue" d="M41.82,-399.76C43.93,-459.4 57.83,-774.41 117,-846 120.17,-849.84 124.2,-852.9 128.59,-855.35"/>
<polygon fill="midnightblue" stroke="midnightblue" points="127.42,-858.66 137.98,-859.54 130.28,-852.27 127.42,-858.66"/>
</g>
<!-- Node4 -->
<g id="node4" class="node">
<title>Node4</title>
<g id="a_node4"><a xlink:href="group__core.html#gab0aeca9ad3db8be87a01ba29d069d71e" target="_top" xlink:title=" ">
<polygon fill="white" stroke="black" points="150.5,-817.5 150.5,-836.5 188.5,-836.5 188.5,-817.5 150.5,-817.5"/>
<text text-anchor="middle" x="169.5" y="-824.5" font-family="Helvetica,sans-Serif" font-size="10.00">fluid</text>
</a>
</g>
</g>
<!-- Node1&#45;&gt;Node4 -->
<g id="edge3" class="edge">
<title>Node1&#45;&gt;Node4</title>
<path fill="none" stroke="midnightblue" d="M43.92,-399.72C52.93,-435.73 85.6,-564.83 117,-670 131.92,-719.96 151.62,-778.13 161.79,-807.66"/>
<polygon fill="midnightblue" stroke="midnightblue" points="158.61,-809.19 165.19,-817.5 165.23,-806.9 158.61,-809.19"/>
</g>
<!-- Node23 -->
<g id="node22" class="node">
<title>Node23</title>
<g id="a_node22"><a xlink:href="math_8f.html#af44de42b023a4a68cd98ea341204342d" target="_top" xlink:title=" ">
<polygon fill="white" stroke="black" points="482.5,-456.5 482.5,-475.5 523.5,-475.5 523.5,-456.5 482.5,-456.5"/>
<text text-anchor="middle" x="503" y="-463.5" font-family="Helvetica,sans-Serif" font-size="10.00">rzero</text>
</a>
</g>
</g>
<!-- Node1&#45;&gt;Node23 -->
<g id="edge49" class="edge">
<title>Node1&#45;&gt;Node23</title>
<path fill="none" stroke="midnightblue" d="M42.94,-399.77C49.35,-441.91 76.81,-607.26 117,-637 154.51,-664.76 177.1,-649.71 222,-637 346.03,-601.9 358.25,-550.94 469,-485 471.37,-483.59 473.84,-482.14 476.32,-480.69"/>
<polygon fill="midnightblue" stroke="midnightblue" points="478.26,-483.61 485.16,-475.57 474.75,-477.55 478.26,-483.61"/>
</g>
<!-- Node44 -->
<g id="node34" class="node">
<title>Node44</title>
<g id="a_node34"><a xlink:href="perturb_8f.html#ad8d4119d40930d56b2095e9457f93bab" target="_top" xlink:title=" ">
<polygon fill="white" stroke="black" points="147.5,-608.5 147.5,-627.5 191.5,-627.5 191.5,-608.5 147.5,-608.5"/>
<text text-anchor="middle" x="169.5" y="-615.5" font-family="Helvetica,sans-Serif" font-size="10.00">fluidp</text>
</a>
</g>
</g>
<!-- Node1&#45;&gt;Node44 -->
<g id="edge36" class="edge">
<title>Node1&#45;&gt;Node44</title>
<path fill="none" stroke="midnightblue" d="M42.19,-399.84C45.02,-432.73 58.55,-540.15 117,-599 122.65,-604.69 130.15,-608.69 137.67,-611.5"/>
<polygon fill="midnightblue" stroke="midnightblue" points="136.83,-614.9 147.42,-614.55 138.92,-608.22 136.83,-614.9"/>
</g>
<!-- Node45 -->
<g id="node35" class="node">
<title>Node45</title>
<g id="a_node35"><a xlink:href="drive2_8f.html#a7f0d055bb47546a4859ac7d63339197e" target="_top" xlink:title=" ">
<polygon fill="white" stroke="black" points="144.5,-570.5 144.5,-589.5 194.5,-589.5 194.5,-570.5 144.5,-570.5"/>
<text text-anchor="middle" x="169.5" y="-577.5" font-family="Helvetica,sans-Serif" font-size="10.00">geneig</text>
</a>
</g>
</g>
<!-- Node1&#45;&gt;Node45 -->
<g id="edge37" class="edge">
<title>Node1&#45;&gt;Node45</title>
<path fill="none" stroke="midnightblue" d="M43.05,-399.65C48.17,-428.35 67.1,-514.11 117,-561 122.04,-565.74 128.36,-569.31 134.83,-572.01"/>
<polygon fill="midnightblue" stroke="midnightblue" points="133.69,-575.32 144.29,-575.36 136.03,-568.72 133.69,-575.32"/>
</g>
<!-- Node46 -->
<g id="node36" class="node">
<title>Node46</title>
<g id="a_node36"><a xlink:href="drive2_8f.html#aefc07385d7e7539fb57662470f694136" target="_top" xlink:title=" ">
<polygon fill="white" stroke="black" points="138.5,-532.5 138.5,-551.5 200.5,-551.5 200.5,-532.5 138.5,-532.5"/>
<text text-anchor="middle" x="169.5" y="-539.5" font-family="Helvetica,sans-Serif" font-size="10.00">gengeom</text>
</a>
</g>
</g>
<!-- Node1&#45;&gt;Node46 -->
<g id="edge38" class="edge">
<title>Node1&#45;&gt;Node46</title>
<path fill="none" stroke="midnightblue" d="M44.36,-399.54C52.05,-423.68 75.51,-487.77 117,-523 120.53,-526 124.57,-528.54 128.81,-530.69"/>
<polygon fill="midnightblue" stroke="midnightblue" points="127.69,-534.03 138.26,-534.81 130.49,-527.61 127.69,-534.03"/>
</g>
<!-- Node47 -->
<g id="node37" class="node">
<title>Node47</title>
<g id="a_node37"><a xlink:href="drive2_8f.html#acce80cd37f20e9b52729eb52d86a9c86" target="_top" xlink:title=" ">
<polygon fill="white" stroke="black" points="150.5,-494.5 150.5,-513.5 188.5,-513.5 188.5,-494.5 150.5,-494.5"/>
<text text-anchor="middle" x="169.5" y="-501.5" font-family="Helvetica,sans-Serif" font-size="10.00">heat</text>
</a>
</g>
</g>
<!-- Node1&#45;&gt;Node47 -->
<g id="edge39" class="edge">
<title>Node1&#45;&gt;Node47</title>
<path fill="none" stroke="midnightblue" d="M46.65,-399.51C57.33,-418.4 83.72,-460.92 117,-485 123.95,-490.03 132.38,-493.87 140.39,-496.74"/>
<polygon fill="midnightblue" stroke="midnightblue" points="139.57,-500.15 150.16,-499.86 141.7,-493.48 139.57,-500.15"/>
</g>
<!-- Node48 -->
<g id="node38" class="node">
<title>Node48</title>
<g id="a_node38"><a xlink:href="drive2_8f.html#aee60b6a659972e6dbd4c16aad7b6f855" target="_top" xlink:title=" ">
<polygon fill="white" stroke="black" points="133,-456.5 133,-475.5 206,-475.5 206,-456.5 133,-456.5"/>
<text text-anchor="middle" x="169.5" y="-463.5" font-family="Helvetica,sans-Serif" font-size="10.00">heat_cvode</text>
</a>
</g>
</g>
<!-- Node1&#45;&gt;Node48 -->
<g id="edge40" class="edge">
<title>Node1&#45;&gt;Node48</title>
<path fill="none" stroke="midnightblue" d="M52.06,-399.58C66.06,-411.89 91.92,-433.3 117,-447 120.72,-449.03 124.69,-450.93 128.73,-452.68"/>
<polygon fill="midnightblue" stroke="midnightblue" points="127.58,-455.99 138.16,-456.49 130.2,-449.5 127.58,-455.99"/>
</g>
<!-- Node49 -->
<g id="node39" class="node">
<title>Node49</title>
<g id="a_node39"><a xlink:href="perturb_8f.html#ac353eeb6dfd3fec540b933d9c701b0e7" target="_top" xlink:title=" ">
<polygon fill="white" stroke="black" points="147.5,-418.5 147.5,-437.5 191.5,-437.5 191.5,-418.5 147.5,-418.5"/>
<text text-anchor="middle" x="169.5" y="-425.5" font-family="Helvetica,sans-Serif" font-size="10.00">heatp</text>
</a>
</g>
</g>
<!-- Node1&#45;&gt;Node49 -->
<g id="edge41" class="edge">
<title>Node1&#45;&gt;Node49</title>
<path fill="none" stroke="midnightblue" d="M73.55,-399.59C93.2,-405.47 118.22,-412.96 137.64,-418.77"/>
<polygon fill="midnightblue" stroke="midnightblue" points="136.65,-422.12 147.23,-421.64 138.66,-415.42 136.65,-422.12"/>
</g>
<!-- Node50 -->
<g id="node40" class="node">
<title>Node50</title>
<g id="a_node40"><a xlink:href="induct_8f.html#aa44a44eb5a5e3f510211f8fd8e6b12b7" target="_top" xlink:title=" ">
<polygon fill="white" stroke="black" points="146,-380.5 146,-399.5 193,-399.5 193,-380.5 146,-380.5"/>
<text text-anchor="middle" x="169.5" y="-387.5" font-family="Helvetica,sans-Serif" font-size="10.00">induct</text>
</a>
</g>
</g>
<!-- Node1&#45;&gt;Node50 -->
<g id="edge42" class="edge">
<title>Node1&#45;&gt;Node50</title>
<path fill="none" stroke="midnightblue" d="M81.34,-390C98.76,-390 118.96,-390 135.52,-390"/>
<polygon fill="midnightblue" stroke="midnightblue" points="135.82,-393.5 145.82,-390 135.82,-386.5 135.82,-393.5"/>
</g>
<!-- Node51 -->
<g id="node41" class="node">
<title>Node51</title>
<g id="a_node41"><a xlink:href="drive2_8f.html#aa4f676fe0a57e3cbdce8c8fe353edeb0" target="_top" xlink:title=" ">
<polygon fill="white" stroke="black" points="144.5,-342.5 144.5,-361.5 194.5,-361.5 194.5,-342.5 144.5,-342.5"/>
<text text-anchor="middle" x="169.5" y="-349.5" font-family="Helvetica,sans-Serif" font-size="10.00">meshv</text>
</a>
</g>
</g>
<!-- Node1&#45;&gt;Node51 -->
<g id="edge43" class="edge">
<title>Node1&#45;&gt;Node51</title>
<path fill="none" stroke="midnightblue" d="M73.55,-380.41C92.23,-374.82 115.78,-367.77 134.75,-362.1"/>
<polygon fill="midnightblue" stroke="midnightblue" points="135.9,-365.41 144.48,-359.19 133.9,-358.7 135.9,-365.41"/>
</g>
<!-- Node52 -->
<g id="node42" class="node">
<title>Node52</title>
<g id="a_node42"><a xlink:href="comm__mpi_8f.html#a4acb4d8e379294232e9219bec063d8f3" target="_top" xlink:title=" ">
<polygon fill="white" stroke="black" points="138,-304.5 138,-323.5 201,-323.5 201,-304.5 138,-304.5"/>
<text text-anchor="middle" x="169.5" y="-311.5" font-family="Helvetica,sans-Serif" font-size="10.00">nekgsync</text>
</a>
</g>
</g>
<!-- Node1&#45;&gt;Node52 -->
<g id="edge44" class="edge">
<title>Node1&#45;&gt;Node52</title>
<path fill="none" stroke="midnightblue" d="M52.06,-380.42C66.06,-368.11 91.92,-346.7 117,-333 120.72,-330.97 124.69,-329.07 128.73,-327.32"/>
<polygon fill="midnightblue" stroke="midnightblue" points="130.2,-330.5 138.16,-323.51 127.58,-324.01 130.2,-330.5"/>
</g>
<!-- Node53 -->
<g id="node43" class="node">
<title>Node53</title>
<g id="a_node43"><a xlink:href="multimesh_8f.html#ab824f6e230e0482379512f8c4bb2b459" target="_top" xlink:title=" ">
<polygon fill="white" stroke="black" points="117,-266.5 117,-285.5 222,-285.5 222,-266.5 117,-266.5"/>
<text text-anchor="middle" x="169.5" y="-273.5" font-family="Helvetica,sans-Serif" font-size="10.00">neknek_exchange</text>
</a>
</g>
</g>
<!-- Node1&#45;&gt;Node53 -->
<g id="edge45" class="edge">
<title>Node1&#45;&gt;Node53</title>
<path fill="none" stroke="midnightblue" d="M46.65,-380.49C57.33,-361.6 83.72,-319.08 117,-295 119.63,-293.1 122.46,-291.37 125.41,-289.8"/>
<polygon fill="midnightblue" stroke="midnightblue" points="126.9,-292.96 134.47,-285.54 123.93,-286.63 126.9,-292.96"/>
</g>
<!-- Node54 -->
<g id="node44" class="node">
<title>Node54</title>
<g id="a_node44"><a xlink:href="multimesh_8f.html#ae456181cee68ca24e24244df7c9db9c6" target="_top" xlink:title=" ">
<polygon fill="white" stroke="black" points="127,-228.5 127,-247.5 212,-247.5 212,-228.5 127,-228.5"/>
<text text-anchor="middle" x="169.5" y="-235.5" font-family="Helvetica,sans-Serif" font-size="10.00">neknek_setup</text>
</a>
</g>
</g>
<!-- Node1&#45;&gt;Node54 -->
<g id="edge46" class="edge">
<title>Node1&#45;&gt;Node54</title>
<path fill="none" stroke="midnightblue" d="M44.36,-380.46C52.05,-356.32 75.51,-292.23 117,-257 118.97,-255.33 121.1,-253.79 123.34,-252.39"/>
<polygon fill="midnightblue" stroke="midnightblue" points="125.16,-255.39 132.36,-247.61 121.88,-249.2 125.16,-255.39"/>
</g>
<!-- Node55 -->
<g id="node45" class="node">
<title>Node55</title>
<g id="a_node45"><a xlink:href="navier5_8f.html#a519066c177fc94530849e83d3b9d4cfb" target="_top" xlink:title=" ">
<polygon fill="white" stroke="black" points="144.5,-190.5 144.5,-209.5 194.5,-209.5 194.5,-190.5 144.5,-190.5"/>
<text text-anchor="middle" x="169.5" y="-197.5" font-family="Helvetica,sans-Serif" font-size="10.00">q_filter</text>
</a>
</g>
</g>
<!-- Node1&#45;&gt;Node55 -->
<g id="edge47" class="edge">
<title>Node1&#45;&gt;Node55</title>
<path fill="none" stroke="midnightblue" d="M43.05,-380.35C48.17,-351.65 67.1,-265.89 117,-219 122.04,-214.26 128.36,-210.69 134.83,-207.99"/>
<polygon fill="midnightblue" stroke="midnightblue" points="136.03,-211.28 144.29,-204.64 133.69,-204.68 136.03,-211.28"/>
</g>
<!-- Node56 -->
<g id="node46" class="node">
<title>Node56</title>
<g id="a_node46"><a xlink:href="plan4_8f.html#a26aff16d60c39fbe34c5ca86c4041824" target="_top" xlink:title=" ">
<polygon fill="white" stroke="black" points="139,-152.5 139,-171.5 200,-171.5 200,-152.5 139,-152.5"/>
<text text-anchor="middle" x="169.5" y="-159.5" font-family="Helvetica,sans-Serif" font-size="10.00">qthermal</text>
</a>
</g>
</g>
<!-- Node1&#45;&gt;Node56 -->
<g id="edge48" class="edge">
<title>Node1&#45;&gt;Node56</title>
<path fill="none" stroke="midnightblue" d="M42.19,-380.16C45.02,-347.27 58.55,-239.85 117,-181 120.64,-177.33 125.05,-174.37 129.74,-171.97"/>
<polygon fill="midnightblue" stroke="midnightblue" points="131.16,-175.17 138.98,-168.02 128.41,-168.73 131.16,-175.17"/>
</g>
<!-- Node57 -->
<g id="node47" class="node">
<title>Node57</title>
<g id="a_node47"><a xlink:href="subs1_8f.html#af114fff998975a6e77422a65106222ca" target="_top" xlink:title=" ">
<polygon fill="white" stroke="black" points="143,-114.5 143,-133.5 196,-133.5 196,-114.5 143,-114.5"/>
<text text-anchor="middle" x="169.5" y="-121.5" font-family="Helvetica,sans-Serif" font-size="10.00">setprop</text>
</a>
</g>
</g>
<!-- Node1&#45;&gt;Node57 -->
<g id="edge50" class="edge">
<title>Node1&#45;&gt;Node57</title>
<path fill="none" stroke="midnightblue" d="M41.55,-380.49C42.25,-344.4 49.56,-214.38 117,-143 121.47,-138.27 127.21,-134.71 133.24,-132.04"/>
<polygon fill="midnightblue" stroke="midnightblue" points="134.62,-135.26 142.79,-128.52 132.2,-128.69 134.62,-135.26"/>
</g>
<!-- Node58 -->
<g id="node48" class="node">
<title>Node58</title>
<g id="a_node48"><a xlink:href="subs1_8f.html#aede23f2856c88d81d4315ea73f0177e8" target="_top" xlink:title=" ">
<polygon fill="white" stroke="black" points="143.5,-76.5 143.5,-95.5 195.5,-95.5 195.5,-76.5 143.5,-76.5"/>
<text text-anchor="middle" x="169.5" y="-83.5" font-family="Helvetica,sans-Serif" font-size="10.00">setsolv</text>
</a>
</g>
</g>
<!-- Node1&#45;&gt;Node58 -->
<g id="edge51" class="edge">
<title>Node1&#45;&gt;Node58</title>
<path fill="none" stroke="midnightblue" d="M41.09,-380.44C39.91,-340.96 40.71,-188.87 117,-105 121.5,-100.05 127.41,-96.39 133.61,-93.67"/>
<polygon fill="midnightblue" stroke="midnightblue" points="135.21,-96.82 143.44,-90.15 132.85,-90.23 135.21,-96.82"/>
</g>
<!-- Node59 -->
<g id="node49" class="node">
<title>Node59</title>
<g id="a_node49"><a xlink:href="drive2_8f.html#a6f905c80a0a2b0d5ed7f0449eda3e127" target="_top" xlink:title=" ">
<polygon fill="white" stroke="black" points="142.5,-38.5 142.5,-57.5 196.5,-57.5 196.5,-38.5 142.5,-38.5"/>
<text text-anchor="middle" x="169.5" y="-45.5" font-family="Helvetica,sans-Serif" font-size="10.00">settime</text>
</a>
</g>
</g>
<!-- Node1&#45;&gt;Node59 -->
<g id="edge52" class="edge">
<title>Node1&#45;&gt;Node59</title>
<path fill="none" stroke="midnightblue" d="M42.52,-380.39C47.83,-332.06 73.73,-115.99 117,-67 121.26,-62.17 126.87,-58.57 132.8,-55.88"/>
<polygon fill="midnightblue" stroke="midnightblue" points="134.11,-59.13 142.27,-52.36 131.67,-52.57 134.11,-59.13"/>
</g>
<!-- Node60 -->
<g id="node50" class="node">
<title>Node60</title>
<g id="a_node50"><a xlink:href="convect2_8f.html#a9b58d62988f53102b490531b844a1891" target="_top" xlink:title=" ">
<polygon fill="white" stroke="black" points="126,-0.5 126,-19.5 213,-19.5 213,-0.5 126,-0.5"/>
<text text-anchor="middle" x="169.5" y="-7.5" font-family="Helvetica,sans-Serif" font-size="10.00">setup_convect</text>
</a>
</g>
</g>
<!-- Node1&#45;&gt;Node60 -->
<g id="edge53" class="edge">
<title>Node1&#45;&gt;Node60</title>
<path fill="none" stroke="midnightblue" d="M42.27,-380.32C46.58,-328.51 69.22,-84.39 117,-29 118.16,-27.66 119.41,-26.42 120.75,-25.26"/>
<polygon fill="midnightblue" stroke="midnightblue" points="122.87,-28.05 129.19,-19.54 118.95,-22.26 122.87,-28.05"/>
</g>
<!-- Node5 -->
<g id="node5" class="node">
<title>Node5</title>
<g id="a_node5"><a xlink:href="navier4_8f.html#a43f20a275a318725bfdf9e8eaa0839fa" target="_top" xlink:title=" ">
<polygon fill="white" stroke="black" points="476.5,-950.5 476.5,-969.5 529.5,-969.5 529.5,-950.5 476.5,-950.5"/>
<text text-anchor="middle" x="503" y="-957.5" font-family="Helvetica,sans-Serif" font-size="10.00">chkptol</text>
</a>
</g>
</g>
<!-- Node4&#45;&gt;Node5 -->
<g id="edge4" class="edge">
<title>Node4&#45;&gt;Node5</title>
<path fill="none" stroke="midnightblue" d="M188.62,-829.96C199.47,-832.56 212.88,-837.34 222,-846 251.45,-873.97 225.75,-905.31 258,-930 319.04,-976.72 414.95,-972.55 466.46,-965.97"/>
<polygon fill="midnightblue" stroke="midnightblue" points="467.02,-969.43 476.45,-964.6 466.07,-962.5 467.02,-969.43"/>
</g>
<!-- Node6 -->
<g id="node6" class="node">
<title>Node6</title>
<g id="a_node6"><a xlink:href="comm__mpi_8f.html#af06ec29f06aac3f8809e19de2a7e8946" target="_top" xlink:title=" ">
<polygon fill="white" stroke="black" points="470,-912.5 470,-931.5 536,-931.5 536,-912.5 470,-912.5"/>
<text text-anchor="middle" x="503" y="-919.5" font-family="Helvetica,sans-Serif" font-size="10.00">dnekclock</text>
</a>
</g>
</g>
<!-- Node4&#45;&gt;Node6 -->
<g id="edge5" class="edge">
<title>Node4&#45;&gt;Node6</title>
<path fill="none" stroke="midnightblue" d="M188.65,-830.61C199.24,-833.43 212.37,-838.21 222,-846 245.29,-864.85 232.34,-887.53 258,-903 320.13,-940.46 407.92,-936.4 459.5,-929.55"/>
<polygon fill="midnightblue" stroke="midnightblue" points="460.23,-932.98 469.63,-928.1 459.24,-926.05 460.23,-932.98"/>
</g>
<!-- Node7 -->
<g id="node7" class="node">
<title>Node7</title>
<g id="a_node7"><a xlink:href="navier1_8f.html#a23e6343990072aa1a6b17109ccc7ba2b" target="_top" xlink:title=" ">
<polygon fill="white" stroke="black" points="274.5,-874.5 274.5,-893.5 318.5,-893.5 318.5,-874.5 274.5,-874.5"/>
<text text-anchor="middle" x="296.5" y="-881.5" font-family="Helvetica,sans-Serif" font-size="10.00">plan1</text>
</a>
</g>
</g>
<!-- Node4&#45;&gt;Node7 -->
<g id="edge6" class="edge">
<title>Node4&#45;&gt;Node7</title>
<path fill="none" stroke="midnightblue" d="M188.85,-833.11C198.79,-836.58 211.21,-841.19 222,-846 238.52,-853.37 241.93,-856.69 258,-865 260.98,-866.54 264.1,-868.14 267.22,-869.73"/>
<polygon fill="midnightblue" stroke="midnightblue" points="265.89,-872.99 276.39,-874.4 269.06,-866.74 265.89,-872.99"/>
</g>
<!-- Node8 -->
<g id="node8" class="node">
<title>Node8</title>
<g id="a_node8"><a xlink:href="group__core.html#ga142f9186a662d3de60f09bb0ee26782d" target="_top" xlink:title=" ">
<polygon fill="white" stroke="black" points="274.5,-836.5 274.5,-855.5 318.5,-855.5 318.5,-836.5 274.5,-836.5"/>
<text text-anchor="middle" x="296.5" y="-843.5" font-family="Helvetica,sans-Serif" font-size="10.00">plan3</text>
</a>
</g>
</g>
<!-- Node4&#45;&gt;Node8 -->
<g id="edge7" class="edge">
<title>Node4&#45;&gt;Node8</title>
<path fill="none" stroke="midnightblue" d="M188.68,-829.76C208.49,-832.78 240.56,-837.65 264.4,-841.27"/>
<polygon fill="midnightblue" stroke="midnightblue" points="263.96,-844.75 274.38,-842.79 265.01,-837.83 263.96,-844.75"/>
</g>
<!-- Node37 -->
<g id="node27" class="node">
<title>Node37</title>
<g id="a_node27"><a xlink:href="plan4_8f.html#a247fc105464de543a464773054eb509e" target="_top" xlink:title=" ">
<polygon fill="white" stroke="black" points="274.5,-798.5 274.5,-817.5 318.5,-817.5 318.5,-798.5 274.5,-798.5"/>
<text text-anchor="middle" x="296.5" y="-805.5" font-family="Helvetica,sans-Serif" font-size="10.00">plan4</text>
</a>
</g>
</g>
<!-- Node4&#45;&gt;Node37 -->
<g id="edge29" class="edge">
<title>Node4&#45;&gt;Node37</title>
<path fill="none" stroke="midnightblue" d="M188.68,-824.24C208.49,-821.22 240.56,-816.35 264.4,-812.73"/>
<polygon fill="midnightblue" stroke="midnightblue" points="265.01,-816.17 274.38,-811.21 263.96,-809.25 265.01,-816.17"/>
</g>
<!-- Node38 -->
<g id="node28" class="node">
<title>Node38</title>
<g id="a_node28"><a xlink:href="plan5_8f.html#ae6f47947bd1a89d608ae3b90ac8f433d" target="_top" xlink:title=" ">
<polygon fill="white" stroke="black" points="274.5,-760.5 274.5,-779.5 318.5,-779.5 318.5,-760.5 274.5,-760.5"/>
<text text-anchor="middle" x="296.5" y="-767.5" font-family="Helvetica,sans-Serif" font-size="10.00">plan5</text>
</a>
</g>
</g>
<!-- Node4&#45;&gt;Node38 -->
<g id="edge30" class="edge">
<title>Node4&#45;&gt;Node38</title>
<path fill="none" stroke="midnightblue" d="M188.68,-818.71C208.67,-809.59 241.14,-794.79 265.04,-783.89"/>
<polygon fill="midnightblue" stroke="midnightblue" points="266.73,-786.97 274.38,-779.63 263.82,-780.6 266.73,-786.97"/>
</g>
<!-- Node39 -->
<g id="node29" class="node">
<title>Node39</title>
<g id="a_node29"><a xlink:href="plan4_8f.html#a7dc32896a9c8fafb6bcb0103e7507909" target="_top" xlink:title=" ">
<polygon fill="white" stroke="black" points="262.5,-722.5 262.5,-741.5 330.5,-741.5 330.5,-722.5 262.5,-722.5"/>
<text text-anchor="middle" x="296.5" y="-729.5" font-family="Helvetica,sans-Serif" font-size="10.00">printdiverr</text>
</a>
</g>
</g>
<!-- Node4&#45;&gt;Node39 -->
<g id="edge31" class="edge">
<title>Node4&#45;&gt;Node39</title>
<path fill="none" stroke="midnightblue" d="M180.08,-817.25C195.52,-801.88 227.28,-771.66 258,-751 260.38,-749.4 262.92,-747.84 265.51,-746.34"/>
<polygon fill="midnightblue" stroke="midnightblue" points="267.21,-749.4 274.35,-741.57 263.89,-743.24 267.21,-749.4"/>
</g>
<!-- Node40 -->
<g id="node30" class="node">
<title>Node40</title>
<g id="a_node30"><a xlink:href="ssolv_8f.html#a2042097d2d5ef6c25e65f059e2c56756" target="_top" xlink:title=" ">
<polygon fill="white" stroke="black" points="271.5,-684.5 271.5,-703.5 321.5,-703.5 321.5,-684.5 271.5,-684.5"/>
<text text-anchor="middle" x="296.5" y="-691.5" font-family="Helvetica,sans-Serif" font-size="10.00">settolv</text>
</a>
</g>
</g>
<!-- Node4&#45;&gt;Node40 -->
<g id="edge32" class="edge">
<title>Node4&#45;&gt;Node40</title>
<path fill="none" stroke="midnightblue" d="M175.9,-817.28C188.11,-796 219.79,-744.7 258,-713 259.78,-711.52 261.69,-710.12 263.68,-708.8"/>
<polygon fill="midnightblue" stroke="midnightblue" points="265.83,-711.6 272.68,-703.51 262.28,-705.56 265.83,-711.6"/>
</g>
<!-- Node41 -->
<g id="node31" class="node">
<title>Node41</title>
<g id="a_node31"><a xlink:href="subs1_8f.html#a8f2e17fa9df4e1df865aa17b294f867c" target="_top" xlink:title=" ">
<polygon fill="white" stroke="black" points="272.5,-1064.5 272.5,-1083.5 320.5,-1083.5 320.5,-1064.5 272.5,-1064.5"/>
<text text-anchor="middle" x="296.5" y="-1071.5" font-family="Helvetica,sans-Serif" font-size="10.00">unorm</text>
</a>
</g>
</g>
<!-- Node4&#45;&gt;Node41 -->
<g id="edge33" class="edge">
<title>Node4&#45;&gt;Node41</title>
<path fill="none" stroke="midnightblue" d="M188.62,-829.09C199.9,-831.37 213.77,-836.11 222,-846 282.29,-918.46 202,-979.18 258,-1055 259.59,-1057.16 261.5,-1059.09 263.6,-1060.81"/>
<polygon fill="midnightblue" stroke="midnightblue" points="262.09,-1064 272.4,-1066.47 265.88,-1058.12 262.09,-1064"/>
</g>
<!-- Node42 -->
<g id="node32" class="node">
<title>Node42</title>
<g id="a_node32"><a xlink:href="drive2_8f.html#ae46d95459d293cfb4656cbeb0e086f2a" target="_top" xlink:title=" ">
<polygon fill="white" stroke="black" points="268,-1026.5 268,-1045.5 325,-1045.5 325,-1026.5 268,-1026.5"/>
<text text-anchor="middle" x="296.5" y="-1033.5" font-family="Helvetica,sans-Serif" font-size="10.00">vol_flow</text>
</a>
</g>
</g>
<!-- Node4&#45;&gt;Node42 -->
<g id="edge34" class="edge">
<title>Node4&#45;&gt;Node42</title>
<path fill="none" stroke="midnightblue" d="M188.5,-829.2C199.73,-831.51 213.59,-836.26 222,-846 272.77,-904.78 210.71,-955.39 258,-1017 258.92,-1018.19 259.93,-1019.32 261.02,-1020.38"/>
<polygon fill="midnightblue" stroke="midnightblue" points="258.95,-1023.21 269.04,-1026.45 263.18,-1017.63 258.95,-1023.21"/>
</g>
<!-- Node43 -->
<g id="node33" class="node">
<title>Node43</title>
<g id="a_node33"><a xlink:href="multimesh_8f.html#a282d987d75bd8a426ecf0d9e752cd2df" target="_top" xlink:title=" ">
<polygon fill="white" stroke="black" points="258,-988.5 258,-1007.5 335,-1007.5 335,-988.5 258,-988.5"/>
<text text-anchor="middle" x="296.5" y="-995.5" font-family="Helvetica,sans-Serif" font-size="10.00">vol_flow_ms</text>
</a>
</g>
</g>
<!-- Node4&#45;&gt;Node43 -->
<g id="edge35" class="edge">
<title>Node4&#45;&gt;Node43</title>
<path fill="none" stroke="midnightblue" d="M188.54,-829.44C199.63,-831.85 213.33,-836.62 222,-846 262.1,-889.41 222.81,-926.52 258,-974 260.3,-977.1 263.13,-979.91 266.19,-982.41"/>
<polygon fill="midnightblue" stroke="midnightblue" points="264.46,-985.47 274.65,-988.34 268.47,-979.74 264.46,-985.47"/>
</g>
<!-- Node9 -->
<g id="node9" class="node">
<title>Node9</title>
<g id="a_node9"><a xlink:href="planx_8f.html#a02873cc7b2b98973667aa8cb9f2cbadb" target="_top" xlink:title=" ">
<polygon fill="white" stroke="black" points="377,-722.5 377,-741.5 427,-741.5 427,-722.5 377,-722.5"/>
<text text-anchor="middle" x="402" y="-729.5" font-family="Helvetica,sans-Serif" font-size="10.00">cresvif</text>
</a>
</g>
</g>
<!-- Node8&#45;&gt;Node9 -->
<g id="edge8" class="edge">
<title>Node8&#45;&gt;Node9</title>
<path fill="none" stroke="midnightblue" d="M318.57,-838.33C324.42,-835.45 330.42,-831.71 335,-827 361.07,-800.22 346.23,-778.99 371,-751 372,-749.87 373.07,-748.79 374.21,-747.75"/>
<polygon fill="midnightblue" stroke="midnightblue" points="376.48,-750.42 382.28,-741.56 372.22,-744.87 376.48,-750.42"/>
</g>
<!-- Node10 -->
<g id="node10" class="node">
<title>Node10</title>
<g id="a_node10"><a xlink:href="group__core.html#gaeb2c6d4ae2c98143118acce2419c034d" target="_top" xlink:title="Project U onto the closest incompressible field.">
<polygon fill="white" stroke="red" points="371,-684.5 371,-703.5 433,-703.5 433,-684.5 371,-684.5"/>
<text text-anchor="middle" x="402" y="-691.5" font-family="Helvetica,sans-Serif" font-size="10.00">incomprn</text>
</a>
</g>
</g>
<!-- Node8&#45;&gt;Node10 -->
<g id="edge9" class="edge">
<title>Node8&#45;&gt;Node10</title>
<path fill="none" stroke="midnightblue" d="M318.6,-838.9C324.59,-836.01 330.65,-832.12 335,-827 369.39,-786.49 338.59,-755.1 371,-713 371.78,-711.98 372.64,-711.01 373.54,-710.07"/>
<polygon fill="midnightblue" stroke="midnightblue" points="375.81,-712.74 381.29,-703.67 371.35,-707.34 375.81,-712.74"/>
</g>
<!-- Node25 -->
<g id="node23" class="node">
<title>Node25</title>
<g id="a_node23"><a xlink:href="group__core.html#ga83189b3d1938d87f00ace2e7e05d9e4c" target="_top" xlink:title=" ">
<polygon fill="white" stroke="red" points="378.5,-760.5 378.5,-779.5 425.5,-779.5 425.5,-760.5 378.5,-760.5"/>
<text text-anchor="middle" x="402" y="-767.5" font-family="Helvetica,sans-Serif" font-size="10.00">makef</text>
</a>
</g>
</g>
<!-- Node8&#45;&gt;Node25 -->
<g id="edge24" class="edge">
<title>Node8&#45;&gt;Node25</title>
<path fill="none" stroke="midnightblue" d="M318.88,-836.76C324.36,-833.97 330.09,-830.66 335,-827 353.65,-813.09 353.04,-803.78 371,-789 372.54,-787.74 374.16,-786.49 375.83,-785.28"/>
<polygon fill="midnightblue" stroke="midnightblue" points="377.97,-788.05 384.3,-779.55 374.05,-782.25 377.97,-788.05"/>
</g>
<!-- Node34 -->
<g id="node24" class="node">
<title>Node34</title>
<g id="a_node24"><a xlink:href="navier1_8f.html#ad1bbe02eb4b6eb1d16f7612e1947dac5" target="_top" xlink:title=" ">
<polygon fill="white" stroke="black" points="375.5,-874.5 375.5,-893.5 428.5,-893.5 428.5,-874.5 375.5,-874.5"/>
<text text-anchor="middle" x="402" y="-881.5" font-family="Helvetica,sans-Serif" font-size="10.00">opadd2</text>
</a>
</g>
</g>
<!-- Node8&#45;&gt;Node34 -->
<g id="edge26" class="edge">
<title>Node8&#45;&gt;Node34</title>
<path fill="none" stroke="midnightblue" d="M318.69,-853.78C332.31,-858.78 350.32,-865.39 366.02,-871.16"/>
<polygon fill="midnightblue" stroke="midnightblue" points="364.85,-874.46 375.44,-874.62 367.26,-867.88 364.85,-874.46"/>
</g>
<!-- Node35 -->
<g id="node25" class="node">
<title>Node35</title>
<g id="a_node25"><a xlink:href="induct_8f.html#a1a8a16f24236d6e6f08fe4d60cb29d01" target="_top" xlink:title=" ">
<polygon fill="white" stroke="black" points="377,-836.5 377,-855.5 427,-855.5 427,-836.5 377,-836.5"/>
<text text-anchor="middle" x="402" y="-843.5" font-family="Helvetica,sans-Serif" font-size="10.00">ophinv</text>
</a>
</g>
</g>
<!-- Node8&#45;&gt;Node35 -->
<g id="edge27" class="edge">
<title>Node8&#45;&gt;Node35</title>
<path fill="none" stroke="midnightblue" d="M318.69,-846C332.57,-846 351.01,-846 366.92,-846"/>
<polygon fill="midnightblue" stroke="midnightblue" points="366.93,-849.5 376.93,-846 366.93,-842.5 366.93,-849.5"/>
</g>
<!-- Node36 -->
<g id="node26" class="node">
<title>Node36</title>
<g id="a_node26"><a xlink:href="subs1_8f.html#ae2376b70f309c6118b4e43df9cbe66b1" target="_top" xlink:title=" ">
<polygon fill="white" stroke="black" points="377,-798.5 377,-817.5 427,-817.5 427,-798.5 377,-798.5"/>
<text text-anchor="middle" x="402" y="-805.5" font-family="Helvetica,sans-Serif" font-size="10.00">sethlm</text>
</a>
</g>
</g>
<!-- Node8&#45;&gt;Node36 -->
<g id="edge28" class="edge">
<title>Node8&#45;&gt;Node36</title>
<path fill="none" stroke="midnightblue" d="M318.69,-838.22C332.7,-833.08 351.36,-826.22 367.37,-820.35"/>
<polygon fill="midnightblue" stroke="midnightblue" points="368.75,-823.57 376.93,-816.84 366.34,-817 368.75,-823.57"/>
</g>
<!-- Node10&#45;&gt;Node5 -->
<g id="edge12" class="edge">
<title>Node10&#45;&gt;Node5</title>
<path fill="none" stroke="midnightblue" d="M423.44,-703.59C427.12,-706.16 430.56,-709.29 433,-713 489.34,-798.73 410.86,-856.47 469,-941 469.64,-941.93 470.33,-942.81 471.08,-943.66"/>
<polygon fill="midnightblue" stroke="midnightblue" points="468.99,-946.48 478.87,-950.3 473.53,-941.15 468.99,-946.48"/>
</g>
<!-- Node10&#45;&gt;Node6 -->
<g id="edge15" class="edge">
<title>Node10&#45;&gt;Node6</title>
<path fill="none" stroke="midnightblue" d="M423.35,-703.65C427.04,-706.22 430.51,-709.33 433,-713 481.3,-784.09 419.21,-832.94 469,-903 469.75,-904.06 470.59,-905.07 471.48,-906.03"/>
<polygon fill="midnightblue" stroke="midnightblue" points="469.35,-908.81 479.3,-912.46 473.8,-903.4 469.35,-908.81"/>
</g>
<!-- Node11 -->
<g id="node11" class="node">
<title>Node11</title>
<g id="a_node11"><a xlink:href="math_8f.html#a30b83d516b6ab162d3fafe73e03a3e92" target="_top" xlink:title=" ">
<polygon fill="white" stroke="black" points="482.5,-532.5 482.5,-551.5 523.5,-551.5 523.5,-532.5 482.5,-532.5"/>
<text text-anchor="middle" x="503" y="-539.5" font-family="Helvetica,sans-Serif" font-size="10.00">add2</text>
</a>
</g>
</g>
<!-- Node10&#45;&gt;Node11 -->
<g id="edge10" class="edge">
<title>Node10&#45;&gt;Node11</title>
<path fill="none" stroke="midnightblue" d="M418.29,-684.46C423.56,-680.53 429.12,-675.59 433,-670 462.12,-628.11 436.77,-600.55 469,-561 470.46,-559.21 472.13,-557.55 473.94,-556.03"/>
<polygon fill="midnightblue" stroke="midnightblue" points="476.18,-558.74 482.42,-550.18 472.2,-552.98 476.18,-558.74"/>
</g>
<!-- Node12 -->
<g id="node12" class="node">
<title>Node12</title>
<g id="a_node12"><a xlink:href="math_8f.html#a1c8c804ea900711911c4c33fe1f5b184" target="_top" xlink:title=" ">
<polygon fill="white" stroke="black" points="472.5,-494.5 472.5,-513.5 533.5,-513.5 533.5,-494.5 472.5,-494.5"/>
<text text-anchor="middle" x="503" y="-501.5" font-family="Helvetica,sans-Serif" font-size="10.00">add2col2</text>
</a>
</g>
</g>
<!-- Node10&#45;&gt;Node12 -->
<g id="edge11" class="edge">
<title>Node10&#45;&gt;Node12</title>
<path fill="none" stroke="midnightblue" d="M418.85,-684.39C424.05,-680.51 429.41,-675.62 433,-670 469.19,-613.3 428.6,-576.78 469,-523 469.78,-521.96 470.64,-520.97 471.55,-520.02"/>
<polygon fill="midnightblue" stroke="midnightblue" points="473.86,-522.65 479.45,-513.66 469.47,-517.2 473.86,-522.65"/>
</g>
<!-- Node13 -->
<g id="node13" class="node">
<title>Node13</title>
<g id="a_node13"><a xlink:href="math_8f.html#ad2b51b68d370651f4f6d81952503e7be" target="_top" xlink:title=" ">
<polygon fill="white" stroke="black" points="481,-874.5 481,-893.5 525,-893.5 525,-874.5 481,-874.5"/>
<text text-anchor="middle" x="503" y="-881.5" font-family="Helvetica,sans-Serif" font-size="10.00">cmult</text>
</a>
</g>
</g>
<!-- Node10&#45;&gt;Node13 -->
<g id="edge13" class="edge">
<title>Node10&#45;&gt;Node13</title>
<path fill="none" stroke="midnightblue" d="M422.91,-703.52C426.73,-706.13 430.35,-709.29 433,-713 473.3,-769.53 427.51,-809.33 469,-865 470.06,-866.42 471.26,-867.75 472.56,-869"/>
<polygon fill="midnightblue" stroke="midnightblue" points="470.7,-871.98 480.79,-875.21 474.92,-866.4 470.7,-871.98"/>
</g>
<!-- Node14 -->
<g id="node14" class="node">
<title>Node14</title>
<g id="a_node14"><a xlink:href="math_8f.html#a3b43508554f14bdea8e14473d7d0803c" target="_top" xlink:title=" ">
<polygon fill="white" stroke="black" points="483,-836.5 483,-855.5 523,-855.5 523,-836.5 483,-836.5"/>
<text text-anchor="middle" x="503" y="-843.5" font-family="Helvetica,sans-Serif" font-size="10.00">copy</text>
</a>
</g>
</g>
<!-- Node10&#45;&gt;Node14 -->
<g id="edge14" class="edge">
<title>Node10&#45;&gt;Node14</title>
<path fill="none" stroke="midnightblue" d="M422.71,-703.67C426.54,-706.27 430.22,-709.38 433,-713 465.41,-755.1 435.71,-785.59 469,-827 470.48,-828.84 472.19,-830.54 474.04,-832.1"/>
<polygon fill="midnightblue" stroke="midnightblue" points="472.5,-835.29 482.73,-838.05 476.46,-829.51 472.5,-835.29"/>
</g>
<!-- Node15 -->
<g id="node15" class="node">
<title>Node15</title>
<g id="a_node15"><a xlink:href="navier0_8f.html#aaba079db7e38db9800deef09526370ec" target="_top" xlink:title=" ">
<polygon fill="white" stroke="black" points="476.5,-798.5 476.5,-817.5 529.5,-817.5 529.5,-798.5 476.5,-798.5"/>
<text text-anchor="middle" x="503" y="-805.5" font-family="Helvetica,sans-Serif" font-size="10.00">esolver</text>
</a>
</g>
</g>
<!-- Node10&#45;&gt;Node15 -->
<g id="edge16" class="edge">
<title>Node10&#45;&gt;Node15</title>
<path fill="none" stroke="midnightblue" d="M421.72,-703.56C425.78,-706.23 429.81,-709.4 433,-713 457.77,-740.99 443.65,-761.54 469,-789 470.04,-790.12 471.16,-791.2 472.33,-792.23"/>
<polygon fill="midnightblue" stroke="midnightblue" points="470.56,-795.26 480.71,-798.3 474.67,-789.59 470.56,-795.26"/>
</g>
<!-- Node16 -->
<g id="node16" class="node">
<title>Node16</title>
<g id="a_node16"><a xlink:href="induct_8f.html#a92d19447dae1fa7af20c94dbf1c09992" target="_top" xlink:title=" ">
<polygon fill="white" stroke="black" points="472.5,-760.5 472.5,-779.5 533.5,-779.5 533.5,-760.5 472.5,-760.5"/>
<text text-anchor="middle" x="503" y="-767.5" font-family="Helvetica,sans-Serif" font-size="10.00">gensolnp</text>
</a>
</g>
</g>
<!-- Node10&#45;&gt;Node16 -->
<g id="edge17" class="edge">
<title>Node10&#45;&gt;Node16</title>
<path fill="none" stroke="midnightblue" d="M419.7,-703.55C424.18,-706.38 428.91,-709.63 433,-713 450.96,-727.78 450.73,-736.6 469,-751 470.77,-752.4 472.66,-753.76 474.6,-755.07"/>
<polygon fill="midnightblue" stroke="midnightblue" points="472.9,-758.13 483.23,-760.45 476.6,-752.19 472.9,-758.13"/>
</g>
<!-- Node17 -->
<g id="node17" class="node">
<title>Node17</title>
<g id="a_node17"><a xlink:href="math_8f.html#a0fcb0ff151fe3548d0d07961e8365efe" target="_top" xlink:title=" ">
<polygon fill="white" stroke="black" points="476.5,-722.5 476.5,-741.5 529.5,-741.5 529.5,-722.5 476.5,-722.5"/>
<text text-anchor="middle" x="503" y="-729.5" font-family="Helvetica,sans-Serif" font-size="10.00">invers2</text>
</a>
</g>
</g>
<!-- Node10&#45;&gt;Node17 -->
<g id="edge18" class="edge">
<title>Node10&#45;&gt;Node17</title>
<path fill="none" stroke="midnightblue" d="M427.98,-703.59C439.94,-708.18 454.45,-713.75 467.45,-718.74"/>
<polygon fill="midnightblue" stroke="midnightblue" points="466.44,-722.1 477.03,-722.41 468.94,-715.56 466.44,-722.1"/>
</g>
<!-- Node18 -->
<g id="node18" class="node">
<title>Node18</title>
<g id="a_node18"><a xlink:href="plan4_8f.html#a8cde16ca4292836a681d1021ada2dc28" target="_top" xlink:title=" ">
<polygon fill="white" stroke="black" points="469,-684.5 469,-703.5 537,-703.5 537,-684.5 469,-684.5"/>
<text text-anchor="middle" x="503" y="-691.5" font-family="Helvetica,sans-Serif" font-size="10.00">opadd2cm</text>
</a>
</g>
</g>
<!-- Node10&#45;&gt;Node18 -->
<g id="edge19" class="edge">
<title>Node10&#45;&gt;Node18</title>
<path fill="none" stroke="midnightblue" d="M433.24,-694C441.25,-694 450.05,-694 458.6,-694"/>
<polygon fill="midnightblue" stroke="midnightblue" points="458.84,-697.5 468.84,-694 458.84,-690.5 458.84,-697.5"/>
</g>
<!-- Node19 -->
<g id="node19" class="node">
<title>Node19</title>
<g id="a_node19"><a xlink:href="navier1_8f.html#a4d7a006ce8ef086e842bc09f74169951" target="_top" xlink:title=" ">
<polygon fill="white" stroke="black" points="478,-646.5 478,-665.5 528,-665.5 528,-646.5 478,-646.5"/>
<text text-anchor="middle" x="503" y="-653.5" font-family="Helvetica,sans-Serif" font-size="10.00">opbinv</text>
</a>
</g>
</g>
<!-- Node10&#45;&gt;Node19 -->
<g id="edge20" class="edge">
<title>Node10&#45;&gt;Node19</title>
<path fill="none" stroke="midnightblue" d="M427.98,-684.41C440.12,-679.75 454.9,-674.08 468.05,-669.03"/>
<polygon fill="midnightblue" stroke="midnightblue" points="469.63,-672.17 477.71,-665.32 467.12,-665.64 469.63,-672.17"/>
</g>
<!-- Node20 -->
<g id="node20" class="node">
<title>Node20</title>
<g id="a_node20"><a xlink:href="navier1_8f.html#a58af49abaf1ee0cc07be356ad2721d90" target="_top" xlink:title=" ">
<polygon fill="white" stroke="black" points="481,-608.5 481,-627.5 525,-627.5 525,-608.5 481,-608.5"/>
<text text-anchor="middle" x="503" y="-615.5" font-family="Helvetica,sans-Serif" font-size="10.00">opdiv</text>
</a>
</g>
</g>
<!-- Node10&#45;&gt;Node20 -->
<g id="edge21" class="edge">
<title>Node10&#45;&gt;Node20</title>
<path fill="none" stroke="midnightblue" d="M415.41,-684.37C420.88,-680.06 427.33,-674.86 433,-670 449.48,-655.88 451.49,-649.83 469,-637 470.86,-635.64 472.83,-634.29 474.84,-632.98"/>
<polygon fill="midnightblue" stroke="midnightblue" points="477.02,-635.76 483.74,-627.56 473.38,-629.78 477.02,-635.76"/>
</g>
<!-- Node21 -->
<g id="node21" class="node">
<title>Node21</title>
<g id="a_node21"><a xlink:href="navier1_8f.html#a0319e77dcb754cfe343f5e1e0a54f8dd" target="_top" xlink:title=" ">
<polygon fill="white" stroke="black" points="476,-570.5 476,-589.5 530,-589.5 530,-570.5 476,-570.5"/>
<text text-anchor="middle" x="503" y="-577.5" font-family="Helvetica,sans-Serif" font-size="10.00">opgradt</text>
</a>
</g>
</g>
<!-- Node10&#45;&gt;Node21 -->
<g id="edge22" class="edge">
<title>Node10&#45;&gt;Node21</title>
<path fill="none" stroke="midnightblue" d="M417.54,-684.36C422.85,-680.35 428.62,-675.38 433,-670 455.32,-642.55 444.66,-624.67 469,-599 470.19,-597.75 471.48,-596.55 472.84,-595.42"/>
<polygon fill="midnightblue" stroke="midnightblue" points="474.97,-598.19 481.13,-589.56 470.94,-592.47 474.97,-598.19"/>
</g>
<!-- Node10&#45;&gt;Node23 -->
<g id="edge23" class="edge">
<title>Node10&#45;&gt;Node23</title>
<path fill="none" stroke="midnightblue" d="M419,-684.48C424.21,-680.62 429.55,-675.71 433,-670 476.36,-598.33 420.31,-553.16 469,-485 470.37,-483.08 472.01,-481.32 473.8,-479.72"/>
<polygon fill="midnightblue" stroke="midnightblue" points="476.21,-482.3 482.39,-473.69 472.19,-476.58 476.21,-482.3"/>
</g>
<!-- Node25&#45;&gt;Node6 -->
<g id="edge25" class="edge">
<title>Node25&#45;&gt;Node6</title>
<path fill="none" stroke="midnightblue" d="M422.71,-779.67C426.54,-782.27 430.22,-785.38 433,-789 465.41,-831.1 435.71,-861.59 469,-903 469.93,-904.16 470.96,-905.26 472.05,-906.31"/>
<polygon fill="midnightblue" stroke="midnightblue" points="469.92,-909.09 479.98,-912.41 474.19,-903.54 469.92,-909.09"/>
</g>
</g>
</svg>
