<?xml version="1.0" encoding="UTF-8" standalone="no"?>
<!DOCTYPE svg PUBLIC "-//W3C//DTD SVG 1.1//EN"
 "http://www.w3.org/Graphics/SVG/1.1/DTD/svg11.dtd">
<!-- Generated by graphviz version 2.40.1 (20161225.0304)
 -->
<!-- Title: incomprn Pages: 1 -->
<svg width="162pt" height="598pt"
 viewBox="0.00 0.00 162.00 598.00" xmlns="http://www.w3.org/2000/svg" xmlns:xlink="http://www.w3.org/1999/xlink">
<g id="graph0" class="graph" transform="scale(1 1) rotate(0) translate(4 594)">
<title>incomprn</title>
<polygon fill="#ffffff" stroke="transparent" points="-4,4 -4,-594 158,-594 158,4 -4,4"/>
<!-- Node40 -->
<g id="node1" class="node">
<title>Node40</title>
<polygon fill="#bfbfbf" stroke="#000000" points="0,-285.5 0,-304.5 56,-304.5 56,-285.5 0,-285.5"/>
<text text-anchor="middle" x="28" y="-292.5" font-family="Helvetica,sans-Serif" font-size="10.00" fill="#000000">incomprn</text>
</g>
<!-- Node41 -->
<g id="node2" class="node">
<title>Node41</title>
<g id="a_node2"><a xlink:href="comm__mpi_8f.html#af06ec29f06aac3f8809e19de2a7e8946" target="_top" xlink:title="dnekclock">
<polygon fill="#ffffff" stroke="#000000" points="92.5,-570.5 92.5,-589.5 153.5,-589.5 153.5,-570.5 92.5,-570.5"/>
<text text-anchor="middle" x="123" y="-577.5" font-family="Helvetica,sans-Serif" font-size="10.00" fill="#000000">dnekclock</text>
</a>
</g>
</g>
<!-- Node40&#45;&gt;Node41 -->
<g id="edge1" class="edge">
<title>Node40&#45;&gt;Node41</title>
<path fill="none" stroke="#191970" d="M29.3236,-304.6969C35.2945,-347.3503 60.7916,-518.0643 92,-561 92.6681,-561.9191 93.3954,-562.8029 94.1705,-563.6517"/>
<polygon fill="#191970" stroke="#191970" points="92.2194,-566.585 102.1185,-570.361 96.7347,-561.236 92.2194,-566.585"/>
</g>
<!-- Node42 -->
<g id="node3" class="node">
<title>Node42</title>
<g id="a_node3"><a xlink:href="math_8f.html#af44de42b023a4a68cd98ea341204342d" target="_top" xlink:title="rzero">
<polygon fill="#ffffff" stroke="#000000" points="104,-532.5 104,-551.5 142,-551.5 142,-532.5 104,-532.5"/>
<text text-anchor="middle" x="123" y="-539.5" font-family="Helvetica,sans-Serif" font-size="10.00" fill="#000000">rzero</text>
</a>
</g>
</g>
<!-- Node40&#45;&gt;Node42 -->
<g id="edge2" class="edge">
<title>Node40&#45;&gt;Node42</title>
<path fill="none" stroke="#191970" d="M28.2769,-304.7712C29.7024,-338.5459 38.4477,-452.1593 92,-523 93.073,-524.4194 94.2855,-525.7565 95.5938,-527.0124"/>
<polygon fill="#191970" stroke="#191970" points="93.7634,-530.0191 103.8303,-533.322 98.0203,-524.4622 93.7634,-530.0191"/>
</g>
<!-- Node43 -->
<g id="node4" class="node">
<title>Node43</title>
<g id="a_node4"><a xlink:href="math_8f.html#a3b43508554f14bdea8e14473d7d0803c" target="_top" xlink:title="copy">
<polygon fill="#ffffff" stroke="#000000" points="104,-494.5 104,-513.5 142,-513.5 142,-494.5 104,-494.5"/>
<text text-anchor="middle" x="123" y="-501.5" font-family="Helvetica,sans-Serif" font-size="10.00" fill="#000000">copy</text>
</a>
</g>
</g>
<!-- Node40&#45;&gt;Node43 -->
<g id="edge3" class="edge">
<title>Node40&#45;&gt;Node43</title>
<path fill="none" stroke="#191970" d="M28.946,-304.795C32.2995,-334.8636 46.0077,-427.2951 92,-485 93.109,-486.3914 94.3496,-487.7068 95.6794,-488.946"/>
<polygon fill="#191970" stroke="#191970" points="93.8856,-491.9772 103.9755,-495.2093 98.1034,-486.3905 93.8856,-491.9772"/>
</g>
<!-- Node44 -->
<g id="node5" class="node">
<title>Node44</title>
<g id="a_node5"><a xlink:href="math_8f.html#a0fcb0ff151fe3548d0d07961e8365efe" target="_top" xlink:title="invers2">
<polygon fill="#ffffff" stroke="#000000" points="99,-456.5 99,-475.5 147,-475.5 147,-456.5 99,-456.5"/>
<text text-anchor="middle" x="123" y="-463.5" font-family="Helvetica,sans-Serif" font-size="10.00" fill="#000000">invers2</text>
</a>
</g>
</g>
<!-- Node40&#45;&gt;Node44 -->
<g id="edge4" class="edge">
<title>Node40&#45;&gt;Node44</title>
<path fill="none" stroke="#191970" d="M29.8917,-304.6331C35.3703,-330.4082 53.3781,-402.0418 92,-447 92.9769,-448.1372 94.0394,-449.2269 95.1631,-450.2682"/>
<polygon fill="#191970" stroke="#191970" points="93.1423,-453.1289 103.2109,-456.4266 97.3963,-447.5699 93.1423,-453.1289"/>
</g>
<!-- Node45 -->
<g id="node6" class="node">
<title>Node45</title>
<g id="a_node6"><a xlink:href="navier1_8f.html#a58af49abaf1ee0cc07be356ad2721d90" target="_top" xlink:title="opdiv">
<polygon fill="#ffffff" stroke="#000000" points="103,-418.5 103,-437.5 143,-437.5 143,-418.5 103,-418.5"/>
<text text-anchor="middle" x="123" y="-425.5" font-family="Helvetica,sans-Serif" font-size="10.00" fill="#000000">opdiv</text>
</a>
</g>
</g>
<!-- Node40&#45;&gt;Node45 -->
<g id="edge5" class="edge">
<title>Node40&#45;&gt;Node45</title>
<path fill="none" stroke="#191970" d="M31.4474,-304.598C39.3795,-325.6217 60.6791,-376.456 92,-409 93.067,-410.1086 94.2118,-411.1784 95.4099,-412.2066"/>
<polygon fill="#191970" stroke="#191970" points="93.6931,-415.287 103.8319,-418.362 97.8236,-409.6355 93.6931,-415.287"/>
</g>
<!-- Node46 -->
<g id="node7" class="node">
<title>Node46</title>
<g id="a_node7"><a xlink:href="math_8f.html#ad2b51b68d370651f4f6d81952503e7be" target="_top" xlink:title="cmult">
<polygon fill="#ffffff" stroke="#000000" points="102.5,-380.5 102.5,-399.5 143.5,-399.5 143.5,-380.5 102.5,-380.5"/>
<text text-anchor="middle" x="123" y="-387.5" font-family="Helvetica,sans-Serif" font-size="10.00" fill="#000000">cmult</text>
</a>
</g>
</g>
<!-- Node40&#45;&gt;Node46 -->
<g id="edge6" class="edge">
<title>Node40&#45;&gt;Node46</title>
<path fill="none" stroke="#191970" d="M34.6298,-304.7419C45.4026,-320.0957 67.9379,-350.3021 92,-371 93.5074,-372.2967 95.1133,-373.5619 96.7704,-374.7838"/>
<polygon fill="#191970" stroke="#191970" points="95.0108,-377.8178 105.2665,-380.4772 98.9076,-372.0028 95.0108,-377.8178"/>
</g>
<!-- Node47 -->
<g id="node8" class="node">
<title>Node47</title>
<g id="a_node8"><a xlink:href="math_8f.html#a1c8c804ea900711911c4c33fe1f5b184" target="_top" xlink:title="add2col2">
<polygon fill="#ffffff" stroke="#000000" points="95,-342.5 95,-361.5 151,-361.5 151,-342.5 95,-342.5"/>
<text text-anchor="middle" x="123" y="-349.5" font-family="Helvetica,sans-Serif" font-size="10.00" fill="#000000">add2col2</text>
</a>
</g>
</g>
<!-- Node40&#45;&gt;Node47 -->
<g id="edge7" class="edge">
<title>Node40&#45;&gt;Node47</title>
<path fill="none" stroke="#191970" d="M44.1155,-304.6693C58.9445,-313.5667 81.1603,-326.8962 98.2411,-337.1446"/>
<polygon fill="#191970" stroke="#191970" points="96.7468,-340.3298 107.1225,-342.4735 100.3484,-334.3273 96.7468,-340.3298"/>
</g>
<!-- Node48 -->
<g id="node9" class="node">
<title>Node48</title>
<g id="a_node9"><a xlink:href="navier1_8f.html#a4905d51f51b57bfec184a6b44f858bdb" target="_top" xlink:title="ortho">
<polygon fill="#ffffff" stroke="#000000" points="104,-304.5 104,-323.5 142,-323.5 142,-304.5 104,-304.5"/>
<text text-anchor="middle" x="123" y="-311.5" font-family="Helvetica,sans-Serif" font-size="10.00" fill="#000000">ortho</text>
</a>
</g>
</g>
<!-- Node40&#45;&gt;Node48 -->
<g id="edge8" class="edge">
<title>Node40&#45;&gt;Node48</title>
<path fill="none" stroke="#191970" d="M56.2459,-300.6492C68.0906,-303.0181 81.8581,-305.7716 93.8027,-308.1605"/>
<polygon fill="#191970" stroke="#191970" points="93.2438,-311.618 103.736,-310.1472 94.6166,-304.7539 93.2438,-311.618"/>
</g>
<!-- Node49 -->
<g id="node10" class="node">
<title>Node49</title>
<g id="a_node10"><a xlink:href="induct_8f.html#a85f2bbdd91096e0df0353ebd6968b71d" target="_top" xlink:title="setrhsp">
<polygon fill="#ffffff" stroke="#000000" points="98.5,-266.5 98.5,-285.5 147.5,-285.5 147.5,-266.5 98.5,-266.5"/>
<text text-anchor="middle" x="123" y="-273.5" font-family="Helvetica,sans-Serif" font-size="10.00" fill="#000000">setrhsp</text>
</a>
</g>
</g>
<!-- Node40&#45;&gt;Node49 -->
<g id="edge9" class="edge">
<title>Node40&#45;&gt;Node49</title>
<path fill="none" stroke="#191970" d="M56.2459,-289.3508C66.255,-287.349 77.637,-285.0726 88.1318,-282.9736"/>
<polygon fill="#191970" stroke="#191970" points="89.1279,-286.3438 98.2472,-280.9506 87.755,-279.4798 89.1279,-286.3438"/>
</g>
<!-- Node50 -->
<g id="node11" class="node">
<title>Node50</title>
<g id="a_node11"><a xlink:href="navier0_8f.html#aaba079db7e38db9800deef09526370ec" target="_top" xlink:title="esolver">
<polygon fill="#ffffff" stroke="#000000" points="99,-228.5 99,-247.5 147,-247.5 147,-228.5 99,-228.5"/>
<text text-anchor="middle" x="123" y="-235.5" font-family="Helvetica,sans-Serif" font-size="10.00" fill="#000000">esolver</text>
</a>
</g>
</g>
<!-- Node40&#45;&gt;Node50 -->
<g id="edge10" class="edge">
<title>Node40&#45;&gt;Node50</title>
<path fill="none" stroke="#191970" d="M44.1155,-285.3307C58.9445,-276.4333 81.1603,-263.1038 98.2411,-252.8554"/>
<polygon fill="#191970" stroke="#191970" points="100.3484,-255.6727 107.1225,-247.5265 96.7468,-249.6702 100.3484,-255.6727"/>
</g>
<!-- Node51 -->
<g id="node12" class="node">
<title>Node51</title>
<g id="a_node12"><a xlink:href="induct_8f.html#a92d19447dae1fa7af20c94dbf1c09992" target="_top" xlink:title="gensolnp">
<polygon fill="#ffffff" stroke="#000000" points="95,-190.5 95,-209.5 151,-209.5 151,-190.5 95,-190.5"/>
<text text-anchor="middle" x="123" y="-197.5" font-family="Helvetica,sans-Serif" font-size="10.00" fill="#000000">gensolnp</text>
</a>
</g>
</g>
<!-- Node40&#45;&gt;Node51 -->
<g id="edge11" class="edge">
<title>Node40&#45;&gt;Node51</title>
<path fill="none" stroke="#191970" d="M34.6298,-285.2581C45.4026,-269.9043 67.9379,-239.6979 92,-219 93.5074,-217.7033 95.1133,-216.4381 96.7704,-215.2162"/>
<polygon fill="#191970" stroke="#191970" points="98.9076,-217.9972 105.2665,-209.5228 95.0108,-212.1822 98.9076,-217.9972"/>
</g>
<!-- Node52 -->
<g id="node13" class="node">
<title>Node52</title>
<g id="a_node13"><a xlink:href="math_8f.html#a30b83d516b6ab162d3fafe73e03a3e92" target="_top" xlink:title="add2">
<polygon fill="#ffffff" stroke="#000000" points="104,-152.5 104,-171.5 142,-171.5 142,-152.5 104,-152.5"/>
<text text-anchor="middle" x="123" y="-159.5" font-family="Helvetica,sans-Serif" font-size="10.00" fill="#000000">add2</text>
</a>
</g>
</g>
<!-- Node40&#45;&gt;Node52 -->
<g id="edge12" class="edge">
<title>Node40&#45;&gt;Node52</title>
<path fill="none" stroke="#191970" d="M31.4474,-285.402C39.3795,-264.3783 60.6791,-213.544 92,-181 93.067,-179.8914 94.2118,-178.8216 95.4099,-177.7934"/>
<polygon fill="#191970" stroke="#191970" points="97.8236,-180.3645 103.8319,-171.638 93.6931,-174.713 97.8236,-180.3645"/>
</g>
<!-- Node53 -->
<g id="node14" class="node">
<title>Node53</title>
<g id="a_node14"><a xlink:href="navier1_8f.html#a0319e77dcb754cfe343f5e1e0a54f8dd" target="_top" xlink:title="opgradt">
<polygon fill="#ffffff" stroke="#000000" points="98.5,-114.5 98.5,-133.5 147.5,-133.5 147.5,-114.5 98.5,-114.5"/>
<text text-anchor="middle" x="123" y="-121.5" font-family="Helvetica,sans-Serif" font-size="10.00" fill="#000000">opgradt</text>
</a>
</g>
</g>
<!-- Node40&#45;&gt;Node53 -->
<g id="edge13" class="edge">
<title>Node40&#45;&gt;Node53</title>
<path fill="none" stroke="#191970" d="M29.8917,-285.3669C35.3703,-259.5918 53.3781,-187.9582 92,-143 92.9769,-141.8628 94.0394,-140.7731 95.1631,-139.7318"/>
<polygon fill="#191970" stroke="#191970" points="97.3963,-142.4301 103.2109,-133.5734 93.1423,-136.8711 97.3963,-142.4301"/>
</g>
<!-- Node54 -->
<g id="node15" class="node">
<title>Node54</title>
<g id="a_node15"><a xlink:href="navier1_8f.html#a4d7a006ce8ef086e842bc09f74169951" target="_top" xlink:title="opbinv">
<polygon fill="#ffffff" stroke="#000000" points="100.5,-76.5 100.5,-95.5 145.5,-95.5 145.5,-76.5 100.5,-76.5"/>
<text text-anchor="middle" x="123" y="-83.5" font-family="Helvetica,sans-Serif" font-size="10.00" fill="#000000">opbinv</text>
</a>
</g>
</g>
<!-- Node40&#45;&gt;Node54 -->
<g id="edge14" class="edge">
<title>Node40&#45;&gt;Node54</title>
<path fill="none" stroke="#191970" d="M28.946,-285.205C32.2995,-255.1364 46.0077,-162.7049 92,-105 92.8188,-103.9726 93.7094,-102.9867 94.6547,-102.0423"/>
<polygon fill="#191970" stroke="#191970" points="97.0653,-104.5961 102.6879,-95.6162 92.6926,-99.1298 97.0653,-104.5961"/>
</g>
<!-- Node55 -->
<g id="node16" class="node">
<title>Node55</title>
<g id="a_node16"><a xlink:href="plan4_8f.html#a8cde16ca4292836a681d1021ada2dc28" target="_top" xlink:title="opadd2cm">
<polygon fill="#ffffff" stroke="#000000" points="92,-38.5 92,-57.5 154,-57.5 154,-38.5 92,-38.5"/>
<text text-anchor="middle" x="123" y="-45.5" font-family="Helvetica,sans-Serif" font-size="10.00" fill="#000000">opadd2cm</text>
</a>
</g>
</g>
<!-- Node40&#45;&gt;Node55 -->
<g id="edge15" class="edge">
<title>Node40&#45;&gt;Node55</title>
<path fill="none" stroke="#191970" d="M28.2769,-285.2288C29.7024,-251.4541 38.4477,-137.8407 92,-67 92.7922,-65.952 93.6606,-64.9488 94.5874,-63.9901"/>
<polygon fill="#191970" stroke="#191970" points="97.0041,-66.5357 102.5445,-57.505 92.5817,-61.1095 97.0041,-66.5357"/>
</g>
<!-- Node56 -->
<g id="node17" class="node">
<title>Node56</title>
<g id="a_node17"><a xlink:href="navier4_8f.html#a43f20a275a318725bfdf9e8eaa0839fa" target="_top" xlink:title="chkptol">
<polygon fill="#ffffff" stroke="#000000" points="99,-.5 99,-19.5 147,-19.5 147,-.5 99,-.5"/>
<text text-anchor="middle" x="123" y="-7.5" font-family="Helvetica,sans-Serif" font-size="10.00" fill="#000000">chkptol</text>
</a>
</g>
</g>
<!-- Node40&#45;&gt;Node56 -->
<g id="edge16" class="edge">
<title>Node40&#45;&gt;Node56</title>
<path fill="none" stroke="#191970" d="M29.3236,-285.3031C35.2945,-242.6497 60.7916,-71.9357 92,-29 92.6681,-28.0809 93.3954,-27.1971 94.1705,-26.3483"/>
<polygon fill="#191970" stroke="#191970" points="96.7347,-28.764 102.1185,-19.639 92.2194,-23.415 96.7347,-28.764"/>
</g>
</g>
</svg>
