<?xml version="1.0" encoding="UTF-8" standalone="no"?>
<!DOCTYPE svg PUBLIC "-//W3C//DTD SVG 1.1//EN"
 "http://www.w3.org/Graphics/SVG/1.1/DTD/svg11.dtd">
<!-- Generated by graphviz version 2.40.1 (20161225.0304)
 -->
<!-- Title: userchk Pages: 1 -->
<svg width="174pt" height="256pt"
 viewBox="0.00 0.00 174.00 256.00" xmlns="http://www.w3.org/2000/svg" xmlns:xlink="http://www.w3.org/1999/xlink">
<g id="graph0" class="graph" transform="scale(1 1) rotate(0) translate(4 252)">
<title>userchk</title>
<polygon fill="#ffffff" stroke="transparent" points="-4,4 -4,-252 170,-252 170,4 -4,4"/>
<!-- Node0 -->
<g id="node1" class="node">
<title>Node0</title>
<polygon fill="#bfbfbf" stroke="#000000" points="0,-114.5 0,-133.5 51,-133.5 51,-114.5 0,-114.5"/>
<text text-anchor="middle" x="25.5" y="-121.5" font-family="Helvetica,sans-Serif" font-size="10.00" fill="#000000">userchk</text>
</g>
<!-- Node1 -->
<g id="node2" class="node">
<title>Node1</title>
<g id="a_node2"><a xlink:href="math_8f.html#a3b43508554f14bdea8e14473d7d0803c" target="_top" xlink:title="copy">
<polygon fill="#ffffff" stroke="#000000" points="107.5,-228.5 107.5,-247.5 145.5,-247.5 145.5,-228.5 107.5,-228.5"/>
<text text-anchor="middle" x="126.5" y="-235.5" font-family="Helvetica,sans-Serif" font-size="10.00" fill="#000000">copy</text>
</a>
</g>
</g>
<!-- Node0&#45;&gt;Node1 -->
<g id="edge1" class="edge">
<title>Node0&#45;&gt;Node1</title>
<path fill="none" stroke="#191970" d="M29.5424,-133.5834C37.8298,-152.2376 58.4023,-193.8008 87,-219 90.2758,-221.8865 94.0673,-224.4335 97.9789,-226.6482"/>
<polygon fill="#191970" stroke="#191970" points="96.6266,-229.8849 107.1375,-231.2163 99.751,-223.6209 96.6266,-229.8849"/>
</g>
<!-- Node2 -->
<g id="node3" class="node">
<title>Node2</title>
<g id="a_node3"><a xlink:href="frame_8f.html#a3b2fa5ca96c4d901949ed15b9e1e459c" target="_top" xlink:title="Start framework. ">
<polygon fill="#ffffff" stroke="#000000" points="93.5,-190.5 93.5,-209.5 159.5,-209.5 159.5,-190.5 93.5,-190.5"/>
<text text-anchor="middle" x="126.5" y="-197.5" font-family="Helvetica,sans-Serif" font-size="10.00" fill="#000000">frame_start</text>
</a>
</g>
</g>
<!-- Node0&#45;&gt;Node2 -->
<g id="edge2" class="edge">
<title>Node0&#45;&gt;Node2</title>
<path fill="none" stroke="#191970" d="M34.3344,-133.831C45.6564,-146.0197 66.3044,-166.9053 87,-181 89.4176,-182.6465 91.9997,-184.2269 94.6423,-185.7239"/>
<polygon fill="#191970" stroke="#191970" points="93.2266,-188.9332 103.7097,-190.4674 96.4714,-182.7307 93.2266,-188.9332"/>
</g>
<!-- Node3 -->
<g id="node4" class="node">
<title>Node3</title>
<g id="a_node4"><a xlink:href="frame_8f.html#a3100879c73f67d2e4449da55049c8eae" target="_top" xlink:title="Simulataion monitoring. ">
<polygon fill="#ffffff" stroke="#000000" points="87,-152.5 87,-171.5 166,-171.5 166,-152.5 87,-152.5"/>
<text text-anchor="middle" x="126.5" y="-159.5" font-family="Helvetica,sans-Serif" font-size="10.00" fill="#000000">frame_monitor</text>
</a>
</g>
</g>
<!-- Node0&#45;&gt;Node3 -->
<g id="edge3" class="edge">
<title>Node0&#45;&gt;Node3</title>
<path fill="none" stroke="#191970" d="M50.9866,-133.589C63.307,-138.2244 78.2849,-143.8596 91.6426,-148.8853"/>
<polygon fill="#191970" stroke="#191970" points="90.4296,-152.1684 101.0216,-152.4141 92.8946,-145.6168 90.4296,-152.1684"/>
</g>
<!-- Node4 -->
<g id="node5" class="node">
<title>Node4</title>
<g id="a_node5"><a xlink:href="group__chkpoint.html#ga2d682999600b8303ea7c4850cb54c9ca" target="_top" xlink:title="Main checkpoint interface. ">
<polygon fill="#ffffff" stroke="#000000" points="93,-114.5 93,-133.5 160,-133.5 160,-114.5 93,-114.5"/>
<text text-anchor="middle" x="126.5" y="-121.5" font-family="Helvetica,sans-Serif" font-size="10.00" fill="#000000">chkpt_main</text>
</a>
</g>
</g>
<!-- Node0&#45;&gt;Node4 -->
<g id="edge4" class="edge">
<title>Node0&#45;&gt;Node4</title>
<path fill="none" stroke="#191970" d="M51.2479,-124C60.8146,-124 71.9558,-124 82.6869,-124"/>
<polygon fill="#191970" stroke="#191970" points="82.7851,-127.5001 92.7851,-124 82.7851,-120.5001 82.7851,-127.5001"/>
</g>
<!-- Node5 -->
<g id="node6" class="node">
<title>Node5</title>
<g id="a_node6"><a xlink:href="group__stat.html#ga16cd0d213c2bea15c7caf8c205241388" target="_top" xlink:title="Main interface of statistics module. ">
<polygon fill="#ffffff" stroke="#000000" points="99.5,-76.5 99.5,-95.5 153.5,-95.5 153.5,-76.5 99.5,-76.5"/>
<text text-anchor="middle" x="126.5" y="-83.5" font-family="Helvetica,sans-Serif" font-size="10.00" fill="#000000">stat_avg</text>
</a>
</g>
</g>
<!-- Node0&#45;&gt;Node5 -->
<g id="edge5" class="edge">
<title>Node0&#45;&gt;Node5</title>
<path fill="none" stroke="#191970" d="M50.9866,-114.411C63.307,-109.7756 78.2849,-104.1404 91.6426,-99.1147"/>
<polygon fill="#191970" stroke="#191970" points="92.8946,-102.3832 101.0216,-95.5859 90.4296,-95.8316 92.8946,-102.3832"/>
</g>
<!-- Node6 -->
<g id="node7" class="node">
<title>Node6</title>
<g id="a_node7"><a xlink:href="frame_8f.html#a81cd9de9df55590aae9e54090dd1a3ce" target="_top" xlink:title="Finalise framework. ">
<polygon fill="#ffffff" stroke="#000000" points="95.5,-38.5 95.5,-57.5 157.5,-57.5 157.5,-38.5 95.5,-38.5"/>
<text text-anchor="middle" x="126.5" y="-45.5" font-family="Helvetica,sans-Serif" font-size="10.00" fill="#000000">frame_end</text>
</a>
</g>
</g>
<!-- Node0&#45;&gt;Node6 -->
<g id="edge6" class="edge">
<title>Node0&#45;&gt;Node6</title>
<path fill="none" stroke="#191970" d="M34.3344,-114.169C45.6564,-101.9803 66.3044,-81.0947 87,-67 89.4176,-65.3535 91.9997,-63.7731 94.6423,-62.2761"/>
<polygon fill="#191970" stroke="#191970" points="96.4714,-65.2693 103.7097,-57.5326 93.2266,-59.0668 96.4714,-65.2693"/>
</g>
<!-- Node7 -->
<g id="node8" class="node">
<title>Node7</title>
<g id="a_node8"><a xlink:href="prepost_8f.html#aacb528c0b28bc79dff8db48d7ae9ac64" target="_top" xlink:title="outpost">
<polygon fill="#ffffff" stroke="#000000" points="102,-.5 102,-19.5 151,-19.5 151,-.5 102,-.5"/>
<text text-anchor="middle" x="126.5" y="-7.5" font-family="Helvetica,sans-Serif" font-size="10.00" fill="#000000">outpost</text>
</a>
</g>
</g>
<!-- Node0&#45;&gt;Node7 -->
<g id="edge7" class="edge">
<title>Node0&#45;&gt;Node7</title>
<path fill="none" stroke="#191970" d="M29.5424,-114.4166C37.8298,-95.7624 58.4023,-54.1992 87,-29 88.8984,-27.3272 90.97,-25.7684 93.1378,-24.3223"/>
<polygon fill="#191970" stroke="#191970" points="94.9122,-27.3393 101.8126,-19.2997 91.4047,-21.2814 94.9122,-27.3393"/>
</g>
</g>
</svg>
