<?xml version="1.0" encoding="UTF-8" standalone="no"?>
<!DOCTYPE svg PUBLIC "-//W3C//DTD SVG 1.1//EN"
 "http://www.w3.org/Graphics/SVG/1.1/DTD/svg11.dtd">
<!-- Generated by graphviz version 2.40.1 (20161225.0304)
 -->
<!-- Title: mxm Pages: 1 -->
<svg width="157pt" height="218pt"
 viewBox="0.00 0.00 157.00 218.00" xmlns="http://www.w3.org/2000/svg" xmlns:xlink="http://www.w3.org/1999/xlink">
<g id="graph0" class="graph" transform="scale(1 1) rotate(0) translate(4 214)">
<title>mxm</title>
<polygon fill="#ffffff" stroke="transparent" points="-4,4 -4,-214 153,-214 153,4 -4,4"/>
<!-- Node27 -->
<g id="node1" class="node">
<title>Node27</title>
<polygon fill="#bfbfbf" stroke="#000000" points="0,-95.5 0,-114.5 38,-114.5 38,-95.5 0,-95.5"/>
<text text-anchor="middle" x="19" y="-102.5" font-family="Helvetica,sans-Serif" font-size="10.00" fill="#000000">mxm</text>
</g>
<!-- Node28 -->
<g id="node2" class="node">
<title>Node28</title>
<g id="a_node2"><a xlink:href="comm__mpi_8f.html#af06ec29f06aac3f8809e19de2a7e8946" target="_top" xlink:title="dnekclock">
<polygon fill="#ffffff" stroke="#000000" points="81,-190.5 81,-209.5 142,-209.5 142,-190.5 81,-190.5"/>
<text text-anchor="middle" x="111.5" y="-197.5" font-family="Helvetica,sans-Serif" font-size="10.00" fill="#000000">dnekclock</text>
</a>
</g>
</g>
<!-- Node27&#45;&gt;Node28 -->
<g id="edge1" class="edge">
<title>Node27&#45;&gt;Node28</title>
<path fill="none" stroke="#191970" d="M23.92,-114.5276C32.3661,-130.1232 50.9603,-161.3302 74,-181 75.7138,-182.4631 77.5596,-183.8497 79.4808,-185.1569"/>
<polygon fill="#191970" stroke="#191970" points="77.8296,-188.2474 88.2095,-190.371 81.4194,-182.238 77.8296,-188.2474"/>
</g>
<!-- Node29 -->
<g id="node3" class="node">
<title>Node29</title>
<g id="a_node3"><a xlink:href="mxm__bgq_8f.html#a8faaef428336095704ece51624bbfe92" target="_top" xlink:title="mxm_bgq_8">
<polygon fill="#ffffff" stroke="#000000" points="76.5,-152.5 76.5,-171.5 146.5,-171.5 146.5,-152.5 76.5,-152.5"/>
<text text-anchor="middle" x="111.5" y="-159.5" font-family="Helvetica,sans-Serif" font-size="10.00" fill="#000000">mxm_bgq_8</text>
</a>
</g>
</g>
<!-- Node27&#45;&gt;Node29 -->
<g id="edge2" class="edge">
<title>Node27&#45;&gt;Node29</title>
<path fill="none" stroke="#191970" d="M31.7851,-114.5709C42.728,-122.5813 59.0394,-134.0975 74,-143 76.6734,-144.5909 79.4962,-146.1787 82.3445,-147.7204"/>
<polygon fill="#191970" stroke="#191970" points="80.8933,-150.911 91.3779,-152.4352 84.1322,-144.7054 80.8933,-150.911"/>
</g>
<!-- Node30 -->
<g id="node4" class="node">
<title>Node30</title>
<g id="a_node4"><a xlink:href="mxm__bgq_8f.html#a3fda9ea4bc7a5713a19d6939fa2b541f" target="_top" xlink:title="mxm_bgq_16">
<polygon fill="#ffffff" stroke="#000000" points="74,-114.5 74,-133.5 149,-133.5 149,-114.5 74,-114.5"/>
<text text-anchor="middle" x="111.5" y="-121.5" font-family="Helvetica,sans-Serif" font-size="10.00" fill="#000000">mxm_bgq_16</text>
</a>
</g>
</g>
<!-- Node27&#45;&gt;Node30 -->
<g id="edge3" class="edge">
<title>Node27&#45;&gt;Node30</title>
<path fill="none" stroke="#191970" d="M38.1661,-108.9368C45.7052,-110.4854 54.7267,-112.3385 63.822,-114.2067"/>
<polygon fill="#191970" stroke="#191970" points="63.1539,-117.6424 73.6536,-116.2261 64.5624,-110.7856 63.1539,-117.6424"/>
</g>
<!-- Node31 -->
<g id="node5" class="node">
<title>Node31</title>
<g id="a_node5"><a xlink:href="mxm__bgq_8f.html#a8a70163b4dbfdbfcce7bff170597fcad" target="_top" xlink:title="mxm_bgq_10">
<polygon fill="#ffffff" stroke="#000000" points="74,-76.5 74,-95.5 149,-95.5 149,-76.5 74,-76.5"/>
<text text-anchor="middle" x="111.5" y="-83.5" font-family="Helvetica,sans-Serif" font-size="10.00" fill="#000000">mxm_bgq_10</text>
</a>
</g>
</g>
<!-- Node27&#45;&gt;Node31 -->
<g id="edge4" class="edge">
<title>Node27&#45;&gt;Node31</title>
<path fill="none" stroke="#191970" d="M38.1661,-101.0632C45.7052,-99.5146 54.7267,-97.6615 63.822,-95.7933"/>
<polygon fill="#191970" stroke="#191970" points="64.5624,-99.2144 73.6536,-93.7739 63.1539,-92.3576 64.5624,-99.2144"/>
</g>
<!-- Node32 -->
<g id="node6" class="node">
<title>Node32</title>
<g id="a_node6"><a xlink:href="mxm__bgq_8f.html#af192c3c8b982aa5bbc2a757156718a91" target="_top" xlink:title="mxm_bgq_6">
<polygon fill="#ffffff" stroke="#000000" points="76.5,-38.5 76.5,-57.5 146.5,-57.5 146.5,-38.5 76.5,-38.5"/>
<text text-anchor="middle" x="111.5" y="-45.5" font-family="Helvetica,sans-Serif" font-size="10.00" fill="#000000">mxm_bgq_6</text>
</a>
</g>
</g>
<!-- Node27&#45;&gt;Node32 -->
<g id="edge5" class="edge">
<title>Node27&#45;&gt;Node32</title>
<path fill="none" stroke="#191970" d="M31.7851,-95.4291C42.728,-87.4187 59.0394,-75.9025 74,-67 76.6734,-65.4091 79.4962,-63.8213 82.3445,-62.2796"/>
<polygon fill="#191970" stroke="#191970" points="84.1322,-65.2946 91.3779,-57.5648 80.8933,-59.089 84.1322,-65.2946"/>
</g>
<!-- Node33 -->
<g id="node7" class="node">
<title>Node33</title>
<g id="a_node7"><a xlink:href="mxm__std_8f.html#aa9e8685c4a72f18fb5d1ee88ed17a3d6" target="_top" xlink:title="mxmf2">
<polygon fill="#ffffff" stroke="#000000" points="88,-.5 88,-19.5 135,-19.5 135,-.5 88,-.5"/>
<text text-anchor="middle" x="111.5" y="-7.5" font-family="Helvetica,sans-Serif" font-size="10.00" fill="#000000">mxmf2</text>
</a>
</g>
</g>
<!-- Node27&#45;&gt;Node33 -->
<g id="edge6" class="edge">
<title>Node27&#45;&gt;Node33</title>
<path fill="none" stroke="#191970" d="M23.92,-95.4724C32.3661,-79.8768 50.9603,-48.6698 74,-29 75.7138,-27.5369 77.5596,-26.1503 79.4808,-24.8431"/>
<polygon fill="#191970" stroke="#191970" points="81.4194,-27.762 88.2095,-19.629 77.8296,-21.7526 81.4194,-27.762"/>
</g>
</g>
</svg>
