<?xml version="1.0" encoding="UTF-8" standalone="no"?>
<!DOCTYPE svg PUBLIC "-//W3C//DTD SVG 1.1//EN"
 "http://www.w3.org/Graphics/SVG/1.1/DTD/svg11.dtd">
<!-- Generated by graphviz version 2.43.0 (0)
 -->
<!-- Title: pen_register Pages: 1 -->
<svg width="255pt" height="370pt"
 viewBox="0.00 0.00 255.00 370.00" xmlns="http://www.w3.org/2000/svg" xmlns:xlink="http://www.w3.org/1999/xlink">
<g id="graph0" class="graph" transform="scale(1 1) rotate(0) translate(4 366)">
<title>pen_register</title>
<polygon fill="white" stroke="transparent" points="-4,4 -4,-366 251,-366 251,4 -4,4"/>
<!-- Node1 -->
<g id="node1" class="node">
<title>Node1</title>
<g id="a_node1"><a xlink:title="Register penalty module.">
<polygon fill="#bfbfbf" stroke="black" points="0,-171.5 0,-190.5 77,-190.5 77,-171.5 0,-171.5"/>
<text text-anchor="middle" x="38.5" y="-178.5" font-family="Helvetica,sans-Serif" font-size="10.00">pen_register</text>
</a>
</g>
</g>
<!-- Node2 -->
<g id="node2" class="node">
<title>Node2</title>
<g id="a_node2"><a xlink:href="group__monitor.html#ga4fd2fb5339a1f242f4900151dd84d1bf" target="_top" xlink:title="Abort simulation.">
<polygon fill="white" stroke="black" points="144.5,-342.5 144.5,-361.5 215.5,-361.5 215.5,-342.5 144.5,-342.5"/>
<text text-anchor="middle" x="180" y="-349.5" font-family="Helvetica,sans-Serif" font-size="10.00">mntr_abort</text>
</a>
</g>
</g>
<!-- Node1&#45;&gt;Node2 -->
<g id="edge1" class="edge">
<title>Node1&#45;&gt;Node2</title>
<path fill="none" stroke="midnightblue" d="M41.37,-190.88C47,-217.92 66.38,-293.71 113,-333 119.29,-338.3 126.98,-342.12 134.86,-344.88"/>
<polygon fill="midnightblue" stroke="midnightblue" points="133.9,-348.25 144.48,-347.74 135.89,-341.54 133.9,-348.25"/>
</g>
<!-- Node3 -->
<g id="node3" class="node">
<title>Node3</title>
<g id="a_node3"><a xlink:href="group__monitor.html#ga269486082a4638007da6211cc7b5e7c5" target="_top" xlink:title="Check if module name is registered and return its id.">
<polygon fill="white" stroke="black" points="113,-304.5 113,-323.5 247,-323.5 247,-304.5 113,-304.5"/>
<text text-anchor="middle" x="180" y="-311.5" font-family="Helvetica,sans-Serif" font-size="10.00">mntr_mod_is_name_reg</text>
</a>
</g>
</g>
<!-- Node1&#45;&gt;Node3 -->
<g id="edge2" class="edge">
<title>Node1&#45;&gt;Node3</title>
<path fill="none" stroke="midnightblue" d="M42.96,-190.61C51.37,-212.59 75.01,-266.76 113,-295 115.63,-296.96 118.46,-298.71 121.41,-300.29"/>
<polygon fill="midnightblue" stroke="midnightblue" points="120.02,-303.5 130.56,-304.49 122.94,-297.14 120.02,-303.5"/>
</g>
<!-- Node4 -->
<g id="node4" class="node">
<title>Node4</title>
<g id="a_node4"><a xlink:href="group__monitor.html#ga867167eade1153eaa8ff63884b147f97" target="_top" xlink:title="Register new module.">
<polygon fill="white" stroke="black" points="136,-266.5 136,-285.5 224,-285.5 224,-266.5 136,-266.5"/>
<text text-anchor="middle" x="180" y="-273.5" font-family="Helvetica,sans-Serif" font-size="10.00">mntr_mod_reg</text>
</a>
</g>
</g>
<!-- Node1&#45;&gt;Node4 -->
<g id="edge3" class="edge">
<title>Node1&#45;&gt;Node4</title>
<path fill="none" stroke="midnightblue" d="M46.23,-190.73C57.92,-206.92 83.58,-239.32 113,-257 117.13,-259.48 121.59,-261.65 126.19,-263.55"/>
<polygon fill="midnightblue" stroke="midnightblue" points="125.15,-266.89 135.74,-267.07 127.57,-260.33 125.15,-266.89"/>
</g>
<!-- Node5 -->
<g id="node5" class="node">
<title>Node5</title>
<g id="a_node5"><a xlink:href="group__monitor.html#ga214aa24b6e79b5d041c124701ca13d8b" target="_top" xlink:title="Check if timer id is registered. This operation is performed locally.">
<polygon fill="white" stroke="black" points="137,-228.5 137,-247.5 223,-247.5 223,-228.5 137,-228.5"/>
<text text-anchor="middle" x="180" y="-235.5" font-family="Helvetica,sans-Serif" font-size="10.00">mntr_tmr_add</text>
</a>
</g>
</g>
<!-- Node1&#45;&gt;Node5 -->
<g id="edge4" class="edge">
<title>Node1&#45;&gt;Node5</title>
<path fill="none" stroke="midnightblue" d="M55.7,-190.56C70.31,-198.89 92.58,-210.87 113,-219 118.82,-221.31 125.02,-223.48 131.21,-225.46"/>
<polygon fill="midnightblue" stroke="midnightblue" points="130.29,-228.83 140.88,-228.41 132.33,-222.14 130.29,-228.83"/>
</g>
<!-- Node6 -->
<g id="node6" class="node">
<title>Node6</title>
<g id="a_node6"><a xlink:href="group__monitor.html#ga0e58e9dcba8cb0605934b9fa01b12410" target="_top" xlink:title="Check if timer name is registered and return its id.">
<polygon fill="white" stroke="black" points="115,-190.5 115,-209.5 245,-209.5 245,-190.5 115,-190.5"/>
<text text-anchor="middle" x="180" y="-197.5" font-family="Helvetica,sans-Serif" font-size="10.00">mntr_tmr_is_name_reg</text>
</a>
</g>
</g>
<!-- Node1&#45;&gt;Node6 -->
<g id="edge5" class="edge">
<title>Node1&#45;&gt;Node6</title>
<path fill="none" stroke="midnightblue" d="M77.25,-186.14C85.87,-187.32 95.33,-188.6 104.9,-189.91"/>
<polygon fill="midnightblue" stroke="midnightblue" points="104.5,-193.38 114.88,-191.27 105.44,-186.45 104.5,-193.38"/>
</g>
<!-- Node7 -->
<g id="node7" class="node">
<title>Node7</title>
<g id="a_node7"><a xlink:href="group__monitor.html#gac31ffd80c32ff32970de39e08c58bb26" target="_top" xlink:title="Register new timer.">
<polygon fill="white" stroke="black" points="138.5,-152.5 138.5,-171.5 221.5,-171.5 221.5,-152.5 138.5,-152.5"/>
<text text-anchor="middle" x="180" y="-159.5" font-family="Helvetica,sans-Serif" font-size="10.00">mntr_tmr_reg</text>
</a>
</g>
</g>
<!-- Node1&#45;&gt;Node7 -->
<g id="edge6" class="edge">
<title>Node1&#45;&gt;Node7</title>
<path fill="none" stroke="midnightblue" d="M77.25,-175.86C92.89,-173.73 111.26,-171.23 128.06,-168.94"/>
<polygon fill="midnightblue" stroke="midnightblue" points="128.85,-172.36 138.28,-167.55 127.9,-165.43 128.85,-172.36"/>
</g>
<!-- Node8 -->
<g id="node8" class="node">
<title>Node8</title>
<g id="a_node8"><a xlink:href="group__monitor.html#ga19967e912d1d55605f4be8da607d9f63" target="_top" xlink:title="Write warning message.">
<polygon fill="white" stroke="black" points="145.5,-114.5 145.5,-133.5 214.5,-133.5 214.5,-114.5 145.5,-114.5"/>
<text text-anchor="middle" x="180" y="-121.5" font-family="Helvetica,sans-Serif" font-size="10.00">mntr_warn</text>
</a>
</g>
</g>
<!-- Node1&#45;&gt;Node8 -->
<g id="edge7" class="edge">
<title>Node1&#45;&gt;Node8</title>
<path fill="none" stroke="midnightblue" d="M55.7,-171.44C70.31,-163.11 92.58,-151.13 113,-143 120.16,-140.15 127.92,-137.53 135.51,-135.2"/>
<polygon fill="midnightblue" stroke="midnightblue" points="136.73,-138.49 145.33,-132.31 134.75,-131.77 136.73,-138.49"/>
</g>
<!-- Node9 -->
<g id="node9" class="node">
<title>Node9</title>
<g id="a_node9"><a xlink:href="group__runparam.html#gac4d4e37bd7bfbeb6521d7f3ddae634e9" target="_top" xlink:title="Register new runtime parameter.">
<polygon fill="white" stroke="black" points="142,-76.5 142,-95.5 218,-95.5 218,-76.5 142,-76.5"/>
<text text-anchor="middle" x="180" y="-83.5" font-family="Helvetica,sans-Serif" font-size="10.00">rprm_rp_reg</text>
</a>
</g>
</g>
<!-- Node1&#45;&gt;Node9 -->
<g id="edge8" class="edge">
<title>Node1&#45;&gt;Node9</title>
<path fill="none" stroke="midnightblue" d="M46.23,-171.27C57.92,-155.08 83.58,-122.68 113,-105 118.91,-101.45 125.51,-98.54 132.19,-96.15"/>
<polygon fill="midnightblue" stroke="midnightblue" points="133.51,-99.4 141.97,-93.02 131.38,-92.73 133.51,-99.4"/>
</g>
<!-- Node10 -->
<g id="node10" class="node">
<title>Node10</title>
<g id="a_node10"><a xlink:href="group__runparam.html#gaf31b3ce9a658c84a704cd3af30cc2878" target="_top" xlink:title="Register new parameter section.">
<polygon fill="white" stroke="black" points="138.5,-38.5 138.5,-57.5 221.5,-57.5 221.5,-38.5 138.5,-38.5"/>
<text text-anchor="middle" x="180" y="-45.5" font-family="Helvetica,sans-Serif" font-size="10.00">rprm_sec_reg</text>
</a>
</g>
</g>
<!-- Node1&#45;&gt;Node10 -->
<g id="edge9" class="edge">
<title>Node1&#45;&gt;Node10</title>
<path fill="none" stroke="midnightblue" d="M42.96,-171.39C51.37,-149.41 75.01,-95.24 113,-67 117.78,-63.45 123.21,-60.55 128.85,-58.2"/>
<polygon fill="midnightblue" stroke="midnightblue" points="130.25,-61.42 138.47,-54.74 127.88,-54.84 130.25,-61.42"/>
</g>
<!-- Node11 -->
<g id="node11" class="node">
<title>Node11</title>
<g id="a_node11"><a xlink:href="group__runparam.html#gad2f06ecda0c6e0973b91d0f00ea27ad7" target="_top" xlink:title="Set section&#39;s activation flag. Master value is broadcasted.">
<polygon fill="white" stroke="black" points="129,-0.5 129,-19.5 231,-19.5 231,-0.5 129,-0.5"/>
<text text-anchor="middle" x="180" y="-7.5" font-family="Helvetica,sans-Serif" font-size="10.00">rprm_sec_set_act</text>
</a>
</g>
</g>
<!-- Node1&#45;&gt;Node11 -->
<g id="edge10" class="edge">
<title>Node1&#45;&gt;Node11</title>
<path fill="none" stroke="midnightblue" d="M41.37,-171.12C47,-144.08 66.38,-68.29 113,-29 115.03,-27.29 117.22,-25.73 119.5,-24.31"/>
<polygon fill="midnightblue" stroke="midnightblue" points="121.5,-27.21 128.76,-19.5 118.27,-21 121.5,-27.21"/>
</g>
</g>
</svg>
