<?xml version="1.0" encoding="UTF-8" standalone="no"?>
<!DOCTYPE svg PUBLIC "-//W3C//DTD SVG 1.1//EN"
 "http://www.w3.org/Graphics/SVG/1.1/DTD/svg11.dtd">
<!-- Generated by graphviz version 2.43.0 (0)
 -->
<!-- Title: makef Pages: 1 -->
<svg width="157pt" height="332pt"
 viewBox="0.00 0.00 157.00 332.00" xmlns="http://www.w3.org/2000/svg" xmlns:xlink="http://www.w3.org/1999/xlink">
<g id="graph0" class="graph" transform="scale(1 1) rotate(0) translate(4 328)">
<title>makef</title>
<polygon fill="white" stroke="transparent" points="-4,4 -4,-328 153,-328 153,4 -4,4"/>
<!-- Node1 -->
<g id="node1" class="node">
<title>Node1</title>
<g id="a_node1"><a xlink:title=" ">
<polygon fill="#bfbfbf" stroke="black" points="0,-152.5 0,-171.5 47,-171.5 47,-152.5 0,-152.5"/>
<text text-anchor="middle" x="23.5" y="-159.5" font-family="Helvetica,sans-Serif" font-size="10.00">makef</text>
</a>
</g>
</g>
<!-- Node2 -->
<g id="node2" class="node">
<title>Node2</title>
<g id="a_node2"><a xlink:href="mvmesh_8f.html#a1b9c194ae1f554f335f3d6c21eacded3" target="_top" xlink:title=" ">
<polygon fill="white" stroke="black" points="85,-304.5 85,-323.5 147,-323.5 147,-304.5 85,-304.5"/>
<text text-anchor="middle" x="116" y="-311.5" font-family="Helvetica,sans-Serif" font-size="10.00">admeshv</text>
</a>
</g>
</g>
<!-- Node1&#45;&gt;Node2 -->
<g id="edge1" class="edge">
<title>Node1&#45;&gt;Node2</title>
<path fill="none" stroke="midnightblue" d="M26.62,-171.81C32.16,-195.49 49.05,-256.66 83,-295 84.02,-296.15 85.12,-297.25 86.29,-298.3"/>
<polygon fill="midnightblue" stroke="midnightblue" points="84.5,-301.33 94.61,-304.48 88.67,-295.71 84.5,-301.33"/>
</g>
<!-- Node3 -->
<g id="node3" class="node">
<title>Node3</title>
<g id="a_node3"><a xlink:href="navier1_8f.html#a344ec731e4a89d0f136c91bc1963e8d5" target="_top" xlink:title=" ">
<polygon fill="white" stroke="black" points="92.5,-266.5 92.5,-285.5 139.5,-285.5 139.5,-266.5 92.5,-266.5"/>
<text text-anchor="middle" x="116" y="-273.5" font-family="Helvetica,sans-Serif" font-size="10.00">advab</text>
</a>
</g>
</g>
<!-- Node1&#45;&gt;Node3 -->
<g id="edge2" class="edge">
<title>Node1&#45;&gt;Node3</title>
<path fill="none" stroke="midnightblue" d="M28.54,-171.66C36.64,-190.1 56.35,-230.78 83,-257 84.23,-258.22 85.56,-259.38 86.95,-260.5"/>
<polygon fill="midnightblue" stroke="midnightblue" points="85.11,-263.49 95.31,-266.34 89.12,-257.75 85.11,-263.49"/>
</g>
<!-- Node4 -->
<g id="node4" class="node">
<title>Node4</title>
<g id="a_node4"><a xlink:href="convect_8f.html#afc0b2ce765c4ad0f0ec6f2a62536bf57" target="_top" xlink:title=" ">
<polygon fill="white" stroke="black" points="88,-228.5 88,-247.5 144,-247.5 144,-228.5 88,-228.5"/>
<text text-anchor="middle" x="116" y="-235.5" font-family="Helvetica,sans-Serif" font-size="10.00">advchar</text>
</a>
</g>
</g>
<!-- Node1&#45;&gt;Node4 -->
<g id="edge3" class="edge">
<title>Node1&#45;&gt;Node4</title>
<path fill="none" stroke="midnightblue" d="M33.01,-171.59C43.89,-183.53 63.64,-204.16 83,-219 84.79,-220.37 86.69,-221.73 88.63,-223.04"/>
<polygon fill="midnightblue" stroke="midnightblue" points="86.92,-226.09 97.24,-228.46 90.65,-220.17 86.92,-226.09"/>
</g>
<!-- Node5 -->
<g id="node5" class="node">
<title>Node5</title>
<g id="a_node5"><a xlink:href="comm__mpi_8f.html#af06ec29f06aac3f8809e19de2a7e8946" target="_top" xlink:title=" ">
<polygon fill="white" stroke="black" points="83,-190.5 83,-209.5 149,-209.5 149,-190.5 83,-190.5"/>
<text text-anchor="middle" x="116" y="-197.5" font-family="Helvetica,sans-Serif" font-size="10.00">dnekclock</text>
</a>
</g>
</g>
<!-- Node1&#45;&gt;Node5 -->
<g id="edge4" class="edge">
<title>Node1&#45;&gt;Node5</title>
<path fill="none" stroke="midnightblue" d="M47.34,-171.59C58.06,-176.09 71.02,-181.53 82.72,-186.44"/>
<polygon fill="midnightblue" stroke="midnightblue" points="81.6,-189.77 92.17,-190.41 84.31,-183.32 81.6,-189.77"/>
</g>
<!-- Node6 -->
<g id="node6" class="node">
<title>Node6</title>
<g id="a_node6"><a xlink:href="hpf_8f.html#aa74c82c5e339de802f489470b23422a0" target="_top" xlink:title=" ">
<polygon fill="white" stroke="black" points="83.5,-152.5 83.5,-171.5 148.5,-171.5 148.5,-152.5 83.5,-152.5"/>
<text text-anchor="middle" x="116" y="-159.5" font-family="Helvetica,sans-Serif" font-size="10.00">make_hpf</text>
</a>
</g>
</g>
<!-- Node1&#45;&gt;Node6 -->
<g id="edge5" class="edge">
<title>Node1&#45;&gt;Node6</title>
<path fill="none" stroke="midnightblue" d="M47.34,-162C55.17,-162 64.19,-162 73.05,-162"/>
<polygon fill="midnightblue" stroke="midnightblue" points="73.28,-165.5 83.28,-162 73.28,-158.5 73.28,-165.5"/>
</g>
<!-- Node7 -->
<g id="node7" class="node">
<title>Node7</title>
<g id="a_node7"><a xlink:href="navier1_8f.html#ab907b0b4f57c160c86799b03de3cef19" target="_top" xlink:title=" ">
<polygon fill="white" stroke="black" points="86.5,-114.5 86.5,-133.5 145.5,-133.5 145.5,-114.5 86.5,-114.5"/>
<text text-anchor="middle" x="116" y="-121.5" font-family="Helvetica,sans-Serif" font-size="10.00">makeabf</text>
</a>
</g>
</g>
<!-- Node1&#45;&gt;Node7 -->
<g id="edge6" class="edge">
<title>Node1&#45;&gt;Node7</title>
<path fill="none" stroke="midnightblue" d="M47.34,-152.41C58.06,-147.91 71.02,-142.47 82.72,-137.56"/>
<polygon fill="midnightblue" stroke="midnightblue" points="84.31,-140.68 92.17,-133.59 81.6,-134.23 84.31,-140.68"/>
</g>
<!-- Node8 -->
<g id="node8" class="node">
<title>Node8</title>
<g id="a_node8"><a xlink:href="navier1_8f.html#a0510a60155ebc71a3acda4b1e7e507e5" target="_top" xlink:title=" ">
<polygon fill="white" stroke="black" points="86.5,-76.5 86.5,-95.5 145.5,-95.5 145.5,-76.5 86.5,-76.5"/>
<text text-anchor="middle" x="116" y="-83.5" font-family="Helvetica,sans-Serif" font-size="10.00">makebdf</text>
</a>
</g>
</g>
<!-- Node1&#45;&gt;Node8 -->
<g id="edge7" class="edge">
<title>Node1&#45;&gt;Node8</title>
<path fill="none" stroke="midnightblue" d="M33.01,-152.41C43.89,-140.47 63.64,-119.84 83,-105 84.79,-103.63 86.69,-102.27 88.63,-100.96"/>
<polygon fill="midnightblue" stroke="midnightblue" points="90.65,-103.83 97.24,-95.54 86.92,-97.91 90.65,-103.83"/>
</g>
<!-- Node9 -->
<g id="node9" class="node">
<title>Node9</title>
<g id="a_node9"><a xlink:href="navier1_8f.html#a04edbb4ba3cfada4513a76a4e65a5561" target="_top" xlink:title=" ">
<polygon fill="white" stroke="black" points="89.5,-38.5 89.5,-57.5 142.5,-57.5 142.5,-38.5 89.5,-38.5"/>
<text text-anchor="middle" x="116" y="-45.5" font-family="Helvetica,sans-Serif" font-size="10.00">makeuf</text>
</a>
</g>
</g>
<!-- Node1&#45;&gt;Node9 -->
<g id="edge8" class="edge">
<title>Node1&#45;&gt;Node9</title>
<path fill="none" stroke="midnightblue" d="M28.54,-152.34C36.64,-133.9 56.35,-93.22 83,-67 84.23,-65.78 85.56,-64.62 86.95,-63.5"/>
<polygon fill="midnightblue" stroke="midnightblue" points="89.12,-66.25 95.31,-57.66 85.11,-60.51 89.12,-66.25"/>
</g>
<!-- Node10 -->
<g id="node10" class="node">
<title>Node10</title>
<g id="a_node10"><a xlink:href="navier1_8f.html#ae6ed8f0409f034c9d0dff152a3445d90" target="_top" xlink:title=" ">
<polygon fill="white" stroke="black" points="87,-0.5 87,-19.5 145,-19.5 145,-0.5 87,-0.5"/>
<text text-anchor="middle" x="116" y="-7.5" font-family="Helvetica,sans-Serif" font-size="10.00">makevis</text>
</a>
</g>
</g>
<!-- Node1&#45;&gt;Node10 -->
<g id="edge9" class="edge">
<title>Node1&#45;&gt;Node10</title>
<path fill="none" stroke="midnightblue" d="M26.62,-152.19C32.16,-128.51 49.05,-67.34 83,-29 84.02,-27.85 85.12,-26.75 86.29,-25.7"/>
<polygon fill="midnightblue" stroke="midnightblue" points="88.67,-28.29 94.61,-19.52 84.5,-22.67 88.67,-28.29"/>
</g>
</g>
</svg>
