<?xml version="1.0" encoding="UTF-8" standalone="no"?>
<!DOCTYPE svg PUBLIC "-//W3C//DTD SVG 1.1//EN"
 "http://www.w3.org/Graphics/SVG/1.1/DTD/svg11.dtd">
<!-- Generated by graphviz version 2.43.0 (0)
 -->
<!-- Title: cart_diff_y Pages: 1 -->
<svg width="431pt" height="218pt"
 viewBox="0.00 0.00 431.00 218.00" xmlns="http://www.w3.org/2000/svg" xmlns:xlink="http://www.w3.org/1999/xlink">
<g id="graph0" class="graph" transform="scale(1 1) rotate(0) translate(4 214)">
<title>cart_diff_y</title>
<polygon fill="white" stroke="transparent" points="-4,4 -4,-214 427,-214 427,4 -4,4"/>
<!-- Node1 -->
<g id="node1" class="node">
<title>Node1</title>
<g id="a_node1"><a xlink:title=" ">
<polygon fill="#bfbfbf" stroke="black" points="0,-95.5 0,-114.5 68,-114.5 68,-95.5 0,-95.5"/>
<text text-anchor="middle" x="34" y="-102.5" font-family="Helvetica,sans-Serif" font-size="10.00">cart_diff_y</text>
</a>
</g>
</g>
<!-- Node2 -->
<g id="node2" class="node">
<title>Node2</title>
<g id="a_node2"><a xlink:href="group__penalty__mini.html#ga0ce4b99b400fee68110bae64c6a6277c" target="_top" xlink:title="Assuming the mesh is cartesian, compute exact y&#45;derivative for an element, by operating.">
<polygon fill="white" stroke="black" points="124.5,-114.5 124.5,-133.5 205.5,-133.5 205.5,-114.5 124.5,-114.5"/>
<text text-anchor="middle" x="165" y="-121.5" font-family="Helvetica,sans-Serif" font-size="10.00">local_cart_dy</text>
</a>
</g>
</g>
<!-- Node1&#45;&gt;Node2 -->
<g id="edge1" class="edge">
<title>Node1&#45;&gt;Node2</title>
<path fill="none" stroke="midnightblue" d="M68.22,-109.89C82.31,-111.97 99.02,-114.43 114.5,-116.71"/>
<polygon fill="midnightblue" stroke="midnightblue" points="114.06,-120.18 124.47,-118.18 115.08,-113.26 114.06,-120.18"/>
</g>
<!-- Node10 -->
<g id="node10" class="node">
<title>Node10</title>
<g id="a_node10"><a xlink:href="group__penalty__mini.html#gaa8eaa7869bcd674f01457cb5dd2eb012" target="_top" xlink:title="Assuming the mesh is cartesian, compute pseudo(?) y&#45;derivative along y&#45;axis for an element,...">
<polygon fill="white" stroke="black" points="104,-76.5 104,-95.5 226,-95.5 226,-76.5 104,-76.5"/>
<text text-anchor="middle" x="165" y="-83.5" font-family="Helvetica,sans-Serif" font-size="10.00">local_cart_dy_pseudo</text>
</a>
</g>
</g>
<!-- Node1&#45;&gt;Node10 -->
<g id="edge9" class="edge">
<title>Node1&#45;&gt;Node10</title>
<path fill="none" stroke="midnightblue" d="M68.22,-100.11C76.14,-98.94 84.89,-97.65 93.78,-96.34"/>
<polygon fill="midnightblue" stroke="midnightblue" points="94.47,-99.78 103.85,-94.86 93.45,-92.85 94.47,-99.78"/>
</g>
<!-- Node3 -->
<g id="node3" class="node">
<title>Node3</title>
<g id="a_node3"><a xlink:href="group__postpro.html#gab9ec2260a10061af6ce1c52f3c8a41da" target="_top" xlink:title="Compute matrix&#45;matrix product C = A*B for contiguously packed matrices A,B, and C.">
<polygon fill="white" stroke="black" points="262,-95.5 262,-114.5 304,-114.5 304,-95.5 262,-95.5"/>
<text text-anchor="middle" x="283" y="-102.5" font-family="Helvetica,sans-Serif" font-size="10.00">mxm</text>
</a>
</g>
</g>
<!-- Node2&#45;&gt;Node3 -->
<g id="edge2" class="edge">
<title>Node2&#45;&gt;Node3</title>
<path fill="none" stroke="midnightblue" d="M205.6,-117.51C220.66,-115.05 237.57,-112.28 251.64,-109.97"/>
<polygon fill="midnightblue" stroke="midnightblue" points="252.48,-113.38 261.78,-108.31 251.34,-106.47 252.48,-113.38"/>
</g>
<!-- Node4 -->
<g id="node4" class="node">
<title>Node4</title>
<g id="a_node4"><a xlink:href="comm__mpi_8f.html#af06ec29f06aac3f8809e19de2a7e8946" target="_top" xlink:title=" ">
<polygon fill="white" stroke="black" points="348.5,-190.5 348.5,-209.5 414.5,-209.5 414.5,-190.5 348.5,-190.5"/>
<text text-anchor="middle" x="381.5" y="-197.5" font-family="Helvetica,sans-Serif" font-size="10.00">dnekclock</text>
</a>
</g>
</g>
<!-- Node3&#45;&gt;Node4 -->
<g id="edge3" class="edge">
<title>Node3&#45;&gt;Node4</title>
<path fill="none" stroke="midnightblue" d="M288.99,-114.6C297.55,-130.3 316.43,-161.66 340,-181 341.8,-182.48 343.74,-183.88 345.76,-185.19"/>
<polygon fill="midnightblue" stroke="midnightblue" points="344.51,-188.5 354.93,-190.37 347.95,-182.4 344.51,-188.5"/>
</g>
<!-- Node5 -->
<g id="node5" class="node">
<title>Node5</title>
<g id="a_node5"><a xlink:href="mxm__bgq_8f.html#a8a70163b4dbfdbfcce7bff170597fcad" target="_top" xlink:title=" ">
<polygon fill="white" stroke="black" points="340,-152.5 340,-171.5 423,-171.5 423,-152.5 340,-152.5"/>
<text text-anchor="middle" x="381.5" y="-159.5" font-family="Helvetica,sans-Serif" font-size="10.00">mxm_bgq_10</text>
</a>
</g>
</g>
<!-- Node3&#45;&gt;Node5 -->
<g id="edge4" class="edge">
<title>Node3&#45;&gt;Node5</title>
<path fill="none" stroke="midnightblue" d="M296.97,-114.67C308.09,-122.73 324.68,-134.28 340,-143 342.9,-144.65 345.97,-146.28 349.07,-147.86"/>
<polygon fill="midnightblue" stroke="midnightblue" points="347.8,-151.13 358.32,-152.36 350.86,-144.84 347.8,-151.13"/>
</g>
<!-- Node6 -->
<g id="node6" class="node">
<title>Node6</title>
<g id="a_node6"><a xlink:href="mxm__bgq_8f.html#a3fda9ea4bc7a5713a19d6939fa2b541f" target="_top" xlink:title=" ">
<polygon fill="white" stroke="black" points="340,-114.5 340,-133.5 423,-133.5 423,-114.5 340,-114.5"/>
<text text-anchor="middle" x="381.5" y="-121.5" font-family="Helvetica,sans-Serif" font-size="10.00">mxm_bgq_16</text>
</a>
</g>
</g>
<!-- Node3&#45;&gt;Node6 -->
<g id="edge5" class="edge">
<title>Node3&#45;&gt;Node6</title>
<path fill="none" stroke="midnightblue" d="M304.47,-109.03C311.94,-110.5 320.77,-112.24 329.71,-114"/>
<polygon fill="midnightblue" stroke="midnightblue" points="329.31,-117.49 339.79,-115.99 330.66,-110.62 329.31,-117.49"/>
</g>
<!-- Node7 -->
<g id="node7" class="node">
<title>Node7</title>
<g id="a_node7"><a xlink:href="mxm__bgq_8f.html#af192c3c8b982aa5bbc2a757156718a91" target="_top" xlink:title=" ">
<polygon fill="white" stroke="black" points="343,-76.5 343,-95.5 420,-95.5 420,-76.5 343,-76.5"/>
<text text-anchor="middle" x="381.5" y="-83.5" font-family="Helvetica,sans-Serif" font-size="10.00">mxm_bgq_6</text>
</a>
</g>
</g>
<!-- Node3&#45;&gt;Node7 -->
<g id="edge6" class="edge">
<title>Node3&#45;&gt;Node7</title>
<path fill="none" stroke="midnightblue" d="M304.47,-100.97C312.85,-99.32 322.93,-97.34 332.96,-95.36"/>
<polygon fill="midnightblue" stroke="midnightblue" points="333.79,-98.76 342.92,-93.4 332.44,-91.9 333.79,-98.76"/>
</g>
<!-- Node8 -->
<g id="node8" class="node">
<title>Node8</title>
<g id="a_node8"><a xlink:href="mxm__bgq_8f.html#a8faaef428336095704ece51624bbfe92" target="_top" xlink:title=" ">
<polygon fill="white" stroke="black" points="343,-38.5 343,-57.5 420,-57.5 420,-38.5 343,-38.5"/>
<text text-anchor="middle" x="381.5" y="-45.5" font-family="Helvetica,sans-Serif" font-size="10.00">mxm_bgq_8</text>
</a>
</g>
</g>
<!-- Node3&#45;&gt;Node8 -->
<g id="edge7" class="edge">
<title>Node3&#45;&gt;Node8</title>
<path fill="none" stroke="midnightblue" d="M296.97,-95.33C308.09,-87.27 324.68,-75.72 340,-67 342.9,-65.35 345.97,-63.72 349.07,-62.14"/>
<polygon fill="midnightblue" stroke="midnightblue" points="350.86,-65.16 358.32,-57.64 347.8,-58.87 350.86,-65.16"/>
</g>
<!-- Node9 -->
<g id="node9" class="node">
<title>Node9</title>
<g id="a_node9"><a xlink:href="mxm__std_8f.html#aa9e8685c4a72f18fb5d1ee88ed17a3d6" target="_top" xlink:title=" ">
<polygon fill="white" stroke="black" points="355.5,-0.5 355.5,-19.5 407.5,-19.5 407.5,-0.5 355.5,-0.5"/>
<text text-anchor="middle" x="381.5" y="-7.5" font-family="Helvetica,sans-Serif" font-size="10.00">mxmf2</text>
</a>
</g>
</g>
<!-- Node3&#45;&gt;Node9 -->
<g id="edge8" class="edge">
<title>Node3&#45;&gt;Node9</title>
<path fill="none" stroke="midnightblue" d="M288.99,-95.4C297.55,-79.7 316.43,-48.34 340,-29 342,-27.36 344.16,-25.83 346.41,-24.4"/>
<polygon fill="midnightblue" stroke="midnightblue" points="348.32,-27.34 355.36,-19.42 344.92,-21.22 348.32,-27.34"/>
</g>
<!-- Node10&#45;&gt;Node3 -->
<g id="edge10" class="edge">
<title>Node10&#45;&gt;Node3</title>
<path fill="none" stroke="midnightblue" d="M224.34,-95.56C233.86,-97.12 243.37,-98.67 251.84,-100.06"/>
<polygon fill="midnightblue" stroke="midnightblue" points="251.5,-103.55 261.94,-101.71 252.63,-96.64 251.5,-103.55"/>
</g>
</g>
</svg>
