<?xml version="1.0" encoding="UTF-8" standalone="no"?>
<!DOCTYPE svg PUBLIC "-//W3C//DTD SVG 1.1//EN"
 "http://www.w3.org/Graphics/SVG/1.1/DTD/svg11.dtd">
<!-- Generated by graphviz version 2.43.0 (0)
 -->
<!-- Title: local_grad3 Pages: 1 -->
<svg width="278pt" height="218pt"
 viewBox="0.00 0.00 278.00 218.00" xmlns="http://www.w3.org/2000/svg" xmlns:xlink="http://www.w3.org/1999/xlink">
<g id="graph0" class="graph" transform="scale(1 1) rotate(0) translate(4 214)">
<title>local_grad3</title>
<polygon fill="white" stroke="transparent" points="-4,4 -4,-214 274,-214 274,4 -4,4"/>
<!-- Node1 -->
<g id="node1" class="node">
<title>Node1</title>
<g id="a_node1"><a xlink:title="Uses mxm() to compute gradient of 3D arrays.">
<polygon fill="#bfbfbf" stroke="black" points="0,-95.5 0,-114.5 73,-114.5 73,-95.5 0,-95.5"/>
<text text-anchor="middle" x="36.5" y="-102.5" font-family="Helvetica,sans-Serif" font-size="10.00">local_grad3</text>
</a>
</g>
</g>
<!-- Node2 -->
<g id="node2" class="node">
<title>Node2</title>
<g id="a_node2"><a xlink:href="group__postpro.html#gab9ec2260a10061af6ce1c52f3c8a41da" target="_top" xlink:title="Compute matrix&#45;matrix product C = A*B for contiguously packed matrices A,B, and C.">
<polygon fill="white" stroke="black" points="109,-95.5 109,-114.5 151,-114.5 151,-95.5 109,-95.5"/>
<text text-anchor="middle" x="130" y="-102.5" font-family="Helvetica,sans-Serif" font-size="10.00">mxm</text>
</a>
</g>
</g>
<!-- Node1&#45;&gt;Node2 -->
<g id="edge1" class="edge">
<title>Node1&#45;&gt;Node2</title>
<path fill="none" stroke="midnightblue" d="M73.14,-105C81.58,-105 90.51,-105 98.69,-105"/>
<polygon fill="midnightblue" stroke="midnightblue" points="98.91,-108.5 108.91,-105 98.91,-101.5 98.91,-108.5"/>
</g>
<!-- Node3 -->
<g id="node3" class="node">
<title>Node3</title>
<g id="a_node3"><a xlink:href="comm__mpi_8f.html#af06ec29f06aac3f8809e19de2a7e8946" target="_top" xlink:title=" ">
<polygon fill="white" stroke="black" points="195.5,-190.5 195.5,-209.5 261.5,-209.5 261.5,-190.5 195.5,-190.5"/>
<text text-anchor="middle" x="228.5" y="-197.5" font-family="Helvetica,sans-Serif" font-size="10.00">dnekclock</text>
</a>
</g>
</g>
<!-- Node2&#45;&gt;Node3 -->
<g id="edge2" class="edge">
<title>Node2&#45;&gt;Node3</title>
<path fill="none" stroke="midnightblue" d="M135.99,-114.6C144.55,-130.3 163.43,-161.66 187,-181 188.8,-182.48 190.74,-183.88 192.76,-185.19"/>
<polygon fill="midnightblue" stroke="midnightblue" points="191.51,-188.5 201.93,-190.37 194.95,-182.4 191.51,-188.5"/>
</g>
<!-- Node4 -->
<g id="node4" class="node">
<title>Node4</title>
<g id="a_node4"><a xlink:href="mxm__bgq_8f.html#a8a70163b4dbfdbfcce7bff170597fcad" target="_top" xlink:title=" ">
<polygon fill="white" stroke="black" points="187,-152.5 187,-171.5 270,-171.5 270,-152.5 187,-152.5"/>
<text text-anchor="middle" x="228.5" y="-159.5" font-family="Helvetica,sans-Serif" font-size="10.00">mxm_bgq_10</text>
</a>
</g>
</g>
<!-- Node2&#45;&gt;Node4 -->
<g id="edge3" class="edge">
<title>Node2&#45;&gt;Node4</title>
<path fill="none" stroke="midnightblue" d="M143.97,-114.67C155.09,-122.73 171.68,-134.28 187,-143 189.9,-144.65 192.97,-146.28 196.07,-147.86"/>
<polygon fill="midnightblue" stroke="midnightblue" points="194.8,-151.13 205.32,-152.36 197.86,-144.84 194.8,-151.13"/>
</g>
<!-- Node5 -->
<g id="node5" class="node">
<title>Node5</title>
<g id="a_node5"><a xlink:href="mxm__bgq_8f.html#a3fda9ea4bc7a5713a19d6939fa2b541f" target="_top" xlink:title=" ">
<polygon fill="white" stroke="black" points="187,-114.5 187,-133.5 270,-133.5 270,-114.5 187,-114.5"/>
<text text-anchor="middle" x="228.5" y="-121.5" font-family="Helvetica,sans-Serif" font-size="10.00">mxm_bgq_16</text>
</a>
</g>
</g>
<!-- Node2&#45;&gt;Node5 -->
<g id="edge4" class="edge">
<title>Node2&#45;&gt;Node5</title>
<path fill="none" stroke="midnightblue" d="M151.47,-109.03C158.94,-110.5 167.77,-112.24 176.71,-114"/>
<polygon fill="midnightblue" stroke="midnightblue" points="176.31,-117.49 186.79,-115.99 177.66,-110.62 176.31,-117.49"/>
</g>
<!-- Node6 -->
<g id="node6" class="node">
<title>Node6</title>
<g id="a_node6"><a xlink:href="mxm__bgq_8f.html#af192c3c8b982aa5bbc2a757156718a91" target="_top" xlink:title=" ">
<polygon fill="white" stroke="black" points="190,-76.5 190,-95.5 267,-95.5 267,-76.5 190,-76.5"/>
<text text-anchor="middle" x="228.5" y="-83.5" font-family="Helvetica,sans-Serif" font-size="10.00">mxm_bgq_6</text>
</a>
</g>
</g>
<!-- Node2&#45;&gt;Node6 -->
<g id="edge5" class="edge">
<title>Node2&#45;&gt;Node6</title>
<path fill="none" stroke="midnightblue" d="M151.47,-100.97C159.85,-99.32 169.93,-97.34 179.96,-95.36"/>
<polygon fill="midnightblue" stroke="midnightblue" points="180.79,-98.76 189.92,-93.4 179.44,-91.9 180.79,-98.76"/>
</g>
<!-- Node7 -->
<g id="node7" class="node">
<title>Node7</title>
<g id="a_node7"><a xlink:href="mxm__bgq_8f.html#a8faaef428336095704ece51624bbfe92" target="_top" xlink:title=" ">
<polygon fill="white" stroke="black" points="190,-38.5 190,-57.5 267,-57.5 267,-38.5 190,-38.5"/>
<text text-anchor="middle" x="228.5" y="-45.5" font-family="Helvetica,sans-Serif" font-size="10.00">mxm_bgq_8</text>
</a>
</g>
</g>
<!-- Node2&#45;&gt;Node7 -->
<g id="edge6" class="edge">
<title>Node2&#45;&gt;Node7</title>
<path fill="none" stroke="midnightblue" d="M143.97,-95.33C155.09,-87.27 171.68,-75.72 187,-67 189.9,-65.35 192.97,-63.72 196.07,-62.14"/>
<polygon fill="midnightblue" stroke="midnightblue" points="197.86,-65.16 205.32,-57.64 194.8,-58.87 197.86,-65.16"/>
</g>
<!-- Node8 -->
<g id="node8" class="node">
<title>Node8</title>
<g id="a_node8"><a xlink:href="mxm__std_8f.html#aa9e8685c4a72f18fb5d1ee88ed17a3d6" target="_top" xlink:title=" ">
<polygon fill="white" stroke="black" points="202.5,-0.5 202.5,-19.5 254.5,-19.5 254.5,-0.5 202.5,-0.5"/>
<text text-anchor="middle" x="228.5" y="-7.5" font-family="Helvetica,sans-Serif" font-size="10.00">mxmf2</text>
</a>
</g>
</g>
<!-- Node2&#45;&gt;Node8 -->
<g id="edge7" class="edge">
<title>Node2&#45;&gt;Node8</title>
<path fill="none" stroke="midnightblue" d="M135.99,-95.4C144.55,-79.7 163.43,-48.34 187,-29 189,-27.36 191.16,-25.83 193.41,-24.4"/>
<polygon fill="midnightblue" stroke="midnightblue" points="195.32,-27.34 202.36,-19.42 191.92,-21.22 195.32,-27.34"/>
</g>
</g>
</svg>
