<?xml version="1.0" encoding="UTF-8" standalone="no"?>
<!DOCTYPE svg PUBLIC "-//W3C//DTD SVG 1.1//EN"
 "http://www.w3.org/Graphics/SVG/1.1/DTD/svg11.dtd">
<!-- Generated by graphviz version 2.40.1 (20161225.0304)
 -->
<!-- Title: userchk Pages: 1 -->
<svg width="586pt" height="636pt"
 viewBox="0.00 0.00 586.00 636.00" xmlns="http://www.w3.org/2000/svg" xmlns:xlink="http://www.w3.org/1999/xlink">
<g id="graph0" class="graph" transform="scale(1 1) rotate(0) translate(4 632)">
<title>userchk</title>
<polygon fill="#ffffff" stroke="transparent" points="-4,4 -4,-632 582,-632 582,4 -4,4"/>
<!-- Node22 -->
<g id="node1" class="node">
<title>Node22</title>
<polygon fill="#bfbfbf" stroke="#000000" points="0,-247.5 0,-266.5 51,-266.5 51,-247.5 0,-247.5"/>
<text text-anchor="middle" x="25.5" y="-254.5" font-family="Helvetica,sans-Serif" font-size="10.00" fill="#000000">userchk</text>
</g>
<!-- Node23 -->
<g id="node2" class="node">
<title>Node23</title>
<g id="a_node2"><a xlink:href="group__abl.html#gabc6963764dd0ea847bc7e70242d55163" target="_top" xlink:title="Compute D^2, the grid spacing used in the DS sgs model. ">
<polygon fill="#ffffff" stroke="#000000" points="87,-551.5 87,-570.5 177,-570.5 177,-551.5 87,-551.5"/>
<text text-anchor="middle" x="132" y="-558.5" font-family="Helvetica,sans-Serif" font-size="10.00" fill="#000000">set_grid_spacing</text>
</a>
</g>
</g>
<!-- Node22&#45;&gt;Node23 -->
<g id="edge1" class="edge">
<title>Node22&#45;&gt;Node23</title>
<path fill="none" stroke="#191970" d="M27.1704,-266.8692C32.8393,-299.1489 52.9124,-404.1569 87,-485 95.7819,-505.8274 109.3703,-527.8677 119.3183,-542.8187"/>
<polygon fill="#191970" stroke="#191970" points="116.4535,-544.8303 124.9664,-551.1375 122.2448,-540.8982 116.4535,-544.8303"/>
</g>
<!-- Node26 -->
<g id="node5" class="node">
<title>Node26</title>
<g id="a_node5"><a xlink:href="group__abl.html#gaaf0f4048a4e81a838bf903f040cf2db1" target="_top" xlink:title="Compute eddy viscosity using dynamic smagorinsky model. ">
<polygon fill="#ffffff" stroke="#000000" points="101.5,-456.5 101.5,-475.5 162.5,-475.5 162.5,-456.5 101.5,-456.5"/>
<text text-anchor="middle" x="132" y="-463.5" font-family="Helvetica,sans-Serif" font-size="10.00" fill="#000000">eddy_visc</text>
</a>
</g>
</g>
<!-- Node22&#45;&gt;Node26 -->
<g id="edge4" class="edge">
<title>Node22&#45;&gt;Node26</title>
<path fill="none" stroke="#191970" d="M25.8978,-266.6741C27.6572,-297.1832 37.0865,-392.5723 87,-447 88.5834,-448.7266 90.349,-450.3018 92.2392,-451.7382"/>
<polygon fill="#191970" stroke="#191970" points="90.7874,-454.953 101.1443,-457.1858 94.4404,-448.9817 90.7874,-454.953"/>
</g>
<!-- Node41 -->
<g id="node20" class="node">
<title>Node41</title>
<g id="a_node20"><a xlink:href="math_8f.html#a3b43508554f14bdea8e14473d7d0803c" target="_top" xlink:title="copy">
<polygon fill="#ffffff" stroke="#000000" points="113,-418.5 113,-437.5 151,-437.5 151,-418.5 113,-418.5"/>
<text text-anchor="middle" x="132" y="-425.5" font-family="Helvetica,sans-Serif" font-size="10.00" fill="#000000">copy</text>
</a>
</g>
</g>
<!-- Node22&#45;&gt;Node41 -->
<g id="edge20" class="edge">
<title>Node22&#45;&gt;Node41</title>
<path fill="none" stroke="#191970" d="M27.2312,-266.8098C32.191,-292.3532 48.6349,-361.8597 87,-404 91.5376,-408.9841 97.3557,-413.1262 103.2915,-416.4864"/>
<polygon fill="#191970" stroke="#191970" points="102.0413,-419.7749 112.5489,-421.1316 105.1808,-413.5184 102.0413,-419.7749"/>
</g>
<!-- Node42 -->
<g id="node21" class="node">
<title>Node42</title>
<g id="a_node21"><a xlink:href="group__abl.html#gade410b3017ce291e93fe88acc769c9d6" target="_top" xlink:title="Define objects for surface integrals. ">
<polygon fill="#ffffff" stroke="#000000" points="228,-361.5 228,-380.5 276,-380.5 276,-361.5 228,-361.5"/>
<text text-anchor="middle" x="252" y="-368.5" font-family="Helvetica,sans-Serif" font-size="10.00" fill="#000000">set_obj</text>
</a>
</g>
</g>
<!-- Node22&#45;&gt;Node42 -->
<g id="edge21" class="edge">
<title>Node22&#45;&gt;Node42</title>
<path fill="none" stroke="#191970" d="M27.2759,-266.6275C32.0972,-289.6304 47.799,-347.6063 87,-371 126.9637,-394.8488 182.6565,-388.4277 218.0192,-380.5516"/>
<polygon fill="#191970" stroke="#191970" points="218.9471,-383.9286 227.8625,-378.2044 217.3233,-377.1195 218.9471,-383.9286"/>
</g>
<!-- Node43 -->
<g id="node22" class="node">
<title>Node43</title>
<g id="a_node22"><a xlink:href="math_8f.html#af44de42b023a4a68cd98ea341204342d" target="_top" xlink:title="rzero">
<polygon fill="#ffffff" stroke="#000000" points="113,-342.5 113,-361.5 151,-361.5 151,-342.5 113,-342.5"/>
<text text-anchor="middle" x="132" y="-349.5" font-family="Helvetica,sans-Serif" font-size="10.00" fill="#000000">rzero</text>
</a>
</g>
</g>
<!-- Node22&#45;&gt;Node43 -->
<g id="edge23" class="edge">
<title>Node22&#45;&gt;Node43</title>
<path fill="none" stroke="#191970" d="M31.1213,-266.6823C40.738,-282.5005 61.7719,-314.0202 87,-333 91.9491,-336.7233 97.7367,-339.8686 103.4817,-342.4626"/>
<polygon fill="#191970" stroke="#191970" points="102.3722,-345.7896 112.9541,-346.3123 105.0078,-339.3048 102.3722,-345.7896"/>
</g>
<!-- Node44 -->
<g id="node23" class="node">
<title>Node44</title>
<g id="a_node23"><a xlink:href="group__abl.html#ga32480237866193258937d1e06bbd0e01" target="_top" xlink:title="Compute inflow / outflow conditions a.k.a. driving force. Ubar=1. ">
<polygon fill="#ffffff" stroke="#000000" points="99.5,-304.5 99.5,-323.5 164.5,-323.5 164.5,-304.5 99.5,-304.5"/>
<text text-anchor="middle" x="132" y="-311.5" font-family="Helvetica,sans-Serif" font-size="10.00" fill="#000000">set_forcing</text>
</a>
</g>
</g>
<!-- Node22&#45;&gt;Node44 -->
<g id="edge24" class="edge">
<title>Node22&#45;&gt;Node44</title>
<path fill="none" stroke="#191970" d="M39.7958,-266.7085C52.0318,-274.8029 70.2708,-286.3651 87,-295 90.5441,-296.8293 94.3049,-298.6278 98.083,-300.345"/>
<polygon fill="#191970" stroke="#191970" points="96.8321,-303.618 107.3968,-304.4174 99.6365,-297.2042 96.8321,-303.618"/>
</g>
<!-- Node46 -->
<g id="node25" class="node">
<title>Node46</title>
<g id="a_node25"><a xlink:href="navier5_8f.html#ae07d390b2886c4cf09b559441f55dd3f" target="_top" xlink:title="torque_calc">
<polygon fill="#ffffff" stroke="#000000" points="98.5,-266.5 98.5,-285.5 165.5,-285.5 165.5,-266.5 98.5,-266.5"/>
<text text-anchor="middle" x="132" y="-273.5" font-family="Helvetica,sans-Serif" font-size="10.00" fill="#000000">torque_calc</text>
</a>
</g>
</g>
<!-- Node22&#45;&gt;Node46 -->
<g id="edge26" class="edge">
<title>Node22&#45;&gt;Node46</title>
<path fill="none" stroke="#191970" d="M51.0094,-261.551C62.1775,-263.5434 75.6041,-265.9388 88.285,-268.2011"/>
<polygon fill="#191970" stroke="#191970" points="87.7783,-271.6659 98.2376,-269.9767 89.0078,-264.7747 87.7783,-271.6659"/>
</g>
<!-- Node47 -->
<g id="node26" class="node">
<title>Node47</title>
<g id="a_node26"><a xlink:href="navier5_8f.html#aef718c6a74c3602cfcd7871434619ee5" target="_top" xlink:title="gradm1">
<polygon fill="#ffffff" stroke="#000000" points="107.5,-228.5 107.5,-247.5 156.5,-247.5 156.5,-228.5 107.5,-228.5"/>
<text text-anchor="middle" x="132" y="-235.5" font-family="Helvetica,sans-Serif" font-size="10.00" fill="#000000">gradm1</text>
</a>
</g>
</g>
<!-- Node22&#45;&gt;Node47 -->
<g id="edge27" class="edge">
<title>Node22&#45;&gt;Node47</title>
<path fill="none" stroke="#191970" d="M51.0094,-252.449C64.9091,-249.9693 82.3075,-246.8653 97.4124,-244.1706"/>
<polygon fill="#191970" stroke="#191970" points="98.2022,-247.585 107.432,-242.383 96.9727,-240.6938 98.2022,-247.585"/>
</g>
<!-- Node48 -->
<g id="node27" class="node">
<title>Node48</title>
<g id="a_node27"><a xlink:href="prepost_8f.html#aacb528c0b28bc79dff8db48d7ae9ac64" target="_top" xlink:title="outpost">
<polygon fill="#ffffff" stroke="#000000" points="107.5,-190.5 107.5,-209.5 156.5,-209.5 156.5,-190.5 107.5,-190.5"/>
<text text-anchor="middle" x="132" y="-197.5" font-family="Helvetica,sans-Serif" font-size="10.00" fill="#000000">outpost</text>
</a>
</g>
</g>
<!-- Node22&#45;&gt;Node48 -->
<g id="edge28" class="edge">
<title>Node22&#45;&gt;Node48</title>
<path fill="none" stroke="#191970" d="M39.7958,-247.2915C52.0318,-239.1971 70.2708,-227.6349 87,-219 90.5441,-217.1707 94.3049,-215.3722 98.083,-213.655"/>
<polygon fill="#191970" stroke="#191970" points="99.6365,-216.7958 107.3968,-209.5826 96.8321,-210.382 99.6365,-216.7958"/>
</g>
<!-- Node49 -->
<g id="node28" class="node">
<title>Node49</title>
<g id="a_node28"><a xlink:href="frame_8f.html#a3b2fa5ca96c4d901949ed15b9e1e459c" target="_top" xlink:title="Start framework. ">
<polygon fill="#ffffff" stroke="#000000" points="99,-152.5 99,-171.5 165,-171.5 165,-152.5 99,-152.5"/>
<text text-anchor="middle" x="132" y="-159.5" font-family="Helvetica,sans-Serif" font-size="10.00" fill="#000000">frame_start</text>
</a>
</g>
</g>
<!-- Node22&#45;&gt;Node49 -->
<g id="edge29" class="edge">
<title>Node22&#45;&gt;Node49</title>
<path fill="none" stroke="#191970" d="M31.1213,-247.3177C40.738,-231.4995 61.7719,-199.9798 87,-181 89.2871,-179.2793 91.7533,-177.6821 94.3117,-176.2057"/>
<polygon fill="#191970" stroke="#191970" points="95.9238,-179.3125 103.2383,-171.6476 92.7404,-173.0782 95.9238,-179.3125"/>
</g>
<!-- Node50 -->
<g id="node29" class="node">
<title>Node50</title>
<g id="a_node29"><a xlink:href="frame_8f.html#a3100879c73f67d2e4449da55049c8eae" target="_top" xlink:title="Simulataion monitoring. ">
<polygon fill="#ffffff" stroke="#000000" points="92.5,-114.5 92.5,-133.5 171.5,-133.5 171.5,-114.5 92.5,-114.5"/>
<text text-anchor="middle" x="132" y="-121.5" font-family="Helvetica,sans-Serif" font-size="10.00" fill="#000000">frame_monitor</text>
</a>
</g>
</g>
<!-- Node22&#45;&gt;Node50 -->
<g id="edge30" class="edge">
<title>Node22&#45;&gt;Node50</title>
<path fill="none" stroke="#191970" d="M28.2636,-247.3644C34.9033,-225.8159 53.7198,-173.2534 87,-143 88.6825,-141.4705 90.5062,-140.053 92.4231,-138.7408"/>
<polygon fill="#191970" stroke="#191970" points="94.3572,-141.6658 101.2748,-133.641 90.8628,-135.6004 94.3572,-141.6658"/>
</g>
<!-- Node51 -->
<g id="node30" class="node">
<title>Node51</title>
<g id="a_node30"><a xlink:href="group__chkpoint.html#ga2d682999600b8303ea7c4850cb54c9ca" target="_top" xlink:title="Main checkpoint interface. ">
<polygon fill="#ffffff" stroke="#000000" points="98.5,-76.5 98.5,-95.5 165.5,-95.5 165.5,-76.5 98.5,-76.5"/>
<text text-anchor="middle" x="132" y="-83.5" font-family="Helvetica,sans-Serif" font-size="10.00" fill="#000000">chkpt_main</text>
</a>
</g>
</g>
<!-- Node22&#45;&gt;Node51 -->
<g id="edge31" class="edge">
<title>Node22&#45;&gt;Node51</title>
<path fill="none" stroke="#191970" d="M26.793,-247.4216C30.8181,-221.1622 45.4473,-147.1826 87,-105 88.4283,-103.5501 89.9843,-102.205 91.6315,-100.9579"/>
<polygon fill="#191970" stroke="#191970" points="93.7894,-103.7389 100.4586,-95.5065 90.1112,-97.7831 93.7894,-103.7389"/>
</g>
<!-- Node52 -->
<g id="node31" class="node">
<title>Node52</title>
<g id="a_node31"><a xlink:href="group__stat.html#ga16cd0d213c2bea15c7caf8c205241388" target="_top" xlink:title="Main interface of statistics module. ">
<polygon fill="#ffffff" stroke="#000000" points="105,-38.5 105,-57.5 159,-57.5 159,-38.5 105,-38.5"/>
<text text-anchor="middle" x="132" y="-45.5" font-family="Helvetica,sans-Serif" font-size="10.00" fill="#000000">stat_avg</text>
</a>
</g>
</g>
<!-- Node22&#45;&gt;Node52 -->
<g id="edge32" class="edge">
<title>Node22&#45;&gt;Node52</title>
<path fill="none" stroke="#191970" d="M25.8978,-247.3259C27.6572,-216.8168 37.0865,-121.4277 87,-67 89.5578,-64.2109 92.5912,-61.8168 95.8567,-59.7648"/>
<polygon fill="#191970" stroke="#191970" points="97.6043,-62.8014 104.8756,-55.0956 94.386,-56.5851 97.6043,-62.8014"/>
</g>
<!-- Node53 -->
<g id="node32" class="node">
<title>Node53</title>
<g id="a_node32"><a xlink:href="frame_8f.html#a81cd9de9df55590aae9e54090dd1a3ce" target="_top" xlink:title="Finalise framework. ">
<polygon fill="#ffffff" stroke="#000000" points="101,-.5 101,-19.5 163,-19.5 163,-.5 101,-.5"/>
<text text-anchor="middle" x="132" y="-7.5" font-family="Helvetica,sans-Serif" font-size="10.00" fill="#000000">frame_end</text>
</a>
</g>
</g>
<!-- Node22&#45;&gt;Node53 -->
<g id="edge33" class="edge">
<title>Node22&#45;&gt;Node53</title>
<path fill="none" stroke="#191970" d="M26.9643,-247.2943C33.0232,-208.2524 57.2175,-63.1373 87,-29 88.5401,-27.2347 90.2718,-25.6291 92.1359,-24.1694"/>
<polygon fill="#191970" stroke="#191970" points="94.3381,-26.9209 100.972,-18.66 90.6345,-20.981 94.3381,-26.9209"/>
</g>
<!-- Node24 -->
<g id="node3" class="node">
<title>Node24</title>
<g id="a_node3"><a xlink:href="math_8f.html#ae1294c8ac3b5b3c38bbcc250d252b9cb" target="_top" xlink:title="rone">
<polygon fill="#ffffff" stroke="#000000" points="234.5,-589.5 234.5,-608.5 269.5,-608.5 269.5,-589.5 234.5,-589.5"/>
<text text-anchor="middle" x="252" y="-596.5" font-family="Helvetica,sans-Serif" font-size="10.00" fill="#000000">rone</text>
</a>
</g>
</g>
<!-- Node23&#45;&gt;Node24 -->
<g id="edge2" class="edge">
<title>Node23&#45;&gt;Node24</title>
<path fill="none" stroke="#191970" d="M162.2811,-570.589C181.4963,-576.6738 206.152,-584.4815 224.7526,-590.3716"/>
<polygon fill="#191970" stroke="#191970" points="223.8002,-593.7413 234.3903,-593.4236 225.9135,-587.0679 223.8002,-593.7413"/>
</g>
<!-- Node25 -->
<g id="node4" class="node">
<title>Node25</title>
<g id="a_node4"><a xlink:href="ic_8f.html#a12fbcc70f37b3490eeda7dfb002dcc7d" target="_top" xlink:title="dsavg">
<polygon fill="#ffffff" stroke="#000000" points="230.5,-551.5 230.5,-570.5 273.5,-570.5 273.5,-551.5 230.5,-551.5"/>
<text text-anchor="middle" x="252" y="-558.5" font-family="Helvetica,sans-Serif" font-size="10.00" fill="#000000">dsavg</text>
</a>
</g>
</g>
<!-- Node23&#45;&gt;Node25 -->
<g id="edge3" class="edge">
<title>Node23&#45;&gt;Node25</title>
<path fill="none" stroke="#191970" d="M177.025,-561C191.4035,-561 207.0078,-561 220.2388,-561"/>
<polygon fill="#191970" stroke="#191970" points="220.2722,-564.5001 230.2722,-561 220.2721,-557.5001 220.2722,-564.5001"/>
</g>
<!-- Node27 -->
<g id="node6" class="node">
<title>Node27</title>
<g id="a_node6"><a xlink:href="group__postpro.html#ga2282f2912315313d8c35cfd37389c7f3" target="_top" xlink:title="Compute the gradient tensor G_ij := du_i/du_j, for element e. ">
<polygon fill="#ffffff" stroke="#000000" points="221.5,-513.5 221.5,-532.5 282.5,-532.5 282.5,-513.5 221.5,-513.5"/>
<text text-anchor="middle" x="252" y="-520.5" font-family="Helvetica,sans-Serif" font-size="10.00" fill="#000000">comp_gije</text>
</a>
</g>
</g>
<!-- Node26&#45;&gt;Node27 -->
<g id="edge5" class="edge">
<title>Node26&#45;&gt;Node27</title>
<path fill="none" stroke="#191970" d="M152.0853,-475.5405C171.3812,-484.7061 200.7568,-498.6595 222.6687,-509.0676"/>
<polygon fill="#191970" stroke="#191970" points="221.3147,-512.2992 231.8492,-513.4284 224.3181,-505.9763 221.3147,-512.2992"/>
</g>
<!-- Node38 -->
<g id="node17" class="node">
<title>Node38</title>
<g id="a_node17"><a xlink:href="group__postpro.html#gab683ff84116ad23a19188953209855d0" target="_top" xlink:title="Compute symmetric part of a tensor gije for element. Does not call any other subroutine, but simply evaluates: &#160;. ">
<polygon fill="#ffffff" stroke="#000000" points="221.5,-475.5 221.5,-494.5 282.5,-494.5 282.5,-475.5 221.5,-475.5"/>
<text text-anchor="middle" x="252" y="-482.5" font-family="Helvetica,sans-Serif" font-size="10.00" fill="#000000">comp_sije</text>
</a>
</g>
</g>
<!-- Node26&#45;&gt;Node38 -->
<g id="edge17" class="edge">
<title>Node26&#45;&gt;Node38</title>
<path fill="none" stroke="#191970" d="M162.5916,-470.8437C177.4017,-473.1886 195.3878,-476.0364 211.3339,-478.5612"/>
<polygon fill="#191970" stroke="#191970" points="211.04,-482.0582 221.4643,-480.1652 212.1347,-475.1443 211.04,-482.0582"/>
</g>
<!-- Node39 -->
<g id="node18" class="node">
<title>Node39</title>
<g id="a_node18"><a xlink:href="postpro_8f.html#af9d2aff92c48c37b10261e543b5f18fb" target="_top" xlink:title="mag_tensor_e">
<polygon fill="#ffffff" stroke="#000000" points="213,-437.5 213,-456.5 291,-456.5 291,-437.5 213,-437.5"/>
<text text-anchor="middle" x="252" y="-444.5" font-family="Helvetica,sans-Serif" font-size="10.00" fill="#000000">mag_tensor_e</text>
</a>
</g>
</g>
<!-- Node26&#45;&gt;Node39 -->
<g id="edge18" class="edge">
<title>Node26&#45;&gt;Node39</title>
<path fill="none" stroke="#191970" d="M162.5916,-461.1563C174.7652,-459.2288 189.0846,-456.9616 202.6531,-454.8133"/>
<polygon fill="#191970" stroke="#191970" points="203.5051,-458.2221 212.8347,-453.2012 202.4103,-451.3082 203.5051,-458.2221"/>
</g>
<!-- Node40 -->
<g id="node19" class="node">
<title>Node40</title>
<g id="a_node19"><a xlink:href="math_8f.html#ad2b51b68d370651f4f6d81952503e7be" target="_top" xlink:title="cmult">
<polygon fill="#ffffff" stroke="#000000" points="231.5,-399.5 231.5,-418.5 272.5,-418.5 272.5,-399.5 231.5,-399.5"/>
<text text-anchor="middle" x="252" y="-406.5" font-family="Helvetica,sans-Serif" font-size="10.00" fill="#000000">cmult</text>
</a>
</g>
</g>
<!-- Node26&#45;&gt;Node40 -->
<g id="edge19" class="edge">
<title>Node26&#45;&gt;Node40</title>
<path fill="none" stroke="#191970" d="M155.9908,-456.321C162.8315,-453.4399 170.2563,-450.196 177,-447 193.3486,-439.252 196.8658,-436.1851 213,-428 216.1862,-426.3836 219.5308,-424.7138 222.8656,-423.066"/>
<polygon fill="#191970" stroke="#191970" points="224.6582,-426.0853 232.0984,-418.5425 221.5783,-419.7992 224.6582,-426.0853"/>
</g>
<!-- Node28 -->
<g id="node7" class="node">
<title>Node28</title>
<g id="a_node7"><a xlink:href="group__postpro.html#gad24367e4a843f60b63a2205aef1ba551" target="_top" xlink:title="Uses mxm() to compute gradient of 3D arrays. ">
<polygon fill="#ffffff" stroke="#000000" points="327,-532.5 327,-551.5 393,-551.5 393,-532.5 327,-532.5"/>
<text text-anchor="middle" x="360" y="-539.5" font-family="Helvetica,sans-Serif" font-size="10.00" fill="#000000">local_grad3</text>
</a>
</g>
</g>
<!-- Node27&#45;&gt;Node28 -->
<g id="edge6" class="edge">
<title>Node27&#45;&gt;Node28</title>
<path fill="none" stroke="#191970" d="M282.6596,-528.3938C293.3674,-530.2776 305.5914,-532.4281 317.1104,-534.4546"/>
<polygon fill="#191970" stroke="#191970" points="316.5406,-537.908 326.9958,-536.1937 317.7535,-531.0139 316.5406,-537.908"/>
</g>
<!-- Node36 -->
<g id="node15" class="node">
<title>Node36</title>
<g id="a_node15"><a xlink:href="byte_8c.html#a2da8eeb074dfd3ffbfb3e9a4d301cda4" target="_top" xlink:title="exitt">
<polygon fill="#ffffff" stroke="#000000" points="342.5,-418.5 342.5,-437.5 377.5,-437.5 377.5,-418.5 342.5,-418.5"/>
<text text-anchor="middle" x="360" y="-425.5" font-family="Helvetica,sans-Serif" font-size="10.00" fill="#000000">exitt</text>
</a>
</g>
</g>
<!-- Node27&#45;&gt;Node36 -->
<g id="edge14" class="edge">
<title>Node27&#45;&gt;Node36</title>
<path fill="none" stroke="#191970" d="M275.5282,-513.3289C280.8438,-510.6654 286.3002,-507.5247 291,-504 313.1341,-487.3999 333.7985,-462.9829 346.6354,-446.3352"/>
<polygon fill="#191970" stroke="#191970" points="349.7034,-448.0791 352.9213,-437.9848 344.1109,-443.8692 349.7034,-448.0791"/>
</g>
<!-- Node37 -->
<g id="node16" class="node">
<title>Node37</title>
<g id="a_node16"><a xlink:href="group__postpro.html#ga53feb767cebebba399ab3c5a50f53155" target="_top" xlink:title="Uses mxm() to compute gradient of 2D arrays. ">
<polygon fill="#ffffff" stroke="#000000" points="327,-494.5 327,-513.5 393,-513.5 393,-494.5 327,-494.5"/>
<text text-anchor="middle" x="360" y="-501.5" font-family="Helvetica,sans-Serif" font-size="10.00" fill="#000000">local_grad2</text>
</a>
</g>
</g>
<!-- Node27&#45;&gt;Node37 -->
<g id="edge15" class="edge">
<title>Node27&#45;&gt;Node37</title>
<path fill="none" stroke="#191970" d="M282.6596,-517.6062C293.3674,-515.7224 305.5914,-513.5719 317.1104,-511.5454"/>
<polygon fill="#191970" stroke="#191970" points="317.7535,-514.9861 326.9958,-509.8063 316.5406,-508.092 317.7535,-514.9861"/>
</g>
<!-- Node29 -->
<g id="node8" class="node">
<title>Node29</title>
<g id="a_node8"><a xlink:href="group__postpro.html#gab9ec2260a10061af6ce1c52f3c8a41da" target="_top" xlink:title="Compute matrix&#45;matrix product C = A*B for contiguously packed matrices A,B, and C. ">
<polygon fill="#ffffff" stroke="#000000" points="429,-513.5 429,-532.5 467,-532.5 467,-513.5 429,-513.5"/>
<text text-anchor="middle" x="448" y="-520.5" font-family="Helvetica,sans-Serif" font-size="10.00" fill="#000000">mxm</text>
</a>
</g>
</g>
<!-- Node28&#45;&gt;Node29 -->
<g id="edge7" class="edge">
<title>Node28&#45;&gt;Node29</title>
<path fill="none" stroke="#191970" d="M393.0183,-534.871C401.5226,-533.0349 410.6117,-531.0725 418.9007,-529.2828"/>
<polygon fill="#191970" stroke="#191970" points="419.8319,-532.6625 428.868,-527.1308 418.3546,-525.8201 419.8319,-532.6625"/>
</g>
<!-- Node30 -->
<g id="node9" class="node">
<title>Node30</title>
<g id="a_node9"><a xlink:href="comm__mpi_8f.html#af06ec29f06aac3f8809e19de2a7e8946" target="_top" xlink:title="dnekclock">
<polygon fill="#ffffff" stroke="#000000" points="510,-608.5 510,-627.5 571,-627.5 571,-608.5 510,-608.5"/>
<text text-anchor="middle" x="540.5" y="-615.5" font-family="Helvetica,sans-Serif" font-size="10.00" fill="#000000">dnekclock</text>
</a>
</g>
</g>
<!-- Node29&#45;&gt;Node30 -->
<g id="edge8" class="edge">
<title>Node29&#45;&gt;Node30</title>
<path fill="none" stroke="#191970" d="M452.92,-532.5276C461.3661,-548.1232 479.9603,-579.3302 503,-599 504.7138,-600.4631 506.5596,-601.8497 508.4808,-603.1569"/>
<polygon fill="#191970" stroke="#191970" points="506.8296,-606.2474 517.2095,-608.371 510.4194,-600.238 506.8296,-606.2474"/>
</g>
<!-- Node31 -->
<g id="node10" class="node">
<title>Node31</title>
<g id="a_node10"><a xlink:href="mxm__bgq_8f.html#a8faaef428336095704ece51624bbfe92" target="_top" xlink:title="mxm_bgq_8">
<polygon fill="#ffffff" stroke="#000000" points="505.5,-570.5 505.5,-589.5 575.5,-589.5 575.5,-570.5 505.5,-570.5"/>
<text text-anchor="middle" x="540.5" y="-577.5" font-family="Helvetica,sans-Serif" font-size="10.00" fill="#000000">mxm_bgq_8</text>
</a>
</g>
</g>
<!-- Node29&#45;&gt;Node31 -->
<g id="edge9" class="edge">
<title>Node29&#45;&gt;Node31</title>
<path fill="none" stroke="#191970" d="M460.7851,-532.5709C471.728,-540.5813 488.0394,-552.0975 503,-561 505.6734,-562.5909 508.4962,-564.1787 511.3445,-565.7204"/>
<polygon fill="#191970" stroke="#191970" points="509.8933,-568.911 520.3779,-570.4352 513.1322,-562.7054 509.8933,-568.911"/>
</g>
<!-- Node32 -->
<g id="node11" class="node">
<title>Node32</title>
<g id="a_node11"><a xlink:href="mxm__bgq_8f.html#a3fda9ea4bc7a5713a19d6939fa2b541f" target="_top" xlink:title="mxm_bgq_16">
<polygon fill="#ffffff" stroke="#000000" points="503,-532.5 503,-551.5 578,-551.5 578,-532.5 503,-532.5"/>
<text text-anchor="middle" x="540.5" y="-539.5" font-family="Helvetica,sans-Serif" font-size="10.00" fill="#000000">mxm_bgq_16</text>
</a>
</g>
</g>
<!-- Node29&#45;&gt;Node32 -->
<g id="edge10" class="edge">
<title>Node29&#45;&gt;Node32</title>
<path fill="none" stroke="#191970" d="M467.1661,-526.9368C474.7052,-528.4854 483.7267,-530.3385 492.822,-532.2067"/>
<polygon fill="#191970" stroke="#191970" points="492.1539,-535.6424 502.6536,-534.2261 493.5624,-528.7856 492.1539,-535.6424"/>
</g>
<!-- Node33 -->
<g id="node12" class="node">
<title>Node33</title>
<g id="a_node12"><a xlink:href="mxm__bgq_8f.html#a8a70163b4dbfdbfcce7bff170597fcad" target="_top" xlink:title="mxm_bgq_10">
<polygon fill="#ffffff" stroke="#000000" points="503,-494.5 503,-513.5 578,-513.5 578,-494.5 503,-494.5"/>
<text text-anchor="middle" x="540.5" y="-501.5" font-family="Helvetica,sans-Serif" font-size="10.00" fill="#000000">mxm_bgq_10</text>
</a>
</g>
</g>
<!-- Node29&#45;&gt;Node33 -->
<g id="edge11" class="edge">
<title>Node29&#45;&gt;Node33</title>
<path fill="none" stroke="#191970" d="M467.1661,-519.0632C474.7052,-517.5146 483.7267,-515.6615 492.822,-513.7933"/>
<polygon fill="#191970" stroke="#191970" points="493.5624,-517.2144 502.6536,-511.7739 492.1539,-510.3576 493.5624,-517.2144"/>
</g>
<!-- Node34 -->
<g id="node13" class="node">
<title>Node34</title>
<g id="a_node13"><a xlink:href="mxm__bgq_8f.html#af192c3c8b982aa5bbc2a757156718a91" target="_top" xlink:title="mxm_bgq_6">
<polygon fill="#ffffff" stroke="#000000" points="505.5,-456.5 505.5,-475.5 575.5,-475.5 575.5,-456.5 505.5,-456.5"/>
<text text-anchor="middle" x="540.5" y="-463.5" font-family="Helvetica,sans-Serif" font-size="10.00" fill="#000000">mxm_bgq_6</text>
</a>
</g>
</g>
<!-- Node29&#45;&gt;Node34 -->
<g id="edge12" class="edge">
<title>Node29&#45;&gt;Node34</title>
<path fill="none" stroke="#191970" d="M460.7851,-513.4291C471.728,-505.4187 488.0394,-493.9025 503,-485 505.6734,-483.4091 508.4962,-481.8213 511.3445,-480.2796"/>
<polygon fill="#191970" stroke="#191970" points="513.1322,-483.2946 520.3779,-475.5648 509.8933,-477.089 513.1322,-483.2946"/>
</g>
<!-- Node35 -->
<g id="node14" class="node">
<title>Node35</title>
<g id="a_node14"><a xlink:href="mxm__std_8f.html#aa9e8685c4a72f18fb5d1ee88ed17a3d6" target="_top" xlink:title="mxmf2">
<polygon fill="#ffffff" stroke="#000000" points="517,-418.5 517,-437.5 564,-437.5 564,-418.5 517,-418.5"/>
<text text-anchor="middle" x="540.5" y="-425.5" font-family="Helvetica,sans-Serif" font-size="10.00" fill="#000000">mxmf2</text>
</a>
</g>
</g>
<!-- Node29&#45;&gt;Node35 -->
<g id="edge13" class="edge">
<title>Node29&#45;&gt;Node35</title>
<path fill="none" stroke="#191970" d="M452.92,-513.4724C461.3661,-497.8768 479.9603,-466.6698 503,-447 504.7138,-445.5369 506.5596,-444.1503 508.4808,-442.8431"/>
<polygon fill="#191970" stroke="#191970" points="510.4194,-445.762 517.2095,-437.629 506.8296,-439.7526 510.4194,-445.762"/>
</g>
<!-- Node37&#45;&gt;Node29 -->
<g id="edge16" class="edge">
<title>Node37&#45;&gt;Node29</title>
<path fill="none" stroke="#191970" d="M393.0183,-511.129C401.5226,-512.9651 410.6117,-514.9275 418.9007,-516.7172"/>
<polygon fill="#191970" stroke="#191970" points="418.3546,-520.1799 428.868,-518.8692 419.8319,-513.3375 418.3546,-520.1799"/>
</g>
<!-- Node42&#45;&gt;Node36 -->
<g id="edge22" class="edge">
<title>Node42&#45;&gt;Node36</title>
<path fill="none" stroke="#191970" d="M272.3379,-380.6702C278.3758,-383.605 284.9825,-386.8797 291,-390 305.4586,-397.4974 321.3976,-406.243 334.3105,-413.4529"/>
<polygon fill="#191970" stroke="#191970" points="332.6801,-416.5513 343.1139,-418.3916 336.105,-410.4464 332.6801,-416.5513"/>
</g>
<!-- Node45 -->
<g id="node24" class="node">
<title>Node45</title>
<g id="a_node24"><a xlink:href="math_8f.html#a255eb2b5e6ee8be11915d2c3b5b5bf74" target="_top" xlink:title="glsc2">
<polygon fill="#ffffff" stroke="#000000" points="232,-304.5 232,-323.5 272,-323.5 272,-304.5 232,-304.5"/>
<text text-anchor="middle" x="252" y="-311.5" font-family="Helvetica,sans-Serif" font-size="10.00" fill="#000000">glsc2</text>
</a>
</g>
</g>
<!-- Node44&#45;&gt;Node45 -->
<g id="edge25" class="edge">
<title>Node44&#45;&gt;Node45</title>
<path fill="none" stroke="#191970" d="M164.7905,-314C182.4904,-314 204.1982,-314 221.528,-314"/>
<polygon fill="#191970" stroke="#191970" points="221.6776,-317.5001 231.6776,-314 221.6776,-310.5001 221.6776,-317.5001"/>
</g>
</g>
</svg>
