<?xml version="1.0" encoding="UTF-8" standalone="no"?>
<!DOCTYPE svg PUBLIC "-//W3C//DTD SVG 1.1//EN"
 "http://www.w3.org/Graphics/SVG/1.1/DTD/svg11.dtd">
<!-- Generated by graphviz version 2.40.1 (20161225.0304)
 -->
<!-- Title: userchk Pages: 1 -->
<svg width="602pt" height="541pt"
 viewBox="0.00 0.00 602.00 541.00" xmlns="http://www.w3.org/2000/svg" xmlns:xlink="http://www.w3.org/1999/xlink">
<g id="graph0" class="graph" transform="scale(1 1) rotate(0) translate(4 537)">
<title>userchk</title>
<polygon fill="#ffffff" stroke="transparent" points="-4,4 -4,-537 598,-537 598,4 -4,4"/>
<!-- Node1 -->
<g id="node1" class="node">
<title>Node1</title>
<polygon fill="#bfbfbf" stroke="#000000" points="0,-171.5 0,-190.5 51,-190.5 51,-171.5 0,-171.5"/>
<text text-anchor="middle" x="25.5" y="-178.5" font-family="Helvetica,sans-Serif" font-size="10.00" fill="#000000">userchk</text>
</g>
<!-- Node2 -->
<g id="node2" class="node">
<title>Node2</title>
<g id="a_node2"><a xlink:href="frame_8f.html#a3b2fa5ca96c4d901949ed15b9e1e459c" target="_top" xlink:title="Start framework. ">
<polygon fill="#ffffff" stroke="#000000" points="94,-342.5 94,-361.5 160,-361.5 160,-342.5 94,-342.5"/>
<text text-anchor="middle" x="127" y="-349.5" font-family="Helvetica,sans-Serif" font-size="10.00" fill="#000000">frame_start</text>
</a>
</g>
</g>
<!-- Node1&#45;&gt;Node2 -->
<g id="edge1" class="edge">
<title>Node1&#45;&gt;Node2</title>
<path fill="none" stroke="#191970" d="M26.9543,-190.8617C31.3162,-217.2045 46.5791,-290.122 87,-333 88.3448,-334.4265 89.8185,-335.7574 91.3822,-336.9975"/>
<polygon fill="#191970" stroke="#191970" points="89.4807,-339.9359 99.7694,-342.4642 93.303,-334.0716 89.4807,-339.9359"/>
</g>
<!-- Node3 -->
<g id="node3" class="node">
<title>Node3</title>
<g id="a_node3"><a xlink:href="frame_8f.html#a3100879c73f67d2e4449da55049c8eae" target="_top" xlink:title="Simulataion monitoring. ">
<polygon fill="#ffffff" stroke="#000000" points="87.5,-304.5 87.5,-323.5 166.5,-323.5 166.5,-304.5 87.5,-304.5"/>
<text text-anchor="middle" x="127" y="-311.5" font-family="Helvetica,sans-Serif" font-size="10.00" fill="#000000">frame_monitor</text>
</a>
</g>
</g>
<!-- Node1&#45;&gt;Node3 -->
<g id="edge2" class="edge">
<title>Node1&#45;&gt;Node3</title>
<path fill="none" stroke="#191970" d="M28.3601,-190.5317C35.1975,-211.8674 54.3923,-264.0229 87,-295 88.4631,-296.39 90.0468,-297.6947 91.7108,-298.9169"/>
<polygon fill="#191970" stroke="#191970" points="90.1684,-302.078 100.5157,-304.3549 93.8467,-296.1223 90.1684,-302.078"/>
</g>
<!-- Node4 -->
<g id="node4" class="node">
<title>Node4</title>
<g id="a_node4"><a xlink:href="group__chkpoint.html#ga2d682999600b8303ea7c4850cb54c9ca" target="_top" xlink:title="Main checkpoint interface. ">
<polygon fill="#ffffff" stroke="#000000" points="93.5,-266.5 93.5,-285.5 160.5,-285.5 160.5,-266.5 93.5,-266.5"/>
<text text-anchor="middle" x="127" y="-273.5" font-family="Helvetica,sans-Serif" font-size="10.00" fill="#000000">chkpt_main</text>
</a>
</g>
</g>
<!-- Node1&#45;&gt;Node4 -->
<g id="edge3" class="edge">
<title>Node1&#45;&gt;Node4</title>
<path fill="none" stroke="#191970" d="M31.2162,-190.5591C40.9693,-206.2 62.1949,-237.4707 87,-257 89.0085,-258.5813 91.17,-260.0724 93.411,-261.4699"/>
<polygon fill="#191970" stroke="#191970" points="91.8484,-264.6055 102.2919,-266.3901 95.2408,-258.4824 91.8484,-264.6055"/>
</g>
<!-- Node5 -->
<g id="node5" class="node">
<title>Node5</title>
<g id="a_node5"><a xlink:href="dyn__smag_8f.html#aaf0f4048a4e81a838bf903f040cf2db1" target="_top" xlink:title="Compute eddy viscosity using dynamic smagorinsky model. ">
<polygon fill="#ffffff" stroke="#000000" points="96.5,-228.5 96.5,-247.5 157.5,-247.5 157.5,-228.5 96.5,-228.5"/>
<text text-anchor="middle" x="127" y="-235.5" font-family="Helvetica,sans-Serif" font-size="10.00" fill="#000000">eddy_visc</text>
</a>
</g>
</g>
<!-- Node1&#45;&gt;Node5 -->
<g id="edge4" class="edge">
<title>Node1&#45;&gt;Node5</title>
<path fill="none" stroke="#191970" d="M42.7181,-190.6693C58.7818,-199.6903 82.9584,-213.2673 101.3042,-223.5698"/>
<polygon fill="#191970" stroke="#191970" points="99.6032,-226.6287 110.0362,-228.4735 103.0308,-220.5253 99.6032,-226.6287"/>
</g>
<!-- Node29 -->
<g id="node29" class="node">
<title>Node29</title>
<g id="a_node29"><a xlink:href="math_8f.html#a3b43508554f14bdea8e14473d7d0803c" target="_top" xlink:title="copy">
<polygon fill="#ffffff" stroke="#000000" points="229,-57.5 229,-76.5 267,-76.5 267,-57.5 229,-57.5"/>
<text text-anchor="middle" x="248" y="-64.5" font-family="Helvetica,sans-Serif" font-size="10.00" fill="#000000">copy</text>
</a>
</g>
</g>
<!-- Node1&#45;&gt;Node29 -->
<g id="edge38" class="edge">
<title>Node1&#45;&gt;Node29</title>
<path fill="none" stroke="#191970" d="M51.2381,-188.9956C81.6669,-196.7756 132.5198,-204.3442 167,-181 202.6742,-156.8474 174.2488,-123.0838 203,-91 207.6847,-85.7723 213.7837,-81.4807 219.9717,-78.0468"/>
<polygon fill="#191970" stroke="#191970" points="221.5266,-81.1825 228.9471,-73.6203 218.4304,-74.9045 221.5266,-81.1825"/>
</g>
<!-- Node34 -->
<g id="node34" class="node">
<title>Node34</title>
<g id="a_node34"><a xlink:href="group__stat.html#ga16cd0d213c2bea15c7caf8c205241388" target="_top" xlink:title="Main interface of statistics module. ">
<polygon fill="#ffffff" stroke="#000000" points="100,-152.5 100,-171.5 154,-171.5 154,-152.5 100,-152.5"/>
<text text-anchor="middle" x="127" y="-159.5" font-family="Helvetica,sans-Serif" font-size="10.00" fill="#000000">stat_avg</text>
</a>
</g>
</g>
<!-- Node1&#45;&gt;Node34 -->
<g id="edge39" class="edge">
<title>Node1&#45;&gt;Node34</title>
<path fill="none" stroke="#191970" d="M51.1127,-176.2055C62.883,-174.0022 77.0668,-171.3471 89.9709,-168.9316"/>
<polygon fill="#191970" stroke="#191970" points="90.7896,-172.3392 99.9748,-167.0589 89.5015,-165.4587 90.7896,-172.3392"/>
</g>
<!-- Node35 -->
<g id="node35" class="node">
<title>Node35</title>
<g id="a_node35"><a xlink:href="group__framework.html#gabfa9321d0e78857e5fafb7bada7c3ae3" target="_top" xlink:title="Check for nan or infinity. ">
<polygon fill="#ffffff" stroke="#000000" points="87,-114.5 87,-133.5 167,-133.5 167,-114.5 87,-114.5"/>
<text text-anchor="middle" x="127" y="-121.5" font-family="Helvetica,sans-Serif" font-size="10.00" fill="#000000">bounds_check</text>
</a>
</g>
</g>
<!-- Node1&#45;&gt;Node35 -->
<g id="edge40" class="edge">
<title>Node1&#45;&gt;Node35</title>
<path fill="none" stroke="#191970" d="M39.8954,-171.4794C52.1922,-163.4996 70.4645,-152.0003 87,-143 90.064,-141.3323 93.2985,-139.6588 96.5467,-138.0341"/>
<polygon fill="#191970" stroke="#191970" points="98.1442,-141.1492 105.6075,-133.6294 95.0837,-134.8537 98.1442,-141.1492"/>
</g>
<!-- Node36 -->
<g id="node36" class="node">
<title>Node36</title>
<g id="a_node36"><a xlink:href="group__framework.html#gad7bf1bb6172cfe21bceaf5b288b6de10" target="_top" xlink:title="Calculate spatial averaged quantities and write it into a text file. ">
<polygon fill="#ffffff" stroke="#000000" points="87,-76.5 87,-95.5 167,-95.5 167,-76.5 87,-76.5"/>
<text text-anchor="middle" x="127" y="-83.5" font-family="Helvetica,sans-Serif" font-size="10.00" fill="#000000">spatial_means</text>
</a>
</g>
</g>
<!-- Node1&#45;&gt;Node36 -->
<g id="edge41" class="edge">
<title>Node1&#45;&gt;Node36</title>
<path fill="none" stroke="#191970" d="M31.2162,-171.4409C40.9693,-155.8 62.1949,-124.5293 87,-105 89.0085,-103.4187 91.17,-101.9276 93.411,-100.5301"/>
<polygon fill="#191970" stroke="#191970" points="95.2408,-103.5176 102.2919,-95.6099 91.8484,-97.3945 95.2408,-103.5176"/>
</g>
<!-- Node37 -->
<g id="node37" class="node">
<title>Node37</title>
<g id="a_node37"><a xlink:href="frame_8f.html#a81cd9de9df55590aae9e54090dd1a3ce" target="_top" xlink:title="Finalise framework. ">
<polygon fill="#ffffff" stroke="#000000" points="96,-38.5 96,-57.5 158,-57.5 158,-38.5 96,-38.5"/>
<text text-anchor="middle" x="127" y="-45.5" font-family="Helvetica,sans-Serif" font-size="10.00" fill="#000000">frame_end</text>
</a>
</g>
</g>
<!-- Node1&#45;&gt;Node37 -->
<g id="edge42" class="edge">
<title>Node1&#45;&gt;Node37</title>
<path fill="none" stroke="#191970" d="M28.3601,-171.4683C35.1975,-150.1326 54.3923,-97.9771 87,-67 88.4631,-65.61 90.0468,-64.3053 91.7108,-63.0831"/>
<polygon fill="#191970" stroke="#191970" points="93.8467,-65.8777 100.5157,-57.6451 90.1684,-59.922 93.8467,-65.8777"/>
</g>
<!-- Node38 -->
<g id="node38" class="node">
<title>Node38</title>
<g id="a_node38"><a xlink:href="prepost_8f.html#aacb528c0b28bc79dff8db48d7ae9ac64" target="_top" xlink:title="outpost">
<polygon fill="#ffffff" stroke="#000000" points="102.5,-.5 102.5,-19.5 151.5,-19.5 151.5,-.5 102.5,-.5"/>
<text text-anchor="middle" x="127" y="-7.5" font-family="Helvetica,sans-Serif" font-size="10.00" fill="#000000">outpost</text>
</a>
</g>
</g>
<!-- Node1&#45;&gt;Node38 -->
<g id="edge43" class="edge">
<title>Node1&#45;&gt;Node38</title>
<path fill="none" stroke="#191970" d="M26.9543,-171.1383C31.3162,-144.7955 46.5791,-71.878 87,-29 88.8458,-27.042 90.9345,-25.2643 93.1653,-23.6541"/>
<polygon fill="#191970" stroke="#191970" points="95.4526,-26.3662 102.2596,-18.2473 91.8753,-20.3492 95.4526,-26.3662"/>
</g>
<!-- Node6 -->
<g id="node6" class="node">
<title>Node6</title>
<g id="a_node6"><a xlink:href="utils_8f.html#a2ab8eae9c2bc94febc81540730efd902" target="_top" xlink:title="Setup test filter. ">
<polygon fill="#ffffff" stroke="#000000" points="217,-380.5 217,-399.5 279,-399.5 279,-380.5 217,-380.5"/>
<text text-anchor="middle" x="248" y="-387.5" font-family="Helvetica,sans-Serif" font-size="10.00" fill="#000000">set_ds_filt</text>
</a>
</g>
</g>
<!-- Node5&#45;&gt;Node6 -->
<g id="edge5" class="edge">
<title>Node5&#45;&gt;Node6</title>
<path fill="none" stroke="#191970" d="M154.7113,-247.6975C159.2361,-250.1994 163.5607,-253.2693 167,-257 197.6048,-290.1973 176.9166,-315.1439 203,-352 208.8996,-360.3362 217.0452,-367.9517 224.7863,-374.1401"/>
<polygon fill="#191970" stroke="#191970" points="222.8109,-377.034 232.9021,-380.2615 227.0261,-371.4455 222.8109,-377.034"/>
</g>
<!-- Node9 -->
<g id="node9" class="node">
<title>Node9</title>
<g id="a_node9"><a xlink:href="group__postpro.html#ga2282f2912315313d8c35cfd37389c7f3" target="_top" xlink:title="Compute the gradient tensor G_ij := du_i/du_j, for element e. ">
<polygon fill="#ffffff" stroke="#000000" points="217.5,-323.5 217.5,-342.5 278.5,-342.5 278.5,-323.5 217.5,-323.5"/>
<text text-anchor="middle" x="248" y="-330.5" font-family="Helvetica,sans-Serif" font-size="10.00" fill="#000000">comp_gije</text>
</a>
</g>
</g>
<!-- Node5&#45;&gt;Node9 -->
<g id="edge8" class="edge">
<title>Node5&#45;&gt;Node9</title>
<path fill="none" stroke="#191970" d="M152.869,-247.6447C157.8825,-250.2176 162.8585,-253.3274 167,-257 189.418,-276.8799 180.1507,-294.6173 203,-314 204.7865,-315.5155 206.7114,-316.9251 208.7241,-318.2341"/>
<polygon fill="#191970" stroke="#191970" points="207.5095,-321.5623 217.9533,-323.345 210.9007,-315.4385 207.5095,-321.5623"/>
</g>
<!-- Node20 -->
<g id="node20" class="node">
<title>Node20</title>
<g id="a_node20"><a xlink:href="utils_8f.html#a75d89f87799764b6cb777d9ce36c19b7" target="_top" xlink:title="Adjust gradient at the boundary using the MOST relation. ">
<polygon fill="#ffffff" stroke="#000000" points="214.5,-247.5 214.5,-266.5 281.5,-266.5 281.5,-247.5 214.5,-247.5"/>
<text text-anchor="middle" x="248" y="-254.5" font-family="Helvetica,sans-Serif" font-size="10.00" fill="#000000">gij_from_bc</text>
</a>
</g>
</g>
<!-- Node5&#45;&gt;Node20 -->
<g id="edge20" class="edge">
<title>Node5&#45;&gt;Node20</title>
<path fill="none" stroke="#191970" d="M157.5334,-242.7945C171.7761,-245.031 188.9832,-247.7329 204.5502,-250.1773"/>
<polygon fill="#191970" stroke="#191970" points="204.0737,-253.6453 214.4956,-251.739 205.1596,-246.73 204.0737,-253.6453"/>
</g>
<!-- Node21 -->
<g id="node21" class="node">
<title>Node21</title>
<g id="a_node21"><a xlink:href="group__postpro.html#gab683ff84116ad23a19188953209855d0" target="_top" xlink:title="Compute symmetric part of a tensor gije for element. Does not call any other subroutine, but simply evaluates: &#160;. ">
<polygon fill="#ffffff" stroke="#000000" points="217.5,-209.5 217.5,-228.5 278.5,-228.5 278.5,-209.5 217.5,-209.5"/>
<text text-anchor="middle" x="248" y="-216.5" font-family="Helvetica,sans-Serif" font-size="10.00" fill="#000000">comp_sije</text>
</a>
</g>
</g>
<!-- Node5&#45;&gt;Node21 -->
<g id="edge21" class="edge">
<title>Node5&#45;&gt;Node21</title>
<path fill="none" stroke="#191970" d="M157.5334,-233.2055C172.5801,-230.8428 190.9353,-227.9606 207.1701,-225.4113"/>
<polygon fill="#191970" stroke="#191970" points="208.1404,-228.8019 217.4764,-223.793 207.0544,-221.8867 208.1404,-228.8019"/>
</g>
<!-- Node22 -->
<g id="node22" class="node">
<title>Node22</title>
<g id="a_node22"><a xlink:href="postpro_8f.html#af9d2aff92c48c37b10261e543b5f18fb" target="_top" xlink:title="mag_tensor_e">
<polygon fill="#ffffff" stroke="#000000" points="330,-133.5 330,-152.5 408,-152.5 408,-133.5 330,-133.5"/>
<text text-anchor="middle" x="369" y="-140.5" font-family="Helvetica,sans-Serif" font-size="10.00" fill="#000000">mag_tensor_e</text>
</a>
</g>
</g>
<!-- Node5&#45;&gt;Node22 -->
<g id="edge22" class="edge">
<title>Node5&#45;&gt;Node22</title>
<path fill="none" stroke="#191970" d="M146.8741,-228.2937C153.6937,-224.4104 161.0901,-219.5371 167,-214 187.5127,-194.7815 178.8849,-176.4424 203,-162 237.957,-141.0644 284.5307,-137.3833 319.4481,-138.3247"/>
<polygon fill="#191970" stroke="#191970" points="319.7499,-141.8398 329.8845,-138.7512 320.0358,-134.8457 319.7499,-141.8398"/>
</g>
<!-- Node23 -->
<g id="node23" class="node">
<title>Node23</title>
<g id="a_node23"><a xlink:href="math_8f.html#ad2b51b68d370651f4f6d81952503e7be" target="_top" xlink:title="cmult">
<polygon fill="#ffffff" stroke="#000000" points="348.5,-95.5 348.5,-114.5 389.5,-114.5 389.5,-95.5 348.5,-95.5"/>
<text text-anchor="middle" x="369" y="-102.5" font-family="Helvetica,sans-Serif" font-size="10.00" fill="#000000">cmult</text>
</a>
</g>
</g>
<!-- Node5&#45;&gt;Node23 -->
<g id="edge23" class="edge">
<title>Node5&#45;&gt;Node23</title>
<path fill="none" stroke="#191970" d="M140.3669,-228.336C148.7272,-221.8313 159.3271,-212.6963 167,-203 188.2202,-176.1842 175.3956,-155.1837 203,-135 242.8497,-105.8628 302.1913,-102.0897 338.0791,-102.9113"/>
<polygon fill="#191970" stroke="#191970" points="338.2945,-106.4214 348.4162,-103.2908 338.5513,-99.4262 338.2945,-106.4214"/>
</g>
<!-- Node24 -->
<g id="node24" class="node">
<title>Node24</title>
<g id="a_node24"><a xlink:href="dyn__smag_8f.html#ab22253a8777b36796e27d454d220ca8c" target="_top" xlink:title="Compute &#160;for dynamic Smagorinsky model: . ">
<polygon fill="#ffffff" stroke="#000000" points="218.5,-171.5 218.5,-190.5 277.5,-190.5 277.5,-171.5 218.5,-171.5"/>
<text text-anchor="middle" x="248" y="-178.5" font-family="Helvetica,sans-Serif" font-size="10.00" fill="#000000">comp_mij</text>
</a>
</g>
</g>
<!-- Node5&#45;&gt;Node24 -->
<g id="edge24" class="edge">
<title>Node5&#45;&gt;Node24</title>
<path fill="none" stroke="#191970" d="M145.2689,-228.4526C160.5649,-220.5589 183.0352,-209.1945 203,-200 206.8995,-198.2041 211.0165,-196.3755 215.1125,-194.5973"/>
<polygon fill="#191970" stroke="#191970" points="216.6983,-197.726 224.5195,-190.5789 213.9485,-191.2887 216.6983,-197.726"/>
</g>
<!-- Node27 -->
<g id="node27" class="node">
<title>Node27</title>
<g id="a_node27"><a xlink:href="dyn__smag_8f.html#a7010f3628067a6e1db2ecd29852f3031" target="_top" xlink:title="Compute &#160;for dynamic Smagorinsky model: . ">
<polygon fill="#ffffff" stroke="#000000" points="221.5,-285.5 221.5,-304.5 274.5,-304.5 274.5,-285.5 221.5,-285.5"/>
<text text-anchor="middle" x="248" y="-292.5" font-family="Helvetica,sans-Serif" font-size="10.00" fill="#000000">comp_lij</text>
</a>
</g>
</g>
<!-- Node5&#45;&gt;Node27 -->
<g id="edge29" class="edge">
<title>Node5&#45;&gt;Node27</title>
<path fill="none" stroke="#191970" d="M147.4296,-247.5008C153.732,-250.4862 160.6765,-253.8312 167,-257 183.1745,-265.1052 186.6514,-268.252 203,-276 206.7933,-277.7977 210.8022,-279.6106 214.8013,-281.3656"/>
<polygon fill="#191970" stroke="#191970" points="213.4397,-284.5899 224.0092,-285.321 216.2025,-278.1582 213.4397,-284.5899"/>
</g>
<!-- Node5&#45;&gt;Node29 -->
<g id="edge33" class="edge">
<title>Node5&#45;&gt;Node29</title>
<path fill="none" stroke="#191970" d="M149.6085,-228.3315C155.9995,-224.6553 162.4463,-219.8971 167,-214 201.813,-168.9167 167.0607,-135.1907 203,-91 207.4291,-85.554 213.4308,-81.1793 219.6063,-77.7348"/>
<polygon fill="#191970" stroke="#191970" points="221.1643,-80.8691 228.6155,-73.3371 218.0936,-74.5785 221.1643,-80.8691"/>
</g>
<!-- Node30 -->
<g id="node30" class="node">
<title>Node30</title>
<g id="a_node30"><a xlink:href="ic_8f.html#a12fbcc70f37b3490eeda7dfb002dcc7d" target="_top" xlink:title="dsavg">
<polygon fill="#ffffff" stroke="#000000" points="226.5,-418.5 226.5,-437.5 269.5,-437.5 269.5,-418.5 226.5,-418.5"/>
<text text-anchor="middle" x="248" y="-425.5" font-family="Helvetica,sans-Serif" font-size="10.00" fill="#000000">dsavg</text>
</a>
</g>
</g>
<!-- Node5&#45;&gt;Node30 -->
<g id="edge34" class="edge">
<title>Node5&#45;&gt;Node30</title>
<path fill="none" stroke="#191970" d="M155.5294,-247.5747C159.8594,-250.0734 163.9063,-253.1739 167,-257 210.651,-310.9846 158.1737,-355.9872 203,-409 206.696,-413.371 211.5715,-416.758 216.7475,-419.3759"/>
<polygon fill="#191970" stroke="#191970" points="215.6215,-422.6981 226.199,-423.304 218.308,-416.2341 215.6215,-422.6981"/>
</g>
<!-- Node31 -->
<g id="node31" class="node">
<title>Node31</title>
<g id="a_node31"><a xlink:href="utils_8f.html#acdb01a4b3d25323d8e05757532080584" target="_top" xlink:title="Compute planar average of quantity u along horizontal directions. ">
<polygon fill="#ffffff" stroke="#000000" points="203,-475.5 203,-494.5 293,-494.5 293,-475.5 203,-475.5"/>
<text text-anchor="middle" x="248" y="-482.5" font-family="Helvetica,sans-Serif" font-size="10.00" fill="#000000">planar_avg_horiz</text>
</a>
</g>
</g>
<!-- Node5&#45;&gt;Node31 -->
<g id="edge35" class="edge">
<title>Node5&#45;&gt;Node31</title>
<path fill="none" stroke="#191970" d="M156.0804,-247.6954C160.2398,-250.1664 164.0877,-253.2266 167,-257 219.512,-325.0393 159.6701,-372.7748 203,-447 208.0729,-455.6901 215.8952,-463.3142 223.6034,-469.4079"/>
<polygon fill="#191970" stroke="#191970" points="221.6506,-472.3159 231.7874,-475.3974 225.7848,-466.6671 221.6506,-472.3159"/>
</g>
<!-- Node7 -->
<g id="node7" class="node">
<title>Node7</title>
<g id="a_node7"><a xlink:href="math_8f.html#ae1294c8ac3b5b3c38bbcc250d252b9cb" target="_top" xlink:title="rone">
<polygon fill="#ffffff" stroke="#000000" points="351.5,-399.5 351.5,-418.5 386.5,-418.5 386.5,-399.5 351.5,-399.5"/>
<text text-anchor="middle" x="369" y="-406.5" font-family="Helvetica,sans-Serif" font-size="10.00" fill="#000000">rone</text>
</a>
</g>
</g>
<!-- Node6&#45;&gt;Node7 -->
<g id="edge6" class="edge">
<title>Node6&#45;&gt;Node7</title>
<path fill="none" stroke="#191970" d="M279.1605,-394.893C298.4495,-397.9218 322.9885,-401.775 341.5446,-404.6888"/>
<polygon fill="#191970" stroke="#191970" points="341.0079,-408.1474 351.4298,-406.241 342.0938,-401.2321 341.0079,-408.1474"/>
</g>
<!-- Node8 -->
<g id="node8" class="node">
<title>Node8</title>
<g id="a_node8"><a xlink:href="postpro_8f.html#a384436e1573243f4e088689bbea00453" target="_top" xlink:title="build_1d_filt">
<polygon fill="#ffffff" stroke="#000000" points="335,-437.5 335,-456.5 403,-456.5 403,-437.5 335,-437.5"/>
<text text-anchor="middle" x="369" y="-444.5" font-family="Helvetica,sans-Serif" font-size="10.00" fill="#000000">build_1d_filt</text>
</a>
</g>
</g>
<!-- Node6&#45;&gt;Node8 -->
<g id="edge7" class="edge">
<title>Node6&#45;&gt;Node8</title>
<path fill="none" stroke="#191970" d="M271.9908,-399.679C278.8315,-402.5601 286.2563,-405.804 293,-409 309.3486,-416.748 312.8255,-419.8948 329,-428 332.3593,-429.6834 335.894,-431.4166 339.4145,-433.1191"/>
<polygon fill="#191970" stroke="#191970" points="338.0391,-436.341 348.5704,-437.4992 341.06,-430.0264 338.0391,-436.341"/>
</g>
<!-- Node10 -->
<g id="node10" class="node">
<title>Node10</title>
<g id="a_node10"><a xlink:href="group__postpro.html#gad24367e4a843f60b63a2205aef1ba551" target="_top" xlink:title="Uses mxm() to compute gradient of 3D arrays. ">
<polygon fill="#ffffff" stroke="#000000" points="336,-361.5 336,-380.5 402,-380.5 402,-361.5 336,-361.5"/>
<text text-anchor="middle" x="369" y="-368.5" font-family="Helvetica,sans-Serif" font-size="10.00" fill="#000000">local_grad3</text>
</a>
</g>
</g>
<!-- Node9&#45;&gt;Node10 -->
<g id="edge9" class="edge">
<title>Node9&#45;&gt;Node10</title>
<path fill="none" stroke="#191970" d="M278.5334,-342.589C293.7234,-347.3594 312.2853,-353.1888 328.6334,-358.3229"/>
<polygon fill="#191970" stroke="#191970" points="327.8871,-361.757 338.4764,-361.4141 329.9845,-355.0786 327.8871,-361.757"/>
</g>
<!-- Node18 -->
<g id="node18" class="node">
<title>Node18</title>
<g id="a_node18"><a xlink:href="byte_8c.html#a2da8eeb074dfd3ffbfb3e9a4d301cda4" target="_top" xlink:title="exitt">
<polygon fill="#ffffff" stroke="#000000" points="351.5,-285.5 351.5,-304.5 386.5,-304.5 386.5,-285.5 351.5,-285.5"/>
<text text-anchor="middle" x="369" y="-292.5" font-family="Helvetica,sans-Serif" font-size="10.00" fill="#000000">exitt</text>
</a>
</g>
</g>
<!-- Node9&#45;&gt;Node18 -->
<g id="edge17" class="edge">
<title>Node9&#45;&gt;Node18</title>
<path fill="none" stroke="#191970" d="M278.5334,-323.411C297.9087,-317.3262 322.7699,-309.5185 341.5255,-303.6284"/>
<polygon fill="#191970" stroke="#191970" points="342.7516,-306.9119 351.2435,-300.5764 340.6542,-300.2335 342.7516,-306.9119"/>
</g>
<!-- Node19 -->
<g id="node19" class="node">
<title>Node19</title>
<g id="a_node19"><a xlink:href="group__postpro.html#ga53feb767cebebba399ab3c5a50f53155" target="_top" xlink:title="Uses mxm() to compute gradient of 2D arrays. ">
<polygon fill="#ffffff" stroke="#000000" points="336,-323.5 336,-342.5 402,-342.5 402,-323.5 336,-323.5"/>
<text text-anchor="middle" x="369" y="-330.5" font-family="Helvetica,sans-Serif" font-size="10.00" fill="#000000">local_grad2</text>
</a>
</g>
</g>
<!-- Node9&#45;&gt;Node19 -->
<g id="edge18" class="edge">
<title>Node9&#45;&gt;Node19</title>
<path fill="none" stroke="#191970" d="M278.5334,-333C292.7542,-333 309.9303,-333 325.4785,-333"/>
<polygon fill="#191970" stroke="#191970" points="325.9263,-336.5001 335.9262,-333 325.9262,-329.5001 325.9263,-336.5001"/>
</g>
<!-- Node11 -->
<g id="node11" class="node">
<title>Node11</title>
<g id="a_node11"><a xlink:href="group__postpro.html#gab9ec2260a10061af6ce1c52f3c8a41da" target="_top" xlink:title="Compute matrix&#45;matrix product C = A*B for contiguously packed matrices A,B, and C. ">
<polygon fill="#ffffff" stroke="#000000" points="445,-342.5 445,-361.5 483,-361.5 483,-342.5 445,-342.5"/>
<text text-anchor="middle" x="464" y="-349.5" font-family="Helvetica,sans-Serif" font-size="10.00" fill="#000000">mxm</text>
</a>
</g>
</g>
<!-- Node10&#45;&gt;Node11 -->
<g id="edge10" class="edge">
<title>Node10&#45;&gt;Node11</title>
<path fill="none" stroke="#191970" d="M402.2264,-364.3547C412.7897,-362.2421 424.3913,-359.9217 434.6599,-357.868"/>
<polygon fill="#191970" stroke="#191970" points="435.6595,-361.2375 444.7789,-355.8442 434.2867,-354.3734 435.6595,-361.2375"/>
</g>
<!-- Node12 -->
<g id="node12" class="node">
<title>Node12</title>
<g id="a_node12"><a xlink:href="comm__mpi_8f.html#af06ec29f06aac3f8809e19de2a7e8946" target="_top" xlink:title="dnekclock">
<polygon fill="#ffffff" stroke="#000000" points="526,-437.5 526,-456.5 587,-456.5 587,-437.5 526,-437.5"/>
<text text-anchor="middle" x="556.5" y="-444.5" font-family="Helvetica,sans-Serif" font-size="10.00" fill="#000000">dnekclock</text>
</a>
</g>
</g>
<!-- Node11&#45;&gt;Node12 -->
<g id="edge11" class="edge">
<title>Node11&#45;&gt;Node12</title>
<path fill="none" stroke="#191970" d="M468.92,-361.5276C477.3661,-377.1232 495.9603,-408.3302 519,-428 520.7138,-429.4631 522.5596,-430.8497 524.4808,-432.1569"/>
<polygon fill="#191970" stroke="#191970" points="522.8296,-435.2474 533.2095,-437.371 526.4194,-429.238 522.8296,-435.2474"/>
</g>
<!-- Node13 -->
<g id="node13" class="node">
<title>Node13</title>
<g id="a_node13"><a xlink:href="mxm__bgq_8f.html#a8faaef428336095704ece51624bbfe92" target="_top" xlink:title="mxm_bgq_8">
<polygon fill="#ffffff" stroke="#000000" points="521.5,-399.5 521.5,-418.5 591.5,-418.5 591.5,-399.5 521.5,-399.5"/>
<text text-anchor="middle" x="556.5" y="-406.5" font-family="Helvetica,sans-Serif" font-size="10.00" fill="#000000">mxm_bgq_8</text>
</a>
</g>
</g>
<!-- Node11&#45;&gt;Node13 -->
<g id="edge12" class="edge">
<title>Node11&#45;&gt;Node13</title>
<path fill="none" stroke="#191970" d="M476.7851,-361.5709C487.728,-369.5813 504.0394,-381.0975 519,-390 521.6734,-391.5909 524.4962,-393.1787 527.3445,-394.7204"/>
<polygon fill="#191970" stroke="#191970" points="525.8933,-397.911 536.3779,-399.4352 529.1322,-391.7054 525.8933,-397.911"/>
</g>
<!-- Node14 -->
<g id="node14" class="node">
<title>Node14</title>
<g id="a_node14"><a xlink:href="mxm__bgq_8f.html#a3fda9ea4bc7a5713a19d6939fa2b541f" target="_top" xlink:title="mxm_bgq_16">
<polygon fill="#ffffff" stroke="#000000" points="519,-361.5 519,-380.5 594,-380.5 594,-361.5 519,-361.5"/>
<text text-anchor="middle" x="556.5" y="-368.5" font-family="Helvetica,sans-Serif" font-size="10.00" fill="#000000">mxm_bgq_16</text>
</a>
</g>
</g>
<!-- Node11&#45;&gt;Node14 -->
<g id="edge13" class="edge">
<title>Node11&#45;&gt;Node14</title>
<path fill="none" stroke="#191970" d="M483.1661,-355.9368C490.7052,-357.4854 499.7267,-359.3385 508.822,-361.2067"/>
<polygon fill="#191970" stroke="#191970" points="508.1539,-364.6424 518.6536,-363.2261 509.5624,-357.7856 508.1539,-364.6424"/>
</g>
<!-- Node15 -->
<g id="node15" class="node">
<title>Node15</title>
<g id="a_node15"><a xlink:href="mxm__bgq_8f.html#a8a70163b4dbfdbfcce7bff170597fcad" target="_top" xlink:title="mxm_bgq_10">
<polygon fill="#ffffff" stroke="#000000" points="519,-323.5 519,-342.5 594,-342.5 594,-323.5 519,-323.5"/>
<text text-anchor="middle" x="556.5" y="-330.5" font-family="Helvetica,sans-Serif" font-size="10.00" fill="#000000">mxm_bgq_10</text>
</a>
</g>
</g>
<!-- Node11&#45;&gt;Node15 -->
<g id="edge14" class="edge">
<title>Node11&#45;&gt;Node15</title>
<path fill="none" stroke="#191970" d="M483.1661,-348.0632C490.7052,-346.5146 499.7267,-344.6615 508.822,-342.7933"/>
<polygon fill="#191970" stroke="#191970" points="509.5624,-346.2144 518.6536,-340.7739 508.1539,-339.3576 509.5624,-346.2144"/>
</g>
<!-- Node16 -->
<g id="node16" class="node">
<title>Node16</title>
<g id="a_node16"><a xlink:href="mxm__bgq_8f.html#af192c3c8b982aa5bbc2a757156718a91" target="_top" xlink:title="mxm_bgq_6">
<polygon fill="#ffffff" stroke="#000000" points="521.5,-285.5 521.5,-304.5 591.5,-304.5 591.5,-285.5 521.5,-285.5"/>
<text text-anchor="middle" x="556.5" y="-292.5" font-family="Helvetica,sans-Serif" font-size="10.00" fill="#000000">mxm_bgq_6</text>
</a>
</g>
</g>
<!-- Node11&#45;&gt;Node16 -->
<g id="edge15" class="edge">
<title>Node11&#45;&gt;Node16</title>
<path fill="none" stroke="#191970" d="M476.7851,-342.4291C487.728,-334.4187 504.0394,-322.9025 519,-314 521.6734,-312.4091 524.4962,-310.8213 527.3445,-309.2796"/>
<polygon fill="#191970" stroke="#191970" points="529.1322,-312.2946 536.3779,-304.5648 525.8933,-306.089 529.1322,-312.2946"/>
</g>
<!-- Node17 -->
<g id="node17" class="node">
<title>Node17</title>
<g id="a_node17"><a xlink:href="mxm__std_8f.html#aa9e8685c4a72f18fb5d1ee88ed17a3d6" target="_top" xlink:title="mxmf2">
<polygon fill="#ffffff" stroke="#000000" points="533,-247.5 533,-266.5 580,-266.5 580,-247.5 533,-247.5"/>
<text text-anchor="middle" x="556.5" y="-254.5" font-family="Helvetica,sans-Serif" font-size="10.00" fill="#000000">mxmf2</text>
</a>
</g>
</g>
<!-- Node11&#45;&gt;Node17 -->
<g id="edge16" class="edge">
<title>Node11&#45;&gt;Node17</title>
<path fill="none" stroke="#191970" d="M468.92,-342.4724C477.3661,-326.8768 495.9603,-295.6698 519,-276 520.7138,-274.5369 522.5596,-273.1503 524.4808,-271.8431"/>
<polygon fill="#191970" stroke="#191970" points="526.4194,-274.762 533.2095,-266.629 522.8296,-268.7526 526.4194,-274.762"/>
</g>
<!-- Node19&#45;&gt;Node11 -->
<g id="edge19" class="edge">
<title>Node19&#45;&gt;Node11</title>
<path fill="none" stroke="#191970" d="M402.2264,-339.6453C412.7897,-341.7579 424.3913,-344.0783 434.6599,-346.132"/>
<polygon fill="#191970" stroke="#191970" points="434.2867,-349.6266 444.7789,-348.1558 435.6595,-342.7625 434.2867,-349.6266"/>
</g>
<!-- Node24&#45;&gt;Node22 -->
<g id="edge25" class="edge">
<title>Node24&#45;&gt;Node22</title>
<path fill="none" stroke="#191970" d="M277.5999,-171.7042C293.0402,-166.8551 312.151,-160.8534 328.8995,-155.5935"/>
<polygon fill="#191970" stroke="#191970" points="329.9503,-158.9322 338.4422,-152.5967 327.8529,-152.2538 329.9503,-158.9322"/>
</g>
<!-- Node24&#45;&gt;Node23 -->
<g id="edge26" class="edge">
<title>Node24&#45;&gt;Node23</title>
<path fill="none" stroke="#191970" d="M260.1892,-171.4321C275.6724,-159.5147 303.4566,-138.909 329,-124 332.2452,-122.1059 335.7093,-120.2424 339.1903,-118.467"/>
<polygon fill="#191970" stroke="#191970" points="340.8581,-121.5477 348.3059,-114.0124 337.7846,-115.2584 340.8581,-121.5477"/>
</g>
<!-- Node25 -->
<g id="node25" class="node">
<title>Node25</title>
<g id="a_node25"><a xlink:href="postpro_8f.html#a2b64593a113feea75ebb2c0820824729" target="_top" xlink:title="tens3d1">
<polygon fill="#ffffff" stroke="#000000" points="343.5,-171.5 343.5,-190.5 394.5,-190.5 394.5,-171.5 343.5,-171.5"/>
<text text-anchor="middle" x="369" y="-178.5" font-family="Helvetica,sans-Serif" font-size="10.00" fill="#000000">tens3d1</text>
</a>
</g>
</g>
<!-- Node24&#45;&gt;Node25 -->
<g id="edge27" class="edge">
<title>Node24&#45;&gt;Node25</title>
<path fill="none" stroke="#191970" d="M277.5999,-181C294.2865,-181 315.2599,-181 332.9057,-181"/>
<polygon fill="#191970" stroke="#191970" points="333.3945,-184.5001 343.3945,-181 333.3945,-177.5001 333.3945,-184.5001"/>
</g>
<!-- Node26 -->
<g id="node26" class="node">
<title>Node26</title>
<g id="a_node26"><a xlink:href="math_8f.html#a0d9af374781723c272547a185cb3da5e" target="_top" xlink:title="col3">
<polygon fill="#ffffff" stroke="#000000" points="351.5,-209.5 351.5,-228.5 386.5,-228.5 386.5,-209.5 351.5,-209.5"/>
<text text-anchor="middle" x="369" y="-216.5" font-family="Helvetica,sans-Serif" font-size="10.00" fill="#000000">col3</text>
</a>
</g>
</g>
<!-- Node24&#45;&gt;Node26 -->
<g id="edge28" class="edge">
<title>Node24&#45;&gt;Node26</title>
<path fill="none" stroke="#191970" d="M277.5999,-190.2958C297.1709,-196.4421 322.6389,-204.4403 341.7186,-210.4323"/>
<polygon fill="#191970" stroke="#191970" points="340.7262,-213.7891 351.3155,-213.4462 342.8236,-207.1107 340.7262,-213.7891"/>
</g>
<!-- Node27&#45;&gt;Node25 -->
<g id="edge30" class="edge">
<title>Node27&#45;&gt;Node25</title>
<path fill="none" stroke="#191970" d="M274.6786,-287.4682C281.243,-284.6676 287.8562,-280.928 293,-276 319.9888,-250.1438 302.5856,-226.4428 329,-200 330.6334,-198.3648 332.4348,-196.8517 334.3422,-195.4545"/>
<polygon fill="#191970" stroke="#191970" points="336.4799,-198.2501 343.1911,-190.052 332.8323,-192.2756 336.4799,-198.2501"/>
</g>
<!-- Node27&#45;&gt;Node26 -->
<g id="edge31" class="edge">
<title>Node27&#45;&gt;Node26</title>
<path fill="none" stroke="#191970" d="M274.6559,-285.8858C280.938,-283.1685 287.4237,-279.864 293,-276 312.1223,-262.7496 310.1734,-251.6673 329,-238 333.0634,-235.0501 337.6571,-232.3688 342.2459,-230.0109"/>
<polygon fill="#191970" stroke="#191970" points="343.9417,-233.0807 351.4869,-225.6429 340.9503,-226.752 343.9417,-233.0807"/>
</g>
<!-- Node28 -->
<g id="node28" class="node">
<title>Node28</title>
<g id="a_node28"><a xlink:href="math_8f.html#a0f22065d62634acdc3883ba95bfcc18a" target="_top" xlink:title="sub2">
<polygon fill="#ffffff" stroke="#000000" points="350,-247.5 350,-266.5 388,-266.5 388,-247.5 350,-247.5"/>
<text text-anchor="middle" x="369" y="-254.5" font-family="Helvetica,sans-Serif" font-size="10.00" fill="#000000">sub2</text>
</a>
</g>
</g>
<!-- Node27&#45;&gt;Node28 -->
<g id="edge32" class="edge">
<title>Node27&#45;&gt;Node28</title>
<path fill="none" stroke="#191970" d="M274.554,-286.6607C293.8664,-280.5957 320.0022,-272.3878 339.8843,-266.1438"/>
<polygon fill="#191970" stroke="#191970" points="341.1502,-269.4148 349.6421,-263.0793 339.0528,-262.7364 341.1502,-269.4148"/>
</g>
<!-- Node32 -->
<g id="node32" class="node">
<title>Node32</title>
<g id="a_node32"><a xlink:href="dssum_8f.html#a93169b7e53973103de1372a81375375a" target="_top" xlink:title="gtpp_gs_setup">
<polygon fill="#ffffff" stroke="#000000" points="329,-475.5 329,-494.5 409,-494.5 409,-475.5 329,-475.5"/>
<text text-anchor="middle" x="369" y="-482.5" font-family="Helvetica,sans-Serif" font-size="10.00" fill="#000000">gtpp_gs_setup</text>
</a>
</g>
</g>
<!-- Node31&#45;&gt;Node32 -->
<g id="edge36" class="edge">
<title>Node31&#45;&gt;Node32</title>
<path fill="none" stroke="#191970" d="M293.0559,-485C301.3677,-485 310.0963,-485 318.5551,-485"/>
<polygon fill="#191970" stroke="#191970" points="318.693,-488.5001 328.693,-485 318.693,-481.5001 318.693,-488.5001"/>
</g>
<!-- Node33 -->
<g id="node33" class="node">
<title>Node33</title>
<g id="a_node33"><a xlink:href="navier5_8f.html#a43c9d798cb7be60e09268f4176c0d13f" target="_top" xlink:title="planar_avg">
<polygon fill="#ffffff" stroke="#000000" points="337,-513.5 337,-532.5 401,-532.5 401,-513.5 337,-513.5"/>
<text text-anchor="middle" x="369" y="-520.5" font-family="Helvetica,sans-Serif" font-size="10.00" fill="#000000">planar_avg</text>
</a>
</g>
</g>
<!-- Node31&#45;&gt;Node33 -->
<g id="edge37" class="edge">
<title>Node31&#45;&gt;Node33</title>
<path fill="none" stroke="#191970" d="M278.5334,-494.589C293.7234,-499.3594 312.2853,-505.1888 328.6334,-510.3229"/>
<polygon fill="#191970" stroke="#191970" points="327.8871,-513.757 338.4764,-513.4141 329.9845,-507.0786 327.8871,-513.757"/>
</g>
</g>
</svg>
