<?xml version="1.0" encoding="UTF-8" standalone="no"?>
<!DOCTYPE svg PUBLIC "-//W3C//DTD SVG 1.1//EN"
 "http://www.w3.org/Graphics/SVG/1.1/DTD/svg11.dtd">
<!-- Generated by graphviz version 2.40.1 (20161225.0304)
 -->
<!-- Title: plan3 Pages: 1 -->
<svg width="238pt" height="902pt"
 viewBox="0.00 0.00 238.00 902.00" xmlns="http://www.w3.org/2000/svg" xmlns:xlink="http://www.w3.org/1999/xlink">
<g id="graph0" class="graph" transform="scale(1 1) rotate(0) translate(4 898)">
<title>plan3</title>
<polygon fill="#ffffff" stroke="transparent" points="-4,4 -4,-898 234,-898 234,4 -4,4"/>
<!-- Node181 -->
<g id="node1" class="node">
<title>Node181</title>
<polygon fill="#bfbfbf" stroke="#000000" points="0,-494.5 0,-513.5 40,-513.5 40,-494.5 0,-494.5"/>
<text text-anchor="middle" x="20" y="-501.5" font-family="Helvetica,sans-Serif" font-size="10.00" fill="#000000">plan3</text>
</g>
<!-- Node182 -->
<g id="node2" class="node">
<title>Node182</title>
<g id="a_node2"><a xlink:href="group__core.html#ga83189b3d1938d87f00ace2e7e05d9e4c" target="_top" xlink:title="Compute and add. ">
<polygon fill="#ffffff" stroke="#000000" points="82,-703.5 82,-722.5 126,-722.5 126,-703.5 82,-703.5"/>
<text text-anchor="middle" x="104" y="-710.5" font-family="Helvetica,sans-Serif" font-size="10.00" fill="#000000">makef</text>
</a>
</g>
</g>
<!-- Node181&#45;&gt;Node182 -->
<g id="edge1" class="edge">
<title>Node181&#45;&gt;Node182</title>
<path fill="none" stroke="#191970" d="M23.8276,-513.5234C36.7553,-545.6887 78.9607,-650.6999 96.3776,-694.0348"/>
<polygon fill="#191970" stroke="#191970" points="93.1731,-695.4473 100.1499,-703.4207 99.6682,-692.8368 93.1731,-695.4473"/>
</g>
<!-- Node192 -->
<g id="node12" class="node">
<title>Node192</title>
<g id="a_node12"><a xlink:href="subs1_8f.html#ae2376b70f309c6118b4e43df9cbe66b1" target="_top" xlink:title="sethlm">
<polygon fill="#ffffff" stroke="#000000" points="81,-551.5 81,-570.5 127,-570.5 127,-551.5 81,-551.5"/>
<text text-anchor="middle" x="104" y="-558.5" font-family="Helvetica,sans-Serif" font-size="10.00" fill="#000000">sethlm</text>
</a>
</g>
</g>
<!-- Node181&#45;&gt;Node192 -->
<g id="edge11" class="edge">
<title>Node181&#45;&gt;Node192</title>
<path fill="none" stroke="#191970" d="M34.2495,-513.6693C47.1187,-522.4019 66.2796,-535.404 81.2642,-545.5722"/>
<polygon fill="#191970" stroke="#191970" points="79.7209,-548.7546 89.961,-551.4735 83.6515,-542.9623 79.7209,-548.7546"/>
</g>
<!-- Node193 -->
<g id="node13" class="node">
<title>Node193</title>
<g id="a_node13"><a xlink:href="planx_8f.html#a02873cc7b2b98973667aa8cb9f2cbadb" target="_top" xlink:title="cresvif">
<polygon fill="#ffffff" stroke="#000000" points="81,-513.5 81,-532.5 127,-532.5 127,-513.5 81,-513.5"/>
<text text-anchor="middle" x="104" y="-520.5" font-family="Helvetica,sans-Serif" font-size="10.00" fill="#000000">cresvif</text>
</a>
</g>
</g>
<!-- Node181&#45;&gt;Node193 -->
<g id="edge12" class="edge">
<title>Node181&#45;&gt;Node193</title>
<path fill="none" stroke="#191970" d="M40.3341,-508.5994C49.5109,-510.6751 60.5881,-513.1806 70.9121,-515.5158"/>
<polygon fill="#191970" stroke="#191970" points="70.3611,-518.9795 80.8869,-517.772 71.9054,-512.152 70.3611,-518.9795"/>
</g>
<!-- Node194 -->
<g id="node14" class="node">
<title>Node194</title>
<g id="a_node14"><a xlink:href="induct_8f.html#a1a8a16f24236d6e6f08fe4d60cb29d01" target="_top" xlink:title="ophinv">
<polygon fill="#ffffff" stroke="#000000" points="81.5,-475.5 81.5,-494.5 126.5,-494.5 126.5,-475.5 81.5,-475.5"/>
<text text-anchor="middle" x="104" y="-482.5" font-family="Helvetica,sans-Serif" font-size="10.00" fill="#000000">ophinv</text>
</a>
</g>
</g>
<!-- Node181&#45;&gt;Node194 -->
<g id="edge13" class="edge">
<title>Node181&#45;&gt;Node194</title>
<path fill="none" stroke="#191970" d="M40.3341,-499.4006C49.7537,-497.27 61.1755,-494.6865 71.7299,-492.2992"/>
<polygon fill="#191970" stroke="#191970" points="72.5081,-495.7117 81.4895,-490.0917 70.9637,-488.8841 72.5081,-495.7117"/>
</g>
<!-- Node195 -->
<g id="node15" class="node">
<title>Node195</title>
<g id="a_node15"><a xlink:href="navier1_8f.html#ad1bbe02eb4b6eb1d16f7612e1947dac5" target="_top" xlink:title="opadd2">
<polygon fill="#ffffff" stroke="#000000" points="80,-437.5 80,-456.5 128,-456.5 128,-437.5 80,-437.5"/>
<text text-anchor="middle" x="104" y="-444.5" font-family="Helvetica,sans-Serif" font-size="10.00" fill="#000000">opadd2</text>
</a>
</g>
</g>
<!-- Node181&#45;&gt;Node195 -->
<g id="edge14" class="edge">
<title>Node181&#45;&gt;Node195</title>
<path fill="none" stroke="#191970" d="M34.2495,-494.3307C47.1187,-485.5981 66.2796,-472.596 81.2642,-462.4278"/>
<polygon fill="#191970" stroke="#191970" points="83.6515,-465.0377 89.961,-456.5265 79.7209,-459.2454 83.6515,-465.0377"/>
</g>
<!-- Node196 -->
<g id="node16" class="node">
<title>Node196</title>
<g id="a_node16"><a xlink:href="group__core.html#gaeb2c6d4ae2c98143118acce2419c034d" target="_top" xlink:title="Project U onto the closest incompressible field. ">
<polygon fill="#ffffff" stroke="#000000" points="76,-304.5 76,-323.5 132,-323.5 132,-304.5 76,-304.5"/>
<text text-anchor="middle" x="104" y="-311.5" font-family="Helvetica,sans-Serif" font-size="10.00" fill="#000000">incomprn</text>
</a>
</g>
</g>
<!-- Node181&#45;&gt;Node196 -->
<g id="edge15" class="edge">
<title>Node181&#45;&gt;Node196</title>
<path fill="none" stroke="#191970" d="M24.2811,-494.3167C37.5059,-464.4033 77.8799,-373.0811 95.5588,-333.0931"/>
<polygon fill="#191970" stroke="#191970" points="98.7844,-334.453 99.6268,-323.8917 92.3821,-331.6225 98.7844,-334.453"/>
</g>
<!-- Node183 -->
<g id="node3" class="node">
<title>Node183</title>
<g id="a_node3"><a xlink:href="comm__mpi_8f.html#af06ec29f06aac3f8809e19de2a7e8946" target="_top" xlink:title="dnekclock">
<polygon fill="#ffffff" stroke="#000000" points="168.5,-570.5 168.5,-589.5 229.5,-589.5 229.5,-570.5 168.5,-570.5"/>
<text text-anchor="middle" x="199" y="-577.5" font-family="Helvetica,sans-Serif" font-size="10.00" fill="#000000">dnekclock</text>
</a>
</g>
</g>
<!-- Node182&#45;&gt;Node183 -->
<g id="edge2" class="edge">
<title>Node182&#45;&gt;Node183</title>
<path fill="none" stroke="#191970" d="M107.4474,-703.402C115.3795,-682.3783 136.6791,-631.544 168,-599 169.067,-597.8914 170.2118,-596.8216 171.4099,-595.7934"/>
<polygon fill="#191970" stroke="#191970" points="173.8236,-598.3645 179.8319,-589.638 169.6931,-592.713 173.8236,-598.3645"/>
</g>
<!-- Node184 -->
<g id="node4" class="node">
<title>Node184</title>
<g id="a_node4"><a xlink:href="navier1_8f.html#a04edbb4ba3cfada4513a76a4e65a5561" target="_top" xlink:title="makeuf">
<polygon fill="#ffffff" stroke="#000000" points="174.5,-874.5 174.5,-893.5 223.5,-893.5 223.5,-874.5 174.5,-874.5"/>
<text text-anchor="middle" x="199" y="-881.5" font-family="Helvetica,sans-Serif" font-size="10.00" fill="#000000">makeuf</text>
</a>
</g>
</g>
<!-- Node182&#45;&gt;Node184 -->
<g id="edge3" class="edge">
<title>Node182&#45;&gt;Node184</title>
<path fill="none" stroke="#191970" d="M105.8917,-722.6331C111.3703,-748.4082 129.3781,-820.0418 168,-865 168.9769,-866.1372 170.0394,-867.2269 171.1631,-868.2682"/>
<polygon fill="#191970" stroke="#191970" points="169.1423,-871.1289 179.2109,-874.4266 173.3963,-865.5699 169.1423,-871.1289"/>
</g>
<!-- Node185 -->
<g id="node5" class="node">
<title>Node185</title>
<g id="a_node5"><a xlink:href="hpf_8f.html#aa74c82c5e339de802f489470b23422a0" target="_top" xlink:title="make_hpf">
<polygon fill="#ffffff" stroke="#000000" points="169.5,-836.5 169.5,-855.5 228.5,-855.5 228.5,-836.5 169.5,-836.5"/>
<text text-anchor="middle" x="199" y="-843.5" font-family="Helvetica,sans-Serif" font-size="10.00" fill="#000000">make_hpf</text>
</a>
</g>
</g>
<!-- Node182&#45;&gt;Node185 -->
<g id="edge4" class="edge">
<title>Node182&#45;&gt;Node185</title>
<path fill="none" stroke="#191970" d="M107.4474,-722.598C115.3795,-743.6217 136.6791,-794.456 168,-827 169.067,-828.1086 170.2118,-829.1784 171.4099,-830.2066"/>
<polygon fill="#191970" stroke="#191970" points="169.6931,-833.287 179.8319,-836.362 173.8236,-827.6355 169.6931,-833.287"/>
</g>
<!-- Node186 -->
<g id="node6" class="node">
<title>Node186</title>
<g id="a_node6"><a xlink:href="navier1_8f.html#ae6ed8f0409f034c9d0dff152a3445d90" target="_top" xlink:title="makevis">
<polygon fill="#ffffff" stroke="#000000" points="172.5,-798.5 172.5,-817.5 225.5,-817.5 225.5,-798.5 172.5,-798.5"/>
<text text-anchor="middle" x="199" y="-805.5" font-family="Helvetica,sans-Serif" font-size="10.00" fill="#000000">makevis</text>
</a>
</g>
</g>
<!-- Node182&#45;&gt;Node186 -->
<g id="edge5" class="edge">
<title>Node182&#45;&gt;Node186</title>
<path fill="none" stroke="#191970" d="M110.6298,-722.7419C121.4026,-738.0957 143.9379,-768.3021 168,-789 169.5074,-790.2967 171.1133,-791.5619 172.7704,-792.7838"/>
<polygon fill="#191970" stroke="#191970" points="171.0108,-795.8178 181.2665,-798.4772 174.9076,-790.0028 171.0108,-795.8178"/>
</g>
<!-- Node187 -->
<g id="node7" class="node">
<title>Node187</title>
<g id="a_node7"><a xlink:href="navier1_8f.html#a344ec731e4a89d0f136c91bc1963e8d5" target="_top" xlink:title="advab">
<polygon fill="#ffffff" stroke="#000000" points="177.5,-760.5 177.5,-779.5 220.5,-779.5 220.5,-760.5 177.5,-760.5"/>
<text text-anchor="middle" x="199" y="-767.5" font-family="Helvetica,sans-Serif" font-size="10.00" fill="#000000">advab</text>
</a>
</g>
</g>
<!-- Node182&#45;&gt;Node187 -->
<g id="edge6" class="edge">
<title>Node182&#45;&gt;Node187</title>
<path fill="none" stroke="#191970" d="M120.1155,-722.6693C134.9445,-731.5667 157.1603,-744.8962 174.2411,-755.1446"/>
<polygon fill="#191970" stroke="#191970" points="172.7468,-758.3298 183.1225,-760.4735 176.3484,-752.3273 172.7468,-758.3298"/>
</g>
<!-- Node188 -->
<g id="node8" class="node">
<title>Node188</title>
<g id="a_node8"><a xlink:href="mvmesh_8f.html#a1b9c194ae1f554f335f3d6c21eacded3" target="_top" xlink:title="admeshv">
<polygon fill="#ffffff" stroke="#000000" points="171,-722.5 171,-741.5 227,-741.5 227,-722.5 171,-722.5"/>
<text text-anchor="middle" x="199" y="-729.5" font-family="Helvetica,sans-Serif" font-size="10.00" fill="#000000">admeshv</text>
</a>
</g>
</g>
<!-- Node182&#45;&gt;Node188 -->
<g id="edge7" class="edge">
<title>Node182&#45;&gt;Node188</title>
<path fill="none" stroke="#191970" d="M126.0337,-717.4067C136.3778,-719.4756 149.0096,-722.0019 160.8373,-724.3675"/>
<polygon fill="#191970" stroke="#191970" points="160.4544,-727.8601 170.9466,-726.3893 161.8272,-720.996 160.4544,-727.8601"/>
</g>
<!-- Node189 -->
<g id="node9" class="node">
<title>Node189</title>
<g id="a_node9"><a xlink:href="navier1_8f.html#ab907b0b4f57c160c86799b03de3cef19" target="_top" xlink:title="makeabf">
<polygon fill="#ffffff" stroke="#000000" points="172,-684.5 172,-703.5 226,-703.5 226,-684.5 172,-684.5"/>
<text text-anchor="middle" x="199" y="-691.5" font-family="Helvetica,sans-Serif" font-size="10.00" fill="#000000">makeabf</text>
</a>
</g>
</g>
<!-- Node182&#45;&gt;Node189 -->
<g id="edge8" class="edge">
<title>Node182&#45;&gt;Node189</title>
<path fill="none" stroke="#191970" d="M126.0337,-708.5933C136.7392,-706.4522 149.8951,-703.821 162.074,-701.3852"/>
<polygon fill="#191970" stroke="#191970" points="162.8798,-704.7934 171.9992,-699.4002 161.507,-697.9294 162.8798,-704.7934"/>
</g>
<!-- Node190 -->
<g id="node10" class="node">
<title>Node190</title>
<g id="a_node10"><a xlink:href="navier1_8f.html#a0510a60155ebc71a3acda4b1e7e507e5" target="_top" xlink:title="makebdf">
<polygon fill="#ffffff" stroke="#000000" points="172,-646.5 172,-665.5 226,-665.5 226,-646.5 172,-646.5"/>
<text text-anchor="middle" x="199" y="-653.5" font-family="Helvetica,sans-Serif" font-size="10.00" fill="#000000">makebdf</text>
</a>
</g>
</g>
<!-- Node182&#45;&gt;Node190 -->
<g id="edge9" class="edge">
<title>Node182&#45;&gt;Node190</title>
<path fill="none" stroke="#191970" d="M120.1155,-703.3307C134.9445,-694.4333 157.1603,-681.1038 174.2411,-670.8554"/>
<polygon fill="#191970" stroke="#191970" points="176.3484,-673.6727 183.1225,-665.5265 172.7468,-667.6702 176.3484,-673.6727"/>
</g>
<!-- Node191 -->
<g id="node11" class="node">
<title>Node191</title>
<g id="a_node11"><a xlink:href="convect_8f.html#afc0b2ce765c4ad0f0ec6f2a62536bf57" target="_top" xlink:title="advchar">
<polygon fill="#ffffff" stroke="#000000" points="173.5,-608.5 173.5,-627.5 224.5,-627.5 224.5,-608.5 173.5,-608.5"/>
<text text-anchor="middle" x="199" y="-615.5" font-family="Helvetica,sans-Serif" font-size="10.00" fill="#000000">advchar</text>
</a>
</g>
</g>
<!-- Node182&#45;&gt;Node191 -->
<g id="edge10" class="edge">
<title>Node182&#45;&gt;Node191</title>
<path fill="none" stroke="#191970" d="M110.6298,-703.2581C121.4026,-687.9043 143.9379,-657.6979 168,-637 169.5074,-635.7033 171.1133,-634.4381 172.7704,-633.2162"/>
<polygon fill="#191970" stroke="#191970" points="174.9076,-635.9972 181.2665,-627.5228 171.0108,-630.1822 174.9076,-635.9972"/>
</g>
<!-- Node196&#45;&gt;Node183 -->
<g id="edge16" class="edge">
<title>Node196&#45;&gt;Node183</title>
<path fill="none" stroke="#191970" d="M106.4251,-323.7684C117.6639,-368.9858 164.2936,-555.9932 168,-561 168.676,-561.9132 169.4103,-562.792 170.1911,-563.6366"/>
<polygon fill="#191970" stroke="#191970" points="168.2563,-566.5818 178.168,-570.3247 172.7538,-561.2177 168.2563,-566.5818"/>
</g>
<!-- Node197 -->
<g id="node17" class="node">
<title>Node197</title>
<g id="a_node17"><a xlink:href="math_8f.html#af44de42b023a4a68cd98ea341204342d" target="_top" xlink:title="rzero">
<polygon fill="#ffffff" stroke="#000000" points="180,-532.5 180,-551.5 218,-551.5 218,-532.5 180,-532.5"/>
<text text-anchor="middle" x="199" y="-539.5" font-family="Helvetica,sans-Serif" font-size="10.00" fill="#000000">rzero</text>
</a>
</g>
</g>
<!-- Node196&#45;&gt;Node197 -->
<g id="edge17" class="edge">
<title>Node196&#45;&gt;Node197</title>
<path fill="none" stroke="#191970" d="M106.5418,-323.7222C116.7931,-362.7095 155.1611,-506.4247 168,-523 169.0896,-524.4067 170.3151,-525.7339 171.6333,-526.9822"/>
<polygon fill="#191970" stroke="#191970" points="169.8198,-530.0003 179.8972,-533.2708 174.0588,-524.4297 169.8198,-530.0003"/>
</g>
<!-- Node198 -->
<g id="node18" class="node">
<title>Node198</title>
<g id="a_node18"><a xlink:href="math_8f.html#a3b43508554f14bdea8e14473d7d0803c" target="_top" xlink:title="copy">
<polygon fill="#ffffff" stroke="#000000" points="180,-494.5 180,-513.5 218,-513.5 218,-494.5 180,-494.5"/>
<text text-anchor="middle" x="199" y="-501.5" font-family="Helvetica,sans-Serif" font-size="10.00" fill="#000000">copy</text>
</a>
</g>
</g>
<!-- Node196&#45;&gt;Node198 -->
<g id="edge18" class="edge">
<title>Node196&#45;&gt;Node198</title>
<path fill="none" stroke="#191970" d="M105.3546,-323.6046C109.7145,-351.4747 125.6513,-433.6407 168,-485 169.1043,-486.3393 170.3292,-487.6101 171.6358,-488.8117"/>
<polygon fill="#191970" stroke="#191970" points="169.6548,-491.7016 179.7454,-494.9314 173.8714,-486.114 169.6548,-491.7016"/>
</g>
<!-- Node199 -->
<g id="node19" class="node">
<title>Node199</title>
<g id="a_node19"><a xlink:href="math_8f.html#a0fcb0ff151fe3548d0d07961e8365efe" target="_top" xlink:title="invers2">
<polygon fill="#ffffff" stroke="#000000" points="175,-456.5 175,-475.5 223,-475.5 223,-456.5 175,-456.5"/>
<text text-anchor="middle" x="199" y="-463.5" font-family="Helvetica,sans-Serif" font-size="10.00" fill="#000000">invers2</text>
</a>
</g>
</g>
<!-- Node196&#45;&gt;Node199 -->
<g id="edge19" class="edge">
<title>Node196&#45;&gt;Node199</title>
<path fill="none" stroke="#191970" d="M106.6096,-323.7783C113.3178,-347.3876 133.1283,-408.4018 168,-447 169.005,-448.1124 170.0904,-449.182 171.2325,-450.207"/>
<polygon fill="#191970" stroke="#191970" points="169.2488,-453.0945 179.3443,-456.3091 173.4569,-447.5006 169.2488,-453.0945"/>
</g>
<!-- Node200 -->
<g id="node20" class="node">
<title>Node200</title>
<g id="a_node20"><a xlink:href="navier1_8f.html#a58af49abaf1ee0cc07be356ad2721d90" target="_top" xlink:title="opdiv">
<polygon fill="#ffffff" stroke="#000000" points="179,-418.5 179,-437.5 219,-437.5 219,-418.5 179,-418.5"/>
<text text-anchor="middle" x="199" y="-425.5" font-family="Helvetica,sans-Serif" font-size="10.00" fill="#000000">opdiv</text>
</a>
</g>
</g>
<!-- Node196&#45;&gt;Node200 -->
<g id="edge20" class="edge">
<title>Node196&#45;&gt;Node200</title>
<path fill="none" stroke="#191970" d="M108.6845,-323.6047C117.9822,-341.9368 140.2833,-382.45 168,-409 169.2536,-410.2008 170.5955,-411.3629 171.9925,-412.4807"/>
<polygon fill="#191970" stroke="#191970" points="170.1664,-415.4752 180.3609,-418.3601 174.1905,-409.7474 170.1664,-415.4752"/>
</g>
<!-- Node201 -->
<g id="node21" class="node">
<title>Node201</title>
<g id="a_node21"><a xlink:href="math_8f.html#ad2b51b68d370651f4f6d81952503e7be" target="_top" xlink:title="cmult">
<polygon fill="#ffffff" stroke="#000000" points="178.5,-380.5 178.5,-399.5 219.5,-399.5 219.5,-380.5 178.5,-380.5"/>
<text text-anchor="middle" x="199" y="-387.5" font-family="Helvetica,sans-Serif" font-size="10.00" fill="#000000">cmult</text>
</a>
</g>
</g>
<!-- Node196&#45;&gt;Node201 -->
<g id="edge21" class="edge">
<title>Node196&#45;&gt;Node201</title>
<path fill="none" stroke="#191970" d="M113.9399,-323.8706C126.1332,-335.7324 147.6924,-355.9201 168,-371 169.8118,-372.3454 171.7221,-373.6855 173.6681,-374.9957"/>
<polygon fill="#191970" stroke="#191970" points="171.9221,-378.0336 182.2329,-380.4705 175.6923,-372.1356 171.9221,-378.0336"/>
</g>
<!-- Node202 -->
<g id="node22" class="node">
<title>Node202</title>
<g id="a_node22"><a xlink:href="math_8f.html#a1c8c804ea900711911c4c33fe1f5b184" target="_top" xlink:title="add2col2">
<polygon fill="#ffffff" stroke="#000000" points="171,-342.5 171,-361.5 227,-361.5 227,-342.5 171,-342.5"/>
<text text-anchor="middle" x="199" y="-349.5" font-family="Helvetica,sans-Serif" font-size="10.00" fill="#000000">add2col2</text>
</a>
</g>
</g>
<!-- Node196&#45;&gt;Node202 -->
<g id="edge22" class="edge">
<title>Node196&#45;&gt;Node202</title>
<path fill="none" stroke="#191970" d="M127.9725,-323.589C139.336,-328.1344 153.103,-333.6412 165.4797,-338.5919"/>
<polygon fill="#191970" stroke="#191970" points="164.4505,-341.9498 175.0352,-342.4141 167.0503,-335.4504 164.4505,-341.9498"/>
</g>
<!-- Node203 -->
<g id="node23" class="node">
<title>Node203</title>
<g id="a_node23"><a xlink:href="navier1_8f.html#a4905d51f51b57bfec184a6b44f858bdb" target="_top" xlink:title="ortho">
<polygon fill="#ffffff" stroke="#000000" points="180,-304.5 180,-323.5 218,-323.5 218,-304.5 180,-304.5"/>
<text text-anchor="middle" x="199" y="-311.5" font-family="Helvetica,sans-Serif" font-size="10.00" fill="#000000">ortho</text>
</a>
</g>
</g>
<!-- Node196&#45;&gt;Node203 -->
<g id="edge23" class="edge">
<title>Node196&#45;&gt;Node203</title>
<path fill="none" stroke="#191970" d="M132.2459,-314C143.971,-314 157.5802,-314 169.4401,-314"/>
<polygon fill="#191970" stroke="#191970" points="169.736,-317.5001 179.736,-314 169.736,-310.5001 169.736,-317.5001"/>
</g>
<!-- Node204 -->
<g id="node24" class="node">
<title>Node204</title>
<g id="a_node24"><a xlink:href="induct_8f.html#a85f2bbdd91096e0df0353ebd6968b71d" target="_top" xlink:title="setrhsp">
<polygon fill="#ffffff" stroke="#000000" points="174.5,-266.5 174.5,-285.5 223.5,-285.5 223.5,-266.5 174.5,-266.5"/>
<text text-anchor="middle" x="199" y="-273.5" font-family="Helvetica,sans-Serif" font-size="10.00" fill="#000000">setrhsp</text>
</a>
</g>
</g>
<!-- Node196&#45;&gt;Node204 -->
<g id="edge24" class="edge">
<title>Node196&#45;&gt;Node204</title>
<path fill="none" stroke="#191970" d="M127.9725,-304.411C139.336,-299.8656 153.103,-294.3588 165.4797,-289.4081"/>
<polygon fill="#191970" stroke="#191970" points="167.0503,-292.5496 175.0352,-285.5859 164.4505,-286.0502 167.0503,-292.5496"/>
</g>
<!-- Node205 -->
<g id="node25" class="node">
<title>Node205</title>
<g id="a_node25"><a xlink:href="navier0_8f.html#aaba079db7e38db9800deef09526370ec" target="_top" xlink:title="esolver">
<polygon fill="#ffffff" stroke="#000000" points="175,-228.5 175,-247.5 223,-247.5 223,-228.5 175,-228.5"/>
<text text-anchor="middle" x="199" y="-235.5" font-family="Helvetica,sans-Serif" font-size="10.00" fill="#000000">esolver</text>
</a>
</g>
</g>
<!-- Node196&#45;&gt;Node205 -->
<g id="edge25" class="edge">
<title>Node196&#45;&gt;Node205</title>
<path fill="none" stroke="#191970" d="M113.9399,-304.1294C126.1332,-292.2676 147.6924,-272.0799 168,-257 169.8118,-255.6546 171.7221,-254.3145 173.6681,-253.0043"/>
<polygon fill="#191970" stroke="#191970" points="175.6923,-255.8644 182.2329,-247.5295 171.9221,-249.9664 175.6923,-255.8644"/>
</g>
<!-- Node206 -->
<g id="node26" class="node">
<title>Node206</title>
<g id="a_node26"><a xlink:href="induct_8f.html#a92d19447dae1fa7af20c94dbf1c09992" target="_top" xlink:title="gensolnp">
<polygon fill="#ffffff" stroke="#000000" points="171,-190.5 171,-209.5 227,-209.5 227,-190.5 171,-190.5"/>
<text text-anchor="middle" x="199" y="-197.5" font-family="Helvetica,sans-Serif" font-size="10.00" fill="#000000">gensolnp</text>
</a>
</g>
</g>
<!-- Node196&#45;&gt;Node206 -->
<g id="edge26" class="edge">
<title>Node196&#45;&gt;Node206</title>
<path fill="none" stroke="#191970" d="M108.6845,-304.3953C117.9822,-286.0632 140.2833,-245.55 168,-219 169.2536,-217.7992 170.5955,-216.6371 171.9925,-215.5193"/>
<polygon fill="#191970" stroke="#191970" points="174.1905,-218.2526 180.3609,-209.6399 170.1664,-212.5248 174.1905,-218.2526"/>
</g>
<!-- Node207 -->
<g id="node27" class="node">
<title>Node207</title>
<g id="a_node27"><a xlink:href="math_8f.html#a30b83d516b6ab162d3fafe73e03a3e92" target="_top" xlink:title="add2">
<polygon fill="#ffffff" stroke="#000000" points="180,-152.5 180,-171.5 218,-171.5 218,-152.5 180,-152.5"/>
<text text-anchor="middle" x="199" y="-159.5" font-family="Helvetica,sans-Serif" font-size="10.00" fill="#000000">add2</text>
</a>
</g>
</g>
<!-- Node196&#45;&gt;Node207 -->
<g id="edge27" class="edge">
<title>Node196&#45;&gt;Node207</title>
<path fill="none" stroke="#191970" d="M106.6096,-304.2217C113.3178,-280.6124 133.1283,-219.5982 168,-181 169.1637,-179.7119 170.4351,-178.4813 171.7777,-177.3107"/>
<polygon fill="#191970" stroke="#191970" points="174.0017,-180.02 179.9903,-171.28 169.8584,-174.3778 174.0017,-180.02"/>
</g>
<!-- Node208 -->
<g id="node28" class="node">
<title>Node208</title>
<g id="a_node28"><a xlink:href="navier1_8f.html#a0319e77dcb754cfe343f5e1e0a54f8dd" target="_top" xlink:title="opgradt">
<polygon fill="#ffffff" stroke="#000000" points="174.5,-114.5 174.5,-133.5 223.5,-133.5 223.5,-114.5 174.5,-114.5"/>
<text text-anchor="middle" x="199" y="-121.5" font-family="Helvetica,sans-Serif" font-size="10.00" fill="#000000">opgradt</text>
</a>
</g>
</g>
<!-- Node196&#45;&gt;Node208 -->
<g id="edge28" class="edge">
<title>Node196&#45;&gt;Node208</title>
<path fill="none" stroke="#191970" d="M105.3546,-304.3954C109.7145,-276.5253 125.6513,-194.3593 168,-143 168.8358,-141.9864 169.7406,-141.012 170.6976,-140.0771"/>
<polygon fill="#191970" stroke="#191970" points="173.1037,-142.6367 178.7793,-133.6903 168.7634,-137.1447 173.1037,-142.6367"/>
</g>
<!-- Node209 -->
<g id="node29" class="node">
<title>Node209</title>
<g id="a_node29"><a xlink:href="navier1_8f.html#a4d7a006ce8ef086e842bc09f74169951" target="_top" xlink:title="opbinv">
<polygon fill="#ffffff" stroke="#000000" points="176.5,-76.5 176.5,-95.5 221.5,-95.5 221.5,-76.5 176.5,-76.5"/>
<text text-anchor="middle" x="199" y="-83.5" font-family="Helvetica,sans-Serif" font-size="10.00" fill="#000000">opbinv</text>
</a>
</g>
</g>
<!-- Node196&#45;&gt;Node209 -->
<g id="edge29" class="edge">
<title>Node196&#45;&gt;Node209</title>
<path fill="none" stroke="#191970" d="M104.5871,-304.1535C106.96,-272.1135 118.2709,-169.2013 168,-105 168.8045,-103.9614 169.6831,-102.966 170.6184,-102.0138"/>
<polygon fill="#191970" stroke="#191970" points="173.0325,-104.563 178.6106,-95.5555 168.6328,-99.1184 173.0325,-104.563"/>
</g>
<!-- Node210 -->
<g id="node30" class="node">
<title>Node210</title>
<g id="a_node30"><a xlink:href="plan4_8f.html#a8cde16ca4292836a681d1021ada2dc28" target="_top" xlink:title="opadd2cm">
<polygon fill="#ffffff" stroke="#000000" points="168,-38.5 168,-57.5 230,-57.5 230,-38.5 168,-38.5"/>
<text text-anchor="middle" x="199" y="-45.5" font-family="Helvetica,sans-Serif" font-size="10.00" fill="#000000">opadd2cm</text>
</a>
</g>
</g>
<!-- Node196&#45;&gt;Node210 -->
<g id="edge30" class="edge">
<title>Node196&#45;&gt;Node210</title>
<path fill="none" stroke="#191970" d="M105.4947,-304.4528C111.9801,-263.9517 138.6785,-106.6097 168,-67 168.676,-66.0868 169.4103,-65.208 170.1911,-64.3634"/>
<polygon fill="#191970" stroke="#191970" points="172.7538,-66.7823 178.168,-57.6753 168.2563,-61.4182 172.7538,-66.7823"/>
</g>
<!-- Node211 -->
<g id="node31" class="node">
<title>Node211</title>
<g id="a_node31"><a xlink:href="navier4_8f.html#a43f20a275a318725bfdf9e8eaa0839fa" target="_top" xlink:title="chkptol">
<polygon fill="#ffffff" stroke="#000000" points="175,-.5 175,-19.5 223,-19.5 223,-.5 175,-.5"/>
<text text-anchor="middle" x="199" y="-7.5" font-family="Helvetica,sans-Serif" font-size="10.00" fill="#000000">chkptol</text>
</a>
</g>
</g>
<!-- Node196&#45;&gt;Node211 -->
<g id="edge31" class="edge">
<title>Node196&#45;&gt;Node211</title>
<path fill="none" stroke="#191970" d="M105.1643,-304.2197C110.6311,-259.5721 134.8828,-75.2984 168,-29 168.661,-28.0759 169.3824,-27.1877 170.1523,-26.3351"/>
<polygon fill="#191970" stroke="#191970" points="172.7178,-28.7483 178.075,-19.6076 168.1869,-23.4124 172.7178,-28.7483"/>
</g>
</g>
</svg>
