<?xml version="1.0" encoding="UTF-8" standalone="no"?>
<!DOCTYPE svg PUBLIC "-//W3C//DTD SVG 1.1//EN"
 "http://www.w3.org/Graphics/SVG/1.1/DTD/svg11.dtd">
<!-- Generated by graphviz version 2.40.1 (20161225.0304)
 -->
<!-- Title: makef Pages: 1 -->
<svg width="149pt" height="332pt"
 viewBox="0.00 0.00 149.00 332.00" xmlns="http://www.w3.org/2000/svg" xmlns:xlink="http://www.w3.org/1999/xlink">
<g id="graph0" class="graph" transform="scale(1 1) rotate(0) translate(4 328)">
<title>makef</title>
<polygon fill="#ffffff" stroke="transparent" points="-4,4 -4,-328 145,-328 145,4 -4,4"/>
<!-- Node57 -->
<g id="node1" class="node">
<title>Node57</title>
<polygon fill="#bfbfbf" stroke="#000000" points="0,-152.5 0,-171.5 44,-171.5 44,-152.5 0,-152.5"/>
<text text-anchor="middle" x="22" y="-159.5" font-family="Helvetica,sans-Serif" font-size="10.00" fill="#000000">makef</text>
</g>
<!-- Node58 -->
<g id="node2" class="node">
<title>Node58</title>
<g id="a_node2"><a xlink:href="comm__mpi_8f.html#af06ec29f06aac3f8809e19de2a7e8946" target="_top" xlink:title="dnekclock">
<polygon fill="#ffffff" stroke="#000000" points="80,-304.5 80,-323.5 141,-323.5 141,-304.5 80,-304.5"/>
<text text-anchor="middle" x="110.5" y="-311.5" font-family="Helvetica,sans-Serif" font-size="10.00" fill="#000000">dnekclock</text>
</a>
</g>
</g>
<!-- Node57&#45;&gt;Node58 -->
<g id="edge1" class="edge">
<title>Node57&#45;&gt;Node58</title>
<path fill="none" stroke="#191970" d="M24.1303,-171.7655C29.6886,-195.3462 46.5727,-256.3018 80,-295 80.9685,-296.1213 82.0199,-297.198 83.1303,-298.2288"/>
<polygon fill="#191970" stroke="#191970" points="81.0097,-301.0133 91.065,-304.351 85.2858,-295.4712 81.0097,-301.0133"/>
</g>
<!-- Node59 -->
<g id="node3" class="node">
<title>Node59</title>
<g id="a_node3"><a xlink:href="navier1_8f.html#a04edbb4ba3cfada4513a76a4e65a5561" target="_top" xlink:title="makeuf">
<polygon fill="#ffffff" stroke="#000000" points="86,-266.5 86,-285.5 135,-285.5 135,-266.5 86,-266.5"/>
<text text-anchor="middle" x="110.5" y="-273.5" font-family="Helvetica,sans-Serif" font-size="10.00" fill="#000000">makeuf</text>
</a>
</g>
</g>
<!-- Node57&#45;&gt;Node59 -->
<g id="edge2" class="edge">
<title>Node57&#45;&gt;Node59</title>
<path fill="none" stroke="#191970" d="M26.0392,-171.6156C34.113,-189.9663 53.7473,-230.5099 80,-257 81.2076,-258.2186 82.5078,-259.3946 83.8666,-260.5231"/>
<polygon fill="#191970" stroke="#191970" points="81.8985,-263.419 92.0555,-266.4333 85.9951,-257.7429 81.8985,-263.419"/>
</g>
<!-- Node60 -->
<g id="node4" class="node">
<title>Node60</title>
<g id="a_node4"><a xlink:href="hpf_8f.html#aa74c82c5e339de802f489470b23422a0" target="_top" xlink:title="make_hpf">
<polygon fill="#ffffff" stroke="#000000" points="81,-228.5 81,-247.5 140,-247.5 140,-228.5 81,-228.5"/>
<text text-anchor="middle" x="110.5" y="-235.5" font-family="Helvetica,sans-Serif" font-size="10.00" fill="#000000">make_hpf</text>
</a>
</g>
</g>
<!-- Node57&#45;&gt;Node60 -->
<g id="edge3" class="edge">
<title>Node57&#45;&gt;Node60</title>
<path fill="none" stroke="#191970" d="M30.473,-171.5319C41.2965,-183.412 60.9199,-203.9793 80,-219 81.5808,-220.2445 83.2474,-221.477 84.9531,-222.6807"/>
<polygon fill="#191970" stroke="#191970" points="83.3166,-225.7943 93.5905,-228.3824 87.173,-219.9523 83.3166,-225.7943"/>
</g>
<!-- Node61 -->
<g id="node5" class="node">
<title>Node61</title>
<g id="a_node5"><a xlink:href="navier1_8f.html#ae6ed8f0409f034c9d0dff152a3445d90" target="_top" xlink:title="makevis">
<polygon fill="#ffffff" stroke="#000000" points="84,-190.5 84,-209.5 137,-209.5 137,-190.5 84,-190.5"/>
<text text-anchor="middle" x="110.5" y="-197.5" font-family="Helvetica,sans-Serif" font-size="10.00" fill="#000000">makevis</text>
</a>
</g>
</g>
<!-- Node57&#45;&gt;Node61 -->
<g id="edge4" class="edge">
<title>Node57&#45;&gt;Node61</title>
<path fill="none" stroke="#191970" d="M44.3323,-171.589C54.8135,-176.0894 67.4895,-181.5322 78.9304,-186.4447"/>
<polygon fill="#191970" stroke="#191970" points="77.6052,-189.6846 88.1749,-190.4141 80.367,-183.2525 77.6052,-189.6846"/>
</g>
<!-- Node62 -->
<g id="node6" class="node">
<title>Node62</title>
<g id="a_node6"><a xlink:href="navier1_8f.html#a344ec731e4a89d0f136c91bc1963e8d5" target="_top" xlink:title="advab">
<polygon fill="#ffffff" stroke="#000000" points="89,-152.5 89,-171.5 132,-171.5 132,-152.5 89,-152.5"/>
<text text-anchor="middle" x="110.5" y="-159.5" font-family="Helvetica,sans-Serif" font-size="10.00" fill="#000000">advab</text>
</a>
</g>
</g>
<!-- Node57&#45;&gt;Node62 -->
<g id="edge5" class="edge">
<title>Node57&#45;&gt;Node62</title>
<path fill="none" stroke="#191970" d="M44.3323,-162C54.7607,-162 67.3619,-162 78.7574,-162"/>
<polygon fill="#191970" stroke="#191970" points="78.7868,-165.5001 88.7867,-162 78.7867,-158.5001 78.7868,-165.5001"/>
</g>
<!-- Node63 -->
<g id="node7" class="node">
<title>Node63</title>
<g id="a_node7"><a xlink:href="mvmesh_8f.html#a1b9c194ae1f554f335f3d6c21eacded3" target="_top" xlink:title="admeshv">
<polygon fill="#ffffff" stroke="#000000" points="82.5,-114.5 82.5,-133.5 138.5,-133.5 138.5,-114.5 82.5,-114.5"/>
<text text-anchor="middle" x="110.5" y="-121.5" font-family="Helvetica,sans-Serif" font-size="10.00" fill="#000000">admeshv</text>
</a>
</g>
</g>
<!-- Node57&#45;&gt;Node63 -->
<g id="edge6" class="edge">
<title>Node57&#45;&gt;Node63</title>
<path fill="none" stroke="#191970" d="M44.3323,-152.411C54.8135,-147.9106 67.4895,-142.4678 78.9304,-137.5553"/>
<polygon fill="#191970" stroke="#191970" points="80.367,-140.7475 88.1749,-133.5859 77.6052,-134.3154 80.367,-140.7475"/>
</g>
<!-- Node64 -->
<g id="node8" class="node">
<title>Node64</title>
<g id="a_node8"><a xlink:href="navier1_8f.html#ab907b0b4f57c160c86799b03de3cef19" target="_top" xlink:title="makeabf">
<polygon fill="#ffffff" stroke="#000000" points="83.5,-76.5 83.5,-95.5 137.5,-95.5 137.5,-76.5 83.5,-76.5"/>
<text text-anchor="middle" x="110.5" y="-83.5" font-family="Helvetica,sans-Serif" font-size="10.00" fill="#000000">makeabf</text>
</a>
</g>
</g>
<!-- Node57&#45;&gt;Node64 -->
<g id="edge7" class="edge">
<title>Node57&#45;&gt;Node64</title>
<path fill="none" stroke="#191970" d="M30.473,-152.4681C41.2965,-140.588 60.9199,-120.0207 80,-105 81.5808,-103.7555 83.2474,-102.523 84.9531,-101.3193"/>
<polygon fill="#191970" stroke="#191970" points="87.173,-104.0477 93.5905,-95.6176 83.3166,-98.2057 87.173,-104.0477"/>
</g>
<!-- Node65 -->
<g id="node9" class="node">
<title>Node65</title>
<g id="a_node9"><a xlink:href="navier1_8f.html#a0510a60155ebc71a3acda4b1e7e507e5" target="_top" xlink:title="makebdf">
<polygon fill="#ffffff" stroke="#000000" points="83.5,-38.5 83.5,-57.5 137.5,-57.5 137.5,-38.5 83.5,-38.5"/>
<text text-anchor="middle" x="110.5" y="-45.5" font-family="Helvetica,sans-Serif" font-size="10.00" fill="#000000">makebdf</text>
</a>
</g>
</g>
<!-- Node57&#45;&gt;Node65 -->
<g id="edge8" class="edge">
<title>Node57&#45;&gt;Node65</title>
<path fill="none" stroke="#191970" d="M26.0392,-152.3844C34.113,-134.0337 53.7473,-93.4901 80,-67 81.2076,-65.7814 82.5078,-64.6054 83.8666,-63.4769"/>
<polygon fill="#191970" stroke="#191970" points="85.9951,-66.2571 92.0555,-57.5667 81.8985,-60.581 85.9951,-66.2571"/>
</g>
<!-- Node66 -->
<g id="node10" class="node">
<title>Node66</title>
<g id="a_node10"><a xlink:href="convect_8f.html#afc0b2ce765c4ad0f0ec6f2a62536bf57" target="_top" xlink:title="advchar">
<polygon fill="#ffffff" stroke="#000000" points="85,-.5 85,-19.5 136,-19.5 136,-.5 85,-.5"/>
<text text-anchor="middle" x="110.5" y="-7.5" font-family="Helvetica,sans-Serif" font-size="10.00" fill="#000000">advchar</text>
</a>
</g>
</g>
<!-- Node57&#45;&gt;Node66 -->
<g id="edge9" class="edge">
<title>Node57&#45;&gt;Node66</title>
<path fill="none" stroke="#191970" d="M24.1303,-152.2345C29.6886,-128.6538 46.5727,-67.6982 80,-29 80.9685,-27.8787 82.0199,-26.802 83.1303,-25.7712"/>
<polygon fill="#191970" stroke="#191970" points="85.2858,-28.5288 91.065,-19.649 81.0097,-22.9867 85.2858,-28.5288"/>
</g>
</g>
</svg>
