<?xml version="1.0" encoding="UTF-8" standalone="no"?>
<!DOCTYPE svg PUBLIC "-//W3C//DTD SVG 1.1//EN"
 "http://www.w3.org/Graphics/SVG/1.1/DTD/svg11.dtd">
<!-- Generated by graphviz version 2.40.1 (20161225.0304)
 -->
<!-- Title: userchk Pages: 1 -->
<svg width="175pt" height="332pt"
 viewBox="0.00 0.00 175.00 332.00" xmlns="http://www.w3.org/2000/svg" xmlns:xlink="http://www.w3.org/1999/xlink">
<g id="graph0" class="graph" transform="scale(1 1) rotate(0) translate(4 328)">
<title>userchk</title>
<polygon fill="#ffffff" stroke="transparent" points="-4,4 -4,-328 171,-328 171,4 -4,4"/>
<!-- Node0 -->
<g id="node1" class="node">
<title>Node0</title>
<polygon fill="#bfbfbf" stroke="#000000" points="0,-152.5 0,-171.5 51,-171.5 51,-152.5 0,-152.5"/>
<text text-anchor="middle" x="25.5" y="-159.5" font-family="Helvetica,sans-Serif" font-size="10.00" fill="#000000">userchk</text>
</g>
<!-- Node1 -->
<g id="node2" class="node">
<title>Node1</title>
<g id="a_node2"><a xlink:href="frame_8f.html#a3b2fa5ca96c4d901949ed15b9e1e459c" target="_top" xlink:title="Start framework. ">
<polygon fill="#ffffff" stroke="#000000" points="94,-304.5 94,-323.5 160,-323.5 160,-304.5 94,-304.5"/>
<text text-anchor="middle" x="127" y="-311.5" font-family="Helvetica,sans-Serif" font-size="10.00" fill="#000000">frame_start</text>
</a>
</g>
</g>
<!-- Node0&#45;&gt;Node1 -->
<g id="edge1" class="edge">
<title>Node0&#45;&gt;Node1</title>
<path fill="none" stroke="#191970" d="M27.5629,-171.6677C33.1162,-195.5591 50.4937,-258.1148 87,-295 88.3791,-296.3934 89.8803,-297.6977 91.4656,-298.9169"/>
<polygon fill="#191970" stroke="#191970" points="89.607,-301.8827 99.9174,-304.3213 93.3781,-295.9853 89.607,-301.8827"/>
</g>
<!-- Node2 -->
<g id="node3" class="node">
<title>Node2</title>
<g id="a_node3"><a xlink:href="frame_8f.html#a3100879c73f67d2e4449da55049c8eae" target="_top" xlink:title="Simulataion monitoring. ">
<polygon fill="#ffffff" stroke="#000000" points="87.5,-266.5 87.5,-285.5 166.5,-285.5 166.5,-266.5 87.5,-266.5"/>
<text text-anchor="middle" x="127" y="-273.5" font-family="Helvetica,sans-Serif" font-size="10.00" fill="#000000">frame_monitor</text>
</a>
</g>
</g>
<!-- Node0&#45;&gt;Node2 -->
<g id="edge2" class="edge">
<title>Node0&#45;&gt;Node2</title>
<path fill="none" stroke="#191970" d="M29.5315,-171.5957C37.7999,-190.2715 58.3407,-231.8709 87,-257 88.6908,-258.4826 90.5175,-259.8744 92.4268,-261.1768"/>
<polygon fill="#191970" stroke="#191970" points="90.7695,-264.2626 101.1628,-266.3192 94.3205,-258.2301 90.7695,-264.2626"/>
</g>
<!-- Node3 -->
<g id="node4" class="node">
<title>Node3</title>
<g id="a_node4"><a xlink:href="group__chkpoint.html#ga2d682999600b8303ea7c4850cb54c9ca" target="_top" xlink:title="Main checkpoint interface. ">
<polygon fill="#ffffff" stroke="#000000" points="93.5,-228.5 93.5,-247.5 160.5,-247.5 160.5,-228.5 93.5,-228.5"/>
<text text-anchor="middle" x="127" y="-235.5" font-family="Helvetica,sans-Serif" font-size="10.00" fill="#000000">chkpt_main</text>
</a>
</g>
</g>
<!-- Node0&#45;&gt;Node3 -->
<g id="edge3" class="edge">
<title>Node0&#45;&gt;Node3</title>
<path fill="none" stroke="#191970" d="M34.3233,-171.8473C45.6338,-184.0529 66.27,-204.956 87,-219 89.5281,-220.7127 92.2346,-222.3513 95.0032,-223.8976"/>
<polygon fill="#191970" stroke="#191970" points="93.4251,-227.0217 103.9164,-228.4998 96.6367,-220.8019 93.4251,-227.0217"/>
</g>
<!-- Node4 -->
<g id="node5" class="node">
<title>Node4</title>
<g id="a_node5"><a xlink:href="math_8f.html#a3b43508554f14bdea8e14473d7d0803c" target="_top" xlink:title="copy">
<polygon fill="#ffffff" stroke="#000000" points="108,-190.5 108,-209.5 146,-209.5 146,-190.5 108,-190.5"/>
<text text-anchor="middle" x="127" y="-197.5" font-family="Helvetica,sans-Serif" font-size="10.00" fill="#000000">copy</text>
</a>
</g>
</g>
<!-- Node0&#45;&gt;Node4 -->
<g id="edge4" class="edge">
<title>Node0&#45;&gt;Node4</title>
<path fill="none" stroke="#191970" d="M51.1127,-171.589C65.4276,-176.9483 83.3122,-183.644 98.1232,-189.189"/>
<polygon fill="#191970" stroke="#191970" points="97.2119,-192.585 107.8042,-192.8134 99.6662,-186.0293 97.2119,-192.585"/>
</g>
<!-- Node5 -->
<g id="node6" class="node">
<title>Node5</title>
<g id="a_node6"><a xlink:href="group__stat.html#ga16cd0d213c2bea15c7caf8c205241388" target="_top" xlink:title="Main interface of statistics module. ">
<polygon fill="#ffffff" stroke="#000000" points="100,-152.5 100,-171.5 154,-171.5 154,-152.5 100,-152.5"/>
<text text-anchor="middle" x="127" y="-159.5" font-family="Helvetica,sans-Serif" font-size="10.00" fill="#000000">stat_avg</text>
</a>
</g>
</g>
<!-- Node0&#45;&gt;Node5 -->
<g id="edge5" class="edge">
<title>Node0&#45;&gt;Node5</title>
<path fill="none" stroke="#191970" d="M51.1127,-162C62.883,-162 77.0668,-162 89.9709,-162"/>
<polygon fill="#191970" stroke="#191970" points="89.9749,-165.5001 99.9748,-162 89.9748,-158.5001 89.9749,-165.5001"/>
</g>
<!-- Node6 -->
<g id="node7" class="node">
<title>Node6</title>
<g id="a_node7"><a xlink:href="group__framework.html#gabfa9321d0e78857e5fafb7bada7c3ae3" target="_top" xlink:title="Check for nan or infinity. ">
<polygon fill="#ffffff" stroke="#000000" points="87,-114.5 87,-133.5 167,-133.5 167,-114.5 87,-114.5"/>
<text text-anchor="middle" x="127" y="-121.5" font-family="Helvetica,sans-Serif" font-size="10.00" fill="#000000">bounds_check</text>
</a>
</g>
</g>
<!-- Node0&#45;&gt;Node6 -->
<g id="edge6" class="edge">
<title>Node0&#45;&gt;Node6</title>
<path fill="none" stroke="#191970" d="M51.1127,-152.411C63.4942,-147.7756 78.5462,-142.1404 91.97,-137.1147"/>
<polygon fill="#191970" stroke="#191970" points="93.2575,-140.37 101.3955,-133.5859 90.8031,-133.8144 93.2575,-140.37"/>
</g>
<!-- Node7 -->
<g id="node8" class="node">
<title>Node7</title>
<g id="a_node8"><a xlink:href="group__framework.html#gad7bf1bb6172cfe21bceaf5b288b6de10" target="_top" xlink:title="Calculate spatial averaged quantities and write it into a text file. ">
<polygon fill="#ffffff" stroke="#000000" points="87,-76.5 87,-95.5 167,-95.5 167,-76.5 87,-76.5"/>
<text text-anchor="middle" x="127" y="-83.5" font-family="Helvetica,sans-Serif" font-size="10.00" fill="#000000">spatial_means</text>
</a>
</g>
</g>
<!-- Node0&#45;&gt;Node7 -->
<g id="edge7" class="edge">
<title>Node0&#45;&gt;Node7</title>
<path fill="none" stroke="#191970" d="M34.3233,-152.1527C45.6338,-139.9471 66.27,-119.044 87,-105 89.5281,-103.2873 92.2346,-101.6487 95.0032,-100.1024"/>
<polygon fill="#191970" stroke="#191970" points="96.6367,-103.1981 103.9164,-95.5002 93.4251,-96.9783 96.6367,-103.1981"/>
</g>
<!-- Node8 -->
<g id="node9" class="node">
<title>Node8</title>
<g id="a_node9"><a xlink:href="frame_8f.html#a81cd9de9df55590aae9e54090dd1a3ce" target="_top" xlink:title="Finalise framework. ">
<polygon fill="#ffffff" stroke="#000000" points="96,-38.5 96,-57.5 158,-57.5 158,-38.5 96,-38.5"/>
<text text-anchor="middle" x="127" y="-45.5" font-family="Helvetica,sans-Serif" font-size="10.00" fill="#000000">frame_end</text>
</a>
</g>
</g>
<!-- Node0&#45;&gt;Node8 -->
<g id="edge8" class="edge">
<title>Node0&#45;&gt;Node8</title>
<path fill="none" stroke="#191970" d="M29.5315,-152.4043C37.7999,-133.7285 58.3407,-92.1291 87,-67 88.6908,-65.5174 90.5175,-64.1256 92.4268,-62.8232"/>
<polygon fill="#191970" stroke="#191970" points="94.3205,-65.7699 101.1628,-57.6808 90.7695,-59.7374 94.3205,-65.7699"/>
</g>
<!-- Node9 -->
<g id="node10" class="node">
<title>Node9</title>
<g id="a_node10"><a xlink:href="prepost_8f.html#aacb528c0b28bc79dff8db48d7ae9ac64" target="_top" xlink:title="outpost">
<polygon fill="#ffffff" stroke="#000000" points="102.5,-.5 102.5,-19.5 151.5,-19.5 151.5,-.5 102.5,-.5"/>
<text text-anchor="middle" x="127" y="-7.5" font-family="Helvetica,sans-Serif" font-size="10.00" fill="#000000">outpost</text>
</a>
</g>
</g>
<!-- Node0&#45;&gt;Node9 -->
<g id="edge9" class="edge">
<title>Node0&#45;&gt;Node9</title>
<path fill="none" stroke="#191970" d="M27.5629,-152.3323C33.1162,-128.4409 50.4937,-65.8852 87,-29 89.0281,-26.9509 91.3203,-25.0944 93.7557,-23.4181"/>
<polygon fill="#191970" stroke="#191970" points="95.5197,-26.4411 102.4122,-18.3947 92.0063,-20.3867 95.5197,-26.4411"/>
</g>
</g>
</svg>
