<?xml version="1.0" encoding="UTF-8" standalone="no"?>
<!DOCTYPE svg PUBLIC "-//W3C//DTD SVG 1.1//EN"
 "http://www.w3.org/Graphics/SVG/1.1/DTD/svg11.dtd">
<!-- Generated by graphviz version 2.43.0 (0)
 -->
<!-- Title: fluid Pages: 1 -->
<svg width="361pt" height="902pt"
 viewBox="0.00 0.00 361.00 902.00" xmlns="http://www.w3.org/2000/svg" xmlns:xlink="http://www.w3.org/1999/xlink">
<g id="graph0" class="graph" transform="scale(1 1) rotate(0) translate(4 898)">
<title>fluid</title>
<polygon fill="white" stroke="transparent" points="-4,4 -4,-898 357,-898 357,4 -4,4"/>
<!-- Node1 -->
<g id="node1" class="node">
<title>Node1</title>
<g id="a_node1"><a xlink:title=" ">
<polygon fill="#bfbfbf" stroke="black" points="0,-266.5 0,-285.5 38,-285.5 38,-266.5 0,-266.5"/>
<text text-anchor="middle" x="19" y="-273.5" font-family="Helvetica,sans-Serif" font-size="10.00">fluid</text>
</a>
</g>
</g>
<!-- Node2 -->
<g id="node2" class="node">
<title>Node2</title>
<g id="a_node2"><a xlink:href="navier4_8f.html#a43f20a275a318725bfdf9e8eaa0839fa" target="_top" xlink:title=" ">
<polygon fill="white" stroke="black" points="292.5,-874.5 292.5,-893.5 345.5,-893.5 345.5,-874.5 292.5,-874.5"/>
<text text-anchor="middle" x="319" y="-881.5" font-family="Helvetica,sans-Serif" font-size="10.00">chkptol</text>
</a>
</g>
</g>
<!-- Node1&#45;&gt;Node2 -->
<g id="edge1" class="edge">
<title>Node1&#45;&gt;Node2</title>
<path fill="none" stroke="midnightblue" d="M22.51,-285.84C29.39,-312.35 49.7,-387.31 74,-447 152.48,-639.74 141.94,-713.86 285,-865 286.19,-866.25 287.48,-867.45 288.83,-868.59"/>
<polygon fill="midnightblue" stroke="midnightblue" points="286.93,-871.53 297.12,-874.44 290.97,-865.81 286.93,-871.53"/>
</g>
<!-- Node3 -->
<g id="node3" class="node">
<title>Node3</title>
<g id="a_node3"><a xlink:href="comm__mpi_8f.html#af06ec29f06aac3f8809e19de2a7e8946" target="_top" xlink:title=" ">
<polygon fill="white" stroke="black" points="286,-304.5 286,-323.5 352,-323.5 352,-304.5 286,-304.5"/>
<text text-anchor="middle" x="319" y="-311.5" font-family="Helvetica,sans-Serif" font-size="10.00">dnekclock</text>
</a>
</g>
</g>
<!-- Node1&#45;&gt;Node3 -->
<g id="edge2" class="edge">
<title>Node1&#45;&gt;Node3</title>
<path fill="none" stroke="midnightblue" d="M25.49,-285.52C33.92,-299.06 51.46,-323.3 74,-333 143.2,-362.76 233.57,-342.19 282.61,-326.73"/>
<polygon fill="midnightblue" stroke="midnightblue" points="283.71,-330.05 292.13,-323.62 281.54,-323.39 283.71,-330.05"/>
</g>
<!-- Node4 -->
<g id="node4" class="node">
<title>Node4</title>
<g id="a_node4"><a xlink:href="navier1_8f.html#a23e6343990072aa1a6b17109ccc7ba2b" target="_top" xlink:title=" ">
<polygon fill="white" stroke="black" points="90.5,-380.5 90.5,-399.5 134.5,-399.5 134.5,-380.5 90.5,-380.5"/>
<text text-anchor="middle" x="112.5" y="-387.5" font-family="Helvetica,sans-Serif" font-size="10.00">plan1</text>
</a>
</g>
</g>
<!-- Node1&#45;&gt;Node4 -->
<g id="edge3" class="edge">
<title>Node1&#45;&gt;Node4</title>
<path fill="none" stroke="midnightblue" d="M23.99,-285.63C31.63,-303.22 49.75,-341.04 74,-366 77.03,-369.12 80.54,-372.03 84.17,-374.66"/>
<polygon fill="midnightblue" stroke="midnightblue" points="82.42,-377.7 92.7,-380.3 86.29,-371.87 82.42,-377.7"/>
</g>
<!-- Node5 -->
<g id="node5" class="node">
<title>Node5</title>
<g id="a_node5"><a xlink:href="group__core.html#ga142f9186a662d3de60f09bb0ee26782d" target="_top" xlink:title=" ">
<polygon fill="white" stroke="black" points="90.5,-418.5 90.5,-437.5 134.5,-437.5 134.5,-418.5 90.5,-418.5"/>
<text text-anchor="middle" x="112.5" y="-425.5" font-family="Helvetica,sans-Serif" font-size="10.00">plan3</text>
</a>
</g>
</g>
<!-- Node1&#45;&gt;Node5 -->
<g id="edge4" class="edge">
<title>Node1&#45;&gt;Node5</title>
<path fill="none" stroke="midnightblue" d="M21.52,-285.6C25.73,-309.34 39.58,-371.59 74,-409 76.22,-411.42 78.82,-413.57 81.6,-415.48"/>
<polygon fill="midnightblue" stroke="midnightblue" points="79.85,-418.51 90.26,-420.49 83.35,-412.45 79.85,-418.51"/>
</g>
<!-- Node34 -->
<g id="node34" class="node">
<title>Node34</title>
<g id="a_node34"><a xlink:href="plan4_8f.html#a247fc105464de543a464773054eb509e" target="_top" xlink:title=" ">
<polygon fill="white" stroke="black" points="90.5,-304.5 90.5,-323.5 134.5,-323.5 134.5,-304.5 90.5,-304.5"/>
<text text-anchor="middle" x="112.5" y="-311.5" font-family="Helvetica,sans-Serif" font-size="10.00">plan4</text>
</a>
</g>
</g>
<!-- Node1&#45;&gt;Node34 -->
<g id="edge36" class="edge">
<title>Node1&#45;&gt;Node34</title>
<path fill="none" stroke="midnightblue" d="M38.08,-283.51C50.26,-288.57 66.65,-295.37 80.85,-301.27"/>
<polygon fill="midnightblue" stroke="midnightblue" points="79.67,-304.57 90.25,-305.17 82.36,-298.11 79.67,-304.57"/>
</g>
<!-- Node35 -->
<g id="node35" class="node">
<title>Node35</title>
<g id="a_node35"><a xlink:href="plan5_8f.html#ae6f47947bd1a89d608ae3b90ac8f433d" target="_top" xlink:title=" ">
<polygon fill="white" stroke="black" points="90.5,-266.5 90.5,-285.5 134.5,-285.5 134.5,-266.5 90.5,-266.5"/>
<text text-anchor="middle" x="112.5" y="-273.5" font-family="Helvetica,sans-Serif" font-size="10.00">plan5</text>
</a>
</g>
</g>
<!-- Node1&#45;&gt;Node35 -->
<g id="edge37" class="edge">
<title>Node1&#45;&gt;Node35</title>
<path fill="none" stroke="midnightblue" d="M38.08,-276C50.03,-276 66.02,-276 80.03,-276"/>
<polygon fill="midnightblue" stroke="midnightblue" points="80.25,-279.5 90.25,-276 80.25,-272.5 80.25,-279.5"/>
</g>
<!-- Node36 -->
<g id="node36" class="node">
<title>Node36</title>
<g id="a_node36"><a xlink:href="plan4_8f.html#a7dc32896a9c8fafb6bcb0103e7507909" target="_top" xlink:title=" ">
<polygon fill="white" stroke="black" points="78.5,-228.5 78.5,-247.5 146.5,-247.5 146.5,-228.5 78.5,-228.5"/>
<text text-anchor="middle" x="112.5" y="-235.5" font-family="Helvetica,sans-Serif" font-size="10.00">printdiverr</text>
</a>
</g>
</g>
<!-- Node1&#45;&gt;Node36 -->
<g id="edge38" class="edge">
<title>Node1&#45;&gt;Node36</title>
<path fill="none" stroke="midnightblue" d="M38.08,-268.49C49.73,-263.65 65.21,-257.22 78.96,-251.51"/>
<polygon fill="midnightblue" stroke="midnightblue" points="80.69,-254.59 88.58,-247.52 78,-248.12 80.69,-254.59"/>
</g>
<!-- Node37 -->
<g id="node37" class="node">
<title>Node37</title>
<g id="a_node37"><a xlink:href="ssolv_8f.html#a2042097d2d5ef6c25e65f059e2c56756" target="_top" xlink:title=" ">
<polygon fill="white" stroke="black" points="87.5,-190.5 87.5,-209.5 137.5,-209.5 137.5,-190.5 87.5,-190.5"/>
<text text-anchor="middle" x="112.5" y="-197.5" font-family="Helvetica,sans-Serif" font-size="10.00">settolv</text>
</a>
</g>
</g>
<!-- Node1&#45;&gt;Node37 -->
<g id="edge39" class="edge">
<title>Node1&#45;&gt;Node37</title>
<path fill="none" stroke="midnightblue" d="M27.56,-266.14C37.29,-253.93 55.2,-233.01 74,-219 76.05,-217.47 78.24,-216.01 80.49,-214.62"/>
<polygon fill="midnightblue" stroke="midnightblue" points="82.33,-217.6 89.33,-209.64 78.9,-211.49 82.33,-217.6"/>
</g>
<!-- Node38 -->
<g id="node38" class="node">
<title>Node38</title>
<g id="a_node38"><a xlink:href="subs1_8f.html#a8f2e17fa9df4e1df865aa17b294f867c" target="_top" xlink:title=" ">
<polygon fill="white" stroke="black" points="88.5,-152.5 88.5,-171.5 136.5,-171.5 136.5,-152.5 88.5,-152.5"/>
<text text-anchor="middle" x="112.5" y="-159.5" font-family="Helvetica,sans-Serif" font-size="10.00">unorm</text>
</a>
</g>
</g>
<!-- Node1&#45;&gt;Node38 -->
<g id="edge40" class="edge">
<title>Node1&#45;&gt;Node38</title>
<path fill="none" stroke="midnightblue" d="M23.28,-266.45C30.08,-247.86 47.36,-206.39 74,-181 75.67,-179.4 77.51,-177.91 79.44,-176.52"/>
<polygon fill="midnightblue" stroke="midnightblue" points="81.61,-179.3 88.3,-171.09 77.94,-173.33 81.61,-179.3"/>
</g>
<!-- Node39 -->
<g id="node39" class="node">
<title>Node39</title>
<g id="a_node39"><a xlink:href="drive2_8f.html#ae46d95459d293cfb4656cbeb0e086f2a" target="_top" xlink:title=" ">
<polygon fill="white" stroke="black" points="84,-114.5 84,-133.5 141,-133.5 141,-114.5 84,-114.5"/>
<text text-anchor="middle" x="112.5" y="-121.5" font-family="Helvetica,sans-Serif" font-size="10.00">vol_flow</text>
</a>
</g>
</g>
<!-- Node1&#45;&gt;Node39 -->
<g id="edge41" class="edge">
<title>Node1&#45;&gt;Node39</title>
<path fill="none" stroke="midnightblue" d="M21.52,-266.4C25.73,-242.66 39.58,-180.41 74,-143 75.19,-141.71 76.49,-140.49 77.86,-139.35"/>
<polygon fill="midnightblue" stroke="midnightblue" points="80.06,-142.08 86.36,-133.56 76.12,-136.3 80.06,-142.08"/>
</g>
<!-- Node40 -->
<g id="node40" class="node">
<title>Node40</title>
<g id="a_node40"><a xlink:href="multimesh_8f.html#a282d987d75bd8a426ecf0d9e752cd2df" target="_top" xlink:title=" ">
<polygon fill="white" stroke="black" points="74,-76.5 74,-95.5 151,-95.5 151,-76.5 74,-76.5"/>
<text text-anchor="middle" x="112.5" y="-83.5" font-family="Helvetica,sans-Serif" font-size="10.00">vol_flow_ms</text>
</a>
</g>
</g>
<!-- Node1&#45;&gt;Node40 -->
<g id="edge42" class="edge">
<title>Node1&#45;&gt;Node40</title>
<path fill="none" stroke="midnightblue" d="M20.51,-266.25C22.46,-237.98 31.69,-154.84 74,-105 75,-103.82 76.1,-102.7 77.26,-101.65"/>
<polygon fill="midnightblue" stroke="midnightblue" points="79.65,-104.24 85.73,-95.57 75.56,-98.56 79.65,-104.24"/>
</g>
<!-- Node6 -->
<g id="node6" class="node">
<title>Node6</title>
<g id="a_node6"><a xlink:href="planx_8f.html#a02873cc7b2b98973667aa8cb9f2cbadb" target="_top" xlink:title=" ">
<polygon fill="white" stroke="black" points="193,-418.5 193,-437.5 243,-437.5 243,-418.5 193,-418.5"/>
<text text-anchor="middle" x="218" y="-425.5" font-family="Helvetica,sans-Serif" font-size="10.00">cresvif</text>
</a>
</g>
</g>
<!-- Node5&#45;&gt;Node6 -->
<g id="edge5" class="edge">
<title>Node5&#45;&gt;Node6</title>
<path fill="none" stroke="midnightblue" d="M134.69,-428C148.57,-428 167.01,-428 182.92,-428"/>
<polygon fill="midnightblue" stroke="midnightblue" points="182.93,-431.5 192.93,-428 182.93,-424.5 182.93,-431.5"/>
</g>
<!-- Node7 -->
<g id="node7" class="node">
<title>Node7</title>
<g id="a_node7"><a xlink:href="group__core.html#gaeb2c6d4ae2c98143118acce2419c034d" target="_top" xlink:title="Project U onto the closest incompressible field.">
<polygon fill="white" stroke="black" points="187,-570.5 187,-589.5 249,-589.5 249,-570.5 187,-570.5"/>
<text text-anchor="middle" x="218" y="-577.5" font-family="Helvetica,sans-Serif" font-size="10.00">incomprn</text>
</a>
</g>
</g>
<!-- Node5&#45;&gt;Node7 -->
<g id="edge6" class="edge">
<title>Node5&#45;&gt;Node7</title>
<path fill="none" stroke="midnightblue" d="M119.97,-437.51C136.89,-462.35 182.63,-529.53 204.73,-561.98"/>
<polygon fill="midnightblue" stroke="midnightblue" points="202.01,-564.2 210.53,-570.5 207.79,-560.26 202.01,-564.2"/>
</g>
<!-- Node22 -->
<g id="node22" class="node">
<title>Node22</title>
<g id="a_node22"><a xlink:href="group__core.html#ga83189b3d1938d87f00ace2e7e05d9e4c" target="_top" xlink:title=" ">
<polygon fill="white" stroke="black" points="194.5,-171.5 194.5,-190.5 241.5,-190.5 241.5,-171.5 194.5,-171.5"/>
<text text-anchor="middle" x="218" y="-178.5" font-family="Helvetica,sans-Serif" font-size="10.00">makef</text>
</a>
</g>
</g>
<!-- Node5&#45;&gt;Node22 -->
<g id="edge23" class="edge">
<title>Node5&#45;&gt;Node22</title>
<path fill="none" stroke="midnightblue" d="M134.68,-420.96C140.67,-418.08 146.72,-414.17 151,-409 203.12,-346.08 214.1,-243.85 216.4,-200.95"/>
<polygon fill="midnightblue" stroke="midnightblue" points="219.89,-201.08 216.83,-190.94 212.9,-200.78 219.89,-201.08"/>
</g>
<!-- Node31 -->
<g id="node31" class="node">
<title>Node31</title>
<g id="a_node31"><a xlink:href="navier1_8f.html#ad1bbe02eb4b6eb1d16f7612e1947dac5" target="_top" xlink:title=" ">
<polygon fill="white" stroke="black" points="191.5,-380.5 191.5,-399.5 244.5,-399.5 244.5,-380.5 191.5,-380.5"/>
<text text-anchor="middle" x="218" y="-387.5" font-family="Helvetica,sans-Serif" font-size="10.00">opadd2</text>
</a>
</g>
</g>
<!-- Node5&#45;&gt;Node31 -->
<g id="edge33" class="edge">
<title>Node5&#45;&gt;Node31</title>
<path fill="none" stroke="midnightblue" d="M134.69,-420.22C148.31,-415.22 166.32,-408.61 182.02,-402.84"/>
<polygon fill="midnightblue" stroke="midnightblue" points="183.26,-406.12 191.44,-399.38 180.85,-399.54 183.26,-406.12"/>
</g>
<!-- Node32 -->
<g id="node32" class="node">
<title>Node32</title>
<g id="a_node32"><a xlink:href="induct_8f.html#a1a8a16f24236d6e6f08fe4d60cb29d01" target="_top" xlink:title=" ">
<polygon fill="white" stroke="black" points="193,-494.5 193,-513.5 243,-513.5 243,-494.5 193,-494.5"/>
<text text-anchor="middle" x="218" y="-501.5" font-family="Helvetica,sans-Serif" font-size="10.00">ophinv</text>
</a>
</g>
</g>
<!-- Node5&#45;&gt;Node32 -->
<g id="edge34" class="edge">
<title>Node5&#45;&gt;Node32</title>
<path fill="none" stroke="midnightblue" d="M125.2,-437.64C139.49,-449.27 164.53,-469.23 187,-485 188.84,-486.3 190.77,-487.61 192.73,-488.91"/>
<polygon fill="midnightblue" stroke="midnightblue" points="190.95,-491.92 201.24,-494.42 194.75,-486.05 190.95,-491.92"/>
</g>
<!-- Node33 -->
<g id="node33" class="node">
<title>Node33</title>
<g id="a_node33"><a xlink:href="subs1_8f.html#ae2376b70f309c6118b4e43df9cbe66b1" target="_top" xlink:title=" ">
<polygon fill="white" stroke="black" points="193,-456.5 193,-475.5 243,-475.5 243,-456.5 193,-456.5"/>
<text text-anchor="middle" x="218" y="-463.5" font-family="Helvetica,sans-Serif" font-size="10.00">sethlm</text>
</a>
</g>
</g>
<!-- Node5&#45;&gt;Node33 -->
<g id="edge35" class="edge">
<title>Node5&#45;&gt;Node33</title>
<path fill="none" stroke="midnightblue" d="M134.69,-435.78C148.7,-440.92 167.36,-447.78 183.37,-453.65"/>
<polygon fill="midnightblue" stroke="midnightblue" points="182.34,-457 192.93,-457.16 184.75,-450.43 182.34,-457"/>
</g>
<!-- Node7&#45;&gt;Node2 -->
<g id="edge9" class="edge">
<title>Node7&#45;&gt;Node2</title>
<path fill="none" stroke="midnightblue" d="M220.74,-589.56C229.39,-636.57 267.87,-841.9 285,-865 285.78,-866.05 286.63,-867.04 287.54,-867.99"/>
<polygon fill="midnightblue" stroke="midnightblue" points="285.44,-870.8 295.42,-874.37 289.85,-865.36 285.44,-870.8"/>
</g>
<!-- Node7&#45;&gt;Node3 -->
<g id="edge12" class="edge">
<title>Node7&#45;&gt;Node3</title>
<path fill="none" stroke="midnightblue" d="M225.25,-570.32C232.08,-559.29 242.88,-540.53 249,-523 277.33,-441.86 235.21,-403.06 285,-333 285.75,-331.94 286.59,-330.93 287.48,-329.97"/>
<polygon fill="midnightblue" stroke="midnightblue" points="289.8,-332.6 295.3,-323.54 285.35,-327.19 289.8,-332.6"/>
</g>
<!-- Node8 -->
<g id="node8" class="node">
<title>Node8</title>
<g id="a_node8"><a xlink:href="math_8f.html#a30b83d516b6ab162d3fafe73e03a3e92" target="_top" xlink:title=" ">
<polygon fill="white" stroke="black" points="298.5,-494.5 298.5,-513.5 339.5,-513.5 339.5,-494.5 298.5,-494.5"/>
<text text-anchor="middle" x="319" y="-501.5" font-family="Helvetica,sans-Serif" font-size="10.00">add2</text>
</a>
</g>
</g>
<!-- Node7&#45;&gt;Node8 -->
<g id="edge7" class="edge">
<title>Node7&#45;&gt;Node8</title>
<path fill="none" stroke="midnightblue" d="M228.8,-570.49C241.27,-558.62 263.77,-538.08 285,-523 286.88,-521.66 288.87,-520.34 290.89,-519.04"/>
<polygon fill="midnightblue" stroke="midnightblue" points="293.06,-521.82 299.8,-513.65 289.44,-515.83 293.06,-521.82"/>
</g>
<!-- Node9 -->
<g id="node9" class="node">
<title>Node9</title>
<g id="a_node9"><a xlink:href="math_8f.html#a1c8c804ea900711911c4c33fe1f5b184" target="_top" xlink:title=" ">
<polygon fill="white" stroke="black" points="288.5,-456.5 288.5,-475.5 349.5,-475.5 349.5,-456.5 288.5,-456.5"/>
<text text-anchor="middle" x="319" y="-463.5" font-family="Helvetica,sans-Serif" font-size="10.00">add2col2</text>
</a>
</g>
</g>
<!-- Node7&#45;&gt;Node9 -->
<g id="edge8" class="edge">
<title>Node7&#45;&gt;Node9</title>
<path fill="none" stroke="midnightblue" d="M223.84,-570.34C233.44,-551.9 256.46,-511.22 285,-485 286.46,-483.66 288.03,-482.37 289.67,-481.14"/>
<polygon fill="midnightblue" stroke="midnightblue" points="291.76,-483.95 298.18,-475.52 287.9,-478.11 291.76,-483.95"/>
</g>
<!-- Node10 -->
<g id="node10" class="node">
<title>Node10</title>
<g id="a_node10"><a xlink:href="math_8f.html#ad2b51b68d370651f4f6d81952503e7be" target="_top" xlink:title=" ">
<polygon fill="white" stroke="black" points="297,-418.5 297,-437.5 341,-437.5 341,-418.5 297,-418.5"/>
<text text-anchor="middle" x="319" y="-425.5" font-family="Helvetica,sans-Serif" font-size="10.00">cmult</text>
</a>
</g>
</g>
<!-- Node7&#45;&gt;Node10 -->
<g id="edge10" class="edge">
<title>Node7&#45;&gt;Node10</title>
<path fill="none" stroke="midnightblue" d="M224.22,-570.38C230.31,-559.1 240.6,-539.81 249,-523 265.71,-489.57 259.65,-474.46 285,-447 286.04,-445.88 287.16,-444.8 288.33,-443.77"/>
<polygon fill="midnightblue" stroke="midnightblue" points="290.67,-446.41 296.71,-437.7 286.56,-440.74 290.67,-446.41"/>
</g>
<!-- Node11 -->
<g id="node11" class="node">
<title>Node11</title>
<g id="a_node11"><a xlink:href="math_8f.html#a3b43508554f14bdea8e14473d7d0803c" target="_top" xlink:title=" ">
<polygon fill="white" stroke="black" points="299,-380.5 299,-399.5 339,-399.5 339,-380.5 299,-380.5"/>
<text text-anchor="middle" x="319" y="-387.5" font-family="Helvetica,sans-Serif" font-size="10.00">copy</text>
</a>
</g>
</g>
<!-- Node7&#45;&gt;Node11 -->
<g id="edge11" class="edge">
<title>Node7&#45;&gt;Node11</title>
<path fill="none" stroke="midnightblue" d="M224.87,-570.17C231.36,-559.01 241.85,-540.13 249,-523 269.45,-473.96 251.71,-450.41 285,-409 286.48,-407.16 288.19,-405.46 290.04,-403.9"/>
<polygon fill="midnightblue" stroke="midnightblue" points="292.46,-406.49 298.73,-397.95 288.5,-400.71 292.46,-406.49"/>
</g>
<!-- Node12 -->
<g id="node12" class="node">
<title>Node12</title>
<g id="a_node12"><a xlink:href="navier0_8f.html#aaba079db7e38db9800deef09526370ec" target="_top" xlink:title=" ">
<polygon fill="white" stroke="black" points="292.5,-342.5 292.5,-361.5 345.5,-361.5 345.5,-342.5 292.5,-342.5"/>
<text text-anchor="middle" x="319" y="-349.5" font-family="Helvetica,sans-Serif" font-size="10.00">esolver</text>
</a>
</g>
</g>
<!-- Node7&#45;&gt;Node12 -->
<g id="edge13" class="edge">
<title>Node7&#45;&gt;Node12</title>
<path fill="none" stroke="midnightblue" d="M225.1,-570.26C231.81,-559.19 242.49,-540.38 249,-523 273.36,-457.99 243.51,-426.67 285,-371 285.78,-369.96 286.63,-368.96 287.54,-368.01"/>
<polygon fill="midnightblue" stroke="midnightblue" points="289.85,-370.65 295.43,-361.64 285.45,-365.2 289.85,-370.65"/>
</g>
<!-- Node13 -->
<g id="node13" class="node">
<title>Node13</title>
<g id="a_node13"><a xlink:href="induct_8f.html#a92d19447dae1fa7af20c94dbf1c09992" target="_top" xlink:title=" ">
<polygon fill="white" stroke="black" points="288.5,-836.5 288.5,-855.5 349.5,-855.5 349.5,-836.5 288.5,-836.5"/>
<text text-anchor="middle" x="319" y="-843.5" font-family="Helvetica,sans-Serif" font-size="10.00">gensolnp</text>
</a>
</g>
</g>
<!-- Node7&#45;&gt;Node13 -->
<g id="edge14" class="edge">
<title>Node7&#45;&gt;Node13</title>
<path fill="none" stroke="midnightblue" d="M220.55,-589.57C227.27,-630.16 254.93,-787.83 285,-827 285.79,-828.03 286.66,-829.02 287.58,-829.96"/>
<polygon fill="midnightblue" stroke="midnightblue" points="285.52,-832.79 295.52,-836.3 289.89,-827.32 285.52,-832.79"/>
</g>
<!-- Node14 -->
<g id="node14" class="node">
<title>Node14</title>
<g id="a_node14"><a xlink:href="math_8f.html#a0fcb0ff151fe3548d0d07961e8365efe" target="_top" xlink:title=" ">
<polygon fill="white" stroke="black" points="292.5,-798.5 292.5,-817.5 345.5,-817.5 345.5,-798.5 292.5,-798.5"/>
<text text-anchor="middle" x="319" y="-805.5" font-family="Helvetica,sans-Serif" font-size="10.00">invers2</text>
</a>
</g>
</g>
<!-- Node7&#45;&gt;Node14 -->
<g id="edge15" class="edge">
<title>Node7&#45;&gt;Node14</title>
<path fill="none" stroke="midnightblue" d="M219.63,-589.91C222.14,-622.13 233.98,-725.54 285,-789 285.93,-790.16 286.96,-791.26 288.05,-792.31"/>
<polygon fill="midnightblue" stroke="midnightblue" points="285.92,-795.09 295.98,-798.41 290.19,-789.54 285.92,-795.09"/>
</g>
<!-- Node15 -->
<g id="node15" class="node">
<title>Node15</title>
<g id="a_node15"><a xlink:href="plan4_8f.html#a8cde16ca4292836a681d1021ada2dc28" target="_top" xlink:title=" ">
<polygon fill="white" stroke="black" points="285,-760.5 285,-779.5 353,-779.5 353,-760.5 285,-760.5"/>
<text text-anchor="middle" x="319" y="-767.5" font-family="Helvetica,sans-Serif" font-size="10.00">opadd2cm</text>
</a>
</g>
</g>
<!-- Node7&#45;&gt;Node15 -->
<g id="edge16" class="edge">
<title>Node7&#45;&gt;Node15</title>
<path fill="none" stroke="midnightblue" d="M220.42,-589.66C224.96,-617.69 241.52,-700.25 285,-751 285.99,-752.16 287.08,-753.27 288.23,-754.32"/>
<polygon fill="midnightblue" stroke="midnightblue" points="286.39,-757.32 296.5,-760.48 290.57,-751.7 286.39,-757.32"/>
</g>
<!-- Node16 -->
<g id="node16" class="node">
<title>Node16</title>
<g id="a_node16"><a xlink:href="navier1_8f.html#a4d7a006ce8ef086e842bc09f74169951" target="_top" xlink:title=" ">
<polygon fill="white" stroke="black" points="294,-722.5 294,-741.5 344,-741.5 344,-722.5 294,-722.5"/>
<text text-anchor="middle" x="319" y="-729.5" font-family="Helvetica,sans-Serif" font-size="10.00">opbinv</text>
</a>
</g>
</g>
<!-- Node7&#45;&gt;Node16 -->
<g id="edge17" class="edge">
<title>Node7&#45;&gt;Node16</title>
<path fill="none" stroke="midnightblue" d="M221.71,-589.84C228.66,-613.58 249.16,-674.87 285,-713 286.18,-714.26 287.47,-715.46 288.82,-716.6"/>
<polygon fill="midnightblue" stroke="midnightblue" points="286.92,-719.54 297.1,-722.46 290.96,-713.82 286.92,-719.54"/>
</g>
<!-- Node17 -->
<g id="node17" class="node">
<title>Node17</title>
<g id="a_node17"><a xlink:href="navier1_8f.html#a58af49abaf1ee0cc07be356ad2721d90" target="_top" xlink:title=" ">
<polygon fill="white" stroke="black" points="297,-684.5 297,-703.5 341,-703.5 341,-684.5 297,-684.5"/>
<text text-anchor="middle" x="319" y="-691.5" font-family="Helvetica,sans-Serif" font-size="10.00">opdiv</text>
</a>
</g>
</g>
<!-- Node7&#45;&gt;Node17 -->
<g id="edge18" class="edge">
<title>Node7&#45;&gt;Node17</title>
<path fill="none" stroke="midnightblue" d="M223.84,-589.66C233.44,-608.1 256.46,-648.78 285,-675 286.46,-676.34 288.03,-677.63 289.67,-678.86"/>
<polygon fill="midnightblue" stroke="midnightblue" points="287.9,-681.89 298.18,-684.48 291.76,-676.05 287.9,-681.89"/>
</g>
<!-- Node18 -->
<g id="node18" class="node">
<title>Node18</title>
<g id="a_node18"><a xlink:href="navier1_8f.html#a0319e77dcb754cfe343f5e1e0a54f8dd" target="_top" xlink:title=" ">
<polygon fill="white" stroke="black" points="292,-646.5 292,-665.5 346,-665.5 346,-646.5 292,-646.5"/>
<text text-anchor="middle" x="319" y="-653.5" font-family="Helvetica,sans-Serif" font-size="10.00">opgradt</text>
</a>
</g>
</g>
<!-- Node7&#45;&gt;Node18 -->
<g id="edge19" class="edge">
<title>Node7&#45;&gt;Node18</title>
<path fill="none" stroke="midnightblue" d="M228.8,-589.51C241.27,-601.38 263.77,-621.92 285,-637 286.88,-638.34 288.87,-639.66 290.89,-640.96"/>
<polygon fill="midnightblue" stroke="midnightblue" points="289.44,-644.17 299.8,-646.35 293.06,-638.18 289.44,-644.17"/>
</g>
<!-- Node19 -->
<g id="node19" class="node">
<title>Node19</title>
<g id="a_node19"><a xlink:href="navier1_8f.html#a4905d51f51b57bfec184a6b44f858bdb" target="_top" xlink:title=" ">
<polygon fill="white" stroke="black" points="298,-608.5 298,-627.5 340,-627.5 340,-608.5 298,-608.5"/>
<text text-anchor="middle" x="319" y="-615.5" font-family="Helvetica,sans-Serif" font-size="10.00">ortho</text>
</a>
</g>
</g>
<!-- Node7&#45;&gt;Node19 -->
<g id="edge20" class="edge">
<title>Node7&#45;&gt;Node19</title>
<path fill="none" stroke="midnightblue" d="M243.98,-589.59C257.35,-594.72 273.91,-601.08 287.97,-606.47"/>
<polygon fill="midnightblue" stroke="midnightblue" points="287.1,-609.89 297.69,-610.2 289.61,-603.35 287.1,-609.89"/>
</g>
<!-- Node20 -->
<g id="node20" class="node">
<title>Node20</title>
<g id="a_node20"><a xlink:href="math_8f.html#af44de42b023a4a68cd98ea341204342d" target="_top" xlink:title=" ">
<polygon fill="white" stroke="black" points="298.5,-570.5 298.5,-589.5 339.5,-589.5 339.5,-570.5 298.5,-570.5"/>
<text text-anchor="middle" x="319" y="-577.5" font-family="Helvetica,sans-Serif" font-size="10.00">rzero</text>
</a>
</g>
</g>
<!-- Node7&#45;&gt;Node20 -->
<g id="edge21" class="edge">
<title>Node7&#45;&gt;Node20</title>
<path fill="none" stroke="midnightblue" d="M249.24,-580C261.56,-580 275.75,-580 288.04,-580"/>
<polygon fill="midnightblue" stroke="midnightblue" points="288.25,-583.5 298.25,-580 288.25,-576.5 288.25,-583.5"/>
</g>
<!-- Node21 -->
<g id="node21" class="node">
<title>Node21</title>
<g id="a_node21"><a xlink:href="induct_8f.html#a85f2bbdd91096e0df0353ebd6968b71d" target="_top" xlink:title=" ">
<polygon fill="white" stroke="black" points="292.5,-532.5 292.5,-551.5 345.5,-551.5 345.5,-532.5 292.5,-532.5"/>
<text text-anchor="middle" x="319" y="-539.5" font-family="Helvetica,sans-Serif" font-size="10.00">setrhsp</text>
</a>
</g>
</g>
<!-- Node7&#45;&gt;Node21 -->
<g id="edge22" class="edge">
<title>Node7&#45;&gt;Node21</title>
<path fill="none" stroke="midnightblue" d="M243.98,-570.41C255.94,-565.82 270.45,-560.25 283.45,-555.26"/>
<polygon fill="midnightblue" stroke="midnightblue" points="284.94,-558.44 293.03,-551.59 282.44,-551.9 284.94,-558.44"/>
</g>
<!-- Node22&#45;&gt;Node3 -->
<g id="edge27" class="edge">
<title>Node22&#45;&gt;Node3</title>
<path fill="none" stroke="midnightblue" d="M222.57,-190.66C230.77,-211.8 252.78,-262.86 285,-295 286.25,-296.25 287.61,-297.45 289.03,-298.59"/>
<polygon fill="midnightblue" stroke="midnightblue" points="287.4,-301.72 297.62,-304.5 291.36,-295.95 287.4,-301.72"/>
</g>
<!-- Node23 -->
<g id="node23" class="node">
<title>Node23</title>
<g id="a_node23"><a xlink:href="mvmesh_8f.html#a1b9c194ae1f554f335f3d6c21eacded3" target="_top" xlink:title=" ">
<polygon fill="white" stroke="black" points="288,-266.5 288,-285.5 350,-285.5 350,-266.5 288,-266.5"/>
<text text-anchor="middle" x="319" y="-273.5" font-family="Helvetica,sans-Serif" font-size="10.00">admeshv</text>
</a>
</g>
</g>
<!-- Node22&#45;&gt;Node23 -->
<g id="edge24" class="edge">
<title>Node22&#45;&gt;Node23</title>
<path fill="none" stroke="midnightblue" d="M225.84,-190.8C236.94,-206.24 260.18,-236.56 285,-257 286.57,-258.29 288.24,-259.55 289.96,-260.76"/>
<polygon fill="midnightblue" stroke="midnightblue" points="288.47,-263.96 298.79,-266.38 292.23,-258.05 288.47,-263.96"/>
</g>
<!-- Node24 -->
<g id="node24" class="node">
<title>Node24</title>
<g id="a_node24"><a xlink:href="navier1_8f.html#a344ec731e4a89d0f136c91bc1963e8d5" target="_top" xlink:title=" ">
<polygon fill="white" stroke="black" points="295.5,-228.5 295.5,-247.5 342.5,-247.5 342.5,-228.5 295.5,-228.5"/>
<text text-anchor="middle" x="319" y="-235.5" font-family="Helvetica,sans-Serif" font-size="10.00">advab</text>
</a>
</g>
</g>
<!-- Node22&#45;&gt;Node24 -->
<g id="edge25" class="edge">
<title>Node22&#45;&gt;Node24</title>
<path fill="none" stroke="midnightblue" d="M235.79,-190.67C251.39,-199.65 274.83,-213.14 292.69,-223.43"/>
<polygon fill="midnightblue" stroke="midnightblue" points="291.04,-226.52 301.45,-228.47 294.53,-220.45 291.04,-226.52"/>
</g>
<!-- Node25 -->
<g id="node25" class="node">
<title>Node25</title>
<g id="a_node25"><a xlink:href="convect_8f.html#afc0b2ce765c4ad0f0ec6f2a62536bf57" target="_top" xlink:title=" ">
<polygon fill="white" stroke="black" points="291,-190.5 291,-209.5 347,-209.5 347,-190.5 291,-190.5"/>
<text text-anchor="middle" x="319" y="-197.5" font-family="Helvetica,sans-Serif" font-size="10.00">advchar</text>
</a>
</g>
</g>
<!-- Node22&#45;&gt;Node25 -->
<g id="edge26" class="edge">
<title>Node22&#45;&gt;Node25</title>
<path fill="none" stroke="midnightblue" d="M241.96,-185.41C253.5,-187.62 267.77,-190.36 280.82,-192.86"/>
<polygon fill="midnightblue" stroke="midnightblue" points="280.47,-196.36 290.95,-194.81 281.79,-189.49 280.47,-196.36"/>
</g>
<!-- Node26 -->
<g id="node26" class="node">
<title>Node26</title>
<g id="a_node26"><a xlink:href="hpf_8f.html#aa74c82c5e339de802f489470b23422a0" target="_top" xlink:title=" ">
<polygon fill="white" stroke="black" points="286.5,-152.5 286.5,-171.5 351.5,-171.5 351.5,-152.5 286.5,-152.5"/>
<text text-anchor="middle" x="319" y="-159.5" font-family="Helvetica,sans-Serif" font-size="10.00">make_hpf</text>
</a>
</g>
</g>
<!-- Node22&#45;&gt;Node26 -->
<g id="edge28" class="edge">
<title>Node22&#45;&gt;Node26</title>
<path fill="none" stroke="midnightblue" d="M241.96,-176.59C252.12,-174.64 264.4,-172.29 276.1,-170.04"/>
<polygon fill="midnightblue" stroke="midnightblue" points="277,-173.43 286.16,-168.11 275.68,-166.56 277,-173.43"/>
</g>
<!-- Node27 -->
<g id="node27" class="node">
<title>Node27</title>
<g id="a_node27"><a xlink:href="navier1_8f.html#ab907b0b4f57c160c86799b03de3cef19" target="_top" xlink:title=" ">
<polygon fill="white" stroke="black" points="289.5,-114.5 289.5,-133.5 348.5,-133.5 348.5,-114.5 289.5,-114.5"/>
<text text-anchor="middle" x="319" y="-121.5" font-family="Helvetica,sans-Serif" font-size="10.00">makeabf</text>
</a>
</g>
</g>
<!-- Node22&#45;&gt;Node27 -->
<g id="edge29" class="edge">
<title>Node22&#45;&gt;Node27</title>
<path fill="none" stroke="midnightblue" d="M235.79,-171.33C251.39,-162.35 274.83,-148.86 292.69,-138.57"/>
<polygon fill="midnightblue" stroke="midnightblue" points="294.53,-141.55 301.45,-133.53 291.04,-135.48 294.53,-141.55"/>
</g>
<!-- Node28 -->
<g id="node28" class="node">
<title>Node28</title>
<g id="a_node28"><a xlink:href="navier1_8f.html#a0510a60155ebc71a3acda4b1e7e507e5" target="_top" xlink:title=" ">
<polygon fill="white" stroke="black" points="289.5,-76.5 289.5,-95.5 348.5,-95.5 348.5,-76.5 289.5,-76.5"/>
<text text-anchor="middle" x="319" y="-83.5" font-family="Helvetica,sans-Serif" font-size="10.00">makebdf</text>
</a>
</g>
</g>
<!-- Node22&#45;&gt;Node28 -->
<g id="edge30" class="edge">
<title>Node22&#45;&gt;Node28</title>
<path fill="none" stroke="midnightblue" d="M225.84,-171.2C236.94,-155.76 260.18,-125.44 285,-105 286.57,-103.71 288.24,-102.45 289.96,-101.24"/>
<polygon fill="midnightblue" stroke="midnightblue" points="292.23,-103.95 298.79,-95.62 288.47,-98.04 292.23,-103.95"/>
</g>
<!-- Node29 -->
<g id="node29" class="node">
<title>Node29</title>
<g id="a_node29"><a xlink:href="navier1_8f.html#a04edbb4ba3cfada4513a76a4e65a5561" target="_top" xlink:title=" ">
<polygon fill="white" stroke="black" points="292.5,-38.5 292.5,-57.5 345.5,-57.5 345.5,-38.5 292.5,-38.5"/>
<text text-anchor="middle" x="319" y="-45.5" font-family="Helvetica,sans-Serif" font-size="10.00">makeuf</text>
</a>
</g>
</g>
<!-- Node22&#45;&gt;Node29 -->
<g id="edge31" class="edge">
<title>Node22&#45;&gt;Node29</title>
<path fill="none" stroke="midnightblue" d="M222.57,-171.34C230.77,-150.2 252.78,-99.14 285,-67 286.25,-65.75 287.61,-64.55 289.03,-63.41"/>
<polygon fill="midnightblue" stroke="midnightblue" points="291.36,-66.05 297.62,-57.5 287.4,-60.28 291.36,-66.05"/>
</g>
<!-- Node30 -->
<g id="node30" class="node">
<title>Node30</title>
<g id="a_node30"><a xlink:href="navier1_8f.html#ae6ed8f0409f034c9d0dff152a3445d90" target="_top" xlink:title=" ">
<polygon fill="white" stroke="black" points="290,-0.5 290,-19.5 348,-19.5 348,-0.5 290,-0.5"/>
<text text-anchor="middle" x="319" y="-7.5" font-family="Helvetica,sans-Serif" font-size="10.00">makevis</text>
</a>
</g>
</g>
<!-- Node22&#45;&gt;Node30 -->
<g id="edge32" class="edge">
<title>Node22&#45;&gt;Node30</title>
<path fill="none" stroke="midnightblue" d="M220.97,-171.31C226.66,-145.38 245.33,-73.42 285,-29 286.02,-27.86 287.12,-26.77 288.29,-25.73"/>
<polygon fill="midnightblue" stroke="midnightblue" points="290.62,-28.36 296.62,-19.62 286.49,-22.71 290.62,-28.36"/>
</g>
</g>
</svg>
