<?xml version="1.0" encoding="UTF-8" standalone="no"?>
<!DOCTYPE svg PUBLIC "-//W3C//DTD SVG 1.1//EN"
 "http://www.w3.org/Graphics/SVG/1.1/DTD/svg11.dtd">
<!-- Generated by graphviz version 2.40.1 (20161225.0304)
 -->
<!-- Title: nek_init Pages: 1 -->
<svg width="198pt" height="1472pt"
 viewBox="0.00 0.00 198.00 1472.00" xmlns="http://www.w3.org/2000/svg" xmlns:xlink="http://www.w3.org/1999/xlink">
<g id="graph0" class="graph" transform="scale(1 1) rotate(0) translate(4 1468)">
<title>nek_init</title>
<polygon fill="#ffffff" stroke="transparent" points="-4,4 -4,-1468 194,-1468 194,4 -4,4"/>
<!-- Node130 -->
<g id="node1" class="node">
<title>Node130</title>
<polygon fill="#bfbfbf" stroke="#000000" points="0,-722.5 0,-741.5 50,-741.5 50,-722.5 0,-722.5"/>
<text text-anchor="middle" x="25" y="-729.5" font-family="Helvetica,sans-Serif" font-size="10.00" fill="#000000">nek_init</text>
</g>
<!-- Node131 -->
<g id="node2" class="node">
<title>Node131</title>
<g id="a_node2"><a xlink:href="comm__mpi_8f.html#a876278decc78f1f369bcb7548279a015" target="_top" xlink:title="setupcomm">
<polygon fill="#ffffff" stroke="#000000" points="104,-1444.5 104,-1463.5 172,-1463.5 172,-1444.5 104,-1444.5"/>
<text text-anchor="middle" x="138" y="-1451.5" font-family="Helvetica,sans-Serif" font-size="10.00" fill="#000000">setupcomm</text>
</a>
</g>
</g>
<!-- Node130&#45;&gt;Node131 -->
<g id="edge1" class="edge">
<title>Node130&#45;&gt;Node131</title>
<path fill="none" stroke="#191970" d="M25.2168,-741.5785C27.1061,-821.5874 41.7761,-1377.2492 86,-1435 88.4607,-1438.2134 91.5189,-1440.8837 94.9113,-1443.1027"/>
<polygon fill="#191970" stroke="#191970" points="93.3924,-1446.2575 103.8829,-1447.7411 96.6073,-1440.0394 93.3924,-1446.2575"/>
</g>
<!-- Node132 -->
<g id="node3" class="node">
<title>Node132</title>
<g id="a_node3"><a xlink:href="comm__mpi_8f.html#ab90d4741057e2d716d13c2c30ff855de" target="_top" xlink:title="iniproc">
<polygon fill="#ffffff" stroke="#000000" points="115.5,-1406.5 115.5,-1425.5 160.5,-1425.5 160.5,-1406.5 115.5,-1406.5"/>
<text text-anchor="middle" x="138" y="-1413.5" font-family="Helvetica,sans-Serif" font-size="10.00" fill="#000000">iniproc</text>
</a>
</g>
</g>
<!-- Node130&#45;&gt;Node132 -->
<g id="edge2" class="edge">
<title>Node130&#45;&gt;Node132</title>
<path fill="none" stroke="#191970" d="M25.2658,-741.546C27.4995,-818.9676 44.1023,-1342.5648 86,-1397 90.8507,-1403.3022 97.998,-1407.5154 105.4506,-1410.3315"/>
<polygon fill="#191970" stroke="#191970" points="104.6715,-1413.7522 115.2562,-1413.2871 106.6918,-1407.05 104.6715,-1413.7522"/>
</g>
<!-- Node133 -->
<g id="node4" class="node">
<title>Node133</title>
<g id="a_node4"><a xlink:href="comm__mpi_8f.html#a18ca1338ab65ed76e2405bf426a32c96" target="_top" xlink:title="printheader">
<polygon fill="#ffffff" stroke="#000000" points="105.5,-1368.5 105.5,-1387.5 170.5,-1387.5 170.5,-1368.5 105.5,-1368.5"/>
<text text-anchor="middle" x="138" y="-1375.5" font-family="Helvetica,sans-Serif" font-size="10.00" fill="#000000">printheader</text>
</a>
</g>
</g>
<!-- Node130&#45;&gt;Node133 -->
<g id="edge3" class="edge">
<title>Node130&#45;&gt;Node133</title>
<path fill="none" stroke="#191970" d="M25.3355,-741.9484C27.9874,-818.169 46.5019,-1307.9739 86,-1359 88.7891,-1362.6031 92.3284,-1365.5233 96.2444,-1367.89"/>
<polygon fill="#191970" stroke="#191970" points="94.7455,-1371.0528 105.274,-1372.237 97.7819,-1364.7457 94.7455,-1371.0528"/>
</g>
<!-- Node134 -->
<g id="node5" class="node">
<title>Node134</title>
<g id="a_node5"><a xlink:href="comm__mpi_8f.html#af06ec29f06aac3f8809e19de2a7e8946" target="_top" xlink:title="dnekclock">
<polygon fill="#ffffff" stroke="#000000" points="107.5,-1330.5 107.5,-1349.5 168.5,-1349.5 168.5,-1330.5 107.5,-1330.5"/>
<text text-anchor="middle" x="138" y="-1337.5" font-family="Helvetica,sans-Serif" font-size="10.00" fill="#000000">dnekclock</text>
</a>
</g>
</g>
<!-- Node130&#45;&gt;Node134 -->
<g id="edge4" class="edge">
<title>Node130&#45;&gt;Node134</title>
<path fill="none" stroke="#191970" d="M25.3953,-741.8075C28.421,-814.9082 48.8027,-1273.2535 86,-1321 89.2396,-1325.1584 93.4777,-1328.407 98.1379,-1330.9449"/>
<polygon fill="#191970" stroke="#191970" points="96.9018,-1334.2239 107.468,-1335.0017 99.693,-1327.8045 96.9018,-1334.2239"/>
</g>
<!-- Node135 -->
<g id="node6" class="node">
<title>Node135</title>
<g id="a_node6"><a xlink:href="drive2_8f.html#ae3e6cc31f5e6b6b2b5062d80ca77519f" target="_top" xlink:title="opcount">
<polygon fill="#ffffff" stroke="#000000" points="112.5,-1292.5 112.5,-1311.5 163.5,-1311.5 163.5,-1292.5 112.5,-1292.5"/>
<text text-anchor="middle" x="138" y="-1299.5" font-family="Helvetica,sans-Serif" font-size="10.00" fill="#000000">opcount</text>
</a>
</g>
</g>
<!-- Node130&#45;&gt;Node135 -->
<g id="edge5" class="edge">
<title>Node130&#45;&gt;Node135</title>
<path fill="none" stroke="#191970" d="M25.4594,-741.617C28.8704,-811.3929 51.0929,-1238.5179 86,-1283 90.3056,-1288.4867 96.3482,-1292.3895 102.7972,-1295.1655"/>
<polygon fill="#191970" stroke="#191970" points="101.7867,-1298.5193 112.3814,-1298.4797 104.0744,-1291.9037 101.7867,-1298.5193"/>
</g>
<!-- Node136 -->
<g id="node7" class="node">
<title>Node136</title>
<g id="a_node7"><a xlink:href="drive2_8f.html#a40017911aaca646c450aff8e81c73de3" target="_top" xlink:title="initdim">
<polygon fill="#ffffff" stroke="#000000" points="115.5,-1254.5 115.5,-1273.5 160.5,-1273.5 160.5,-1254.5 115.5,-1254.5"/>
<text text-anchor="middle" x="138" y="-1261.5" font-family="Helvetica,sans-Serif" font-size="10.00" fill="#000000">initdim</text>
</a>
</g>
</g>
<!-- Node130&#45;&gt;Node136 -->
<g id="edge6" class="edge">
<title>Node130&#45;&gt;Node136</title>
<path fill="none" stroke="#191970" d="M25.5527,-741.8031C29.4379,-809.3114 53.4417,-1203.855 86,-1245 90.9349,-1251.2364 98.112,-1255.4264 105.5664,-1258.2412"/>
<polygon fill="#191970" stroke="#191970" points="104.7751,-1261.6584 115.3603,-1261.2059 106.8033,-1254.9587 104.7751,-1261.6584"/>
</g>
<!-- Node137 -->
<g id="node8" class="node">
<title>Node137</title>
<g id="a_node8"><a xlink:href="drive2_8f.html#ad39f875830fa693f65e91c2eebe4f6fc" target="_top" xlink:title="initdat">
<polygon fill="#ffffff" stroke="#000000" points="116.5,-1216.5 116.5,-1235.5 159.5,-1235.5 159.5,-1216.5 116.5,-1216.5"/>
<text text-anchor="middle" x="138" y="-1223.5" font-family="Helvetica,sans-Serif" font-size="10.00" fill="#000000">initdat</text>
</a>
</g>
</g>
<!-- Node130&#45;&gt;Node137 -->
<g id="edge7" class="edge">
<title>Node130&#45;&gt;Node137</title>
<path fill="none" stroke="#191970" d="M25.6566,-741.8973C30.0366,-806.7185 55.7699,-1169.1628 86,-1207 91.1886,-1213.4943 98.8062,-1217.7691 106.6194,-1220.5828"/>
<polygon fill="#191970" stroke="#191970" points="105.8742,-1224.0106 116.4527,-1223.4226 107.8164,-1217.2854 105.8742,-1224.0106"/>
</g>
<!-- Node138 -->
<g id="node9" class="node">
<title>Node138</title>
<g id="a_node9"><a xlink:href="drive2_8f.html#a29f4f4f29ab462b5dcb910cb6d8a1af1" target="_top" xlink:title="files">
<polygon fill="#ffffff" stroke="#000000" points="120.5,-1178.5 120.5,-1197.5 155.5,-1197.5 155.5,-1178.5 120.5,-1178.5"/>
<text text-anchor="middle" x="138" y="-1185.5" font-family="Helvetica,sans-Serif" font-size="10.00" fill="#000000">files</text>
</a>
</g>
</g>
<!-- Node130&#45;&gt;Node138 -->
<g id="edge8" class="edge">
<title>Node130&#45;&gt;Node138</title>
<path fill="none" stroke="#191970" d="M25.7716,-741.8911C30.6658,-803.6168 58.0769,-1134.4408 86,-1169 92.0566,-1176.496 101.3457,-1181.0348 110.4061,-1183.783"/>
<polygon fill="#191970" stroke="#191970" points="109.8116,-1187.24 120.354,-1186.187 111.456,-1180.4358 109.8116,-1187.24"/>
</g>
<!-- Node139 -->
<g id="node10" class="node">
<title>Node139</title>
<g id="a_node10"><a xlink:href="connect2_8f.html#a909eeac6dfc8f61a1c9d637c53cc970d" target="_top" xlink:title="readat">
<polygon fill="#ffffff" stroke="#000000" points="116,-1140.5 116,-1159.5 160,-1159.5 160,-1140.5 116,-1140.5"/>
<text text-anchor="middle" x="138" y="-1147.5" font-family="Helvetica,sans-Serif" font-size="10.00" fill="#000000">readat</text>
</a>
</g>
</g>
<!-- Node130&#45;&gt;Node139 -->
<g id="edge9" class="edge">
<title>Node130&#45;&gt;Node139</title>
<path fill="none" stroke="#191970" d="M25.18,-741.5815C26.3912,-796.2659 34.9465,-1068.6477 86,-1131 91.1377,-1137.2747 98.5374,-1141.4772 106.1501,-1144.2919"/>
<polygon fill="#191970" stroke="#191970" points="105.1686,-1147.6514 115.7523,-1147.1663 107.1761,-1140.9455 105.1686,-1147.6514"/>
</g>
<!-- Node140 -->
<g id="node11" class="node">
<title>Node140</title>
<g id="a_node11"><a xlink:href="drive2_8f.html#ac84969997b3b976452e0337647abcb23" target="_top" xlink:title="setvar">
<polygon fill="#ffffff" stroke="#000000" points="116,-1102.5 116,-1121.5 160,-1121.5 160,-1102.5 116,-1102.5"/>
<text text-anchor="middle" x="138" y="-1109.5" font-family="Helvetica,sans-Serif" font-size="10.00" fill="#000000">setvar</text>
</a>
</g>
</g>
<!-- Node130&#45;&gt;Node140 -->
<g id="edge10" class="edge">
<title>Node130&#45;&gt;Node140</title>
<path fill="none" stroke="#191970" d="M25.3526,-741.6697C27.4231,-793.3992 39.5547,-1037.1748 86,-1093 91.1867,-1099.2342 98.6032,-1103.4229 106.2162,-1106.2373"/>
<polygon fill="#191970" stroke="#191970" points="105.2273,-1109.5946 115.8114,-1109.1176 107.2399,-1102.8902 105.2273,-1109.5946"/>
</g>
<!-- Node141 -->
<g id="node12" class="node">
<title>Node141</title>
<g id="a_node12"><a xlink:href="connect1_8f.html#a555c5112d24b342a7e0c9d0990c53ae2" target="_top" xlink:title="setup_topo">
<polygon fill="#ffffff" stroke="#000000" points="105.5,-1064.5 105.5,-1083.5 170.5,-1083.5 170.5,-1064.5 105.5,-1064.5"/>
<text text-anchor="middle" x="138" y="-1071.5" font-family="Helvetica,sans-Serif" font-size="10.00" fill="#000000">setup_topo</text>
</a>
</g>
</g>
<!-- Node130&#45;&gt;Node141 -->
<g id="edge11" class="edge">
<title>Node130&#45;&gt;Node141</title>
<path fill="none" stroke="#191970" d="M25.5578,-741.5943C28.5437,-789.8446 44.0963,-1005.6091 86,-1055 88.8331,-1058.3393 92.305,-1061.0919 96.0984,-1063.3607"/>
<polygon fill="#191970" stroke="#191970" points="94.8551,-1066.6464 105.3842,-1067.8253 97.8884,-1060.3377 94.8551,-1066.6464"/>
</g>
<!-- Node142 -->
<g id="node13" class="node">
<title>Node142</title>
<g id="a_node13"><a xlink:href="coef_8f.html#a0d49b1aee56670901cd4cdfde7245e6c" target="_top" xlink:title="genwz">
<polygon fill="#ffffff" stroke="#000000" points="115.5,-1026.5 115.5,-1045.5 160.5,-1045.5 160.5,-1026.5 115.5,-1026.5"/>
<text text-anchor="middle" x="138" y="-1033.5" font-family="Helvetica,sans-Serif" font-size="10.00" fill="#000000">genwz</text>
</a>
</g>
</g>
<!-- Node130&#45;&gt;Node142 -->
<g id="edge12" class="edge">
<title>Node130&#45;&gt;Node142</title>
<path fill="none" stroke="#191970" d="M25.8238,-741.6355C29.8333,-786.4402 48.6504,-974.0414 86,-1017 91.116,-1022.8843 98.2115,-1026.9472 105.5181,-1029.7522"/>
<polygon fill="#191970" stroke="#191970" points="104.8579,-1033.2126 115.4465,-1032.8504 106.9432,-1026.5304 104.8579,-1033.2126"/>
</g>
<!-- Node143 -->
<g id="node14" class="node">
<title>Node143</title>
<g id="a_node14"><a xlink:href="group__zero.html#ga684b0320d82a6ae155bf7e0b53826cd3" target="_top" xlink:title="usrdat">
<polygon fill="#ffffff" stroke="#000000" points="116,-988.5 116,-1007.5 160,-1007.5 160,-988.5 116,-988.5"/>
<text text-anchor="middle" x="138" y="-995.5" font-family="Helvetica,sans-Serif" font-size="10.00" fill="#000000">usrdat</text>
</a>
</g>
</g>
<!-- Node130&#45;&gt;Node143 -->
<g id="edge13" class="edge">
<title>Node130&#45;&gt;Node143</title>
<path fill="none" stroke="#191970" d="M26.1744,-741.7031C31.3314,-782.8425 53.1828,-942.4252 86,-979 91.3112,-984.9193 98.6213,-988.9971 106.0834,-991.8054"/>
<polygon fill="#191970" stroke="#191970" points="105.2377,-995.2073 115.8252,-994.814 107.3033,-988.519 105.2377,-995.2073"/>
</g>
<!-- Node144 -->
<g id="node15" class="node">
<title>Node144</title>
<g id="a_node15"><a xlink:href="drive2_8f.html#aefc07385d7e7539fb57662470f694136" target="_top" xlink:title="gengeom">
<polygon fill="#ffffff" stroke="#000000" points="110,-950.5 110,-969.5 166,-969.5 166,-950.5 110,-950.5"/>
<text text-anchor="middle" x="138" y="-957.5" font-family="Helvetica,sans-Serif" font-size="10.00" fill="#000000">gengeom</text>
</a>
</g>
</g>
<!-- Node130&#45;&gt;Node144 -->
<g id="edge14" class="edge">
<title>Node130&#45;&gt;Node144</title>
<path fill="none" stroke="#191970" d="M26.6379,-741.6872C33.0718,-778.7115 57.6553,-910.7098 86,-941 89.9404,-945.2108 94.8901,-948.4915 100.1597,-951.0468"/>
<polygon fill="#191970" stroke="#191970" points="99.2561,-954.4544 109.8413,-954.907 101.8487,-947.9522 99.2561,-954.4544"/>
</g>
<!-- Node145 -->
<g id="node16" class="node">
<title>Node145</title>
<g id="a_node16"><a xlink:href="connect1_8f.html#a39e70815f3e1b27b219e8d1ec15d2c76" target="_top" xlink:title="setup_mesh_dssum">
<polygon fill="#ffffff" stroke="#000000" points="86,-912.5 86,-931.5 190,-931.5 190,-912.5 86,-912.5"/>
<text text-anchor="middle" x="138" y="-919.5" font-family="Helvetica,sans-Serif" font-size="10.00" fill="#000000">setup_mesh_dssum</text>
</a>
</g>
</g>
<!-- Node130&#45;&gt;Node145 -->
<g id="edge15" class="edge">
<title>Node130&#45;&gt;Node145</title>
<path fill="none" stroke="#191970" d="M25.6493,-741.6177C28.0908,-770.2371 39.153,-855.7927 86,-903 87.4472,-904.4583 89.0152,-905.8055 90.6738,-907.05"/>
<polygon fill="#191970" stroke="#191970" points="89.2167,-910.2599 99.5815,-912.4558 92.8484,-904.2756 89.2167,-910.2599"/>
</g>
<!-- Node146 -->
<g id="node17" class="node">
<title>Node146</title>
<g id="a_node17"><a xlink:href="group__zero.html#gad0bac908131bab7fa82d65be4229e976" target="_top" xlink:title="usrdat2">
<polygon fill="#ffffff" stroke="#000000" points="113.5,-874.5 113.5,-893.5 162.5,-893.5 162.5,-874.5 113.5,-874.5"/>
<text text-anchor="middle" x="138" y="-881.5" font-family="Helvetica,sans-Serif" font-size="10.00" fill="#000000">usrdat2</text>
</a>
</g>
</g>
<!-- Node130&#45;&gt;Node146 -->
<g id="edge16" class="edge">
<title>Node130&#45;&gt;Node146</title>
<path fill="none" stroke="#191970" d="M26.7428,-741.5262C31.6389,-765.638 47.7386,-829.6729 86,-865 91.0768,-869.6874 97.403,-873.2405 103.8765,-875.9268"/>
<polygon fill="#191970" stroke="#191970" points="102.7433,-879.2384 113.3381,-879.2733 105.0775,-872.639 102.7433,-879.2384"/>
</g>
<!-- Node147 -->
<g id="node18" class="node">
<title>Node147</title>
<g id="a_node18"><a xlink:href="navier5_8f.html#ac7bf11bb142c7d01c82cc8b64e88bff2" target="_top" xlink:title="fix_geom">
<polygon fill="#ffffff" stroke="#000000" points="110,-836.5 110,-855.5 166,-855.5 166,-836.5 110,-836.5"/>
<text text-anchor="middle" x="138" y="-843.5" font-family="Helvetica,sans-Serif" font-size="10.00" fill="#000000">fix_geom</text>
</a>
</g>
</g>
<!-- Node130&#45;&gt;Node147 -->
<g id="edge17" class="edge">
<title>Node130&#45;&gt;Node147</title>
<path fill="none" stroke="#191970" d="M28.6578,-741.5421C36.3884,-760.4951 56.1644,-803.1114 86,-827 90.3142,-830.4542 95.3137,-833.3153 100.473,-835.6754"/>
<polygon fill="#191970" stroke="#191970" points="99.2339,-838.9492 109.819,-839.4024 101.8268,-832.4472 99.2339,-838.9492"/>
</g>
<!-- Node148 -->
<g id="node19" class="node">
<title>Node148</title>
<g id="a_node19"><a xlink:href="ic_8f.html#aaf47b255d1cfac3451a8473ee6876b4f" target="_top" xlink:title="geom_reset">
<polygon fill="#ffffff" stroke="#000000" points="104,-798.5 104,-817.5 172,-817.5 172,-798.5 104,-798.5"/>
<text text-anchor="middle" x="138" y="-805.5" font-family="Helvetica,sans-Serif" font-size="10.00" fill="#000000">geom_reset</text>
</a>
</g>
</g>
<!-- Node130&#45;&gt;Node148 -->
<g id="edge18" class="edge">
<title>Node130&#45;&gt;Node148</title>
<path fill="none" stroke="#191970" d="M33.1522,-741.7346C44.0534,-754.21 64.5115,-775.7983 86,-789 89.2195,-790.9779 92.6764,-792.7964 96.222,-794.4579"/>
<polygon fill="#191970" stroke="#191970" points="95.1397,-797.8008 105.7121,-798.4904 97.8773,-791.3583 95.1397,-797.8008"/>
</g>
<!-- Node149 -->
<g id="node20" class="node">
<title>Node149</title>
<g id="a_node20"><a xlink:href="connect2_8f.html#a76e6d86442e217d89107f73fa732ca97" target="_top" xlink:title="vrdsmsh">
<polygon fill="#ffffff" stroke="#000000" points="111,-760.5 111,-779.5 165,-779.5 165,-760.5 111,-760.5"/>
<text text-anchor="middle" x="138" y="-767.5" font-family="Helvetica,sans-Serif" font-size="10.00" fill="#000000">vrdsmsh</text>
</a>
</g>
</g>
<!-- Node130&#45;&gt;Node149 -->
<g id="edge19" class="edge">
<title>Node130&#45;&gt;Node149</title>
<path fill="none" stroke="#191970" d="M50.0784,-740.4334C65.0799,-745.4782 84.4148,-751.9802 101.1314,-757.6017"/>
<polygon fill="#191970" stroke="#191970" points="100.0248,-760.9221 110.6188,-760.7922 102.256,-754.2872 100.0248,-760.9221"/>
</g>
<!-- Node150 -->
<g id="node21" class="node">
<title>Node150</title>
<g id="a_node21"><a xlink:href="genxyz_8f.html#aea17dd307e81e2ea9c30d813756a8527" target="_top" xlink:title="mesh_metrics">
<polygon fill="#ffffff" stroke="#000000" points="99,-722.5 99,-741.5 177,-741.5 177,-722.5 99,-722.5"/>
<text text-anchor="middle" x="138" y="-729.5" font-family="Helvetica,sans-Serif" font-size="10.00" fill="#000000">mesh_metrics</text>
</a>
</g>
</g>
<!-- Node130&#45;&gt;Node150 -->
<g id="edge20" class="edge">
<title>Node130&#45;&gt;Node150</title>
<path fill="none" stroke="#191970" d="M50.0784,-732C61.4773,-732 75.3783,-732 88.7314,-732"/>
<polygon fill="#191970" stroke="#191970" points="88.7853,-735.5001 98.7853,-732 88.7853,-728.5001 88.7853,-735.5001"/>
</g>
<!-- Node151 -->
<g id="node22" class="node">
<title>Node151</title>
<g id="a_node22"><a xlink:href="bdry_8f.html#a98065c380f39e2213ad6e88dcc1c88c7" target="_top" xlink:title="setlog">
<polygon fill="#ffffff" stroke="#000000" points="116.5,-684.5 116.5,-703.5 159.5,-703.5 159.5,-684.5 116.5,-684.5"/>
<text text-anchor="middle" x="138" y="-691.5" font-family="Helvetica,sans-Serif" font-size="10.00" fill="#000000">setlog</text>
</a>
</g>
</g>
<!-- Node130&#45;&gt;Node151 -->
<g id="edge21" class="edge">
<title>Node130&#45;&gt;Node151</title>
<path fill="none" stroke="#191970" d="M50.0784,-723.5666C66.7882,-717.9473 88.8746,-710.52 106.7302,-704.5155"/>
<polygon fill="#191970" stroke="#191970" points="108.0543,-707.7629 116.4171,-701.258 105.823,-701.128 108.0543,-707.7629"/>
</g>
<!-- Node152 -->
<g id="node23" class="node">
<title>Node152</title>
<g id="a_node23"><a xlink:href="multimesh_8f.html#ae456181cee68ca24e24244df7c9db9c6" target="_top" xlink:title="neknek_setup">
<polygon fill="#ffffff" stroke="#000000" points="99.5,-646.5 99.5,-665.5 176.5,-665.5 176.5,-646.5 99.5,-646.5"/>
<text text-anchor="middle" x="138" y="-653.5" font-family="Helvetica,sans-Serif" font-size="10.00" fill="#000000">neknek_setup</text>
</a>
</g>
</g>
<!-- Node130&#45;&gt;Node152 -->
<g id="edge22" class="edge">
<title>Node130&#45;&gt;Node152</title>
<path fill="none" stroke="#191970" d="M33.1522,-722.2654C44.0534,-709.79 64.5115,-688.2017 86,-675 89.2195,-673.0221 92.6764,-671.2036 96.222,-669.5421"/>
<polygon fill="#191970" stroke="#191970" points="97.8773,-672.6417 105.7121,-665.5096 95.1397,-666.1992 97.8773,-672.6417"/>
</g>
<!-- Node153 -->
<g id="node24" class="node">
<title>Node153</title>
<g id="a_node24"><a xlink:href="bdry_8f.html#aff6088943a1cc02fb036375d9008b4c7" target="_top" xlink:title="bcmask">
<polygon fill="#ffffff" stroke="#000000" points="112.5,-608.5 112.5,-627.5 163.5,-627.5 163.5,-608.5 112.5,-608.5"/>
<text text-anchor="middle" x="138" y="-615.5" font-family="Helvetica,sans-Serif" font-size="10.00" fill="#000000">bcmask</text>
</a>
</g>
</g>
<!-- Node130&#45;&gt;Node153 -->
<g id="edge23" class="edge">
<title>Node130&#45;&gt;Node153</title>
<path fill="none" stroke="#191970" d="M28.6578,-722.4579C36.3884,-703.5049 56.1644,-660.8886 86,-637 91.0222,-632.9788 96.9733,-629.7615 103.0241,-627.2026"/>
<polygon fill="#191970" stroke="#191970" points="104.3286,-630.4519 112.4953,-623.7025 101.9021,-623.8859 104.3286,-630.4519"/>
</g>
<!-- Node154 -->
<g id="node25" class="node">
<title>Node154</title>
<g id="a_node25"><a xlink:href="drive2_8f.html#a7f0d055bb47546a4859ac7d63339197e" target="_top" xlink:title="geneig">
<polygon fill="#ffffff" stroke="#000000" points="115.5,-570.5 115.5,-589.5 160.5,-589.5 160.5,-570.5 115.5,-570.5"/>
<text text-anchor="middle" x="138" y="-577.5" font-family="Helvetica,sans-Serif" font-size="10.00" fill="#000000">geneig</text>
</a>
</g>
</g>
<!-- Node130&#45;&gt;Node154 -->
<g id="edge24" class="edge">
<title>Node130&#45;&gt;Node154</title>
<path fill="none" stroke="#191970" d="M26.7428,-722.4738C31.6389,-698.362 47.7386,-634.3271 86,-599 91.5832,-593.845 98.6776,-590.0618 105.8172,-587.2949"/>
<polygon fill="#191970" stroke="#191970" points="107.044,-590.5758 115.4435,-584.1183 104.8503,-583.9284 107.044,-590.5758"/>
</g>
<!-- Node155 -->
<g id="node26" class="node">
<title>Node155</title>
<g id="a_node26"><a xlink:href="conduct_8f.html#a3b764ba6cf35187ac351c3072456c805" target="_top" xlink:title="dg_setup">
<polygon fill="#ffffff" stroke="#000000" points="110,-532.5 110,-551.5 166,-551.5 166,-532.5 110,-532.5"/>
<text text-anchor="middle" x="138" y="-539.5" font-family="Helvetica,sans-Serif" font-size="10.00" fill="#000000">dg_setup</text>
</a>
</g>
</g>
<!-- Node130&#45;&gt;Node155 -->
<g id="edge25" class="edge">
<title>Node130&#45;&gt;Node155</title>
<path fill="none" stroke="#191970" d="M25.6493,-722.3823C28.0908,-693.7629 39.153,-608.2073 86,-561 90.0199,-556.9492 94.9723,-553.7554 100.2085,-551.2389"/>
<polygon fill="#191970" stroke="#191970" points="101.8152,-554.3659 109.7998,-547.402 99.2152,-547.8666 101.8152,-554.3659"/>
</g>
<!-- Node156 -->
<g id="node27" class="node">
<title>Node156</title>
<g id="a_node27"><a xlink:href="drive2_8f.html#a7cb0ea7de68c5c3cbc3f7290f01a4d51" target="_top" xlink:title="prinit">
<polygon fill="#ffffff" stroke="#000000" points="119,-494.5 119,-513.5 157,-513.5 157,-494.5 119,-494.5"/>
<text text-anchor="middle" x="138" y="-501.5" font-family="Helvetica,sans-Serif" font-size="10.00" fill="#000000">prinit</text>
</a>
</g>
</g>
<!-- Node130&#45;&gt;Node156 -->
<g id="edge26" class="edge">
<title>Node130&#45;&gt;Node156</title>
<path fill="none" stroke="#191970" d="M26.6379,-722.3128C33.0718,-685.2885 57.6553,-553.2902 86,-523 92.1363,-516.4425 100.7205,-512.1407 109.1483,-509.3216"/>
<polygon fill="#191970" stroke="#191970" points="110.1095,-512.6872 118.8139,-506.6469 108.2426,-505.9408 110.1095,-512.6872"/>
</g>
<!-- Node157 -->
<g id="node28" class="node">
<title>Node157</title>
<g id="a_node28"><a xlink:href="cvode__driver_8f.html#ae9b38c7eb396f622d998ac1b105a6600" target="_top" xlink:title="cv_setsize">
<polygon fill="#ffffff" stroke="#000000" points="106,-456.5 106,-475.5 170,-475.5 170,-456.5 106,-456.5"/>
<text text-anchor="middle" x="138" y="-463.5" font-family="Helvetica,sans-Serif" font-size="10.00" fill="#000000">cv_setsize</text>
</a>
</g>
</g>
<!-- Node130&#45;&gt;Node157 -->
<g id="edge27" class="edge">
<title>Node130&#45;&gt;Node157</title>
<path fill="none" stroke="#191970" d="M26.1744,-722.2969C31.3314,-681.1575 53.1828,-521.5748 86,-485 89.043,-481.6086 92.7421,-478.8217 96.7501,-476.5317"/>
<polygon fill="#191970" stroke="#191970" points="98.3005,-479.6706 105.8826,-472.2705 95.3406,-473.3271 98.3005,-479.6706"/>
</g>
<!-- Node158 -->
<g id="node29" class="node">
<title>Node158</title>
<g id="a_node29"><a xlink:href="group__zero.html#gae8e951758ca4752cd88bc9c5330c9ebe" target="_top" xlink:title="usrdat3">
<polygon fill="#ffffff" stroke="#000000" points="113.5,-418.5 113.5,-437.5 162.5,-437.5 162.5,-418.5 113.5,-418.5"/>
<text text-anchor="middle" x="138" y="-425.5" font-family="Helvetica,sans-Serif" font-size="10.00" fill="#000000">usrdat3</text>
</a>
</g>
</g>
<!-- Node130&#45;&gt;Node158 -->
<g id="edge28" class="edge">
<title>Node130&#45;&gt;Node158</title>
<path fill="none" stroke="#191970" d="M25.8238,-722.3645C29.8333,-677.5598 48.6504,-489.9586 86,-447 90.6608,-441.6393 96.9644,-437.7902 103.5739,-435.0268"/>
<polygon fill="#191970" stroke="#191970" points="104.9842,-438.244 113.3207,-431.7053 102.7262,-431.6181 104.9842,-438.244"/>
</g>
<!-- Node159 -->
<g id="node30" class="node">
<title>Node159</title>
<g id="a_node30"><a xlink:href="ic_8f.html#acaefa33e86633e4a7a4b28347d4620d1" target="_top" xlink:title="setics">
<polygon fill="#ffffff" stroke="#000000" points="116.5,-380.5 116.5,-399.5 159.5,-399.5 159.5,-380.5 116.5,-380.5"/>
<text text-anchor="middle" x="138" y="-387.5" font-family="Helvetica,sans-Serif" font-size="10.00" fill="#000000">setics</text>
</a>
</g>
</g>
<!-- Node130&#45;&gt;Node159 -->
<g id="edge29" class="edge">
<title>Node130&#45;&gt;Node159</title>
<path fill="none" stroke="#191970" d="M25.5578,-722.4057C28.5437,-674.1554 44.0963,-458.3909 86,-409 91.334,-402.713 98.9319,-398.5059 106.6776,-395.6909"/>
<polygon fill="#191970" stroke="#191970" points="107.8091,-399.0063 116.4087,-392.8179 105.8269,-392.2928 107.8091,-399.0063"/>
</g>
<!-- Node160 -->
<g id="node31" class="node">
<title>Node160</title>
<g id="a_node31"><a xlink:href="subs1_8f.html#af114fff998975a6e77422a65106222ca" target="_top" xlink:title="setprop">
<polygon fill="#ffffff" stroke="#000000" points="113.5,-342.5 113.5,-361.5 162.5,-361.5 162.5,-342.5 113.5,-342.5"/>
<text text-anchor="middle" x="138" y="-349.5" font-family="Helvetica,sans-Serif" font-size="10.00" fill="#000000">setprop</text>
</a>
</g>
</g>
<!-- Node130&#45;&gt;Node160 -->
<g id="edge30" class="edge">
<title>Node130&#45;&gt;Node160</title>
<path fill="none" stroke="#191970" d="M25.3526,-722.3303C27.4231,-670.6008 39.5547,-426.8252 86,-371 90.5845,-365.4896 96.911,-361.5774 103.5755,-358.7997"/>
<polygon fill="#191970" stroke="#191970" points="105.0563,-361.9943 113.418,-355.488 102.8239,-355.3598 105.0563,-361.9943"/>
</g>
<!-- Node161 -->
<g id="node32" class="node">
<title>Node161</title>
<g id="a_node32"><a xlink:href="multimesh_8f.html#ab824f6e230e0482379512f8c4bb2b459" target="_top" xlink:title="neknek_exchange">
<polygon fill="#ffffff" stroke="#000000" points="90.5,-304.5 90.5,-323.5 185.5,-323.5 185.5,-304.5 90.5,-304.5"/>
<text text-anchor="middle" x="138" y="-311.5" font-family="Helvetica,sans-Serif" font-size="10.00" fill="#000000">neknek_exchange</text>
</a>
</g>
</g>
<!-- Node130&#45;&gt;Node161 -->
<g id="edge31" class="edge">
<title>Node130&#45;&gt;Node161</title>
<path fill="none" stroke="#191970" d="M25.18,-722.4185C26.3912,-667.7341 34.9465,-395.3523 86,-333 86.9895,-331.7915 88.0629,-330.6599 89.2055,-329.6003"/>
<polygon fill="#191970" stroke="#191970" points="91.4985,-332.2635 97.5969,-323.5998 87.4267,-326.5695 91.4985,-332.2635"/>
</g>
<!-- Node162 -->
<g id="node33" class="node">
<title>Node162</title>
<g id="a_node33"><a xlink:href="multimesh_8f.html#a97c55697114eaad3acd14c0b1d8ca4a4" target="_top" xlink:title="chk_outflow">
<polygon fill="#ffffff" stroke="#000000" points="103.5,-266.5 103.5,-285.5 172.5,-285.5 172.5,-266.5 103.5,-266.5"/>
<text text-anchor="middle" x="138" y="-273.5" font-family="Helvetica,sans-Serif" font-size="10.00" fill="#000000">chk_outflow</text>
</a>
</g>
</g>
<!-- Node130&#45;&gt;Node162 -->
<g id="edge32" class="edge">
<title>Node130&#45;&gt;Node162</title>
<path fill="none" stroke="#191970" d="M25.7716,-722.1089C30.6658,-660.3832 58.0769,-329.5592 86,-295 88.3747,-292.0609 91.2463,-289.5765 94.4063,-287.4763"/>
<polygon fill="#191970" stroke="#191970" points="96.1013,-290.5392 103.3009,-282.7664 92.8255,-284.353 96.1013,-290.5392"/>
</g>
<!-- Node163 -->
<g id="node34" class="node">
<title>Node163</title>
<g id="a_node34"><a xlink:href="group__zero.html#gaab7e65383186bbbe5e8ee746f763b233" target="_top" xlink:title="userchk">
<polygon fill="#ffffff" stroke="#000000" points="112.5,-228.5 112.5,-247.5 163.5,-247.5 163.5,-228.5 112.5,-228.5"/>
<text text-anchor="middle" x="138" y="-235.5" font-family="Helvetica,sans-Serif" font-size="10.00" fill="#000000">userchk</text>
</a>
</g>
</g>
<!-- Node130&#45;&gt;Node163 -->
<g id="edge33" class="edge">
<title>Node130&#45;&gt;Node163</title>
<path fill="none" stroke="#191970" d="M25.6566,-722.1027C30.0366,-657.2815 55.7699,-294.8372 86,-257 90.3534,-251.5511 96.4166,-247.6647 102.8707,-244.8928"/>
<polygon fill="#191970" stroke="#191970" points="104.1472,-248.1547 112.4527,-241.5767 101.8579,-241.5396 104.1472,-248.1547"/>
</g>
<!-- Node164 -->
<g id="node35" class="node">
<title>Node164</title>
<g id="a_node35"><a xlink:href="cvode__driver_8f.html#a1d463d9ff23f47fea6f30a495f27c86a" target="_top" xlink:title="cv_init">
<polygon fill="#ffffff" stroke="#000000" points="115.5,-190.5 115.5,-209.5 160.5,-209.5 160.5,-190.5 115.5,-190.5"/>
<text text-anchor="middle" x="138" y="-197.5" font-family="Helvetica,sans-Serif" font-size="10.00" fill="#000000">cv_init</text>
</a>
</g>
</g>
<!-- Node130&#45;&gt;Node164 -->
<g id="edge34" class="edge">
<title>Node130&#45;&gt;Node164</title>
<path fill="none" stroke="#191970" d="M25.5527,-722.1969C29.4379,-654.6886 53.4417,-260.145 86,-219 90.9349,-212.7636 98.112,-208.5736 105.5664,-205.7588"/>
<polygon fill="#191970" stroke="#191970" points="106.8033,-209.0413 115.3603,-202.7941 104.7751,-202.3416 106.8033,-209.0413"/>
</g>
<!-- Node165 -->
<g id="node36" class="node">
<title>Node165</title>
<g id="a_node36"><a xlink:href="drive2_8f.html#ab79ec3c35ce2079b236a435feee313c2" target="_top" xlink:title="comment">
<polygon fill="#ffffff" stroke="#000000" points="109.5,-152.5 109.5,-171.5 166.5,-171.5 166.5,-152.5 109.5,-152.5"/>
<text text-anchor="middle" x="138" y="-159.5" font-family="Helvetica,sans-Serif" font-size="10.00" fill="#000000">comment</text>
</a>
</g>
</g>
<!-- Node130&#45;&gt;Node165 -->
<g id="edge35" class="edge">
<title>Node130&#45;&gt;Node165</title>
<path fill="none" stroke="#191970" d="M25.4594,-722.383C28.8704,-652.6071 51.0929,-225.4821 86,-181 89.6872,-176.3014 94.6483,-172.7643 100.0476,-170.1017"/>
<polygon fill="#191970" stroke="#191970" points="101.3928,-173.3335 109.4002,-166.3957 98.8141,-166.8258 101.3928,-173.3335"/>
</g>
<!-- Node166 -->
<g id="node37" class="node">
<title>Node166</title>
<g id="a_node37"><a xlink:href="ssolv_8f.html#a1c8c4f9d75f6f20e10420e5590f88198" target="_top" xlink:title="sstest">
<polygon fill="#ffffff" stroke="#000000" points="116,-114.5 116,-133.5 160,-133.5 160,-114.5 116,-114.5"/>
<text text-anchor="middle" x="138" y="-121.5" font-family="Helvetica,sans-Serif" font-size="10.00" fill="#000000">sstest</text>
</a>
</g>
</g>
<!-- Node130&#45;&gt;Node166 -->
<g id="edge36" class="edge">
<title>Node130&#45;&gt;Node166</title>
<path fill="none" stroke="#191970" d="M25.3953,-722.1925C28.421,-649.0918 48.8027,-190.7465 86,-143 91.0255,-136.5492 98.454,-132.2876 106.1332,-129.4725"/>
<polygon fill="#191970" stroke="#191970" points="107.2234,-132.8002 115.8322,-126.6245 105.2512,-126.0838 107.2234,-132.8002"/>
</g>
<!-- Node167 -->
<g id="node38" class="node">
<title>Node167</title>
<g id="a_node38"><a xlink:href="drive2_8f.html#ad7dcf95029f223c6def3ab96e6285330" target="_top" xlink:title="dofcnt">
<polygon fill="#ffffff" stroke="#000000" points="116,-76.5 116,-95.5 160,-95.5 160,-76.5 116,-76.5"/>
<text text-anchor="middle" x="138" y="-83.5" font-family="Helvetica,sans-Serif" font-size="10.00" fill="#000000">dofcnt</text>
</a>
</g>
</g>
<!-- Node130&#45;&gt;Node167 -->
<g id="edge37" class="edge">
<title>Node130&#45;&gt;Node167</title>
<path fill="none" stroke="#191970" d="M25.3355,-722.0516C27.9874,-645.831 46.5019,-156.0261 86,-105 91.0055,-98.5336 98.4272,-94.2668 106.1063,-91.4517"/>
<polygon fill="#191970" stroke="#191970" points="107.1977,-94.7791 115.8084,-88.606 105.2275,-88.0621 107.1977,-94.7791"/>
</g>
<!-- Node168 -->
<g id="node39" class="node">
<title>Node168</title>
<g id="a_node39"><a xlink:href="drive2_8f.html#a2560abf814ea78b9e6e566b7174e82e7" target="_top" xlink:title="time00">
<polygon fill="#ffffff" stroke="#000000" points="115,-38.5 115,-57.5 161,-57.5 161,-38.5 115,-38.5"/>
<text text-anchor="middle" x="138" y="-45.5" font-family="Helvetica,sans-Serif" font-size="10.00" fill="#000000">time00</text>
</a>
</g>
</g>
<!-- Node130&#45;&gt;Node168 -->
<g id="edge38" class="edge">
<title>Node130&#45;&gt;Node168</title>
<path fill="none" stroke="#191970" d="M25.2658,-722.454C27.4995,-645.0324 44.1023,-121.4352 86,-67 90.7559,-60.821 97.7195,-56.6501 105.014,-53.8352"/>
<polygon fill="#191970" stroke="#191970" points="106.4556,-57.0541 114.9899,-50.7759 104.4031,-50.3617 106.4556,-57.0541"/>
</g>
<!-- Node169 -->
<g id="node40" class="node">
<title>Node169</title>
<g id="a_node40"><a xlink:href="comm__mpi_8f.html#af434902df36175d2afdc00fbabc84b2c" target="_top" xlink:title="dnekclock_sync">
<polygon fill="#ffffff" stroke="#000000" points="94.5,-.5 94.5,-19.5 181.5,-19.5 181.5,-.5 94.5,-.5"/>
<text text-anchor="middle" x="138" y="-7.5" font-family="Helvetica,sans-Serif" font-size="10.00" fill="#000000">dnekclock_sync</text>
</a>
</g>
</g>
<!-- Node130&#45;&gt;Node169 -->
<g id="edge39" class="edge">
<title>Node130&#45;&gt;Node169</title>
<path fill="none" stroke="#191970" d="M25.2168,-722.4215C27.1061,-642.4126 41.7761,-86.7508 86,-29 86.9313,-27.7838 87.9482,-26.6454 89.0365,-25.5798"/>
<polygon fill="#191970" stroke="#191970" points="91.1877,-28.3415 97.1023,-19.5513 86.997,-22.7345 91.1877,-28.3415"/>
</g>
</g>
</svg>
