<?xml version="1.0" encoding="UTF-8" standalone="no"?>
<!DOCTYPE svg PUBLIC "-//W3C//DTD SVG 1.1//EN"
 "http://www.w3.org/Graphics/SVG/1.1/DTD/svg11.dtd">
<!-- Generated by graphviz version 2.40.1 (20161225.0304)
 -->
<!-- Title: fluid Pages: 1 -->
<svg width="340pt" height="902pt"
 viewBox="0.00 0.00 340.00 902.00" xmlns="http://www.w3.org/2000/svg" xmlns:xlink="http://www.w3.org/1999/xlink">
<g id="graph0" class="graph" transform="scale(1 1) rotate(0) translate(4 898)">
<title>fluid</title>
<polygon fill="#ffffff" stroke="transparent" points="-4,4 -4,-898 336,-898 336,4 -4,4"/>
<!-- Node0 -->
<g id="node1" class="node">
<title>Node0</title>
<polygon fill="#bfbfbf" stroke="#000000" points="0,-532.5 0,-551.5 35,-551.5 35,-532.5 0,-532.5"/>
<text text-anchor="middle" x="17.5" y="-539.5" font-family="Helvetica,sans-Serif" font-size="10.00" fill="#000000">fluid</text>
</g>
<!-- Node1 -->
<g id="node2" class="node">
<title>Node1</title>
<g id="a_node2"><a xlink:href="subs1_8f.html#a8f2e17fa9df4e1df865aa17b294f867c" target="_top" xlink:title="unorm">
<polygon fill="#ffffff" stroke="#000000" points="84.5,-703.5 84.5,-722.5 128.5,-722.5 128.5,-703.5 84.5,-703.5"/>
<text text-anchor="middle" x="106.5" y="-710.5" font-family="Helvetica,sans-Serif" font-size="10.00" fill="#000000">unorm</text>
</a>
</g>
</g>
<!-- Node0&#45;&gt;Node1 -->
<g id="edge1" class="edge">
<title>Node0&#45;&gt;Node1</title>
<path fill="none" stroke="#191970" d="M18.4863,-551.743C21.5886,-577.7911 33.3005,-650.0421 71,-694 72.479,-695.7245 74.1546,-697.3174 75.9531,-698.7843"/>
<polygon fill="#191970" stroke="#191970" points="74.1368,-701.7801 84.3959,-704.426 78.026,-695.9599 74.1368,-701.7801"/>
</g>
<!-- Node2 -->
<g id="node3" class="node">
<title>Node2</title>
<g id="a_node3"><a xlink:href="ssolv_8f.html#a2042097d2d5ef6c25e65f059e2c56756" target="_top" xlink:title="settolv">
<polygon fill="#ffffff" stroke="#000000" points="83.5,-665.5 83.5,-684.5 129.5,-684.5 129.5,-665.5 83.5,-665.5"/>
<text text-anchor="middle" x="106.5" y="-672.5" font-family="Helvetica,sans-Serif" font-size="10.00" fill="#000000">settolv</text>
</a>
</g>
</g>
<!-- Node0&#45;&gt;Node2 -->
<g id="edge2" class="edge">
<title>Node0&#45;&gt;Node2</title>
<path fill="none" stroke="#191970" d="M19.8223,-551.7439C25.3375,-573.0586 41.0561,-624.4371 71,-656 72.1908,-657.2552 73.4831,-658.4452 74.8463,-659.571"/>
<polygon fill="#191970" stroke="#191970" points="72.9898,-662.542 83.2134,-665.3223 76.955,-656.7734 72.9898,-662.542"/>
</g>
<!-- Node3 -->
<g id="node4" class="node">
<title>Node3</title>
<g id="a_node4"><a xlink:href="plan4_8f.html#a247fc105464de543a464773054eb509e" target="_top" xlink:title="plan4">
<polygon fill="#ffffff" stroke="#000000" points="86.5,-627.5 86.5,-646.5 126.5,-646.5 126.5,-627.5 86.5,-627.5"/>
<text text-anchor="middle" x="106.5" y="-634.5" font-family="Helvetica,sans-Serif" font-size="10.00" fill="#000000">plan4</text>
</a>
</g>
</g>
<!-- Node0&#45;&gt;Node3 -->
<g id="edge3" class="edge">
<title>Node0&#45;&gt;Node3</title>
<path fill="none" stroke="#191970" d="M23.2215,-551.5182C32.1857,-565.9294 50.6347,-593.6531 71,-613 74.1553,-615.9975 77.7223,-618.8783 81.3481,-621.5392"/>
<polygon fill="#191970" stroke="#191970" points="79.5224,-624.5312 89.7489,-627.3005 83.4814,-618.7583 79.5224,-624.5312"/>
</g>
<!-- Node4 -->
<g id="node5" class="node">
<title>Node4</title>
<g id="a_node5"><a xlink:href="navier4_8f.html#a43f20a275a318725bfdf9e8eaa0839fa" target="_top" xlink:title="chkptol">
<polygon fill="#ffffff" stroke="#000000" points="277,-874.5 277,-893.5 325,-893.5 325,-874.5 277,-874.5"/>
<text text-anchor="middle" x="301" y="-881.5" font-family="Helvetica,sans-Serif" font-size="10.00" fill="#000000">chkptol</text>
</a>
</g>
</g>
<!-- Node0&#45;&gt;Node4 -->
<g id="edge4" class="edge">
<title>Node0&#45;&gt;Node4</title>
<path fill="none" stroke="#191970" d="M29.9488,-551.5218C40.6009,-559.5024 56.4715,-571.0022 71,-580 101.428,-598.8447 116.8609,-592.5243 142,-618 228.8451,-706.0081 185.7629,-774.4924 270,-865 271.0483,-866.1263 272.178,-867.2104 273.3641,-868.25"/>
<polygon fill="#191970" stroke="#191970" points="271.6228,-871.3153 281.7451,-874.4441 275.7833,-865.6858 271.6228,-871.3153"/>
</g>
<!-- Node5 -->
<g id="node6" class="node">
<title>Node5</title>
<g id="a_node6"><a xlink:href="multimesh_8f.html#a282d987d75bd8a426ecf0d9e752cd2df" target="_top" xlink:title="vol_flow_ms">
<polygon fill="#ffffff" stroke="#000000" points="71,-551.5 71,-570.5 142,-570.5 142,-551.5 71,-551.5"/>
<text text-anchor="middle" x="106.5" y="-558.5" font-family="Helvetica,sans-Serif" font-size="10.00" fill="#000000">vol_flow_ms</text>
</a>
</g>
</g>
<!-- Node0&#45;&gt;Node5 -->
<g id="edge5" class="edge">
<title>Node0&#45;&gt;Node5</title>
<path fill="none" stroke="#191970" d="M35.0835,-545.7538C42.5985,-547.3581 51.7538,-549.3126 60.9682,-551.2797"/>
<polygon fill="#191970" stroke="#191970" points="60.4048,-554.7382 70.9151,-553.4032 61.8663,-547.8925 60.4048,-554.7382"/>
</g>
<!-- Node6 -->
<g id="node7" class="node">
<title>Node6</title>
<g id="a_node7"><a xlink:href="drive2_8f.html#ae46d95459d293cfb4656cbeb0e086f2a" target="_top" xlink:title="vol_flow">
<polygon fill="#ffffff" stroke="#000000" points="80,-513.5 80,-532.5 133,-532.5 133,-513.5 80,-513.5"/>
<text text-anchor="middle" x="106.5" y="-520.5" font-family="Helvetica,sans-Serif" font-size="10.00" fill="#000000">vol_flow</text>
</a>
</g>
</g>
<!-- Node0&#45;&gt;Node6 -->
<g id="edge6" class="edge">
<title>Node0&#45;&gt;Node6</title>
<path fill="none" stroke="#191970" d="M35.0835,-538.2462C45.057,-536.117 57.9198,-533.371 69.9754,-530.7974"/>
<polygon fill="#191970" stroke="#191970" points="70.7821,-534.2041 79.831,-528.6934 69.3206,-527.3584 70.7821,-534.2041"/>
</g>
<!-- Node7 -->
<g id="node8" class="node">
<title>Node7</title>
<g id="a_node8"><a xlink:href="plan4_8f.html#a7dc32896a9c8fafb6bcb0103e7507909" target="_top" xlink:title="printdiverr">
<polygon fill="#ffffff" stroke="#000000" points="77,-475.5 77,-494.5 136,-494.5 136,-475.5 77,-475.5"/>
<text text-anchor="middle" x="106.5" y="-482.5" font-family="Helvetica,sans-Serif" font-size="10.00" fill="#000000">printdiverr</text>
</a>
</g>
</g>
<!-- Node0&#45;&gt;Node7 -->
<g id="edge7" class="edge">
<title>Node0&#45;&gt;Node7</title>
<path fill="none" stroke="#191970" d="M29.9488,-532.4782C40.6009,-524.4976 56.4715,-512.9978 71,-504 73.4515,-502.4817 76.0346,-500.9595 78.6434,-499.4739"/>
<polygon fill="#191970" stroke="#191970" points="80.3838,-502.5111 87.4574,-494.6235 77.0089,-496.3784 80.3838,-502.5111"/>
</g>
<!-- Node8 -->
<g id="node9" class="node">
<title>Node8</title>
<g id="a_node9"><a xlink:href="plan5_8f.html#ae6f47947bd1a89d608ae3b90ac8f433d" target="_top" xlink:title="plan5">
<polygon fill="#ffffff" stroke="#000000" points="86.5,-437.5 86.5,-456.5 126.5,-456.5 126.5,-437.5 86.5,-437.5"/>
<text text-anchor="middle" x="106.5" y="-444.5" font-family="Helvetica,sans-Serif" font-size="10.00" fill="#000000">plan5</text>
</a>
</g>
</g>
<!-- Node0&#45;&gt;Node8 -->
<g id="edge8" class="edge">
<title>Node0&#45;&gt;Node8</title>
<path fill="none" stroke="#191970" d="M22.5391,-532.0155C30.8551,-516.3292 48.7658,-485.6756 71,-466 72.9697,-464.257 75.1272,-462.6159 77.3748,-461.0845"/>
<polygon fill="#191970" stroke="#191970" points="79.5104,-463.8848 86.2832,-455.7374 75.9079,-457.8829 79.5104,-463.8848"/>
</g>
<!-- Node9 -->
<g id="node10" class="node">
<title>Node9</title>
<g id="a_node10"><a xlink:href="group__core.html#ga142f9186a662d3de60f09bb0ee26782d" target="_top" xlink:title="Compute pressure and velocity using consistent approximation spaces. Operator splitting technique...">
<polygon fill="#ffffff" stroke="#000000" points="86.5,-190.5 86.5,-209.5 126.5,-209.5 126.5,-190.5 86.5,-190.5"/>
<text text-anchor="middle" x="106.5" y="-197.5" font-family="Helvetica,sans-Serif" font-size="10.00" fill="#000000">plan3</text>
</a>
</g>
</g>
<!-- Node0&#45;&gt;Node9 -->
<g id="edge9" class="edge">
<title>Node0&#45;&gt;Node9</title>
<path fill="none" stroke="#191970" d="M19.9733,-532.496C32.0236,-486.1901 84.6812,-283.843 101.3919,-219.6291"/>
<polygon fill="#191970" stroke="#191970" points="104.8652,-220.1793 103.9965,-209.6201 98.0908,-218.4163 104.8652,-220.1793"/>
</g>
<!-- Node39 -->
<g id="node40" class="node">
<title>Node39</title>
<g id="a_node40"><a xlink:href="navier1_8f.html#a23e6343990072aa1a6b17109ccc7ba2b" target="_top" xlink:title="plan1">
<polygon fill="#ffffff" stroke="#000000" points="86.5,-152.5 86.5,-171.5 126.5,-171.5 126.5,-152.5 86.5,-152.5"/>
<text text-anchor="middle" x="106.5" y="-159.5" font-family="Helvetica,sans-Serif" font-size="10.00" fill="#000000">plan1</text>
</a>
</g>
</g>
<!-- Node0&#45;&gt;Node39 -->
<g id="edge41" class="edge">
<title>Node0&#45;&gt;Node39</title>
<path fill="none" stroke="#191970" d="M17.7772,-532.447C19.4262,-481.3251 29.3392,-240.1964 71,-181 72.7727,-178.4811 74.9869,-176.2665 77.438,-174.3259"/>
<polygon fill="#191970" stroke="#191970" points="79.7571,-177.0043 86.3874,-168.7405 76.0509,-171.066 79.7571,-177.0043"/>
</g>
<!-- Node10 -->
<g id="node11" class="node">
<title>Node10</title>
<g id="a_node11"><a xlink:href="group__core.html#ga83189b3d1938d87f00ace2e7e05d9e4c" target="_top" xlink:title="Compute and add. ">
<polygon fill="#ffffff" stroke="#000000" points="184,-209.5 184,-228.5 228,-228.5 228,-209.5 184,-209.5"/>
<text text-anchor="middle" x="206" y="-216.5" font-family="Helvetica,sans-Serif" font-size="10.00" fill="#000000">makef</text>
</a>
</g>
</g>
<!-- Node9&#45;&gt;Node10 -->
<g id="edge10" class="edge">
<title>Node9&#45;&gt;Node10</title>
<path fill="none" stroke="#191970" d="M126.6353,-203.8449C140.1077,-206.4175 158.1356,-209.8601 173.6044,-212.8139"/>
<polygon fill="#191970" stroke="#191970" points="173.3383,-216.3263 183.8173,-214.7641 174.6513,-209.4505 173.3383,-216.3263"/>
</g>
<!-- Node20 -->
<g id="node21" class="node">
<title>Node20</title>
<g id="a_node21"><a xlink:href="subs1_8f.html#ae2376b70f309c6118b4e43df9cbe66b1" target="_top" xlink:title="sethlm">
<polygon fill="#ffffff" stroke="#000000" points="183,-171.5 183,-190.5 229,-190.5 229,-171.5 183,-171.5"/>
<text text-anchor="middle" x="206" y="-178.5" font-family="Helvetica,sans-Serif" font-size="10.00" fill="#000000">sethlm</text>
</a>
</g>
</g>
<!-- Node9&#45;&gt;Node20 -->
<g id="edge20" class="edge">
<title>Node9&#45;&gt;Node20</title>
<path fill="none" stroke="#191970" d="M126.6353,-196.1551C139.8308,-193.6353 157.3967,-190.281 172.6477,-187.3688"/>
<polygon fill="#191970" stroke="#191970" points="173.5881,-190.7525 182.7541,-185.4389 172.2751,-183.8768 173.5881,-190.7525"/>
</g>
<!-- Node21 -->
<g id="node22" class="node">
<title>Node21</title>
<g id="a_node22"><a xlink:href="planx_8f.html#a02873cc7b2b98973667aa8cb9f2cbadb" target="_top" xlink:title="cresvif">
<polygon fill="#ffffff" stroke="#000000" points="183,-133.5 183,-152.5 229,-152.5 229,-133.5 183,-133.5"/>
<text text-anchor="middle" x="206" y="-140.5" font-family="Helvetica,sans-Serif" font-size="10.00" fill="#000000">cresvif</text>
</a>
</g>
</g>
<!-- Node9&#45;&gt;Node21 -->
<g id="edge21" class="edge">
<title>Node9&#45;&gt;Node21</title>
<path fill="none" stroke="#191970" d="M124.6444,-190.4882C130.2384,-187.5024 136.3986,-184.1598 142,-181 155.1435,-173.5856 169.6137,-165.028 181.4651,-157.9132"/>
<polygon fill="#191970" stroke="#191970" points="183.5765,-160.7271 190.3328,-152.566 179.9618,-154.7326 183.5765,-160.7271"/>
</g>
<!-- Node22 -->
<g id="node23" class="node">
<title>Node22</title>
<g id="a_node23"><a xlink:href="induct_8f.html#a1a8a16f24236d6e6f08fe4d60cb29d01" target="_top" xlink:title="ophinv">
<polygon fill="#ffffff" stroke="#000000" points="183.5,-95.5 183.5,-114.5 228.5,-114.5 228.5,-95.5 183.5,-95.5"/>
<text text-anchor="middle" x="206" y="-102.5" font-family="Helvetica,sans-Serif" font-size="10.00" fill="#000000">ophinv</text>
</a>
</g>
</g>
<!-- Node9&#45;&gt;Node22 -->
<g id="edge22" class="edge">
<title>Node9&#45;&gt;Node22</title>
<path fill="none" stroke="#191970" d="M126.8506,-191.41C132.1486,-188.5835 137.599,-185.0954 142,-181 163.9348,-160.5882 157.1642,-145.5325 178,-124 179.0468,-122.9182 180.1646,-121.8626 181.3287,-120.8388"/>
<polygon fill="#191970" stroke="#191970" points="183.6362,-123.4793 189.4206,-114.6028 179.3633,-117.9347 183.6362,-123.4793"/>
</g>
<!-- Node23 -->
<g id="node24" class="node">
<title>Node23</title>
<g id="a_node24"><a xlink:href="navier1_8f.html#ad1bbe02eb4b6eb1d16f7612e1947dac5" target="_top" xlink:title="opadd2">
<polygon fill="#ffffff" stroke="#000000" points="182,-57.5 182,-76.5 230,-76.5 230,-57.5 182,-57.5"/>
<text text-anchor="middle" x="206" y="-64.5" font-family="Helvetica,sans-Serif" font-size="10.00" fill="#000000">opadd2</text>
</a>
</g>
</g>
<!-- Node9&#45;&gt;Node23 -->
<g id="edge23" class="edge">
<title>Node9&#45;&gt;Node23</title>
<path fill="none" stroke="#191970" d="M126.6844,-192.356C132.2274,-189.4781 137.8478,-185.7266 142,-181 171.7999,-147.0783 150.0174,-121.4357 178,-86 178.7987,-84.9886 179.6661,-84.011 180.5846,-83.0688"/>
<polygon fill="#191970" stroke="#191970" points="182.922,-85.6765 188.3329,-76.5675 178.4226,-80.3141 182.922,-85.6765"/>
</g>
<!-- Node24 -->
<g id="node25" class="node">
<title>Node24</title>
<g id="a_node25"><a xlink:href="group__core.html#gaeb2c6d4ae2c98143118acce2419c034d" target="_top" xlink:title="Project U onto the closest incompressible field. ">
<polygon fill="#ffffff" stroke="#000000" points="178,-551.5 178,-570.5 234,-570.5 234,-551.5 178,-551.5"/>
<text text-anchor="middle" x="206" y="-558.5" font-family="Helvetica,sans-Serif" font-size="10.00" fill="#000000">incomprn</text>
</a>
</g>
</g>
<!-- Node9&#45;&gt;Node24 -->
<g id="edge24" class="edge">
<title>Node9&#45;&gt;Node24</title>
<path fill="none" stroke="#191970" d="M109.1614,-209.6559C122.5125,-258.0957 182.2765,-474.9277 200.625,-541.4987"/>
<polygon fill="#191970" stroke="#191970" points="197.3452,-542.7715 203.3766,-551.482 204.0936,-540.9115 197.3452,-542.7715"/>
</g>
<!-- Node11 -->
<g id="node12" class="node">
<title>Node11</title>
<g id="a_node12"><a xlink:href="comm__mpi_8f.html#af06ec29f06aac3f8809e19de2a7e8946" target="_top" xlink:title="dnekclock">
<polygon fill="#ffffff" stroke="#000000" points="270.5,-304.5 270.5,-323.5 331.5,-323.5 331.5,-304.5 270.5,-304.5"/>
<text text-anchor="middle" x="301" y="-311.5" font-family="Helvetica,sans-Serif" font-size="10.00" fill="#000000">dnekclock</text>
</a>
</g>
</g>
<!-- Node10&#45;&gt;Node11 -->
<g id="edge11" class="edge">
<title>Node10&#45;&gt;Node11</title>
<path fill="none" stroke="#191970" d="M212.6298,-228.7419C223.4026,-244.0957 245.9379,-274.3021 270,-295 271.5074,-296.2967 273.1133,-297.5619 274.7704,-298.7838"/>
<polygon fill="#191970" stroke="#191970" points="273.0108,-301.8178 283.2665,-304.4772 276.9076,-296.0028 273.0108,-301.8178"/>
</g>
<!-- Node12 -->
<g id="node13" class="node">
<title>Node12</title>
<g id="a_node13"><a xlink:href="navier1_8f.html#a04edbb4ba3cfada4513a76a4e65a5561" target="_top" xlink:title="makeuf">
<polygon fill="#ffffff" stroke="#000000" points="276.5,-228.5 276.5,-247.5 325.5,-247.5 325.5,-228.5 276.5,-228.5"/>
<text text-anchor="middle" x="301" y="-235.5" font-family="Helvetica,sans-Serif" font-size="10.00" fill="#000000">makeuf</text>
</a>
</g>
</g>
<!-- Node10&#45;&gt;Node12 -->
<g id="edge12" class="edge">
<title>Node10&#45;&gt;Node12</title>
<path fill="none" stroke="#191970" d="M228.0337,-223.4067C239.4518,-225.6904 253.6573,-228.5315 266.4919,-231.0984"/>
<polygon fill="#191970" stroke="#191970" points="265.9193,-234.5531 276.4116,-233.0823 267.2922,-227.689 265.9193,-234.5531"/>
</g>
<!-- Node13 -->
<g id="node14" class="node">
<title>Node13</title>
<g id="a_node14"><a xlink:href="hpf_8f.html#aa74c82c5e339de802f489470b23422a0" target="_top" xlink:title="make_hpf">
<polygon fill="#ffffff" stroke="#000000" points="271.5,-190.5 271.5,-209.5 330.5,-209.5 330.5,-190.5 271.5,-190.5"/>
<text text-anchor="middle" x="301" y="-197.5" font-family="Helvetica,sans-Serif" font-size="10.00" fill="#000000">make_hpf</text>
</a>
</g>
</g>
<!-- Node10&#45;&gt;Node13 -->
<g id="edge13" class="edge">
<title>Node10&#45;&gt;Node13</title>
<path fill="none" stroke="#191970" d="M228.0337,-214.5933C237.8537,-212.6293 249.7354,-210.2529 261.0335,-207.9933"/>
<polygon fill="#191970" stroke="#191970" points="262.0501,-211.3594 271.1695,-205.9661 260.6773,-204.4953 262.0501,-211.3594"/>
</g>
<!-- Node14 -->
<g id="node15" class="node">
<title>Node14</title>
<g id="a_node15"><a xlink:href="navier1_8f.html#ae6ed8f0409f034c9d0dff152a3445d90" target="_top" xlink:title="makevis">
<polygon fill="#ffffff" stroke="#000000" points="274.5,-152.5 274.5,-171.5 327.5,-171.5 327.5,-152.5 274.5,-152.5"/>
<text text-anchor="middle" x="301" y="-159.5" font-family="Helvetica,sans-Serif" font-size="10.00" fill="#000000">makevis</text>
</a>
</g>
</g>
<!-- Node10&#45;&gt;Node14 -->
<g id="edge14" class="edge">
<title>Node10&#45;&gt;Node14</title>
<path fill="none" stroke="#191970" d="M222.1155,-209.3307C236.9445,-200.4333 259.1603,-187.1038 276.2411,-176.8554"/>
<polygon fill="#191970" stroke="#191970" points="278.3484,-179.6727 285.1225,-171.5265 274.7468,-173.6702 278.3484,-179.6727"/>
</g>
<!-- Node15 -->
<g id="node16" class="node">
<title>Node15</title>
<g id="a_node16"><a xlink:href="navier1_8f.html#a344ec731e4a89d0f136c91bc1963e8d5" target="_top" xlink:title="advab">
<polygon fill="#ffffff" stroke="#000000" points="279.5,-114.5 279.5,-133.5 322.5,-133.5 322.5,-114.5 279.5,-114.5"/>
<text text-anchor="middle" x="301" y="-121.5" font-family="Helvetica,sans-Serif" font-size="10.00" fill="#000000">advab</text>
</a>
</g>
</g>
<!-- Node10&#45;&gt;Node15 -->
<g id="edge15" class="edge">
<title>Node10&#45;&gt;Node15</title>
<path fill="none" stroke="#191970" d="M222.5794,-209.3972C226.5736,-206.6553 230.6502,-203.4618 234,-200 254.8358,-178.4675 248.6709,-164.0439 270,-143 271.2357,-141.7808 272.5636,-140.6043 273.9498,-139.4754"/>
<polygon fill="#191970" stroke="#191970" points="276.1539,-142.2032 282.2872,-133.5641 272.1052,-136.4928 276.1539,-142.2032"/>
</g>
<!-- Node16 -->
<g id="node17" class="node">
<title>Node16</title>
<g id="a_node17"><a xlink:href="mvmesh_8f.html#a1b9c194ae1f554f335f3d6c21eacded3" target="_top" xlink:title="admeshv">
<polygon fill="#ffffff" stroke="#000000" points="273,-76.5 273,-95.5 329,-95.5 329,-76.5 273,-76.5"/>
<text text-anchor="middle" x="301" y="-83.5" font-family="Helvetica,sans-Serif" font-size="10.00" fill="#000000">admeshv</text>
</a>
</g>
</g>
<!-- Node10&#45;&gt;Node16 -->
<g id="edge16" class="edge">
<title>Node10&#45;&gt;Node16</title>
<path fill="none" stroke="#191970" d="M223.6671,-209.4325C227.4516,-206.7647 231.1602,-203.5961 234,-200 261.9826,-164.5643 241.2038,-139.7778 270,-105 270.8379,-103.9881 271.7444,-103.0151 272.7029,-102.0815"/>
<polygon fill="#191970" stroke="#191970" points="275.1083,-104.6418 280.7905,-95.6996 270.7721,-99.1466 275.1083,-104.6418"/>
</g>
<!-- Node17 -->
<g id="node18" class="node">
<title>Node17</title>
<g id="a_node18"><a xlink:href="navier1_8f.html#ab907b0b4f57c160c86799b03de3cef19" target="_top" xlink:title="makeabf">
<polygon fill="#ffffff" stroke="#000000" points="274,-38.5 274,-57.5 328,-57.5 328,-38.5 274,-38.5"/>
<text text-anchor="middle" x="301" y="-45.5" font-family="Helvetica,sans-Serif" font-size="10.00" fill="#000000">makeabf</text>
</a>
</g>
</g>
<!-- Node10&#45;&gt;Node17 -->
<g id="edge17" class="edge">
<title>Node10&#45;&gt;Node17</title>
<path fill="none" stroke="#191970" d="M224.2172,-209.4208C227.8869,-206.7864 231.4078,-203.6351 234,-200 269.5551,-150.1406 233.2991,-116.0221 270,-67 270.681,-66.0904 271.4194,-65.2148 272.2039,-64.3729"/>
<polygon fill="#191970" stroke="#191970" points="274.7655,-66.7938 280.1985,-57.698 270.2791,-61.4204 274.7655,-66.7938"/>
</g>
<!-- Node18 -->
<g id="node19" class="node">
<title>Node18</title>
<g id="a_node19"><a xlink:href="navier1_8f.html#a0510a60155ebc71a3acda4b1e7e507e5" target="_top" xlink:title="makebdf">
<polygon fill="#ffffff" stroke="#000000" points="274,-.5 274,-19.5 328,-19.5 328,-.5 274,-.5"/>
<text text-anchor="middle" x="301" y="-7.5" font-family="Helvetica,sans-Serif" font-size="10.00" fill="#000000">makebdf</text>
</a>
</g>
</g>
<!-- Node10&#45;&gt;Node18 -->
<g id="edge18" class="edge">
<title>Node10&#45;&gt;Node18</title>
<path fill="none" stroke="#191970" d="M224.6607,-209.3184C228.216,-206.7202 231.5776,-203.6098 234,-200 277.2778,-135.5095 225.2395,-92.4704 270,-29 270.6548,-28.0714 271.3708,-27.1795 272.1362,-26.3237"/>
<polygon fill="#191970" stroke="#191970" points="274.7028,-28.7346 280.0366,-19.5803 270.1582,-23.4104 274.7028,-28.7346"/>
</g>
<!-- Node19 -->
<g id="node20" class="node">
<title>Node19</title>
<g id="a_node20"><a xlink:href="convect_8f.html#afc0b2ce765c4ad0f0ec6f2a62536bf57" target="_top" xlink:title="advchar">
<polygon fill="#ffffff" stroke="#000000" points="275.5,-266.5 275.5,-285.5 326.5,-285.5 326.5,-266.5 275.5,-266.5"/>
<text text-anchor="middle" x="301" y="-273.5" font-family="Helvetica,sans-Serif" font-size="10.00" fill="#000000">advchar</text>
</a>
</g>
</g>
<!-- Node10&#45;&gt;Node19 -->
<g id="edge19" class="edge">
<title>Node10&#45;&gt;Node19</title>
<path fill="none" stroke="#191970" d="M222.1155,-228.6693C236.9445,-237.5667 259.1603,-250.8962 276.2411,-261.1446"/>
<polygon fill="#191970" stroke="#191970" points="274.7468,-264.3298 285.1225,-266.4735 278.3484,-258.3273 274.7468,-264.3298"/>
</g>
<!-- Node24&#45;&gt;Node4 -->
<g id="edge40" class="edge">
<title>Node24&#45;&gt;Node4</title>
<path fill="none" stroke="#191970" d="M221.1322,-570.5984C226.0207,-574.4716 230.9585,-579.3661 234,-585 293.6039,-695.4074 201.8282,-759.6671 270,-865 270.6002,-865.9274 271.2632,-866.8168 271.9776,-867.669"/>
<polygon fill="#191970" stroke="#191970" points="269.693,-870.3212 279.488,-874.3596 274.3493,-865.0944 269.693,-870.3212"/>
</g>
<!-- Node24&#45;&gt;Node11 -->
<g id="edge25" class="edge">
<title>Node24&#45;&gt;Node11</title>
<path fill="none" stroke="#191970" d="M206.2769,-551.2288C207.7024,-517.4541 216.4477,-403.8407 270,-333 270.7922,-331.952 271.6606,-330.9488 272.5874,-329.9901"/>
<polygon fill="#191970" stroke="#191970" points="275.0041,-332.5357 280.5445,-323.505 270.5817,-327.1095 275.0041,-332.5357"/>
</g>
<!-- Node25 -->
<g id="node26" class="node">
<title>Node25</title>
<g id="a_node26"><a xlink:href="math_8f.html#af44de42b023a4a68cd98ea341204342d" target="_top" xlink:title="rzero">
<polygon fill="#ffffff" stroke="#000000" points="282,-456.5 282,-475.5 320,-475.5 320,-456.5 282,-456.5"/>
<text text-anchor="middle" x="301" y="-463.5" font-family="Helvetica,sans-Serif" font-size="10.00" fill="#000000">rzero</text>
</a>
</g>
</g>
<!-- Node24&#45;&gt;Node25 -->
<g id="edge26" class="edge">
<title>Node24&#45;&gt;Node25</title>
<path fill="none" stroke="#191970" d="M212.6298,-551.2581C223.4026,-535.9043 245.9379,-505.6979 270,-485 271.5074,-483.7033 273.1133,-482.4381 274.7704,-481.2162"/>
<polygon fill="#191970" stroke="#191970" points="276.9076,-483.9972 283.2665,-475.5228 273.0108,-478.1822 276.9076,-483.9972"/>
</g>
<!-- Node26 -->
<g id="node27" class="node">
<title>Node26</title>
<g id="a_node27"><a xlink:href="math_8f.html#a3b43508554f14bdea8e14473d7d0803c" target="_top" xlink:title="copy">
<polygon fill="#ffffff" stroke="#000000" points="282,-418.5 282,-437.5 320,-437.5 320,-418.5 282,-418.5"/>
<text text-anchor="middle" x="301" y="-425.5" font-family="Helvetica,sans-Serif" font-size="10.00" fill="#000000">copy</text>
</a>
</g>
</g>
<!-- Node24&#45;&gt;Node26 -->
<g id="edge27" class="edge">
<title>Node24&#45;&gt;Node26</title>
<path fill="none" stroke="#191970" d="M209.4474,-551.402C217.3795,-530.3783 238.6791,-479.544 270,-447 271.067,-445.8914 272.2118,-444.8216 273.4099,-443.7934"/>
<polygon fill="#191970" stroke="#191970" points="275.8236,-446.3645 281.8319,-437.638 271.6931,-440.713 275.8236,-446.3645"/>
</g>
<!-- Node27 -->
<g id="node28" class="node">
<title>Node27</title>
<g id="a_node28"><a xlink:href="math_8f.html#a0fcb0ff151fe3548d0d07961e8365efe" target="_top" xlink:title="invers2">
<polygon fill="#ffffff" stroke="#000000" points="277,-380.5 277,-399.5 325,-399.5 325,-380.5 277,-380.5"/>
<text text-anchor="middle" x="301" y="-387.5" font-family="Helvetica,sans-Serif" font-size="10.00" fill="#000000">invers2</text>
</a>
</g>
</g>
<!-- Node24&#45;&gt;Node27 -->
<g id="edge28" class="edge">
<title>Node24&#45;&gt;Node27</title>
<path fill="none" stroke="#191970" d="M207.8917,-551.3669C213.3703,-525.5918 231.3781,-453.9582 270,-409 270.9769,-407.8628 272.0394,-406.7731 273.1631,-405.7318"/>
<polygon fill="#191970" stroke="#191970" points="275.3963,-408.4301 281.2109,-399.5734 271.1423,-402.8711 275.3963,-408.4301"/>
</g>
<!-- Node28 -->
<g id="node29" class="node">
<title>Node28</title>
<g id="a_node29"><a xlink:href="navier1_8f.html#a58af49abaf1ee0cc07be356ad2721d90" target="_top" xlink:title="opdiv">
<polygon fill="#ffffff" stroke="#000000" points="281,-342.5 281,-361.5 321,-361.5 321,-342.5 281,-342.5"/>
<text text-anchor="middle" x="301" y="-349.5" font-family="Helvetica,sans-Serif" font-size="10.00" fill="#000000">opdiv</text>
</a>
</g>
</g>
<!-- Node24&#45;&gt;Node28 -->
<g id="edge29" class="edge">
<title>Node24&#45;&gt;Node28</title>
<path fill="none" stroke="#191970" d="M206.946,-551.205C210.2995,-521.1364 224.0077,-428.7049 270,-371 270.8188,-369.9726 271.7094,-368.9867 272.6547,-368.0423"/>
<polygon fill="#191970" stroke="#191970" points="275.0653,-370.5961 280.6879,-361.6162 270.6926,-365.1298 275.0653,-370.5961"/>
</g>
<!-- Node29 -->
<g id="node30" class="node">
<title>Node29</title>
<g id="a_node30"><a xlink:href="math_8f.html#ad2b51b68d370651f4f6d81952503e7be" target="_top" xlink:title="cmult">
<polygon fill="#ffffff" stroke="#000000" points="280.5,-836.5 280.5,-855.5 321.5,-855.5 321.5,-836.5 280.5,-836.5"/>
<text text-anchor="middle" x="301" y="-843.5" font-family="Helvetica,sans-Serif" font-size="10.00" fill="#000000">cmult</text>
</a>
</g>
</g>
<!-- Node24&#45;&gt;Node29 -->
<g id="edge30" class="edge">
<title>Node24&#45;&gt;Node29</title>
<path fill="none" stroke="#191970" d="M221.0702,-570.6323C225.9529,-574.5086 230.9029,-579.3965 234,-585 286.6015,-680.1697 210.0169,-736.3015 270,-827 270.827,-828.2505 271.7673,-829.4324 272.7929,-830.5479"/>
<polygon fill="#191970" stroke="#191970" points="270.5748,-833.2554 280.4993,-836.9642 275.0538,-827.8759 270.5748,-833.2554"/>
</g>
<!-- Node30 -->
<g id="node31" class="node">
<title>Node30</title>
<g id="a_node31"><a xlink:href="math_8f.html#a1c8c804ea900711911c4c33fe1f5b184" target="_top" xlink:title="add2col2">
<polygon fill="#ffffff" stroke="#000000" points="273,-798.5 273,-817.5 329,-817.5 329,-798.5 273,-798.5"/>
<text text-anchor="middle" x="301" y="-805.5" font-family="Helvetica,sans-Serif" font-size="10.00" fill="#000000">add2col2</text>
</a>
</g>
</g>
<!-- Node24&#45;&gt;Node30 -->
<g id="edge31" class="edge">
<title>Node24&#45;&gt;Node30</title>
<path fill="none" stroke="#191970" d="M220.9863,-570.6794C225.8611,-574.5602 230.8275,-579.4388 234,-585 279.6204,-664.9702 218.1814,-712.8995 270,-789 270.6395,-789.9392 271.3423,-790.8402 272.0964,-791.7038"/>
<polygon fill="#191970" stroke="#191970" points="270.0874,-794.5936 279.9415,-798.4855 274.6653,-789.298 270.0874,-794.5936"/>
</g>
<!-- Node31 -->
<g id="node32" class="node">
<title>Node31</title>
<g id="a_node32"><a xlink:href="navier1_8f.html#a4905d51f51b57bfec184a6b44f858bdb" target="_top" xlink:title="ortho">
<polygon fill="#ffffff" stroke="#000000" points="282,-760.5 282,-779.5 320,-779.5 320,-760.5 282,-760.5"/>
<text text-anchor="middle" x="301" y="-767.5" font-family="Helvetica,sans-Serif" font-size="10.00" fill="#000000">ortho</text>
</a>
</g>
</g>
<!-- Node24&#45;&gt;Node31 -->
<g id="edge32" class="edge">
<title>Node24&#45;&gt;Node31</title>
<path fill="none" stroke="#191970" d="M220.5749,-570.5173C225.5297,-574.4423 230.6544,-579.3916 234,-585 272.6752,-649.8335 226.3051,-689.4377 270,-751 271.1509,-752.6215 272.4879,-754.1316 273.9478,-755.5332"/>
<polygon fill="#191970" stroke="#191970" points="271.9028,-758.3752 281.9788,-761.6502 276.1443,-752.8066 271.9028,-758.3752"/>
</g>
<!-- Node32 -->
<g id="node33" class="node">
<title>Node32</title>
<g id="a_node33"><a xlink:href="induct_8f.html#a85f2bbdd91096e0df0353ebd6968b71d" target="_top" xlink:title="setrhsp">
<polygon fill="#ffffff" stroke="#000000" points="276.5,-722.5 276.5,-741.5 325.5,-741.5 325.5,-722.5 276.5,-722.5"/>
<text text-anchor="middle" x="301" y="-729.5" font-family="Helvetica,sans-Serif" font-size="10.00" fill="#000000">setrhsp</text>
</a>
</g>
</g>
<!-- Node24&#45;&gt;Node32 -->
<g id="edge33" class="edge">
<title>Node24&#45;&gt;Node32</title>
<path fill="none" stroke="#191970" d="M220.392,-570.6301C225.3272,-574.5674 230.486,-579.4955 234,-585 265.799,-634.8114 234.351,-665.8673 270,-713 270.7925,-714.0478 271.6611,-715.0508 272.588,-716.0094"/>
<polygon fill="#191970" stroke="#191970" points="270.5828,-718.8903 280.546,-722.494 275.0047,-713.4637 270.5828,-718.8903"/>
</g>
<!-- Node33 -->
<g id="node34" class="node">
<title>Node33</title>
<g id="a_node34"><a xlink:href="navier0_8f.html#aaba079db7e38db9800deef09526370ec" target="_top" xlink:title="esolver">
<polygon fill="#ffffff" stroke="#000000" points="277,-684.5 277,-703.5 325,-703.5 325,-684.5 277,-684.5"/>
<text text-anchor="middle" x="301" y="-691.5" font-family="Helvetica,sans-Serif" font-size="10.00" fill="#000000">esolver</text>
</a>
</g>
</g>
<!-- Node24&#45;&gt;Node33 -->
<g id="edge34" class="edge">
<title>Node24&#45;&gt;Node33</title>
<path fill="none" stroke="#191970" d="M219.7919,-570.6094C224.776,-574.6098 230.1239,-579.5859 234,-585 259.0787,-620.0294 242.2224,-642.0697 270,-675 270.9666,-676.1459 272.0207,-677.2428 273.1377,-678.2898"/>
<polygon fill="#191970" stroke="#191970" points="271.1033,-681.1406 281.162,-684.4682 275.3738,-675.5942 271.1033,-681.1406"/>
</g>
<!-- Node34 -->
<g id="node35" class="node">
<title>Node34</title>
<g id="a_node35"><a xlink:href="induct_8f.html#a92d19447dae1fa7af20c94dbf1c09992" target="_top" xlink:title="gensolnp">
<polygon fill="#ffffff" stroke="#000000" points="273,-646.5 273,-665.5 329,-665.5 329,-646.5 273,-646.5"/>
<text text-anchor="middle" x="301" y="-653.5" font-family="Helvetica,sans-Serif" font-size="10.00" fill="#000000">gensolnp</text>
</a>
</g>
</g>
<!-- Node24&#45;&gt;Node34 -->
<g id="edge35" class="edge">
<title>Node24&#45;&gt;Node34</title>
<path fill="none" stroke="#191970" d="M218.6111,-570.641C223.662,-574.7914 229.369,-579.8652 234,-585 252.8258,-605.8737 249.5782,-617.6849 270,-637 271.2612,-638.1928 272.6091,-639.3486 274.0106,-640.4616"/>
<polygon fill="#191970" stroke="#191970" points="272.1924,-643.4611 282.3923,-646.3271 276.2059,-637.7259 272.1924,-643.4611"/>
</g>
<!-- Node35 -->
<g id="node36" class="node">
<title>Node35</title>
<g id="a_node36"><a xlink:href="math_8f.html#a30b83d516b6ab162d3fafe73e03a3e92" target="_top" xlink:title="add2">
<polygon fill="#ffffff" stroke="#000000" points="282,-608.5 282,-627.5 320,-627.5 320,-608.5 282,-608.5"/>
<text text-anchor="middle" x="301" y="-615.5" font-family="Helvetica,sans-Serif" font-size="10.00" fill="#000000">add2</text>
</a>
</g>
</g>
<!-- Node24&#45;&gt;Node35 -->
<g id="edge36" class="edge">
<title>Node24&#45;&gt;Node35</title>
<path fill="none" stroke="#191970" d="M222.1155,-570.6693C236.9445,-579.5667 259.1603,-592.8962 276.2411,-603.1446"/>
<polygon fill="#191970" stroke="#191970" points="274.7468,-606.3298 285.1225,-608.4735 278.3484,-600.3273 274.7468,-606.3298"/>
</g>
<!-- Node36 -->
<g id="node37" class="node">
<title>Node36</title>
<g id="a_node37"><a xlink:href="navier1_8f.html#a0319e77dcb754cfe343f5e1e0a54f8dd" target="_top" xlink:title="opgradt">
<polygon fill="#ffffff" stroke="#000000" points="276.5,-570.5 276.5,-589.5 325.5,-589.5 325.5,-570.5 276.5,-570.5"/>
<text text-anchor="middle" x="301" y="-577.5" font-family="Helvetica,sans-Serif" font-size="10.00" fill="#000000">opgradt</text>
</a>
</g>
</g>
<!-- Node24&#45;&gt;Node36 -->
<g id="edge37" class="edge">
<title>Node24&#45;&gt;Node36</title>
<path fill="none" stroke="#191970" d="M234.2459,-566.6492C244.255,-568.651 255.637,-570.9274 266.1318,-573.0264"/>
<polygon fill="#191970" stroke="#191970" points="265.755,-576.5202 276.2472,-575.0494 267.1279,-569.6562 265.755,-576.5202"/>
</g>
<!-- Node37 -->
<g id="node38" class="node">
<title>Node37</title>
<g id="a_node38"><a xlink:href="navier1_8f.html#a4d7a006ce8ef086e842bc09f74169951" target="_top" xlink:title="opbinv">
<polygon fill="#ffffff" stroke="#000000" points="278.5,-532.5 278.5,-551.5 323.5,-551.5 323.5,-532.5 278.5,-532.5"/>
<text text-anchor="middle" x="301" y="-539.5" font-family="Helvetica,sans-Serif" font-size="10.00" fill="#000000">opbinv</text>
</a>
</g>
</g>
<!-- Node24&#45;&gt;Node37 -->
<g id="edge38" class="edge">
<title>Node24&#45;&gt;Node37</title>
<path fill="none" stroke="#191970" d="M234.2459,-555.3508C245.0497,-553.1901 257.4532,-550.7094 268.6139,-548.4772"/>
<polygon fill="#191970" stroke="#191970" points="269.3133,-551.9067 278.4327,-546.5135 267.9404,-545.0427 269.3133,-551.9067"/>
</g>
<!-- Node38 -->
<g id="node39" class="node">
<title>Node38</title>
<g id="a_node39"><a xlink:href="plan4_8f.html#a8cde16ca4292836a681d1021ada2dc28" target="_top" xlink:title="opadd2cm">
<polygon fill="#ffffff" stroke="#000000" points="270,-494.5 270,-513.5 332,-513.5 332,-494.5 270,-494.5"/>
<text text-anchor="middle" x="301" y="-501.5" font-family="Helvetica,sans-Serif" font-size="10.00" fill="#000000">opadd2cm</text>
</a>
</g>
</g>
<!-- Node24&#45;&gt;Node38 -->
<g id="edge39" class="edge">
<title>Node24&#45;&gt;Node38</title>
<path fill="none" stroke="#191970" d="M222.1155,-551.3307C236.9445,-542.4333 259.1603,-529.1038 276.2411,-518.8554"/>
<polygon fill="#191970" stroke="#191970" points="278.3484,-521.6727 285.1225,-513.5265 274.7468,-515.6702 278.3484,-521.6727"/>
</g>
</g>
</svg>
