<?xml version="1.0" encoding="UTF-8" standalone="no"?>
<!DOCTYPE svg PUBLIC "-//W3C//DTD SVG 1.1//EN"
 "http://www.w3.org/Graphics/SVG/1.1/DTD/svg11.dtd">
<!-- Generated by graphviz version 2.43.0 (0)
 -->
<!-- Title: pen_frcs_get Pages: 1 -->
<svg width="197pt" height="104pt"
 viewBox="0.00 0.00 197.00 104.00" xmlns="http://www.w3.org/2000/svg" xmlns:xlink="http://www.w3.org/1999/xlink">
<g id="graph0" class="graph" transform="scale(1 1) rotate(0) translate(4 100)">
<title>pen_frcs_get</title>
<polygon fill="white" stroke="transparent" points="-4,4 -4,-100 193,-100 193,4 -4,4"/>
<!-- Node1 -->
<g id="node1" class="node">
<title>Node1</title>
<g id="a_node1"><a xlink:title="Generate forcing along 1D line.">
<polygon fill="#bfbfbf" stroke="black" points="110,-38.5 110,-57.5 189,-57.5 189,-38.5 110,-38.5"/>
<text text-anchor="middle" x="149.5" y="-45.5" font-family="Helvetica,sans-Serif" font-size="10.00">pen_frcs_get</text>
</a>
</g>
</g>
<!-- Node2 -->
<g id="node2" class="node">
<title>Node2</title>
<g id="a_node2"><a xlink:href="group__penalty__mini.html#ga15121d5db02b3accc55625bb9893ddbe" target="_top" xlink:title="Initilise penalty module.">
<polygon fill="white" stroke="black" points="9,-76.5 9,-95.5 65,-95.5 65,-76.5 9,-76.5"/>
<text text-anchor="middle" x="37" y="-83.5" font-family="Helvetica,sans-Serif" font-size="10.00">pen_init</text>
</a>
</g>
</g>
<!-- Node1&#45;&gt;Node2 -->
<g id="edge1" class="edge">
<title>Node1&#45;&gt;Node2</title>
<path fill="none" stroke="midnightblue" d="M111.05,-60.88C95.99,-66.06 78.94,-71.92 65.11,-76.68"/>
<polygon fill="midnightblue" stroke="midnightblue" points="112.3,-64.15 120.62,-57.59 110.02,-57.53 112.3,-64.15"/>
</g>
<!-- Node3 -->
<g id="node3" class="node">
<title>Node3</title>
<g id="a_node3"><a xlink:href="group__penalty__mini.html#gab85fac3518f3c986938cf4f71a3eb61a" target="_top" xlink:title="Reset penalty.">
<polygon fill="white" stroke="black" points="4.5,-38.5 4.5,-57.5 69.5,-57.5 69.5,-38.5 4.5,-38.5"/>
<text text-anchor="middle" x="37" y="-45.5" font-family="Helvetica,sans-Serif" font-size="10.00">pen_reset</text>
</a>
</g>
</g>
<!-- Node1&#45;&gt;Node3 -->
<g id="edge2" class="edge">
<title>Node1&#45;&gt;Node3</title>
<path fill="none" stroke="midnightblue" d="M99.75,-48C89.49,-48 78.93,-48 69.51,-48"/>
<polygon fill="midnightblue" stroke="midnightblue" points="99.85,-51.5 109.85,-48 99.85,-44.5 99.85,-51.5"/>
</g>
<!-- Node4 -->
<g id="node4" class="node">
<title>Node4</title>
<g id="a_node4"><a xlink:href="group__penalty__mini.html#gaad698038b43804d17a718e007d0dd8a9" target="_top" xlink:title="Update penalty.">
<polygon fill="white" stroke="black" points="0,-0.5 0,-19.5 74,-19.5 74,-0.5 0,-0.5"/>
<text text-anchor="middle" x="37" y="-7.5" font-family="Helvetica,sans-Serif" font-size="10.00">pen_update</text>
</a>
</g>
</g>
<!-- Node1&#45;&gt;Node4 -->
<g id="edge3" class="edge">
<title>Node1&#45;&gt;Node4</title>
<path fill="none" stroke="midnightblue" d="M110.78,-35.03C96.06,-29.97 79.48,-24.27 65.87,-19.59"/>
<polygon fill="midnightblue" stroke="midnightblue" points="110.02,-38.47 120.62,-38.41 112.3,-31.85 110.02,-38.47"/>
</g>
</g>
</svg>
