<?xml version="1.0" encoding="UTF-8" standalone="no"?>
<!DOCTYPE svg PUBLIC "-//W3C//DTD SVG 1.1//EN"
 "http://www.w3.org/Graphics/SVG/1.1/DTD/svg11.dtd">
<!-- Generated by graphviz version 2.40.1 (20161225.0304)
 -->
<!-- Title: nek_init Pages: 1 -->
<svg width="198pt" height="1434pt"
 viewBox="0.00 0.00 198.00 1434.00" xmlns="http://www.w3.org/2000/svg" xmlns:xlink="http://www.w3.org/1999/xlink">
<g id="graph0" class="graph" transform="scale(1 1) rotate(0) translate(4 1430)">
<title>nek_init</title>
<polygon fill="#ffffff" stroke="transparent" points="-4,4 -4,-1430 194,-1430 194,4 -4,4"/>
<!-- Node128 -->
<g id="node1" class="node">
<title>Node128</title>
<polygon fill="#bfbfbf" stroke="#000000" points="0,-703.5 0,-722.5 50,-722.5 50,-703.5 0,-703.5"/>
<text text-anchor="middle" x="25" y="-710.5" font-family="Helvetica,sans-Serif" font-size="10.00" fill="#000000">nek_init</text>
</g>
<!-- Node129 -->
<g id="node2" class="node">
<title>Node129</title>
<g id="a_node2"><a xlink:href="multimesh_8f.html#a0b340eaa9352e5b5d12ff7d525b30c0a" target="_top" xlink:title="get_session_info">
<polygon fill="#ffffff" stroke="#000000" points="93,-1406.5 93,-1425.5 183,-1425.5 183,-1406.5 93,-1406.5"/>
<text text-anchor="middle" x="138" y="-1413.5" font-family="Helvetica,sans-Serif" font-size="10.00" fill="#000000">get_session_info</text>
</a>
</g>
</g>
<!-- Node128&#45;&gt;Node129 -->
<g id="edge1" class="edge">
<title>Node128&#45;&gt;Node129</title>
<path fill="none" stroke="#191970" d="M25.2473,-722.8181C27.3338,-802.4462 42.9859,-1340.9679 86,-1397 86.9328,-1398.2151 87.951,-1399.3525 89.0403,-1400.4173"/>
<polygon fill="#191970" stroke="#191970" points="87.004,-1403.2648 97.1113,-1406.4419 91.1913,-1397.6553 87.004,-1403.2648"/>
</g>
<!-- Node130 -->
<g id="node3" class="node">
<title>Node130</title>
<g id="a_node3"><a xlink:href="comm__mpi_8f.html#af06ec29f06aac3f8809e19de2a7e8946" target="_top" xlink:title="dnekclock">
<polygon fill="#ffffff" stroke="#000000" points="107.5,-1368.5 107.5,-1387.5 168.5,-1387.5 168.5,-1368.5 107.5,-1368.5"/>
<text text-anchor="middle" x="138" y="-1375.5" font-family="Helvetica,sans-Serif" font-size="10.00" fill="#000000">dnekclock</text>
</a>
</g>
</g>
<!-- Node128&#45;&gt;Node130 -->
<g id="edge2" class="edge">
<title>Node128&#45;&gt;Node130</title>
<path fill="none" stroke="#191970" d="M25.2995,-722.7558C27.7393,-799.6332 45.3046,-1306.2729 86,-1359 89.2207,-1363.173 93.4481,-1366.43 98.1029,-1368.972"/>
<polygon fill="#191970" stroke="#191970" points="96.8631,-1372.2495 107.429,-1373.0319 99.6572,-1365.8312 96.8631,-1372.2495"/>
</g>
<!-- Node131 -->
<g id="node4" class="node">
<title>Node131</title>
<g id="a_node4"><a xlink:href="drive2_8f.html#ae3e6cc31f5e6b6b2b5062d80ca77519f" target="_top" xlink:title="opcount">
<polygon fill="#ffffff" stroke="#000000" points="112.5,-1330.5 112.5,-1349.5 163.5,-1349.5 163.5,-1330.5 112.5,-1330.5"/>
<text text-anchor="middle" x="138" y="-1337.5" font-family="Helvetica,sans-Serif" font-size="10.00" fill="#000000">opcount</text>
</a>
</g>
</g>
<!-- Node128&#45;&gt;Node131 -->
<g id="edge3" class="edge">
<title>Node128&#45;&gt;Node131</title>
<path fill="none" stroke="#191970" d="M25.3559,-722.6478C28.161,-796.5646 47.613,-1271.5632 86,-1321 90.2774,-1326.5087 96.3078,-1330.421 102.7537,-1333.1994"/>
<polygon fill="#191970" stroke="#191970" points="101.7446,-1336.5537 112.3393,-1336.5125 104.0313,-1329.9378 101.7446,-1336.5537"/>
</g>
<!-- Node132 -->
<g id="node5" class="node">
<title>Node132</title>
<g id="a_node5"><a xlink:href="drive2_8f.html#a40017911aaca646c450aff8e81c73de3" target="_top" xlink:title="initdim">
<polygon fill="#ffffff" stroke="#000000" points="115.5,-1292.5 115.5,-1311.5 160.5,-1311.5 160.5,-1292.5 115.5,-1292.5"/>
<text text-anchor="middle" x="138" y="-1299.5" font-family="Helvetica,sans-Serif" font-size="10.00" fill="#000000">initdim</text>
</a>
</g>
</g>
<!-- Node128&#45;&gt;Node132 -->
<g id="edge4" class="edge">
<title>Node128&#45;&gt;Node132</title>
<path fill="none" stroke="#191970" d="M25.4371,-722.9476C28.689,-795.1227 49.9875,-1236.9366 86,-1283 90.8982,-1289.2653 98.0624,-1293.4654 105.516,-1296.2808"/>
<polygon fill="#191970" stroke="#191970" points="104.73,-1299.6996 115.3149,-1299.2416 106.7547,-1292.9988 104.73,-1299.6996"/>
</g>
<!-- Node133 -->
<g id="node6" class="node">
<title>Node133</title>
<g id="a_node6"><a xlink:href="drive2_8f.html#ad39f875830fa693f65e91c2eebe4f6fc" target="_top" xlink:title="initdat">
<polygon fill="#ffffff" stroke="#000000" points="116.5,-1254.5 116.5,-1273.5 159.5,-1273.5 159.5,-1254.5 116.5,-1254.5"/>
<text text-anchor="middle" x="138" y="-1261.5" font-family="Helvetica,sans-Serif" font-size="10.00" fill="#000000">initdat</text>
</a>
</g>
</g>
<!-- Node128&#45;&gt;Node133 -->
<g id="edge5" class="edge">
<title>Node128&#45;&gt;Node133</title>
<path fill="none" stroke="#191970" d="M25.5048,-722.721C29.1502,-791.4163 52.2698,-1202.1901 86,-1245 91.1445,-1251.5293 98.7477,-1255.8155 106.5613,-1258.6289"/>
<polygon fill="#191970" stroke="#191970" points="105.8238,-1262.0587 116.4018,-1261.463 107.7611,-1255.3321 105.8238,-1262.0587"/>
</g>
<!-- Node134 -->
<g id="node7" class="node">
<title>Node134</title>
<g id="a_node7"><a xlink:href="drive2_8f.html#a29f4f4f29ab462b5dcb910cb6d8a1af1" target="_top" xlink:title="files">
<polygon fill="#ffffff" stroke="#000000" points="120.5,-1216.5 120.5,-1235.5 155.5,-1235.5 155.5,-1216.5 120.5,-1216.5"/>
<text text-anchor="middle" x="138" y="-1223.5" font-family="Helvetica,sans-Serif" font-size="10.00" fill="#000000">files</text>
</a>
</g>
</g>
<!-- Node128&#45;&gt;Node134 -->
<g id="edge6" class="edge">
<title>Node128&#45;&gt;Node134</title>
<path fill="none" stroke="#191970" d="M25.6033,-722.8622C29.7334,-789.0788 54.6084,-1167.5126 86,-1207 91.9971,-1214.5437 101.2733,-1219.0929 110.34,-1221.8359"/>
<polygon fill="#191970" stroke="#191970" points="109.7608,-1225.2963 120.3017,-1224.2289 111.3959,-1218.4899 109.7608,-1225.2963"/>
</g>
<!-- Node135 -->
<g id="node8" class="node">
<title>Node135</title>
<g id="a_node8"><a xlink:href="connect2_8f.html#a909eeac6dfc8f61a1c9d637c53cc970d" target="_top" xlink:title="readat">
<polygon fill="#ffffff" stroke="#000000" points="116,-1178.5 116,-1197.5 160,-1197.5 160,-1178.5 116,-1178.5"/>
<text text-anchor="middle" x="138" y="-1185.5" font-family="Helvetica,sans-Serif" font-size="10.00" fill="#000000">readat</text>
</a>
</g>
</g>
<!-- Node128&#45;&gt;Node135 -->
<g id="edge7" class="edge">
<title>Node128&#45;&gt;Node135</title>
<path fill="none" stroke="#191970" d="M25.6831,-722.5026C30.2331,-784.739 56.8635,-1132.7277 86,-1169 91.121,-1175.3752 98.5815,-1179.6115 106.2609,-1182.4264"/>
<polygon fill="#191970" stroke="#191970" points="105.3637,-1185.8108 115.9455,-1185.2858 107.3459,-1179.0973 105.3637,-1185.8108"/>
</g>
<!-- Node136 -->
<g id="node9" class="node">
<title>Node136</title>
<g id="a_node9"><a xlink:href="comm__mpi_8f.html#af434902df36175d2afdc00fbabc84b2c" target="_top" xlink:title="dnekclock_sync">
<polygon fill="#ffffff" stroke="#000000" points="94.5,-1140.5 94.5,-1159.5 181.5,-1159.5 181.5,-1140.5 94.5,-1140.5"/>
<text text-anchor="middle" x="138" y="-1147.5" font-family="Helvetica,sans-Serif" font-size="10.00" fill="#000000">dnekclock_sync</text>
</a>
</g>
</g>
<!-- Node128&#45;&gt;Node136 -->
<g id="edge8" class="edge">
<title>Node128&#45;&gt;Node136</title>
<path fill="none" stroke="#191970" d="M25.1079,-722.664C25.924,-779.0615 32.676,-1065.4214 86,-1131 86.9854,-1132.2118 88.0552,-1133.3463 89.1947,-1134.4085"/>
<polygon fill="#191970" stroke="#191970" points="87.4068,-1137.4335 97.5718,-1140.4207 91.4883,-1131.7465 87.4068,-1137.4335"/>
</g>
<!-- Node137 -->
<g id="node10" class="node">
<title>Node137</title>
<g id="a_node10"><a xlink:href="drive2_8f.html#ac84969997b3b976452e0337647abcb23" target="_top" xlink:title="setvar">
<polygon fill="#ffffff" stroke="#000000" points="116,-1102.5 116,-1121.5 160,-1121.5 160,-1102.5 116,-1102.5"/>
<text text-anchor="middle" x="138" y="-1109.5" font-family="Helvetica,sans-Serif" font-size="10.00" fill="#000000">setvar</text>
</a>
</g>
</g>
<!-- Node128&#45;&gt;Node137 -->
<g id="edge9" class="edge">
<title>Node128&#45;&gt;Node137</title>
<path fill="none" stroke="#191970" d="M25.2677,-722.82C26.9185,-776.4812 37.3119,-1033.9871 86,-1093 91.1611,-1099.2555 98.5688,-1103.4515 106.1816,-1106.266"/>
<polygon fill="#191970" stroke="#191970" points="105.1965,-1109.6245 115.7804,-1109.1432 107.2065,-1102.9192 105.1965,-1109.6245"/>
</g>
<!-- Node138 -->
<g id="node11" class="node">
<title>Node138</title>
<g id="a_node11"><a xlink:href="connect1_8f.html#a555c5112d24b342a7e0c9d0990c53ae2" target="_top" xlink:title="setup_topo">
<polygon fill="#ffffff" stroke="#000000" points="105.5,-1064.5 105.5,-1083.5 170.5,-1083.5 170.5,-1064.5 105.5,-1064.5"/>
<text text-anchor="middle" x="138" y="-1071.5" font-family="Helvetica,sans-Serif" font-size="10.00" fill="#000000">setup_topo</text>
</a>
</g>
</g>
<!-- Node128&#45;&gt;Node138 -->
<g id="edge10" class="edge">
<title>Node128&#45;&gt;Node138</title>
<path fill="none" stroke="#191970" d="M25.4594,-722.8189C28.003,-773.2117 41.8825,-1002.4615 86,-1055 88.8161,-1058.3537 92.277,-1061.1155 96.064,-1063.3898"/>
<polygon fill="#191970" stroke="#191970" points="94.8139,-1066.6725 105.3419,-1067.861 97.8529,-1060.3666 94.8139,-1066.6725"/>
</g>
<!-- Node139 -->
<g id="node12" class="node">
<title>Node139</title>
<g id="a_node12"><a xlink:href="coef_8f.html#a0d49b1aee56670901cd4cdfde7245e6c" target="_top" xlink:title="genwz">
<polygon fill="#ffffff" stroke="#000000" points="115.5,-1026.5 115.5,-1045.5 160.5,-1045.5 160.5,-1026.5 115.5,-1026.5"/>
<text text-anchor="middle" x="138" y="-1033.5" font-family="Helvetica,sans-Serif" font-size="10.00" fill="#000000">genwz</text>
</a>
</g>
</g>
<!-- Node128&#45;&gt;Node139 -->
<g id="edge11" class="edge">
<title>Node128&#45;&gt;Node139</title>
<path fill="none" stroke="#191970" d="M25.6847,-722.6443C29.1744,-769.2567 46.3848,-970.8411 86,-1017 91.0782,-1022.917 98.1598,-1026.9919 105.4652,-1029.798"/>
<polygon fill="#191970" stroke="#191970" points="104.8101,-1033.2597 115.3986,-1032.8919 106.8918,-1026.5764 104.8101,-1033.2597"/>
</g>
<!-- Node140 -->
<g id="node13" class="node">
<title>Node140</title>
<g id="a_node13"><a xlink:href="group__zero.html#ga684b0320d82a6ae155bf7e0b53826cd3" target="_top" xlink:title="usrdat">
<polygon fill="#ffffff" stroke="#000000" points="116,-988.5 116,-1007.5 160,-1007.5 160,-988.5 116,-988.5"/>
<text text-anchor="middle" x="138" y="-995.5" font-family="Helvetica,sans-Serif" font-size="10.00" fill="#000000">usrdat</text>
</a>
</g>
</g>
<!-- Node128&#45;&gt;Node140 -->
<g id="edge12" class="edge">
<title>Node128&#45;&gt;Node140</title>
<path fill="none" stroke="#191970" d="M25.9754,-722.5645C30.5199,-765.396 50.8922,-939.2091 86,-979 91.2616,-984.9634 98.5542,-989.0568 106.0152,-991.866"/>
<polygon fill="#191970" stroke="#191970" points="105.1767,-995.2699 115.7639,-994.8685 107.2372,-988.58 105.1767,-995.2699"/>
</g>
<!-- Node141 -->
<g id="node14" class="node">
<title>Node141</title>
<g id="a_node14"><a xlink:href="drive2_8f.html#aefc07385d7e7539fb57662470f694136" target="_top" xlink:title="gengeom">
<polygon fill="#ffffff" stroke="#000000" points="110,-950.5 110,-969.5 166,-969.5 166,-950.5 110,-950.5"/>
<text text-anchor="middle" x="138" y="-957.5" font-family="Helvetica,sans-Serif" font-size="10.00" fill="#000000">gengeom</text>
</a>
</g>
</g>
<!-- Node128&#45;&gt;Node141 -->
<g id="edge13" class="edge">
<title>Node128&#45;&gt;Node141</title>
<path fill="none" stroke="#191970" d="M26.3951,-722.7467C32.1826,-761.9472 55.4378,-907.5927 86,-941 89.8926,-945.255 94.817,-948.5592 100.0757,-951.1245"/>
<polygon fill="#191970" stroke="#191970" points="99.1669,-954.5303 109.7518,-954.9898 101.7638,-948.0298 99.1669,-954.5303"/>
</g>
<!-- Node142 -->
<g id="node15" class="node">
<title>Node142</title>
<g id="a_node15"><a xlink:href="connect1_8f.html#a39e70815f3e1b27b219e8d1ec15d2c76" target="_top" xlink:title="setup_mesh_dssum">
<polygon fill="#ffffff" stroke="#000000" points="86,-912.5 86,-931.5 190,-931.5 190,-912.5 86,-912.5"/>
<text text-anchor="middle" x="138" y="-919.5" font-family="Helvetica,sans-Serif" font-size="10.00" fill="#000000">setup_mesh_dssum</text>
</a>
</g>
</g>
<!-- Node128&#45;&gt;Node142 -->
<g id="edge14" class="edge">
<title>Node128&#45;&gt;Node142</title>
<path fill="none" stroke="#191970" d="M26.9035,-722.5167C33.9969,-757.1371 59.8326,-875.7737 86,-903 87.3987,-904.4553 88.9178,-905.7996 90.5282,-907.0415"/>
<polygon fill="#191970" stroke="#191970" points="88.865,-910.1287 99.2056,-912.4355 92.5605,-904.1837 88.865,-910.1287"/>
</g>
<!-- Node143 -->
<g id="node16" class="node">
<title>Node143</title>
<g id="a_node16"><a xlink:href="group__zero.html#gad0bac908131bab7fa82d65be4229e976" target="_top" xlink:title="usrdat2">
<polygon fill="#ffffff" stroke="#000000" points="113.5,-874.5 113.5,-893.5 162.5,-893.5 162.5,-874.5 113.5,-874.5"/>
<text text-anchor="middle" x="138" y="-881.5" font-family="Helvetica,sans-Serif" font-size="10.00" fill="#000000">usrdat2</text>
</a>
</g>
</g>
<!-- Node128&#45;&gt;Node143 -->
<g id="edge15" class="edge">
<title>Node128&#45;&gt;Node143</title>
<path fill="none" stroke="#191970" d="M26.15,-722.6861C29.8038,-749.2209 43.529,-823.839 86,-865 91.0083,-869.8538 97.3552,-873.4825 103.8795,-876.1906"/>
<polygon fill="#191970" stroke="#191970" points="102.8352,-879.5333 113.43,-879.5352 105.1488,-872.9267 102.8352,-879.5333"/>
</g>
<!-- Node144 -->
<g id="node17" class="node">
<title>Node144</title>
<g id="a_node17"><a xlink:href="ic_8f.html#aaf47b255d1cfac3451a8473ee6876b4f" target="_top" xlink:title="geom_reset">
<polygon fill="#ffffff" stroke="#000000" points="104,-836.5 104,-855.5 172,-855.5 172,-836.5 104,-836.5"/>
<text text-anchor="middle" x="138" y="-843.5" font-family="Helvetica,sans-Serif" font-size="10.00" fill="#000000">geom_reset</text>
</a>
</g>
</g>
<!-- Node128&#45;&gt;Node144 -->
<g id="edge16" class="edge">
<title>Node128&#45;&gt;Node144</title>
<path fill="none" stroke="#191970" d="M27.613,-722.7539C33.9364,-744.5445 52.0979,-797.5704 86,-827 88.6572,-829.3067 91.6179,-831.3421 94.7408,-833.1368"/>
<polygon fill="#191970" stroke="#191970" points="93.3324,-836.344 103.8546,-837.5824 96.4013,-830.0525 93.3324,-836.344"/>
</g>
<!-- Node145 -->
<g id="node18" class="node">
<title>Node145</title>
<g id="a_node18"><a xlink:href="connect2_8f.html#a76e6d86442e217d89107f73fa732ca97" target="_top" xlink:title="vrdsmsh">
<polygon fill="#ffffff" stroke="#000000" points="111,-798.5 111,-817.5 165,-817.5 165,-798.5 111,-798.5"/>
<text text-anchor="middle" x="138" y="-805.5" font-family="Helvetica,sans-Serif" font-size="10.00" fill="#000000">vrdsmsh</text>
</a>
</g>
</g>
<!-- Node128&#45;&gt;Node145 -->
<g id="edge17" class="edge">
<title>Node128&#45;&gt;Node145</title>
<path fill="none" stroke="#191970" d="M30.3032,-722.5675C39.5943,-738.505 60.2942,-770.5557 86,-789 90.6368,-792.3269 95.9199,-795.1327 101.3002,-797.4801"/>
<polygon fill="#191970" stroke="#191970" points="100.3818,-800.8776 110.971,-801.2238 102.909,-794.3497 100.3818,-800.8776"/>
</g>
<!-- Node146 -->
<g id="node19" class="node">
<title>Node146</title>
<g id="a_node19"><a xlink:href="bdry_8f.html#afaaf1e03c74a44316381ae723d0be830" target="_top" xlink:title="setlog">
<polygon fill="#ffffff" stroke="#000000" points="116.5,-760.5 116.5,-779.5 159.5,-779.5 159.5,-760.5 116.5,-760.5"/>
<text text-anchor="middle" x="138" y="-767.5" font-family="Helvetica,sans-Serif" font-size="10.00" fill="#000000">setlog</text>
</a>
</g>
</g>
<!-- Node128&#45;&gt;Node146 -->
<g id="edge18" class="edge">
<title>Node128&#45;&gt;Node146</title>
<path fill="none" stroke="#191970" d="M38.5825,-722.6031C50.645,-730.8495 68.9537,-742.6874 86,-751 92.5009,-754.1702 99.673,-757.1183 106.56,-759.701"/>
<polygon fill="#191970" stroke="#191970" points="105.7403,-763.1253 116.3348,-763.2068 108.1035,-756.5362 105.7403,-763.1253"/>
</g>
<!-- Node147 -->
<g id="node20" class="node">
<title>Node147</title>
<g id="a_node20"><a xlink:href="bdry_8f.html#aff6088943a1cc02fb036375d9008b4c7" target="_top" xlink:title="bcmask">
<polygon fill="#ffffff" stroke="#000000" points="112.5,-722.5 112.5,-741.5 163.5,-741.5 163.5,-722.5 112.5,-722.5"/>
<text text-anchor="middle" x="138" y="-729.5" font-family="Helvetica,sans-Serif" font-size="10.00" fill="#000000">bcmask</text>
</a>
</g>
</g>
<!-- Node128&#45;&gt;Node147 -->
<g id="edge19" class="edge">
<title>Node128&#45;&gt;Node147</title>
<path fill="none" stroke="#191970" d="M50.0784,-717.2167C65.3705,-719.788 85.1654,-723.1163 102.0998,-725.9637"/>
<polygon fill="#191970" stroke="#191970" points="101.7664,-729.4567 112.2083,-727.6633 102.9271,-722.5536 101.7664,-729.4567"/>
</g>
<!-- Node148 -->
<g id="node21" class="node">
<title>Node148</title>
<g id="a_node21"><a xlink:href="drive2_8f.html#a7f0d055bb47546a4859ac7d63339197e" target="_top" xlink:title="geneig">
<polygon fill="#ffffff" stroke="#000000" points="115.5,-684.5 115.5,-703.5 160.5,-703.5 160.5,-684.5 115.5,-684.5"/>
<text text-anchor="middle" x="138" y="-691.5" font-family="Helvetica,sans-Serif" font-size="10.00" fill="#000000">geneig</text>
</a>
</g>
</g>
<!-- Node128&#45;&gt;Node148 -->
<g id="edge20" class="edge">
<title>Node128&#45;&gt;Node148</title>
<path fill="none" stroke="#191970" d="M50.0784,-708.7833C66.3844,-706.0416 87.8102,-702.439 105.4283,-699.4767"/>
<polygon fill="#191970" stroke="#191970" points="106.013,-702.9276 115.2942,-697.8178 104.8522,-696.0245 106.013,-702.9276"/>
</g>
<!-- Node149 -->
<g id="node22" class="node">
<title>Node149</title>
<g id="a_node22"><a xlink:href="conduct_8f.html#a3b764ba6cf35187ac351c3072456c805" target="_top" xlink:title="dg_setup">
<polygon fill="#ffffff" stroke="#000000" points="110,-646.5 110,-665.5 166,-665.5 166,-646.5 110,-646.5"/>
<text text-anchor="middle" x="138" y="-653.5" font-family="Helvetica,sans-Serif" font-size="10.00" fill="#000000">dg_setup</text>
</a>
</g>
</g>
<!-- Node128&#45;&gt;Node149 -->
<g id="edge21" class="edge">
<title>Node128&#45;&gt;Node149</title>
<path fill="none" stroke="#191970" d="M38.5825,-703.3969C50.645,-695.1505 68.9537,-683.3126 86,-675 90.5801,-672.7665 95.4933,-670.6433 100.4052,-668.6804"/>
<polygon fill="#191970" stroke="#191970" points="101.6625,-671.9469 109.7616,-665.1164 99.1707,-665.4053 101.6625,-671.9469"/>
</g>
<!-- Node150 -->
<g id="node23" class="node">
<title>Node150</title>
<g id="a_node23"><a xlink:href="navier0_8f.html#a316eee2e742b806a39e481d5f5c3e8b2" target="_top" xlink:title="estrat">
<polygon fill="#ffffff" stroke="#000000" points="117.5,-608.5 117.5,-627.5 158.5,-627.5 158.5,-608.5 117.5,-608.5"/>
<text text-anchor="middle" x="138" y="-615.5" font-family="Helvetica,sans-Serif" font-size="10.00" fill="#000000">estrat</text>
</a>
</g>
</g>
<!-- Node128&#45;&gt;Node150 -->
<g id="edge22" class="edge">
<title>Node128&#45;&gt;Node150</title>
<path fill="none" stroke="#191970" d="M30.3032,-703.4325C39.5943,-687.495 60.2942,-655.4443 86,-637 92.4616,-632.3637 100.1785,-628.7396 107.6642,-625.9577"/>
<polygon fill="#191970" stroke="#191970" points="108.8619,-629.2479 117.2467,-622.7714 106.6532,-622.6055 108.8619,-629.2479"/>
</g>
<!-- Node151 -->
<g id="node24" class="node">
<title>Node151</title>
<g id="a_node24"><a xlink:href="navier6_8f.html#a45317b1def173b8f1db2e5083595d095" target="_top" xlink:title="set_overlap">
<polygon fill="#ffffff" stroke="#000000" points="104.5,-570.5 104.5,-589.5 171.5,-589.5 171.5,-570.5 104.5,-570.5"/>
<text text-anchor="middle" x="138" y="-577.5" font-family="Helvetica,sans-Serif" font-size="10.00" fill="#000000">set_overlap</text>
</a>
</g>
</g>
<!-- Node128&#45;&gt;Node151 -->
<g id="edge23" class="edge">
<title>Node128&#45;&gt;Node151</title>
<path fill="none" stroke="#191970" d="M27.613,-703.2461C33.9364,-681.4555 52.0979,-628.4296 86,-599 88.8148,-596.5565 91.9702,-594.4173 95.2983,-592.5463"/>
<polygon fill="#191970" stroke="#191970" points="96.885,-595.6672 104.3962,-588.1951 93.8647,-589.3522 96.885,-595.6672"/>
</g>
<!-- Node152 -->
<g id="node25" class="node">
<title>Node152</title>
<g id="a_node25"><a xlink:href="gfdm__par_8f.html#a14456faa0a226d1d5463675d56fcd06f" target="_top" xlink:title="gfdm_init">
<polygon fill="#ffffff" stroke="#000000" points="110,-532.5 110,-551.5 166,-551.5 166,-532.5 110,-532.5"/>
<text text-anchor="middle" x="138" y="-539.5" font-family="Helvetica,sans-Serif" font-size="10.00" fill="#000000">gfdm_init</text>
</a>
</g>
</g>
<!-- Node128&#45;&gt;Node152 -->
<g id="edge24" class="edge">
<title>Node128&#45;&gt;Node152</title>
<path fill="none" stroke="#191970" d="M26.15,-703.3139C29.8038,-676.7791 43.529,-602.161 86,-561 90.0981,-557.0283 95.0924,-553.8769 100.3468,-551.3789"/>
<polygon fill="#191970" stroke="#191970" points="101.9548,-554.5059 109.9483,-547.5522 99.3631,-548.0033 101.9548,-554.5059"/>
</g>
<!-- Node153 -->
<g id="node26" class="node">
<title>Node153</title>
<g id="a_node26"><a xlink:href="gfdm__par_8f.html#a0043bc0527fd39035890cbe2c4b0504a" target="_top" xlink:title="g25d_init">
<polygon fill="#ffffff" stroke="#000000" points="110,-494.5 110,-513.5 166,-513.5 166,-494.5 110,-494.5"/>
<text text-anchor="middle" x="138" y="-501.5" font-family="Helvetica,sans-Serif" font-size="10.00" fill="#000000">g25d_init</text>
</a>
</g>
</g>
<!-- Node128&#45;&gt;Node153 -->
<g id="edge25" class="edge">
<title>Node128&#45;&gt;Node153</title>
<path fill="none" stroke="#191970" d="M26.9035,-703.4833C33.9969,-668.8629 59.8326,-550.2263 86,-523 89.9962,-518.8421 94.9756,-515.5895 100.2578,-513.0463"/>
<polygon fill="#191970" stroke="#191970" points="101.9479,-516.1408 109.946,-509.1923 99.3604,-509.6366 101.9479,-516.1408"/>
</g>
<!-- Node154 -->
<g id="node27" class="node">
<title>Node154</title>
<g id="a_node27"><a xlink:href="cvode__driver_8f.html#ae9b38c7eb396f622d998ac1b105a6600" target="_top" xlink:title="cv_setsize">
<polygon fill="#ffffff" stroke="#000000" points="106,-456.5 106,-475.5 170,-475.5 170,-456.5 106,-456.5"/>
<text text-anchor="middle" x="138" y="-463.5" font-family="Helvetica,sans-Serif" font-size="10.00" fill="#000000">cv_setsize</text>
</a>
</g>
</g>
<!-- Node128&#45;&gt;Node154 -->
<g id="edge26" class="edge">
<title>Node128&#45;&gt;Node154</title>
<path fill="none" stroke="#191970" d="M26.3951,-703.2533C32.1826,-664.0528 55.4378,-518.4073 86,-485 89.0756,-481.6381 92.7952,-478.8698 96.815,-476.5905"/>
<polygon fill="#191970" stroke="#191970" points="98.3665,-479.729 105.9607,-472.3413 95.417,-473.3807 98.3665,-479.729"/>
</g>
<!-- Node155 -->
<g id="node28" class="node">
<title>Node155</title>
<g id="a_node28"><a xlink:href="group__zero.html#gae8e951758ca4752cd88bc9c5330c9ebe" target="_top" xlink:title="usrdat3">
<polygon fill="#ffffff" stroke="#000000" points="113.5,-418.5 113.5,-437.5 162.5,-437.5 162.5,-418.5 113.5,-418.5"/>
<text text-anchor="middle" x="138" y="-425.5" font-family="Helvetica,sans-Serif" font-size="10.00" fill="#000000">usrdat3</text>
</a>
</g>
</g>
<!-- Node128&#45;&gt;Node155 -->
<g id="edge27" class="edge">
<title>Node128&#45;&gt;Node155</title>
<path fill="none" stroke="#191970" d="M25.9754,-703.4355C30.5199,-660.604 50.8922,-486.7909 86,-447 90.6997,-441.6734 97.0198,-437.8388 103.633,-435.0786"/>
<polygon fill="#191970" stroke="#191970" points="105.0426,-438.2959 113.3772,-431.7548 102.7827,-431.6707 105.0426,-438.2959"/>
</g>
<!-- Node156 -->
<g id="node29" class="node">
<title>Node156</title>
<g id="a_node29"><a xlink:href="ic_8f.html#acaefa33e86633e4a7a4b28347d4620d1" target="_top" xlink:title="setics">
<polygon fill="#ffffff" stroke="#000000" points="116.5,-380.5 116.5,-399.5 159.5,-399.5 159.5,-380.5 116.5,-380.5"/>
<text text-anchor="middle" x="138" y="-387.5" font-family="Helvetica,sans-Serif" font-size="10.00" fill="#000000">setics</text>
</a>
</g>
</g>
<!-- Node128&#45;&gt;Node156 -->
<g id="edge28" class="edge">
<title>Node128&#45;&gt;Node156</title>
<path fill="none" stroke="#191970" d="M25.6847,-703.3557C29.1744,-656.7433 46.3848,-455.1589 86,-409 91.3696,-402.7434 98.9793,-398.5464 106.7249,-395.7313"/>
<polygon fill="#191970" stroke="#191970" points="107.8545,-399.0471 116.4504,-392.8534 105.8682,-392.3348 107.8545,-399.0471"/>
</g>
<!-- Node157 -->
<g id="node30" class="node">
<title>Node157</title>
<g id="a_node30"><a xlink:href="subs1_8f.html#af114fff998975a6e77422a65106222ca" target="_top" xlink:title="setprop">
<polygon fill="#ffffff" stroke="#000000" points="113.5,-342.5 113.5,-361.5 162.5,-361.5 162.5,-342.5 113.5,-342.5"/>
<text text-anchor="middle" x="138" y="-349.5" font-family="Helvetica,sans-Serif" font-size="10.00" fill="#000000">setprop</text>
</a>
</g>
</g>
<!-- Node128&#45;&gt;Node157 -->
<g id="edge29" class="edge">
<title>Node128&#45;&gt;Node157</title>
<path fill="none" stroke="#191970" d="M25.4594,-703.1811C28.003,-652.7883 41.8825,-423.5385 86,-371 90.6096,-365.5106 96.9465,-361.607 103.6132,-358.8313"/>
<polygon fill="#191970" stroke="#191970" points="105.0935,-362.026 113.4539,-355.518 102.8598,-355.3919 105.0935,-362.026"/>
</g>
<!-- Node158 -->
<g id="node31" class="node">
<title>Node158</title>
<g id="a_node31"><a xlink:href="multimesh_8f.html#a0960e928ef8c9884daa9faa261b9ebb8" target="_top" xlink:title="userchk_set_xfer">
<polygon fill="#ffffff" stroke="#000000" points="92,-304.5 92,-323.5 184,-323.5 184,-304.5 92,-304.5"/>
<text text-anchor="middle" x="138" y="-311.5" font-family="Helvetica,sans-Serif" font-size="10.00" fill="#000000">userchk_set_xfer</text>
</a>
</g>
</g>
<!-- Node128&#45;&gt;Node158 -->
<g id="edge30" class="edge">
<title>Node128&#45;&gt;Node158</title>
<path fill="none" stroke="#191970" d="M25.2677,-703.18C26.9185,-649.5188 37.3119,-392.0129 86,-333 86.994,-331.7952 88.0713,-330.6669 89.2174,-329.61"/>
<polygon fill="#191970" stroke="#191970" points="91.5095,-332.2745 97.6243,-323.6223 87.4486,-326.5728 91.5095,-332.2745"/>
</g>
<!-- Node159 -->
<g id="node32" class="node">
<title>Node159</title>
<g id="a_node32"><a xlink:href="multimesh_8f.html#aa410b06683b1f0fc6d262b8195bdd44e" target="_top" xlink:title="bcopy">
<polygon fill="#ffffff" stroke="#000000" points="116.5,-266.5 116.5,-285.5 159.5,-285.5 159.5,-266.5 116.5,-266.5"/>
<text text-anchor="middle" x="138" y="-273.5" font-family="Helvetica,sans-Serif" font-size="10.00" fill="#000000">bcopy</text>
</a>
</g>
</g>
<!-- Node128&#45;&gt;Node159 -->
<g id="edge31" class="edge">
<title>Node128&#45;&gt;Node159</title>
<path fill="none" stroke="#191970" d="M25.1079,-703.336C25.924,-646.9385 32.676,-360.5786 86,-295 91.2016,-288.603 98.7559,-284.3597 106.5021,-281.5451"/>
<polygon fill="#191970" stroke="#191970" points="107.6406,-284.8587 116.2539,-278.6893 105.6733,-278.1408 107.6406,-284.8587"/>
</g>
<!-- Node160 -->
<g id="node33" class="node">
<title>Node160</title>
<g id="a_node33"><a xlink:href="multimesh_8f.html#a97c55697114eaad3acd14c0b1d8ca4a4" target="_top" xlink:title="chk_outflow">
<polygon fill="#ffffff" stroke="#000000" points="103.5,-228.5 103.5,-247.5 172.5,-247.5 172.5,-228.5 103.5,-228.5"/>
<text text-anchor="middle" x="138" y="-235.5" font-family="Helvetica,sans-Serif" font-size="10.00" fill="#000000">chk_outflow</text>
</a>
</g>
</g>
<!-- Node128&#45;&gt;Node160 -->
<g id="edge32" class="edge">
<title>Node128&#45;&gt;Node160</title>
<path fill="none" stroke="#191970" d="M25.6831,-703.4974C30.2331,-641.261 56.8635,-293.2723 86,-257 88.3663,-254.0542 91.2321,-251.565 94.3882,-249.4618"/>
<polygon fill="#191970" stroke="#191970" points="96.0827,-252.5249 103.2769,-244.7471 92.8026,-246.341 96.0827,-252.5249"/>
</g>
<!-- Node161 -->
<g id="node34" class="node">
<title>Node161</title>
<g id="a_node34"><a xlink:href="group__zero.html#gaab7e65383186bbbe5e8ee746f763b233" target="_top" xlink:title="userchk">
<polygon fill="#ffffff" stroke="#000000" points="112.5,-190.5 112.5,-209.5 163.5,-209.5 163.5,-190.5 112.5,-190.5"/>
<text text-anchor="middle" x="138" y="-197.5" font-family="Helvetica,sans-Serif" font-size="10.00" fill="#000000">userchk</text>
</a>
</g>
</g>
<!-- Node128&#45;&gt;Node161 -->
<g id="edge33" class="edge">
<title>Node128&#45;&gt;Node161</title>
<path fill="none" stroke="#191970" d="M25.6033,-703.1378C29.7334,-636.9212 54.6084,-258.4874 86,-219 90.3401,-213.5406 96.3976,-209.6496 102.8503,-206.8765"/>
<polygon fill="#191970" stroke="#191970" points="104.127,-210.1384 112.4329,-203.561 101.8381,-203.5232 104.127,-210.1384"/>
</g>
<!-- Node162 -->
<g id="node35" class="node">
<title>Node162</title>
<g id="a_node35"><a xlink:href="cvode__driver_8f.html#a1d463d9ff23f47fea6f30a495f27c86a" target="_top" xlink:title="cv_init">
<polygon fill="#ffffff" stroke="#000000" points="115.5,-152.5 115.5,-171.5 160.5,-171.5 160.5,-152.5 115.5,-152.5"/>
<text text-anchor="middle" x="138" y="-159.5" font-family="Helvetica,sans-Serif" font-size="10.00" fill="#000000">cv_init</text>
</a>
</g>
</g>
<!-- Node128&#45;&gt;Node162 -->
<g id="edge34" class="edge">
<title>Node128&#45;&gt;Node162</title>
<path fill="none" stroke="#191970" d="M25.5048,-703.279C29.1502,-634.5837 52.2698,-223.8099 86,-181 90.9219,-174.7532 98.0943,-170.5597 105.5484,-167.7446"/>
<polygon fill="#191970" stroke="#191970" points="106.7859,-171.027 115.3441,-164.7814 104.7591,-164.3269 106.7859,-171.027"/>
</g>
<!-- Node163 -->
<g id="node36" class="node">
<title>Node163</title>
<g id="a_node36"><a xlink:href="drive2_8f.html#ab79ec3c35ce2079b236a435feee313c2" target="_top" xlink:title="comment">
<polygon fill="#ffffff" stroke="#000000" points="109.5,-114.5 109.5,-133.5 166.5,-133.5 166.5,-114.5 109.5,-114.5"/>
<text text-anchor="middle" x="138" y="-121.5" font-family="Helvetica,sans-Serif" font-size="10.00" fill="#000000">comment</text>
</a>
</g>
</g>
<!-- Node128&#45;&gt;Node163 -->
<g id="edge35" class="edge">
<title>Node128&#45;&gt;Node163</title>
<path fill="none" stroke="#191970" d="M25.4371,-703.0524C28.689,-630.8773 49.9875,-189.0634 86,-143 89.6787,-138.2947 94.6353,-134.7541 100.0328,-132.0902"/>
<polygon fill="#191970" stroke="#191970" points="101.3779,-135.322 109.3848,-128.3836 98.7987,-128.8145 101.3779,-135.322"/>
</g>
<!-- Node164 -->
<g id="node37" class="node">
<title>Node164</title>
<g id="a_node37"><a xlink:href="ssolv_8f.html#a1c8c4f9d75f6f20e10420e5590f88198" target="_top" xlink:title="sstest">
<polygon fill="#ffffff" stroke="#000000" points="116,-76.5 116,-95.5 160,-95.5 160,-76.5 116,-76.5"/>
<text text-anchor="middle" x="138" y="-83.5" font-family="Helvetica,sans-Serif" font-size="10.00" fill="#000000">sstest</text>
</a>
</g>
</g>
<!-- Node128&#45;&gt;Node164 -->
<g id="edge36" class="edge">
<title>Node128&#45;&gt;Node164</title>
<path fill="none" stroke="#191970" d="M25.3559,-703.3522C28.161,-629.4354 47.613,-154.4368 86,-105 91.0152,-98.5412 98.4402,-94.2769 106.1193,-91.4618"/>
<polygon fill="#191970" stroke="#191970" points="107.2102,-94.7893 115.82,-88.615 105.239,-88.0726 107.2102,-94.7893"/>
</g>
<!-- Node165 -->
<g id="node38" class="node">
<title>Node165</title>
<g id="a_node38"><a xlink:href="drive2_8f.html#ad7dcf95029f223c6def3ab96e6285330" target="_top" xlink:title="dofcnt">
<polygon fill="#ffffff" stroke="#000000" points="116,-38.5 116,-57.5 160,-57.5 160,-38.5 116,-38.5"/>
<text text-anchor="middle" x="138" y="-45.5" font-family="Helvetica,sans-Serif" font-size="10.00" fill="#000000">dofcnt</text>
</a>
</g>
</g>
<!-- Node128&#45;&gt;Node165 -->
<g id="edge37" class="edge">
<title>Node128&#45;&gt;Node165</title>
<path fill="none" stroke="#191970" d="M25.2995,-703.2442C27.7393,-626.3668 45.3046,-119.7271 86,-67 90.9963,-60.5265 98.4149,-56.2573 106.0941,-53.4422"/>
<polygon fill="#191970" stroke="#191970" points="107.186,-56.7695 115.7975,-50.5976 105.2167,-50.0522 107.186,-56.7695"/>
</g>
<!-- Node166 -->
<g id="node39" class="node">
<title>Node166</title>
<g id="a_node39"><a xlink:href="drive2_8f.html#a2560abf814ea78b9e6e566b7174e82e7" target="_top" xlink:title="time00">
<polygon fill="#ffffff" stroke="#000000" points="115,-.5 115,-19.5 161,-19.5 161,-.5 115,-.5"/>
<text text-anchor="middle" x="138" y="-7.5" font-family="Helvetica,sans-Serif" font-size="10.00" fill="#000000">time00</text>
</a>
</g>
</g>
<!-- Node128&#45;&gt;Node166 -->
<g id="edge38" class="edge">
<title>Node128&#45;&gt;Node166</title>
<path fill="none" stroke="#191970" d="M25.2473,-703.1819C27.3338,-623.5538 42.9859,-85.0321 86,-29 90.7481,-22.815 97.7088,-18.6419 105.0031,-15.8268"/>
<polygon fill="#191970" stroke="#191970" points="106.445,-19.0456 114.98,-12.7683 104.3933,-12.353 106.445,-19.0456"/>
</g>
</g>
</svg>
