<?xml version="1.0" encoding="UTF-8" standalone="no"?>
<!DOCTYPE svg PUBLIC "-//W3C//DTD SVG 1.1//EN"
 "http://www.w3.org/Graphics/SVG/1.1/DTD/svg11.dtd">
<!-- Generated by graphviz version 2.40.1 (20161225.0304)
 -->
<!-- Title: userchk Pages: 1 -->
<svg width="245pt" height="408pt"
 viewBox="0.00 0.00 245.00 408.00" xmlns="http://www.w3.org/2000/svg" xmlns:xlink="http://www.w3.org/1999/xlink">
<g id="graph0" class="graph" transform="scale(1 1) rotate(0) translate(4 404)">
<title>userchk</title>
<polygon fill="#ffffff" stroke="transparent" points="-4,4 -4,-404 241,-404 241,4 -4,4"/>
<!-- Node2 -->
<g id="node1" class="node">
<title>Node2</title>
<polygon fill="#bfbfbf" stroke="#000000" points="0,-190.5 0,-209.5 51,-209.5 51,-190.5 0,-190.5"/>
<text text-anchor="middle" x="25.5" y="-197.5" font-family="Helvetica,sans-Serif" font-size="10.00" fill="#000000">userchk</text>
</g>
<!-- Node3 -->
<g id="node2" class="node">
<title>Node3</title>
<g id="a_node2"><a xlink:href="math_8f.html#a3b43508554f14bdea8e14473d7d0803c" target="_top" xlink:title="copy">
<polygon fill="#ffffff" stroke="#000000" points="107.5,-380.5 107.5,-399.5 145.5,-399.5 145.5,-380.5 107.5,-380.5"/>
<text text-anchor="middle" x="126.5" y="-387.5" font-family="Helvetica,sans-Serif" font-size="10.00" fill="#000000">copy</text>
</a>
</g>
</g>
<!-- Node2&#45;&gt;Node3 -->
<g id="edge1" class="edge">
<title>Node2&#45;&gt;Node3</title>
<path fill="none" stroke="#191970" d="M26.4455,-209.8137C29.6697,-238.2508 42.6281,-321.8003 87,-371 90.1232,-374.463 94.0146,-377.3568 98.1274,-379.7555"/>
<polygon fill="#191970" stroke="#191970" points="96.7534,-382.9799 107.2725,-384.2445 99.8379,-376.6961 96.7534,-382.9799"/>
</g>
<!-- Node4 -->
<g id="node3" class="node">
<title>Node4</title>
<g id="a_node3"><a xlink:href="group__abl.html#gade410b3017ce291e93fe88acc769c9d6" target="_top" xlink:title="Define objects for surface integrals. ">
<polygon fill="#ffffff" stroke="#000000" points="102.5,-342.5 102.5,-361.5 150.5,-361.5 150.5,-342.5 102.5,-342.5"/>
<text text-anchor="middle" x="126.5" y="-349.5" font-family="Helvetica,sans-Serif" font-size="10.00" fill="#000000">set_obj</text>
</a>
</g>
</g>
<!-- Node2&#45;&gt;Node4 -->
<g id="edge2" class="edge">
<title>Node2&#45;&gt;Node4</title>
<path fill="none" stroke="#191970" d="M27.574,-209.6567C33.1529,-233.5228 50.5841,-296.0256 87,-333 88.8689,-334.8976 90.9652,-336.6315 93.1916,-338.2109"/>
<polygon fill="#191970" stroke="#191970" points="91.8309,-341.4728 102.2187,-343.557 95.3979,-335.4497 91.8309,-341.4728"/>
</g>
<!-- Node6 -->
<g id="node5" class="node">
<title>Node6</title>
<g id="a_node5"><a xlink:href="math_8f.html#af44de42b023a4a68cd98ea341204342d" target="_top" xlink:title="rzero">
<polygon fill="#ffffff" stroke="#000000" points="107.5,-304.5 107.5,-323.5 145.5,-323.5 145.5,-304.5 107.5,-304.5"/>
<text text-anchor="middle" x="126.5" y="-311.5" font-family="Helvetica,sans-Serif" font-size="10.00" fill="#000000">rzero</text>
</a>
</g>
</g>
<!-- Node2&#45;&gt;Node6 -->
<g id="edge4" class="edge">
<title>Node2&#45;&gt;Node6</title>
<path fill="none" stroke="#191970" d="M29.5424,-209.5834C37.8298,-228.2376 58.4023,-269.8008 87,-295 90.2758,-297.8865 94.0673,-300.4335 97.9789,-302.6482"/>
<polygon fill="#191970" stroke="#191970" points="96.6266,-305.8849 107.1375,-307.2163 99.751,-299.6209 96.6266,-305.8849"/>
</g>
<!-- Node7 -->
<g id="node6" class="node">
<title>Node7</title>
<g id="a_node6"><a xlink:href="navier5_8f.html#ae07d390b2886c4cf09b559441f55dd3f" target="_top" xlink:title="torque_calc">
<polygon fill="#ffffff" stroke="#000000" points="93,-266.5 93,-285.5 160,-285.5 160,-266.5 93,-266.5"/>
<text text-anchor="middle" x="126.5" y="-273.5" font-family="Helvetica,sans-Serif" font-size="10.00" fill="#000000">torque_calc</text>
</a>
</g>
</g>
<!-- Node2&#45;&gt;Node7 -->
<g id="edge5" class="edge">
<title>Node2&#45;&gt;Node7</title>
<path fill="none" stroke="#191970" d="M34.3344,-209.831C45.6564,-222.0197 66.3044,-242.9053 87,-257 89.4176,-258.6465 91.9997,-260.2269 94.6423,-261.7239"/>
<polygon fill="#191970" stroke="#191970" points="93.2266,-264.9332 103.7097,-266.4674 96.4714,-258.7307 93.2266,-264.9332"/>
</g>
<!-- Node8 -->
<g id="node7" class="node">
<title>Node8</title>
<g id="a_node7"><a xlink:href="navier5_8f.html#aef718c6a74c3602cfcd7871434619ee5" target="_top" xlink:title="gradm1">
<polygon fill="#ffffff" stroke="#000000" points="102,-228.5 102,-247.5 151,-247.5 151,-228.5 102,-228.5"/>
<text text-anchor="middle" x="126.5" y="-235.5" font-family="Helvetica,sans-Serif" font-size="10.00" fill="#000000">gradm1</text>
</a>
</g>
</g>
<!-- Node2&#45;&gt;Node8 -->
<g id="edge6" class="edge">
<title>Node2&#45;&gt;Node8</title>
<path fill="none" stroke="#191970" d="M50.9866,-209.589C63.4951,-214.2952 78.7428,-220.0319 92.2532,-225.1151"/>
<polygon fill="#191970" stroke="#191970" points="91.1279,-228.4312 101.7199,-228.6768 93.5929,-221.8795 91.1279,-228.4312"/>
</g>
<!-- Node9 -->
<g id="node8" class="node">
<title>Node9</title>
<g id="a_node8"><a xlink:href="prepost_8f.html#aacb528c0b28bc79dff8db48d7ae9ac64" target="_top" xlink:title="outpost">
<polygon fill="#ffffff" stroke="#000000" points="102,-190.5 102,-209.5 151,-209.5 151,-190.5 102,-190.5"/>
<text text-anchor="middle" x="126.5" y="-197.5" font-family="Helvetica,sans-Serif" font-size="10.00" fill="#000000">outpost</text>
</a>
</g>
</g>
<!-- Node2&#45;&gt;Node9 -->
<g id="edge7" class="edge">
<title>Node2&#45;&gt;Node9</title>
<path fill="none" stroke="#191970" d="M51.2479,-200C63.5149,-200 78.3707,-200 91.6313,-200"/>
<polygon fill="#191970" stroke="#191970" points="91.8441,-203.5001 101.8441,-200 91.8441,-196.5001 91.8441,-203.5001"/>
</g>
<!-- Node10 -->
<g id="node9" class="node">
<title>Node10</title>
<g id="a_node9"><a xlink:href="frame_8f.html#a3b2fa5ca96c4d901949ed15b9e1e459c" target="_top" xlink:title="Start framework. ">
<polygon fill="#ffffff" stroke="#000000" points="93.5,-152.5 93.5,-171.5 159.5,-171.5 159.5,-152.5 93.5,-152.5"/>
<text text-anchor="middle" x="126.5" y="-159.5" font-family="Helvetica,sans-Serif" font-size="10.00" fill="#000000">frame_start</text>
</a>
</g>
</g>
<!-- Node2&#45;&gt;Node10 -->
<g id="edge8" class="edge">
<title>Node2&#45;&gt;Node10</title>
<path fill="none" stroke="#191970" d="M50.9866,-190.411C63.307,-185.7756 78.2849,-180.1404 91.6426,-175.1147"/>
<polygon fill="#191970" stroke="#191970" points="92.8946,-178.3832 101.0216,-171.5859 90.4296,-171.8316 92.8946,-178.3832"/>
</g>
<!-- Node11 -->
<g id="node10" class="node">
<title>Node11</title>
<g id="a_node10"><a xlink:href="frame_8f.html#a3100879c73f67d2e4449da55049c8eae" target="_top" xlink:title="Simulataion monitoring. ">
<polygon fill="#ffffff" stroke="#000000" points="87,-114.5 87,-133.5 166,-133.5 166,-114.5 87,-114.5"/>
<text text-anchor="middle" x="126.5" y="-121.5" font-family="Helvetica,sans-Serif" font-size="10.00" fill="#000000">frame_monitor</text>
</a>
</g>
</g>
<!-- Node2&#45;&gt;Node11 -->
<g id="edge9" class="edge">
<title>Node2&#45;&gt;Node11</title>
<path fill="none" stroke="#191970" d="M34.3344,-190.169C45.6564,-177.9803 66.3044,-157.0947 87,-143 89.4176,-141.3535 91.9997,-139.7731 94.6423,-138.2761"/>
<polygon fill="#191970" stroke="#191970" points="96.4714,-141.2693 103.7097,-133.5326 93.2266,-135.0668 96.4714,-141.2693"/>
</g>
<!-- Node12 -->
<g id="node11" class="node">
<title>Node12</title>
<g id="a_node11"><a xlink:href="group__chkpoint.html#ga2d682999600b8303ea7c4850cb54c9ca" target="_top" xlink:title="Main checkpoint interface. ">
<polygon fill="#ffffff" stroke="#000000" points="93,-76.5 93,-95.5 160,-95.5 160,-76.5 93,-76.5"/>
<text text-anchor="middle" x="126.5" y="-83.5" font-family="Helvetica,sans-Serif" font-size="10.00" fill="#000000">chkpt_main</text>
</a>
</g>
</g>
<!-- Node2&#45;&gt;Node12 -->
<g id="edge10" class="edge">
<title>Node2&#45;&gt;Node12</title>
<path fill="none" stroke="#191970" d="M29.5424,-190.4166C37.8298,-171.7624 58.4023,-130.1992 87,-105 88.7164,-103.4876 90.5744,-102.0684 92.5171,-100.7413"/>
<polygon fill="#191970" stroke="#191970" points="94.5591,-103.6006 101.3998,-95.5101 91.0069,-97.5689 94.5591,-103.6006"/>
</g>
<!-- Node13 -->
<g id="node12" class="node">
<title>Node13</title>
<g id="a_node12"><a xlink:href="group__stat.html#ga16cd0d213c2bea15c7caf8c205241388" target="_top" xlink:title="Main interface of statistics module. ">
<polygon fill="#ffffff" stroke="#000000" points="99.5,-38.5 99.5,-57.5 153.5,-57.5 153.5,-38.5 99.5,-38.5"/>
<text text-anchor="middle" x="126.5" y="-45.5" font-family="Helvetica,sans-Serif" font-size="10.00" fill="#000000">stat_avg</text>
</a>
</g>
</g>
<!-- Node2&#45;&gt;Node13 -->
<g id="edge11" class="edge">
<title>Node2&#45;&gt;Node13</title>
<path fill="none" stroke="#191970" d="M27.574,-190.3433C33.1529,-166.4772 50.5841,-103.9744 87,-67 88.4017,-65.5768 89.9312,-64.2457 91.5477,-63.0028"/>
<polygon fill="#191970" stroke="#191970" points="93.617,-65.8343 100.1645,-57.5048 89.8517,-59.9332 93.617,-65.8343"/>
</g>
<!-- Node14 -->
<g id="node13" class="node">
<title>Node14</title>
<g id="a_node13"><a xlink:href="frame_8f.html#a81cd9de9df55590aae9e54090dd1a3ce" target="_top" xlink:title="Finalise framework. ">
<polygon fill="#ffffff" stroke="#000000" points="95.5,-.5 95.5,-19.5 157.5,-19.5 157.5,-.5 95.5,-.5"/>
<text text-anchor="middle" x="126.5" y="-7.5" font-family="Helvetica,sans-Serif" font-size="10.00" fill="#000000">frame_end</text>
</a>
</g>
</g>
<!-- Node2&#45;&gt;Node14 -->
<g id="edge12" class="edge">
<title>Node2&#45;&gt;Node14</title>
<path fill="none" stroke="#191970" d="M26.4455,-190.1863C29.6697,-161.7492 42.6281,-78.1997 87,-29 88.1563,-27.7179 89.4178,-26.5139 90.7569,-25.3841"/>
<polygon fill="#191970" stroke="#191970" points="92.7971,-28.2292 99.0812,-19.6992 88.8493,-22.4486 92.7971,-28.2292"/>
</g>
<!-- Node5 -->
<g id="node4" class="node">
<title>Node5</title>
<g id="a_node4"><a xlink:href="byte_8c.html#a2da8eeb074dfd3ffbfb3e9a4d301cda4" target="_top" xlink:title="exitt">
<polygon fill="#ffffff" stroke="#000000" points="202,-342.5 202,-361.5 237,-361.5 237,-342.5 202,-342.5"/>
<text text-anchor="middle" x="219.5" y="-349.5" font-family="Helvetica,sans-Serif" font-size="10.00" fill="#000000">exitt</text>
</a>
</g>
</g>
<!-- Node4&#45;&gt;Node5 -->
<g id="edge3" class="edge">
<title>Node4&#45;&gt;Node5</title>
<path fill="none" stroke="#191970" d="M150.9347,-352C163.4639,-352 178.7755,-352 191.7486,-352"/>
<polygon fill="#191970" stroke="#191970" points="191.9835,-355.5001 201.9835,-352 191.9835,-348.5001 191.9835,-355.5001"/>
</g>
</g>
</svg>
