<?xml version="1.0" encoding="UTF-8" standalone="no"?>
<!DOCTYPE svg PUBLIC "-//W3C//DTD SVG 1.1//EN"
 "http://www.w3.org/Graphics/SVG/1.1/DTD/svg11.dtd">
<!-- Generated by graphviz version 2.40.1 (20161225.0304)
 -->
<!-- Title: nek_end Pages: 1 -->
<svg width="144pt" height="66pt"
 viewBox="0.00 0.00 144.00 66.00" xmlns="http://www.w3.org/2000/svg" xmlns:xlink="http://www.w3.org/1999/xlink">
<g id="graph0" class="graph" transform="scale(1 1) rotate(0) translate(4 62)">
<title>nek_end</title>
<polygon fill="#ffffff" stroke="transparent" points="-4,4 -4,-62 140,-62 140,4 -4,4"/>
<!-- Node127 -->
<g id="node1" class="node">
<title>Node127</title>
<polygon fill="#bfbfbf" stroke="#000000" points="0,-19.5 0,-38.5 53,-38.5 53,-19.5 0,-19.5"/>
<text text-anchor="middle" x="26.5" y="-26.5" font-family="Helvetica,sans-Serif" font-size="10.00" fill="#000000">nek_end</text>
</g>
<!-- Node128 -->
<g id="node2" class="node">
<title>Node128</title>
<g id="a_node2"><a xlink:href="drive2_8f.html#a6637d27bdf1984d5964bd31465cd304a" target="_top" xlink:title="runstat">
<polygon fill="#ffffff" stroke="#000000" points="89,-38.5 89,-57.5 136,-57.5 136,-38.5 89,-38.5"/>
<text text-anchor="middle" x="112.5" y="-45.5" font-family="Helvetica,sans-Serif" font-size="10.00" fill="#000000">runstat</text>
</a>
</g>
</g>
<!-- Node127&#45;&gt;Node128 -->
<g id="edge1" class="edge">
<title>Node127&#45;&gt;Node128</title>
<path fill="none" stroke="#191970" d="M53.2395,-34.9076C61.3722,-36.7043 70.4149,-38.7021 78.9374,-40.585"/>
<polygon fill="#191970" stroke="#191970" points="78.4592,-44.0637 88.9788,-42.8035 79.9693,-37.2285 78.4592,-44.0637"/>
</g>
<!-- Node129 -->
<g id="node3" class="node">
<title>Node129</title>
<g id="a_node3"><a xlink:href="comm__mpi_8f.html#a7c71e890279f4933a841a2d97c7de4bd" target="_top" xlink:title="exitt0">
<polygon fill="#ffffff" stroke="#000000" points="92,-.5 92,-19.5 133,-19.5 133,-.5 92,-.5"/>
<text text-anchor="middle" x="112.5" y="-7.5" font-family="Helvetica,sans-Serif" font-size="10.00" fill="#000000">exitt0</text>
</a>
</g>
</g>
<!-- Node127&#45;&gt;Node129 -->
<g id="edge2" class="edge">
<title>Node127&#45;&gt;Node129</title>
<path fill="none" stroke="#191970" d="M53.2395,-23.0924C62.2674,-21.0979 72.4168,-18.8556 81.731,-16.7978"/>
<polygon fill="#191970" stroke="#191970" points="82.7785,-20.1509 91.788,-14.5759 81.2684,-13.3157 82.7785,-20.1509"/>
</g>
</g>
</svg>
