<?xml version="1.0" encoding="UTF-8" standalone="no"?>
<!DOCTYPE svg PUBLIC "-//W3C//DTD SVG 1.1//EN"
 "http://www.w3.org/Graphics/SVG/1.1/DTD/svg11.dtd">
<!-- Generated by graphviz version 2.43.0 (0)
 -->
<!-- Title: nek_end Pages: 1 -->
<svg width="153pt" height="66pt"
 viewBox="0.00 0.00 153.00 66.00" xmlns="http://www.w3.org/2000/svg" xmlns:xlink="http://www.w3.org/1999/xlink">
<g id="graph0" class="graph" transform="scale(1 1) rotate(0) translate(4 62)">
<title>nek_end</title>
<polygon fill="white" stroke="transparent" points="-4,4 -4,-62 149,-62 149,4 -4,4"/>
<!-- Node1 -->
<g id="node1" class="node">
<title>Node1</title>
<g id="a_node1"><a xlink:title="Complete simulation.">
<polygon fill="#bfbfbf" stroke="black" points="0,-19.5 0,-38.5 58,-38.5 58,-19.5 0,-19.5"/>
<text text-anchor="middle" x="29" y="-26.5" font-family="Helvetica,sans-Serif" font-size="10.00">nek_end</text>
</a>
</g>
</g>
<!-- Node2 -->
<g id="node2" class="node">
<title>Node2</title>
<g id="a_node2"><a xlink:href="comm__mpi_8f.html#a7c71e890279f4933a841a2d97c7de4bd" target="_top" xlink:title=" ">
<polygon fill="white" stroke="black" points="97,-38.5 97,-57.5 142,-57.5 142,-38.5 97,-38.5"/>
<text text-anchor="middle" x="119.5" y="-45.5" font-family="Helvetica,sans-Serif" font-size="10.00">exitt0</text>
</a>
</g>
</g>
<!-- Node1&#45;&gt;Node2 -->
<g id="edge1" class="edge">
<title>Node1&#45;&gt;Node2</title>
<path fill="none" stroke="midnightblue" d="M58,-35.01C67.22,-36.99 77.54,-39.21 87.01,-41.24"/>
<polygon fill="midnightblue" stroke="midnightblue" points="86.34,-44.67 96.85,-43.35 87.81,-37.83 86.34,-44.67"/>
</g>
<!-- Node3 -->
<g id="node3" class="node">
<title>Node3</title>
<g id="a_node3"><a xlink:href="drive2_8f.html#a6637d27bdf1984d5964bd31465cd304a" target="_top" xlink:title=" ">
<polygon fill="white" stroke="black" points="94,-0.5 94,-19.5 145,-19.5 145,-0.5 94,-0.5"/>
<text text-anchor="middle" x="119.5" y="-7.5" font-family="Helvetica,sans-Serif" font-size="10.00">runstat</text>
</a>
</g>
</g>
<!-- Node1&#45;&gt;Node3 -->
<g id="edge2" class="edge">
<title>Node1&#45;&gt;Node3</title>
<path fill="none" stroke="midnightblue" d="M58,-22.99C66.3,-21.21 75.48,-19.23 84.14,-17.38"/>
<polygon fill="midnightblue" stroke="midnightblue" points="84.92,-20.79 93.97,-15.27 83.45,-13.94 84.92,-20.79"/>
</g>
</g>
</svg>
