<?xml version="1.0" encoding="UTF-8" standalone="no"?>
<!DOCTYPE svg PUBLIC "-//W3C//DTD SVG 1.1//EN"
 "http://www.w3.org/Graphics/SVG/1.1/DTD/svg11.dtd">
<!-- Generated by graphviz version 2.40.1 (20161225.0304)
 -->
<!-- Title: makef Pages: 1 -->
<svg width="147pt" height="294pt"
 viewBox="0.00 0.00 147.00 294.00" xmlns="http://www.w3.org/2000/svg" xmlns:xlink="http://www.w3.org/1999/xlink">
<g id="graph0" class="graph" transform="scale(1 1) rotate(0) translate(4 290)">
<title>makef</title>
<polygon fill="#ffffff" stroke="transparent" points="-4,4 -4,-290 143,-290 143,4 -4,4"/>
<!-- Node57 -->
<g id="node1" class="node">
<title>Node57</title>
<polygon fill="#bfbfbf" stroke="#000000" points="0,-133.5 0,-152.5 44,-152.5 44,-133.5 0,-133.5"/>
<text text-anchor="middle" x="22" y="-140.5" font-family="Helvetica,sans-Serif" font-size="10.00" fill="#000000">makef</text>
</g>
<!-- Node58 -->
<g id="node2" class="node">
<title>Node58</title>
<g id="a_node2"><a xlink:href="navier1_8f.html#a04edbb4ba3cfada4513a76a4e65a5561" target="_top" xlink:title="makeuf">
<polygon fill="#ffffff" stroke="#000000" points="85,-266.5 85,-285.5 134,-285.5 134,-266.5 85,-266.5"/>
<text text-anchor="middle" x="109.5" y="-273.5" font-family="Helvetica,sans-Serif" font-size="10.00" fill="#000000">makeuf</text>
</a>
</g>
</g>
<!-- Node57&#45;&gt;Node58 -->
<g id="edge1" class="edge">
<title>Node57&#45;&gt;Node58</title>
<path fill="none" stroke="#191970" d="M24.9403,-152.561C31.7623,-173.511 50.3793,-224.2074 80,-257 80.9953,-258.1019 82.0686,-259.1662 83.1958,-260.1902"/>
<polygon fill="#191970" stroke="#191970" points="81.1088,-263.0005 91.1666,-266.3309 85.3809,-257.4553 81.1088,-263.0005"/>
</g>
<!-- Node59 -->
<g id="node3" class="node">
<title>Node59</title>
<g id="a_node3"><a xlink:href="hpf_8f.html#aa74c82c5e339de802f489470b23422a0" target="_top" xlink:title="make_hpf">
<polygon fill="#ffffff" stroke="#000000" points="80,-228.5 80,-247.5 139,-247.5 139,-228.5 80,-228.5"/>
<text text-anchor="middle" x="109.5" y="-235.5" font-family="Helvetica,sans-Serif" font-size="10.00" fill="#000000">make_hpf</text>
</a>
</g>
</g>
<!-- Node57&#45;&gt;Node59 -->
<g id="edge2" class="edge">
<title>Node57&#45;&gt;Node59</title>
<path fill="none" stroke="#191970" d="M27.8584,-152.7371C37.4158,-168.0845 57.5621,-198.2822 80,-219 81.2924,-220.1933 82.6685,-221.3591 84.0931,-222.4885"/>
<polygon fill="#191970" stroke="#191970" points="82.3585,-225.5498 92.5356,-228.4956 86.4168,-219.8463 82.3585,-225.5498"/>
</g>
<!-- Node60 -->
<g id="node4" class="node">
<title>Node60</title>
<g id="a_node4"><a xlink:href="navier1_8f.html#ae6ed8f0409f034c9d0dff152a3445d90" target="_top" xlink:title="makevis">
<polygon fill="#ffffff" stroke="#000000" points="83,-190.5 83,-209.5 136,-209.5 136,-190.5 83,-190.5"/>
<text text-anchor="middle" x="109.5" y="-197.5" font-family="Helvetica,sans-Serif" font-size="10.00" fill="#000000">makevis</text>
</a>
</g>
</g>
<!-- Node57&#45;&gt;Node60 -->
<g id="edge3" class="edge">
<title>Node57&#45;&gt;Node60</title>
<path fill="none" stroke="#191970" d="M36.7594,-152.7154C48.4689,-160.4122 65.2611,-171.4255 80,-181 81.9093,-182.2403 83.89,-183.5235 85.8803,-184.8105"/>
<polygon fill="#191970" stroke="#191970" points="84.1774,-187.877 94.478,-190.3568 87.9721,-181.9947 84.1774,-187.877"/>
</g>
<!-- Node61 -->
<g id="node5" class="node">
<title>Node61</title>
<g id="a_node5"><a xlink:href="navier1_8f.html#a344ec731e4a89d0f136c91bc1963e8d5" target="_top" xlink:title="advab">
<polygon fill="#ffffff" stroke="#000000" points="88,-152.5 88,-171.5 131,-171.5 131,-152.5 88,-152.5"/>
<text text-anchor="middle" x="109.5" y="-159.5" font-family="Helvetica,sans-Serif" font-size="10.00" fill="#000000">advab</text>
</a>
</g>
</g>
<!-- Node57&#45;&gt;Node61 -->
<g id="edge4" class="edge">
<title>Node57&#45;&gt;Node61</title>
<path fill="none" stroke="#191970" d="M44.0799,-147.7945C54.313,-150.0165 66.6621,-152.698 77.8617,-155.13"/>
<polygon fill="#191970" stroke="#191970" points="77.2152,-158.5711 87.7302,-157.2728 78.7007,-151.7305 77.2152,-158.5711"/>
</g>
<!-- Node62 -->
<g id="node6" class="node">
<title>Node62</title>
<g id="a_node6"><a xlink:href="mvmesh_8f.html#a1b9c194ae1f554f335f3d6c21eacded3" target="_top" xlink:title="admeshv">
<polygon fill="#ffffff" stroke="#000000" points="81.5,-114.5 81.5,-133.5 137.5,-133.5 137.5,-114.5 81.5,-114.5"/>
<text text-anchor="middle" x="109.5" y="-121.5" font-family="Helvetica,sans-Serif" font-size="10.00" fill="#000000">admeshv</text>
</a>
</g>
</g>
<!-- Node57&#45;&gt;Node62 -->
<g id="edge5" class="edge">
<title>Node57&#45;&gt;Node62</title>
<path fill="none" stroke="#191970" d="M44.0799,-138.2055C52.4081,-136.3971 62.1379,-134.2843 71.5089,-132.2495"/>
<polygon fill="#191970" stroke="#191970" points="72.4239,-135.6325 81.4534,-130.0901 70.9384,-128.7919 72.4239,-135.6325"/>
</g>
<!-- Node63 -->
<g id="node7" class="node">
<title>Node63</title>
<g id="a_node7"><a xlink:href="navier1_8f.html#ab907b0b4f57c160c86799b03de3cef19" target="_top" xlink:title="makeabf">
<polygon fill="#ffffff" stroke="#000000" points="82.5,-76.5 82.5,-95.5 136.5,-95.5 136.5,-76.5 82.5,-76.5"/>
<text text-anchor="middle" x="109.5" y="-83.5" font-family="Helvetica,sans-Serif" font-size="10.00" fill="#000000">makeabf</text>
</a>
</g>
</g>
<!-- Node57&#45;&gt;Node63 -->
<g id="edge6" class="edge">
<title>Node57&#45;&gt;Node63</title>
<path fill="none" stroke="#191970" d="M36.7594,-133.2846C48.4689,-125.5878 65.2611,-114.5745 80,-105 81.9093,-103.7597 83.89,-102.4765 85.8803,-101.1895"/>
<polygon fill="#191970" stroke="#191970" points="87.9721,-104.0053 94.478,-95.6432 84.1774,-98.123 87.9721,-104.0053"/>
</g>
<!-- Node64 -->
<g id="node8" class="node">
<title>Node64</title>
<g id="a_node8"><a xlink:href="navier1_8f.html#a0510a60155ebc71a3acda4b1e7e507e5" target="_top" xlink:title="makebdf">
<polygon fill="#ffffff" stroke="#000000" points="82.5,-38.5 82.5,-57.5 136.5,-57.5 136.5,-38.5 82.5,-38.5"/>
<text text-anchor="middle" x="109.5" y="-45.5" font-family="Helvetica,sans-Serif" font-size="10.00" fill="#000000">makebdf</text>
</a>
</g>
</g>
<!-- Node57&#45;&gt;Node64 -->
<g id="edge7" class="edge">
<title>Node57&#45;&gt;Node64</title>
<path fill="none" stroke="#191970" d="M27.8584,-133.2629C37.4158,-117.9155 57.5621,-87.7178 80,-67 81.2924,-65.8067 82.6685,-64.6409 84.0931,-63.5115"/>
<polygon fill="#191970" stroke="#191970" points="86.4168,-66.1537 92.5356,-57.5044 82.3585,-60.4502 86.4168,-66.1537"/>
</g>
<!-- Node65 -->
<g id="node9" class="node">
<title>Node65</title>
<g id="a_node9"><a xlink:href="convect_8f.html#afc0b2ce765c4ad0f0ec6f2a62536bf57" target="_top" xlink:title="advchar">
<polygon fill="#ffffff" stroke="#000000" points="84,-.5 84,-19.5 135,-19.5 135,-.5 84,-.5"/>
<text text-anchor="middle" x="109.5" y="-7.5" font-family="Helvetica,sans-Serif" font-size="10.00" fill="#000000">advchar</text>
</a>
</g>
</g>
<!-- Node57&#45;&gt;Node65 -->
<g id="edge8" class="edge">
<title>Node57&#45;&gt;Node65</title>
<path fill="none" stroke="#191970" d="M24.9403,-133.439C31.7623,-112.489 50.3793,-61.7926 80,-29 80.9953,-27.8981 82.0686,-26.8338 83.1958,-25.8098"/>
<polygon fill="#191970" stroke="#191970" points="85.3809,-28.5447 91.1666,-19.6691 81.1088,-22.9995 85.3809,-28.5447"/>
</g>
</g>
</svg>
