<?xml version="1.0" encoding="UTF-8" standalone="no"?>
<!DOCTYPE svg PUBLIC "-//W3C//DTD SVG 1.1//EN"
 "http://www.w3.org/Graphics/SVG/1.1/DTD/svg11.dtd">
<!-- Generated by graphviz version 2.40.1 (20161225.0304)
 -->
<!-- Title: usrdat Pages: 1 -->
<svg width="126pt" height="104pt"
 viewBox="0.00 0.00 126.00 104.00" xmlns="http://www.w3.org/2000/svg" xmlns:xlink="http://www.w3.org/1999/xlink">
<g id="graph0" class="graph" transform="scale(1 1) rotate(0) translate(4 100)">
<title>usrdat</title>
<polygon fill="#ffffff" stroke="transparent" points="-4,4 -4,-100 122,-100 122,4 -4,4"/>
<!-- Node42 -->
<g id="node1" class="node">
<title>Node42</title>
<polygon fill="#bfbfbf" stroke="#000000" points="0,-38.5 0,-57.5 44,-57.5 44,-38.5 0,-38.5"/>
<text text-anchor="middle" x="22" y="-45.5" font-family="Helvetica,sans-Serif" font-size="10.00" fill="#000000">usrdat</text>
</g>
<!-- Node43 -->
<g id="node2" class="node">
<title>Node43</title>
<g id="a_node2"><a xlink:href="comm__mpi_8f.html#a2e339eee45a784b56cbc42c452263761" target="_top" xlink:title="igop">
<polygon fill="#ffffff" stroke="#000000" points="81.5,-76.5 81.5,-95.5 116.5,-95.5 116.5,-76.5 81.5,-76.5"/>
<text text-anchor="middle" x="99" y="-83.5" font-family="Helvetica,sans-Serif" font-size="10.00" fill="#000000">igop</text>
</a>
</g>
</g>
<!-- Node42&#45;&gt;Node43 -->
<g id="edge1" class="edge">
<title>Node42&#45;&gt;Node43</title>
<path fill="none" stroke="#191970" d="M41.4304,-57.589C50.7487,-62.1877 62.0609,-67.7703 72.183,-72.7657"/>
<polygon fill="#191970" stroke="#191970" points="70.9027,-76.0368 81.4191,-77.3237 74.0006,-69.7596 70.9027,-76.0368"/>
</g>
<!-- Node44 -->
<g id="node3" class="node">
<title>Node44</title>
<g id="a_node3"><a xlink:href="comm__mpi_8f.html#a59fcf8a02fe54ab37f61050e3ca6b197" target="_top" xlink:title="exitti">
<polygon fill="#ffffff" stroke="#000000" points="80,-38.5 80,-57.5 118,-57.5 118,-38.5 80,-38.5"/>
<text text-anchor="middle" x="99" y="-45.5" font-family="Helvetica,sans-Serif" font-size="10.00" fill="#000000">exitti</text>
</a>
</g>
</g>
<!-- Node42&#45;&gt;Node44 -->
<g id="edge2" class="edge">
<title>Node42&#45;&gt;Node44</title>
<path fill="none" stroke="#191970" d="M44.2716,-48C52.204,-48 61.2615,-48 69.694,-48"/>
<polygon fill="#191970" stroke="#191970" points="69.9091,-51.5001 79.9091,-48 69.9091,-44.5001 69.9091,-51.5001"/>
</g>
<!-- Node45 -->
<g id="node4" class="node">
<title>Node45</title>
<g id="a_node4"><a xlink:href="math_8f.html#add7cf4f5279a2239cfd54f963a53e618" target="_top" xlink:title="cfill">
<polygon fill="#ffffff" stroke="#000000" points="83,-.5 83,-19.5 115,-19.5 115,-.5 83,-.5"/>
<text text-anchor="middle" x="99" y="-7.5" font-family="Helvetica,sans-Serif" font-size="10.00" fill="#000000">cfill</text>
</a>
</g>
</g>
<!-- Node42&#45;&gt;Node45 -->
<g id="edge3" class="edge">
<title>Node42&#45;&gt;Node45</title>
<path fill="none" stroke="#191970" d="M41.4304,-38.411C51.2541,-33.5629 63.2939,-27.6212 73.819,-22.427"/>
<polygon fill="#191970" stroke="#191970" points="75.5335,-25.4839 82.952,-17.9198 72.4356,-19.2067 75.5335,-25.4839"/>
</g>
</g>
</svg>
