<?xml version="1.0" encoding="UTF-8" standalone="no"?>
<!DOCTYPE svg PUBLIC "-//W3C//DTD SVG 1.1//EN"
 "http://www.w3.org/Graphics/SVG/1.1/DTD/svg11.dtd">
<!-- Generated by graphviz version 2.40.1 (20161225.0304)
 -->
<!-- Title: comp_gije Pages: 1 -->
<svg width="356pt" height="218pt"
 viewBox="0.00 0.00 356.00 218.00" xmlns="http://www.w3.org/2000/svg" xmlns:xlink="http://www.w3.org/1999/xlink">
<g id="graph0" class="graph" transform="scale(1 1) rotate(0) translate(4 214)">
<title>comp_gije</title>
<polygon fill="#ffffff" stroke="transparent" points="-4,4 -4,-214 352,-214 352,4 -4,4"/>
<!-- Node0 -->
<g id="node1" class="node">
<title>Node0</title>
<polygon fill="#bfbfbf" stroke="#000000" points="0,-95.5 0,-114.5 61,-114.5 61,-95.5 0,-95.5"/>
<text text-anchor="middle" x="30.5" y="-102.5" font-family="Helvetica,sans-Serif" font-size="10.00" fill="#000000">comp_gije</text>
</g>
<!-- Node1 -->
<g id="node2" class="node">
<title>Node1</title>
<g id="a_node2"><a xlink:href="group__postpro.html#gad24367e4a843f60b63a2205aef1ba551" target="_top" xlink:title="Uses mxm() to compute gradient of 3D arrays. ">
<polygon fill="#ffffff" stroke="#000000" points="97,-133.5 97,-152.5 163,-152.5 163,-133.5 97,-133.5"/>
<text text-anchor="middle" x="130" y="-140.5" font-family="Helvetica,sans-Serif" font-size="10.00" fill="#000000">local_grad3</text>
</a>
</g>
</g>
<!-- Node0&#45;&gt;Node1 -->
<g id="edge1" class="edge">
<title>Node0&#45;&gt;Node1</title>
<path fill="none" stroke="#191970" d="M55.6081,-114.589C67.6277,-119.1794 82.2147,-124.7503 95.2765,-129.7388"/>
<polygon fill="#191970" stroke="#191970" points="94.3093,-133.1159 104.9,-133.4141 96.8068,-126.5766 94.3093,-133.1159"/>
</g>
<!-- Node9 -->
<g id="node10" class="node">
<title>Node9</title>
<g id="a_node10"><a xlink:href="byte_8c.html#a2da8eeb074dfd3ffbfb3e9a4d301cda4" target="_top" xlink:title="exitt">
<polygon fill="#ffffff" stroke="#000000" points="112.5,-95.5 112.5,-114.5 147.5,-114.5 147.5,-95.5 112.5,-95.5"/>
<text text-anchor="middle" x="130" y="-102.5" font-family="Helvetica,sans-Serif" font-size="10.00" fill="#000000">exitt</text>
</a>
</g>
</g>
<!-- Node0&#45;&gt;Node9 -->
<g id="edge9" class="edge">
<title>Node0&#45;&gt;Node9</title>
<path fill="none" stroke="#191970" d="M61.1652,-105C74.2804,-105 89.4815,-105 102.2574,-105"/>
<polygon fill="#191970" stroke="#191970" points="102.3198,-108.5001 112.3198,-105 102.3197,-101.5001 102.3198,-108.5001"/>
</g>
<!-- Node10 -->
<g id="node11" class="node">
<title>Node10</title>
<g id="a_node11"><a xlink:href="group__postpro.html#ga53feb767cebebba399ab3c5a50f53155" target="_top" xlink:title="Uses mxm() to compute gradient of 2D arrays. ">
<polygon fill="#ffffff" stroke="#000000" points="97,-57.5 97,-76.5 163,-76.5 163,-57.5 97,-57.5"/>
<text text-anchor="middle" x="130" y="-64.5" font-family="Helvetica,sans-Serif" font-size="10.00" fill="#000000">local_grad2</text>
</a>
</g>
</g>
<!-- Node0&#45;&gt;Node10 -->
<g id="edge10" class="edge">
<title>Node0&#45;&gt;Node10</title>
<path fill="none" stroke="#191970" d="M55.6081,-95.411C67.6277,-90.8206 82.2147,-85.2497 95.2765,-80.2612"/>
<polygon fill="#191970" stroke="#191970" points="96.8068,-83.4234 104.9,-76.5859 94.3093,-76.8841 96.8068,-83.4234"/>
</g>
<!-- Node2 -->
<g id="node3" class="node">
<title>Node2</title>
<g id="a_node3"><a xlink:href="group__postpro.html#gab9ec2260a10061af6ce1c52f3c8a41da" target="_top" xlink:title="Compute matrix&#45;matrix product C = A*B for contiguously packed matrices A,B, and C. ">
<polygon fill="#ffffff" stroke="#000000" points="199,-95.5 199,-114.5 237,-114.5 237,-95.5 199,-95.5"/>
<text text-anchor="middle" x="218" y="-102.5" font-family="Helvetica,sans-Serif" font-size="10.00" fill="#000000">mxm</text>
</a>
</g>
</g>
<!-- Node1&#45;&gt;Node2 -->
<g id="edge2" class="edge">
<title>Node1&#45;&gt;Node2</title>
<path fill="none" stroke="#191970" d="M152.2061,-133.411C163.5358,-128.5186 177.4448,-122.5125 189.5511,-117.2848"/>
<polygon fill="#191970" stroke="#191970" points="190.9969,-120.4729 198.79,-113.2952 188.2218,-114.0464 190.9969,-120.4729"/>
</g>
<!-- Node3 -->
<g id="node4" class="node">
<title>Node3</title>
<g id="a_node4"><a xlink:href="comm__mpi_8f.html#af06ec29f06aac3f8809e19de2a7e8946" target="_top" xlink:title="dnekclock">
<polygon fill="#ffffff" stroke="#000000" points="280,-190.5 280,-209.5 341,-209.5 341,-190.5 280,-190.5"/>
<text text-anchor="middle" x="310.5" y="-197.5" font-family="Helvetica,sans-Serif" font-size="10.00" fill="#000000">dnekclock</text>
</a>
</g>
</g>
<!-- Node2&#45;&gt;Node3 -->
<g id="edge3" class="edge">
<title>Node2&#45;&gt;Node3</title>
<path fill="none" stroke="#191970" d="M222.92,-114.5276C231.3661,-130.1232 249.9603,-161.3302 273,-181 274.7138,-182.4631 276.5596,-183.8497 278.4808,-185.1569"/>
<polygon fill="#191970" stroke="#191970" points="276.8296,-188.2474 287.2095,-190.371 280.4194,-182.238 276.8296,-188.2474"/>
</g>
<!-- Node4 -->
<g id="node5" class="node">
<title>Node4</title>
<g id="a_node5"><a xlink:href="mxm__bgq_8f.html#a8faaef428336095704ece51624bbfe92" target="_top" xlink:title="mxm_bgq_8">
<polygon fill="#ffffff" stroke="#000000" points="275.5,-152.5 275.5,-171.5 345.5,-171.5 345.5,-152.5 275.5,-152.5"/>
<text text-anchor="middle" x="310.5" y="-159.5" font-family="Helvetica,sans-Serif" font-size="10.00" fill="#000000">mxm_bgq_8</text>
</a>
</g>
</g>
<!-- Node2&#45;&gt;Node4 -->
<g id="edge4" class="edge">
<title>Node2&#45;&gt;Node4</title>
<path fill="none" stroke="#191970" d="M230.7851,-114.5709C241.728,-122.5813 258.0394,-134.0975 273,-143 275.6734,-144.5909 278.4962,-146.1787 281.3445,-147.7204"/>
<polygon fill="#191970" stroke="#191970" points="279.8933,-150.911 290.3779,-152.4352 283.1322,-144.7054 279.8933,-150.911"/>
</g>
<!-- Node5 -->
<g id="node6" class="node">
<title>Node5</title>
<g id="a_node6"><a xlink:href="mxm__bgq_8f.html#a3fda9ea4bc7a5713a19d6939fa2b541f" target="_top" xlink:title="mxm_bgq_16">
<polygon fill="#ffffff" stroke="#000000" points="273,-114.5 273,-133.5 348,-133.5 348,-114.5 273,-114.5"/>
<text text-anchor="middle" x="310.5" y="-121.5" font-family="Helvetica,sans-Serif" font-size="10.00" fill="#000000">mxm_bgq_16</text>
</a>
</g>
</g>
<!-- Node2&#45;&gt;Node5 -->
<g id="edge5" class="edge">
<title>Node2&#45;&gt;Node5</title>
<path fill="none" stroke="#191970" d="M237.1661,-108.9368C244.7052,-110.4854 253.7267,-112.3385 262.822,-114.2067"/>
<polygon fill="#191970" stroke="#191970" points="262.1539,-117.6424 272.6536,-116.2261 263.5624,-110.7856 262.1539,-117.6424"/>
</g>
<!-- Node6 -->
<g id="node7" class="node">
<title>Node6</title>
<g id="a_node7"><a xlink:href="mxm__bgq_8f.html#a8a70163b4dbfdbfcce7bff170597fcad" target="_top" xlink:title="mxm_bgq_10">
<polygon fill="#ffffff" stroke="#000000" points="273,-76.5 273,-95.5 348,-95.5 348,-76.5 273,-76.5"/>
<text text-anchor="middle" x="310.5" y="-83.5" font-family="Helvetica,sans-Serif" font-size="10.00" fill="#000000">mxm_bgq_10</text>
</a>
</g>
</g>
<!-- Node2&#45;&gt;Node6 -->
<g id="edge6" class="edge">
<title>Node2&#45;&gt;Node6</title>
<path fill="none" stroke="#191970" d="M237.1661,-101.0632C244.7052,-99.5146 253.7267,-97.6615 262.822,-95.7933"/>
<polygon fill="#191970" stroke="#191970" points="263.5624,-99.2144 272.6536,-93.7739 262.1539,-92.3576 263.5624,-99.2144"/>
</g>
<!-- Node7 -->
<g id="node8" class="node">
<title>Node7</title>
<g id="a_node8"><a xlink:href="mxm__bgq_8f.html#af192c3c8b982aa5bbc2a757156718a91" target="_top" xlink:title="mxm_bgq_6">
<polygon fill="#ffffff" stroke="#000000" points="275.5,-38.5 275.5,-57.5 345.5,-57.5 345.5,-38.5 275.5,-38.5"/>
<text text-anchor="middle" x="310.5" y="-45.5" font-family="Helvetica,sans-Serif" font-size="10.00" fill="#000000">mxm_bgq_6</text>
</a>
</g>
</g>
<!-- Node2&#45;&gt;Node7 -->
<g id="edge7" class="edge">
<title>Node2&#45;&gt;Node7</title>
<path fill="none" stroke="#191970" d="M230.7851,-95.4291C241.728,-87.4187 258.0394,-75.9025 273,-67 275.6734,-65.4091 278.4962,-63.8213 281.3445,-62.2796"/>
<polygon fill="#191970" stroke="#191970" points="283.1322,-65.2946 290.3779,-57.5648 279.8933,-59.089 283.1322,-65.2946"/>
</g>
<!-- Node8 -->
<g id="node9" class="node">
<title>Node8</title>
<g id="a_node9"><a xlink:href="mxm__std_8f.html#aa9e8685c4a72f18fb5d1ee88ed17a3d6" target="_top" xlink:title="mxmf2">
<polygon fill="#ffffff" stroke="#000000" points="287,-.5 287,-19.5 334,-19.5 334,-.5 287,-.5"/>
<text text-anchor="middle" x="310.5" y="-7.5" font-family="Helvetica,sans-Serif" font-size="10.00" fill="#000000">mxmf2</text>
</a>
</g>
</g>
<!-- Node2&#45;&gt;Node8 -->
<g id="edge8" class="edge">
<title>Node2&#45;&gt;Node8</title>
<path fill="none" stroke="#191970" d="M222.92,-95.4724C231.3661,-79.8768 249.9603,-48.6698 273,-29 274.7138,-27.5369 276.5596,-26.1503 278.4808,-24.8431"/>
<polygon fill="#191970" stroke="#191970" points="280.4194,-27.762 287.2095,-19.629 276.8296,-21.7526 280.4194,-27.762"/>
</g>
<!-- Node10&#45;&gt;Node2 -->
<g id="edge11" class="edge">
<title>Node10&#45;&gt;Node2</title>
<path fill="none" stroke="#191970" d="M152.2061,-76.589C163.5358,-81.4814 177.4448,-87.4875 189.5511,-92.7152"/>
<polygon fill="#191970" stroke="#191970" points="188.2218,-95.9536 198.79,-96.7048 190.9969,-89.5271 188.2218,-95.9536"/>
</g>
</g>
</svg>
