<?xml version="1.0" encoding="UTF-8" standalone="no"?>
<!DOCTYPE svg PUBLIC "-//W3C//DTD SVG 1.1//EN"
 "http://www.w3.org/Graphics/SVG/1.1/DTD/svg11.dtd">
<!-- Generated by graphviz version 2.40.1 (20161225.0304)
 -->
<!-- Title: rprm_rp_reg Pages: 1 -->
<svg width="204pt" height="142pt"
 viewBox="0.00 0.00 204.00 142.00" xmlns="http://www.w3.org/2000/svg" xmlns:xlink="http://www.w3.org/1999/xlink">
<g id="graph0" class="graph" transform="scale(1 1) rotate(0) translate(4 138)">
<title>rprm_rp_reg</title>
<polygon fill="#ffffff" stroke="transparent" points="-4,4 -4,-138 200,-138 200,4 -4,4"/>
<!-- Node0 -->
<g id="node1" class="node">
<title>Node0</title>
<polygon fill="#bfbfbf" stroke="#000000" points="0,-57.5 0,-76.5 68,-76.5 68,-57.5 0,-57.5"/>
<text text-anchor="middle" x="34" y="-64.5" font-family="Helvetica,sans-Serif" font-size="10.00" fill="#000000">rprm_rp_reg</text>
</g>
<!-- Node1 -->
<g id="node2" class="node">
<title>Node1</title>
<g id="a_node2"><a xlink:href="group__chkpoint.html#gab4a17862a5f644ef26e2538240fc3ae8" target="_top" xlink:title="Register checkpointing module. ">
<polygon fill="#ffffff" stroke="#000000" points="111,-114.5 111,-133.5 189,-133.5 189,-114.5 111,-114.5"/>
<text text-anchor="middle" x="150" y="-121.5" font-family="Helvetica,sans-Serif" font-size="10.00" fill="#000000">chkpt_register</text>
</a>
</g>
</g>
<!-- Node0&#45;&gt;Node1 -->
<g id="edge1" class="edge">
<title>Node0&#45;&gt;Node1</title>
<path fill="none" stroke="#191970" d="M59.3628,-81.6086C72.5106,-88.9656 88.9313,-97.8225 104,-105 110.8647,-108.2698 118.4455,-111.5367 125.4389,-114.4164"/>
<polygon fill="#191970" stroke="#191970" points="60.8616,-78.4354 50.4337,-76.5621 57.4174,-84.5295 60.8616,-78.4354"/>
</g>
<!-- Node2 -->
<g id="node3" class="node">
<title>Node2</title>
<g id="a_node3"><a xlink:href="group__monitor.html#gad8a160fa3c099342abc581c5073a5744" target="_top" xlink:title="Register monitor runtime parameters. ">
<polygon fill="#ffffff" stroke="#000000" points="104,-76.5 104,-95.5 196,-95.5 196,-76.5 104,-76.5"/>
<text text-anchor="middle" x="150" y="-83.5" font-family="Helvetica,sans-Serif" font-size="10.00" fill="#000000">mntr_register_par</text>
</a>
</g>
</g>
<!-- Node0&#45;&gt;Node2 -->
<g id="edge2" class="edge">
<title>Node0&#45;&gt;Node2</title>
<path fill="none" stroke="#191970" d="M78.0995,-74.2232C86.4415,-75.5896 95.1911,-77.0227 103.6015,-78.4002"/>
<polygon fill="#191970" stroke="#191970" points="78.6107,-70.7604 68.1764,-72.5979 77.4792,-77.6683 78.6107,-70.7604"/>
</g>
<!-- Node3 -->
<g id="node4" class="node">
<title>Node3</title>
<g id="a_node4"><a xlink:href="group__runparam.html#ga0a358e8c1cfec90802d0529ace7bcd4e" target="_top" xlink:title="Register runtime parameters database. ">
<polygon fill="#ffffff" stroke="#000000" points="113,-38.5 113,-57.5 187,-57.5 187,-38.5 113,-38.5"/>
<text text-anchor="middle" x="150" y="-45.5" font-family="Helvetica,sans-Serif" font-size="10.00" fill="#000000">rprm_register</text>
</a>
</g>
</g>
<!-- Node0&#45;&gt;Node3 -->
<g id="edge3" class="edge">
<title>Node0&#45;&gt;Node3</title>
<path fill="none" stroke="#191970" d="M78.3613,-59.7339C89.7378,-57.8705 101.8564,-55.8856 112.8282,-54.0885"/>
<polygon fill="#191970" stroke="#191970" points="77.4792,-56.3317 68.1764,-61.4021 78.6107,-63.2396 77.4792,-56.3317"/>
</g>
<!-- Node4 -->
<g id="node5" class="node">
<title>Node4</title>
<g id="a_node5"><a xlink:href="group__stat.html#ga5b0d78dee858f1d9efcd6ce57aeb5ec8" target="_top" xlink:title="Register 2D and 3D statistics module. ">
<polygon fill="#ffffff" stroke="#000000" points="114.5,-.5 114.5,-19.5 185.5,-19.5 185.5,-.5 114.5,-.5"/>
<text text-anchor="middle" x="150" y="-7.5" font-family="Helvetica,sans-Serif" font-size="10.00" fill="#000000">stat_register</text>
</a>
</g>
</g>
<!-- Node0&#45;&gt;Node4 -->
<g id="edge4" class="edge">
<title>Node0&#45;&gt;Node4</title>
<path fill="none" stroke="#191970" d="M59.3628,-52.3914C72.5106,-45.0344 88.9313,-36.1775 104,-29 110.8647,-25.7302 118.4455,-22.4633 125.4389,-19.5836"/>
<polygon fill="#191970" stroke="#191970" points="57.4174,-49.4705 50.4337,-57.4379 60.8616,-55.5646 57.4174,-49.4705"/>
</g>
</g>
</svg>
