<?xml version="1.0" encoding="UTF-8" standalone="no"?>
<!DOCTYPE svg PUBLIC "-//W3C//DTD SVG 1.1//EN"
 "http://www.w3.org/Graphics/SVG/1.1/DTD/svg11.dtd">
<!-- Generated by graphviz version 2.40.1 (20161225.0304)
 -->
<!-- Title: fluid Pages: 1 -->
<svg width="331pt" height="902pt"
 viewBox="0.00 0.00 331.00 902.00" xmlns="http://www.w3.org/2000/svg" xmlns:xlink="http://www.w3.org/1999/xlink">
<g id="graph0" class="graph" transform="scale(1 1) rotate(0) translate(4 898)">
<title>fluid</title>
<polygon fill="#ffffff" stroke="transparent" points="-4,4 -4,-898 327,-898 327,4 -4,4"/>
<!-- Node0 -->
<g id="node1" class="node">
<title>Node0</title>
<polygon fill="#bfbfbf" stroke="#000000" points="0,-551.5 0,-570.5 35,-570.5 35,-551.5 0,-551.5"/>
<text text-anchor="middle" x="17.5" y="-558.5" font-family="Helvetica,sans-Serif" font-size="10.00" fill="#000000">fluid</text>
</g>
<!-- Node1 -->
<g id="node2" class="node">
<title>Node1</title>
<g id="a_node2"><a xlink:href="subs1_8f.html#a8f2e17fa9df4e1df865aa17b294f867c" target="_top" xlink:title="unorm">
<polygon fill="#ffffff" stroke="#000000" points="78.5,-703.5 78.5,-722.5 122.5,-722.5 122.5,-703.5 78.5,-703.5"/>
<text text-anchor="middle" x="100.5" y="-710.5" font-family="Helvetica,sans-Serif" font-size="10.00" fill="#000000">unorm</text>
</a>
</g>
</g>
<!-- Node0&#45;&gt;Node1 -->
<g id="edge1" class="edge">
<title>Node0&#45;&gt;Node1</title>
<path fill="none" stroke="#191970" d="M19.2919,-570.7332C24.0345,-594.2423 38.8195,-655.0509 71,-694 71.8294,-695.0038 72.7259,-695.9725 73.6726,-696.9049"/>
<polygon fill="#191970" stroke="#191970" points="71.6489,-699.7691 81.6299,-703.3231 76.0436,-694.3206 71.6489,-699.7691"/>
</g>
<!-- Node2 -->
<g id="node3" class="node">
<title>Node2</title>
<g id="a_node3"><a xlink:href="ssolv_8f.html#a2042097d2d5ef6c25e65f059e2c56756" target="_top" xlink:title="settolv">
<polygon fill="#ffffff" stroke="#000000" points="77.5,-665.5 77.5,-684.5 123.5,-684.5 123.5,-665.5 77.5,-665.5"/>
<text text-anchor="middle" x="100.5" y="-672.5" font-family="Helvetica,sans-Serif" font-size="10.00" fill="#000000">settolv</text>
</a>
</g>
</g>
<!-- Node0&#45;&gt;Node2 -->
<g id="edge2" class="edge">
<title>Node0&#45;&gt;Node2</title>
<path fill="none" stroke="#191970" d="M21.0734,-570.598C28.2602,-588.9188 45.9451,-629.4133 71,-656 72.0445,-657.1084 73.1663,-658.1814 74.3404,-659.2156"/>
<polygon fill="#191970" stroke="#191970" points="72.4913,-662.2049 82.5815,-665.4359 76.7085,-656.6178 72.4913,-662.2049"/>
</g>
<!-- Node3 -->
<g id="node4" class="node">
<title>Node3</title>
<g id="a_node4"><a xlink:href="plan4_8f.html#a247fc105464de543a464773054eb509e" target="_top" xlink:title="plan4">
<polygon fill="#ffffff" stroke="#000000" points="80.5,-627.5 80.5,-646.5 120.5,-646.5 120.5,-627.5 80.5,-627.5"/>
<text text-anchor="middle" x="100.5" y="-634.5" font-family="Helvetica,sans-Serif" font-size="10.00" fill="#000000">plan4</text>
</a>
</g>
</g>
<!-- Node0&#45;&gt;Node3 -->
<g id="edge3" class="edge">
<title>Node0&#45;&gt;Node3</title>
<path fill="none" stroke="#191970" d="M27.1133,-570.8499C37.6365,-581.5109 55.1293,-598.8806 71,-613 73.935,-615.6111 77.0993,-618.305 80.2277,-620.902"/>
<polygon fill="#191970" stroke="#191970" points="78.2782,-623.8281 88.243,-627.4272 82.6976,-618.3995 78.2782,-623.8281"/>
</g>
<!-- Node4 -->
<g id="node5" class="node">
<title>Node4</title>
<g id="a_node5"><a xlink:href="navier4_8f.html#a43f20a275a318725bfdf9e8eaa0839fa" target="_top" xlink:title="chkptol">
<polygon fill="#ffffff" stroke="#000000" points="268,-874.5 268,-893.5 316,-893.5 316,-874.5 268,-874.5"/>
<text text-anchor="middle" x="292" y="-881.5" font-family="Helvetica,sans-Serif" font-size="10.00" fill="#000000">chkptol</text>
</a>
</g>
</g>
<!-- Node0&#45;&gt;Node4 -->
<g id="edge4" class="edge">
<title>Node0&#45;&gt;Node4</title>
<path fill="none" stroke="#191970" d="M35.1263,-566.1787C59.1499,-573.9971 102.3418,-590.8536 130,-618 218.683,-705.042 175.9088,-774.4435 261,-865 262.0536,-866.1213 263.1876,-867.2013 264.3772,-868.2378"/>
<polygon fill="#191970" stroke="#191970" points="262.643,-871.3074 272.77,-874.4209 266.7949,-865.6716 262.643,-871.3074"/>
</g>
<!-- Node5 -->
<g id="node6" class="node">
<title>Node5</title>
<g id="a_node6"><a xlink:href="drive2_8f.html#ae46d95459d293cfb4656cbeb0e086f2a" target="_top" xlink:title="vol_flow">
<polygon fill="#ffffff" stroke="#000000" points="74,-551.5 74,-570.5 127,-570.5 127,-551.5 74,-551.5"/>
<text text-anchor="middle" x="100.5" y="-558.5" font-family="Helvetica,sans-Serif" font-size="10.00" fill="#000000">vol_flow</text>
</a>
</g>
</g>
<!-- Node0&#45;&gt;Node5 -->
<g id="edge5" class="edge">
<title>Node0&#45;&gt;Node5</title>
<path fill="none" stroke="#191970" d="M35.1022,-561C43.4371,-561 53.723,-561 63.6495,-561"/>
<polygon fill="#191970" stroke="#191970" points="63.7671,-564.5001 73.7671,-561 63.7671,-557.5001 63.7671,-564.5001"/>
</g>
<!-- Node6 -->
<g id="node7" class="node">
<title>Node6</title>
<g id="a_node7"><a xlink:href="plan4_8f.html#a7dc32896a9c8fafb6bcb0103e7507909" target="_top" xlink:title="printdiverr">
<polygon fill="#ffffff" stroke="#000000" points="71,-513.5 71,-532.5 130,-532.5 130,-513.5 71,-513.5"/>
<text text-anchor="middle" x="100.5" y="-520.5" font-family="Helvetica,sans-Serif" font-size="10.00" fill="#000000">printdiverr</text>
</a>
</g>
</g>
<!-- Node0&#45;&gt;Node6 -->
<g id="edge6" class="edge">
<title>Node0&#45;&gt;Node6</title>
<path fill="none" stroke="#191970" d="M35.1022,-552.9412C45.3904,-548.2309 58.651,-542.1598 70.5393,-536.717"/>
<polygon fill="#191970" stroke="#191970" points="72.0608,-539.8698 79.6962,-532.5246 69.1468,-533.5051 72.0608,-539.8698"/>
</g>
<!-- Node7 -->
<g id="node8" class="node">
<title>Node7</title>
<g id="a_node8"><a xlink:href="plan5_8f.html#ae6f47947bd1a89d608ae3b90ac8f433d" target="_top" xlink:title="plan5">
<polygon fill="#ffffff" stroke="#000000" points="80.5,-475.5 80.5,-494.5 120.5,-494.5 120.5,-475.5 80.5,-475.5"/>
<text text-anchor="middle" x="100.5" y="-482.5" font-family="Helvetica,sans-Serif" font-size="10.00" fill="#000000">plan5</text>
</a>
</g>
</g>
<!-- Node0&#45;&gt;Node7 -->
<g id="edge7" class="edge">
<title>Node0&#45;&gt;Node7</title>
<path fill="none" stroke="#191970" d="M25.2074,-551.4428C35.0795,-539.5366 53.0652,-518.9423 71,-504 72.5094,-502.7424 74.1067,-501.5002 75.7457,-500.2894"/>
<polygon fill="#191970" stroke="#191970" points="77.8119,-503.1164 84.0757,-494.5715 73.8504,-497.3452 77.8119,-503.1164"/>
</g>
<!-- Node8 -->
<g id="node9" class="node">
<title>Node8</title>
<g id="a_node9"><a xlink:href="group__core.html#ga142f9186a662d3de60f09bb0ee26782d" target="_top" xlink:title="Compute pressure and velocity using consistent approximation spaces. Operator splitting technique...">
<polygon fill="#ffffff" stroke="#000000" points="80.5,-152.5 80.5,-171.5 120.5,-171.5 120.5,-152.5 80.5,-152.5"/>
<text text-anchor="middle" x="100.5" y="-159.5" font-family="Helvetica,sans-Serif" font-size="10.00" fill="#000000">plan3</text>
</a>
</g>
</g>
<!-- Node0&#45;&gt;Node8 -->
<g id="edge8" class="edge">
<title>Node0&#45;&gt;Node8</title>
<path fill="none" stroke="#191970" d="M19.5517,-551.137C30.4518,-498.7379 81.6334,-252.6962 96.4637,-181.4034"/>
<polygon fill="#191970" stroke="#191970" points="99.91,-182.0215 98.52,-171.5182 93.0567,-180.5958 99.91,-182.0215"/>
</g>
<!-- Node39 -->
<g id="node40" class="node">
<title>Node39</title>
<g id="a_node40"><a xlink:href="navier1_8f.html#a23e6343990072aa1a6b17109ccc7ba2b" target="_top" xlink:title="plan1">
<polygon fill="#ffffff" stroke="#000000" points="80.5,-114.5 80.5,-133.5 120.5,-133.5 120.5,-114.5 80.5,-114.5"/>
<text text-anchor="middle" x="100.5" y="-121.5" font-family="Helvetica,sans-Serif" font-size="10.00" fill="#000000">plan1</text>
</a>
</g>
</g>
<!-- Node0&#45;&gt;Node39 -->
<g id="edge40" class="edge">
<title>Node0&#45;&gt;Node39</title>
<path fill="none" stroke="#191970" d="M17.654,-551.1427C18.6947,-494.8582 26.0982,-214.1522 71,-143 71.5121,-142.1886 72.0728,-141.4051 72.6742,-140.6492"/>
<polygon fill="#191970" stroke="#191970" points="75.3466,-142.9452 80.3157,-133.5879 70.5959,-137.8041 75.3466,-142.9452"/>
</g>
<!-- Node9 -->
<g id="node10" class="node">
<title>Node9</title>
<g id="a_node10"><a xlink:href="group__core.html#ga83189b3d1938d87f00ace2e7e05d9e4c" target="_top" xlink:title="Compute and add. ">
<polygon fill="#ffffff" stroke="#000000" points="173.5,-190.5 173.5,-209.5 217.5,-209.5 217.5,-190.5 173.5,-190.5"/>
<text text-anchor="middle" x="195.5" y="-197.5" font-family="Helvetica,sans-Serif" font-size="10.00" fill="#000000">makef</text>
</a>
</g>
</g>
<!-- Node8&#45;&gt;Node9 -->
<g id="edge9" class="edge">
<title>Node8&#45;&gt;Node9</title>
<path fill="none" stroke="#191970" d="M120.6471,-170.0588C133.215,-175.086 149.6584,-181.6634 163.9313,-187.3725"/>
<polygon fill="#191970" stroke="#191970" points="162.8069,-190.6923 173.3915,-191.1566 165.4066,-184.193 162.8069,-190.6923"/>
</g>
<!-- Node18 -->
<g id="node19" class="node">
<title>Node18</title>
<g id="a_node19"><a xlink:href="subs1_8f.html#ae2376b70f309c6118b4e43df9cbe66b1" target="_top" xlink:title="sethlm">
<polygon fill="#ffffff" stroke="#000000" points="172.5,-152.5 172.5,-171.5 218.5,-171.5 218.5,-152.5 172.5,-152.5"/>
<text text-anchor="middle" x="195.5" y="-159.5" font-family="Helvetica,sans-Serif" font-size="10.00" fill="#000000">sethlm</text>
</a>
</g>
</g>
<!-- Node8&#45;&gt;Node18 -->
<g id="edge18" class="edge">
<title>Node8&#45;&gt;Node18</title>
<path fill="none" stroke="#191970" d="M120.6471,-162C132.7129,-162 148.3507,-162 162.2107,-162"/>
<polygon fill="#191970" stroke="#191970" points="162.3743,-165.5001 172.3743,-162 162.3742,-158.5001 162.3743,-165.5001"/>
</g>
<!-- Node19 -->
<g id="node20" class="node">
<title>Node19</title>
<g id="a_node20"><a xlink:href="planx_8f.html#a02873cc7b2b98973667aa8cb9f2cbadb" target="_top" xlink:title="cresvif">
<polygon fill="#ffffff" stroke="#000000" points="172.5,-114.5 172.5,-133.5 218.5,-133.5 218.5,-114.5 172.5,-114.5"/>
<text text-anchor="middle" x="195.5" y="-121.5" font-family="Helvetica,sans-Serif" font-size="10.00" fill="#000000">cresvif</text>
</a>
</g>
</g>
<!-- Node8&#45;&gt;Node19 -->
<g id="edge19" class="edge">
<title>Node8&#45;&gt;Node19</title>
<path fill="none" stroke="#191970" d="M120.6471,-153.9412C132.9495,-149.0202 148.9654,-142.6139 163.0239,-136.9905"/>
<polygon fill="#191970" stroke="#191970" points="164.3894,-140.2139 172.3743,-133.2503 161.7896,-133.7146 164.3894,-140.2139"/>
</g>
<!-- Node20 -->
<g id="node21" class="node">
<title>Node20</title>
<g id="a_node21"><a xlink:href="induct_8f.html#aa0804a1aad3b9e0820df2c055d97942d" target="_top" xlink:title="ophinv_pr">
<polygon fill="#ffffff" stroke="#000000" points="166,-76.5 166,-95.5 225,-95.5 225,-76.5 166,-76.5"/>
<text text-anchor="middle" x="195.5" y="-83.5" font-family="Helvetica,sans-Serif" font-size="10.00" fill="#000000">ophinv_pr</text>
</a>
</g>
</g>
<!-- Node8&#45;&gt;Node20 -->
<g id="edge20" class="edge">
<title>Node8&#45;&gt;Node20</title>
<path fill="none" stroke="#191970" d="M116.914,-152.4161C121.3147,-149.5857 125.9671,-146.3441 130,-143 147.9084,-128.15 148.0916,-119.85 166,-105 167.5123,-103.746 169.1118,-102.5063 170.7524,-101.2974"/>
<polygon fill="#191970" stroke="#191970" points="172.8174,-104.1253 179.086,-95.5839 168.8591,-98.3519 172.8174,-104.1253"/>
</g>
<!-- Node21 -->
<g id="node22" class="node">
<title>Node21</title>
<g id="a_node22"><a xlink:href="navier1_8f.html#abc5cd1542bbd239734ba41882d091e03" target="_top" xlink:title="ophinv">
<polygon fill="#ffffff" stroke="#000000" points="173,-38.5 173,-57.5 218,-57.5 218,-38.5 173,-38.5"/>
<text text-anchor="middle" x="195.5" y="-45.5" font-family="Helvetica,sans-Serif" font-size="10.00" fill="#000000">ophinv</text>
</a>
</g>
</g>
<!-- Node8&#45;&gt;Node21 -->
<g id="edge21" class="edge">
<title>Node8&#45;&gt;Node21</title>
<path fill="none" stroke="#191970" d="M118.9062,-152.3957C122.9019,-149.7295 126.8651,-146.5708 130,-143 154.6586,-114.9128 141.3414,-95.0872 166,-67 166.9797,-65.8841 168.0402,-64.8085 169.1574,-63.7756"/>
<polygon fill="#191970" stroke="#191970" points="171.348,-66.5058 177.0938,-57.6043 167.0511,-60.9798 171.348,-66.5058"/>
</g>
<!-- Node22 -->
<g id="node23" class="node">
<title>Node22</title>
<g id="a_node23"><a xlink:href="navier1_8f.html#ad1bbe02eb4b6eb1d16f7612e1947dac5" target="_top" xlink:title="opadd2">
<polygon fill="#ffffff" stroke="#000000" points="171.5,-.5 171.5,-19.5 219.5,-19.5 219.5,-.5 171.5,-.5"/>
<text text-anchor="middle" x="195.5" y="-7.5" font-family="Helvetica,sans-Serif" font-size="10.00" fill="#000000">opadd2</text>
</a>
</g>
</g>
<!-- Node8&#45;&gt;Node22 -->
<g id="edge22" class="edge">
<title>Node8&#45;&gt;Node22</title>
<path fill="none" stroke="#191970" d="M119.5759,-152.4866C123.4482,-149.8488 127.1898,-146.6794 130,-143 162.25,-100.7739 133.75,-71.2261 166,-29 166.7904,-27.9652 167.6544,-26.9707 168.5743,-26.017"/>
<polygon fill="#191970" stroke="#191970" points="170.9566,-28.5885 176.4241,-19.5134 166.4906,-23.1981 170.9566,-28.5885"/>
</g>
<!-- Node23 -->
<g id="node24" class="node">
<title>Node23</title>
<g id="a_node24"><a xlink:href="group__core.html#gaeb2c6d4ae2c98143118acce2419c034d" target="_top" xlink:title="Project U onto the closest incompressible field. ">
<polygon fill="#ffffff" stroke="#000000" points="167.5,-551.5 167.5,-570.5 223.5,-570.5 223.5,-551.5 167.5,-551.5"/>
<text text-anchor="middle" x="195.5" y="-558.5" font-family="Helvetica,sans-Serif" font-size="10.00" fill="#000000">incomprn</text>
</a>
</g>
</g>
<!-- Node8&#45;&gt;Node23 -->
<g id="edge23" class="edge">
<title>Node8&#45;&gt;Node23</title>
<path fill="none" stroke="#191970" d="M102.8483,-171.863C115.3243,-224.2621 173.9057,-470.3038 190.8801,-541.5966"/>
<polygon fill="#191970" stroke="#191970" points="187.5127,-542.5644 193.2338,-551.4818 194.3223,-540.943 187.5127,-542.5644"/>
</g>
<!-- Node10 -->
<g id="node11" class="node">
<title>Node10</title>
<g id="a_node11"><a xlink:href="navier1_8f.html#a04edbb4ba3cfada4513a76a4e65a5561" target="_top" xlink:title="makeuf">
<polygon fill="#ffffff" stroke="#000000" points="267.5,-228.5 267.5,-247.5 316.5,-247.5 316.5,-228.5 267.5,-228.5"/>
<text text-anchor="middle" x="292" y="-235.5" font-family="Helvetica,sans-Serif" font-size="10.00" fill="#000000">makeuf</text>
</a>
</g>
</g>
<!-- Node9&#45;&gt;Node10 -->
<g id="edge10" class="edge">
<title>Node9&#45;&gt;Node10</title>
<path fill="none" stroke="#191970" d="M217.8816,-208.8135C229.8889,-213.5417 244.9307,-219.4649 258.3204,-224.7376"/>
<polygon fill="#191970" stroke="#191970" points="257.1243,-228.0281 267.7113,-228.4355 259.6891,-221.5149 257.1243,-228.0281"/>
</g>
<!-- Node11 -->
<g id="node12" class="node">
<title>Node11</title>
<g id="a_node12"><a xlink:href="hpf_8f.html#aa74c82c5e339de802f489470b23422a0" target="_top" xlink:title="make_hpf">
<polygon fill="#ffffff" stroke="#000000" points="262.5,-190.5 262.5,-209.5 321.5,-209.5 321.5,-190.5 262.5,-190.5"/>
<text text-anchor="middle" x="292" y="-197.5" font-family="Helvetica,sans-Serif" font-size="10.00" fill="#000000">make_hpf</text>
</a>
</g>
</g>
<!-- Node9&#45;&gt;Node11 -->
<g id="edge11" class="edge">
<title>Node9&#45;&gt;Node11</title>
<path fill="none" stroke="#191970" d="M217.8816,-200C228.1307,-200 240.5907,-200 252.347,-200"/>
<polygon fill="#191970" stroke="#191970" points="252.4239,-203.5001 262.4239,-200 252.4239,-196.5001 252.4239,-203.5001"/>
</g>
<!-- Node12 -->
<g id="node13" class="node">
<title>Node12</title>
<g id="a_node13"><a xlink:href="navier1_8f.html#ae6ed8f0409f034c9d0dff152a3445d90" target="_top" xlink:title="makevis">
<polygon fill="#ffffff" stroke="#000000" points="265.5,-152.5 265.5,-171.5 318.5,-171.5 318.5,-152.5 265.5,-152.5"/>
<text text-anchor="middle" x="292" y="-159.5" font-family="Helvetica,sans-Serif" font-size="10.00" fill="#000000">makevis</text>
</a>
</g>
</g>
<!-- Node9&#45;&gt;Node12 -->
<g id="edge12" class="edge">
<title>Node9&#45;&gt;Node12</title>
<path fill="none" stroke="#191970" d="M217.8816,-191.1865C229.8889,-186.4583 244.9307,-180.5351 258.3204,-175.2624"/>
<polygon fill="#191970" stroke="#191970" points="259.6891,-178.4851 267.7113,-171.5645 257.1243,-171.9719 259.6891,-178.4851"/>
</g>
<!-- Node13 -->
<g id="node14" class="node">
<title>Node13</title>
<g id="a_node14"><a xlink:href="navier1_8f.html#a344ec731e4a89d0f136c91bc1963e8d5" target="_top" xlink:title="advab">
<polygon fill="#ffffff" stroke="#000000" points="270.5,-114.5 270.5,-133.5 313.5,-133.5 313.5,-114.5 270.5,-114.5"/>
<text text-anchor="middle" x="292" y="-121.5" font-family="Helvetica,sans-Serif" font-size="10.00" fill="#000000">advab</text>
</a>
</g>
</g>
<!-- Node9&#45;&gt;Node13 -->
<g id="edge13" class="edge">
<title>Node9&#45;&gt;Node13</title>
<path fill="none" stroke="#191970" d="M211.914,-190.4161C216.3147,-187.5857 220.9671,-184.3441 225,-181 242.9084,-166.15 242.9268,-157.6491 261,-143 262.5447,-141.748 264.1786,-140.5164 265.8564,-139.3191"/>
<polygon fill="#191970" stroke="#191970" points="267.98,-142.1113 274.401,-133.6839 264.1261,-136.2677 267.98,-142.1113"/>
</g>
<!-- Node14 -->
<g id="node15" class="node">
<title>Node14</title>
<g id="a_node15"><a xlink:href="mvmesh_8f.html#a1b9c194ae1f554f335f3d6c21eacded3" target="_top" xlink:title="admeshv">
<polygon fill="#ffffff" stroke="#000000" points="264,-76.5 264,-95.5 320,-95.5 320,-76.5 264,-76.5"/>
<text text-anchor="middle" x="292" y="-83.5" font-family="Helvetica,sans-Serif" font-size="10.00" fill="#000000">admeshv</text>
</a>
</g>
</g>
<!-- Node9&#45;&gt;Node14 -->
<g id="edge14" class="edge">
<title>Node9&#45;&gt;Node14</title>
<path fill="none" stroke="#191970" d="M213.9062,-190.3957C217.9019,-187.7295 221.8651,-184.5708 225,-181 249.6586,-152.9128 236.0292,-132.81 261,-105 262.0016,-103.8845 263.0842,-102.8124 264.2241,-101.7854"/>
<polygon fill="#191970" stroke="#191970" points="266.4496,-104.4908 272.3281,-95.6763 262.2359,-98.9011 266.4496,-104.4908"/>
</g>
<!-- Node15 -->
<g id="node16" class="node">
<title>Node15</title>
<g id="a_node16"><a xlink:href="navier1_8f.html#ab907b0b4f57c160c86799b03de3cef19" target="_top" xlink:title="makeabf">
<polygon fill="#ffffff" stroke="#000000" points="265,-38.5 265,-57.5 319,-57.5 319,-38.5 265,-38.5"/>
<text text-anchor="middle" x="292" y="-45.5" font-family="Helvetica,sans-Serif" font-size="10.00" fill="#000000">makeabf</text>
</a>
</g>
</g>
<!-- Node9&#45;&gt;Node15 -->
<g id="edge15" class="edge">
<title>Node9&#45;&gt;Node15</title>
<path fill="none" stroke="#191970" d="M214.5759,-190.4866C218.4482,-187.8488 222.1898,-184.6794 225,-181 257.25,-138.7739 228.2803,-108.8633 261,-67 261.809,-65.9649 262.6914,-64.9725 263.6299,-64.0227"/>
<polygon fill="#191970" stroke="#191970" points="266.0429,-66.5733 271.635,-57.5745 261.6517,-61.1219 266.0429,-66.5733"/>
</g>
<!-- Node16 -->
<g id="node17" class="node">
<title>Node16</title>
<g id="a_node17"><a xlink:href="navier1_8f.html#a0510a60155ebc71a3acda4b1e7e507e5" target="_top" xlink:title="makebdf">
<polygon fill="#ffffff" stroke="#000000" points="265,-.5 265,-19.5 319,-19.5 319,-.5 265,-.5"/>
<text text-anchor="middle" x="292" y="-7.5" font-family="Helvetica,sans-Serif" font-size="10.00" fill="#000000">makebdf</text>
</a>
</g>
</g>
<!-- Node9&#45;&gt;Node16 -->
<g id="edge16" class="edge">
<title>Node9&#45;&gt;Node16</title>
<path fill="none" stroke="#191970" d="M215.0832,-190.4257C218.8338,-187.8208 222.3969,-184.6805 225,-181 265.0879,-124.3192 220.2815,-85.2295 261,-29 261.6664,-28.0797 262.3924,-27.1949 263.1662,-26.3452"/>
<polygon fill="#191970" stroke="#191970" points="265.7308,-28.7603 271.1084,-19.6316 261.2118,-23.4143 265.7308,-28.7603"/>
</g>
<!-- Node17 -->
<g id="node18" class="node">
<title>Node17</title>
<g id="a_node18"><a xlink:href="convect_8f.html#afc0b2ce765c4ad0f0ec6f2a62536bf57" target="_top" xlink:title="advchar">
<polygon fill="#ffffff" stroke="#000000" points="266.5,-266.5 266.5,-285.5 317.5,-285.5 317.5,-266.5 266.5,-266.5"/>
<text text-anchor="middle" x="292" y="-273.5" font-family="Helvetica,sans-Serif" font-size="10.00" fill="#000000">advchar</text>
</a>
</g>
</g>
<!-- Node9&#45;&gt;Node17 -->
<g id="edge17" class="edge">
<title>Node9&#45;&gt;Node17</title>
<path fill="none" stroke="#191970" d="M205.7141,-209.8436C218.2337,-221.6789 240.3382,-241.8404 261,-257 262.8195,-258.335 264.7353,-259.6676 266.6852,-260.9725"/>
<polygon fill="#191970" stroke="#191970" points="264.9436,-264.013 275.2573,-266.4374 268.7066,-258.1104 264.9436,-264.013"/>
</g>
<!-- Node23&#45;&gt;Node4 -->
<g id="edge39" class="edge">
<title>Node23&#45;&gt;Node4</title>
<path fill="none" stroke="#191970" d="M211.7448,-570.6807C216.7929,-574.5041 221.8535,-579.3463 225,-585 286.0161,-694.6333 192.8282,-759.6671 261,-865 261.6002,-865.9274 262.2632,-866.8168 262.9776,-867.669"/>
<polygon fill="#191970" stroke="#191970" points="260.693,-870.3212 270.488,-874.3596 265.3493,-865.0944 260.693,-870.3212"/>
</g>
<!-- Node24 -->
<g id="node25" class="node">
<title>Node24</title>
<g id="a_node25"><a xlink:href="comm__mpi_8f.html#af06ec29f06aac3f8809e19de2a7e8946" target="_top" xlink:title="dnekclock">
<polygon fill="#ffffff" stroke="#000000" points="261.5,-494.5 261.5,-513.5 322.5,-513.5 322.5,-494.5 261.5,-494.5"/>
<text text-anchor="middle" x="292" y="-501.5" font-family="Helvetica,sans-Serif" font-size="10.00" fill="#000000">dnekclock</text>
</a>
</g>
</g>
<!-- Node23&#45;&gt;Node24 -->
<g id="edge24" class="edge">
<title>Node23&#45;&gt;Node24</title>
<path fill="none" stroke="#191970" d="M211.8699,-551.3307C226.9331,-542.4333 249.4997,-529.1038 266.8501,-518.8554"/>
<polygon fill="#191970" stroke="#191970" points="269.0417,-521.6259 275.8718,-513.5265 265.4816,-515.5988 269.0417,-521.6259"/>
</g>
<!-- Node25 -->
<g id="node26" class="node">
<title>Node25</title>
<g id="a_node26"><a xlink:href="math_8f.html#af44de42b023a4a68cd98ea341204342d" target="_top" xlink:title="rzero">
<polygon fill="#ffffff" stroke="#000000" points="273,-456.5 273,-475.5 311,-475.5 311,-456.5 273,-456.5"/>
<text text-anchor="middle" x="292" y="-463.5" font-family="Helvetica,sans-Serif" font-size="10.00" fill="#000000">rzero</text>
</a>
</g>
</g>
<!-- Node23&#45;&gt;Node25 -->
<g id="edge25" class="edge">
<title>Node23&#45;&gt;Node25</title>
<path fill="none" stroke="#191970" d="M202.3348,-551.2732C213.4282,-535.9399 236.5832,-505.7612 261,-485 262.5148,-483.712 264.1262,-482.4532 265.7875,-481.2361"/>
<polygon fill="#191970" stroke="#191970" points="267.9221,-484.0193 274.2931,-475.554 264.0337,-478.1986 267.9221,-484.0193"/>
</g>
<!-- Node26 -->
<g id="node27" class="node">
<title>Node26</title>
<g id="a_node27"><a xlink:href="math_8f.html#a3b43508554f14bdea8e14473d7d0803c" target="_top" xlink:title="copy">
<polygon fill="#ffffff" stroke="#000000" points="273,-418.5 273,-437.5 311,-437.5 311,-418.5 273,-418.5"/>
<text text-anchor="middle" x="292" y="-425.5" font-family="Helvetica,sans-Serif" font-size="10.00" fill="#000000">copy</text>
</a>
</g>
</g>
<!-- Node23&#45;&gt;Node26 -->
<g id="edge26" class="edge">
<title>Node23&#45;&gt;Node26</title>
<path fill="none" stroke="#191970" d="M199.0868,-551.4061C207.3218,-530.3904 229.3392,-479.5713 261,-447 262.0725,-445.8967 263.2217,-444.8313 264.4235,-443.8065"/>
<polygon fill="#191970" stroke="#191970" points="266.8354,-446.3797 272.8574,-437.6627 262.7138,-440.7217 266.8354,-446.3797"/>
</g>
<!-- Node27 -->
<g id="node28" class="node">
<title>Node27</title>
<g id="a_node28"><a xlink:href="math_8f.html#a0fcb0ff151fe3548d0d07961e8365efe" target="_top" xlink:title="invers2">
<polygon fill="#ffffff" stroke="#000000" points="268,-380.5 268,-399.5 316,-399.5 316,-380.5 268,-380.5"/>
<text text-anchor="middle" x="292" y="-387.5" font-family="Helvetica,sans-Serif" font-size="10.00" fill="#000000">invers2</text>
</a>
</g>
</g>
<!-- Node23&#45;&gt;Node27 -->
<g id="edge27" class="edge">
<title>Node23&#45;&gt;Node27</title>
<path fill="none" stroke="#191970" d="M197.4997,-551.3667C203.2649,-525.591 222.0523,-453.9561 261,-409 261.9817,-407.8669 263.048,-406.7805 264.1748,-405.7419"/>
<polygon fill="#191970" stroke="#191970" points="266.4066,-408.4415 272.2334,-399.5928 262.1602,-402.8766 266.4066,-408.4415"/>
</g>
<!-- Node28 -->
<g id="node29" class="node">
<title>Node28</title>
<g id="a_node29"><a xlink:href="navier1_8f.html#a58af49abaf1ee0cc07be356ad2721d90" target="_top" xlink:title="opdiv">
<polygon fill="#ffffff" stroke="#000000" points="272,-342.5 272,-361.5 312,-361.5 312,-342.5 272,-342.5"/>
<text text-anchor="middle" x="292" y="-349.5" font-family="Helvetica,sans-Serif" font-size="10.00" fill="#000000">opdiv</text>
</a>
</g>
</g>
<!-- Node23&#45;&gt;Node28 -->
<g id="edge28" class="edge">
<title>Node23&#45;&gt;Node28</title>
<path fill="none" stroke="#191970" d="M196.5358,-551.2029C200.1625,-521.1281 214.6925,-428.6808 261,-371 261.8225,-369.9755 262.7161,-368.9921 263.6639,-368.0497"/>
<polygon fill="#191970" stroke="#191970" points="266.0736,-370.6046 271.7074,-361.6319 261.7078,-365.1329 266.0736,-370.6046"/>
</g>
<!-- Node29 -->
<g id="node30" class="node">
<title>Node29</title>
<g id="a_node30"><a xlink:href="math_8f.html#ad2b51b68d370651f4f6d81952503e7be" target="_top" xlink:title="cmult">
<polygon fill="#ffffff" stroke="#000000" points="271.5,-304.5 271.5,-323.5 312.5,-323.5 312.5,-304.5 271.5,-304.5"/>
<text text-anchor="middle" x="292" y="-311.5" font-family="Helvetica,sans-Serif" font-size="10.00" fill="#000000">cmult</text>
</a>
</g>
</g>
<!-- Node23&#45;&gt;Node29 -->
<g id="edge29" class="edge">
<title>Node23&#45;&gt;Node29</title>
<path fill="none" stroke="#191970" d="M195.8528,-551.2258C197.5381,-517.4413 207.1392,-403.7996 261,-333 261.7954,-331.9544 262.6664,-330.9532 263.5954,-329.9962"/>
<polygon fill="#191970" stroke="#191970" points="266.0115,-332.5427 271.5617,-323.518 261.595,-327.1118 266.0115,-332.5427"/>
</g>
<!-- Node30 -->
<g id="node31" class="node">
<title>Node30</title>
<g id="a_node31"><a xlink:href="math_8f.html#a1c8c804ea900711911c4c33fe1f5b184" target="_top" xlink:title="add2col2">
<polygon fill="#ffffff" stroke="#000000" points="264,-836.5 264,-855.5 320,-855.5 320,-836.5 264,-836.5"/>
<text text-anchor="middle" x="292" y="-843.5" font-family="Helvetica,sans-Serif" font-size="10.00" fill="#000000">add2col2</text>
</a>
</g>
</g>
<!-- Node23&#45;&gt;Node30 -->
<g id="edge30" class="edge">
<title>Node23&#45;&gt;Node30</title>
<path fill="none" stroke="#191970" d="M211.681,-570.7166C216.724,-574.5429 221.7976,-579.3777 225,-585 278.8188,-679.4867 201.0169,-736.3015 261,-827 261.6094,-827.9214 262.2803,-828.8056 263.0015,-829.6534"/>
<polygon fill="#191970" stroke="#191970" points="260.7353,-832.3216 270.546,-836.3217 265.3711,-827.0766 260.7353,-832.3216"/>
</g>
<!-- Node31 -->
<g id="node32" class="node">
<title>Node31</title>
<g id="a_node32"><a xlink:href="navier1_8f.html#a4905d51f51b57bfec184a6b44f858bdb" target="_top" xlink:title="ortho">
<polygon fill="#ffffff" stroke="#000000" points="273,-798.5 273,-817.5 311,-817.5 311,-798.5 273,-798.5"/>
<text text-anchor="middle" x="292" y="-805.5" font-family="Helvetica,sans-Serif" font-size="10.00" fill="#000000">ortho</text>
</a>
</g>
</g>
<!-- Node23&#45;&gt;Node31 -->
<g id="edge31" class="edge">
<title>Node23&#45;&gt;Node31</title>
<path fill="none" stroke="#191970" d="M211.2864,-570.5333C216.4221,-574.4003 221.6551,-579.3076 225,-585 271.6431,-664.378 209.1814,-712.8995 261,-789 262.1191,-790.6436 263.4322,-792.1703 264.8746,-793.5841"/>
<polygon fill="#191970" stroke="#191970" points="262.8039,-796.407 272.8642,-799.7299 267.0719,-790.8586 262.8039,-796.407"/>
</g>
<!-- Node32 -->
<g id="node33" class="node">
<title>Node32</title>
<g id="a_node33"><a xlink:href="induct_8f.html#a85f2bbdd91096e0df0353ebd6968b71d" target="_top" xlink:title="setrhsp">
<polygon fill="#ffffff" stroke="#000000" points="267.5,-760.5 267.5,-779.5 316.5,-779.5 316.5,-760.5 267.5,-760.5"/>
<text text-anchor="middle" x="292" y="-767.5" font-family="Helvetica,sans-Serif" font-size="10.00" fill="#000000">setrhsp</text>
</a>
</g>
</g>
<!-- Node23&#45;&gt;Node32 -->
<g id="edge32" class="edge">
<title>Node23&#45;&gt;Node32</title>
<path fill="none" stroke="#191970" d="M211.1638,-570.607C216.288,-574.4809 221.5451,-579.3737 225,-585 264.5042,-649.3318 217.3051,-689.4377 261,-751 261.6576,-751.9266 262.3761,-752.8168 263.1435,-753.6711"/>
<polygon fill="#191970" stroke="#191970" points="261.1712,-756.5887 271.054,-760.4074 265.7096,-751.2592 261.1712,-756.5887"/>
</g>
<!-- Node33 -->
<g id="node34" class="node">
<title>Node33</title>
<g id="a_node34"><a xlink:href="navier0_8f.html#aaba079db7e38db9800deef09526370ec" target="_top" xlink:title="esolver">
<polygon fill="#ffffff" stroke="#000000" points="268,-722.5 268,-741.5 316,-741.5 316,-722.5 268,-722.5"/>
<text text-anchor="middle" x="292" y="-729.5" font-family="Helvetica,sans-Serif" font-size="10.00" fill="#000000">esolver</text>
</a>
</g>
</g>
<!-- Node23&#45;&gt;Node33 -->
<g id="edge33" class="edge">
<title>Node23&#45;&gt;Node33</title>
<path fill="none" stroke="#191970" d="M210.9757,-570.7265C216.0822,-574.6116 221.3762,-579.481 225,-585 257.4357,-634.3991 225.351,-665.8673 261,-713 261.7925,-714.0478 262.6611,-715.0508 263.588,-716.0094"/>
<polygon fill="#191970" stroke="#191970" points="261.5828,-718.8903 271.546,-722.494 266.0047,-713.4637 261.5828,-718.8903"/>
</g>
<!-- Node34 -->
<g id="node35" class="node">
<title>Node34</title>
<g id="a_node35"><a xlink:href="induct_8f.html#a92d19447dae1fa7af20c94dbf1c09992" target="_top" xlink:title="gensolnp">
<polygon fill="#ffffff" stroke="#000000" points="264,-684.5 264,-703.5 320,-703.5 320,-684.5 264,-684.5"/>
<text text-anchor="middle" x="292" y="-691.5" font-family="Helvetica,sans-Serif" font-size="10.00" fill="#000000">gensolnp</text>
</a>
</g>
</g>
<!-- Node23&#45;&gt;Node34 -->
<g id="edge34" class="edge">
<title>Node23&#45;&gt;Node34</title>
<path fill="none" stroke="#191970" d="M210.3504,-570.7164C215.5161,-574.663 221.0098,-579.575 225,-585 250.5262,-619.7046 233.2224,-642.0697 261,-675 261.9666,-676.1459 263.0207,-677.2428 264.1377,-678.2898"/>
<polygon fill="#191970" stroke="#191970" points="262.1033,-681.1406 272.162,-684.4682 266.3738,-675.5942 262.1033,-681.1406"/>
</g>
<!-- Node35 -->
<g id="node36" class="node">
<title>Node35</title>
<g id="a_node36"><a xlink:href="math_8f.html#a30b83d516b6ab162d3fafe73e03a3e92" target="_top" xlink:title="add2">
<polygon fill="#ffffff" stroke="#000000" points="273,-646.5 273,-665.5 311,-665.5 311,-646.5 273,-646.5"/>
<text text-anchor="middle" x="292" y="-653.5" font-family="Helvetica,sans-Serif" font-size="10.00" fill="#000000">add2</text>
</a>
</g>
</g>
<!-- Node23&#45;&gt;Node35 -->
<g id="edge35" class="edge">
<title>Node23&#45;&gt;Node35</title>
<path fill="none" stroke="#191970" d="M208.8227,-570.5422C214.1497,-574.6774 220.1568,-579.7666 225,-585 244.0922,-605.6304 240.5782,-617.6849 261,-637 262.2612,-638.1928 263.6091,-639.3486 265.0106,-640.4616"/>
<polygon fill="#191970" stroke="#191970" points="263.1924,-643.4611 273.3923,-646.3271 267.2059,-637.7259 263.1924,-643.4611"/>
</g>
<!-- Node36 -->
<g id="node37" class="node">
<title>Node36</title>
<g id="a_node37"><a xlink:href="navier1_8f.html#a0319e77dcb754cfe343f5e1e0a54f8dd" target="_top" xlink:title="opgradt">
<polygon fill="#ffffff" stroke="#000000" points="267.5,-608.5 267.5,-627.5 316.5,-627.5 316.5,-608.5 267.5,-608.5"/>
<text text-anchor="middle" x="292" y="-615.5" font-family="Helvetica,sans-Serif" font-size="10.00" fill="#000000">opgradt</text>
</a>
</g>
</g>
<!-- Node23&#45;&gt;Node36 -->
<g id="edge36" class="edge">
<title>Node23&#45;&gt;Node36</title>
<path fill="none" stroke="#191970" d="M211.8699,-570.6693C226.9331,-579.5667 249.4997,-592.8962 266.8501,-603.1446"/>
<polygon fill="#191970" stroke="#191970" points="265.4816,-606.4012 275.8718,-608.4735 269.0417,-600.3741 265.4816,-606.4012"/>
</g>
<!-- Node37 -->
<g id="node38" class="node">
<title>Node37</title>
<g id="a_node38"><a xlink:href="navier1_8f.html#a4d7a006ce8ef086e842bc09f74169951" target="_top" xlink:title="opbinv">
<polygon fill="#ffffff" stroke="#000000" points="269.5,-570.5 269.5,-589.5 314.5,-589.5 314.5,-570.5 269.5,-570.5"/>
<text text-anchor="middle" x="292" y="-577.5" font-family="Helvetica,sans-Serif" font-size="10.00" fill="#000000">opbinv</text>
</a>
</g>
</g>
<!-- Node23&#45;&gt;Node37 -->
<g id="edge37" class="edge">
<title>Node23&#45;&gt;Node37</title>
<path fill="none" stroke="#191970" d="M223.6712,-566.5467C234.8305,-568.7438 247.7339,-571.2844 259.3018,-573.562"/>
<polygon fill="#191970" stroke="#191970" points="258.9738,-577.0646 269.4616,-575.5624 260.3262,-570.1964 258.9738,-577.0646"/>
</g>
<!-- Node38 -->
<g id="node39" class="node">
<title>Node38</title>
<g id="a_node39"><a xlink:href="plan4_8f.html#a8cde16ca4292836a681d1021ada2dc28" target="_top" xlink:title="opadd2cm">
<polygon fill="#ffffff" stroke="#000000" points="261,-532.5 261,-551.5 323,-551.5 323,-532.5 261,-532.5"/>
<text text-anchor="middle" x="292" y="-539.5" font-family="Helvetica,sans-Serif" font-size="10.00" fill="#000000">opadd2cm</text>
</a>
</g>
</g>
<!-- Node23&#45;&gt;Node38 -->
<g id="edge38" class="edge">
<title>Node23&#45;&gt;Node38</title>
<path fill="none" stroke="#191970" d="M223.6712,-555.4533C232.2506,-553.7641 241.8609,-551.872 251.1026,-550.0523"/>
<polygon fill="#191970" stroke="#191970" points="251.7846,-553.4853 260.92,-548.1194 250.4322,-546.6172 251.7846,-553.4853"/>
</g>
</g>
</svg>
