<?xml version="1.0" encoding="UTF-8" standalone="no"?>
<!DOCTYPE svg PUBLIC "-//W3C//DTD SVG 1.1//EN"
 "http://www.w3.org/Graphics/SVG/1.1/DTD/svg11.dtd">
<!-- Generated by graphviz version 2.40.1 (20161225.0304)
 -->
<!-- Title: nek_solve Pages: 1 -->
<svg width="211pt" height="370pt"
 viewBox="0.00 0.00 211.00 370.00" xmlns="http://www.w3.org/2000/svg" xmlns:xlink="http://www.w3.org/1999/xlink">
<g id="graph0" class="graph" transform="scale(1 1) rotate(0) translate(4 366)">
<title>nek_solve</title>
<polygon fill="#ffffff" stroke="transparent" points="-4,4 -4,-366 207,-366 207,4 -4,4"/>
<!-- Node170 -->
<g id="node1" class="node">
<title>Node170</title>
<polygon fill="#bfbfbf" stroke="#000000" points="0,-171.5 0,-190.5 61,-190.5 61,-171.5 0,-171.5"/>
<text text-anchor="middle" x="30.5" y="-178.5" font-family="Helvetica,sans-Serif" font-size="10.00" fill="#000000">nek_solve</text>
</g>
<!-- Node171 -->
<g id="node2" class="node">
<title>Node171</title>
<g id="a_node2"><a xlink:href="comm__mpi_8f.html#a4acb4d8e379294232e9219bec063d8f3" target="_top" xlink:title="nekgsync">
<polygon fill="#ffffff" stroke="#000000" points="120.5,-342.5 120.5,-361.5 179.5,-361.5 179.5,-342.5 120.5,-342.5"/>
<text text-anchor="middle" x="150" y="-349.5" font-family="Helvetica,sans-Serif" font-size="10.00" fill="#000000">nekgsync</text>
</a>
</g>
</g>
<!-- Node170&#45;&gt;Node171 -->
<g id="edge1" class="edge">
<title>Node170&#45;&gt;Node171</title>
<path fill="none" stroke="#191970" d="M32.0191,-190.7142C36.6807,-217.3205 53.2162,-292.1046 97,-333 101.0628,-336.7948 105.9364,-339.8413 111.0599,-342.2846"/>
<polygon fill="#191970" stroke="#191970" points="109.8478,-345.5696 120.4311,-346.0625 112.4651,-339.0773 109.8478,-345.5696"/>
</g>
<!-- Node172 -->
<g id="node3" class="node">
<title>Node172</title>
<g id="a_node3"><a xlink:href="papi_8f.html#a401adcc008e595bf3caeaf27a675bdb7" target="_top" xlink:title="dnekgflops">
<polygon fill="#ffffff" stroke="#000000" points="118,-304.5 118,-323.5 182,-323.5 182,-304.5 118,-304.5"/>
<text text-anchor="middle" x="150" y="-311.5" font-family="Helvetica,sans-Serif" font-size="10.00" fill="#000000">dnekgflops</text>
</a>
</g>
</g>
<!-- Node170&#45;&gt;Node172 -->
<g id="edge2" class="edge">
<title>Node170&#45;&gt;Node172</title>
<path fill="none" stroke="#191970" d="M33.5951,-190.7736C40.9935,-212.6045 61.7585,-265.7077 97,-295 100.4767,-297.8898 104.427,-300.3555 108.5664,-302.4562"/>
<polygon fill="#191970" stroke="#191970" points="107.2545,-305.7024 117.8197,-306.4945 110.0545,-299.2867 107.2545,-305.7024"/>
</g>
<!-- Node173 -->
<g id="node4" class="node">
<title>Node173</title>
<g id="a_node4"><a xlink:href="group__core.html#ga18d3e839786263fc4cf91f7eeb714371" target="_top" xlink:title="Multi&#45;level time advancement. Calls nek_advance() msteps times. ">
<polygon fill="#ffffff" stroke="#000000" points="97,-266.5 97,-285.5 203,-285.5 203,-266.5 97,-266.5"/>
<text text-anchor="middle" x="150" y="-273.5" font-family="Helvetica,sans-Serif" font-size="10.00" fill="#000000">nek__multi_advance</text>
</a>
</g>
</g>
<!-- Node170&#45;&gt;Node173 -->
<g id="edge3" class="edge">
<title>Node170&#45;&gt;Node173</title>
<path fill="none" stroke="#191970" d="M36.4839,-190.564C46.9111,-206.4962 69.9057,-238.5396 97,-257 99.874,-258.9582 102.9728,-260.739 106.1785,-262.3541"/>
<polygon fill="#191970" stroke="#191970" points="104.8399,-265.5894 115.3976,-266.4759 107.6971,-259.1991 104.8399,-265.5894"/>
</g>
<!-- Node174 -->
<g id="node5" class="node">
<title>Node174</title>
<g id="a_node5"><a xlink:href="prepost_8f.html#ad88b6e30014fa10085d6f88052caacb6" target="_top" xlink:title="check_ioinfo">
<polygon fill="#ffffff" stroke="#000000" points="114.5,-228.5 114.5,-247.5 185.5,-247.5 185.5,-228.5 114.5,-228.5"/>
<text text-anchor="middle" x="150" y="-235.5" font-family="Helvetica,sans-Serif" font-size="10.00" fill="#000000">check_ioinfo</text>
</a>
</g>
</g>
<!-- Node170&#45;&gt;Node174 -->
<g id="edge4" class="edge">
<title>Node170&#45;&gt;Node174</title>
<path fill="none" stroke="#191970" d="M45.4189,-190.5319C58.6407,-198.7326 78.6425,-210.5435 97,-219 101.4279,-221.0398 106.1422,-223.0059 110.8632,-224.8497"/>
<polygon fill="#191970" stroke="#191970" points="109.8812,-228.2192 120.4736,-228.4469 112.3351,-221.6634 109.8812,-228.2192"/>
</g>
<!-- Node175 -->
<g id="node6" class="node">
<title>Node175</title>
<g id="a_node6"><a xlink:href="prepost_8f.html#a385f380fefa8cf8d330e4e7bcf55b934" target="_top" xlink:title="set_outfld">
<polygon fill="#ffffff" stroke="#000000" points="120.5,-190.5 120.5,-209.5 179.5,-209.5 179.5,-190.5 120.5,-190.5"/>
<text text-anchor="middle" x="150" y="-197.5" font-family="Helvetica,sans-Serif" font-size="10.00" fill="#000000">set_outfld</text>
</a>
</g>
</g>
<!-- Node170&#45;&gt;Node175 -->
<g id="edge5" class="edge">
<title>Node170&#45;&gt;Node175</title>
<path fill="none" stroke="#191970" d="M61.2742,-185.893C76.137,-188.2561 94.1559,-191.121 110.0624,-193.6501"/>
<polygon fill="#191970" stroke="#191970" points="109.7302,-197.1412 120.1558,-195.2549 110.8294,-190.228 109.7302,-197.1412"/>
</g>
<!-- Node176 -->
<g id="node7" class="node">
<title>Node176</title>
<g id="a_node7"><a xlink:href="comm__mpi_8f.html#af06ec29f06aac3f8809e19de2a7e8946" target="_top" xlink:title="dnekclock">
<polygon fill="#ffffff" stroke="#000000" points="119.5,-152.5 119.5,-171.5 180.5,-171.5 180.5,-152.5 119.5,-152.5"/>
<text text-anchor="middle" x="150" y="-159.5" font-family="Helvetica,sans-Serif" font-size="10.00" fill="#000000">dnekclock</text>
</a>
</g>
</g>
<!-- Node170&#45;&gt;Node176 -->
<g id="edge6" class="edge">
<title>Node170&#45;&gt;Node176</title>
<path fill="none" stroke="#191970" d="M61.2742,-176.107C75.9101,-173.78 93.6065,-170.9663 109.3324,-168.466"/>
<polygon fill="#191970" stroke="#191970" points="110.0037,-171.9033 119.3301,-166.8764 108.9045,-164.9901 110.0037,-171.9033"/>
</g>
<!-- Node177 -->
<g id="node8" class="node">
<title>Node177</title>
<g id="a_node8"><a xlink:href="group__zero.html#gaab7e65383186bbbe5e8ee746f763b233" target="_top" xlink:title="userchk">
<polygon fill="#ffffff" stroke="#000000" points="124.5,-114.5 124.5,-133.5 175.5,-133.5 175.5,-114.5 124.5,-114.5"/>
<text text-anchor="middle" x="150" y="-121.5" font-family="Helvetica,sans-Serif" font-size="10.00" fill="#000000">userchk</text>
</a>
</g>
</g>
<!-- Node170&#45;&gt;Node177 -->
<g id="edge7" class="edge">
<title>Node170&#45;&gt;Node177</title>
<path fill="none" stroke="#191970" d="M45.4189,-171.4681C58.6407,-163.2674 78.6425,-151.4565 97,-143 102.5738,-140.4324 108.6013,-137.9814 114.5247,-135.7443"/>
<polygon fill="#191970" stroke="#191970" points="116.0903,-138.8996 124.2968,-132.1985 113.7026,-132.3194 116.0903,-138.8996"/>
</g>
<!-- Node178 -->
<g id="node9" class="node">
<title>Node178</title>
<g id="a_node9"><a xlink:href="prepost_8f.html#a4a3b0e4ce35b3381281c0839e5846370" target="_top" xlink:title="prepost">
<polygon fill="#ffffff" stroke="#000000" points="125.5,-76.5 125.5,-95.5 174.5,-95.5 174.5,-76.5 125.5,-76.5"/>
<text text-anchor="middle" x="150" y="-83.5" font-family="Helvetica,sans-Serif" font-size="10.00" fill="#000000">prepost</text>
</a>
</g>
</g>
<!-- Node170&#45;&gt;Node178 -->
<g id="edge8" class="edge">
<title>Node170&#45;&gt;Node178</title>
<path fill="none" stroke="#191970" d="M36.4839,-171.436C46.9111,-155.5038 69.9057,-123.4604 97,-105 102.6988,-101.1172 109.2815,-97.9315 115.8283,-95.3536"/>
<polygon fill="#191970" stroke="#191970" points="117.031,-98.6408 125.2872,-92.0011 114.6925,-92.0429 117.031,-98.6408"/>
</g>
<!-- Node179 -->
<g id="node10" class="node">
<title>Node179</title>
<g id="a_node10"><a xlink:href="drive2_8f.html#a6637d27bdf1984d5964bd31465cd304a" target="_top" xlink:title="runstat">
<polygon fill="#ffffff" stroke="#000000" points="126.5,-38.5 126.5,-57.5 173.5,-57.5 173.5,-38.5 126.5,-38.5"/>
<text text-anchor="middle" x="150" y="-45.5" font-family="Helvetica,sans-Serif" font-size="10.00" fill="#000000">runstat</text>
</a>
</g>
</g>
<!-- Node170&#45;&gt;Node179 -->
<g id="edge9" class="edge">
<title>Node170&#45;&gt;Node179</title>
<path fill="none" stroke="#191970" d="M33.5951,-171.2264C40.9935,-149.3955 61.7585,-96.2923 97,-67 102.7365,-62.2319 109.7626,-58.6181 116.7997,-55.8942"/>
<polygon fill="#191970" stroke="#191970" points="117.9189,-59.2105 126.2824,-52.7065 115.6884,-52.5754 117.9189,-59.2105"/>
</g>
<!-- Node180 -->
<g id="node11" class="node">
<title>Node180</title>
<g id="a_node11"><a xlink:href="drive2_8f.html#ab79ec3c35ce2079b236a435feee313c2" target="_top" xlink:title="comment">
<polygon fill="#ffffff" stroke="#000000" points="121.5,-.5 121.5,-19.5 178.5,-19.5 178.5,-.5 121.5,-.5"/>
<text text-anchor="middle" x="150" y="-7.5" font-family="Helvetica,sans-Serif" font-size="10.00" fill="#000000">comment</text>
</a>
</g>
</g>
<!-- Node170&#45;&gt;Node180 -->
<g id="edge10" class="edge">
<title>Node170&#45;&gt;Node180</title>
<path fill="none" stroke="#191970" d="M32.0191,-171.2858C36.6807,-144.6795 53.2162,-69.8954 97,-29 101.1968,-25.0801 106.2586,-21.9587 111.5674,-19.4758"/>
<polygon fill="#191970" stroke="#191970" points="113.2338,-22.5813 121.2566,-15.6614 110.6696,-16.0678 113.2338,-22.5813"/>
</g>
</g>
</svg>
