<?xml version="1.0" encoding="UTF-8" standalone="no"?>
<!DOCTYPE svg PUBLIC "-//W3C//DTD SVG 1.1//EN"
 "http://www.w3.org/Graphics/SVG/1.1/DTD/svg11.dtd">
<!-- Generated by graphviz version 2.43.0 (0)
 -->
<!-- Title: userchk Pages: 1 -->
<svg width="543pt" height="541pt"
 viewBox="0.00 0.00 543.00 541.00" xmlns="http://www.w3.org/2000/svg" xmlns:xlink="http://www.w3.org/1999/xlink">
<g id="graph0" class="graph" transform="scale(1 1) rotate(0) translate(4 537)">
<title>userchk</title>
<polygon fill="white" stroke="transparent" points="-4,4 -4,-537 539,-537 539,4 -4,4"/>
<!-- Node1 -->
<g id="node1" class="node">
<title>Node1</title>
<g id="a_node1"><a xlink:title="Compute the turbulent stress tensors and write statistics.">
<polygon fill="#bfbfbf" stroke="black" points="0,-228.5 0,-247.5 55,-247.5 55,-228.5 0,-228.5"/>
<text text-anchor="middle" x="27.5" y="-235.5" font-family="Helvetica,sans-Serif" font-size="10.00">userchk</text>
</a>
</g>
</g>
<!-- Node2 -->
<g id="node2" class="node">
<title>Node2</title>
<g id="a_node2"><a xlink:href="group__framework.html#gabfa9321d0e78857e5fafb7bada7c3ae3" target="_top" xlink:title="Check for nan or infinity.">
<polygon fill="white" stroke="black" points="92.5,-456.5 92.5,-475.5 178.5,-475.5 178.5,-456.5 92.5,-456.5"/>
<text text-anchor="middle" x="135.5" y="-463.5" font-family="Helvetica,sans-Serif" font-size="10.00">bounds_check</text>
</a>
</g>
</g>
<!-- Node1&#45;&gt;Node2 -->
<g id="edge1" class="edge">
<title>Node1&#45;&gt;Node2</title>
<path fill="none" stroke="midnightblue" d="M28.64,-247.67C29.62,-280.06 37.02,-386.04 91,-447 92.16,-448.31 93.44,-449.54 94.79,-450.69"/>
<polygon fill="midnightblue" stroke="midnightblue" points="93.01,-453.71 103.25,-456.39 96.92,-447.9 93.01,-453.71"/>
</g>
<!-- Node3 -->
<g id="node3" class="node">
<title>Node3</title>
<g id="a_node3"><a xlink:href="group__penalty__mini.html#ga689a6a1fa1bd03e4bd215f4877e5bd86" target="_top" xlink:title=" ">
<polygon fill="white" stroke="black" points="101.5,-418.5 101.5,-437.5 169.5,-437.5 169.5,-418.5 101.5,-418.5"/>
<text text-anchor="middle" x="135.5" y="-425.5" font-family="Helvetica,sans-Serif" font-size="10.00">cart_diff_y</text>
</a>
</g>
</g>
<!-- Node1&#45;&gt;Node3 -->
<g id="edge2" class="edge">
<title>Node1&#45;&gt;Node3</title>
<path fill="none" stroke="midnightblue" d="M29.42,-247.9C32.6,-276.55 45.53,-360.65 91,-409 92.35,-410.44 93.84,-411.78 95.41,-413.02"/>
<polygon fill="midnightblue" stroke="midnightblue" points="93.59,-416.01 103.89,-418.45 97.36,-410.11 93.59,-416.01"/>
</g>
<!-- Node13 -->
<g id="node13" class="node">
<title>Node13</title>
<g id="a_node13"><a xlink:href="group__chkpoint.html#ga2d682999600b8303ea7c4850cb54c9ca" target="_top" xlink:title="Main checkpoint interface.">
<polygon fill="white" stroke="black" points="98.5,-380.5 98.5,-399.5 172.5,-399.5 172.5,-380.5 98.5,-380.5"/>
<text text-anchor="middle" x="135.5" y="-387.5" font-family="Helvetica,sans-Serif" font-size="10.00">chkpt_main</text>
</a>
</g>
</g>
<!-- Node1&#45;&gt;Node13 -->
<g id="edge13" class="edge">
<title>Node1&#45;&gt;Node13</title>
<path fill="none" stroke="midnightblue" d="M30.57,-247.74C36.16,-271.8 53.7,-334.71 91,-371 92.46,-372.42 94.05,-373.75 95.72,-374.98"/>
<polygon fill="midnightblue" stroke="midnightblue" points="94.26,-378.19 104.63,-380.41 97.91,-372.21 94.26,-378.19"/>
</g>
<!-- Node14 -->
<g id="node14" class="node">
<title>Node14</title>
<g id="a_node14"><a xlink:href="channel__mixing__len_8f.html#aaf0f4048a4e81a838bf903f040cf2db1" target="_top" xlink:title="Compute eddy viscosity using Prandtl&#39;s mixing length model Ref: https://webspace.clarkson....">
<polygon fill="white" stroke="black" points="103,-342.5 103,-361.5 168,-361.5 168,-342.5 103,-342.5"/>
<text text-anchor="middle" x="135.5" y="-349.5" font-family="Helvetica,sans-Serif" font-size="10.00">eddy_visc</text>
</a>
</g>
</g>
<!-- Node1&#45;&gt;Node14 -->
<g id="edge14" class="edge">
<title>Node1&#45;&gt;Node14</title>
<path fill="none" stroke="midnightblue" d="M32.57,-247.67C40.92,-266.49 61.72,-308.32 91,-333 92.93,-334.63 95.02,-336.14 97.21,-337.53"/>
<polygon fill="midnightblue" stroke="midnightblue" points="95.52,-340.6 105.96,-342.37 98.9,-334.47 95.52,-340.6"/>
</g>
<!-- Node15 -->
<g id="node15" class="node">
<title>Node15</title>
<g id="a_node15"><a xlink:href="comm__mpi_8f.html#ae13d3e643c50b46581915bab6042a604" target="_top" xlink:title=" ">
<polygon fill="white" stroke="black" points="114,-304.5 114,-323.5 157,-323.5 157,-304.5 114,-304.5"/>
<text text-anchor="middle" x="135.5" y="-311.5" font-family="Helvetica,sans-Serif" font-size="10.00">exittr</text>
</a>
</g>
</g>
<!-- Node1&#45;&gt;Node15 -->
<g id="edge15" class="edge">
<title>Node1&#45;&gt;Node15</title>
<path fill="none" stroke="midnightblue" d="M37.03,-247.52C48.39,-259.76 69.56,-281.09 91,-295 95.19,-297.72 99.83,-300.21 104.47,-302.44"/>
<polygon fill="midnightblue" stroke="midnightblue" points="103.31,-305.75 113.87,-306.61 106.15,-299.35 103.31,-305.75"/>
</g>
<!-- Node16 -->
<g id="node16" class="node">
<title>Node16</title>
<g id="a_node16"><a xlink:href="frame_8f.html#a81cd9de9df55590aae9e54090dd1a3ce" target="_top" xlink:title="Finalise framework.">
<polygon fill="white" stroke="black" points="101,-266.5 101,-285.5 170,-285.5 170,-266.5 101,-266.5"/>
<text text-anchor="middle" x="135.5" y="-273.5" font-family="Helvetica,sans-Serif" font-size="10.00">frame_end</text>
</a>
</g>
</g>
<!-- Node1&#45;&gt;Node16 -->
<g id="edge16" class="edge">
<title>Node1&#45;&gt;Node16</title>
<path fill="none" stroke="midnightblue" d="M55.25,-247.59C68.3,-252.27 84.2,-257.97 98.32,-263.03"/>
<polygon fill="midnightblue" stroke="midnightblue" points="97.17,-266.33 107.76,-266.41 99.53,-259.74 97.17,-266.33"/>
</g>
<!-- Node17 -->
<g id="node17" class="node">
<title>Node17</title>
<g id="a_node17"><a xlink:href="frame_8f.html#a3100879c73f67d2e4449da55049c8eae" target="_top" xlink:title="Simulataion monitoring.">
<polygon fill="white" stroke="black" points="91,-228.5 91,-247.5 180,-247.5 180,-228.5 91,-228.5"/>
<text text-anchor="middle" x="135.5" y="-235.5" font-family="Helvetica,sans-Serif" font-size="10.00">frame_monitor</text>
</a>
</g>
</g>
<!-- Node1&#45;&gt;Node17 -->
<g id="edge17" class="edge">
<title>Node1&#45;&gt;Node17</title>
<path fill="none" stroke="midnightblue" d="M55.25,-238C63.01,-238 71.77,-238 80.57,-238"/>
<polygon fill="midnightblue" stroke="midnightblue" points="80.85,-241.5 90.85,-238 80.85,-234.5 80.85,-241.5"/>
</g>
<!-- Node18 -->
<g id="node18" class="node">
<title>Node18</title>
<g id="a_node18"><a xlink:href="frame_8f.html#a3b2fa5ca96c4d901949ed15b9e1e459c" target="_top" xlink:title="Start framework.">
<polygon fill="white" stroke="black" points="98.5,-190.5 98.5,-209.5 172.5,-209.5 172.5,-190.5 98.5,-190.5"/>
<text text-anchor="middle" x="135.5" y="-197.5" font-family="Helvetica,sans-Serif" font-size="10.00">frame_start</text>
</a>
</g>
</g>
<!-- Node1&#45;&gt;Node18 -->
<g id="edge18" class="edge">
<title>Node1&#45;&gt;Node18</title>
<path fill="none" stroke="midnightblue" d="M55.25,-228.41C68.3,-223.73 84.2,-218.03 98.32,-212.97"/>
<polygon fill="midnightblue" stroke="midnightblue" points="99.53,-216.26 107.76,-209.59 97.17,-209.67 99.53,-216.26"/>
</g>
<!-- Node19 -->
<g id="node19" class="node">
<title>Node19</title>
<g id="a_node19"><a xlink:href="navier5_8f.html#aef718c6a74c3602cfcd7871434619ee5" target="_top" xlink:title=" ">
<polygon fill="white" stroke="black" points="108.5,-152.5 108.5,-171.5 162.5,-171.5 162.5,-152.5 108.5,-152.5"/>
<text text-anchor="middle" x="135.5" y="-159.5" font-family="Helvetica,sans-Serif" font-size="10.00">gradm1</text>
</a>
</g>
</g>
<!-- Node1&#45;&gt;Node19 -->
<g id="edge19" class="edge">
<title>Node1&#45;&gt;Node19</title>
<path fill="none" stroke="midnightblue" d="M37.03,-228.48C48.39,-216.24 69.56,-194.91 91,-181 93.77,-179.21 96.73,-177.51 99.76,-175.92"/>
<polygon fill="midnightblue" stroke="midnightblue" points="101.44,-179 108.93,-171.5 98.4,-172.69 101.44,-179"/>
</g>
<!-- Node20 -->
<g id="node20" class="node">
<title>Node20</title>
<g id="a_node20"><a xlink:href="prepost_8f.html#aacb528c0b28bc79dff8db48d7ae9ac64" target="_top" xlink:title=" ">
<polygon fill="white" stroke="black" points="109,-114.5 109,-133.5 162,-133.5 162,-114.5 109,-114.5"/>
<text text-anchor="middle" x="135.5" y="-121.5" font-family="Helvetica,sans-Serif" font-size="10.00">outpost</text>
</a>
</g>
</g>
<!-- Node1&#45;&gt;Node20 -->
<g id="edge20" class="edge">
<title>Node1&#45;&gt;Node20</title>
<path fill="none" stroke="midnightblue" d="M32.57,-228.33C40.92,-209.51 61.72,-167.68 91,-143 93.66,-140.75 96.64,-138.73 99.74,-136.92"/>
<polygon fill="midnightblue" stroke="midnightblue" points="101.37,-140.02 108.69,-132.36 98.19,-133.78 101.37,-140.02"/>
</g>
<!-- Node21 -->
<g id="node21" class="node">
<title>Node21</title>
<g id="a_node21"><a xlink:href="group__penalty__mini.html#gaad698038b43804d17a718e007d0dd8a9" target="_top" xlink:title="Update penalty.">
<polygon fill="white" stroke="black" points="98.5,-76.5 98.5,-95.5 172.5,-95.5 172.5,-76.5 98.5,-76.5"/>
<text text-anchor="middle" x="135.5" y="-83.5" font-family="Helvetica,sans-Serif" font-size="10.00">pen_update</text>
</a>
</g>
</g>
<!-- Node1&#45;&gt;Node21 -->
<g id="edge21" class="edge">
<title>Node1&#45;&gt;Node21</title>
<path fill="none" stroke="midnightblue" d="M30.57,-228.26C36.16,-204.2 53.7,-141.29 91,-105 92.46,-103.58 94.05,-102.25 95.72,-101.02"/>
<polygon fill="midnightblue" stroke="midnightblue" points="97.91,-103.79 104.63,-95.59 94.26,-97.81 97.91,-103.79"/>
</g>
<!-- Node22 -->
<g id="node22" class="node">
<title>Node22</title>
<g id="a_node22"><a xlink:href="group__framework.html#gad7bf1bb6172cfe21bceaf5b288b6de10" target="_top" xlink:title="Calculate spatial averaged quantities and write it into a text file.">
<polygon fill="white" stroke="black" points="91.5,-38.5 91.5,-57.5 179.5,-57.5 179.5,-38.5 91.5,-38.5"/>
<text text-anchor="middle" x="135.5" y="-45.5" font-family="Helvetica,sans-Serif" font-size="10.00">spatial_means</text>
</a>
</g>
</g>
<!-- Node1&#45;&gt;Node22 -->
<g id="edge22" class="edge">
<title>Node1&#45;&gt;Node22</title>
<path fill="none" stroke="midnightblue" d="M29.42,-228.1C32.6,-199.45 45.53,-115.35 91,-67 92.35,-65.56 93.84,-64.22 95.41,-62.98"/>
<polygon fill="midnightblue" stroke="midnightblue" points="97.36,-65.89 103.89,-57.55 93.59,-59.99 97.36,-65.89"/>
</g>
<!-- Node23 -->
<g id="node23" class="node">
<title>Node23</title>
<g id="a_node23"><a xlink:href="group__stat.html#ga16cd0d213c2bea15c7caf8c205241388" target="_top" xlink:title="Main interface of statistics module.">
<polygon fill="white" stroke="black" points="106,-0.5 106,-19.5 165,-19.5 165,-0.5 106,-0.5"/>
<text text-anchor="middle" x="135.5" y="-7.5" font-family="Helvetica,sans-Serif" font-size="10.00">stat_avg</text>
</a>
</g>
</g>
<!-- Node1&#45;&gt;Node23 -->
<g id="edge23" class="edge">
<title>Node1&#45;&gt;Node23</title>
<path fill="none" stroke="midnightblue" d="M28.64,-228.33C29.62,-195.94 37.02,-89.96 91,-29 92.77,-27 94.79,-25.21 96.96,-23.59"/>
<polygon fill="midnightblue" stroke="midnightblue" points="99.14,-26.37 105.93,-18.23 95.55,-20.36 99.14,-26.37"/>
</g>
<!-- Node4 -->
<g id="node4" class="node">
<title>Node4</title>
<g id="a_node4"><a xlink:href="group__penalty__mini.html#ga0ce4b99b400fee68110bae64c6a6277c" target="_top" xlink:title="Assuming the mesh is cartesian, compute exact y&#45;derivative for an element, by operating.">
<polygon fill="white" stroke="black" points="236.5,-437.5 236.5,-456.5 317.5,-456.5 317.5,-437.5 236.5,-437.5"/>
<text text-anchor="middle" x="277" y="-444.5" font-family="Helvetica,sans-Serif" font-size="10.00">local_cart_dy</text>
</a>
</g>
</g>
<!-- Node3&#45;&gt;Node4 -->
<g id="edge3" class="edge">
<title>Node3&#45;&gt;Node4</title>
<path fill="none" stroke="midnightblue" d="M169.56,-432.5C186.57,-434.82 207.64,-437.69 226.54,-440.26"/>
<polygon fill="midnightblue" stroke="midnightblue" points="226.1,-443.74 236.48,-441.62 227.04,-436.8 226.1,-443.74"/>
</g>
<!-- Node12 -->
<g id="node12" class="node">
<title>Node12</title>
<g id="a_node12"><a xlink:href="group__penalty__mini.html#gaa8eaa7869bcd674f01457cb5dd2eb012" target="_top" xlink:title="Assuming the mesh is cartesian, compute pseudo(?) y&#45;derivative along y&#45;axis for an element,...">
<polygon fill="white" stroke="black" points="216,-399.5 216,-418.5 338,-418.5 338,-399.5 216,-399.5"/>
<text text-anchor="middle" x="277" y="-406.5" font-family="Helvetica,sans-Serif" font-size="10.00">local_cart_dy_pseudo</text>
</a>
</g>
</g>
<!-- Node3&#45;&gt;Node12 -->
<g id="edge11" class="edge">
<title>Node3&#45;&gt;Node12</title>
<path fill="none" stroke="midnightblue" d="M169.56,-423.5C180.49,-422.01 193.11,-420.29 205.75,-418.57"/>
<polygon fill="midnightblue" stroke="midnightblue" points="206.42,-422.01 215.86,-417.19 205.48,-415.07 206.42,-422.01"/>
</g>
<!-- Node5 -->
<g id="node5" class="node">
<title>Node5</title>
<g id="a_node5"><a xlink:href="group__postpro.html#gab9ec2260a10061af6ce1c52f3c8a41da" target="_top" xlink:title="Compute matrix&#45;matrix product C = A*B for contiguously packed matrices A,B, and C.">
<polygon fill="white" stroke="black" points="374,-418.5 374,-437.5 416,-437.5 416,-418.5 374,-418.5"/>
<text text-anchor="middle" x="395" y="-425.5" font-family="Helvetica,sans-Serif" font-size="10.00">mxm</text>
</a>
</g>
</g>
<!-- Node4&#45;&gt;Node5 -->
<g id="edge4" class="edge">
<title>Node4&#45;&gt;Node5</title>
<path fill="none" stroke="midnightblue" d="M317.6,-440.51C332.66,-438.05 349.57,-435.28 363.64,-432.97"/>
<polygon fill="midnightblue" stroke="midnightblue" points="364.48,-436.38 373.78,-431.31 363.34,-429.47 364.48,-436.38"/>
</g>
<!-- Node6 -->
<g id="node6" class="node">
<title>Node6</title>
<g id="a_node6"><a xlink:href="comm__mpi_8f.html#af06ec29f06aac3f8809e19de2a7e8946" target="_top" xlink:title=" ">
<polygon fill="white" stroke="black" points="460.5,-513.5 460.5,-532.5 526.5,-532.5 526.5,-513.5 460.5,-513.5"/>
<text text-anchor="middle" x="493.5" y="-520.5" font-family="Helvetica,sans-Serif" font-size="10.00">dnekclock</text>
</a>
</g>
</g>
<!-- Node5&#45;&gt;Node6 -->
<g id="edge5" class="edge">
<title>Node5&#45;&gt;Node6</title>
<path fill="none" stroke="midnightblue" d="M400.99,-437.6C409.55,-453.3 428.43,-484.66 452,-504 453.8,-505.48 455.74,-506.88 457.76,-508.19"/>
<polygon fill="midnightblue" stroke="midnightblue" points="456.51,-511.5 466.93,-513.37 459.95,-505.4 456.51,-511.5"/>
</g>
<!-- Node7 -->
<g id="node7" class="node">
<title>Node7</title>
<g id="a_node7"><a xlink:href="mxm__bgq_8f.html#a8a70163b4dbfdbfcce7bff170597fcad" target="_top" xlink:title=" ">
<polygon fill="white" stroke="black" points="452,-475.5 452,-494.5 535,-494.5 535,-475.5 452,-475.5"/>
<text text-anchor="middle" x="493.5" y="-482.5" font-family="Helvetica,sans-Serif" font-size="10.00">mxm_bgq_10</text>
</a>
</g>
</g>
<!-- Node5&#45;&gt;Node7 -->
<g id="edge6" class="edge">
<title>Node5&#45;&gt;Node7</title>
<path fill="none" stroke="midnightblue" d="M408.97,-437.67C420.09,-445.73 436.68,-457.28 452,-466 454.9,-467.65 457.97,-469.28 461.07,-470.86"/>
<polygon fill="midnightblue" stroke="midnightblue" points="459.8,-474.13 470.32,-475.36 462.86,-467.84 459.8,-474.13"/>
</g>
<!-- Node8 -->
<g id="node8" class="node">
<title>Node8</title>
<g id="a_node8"><a xlink:href="mxm__bgq_8f.html#a3fda9ea4bc7a5713a19d6939fa2b541f" target="_top" xlink:title=" ">
<polygon fill="white" stroke="black" points="452,-437.5 452,-456.5 535,-456.5 535,-437.5 452,-437.5"/>
<text text-anchor="middle" x="493.5" y="-444.5" font-family="Helvetica,sans-Serif" font-size="10.00">mxm_bgq_16</text>
</a>
</g>
</g>
<!-- Node5&#45;&gt;Node8 -->
<g id="edge7" class="edge">
<title>Node5&#45;&gt;Node8</title>
<path fill="none" stroke="midnightblue" d="M416.47,-432.03C423.94,-433.5 432.77,-435.24 441.71,-437"/>
<polygon fill="midnightblue" stroke="midnightblue" points="441.31,-440.49 451.79,-438.99 442.66,-433.62 441.31,-440.49"/>
</g>
<!-- Node9 -->
<g id="node9" class="node">
<title>Node9</title>
<g id="a_node9"><a xlink:href="mxm__bgq_8f.html#af192c3c8b982aa5bbc2a757156718a91" target="_top" xlink:title=" ">
<polygon fill="white" stroke="black" points="455,-399.5 455,-418.5 532,-418.5 532,-399.5 455,-399.5"/>
<text text-anchor="middle" x="493.5" y="-406.5" font-family="Helvetica,sans-Serif" font-size="10.00">mxm_bgq_6</text>
</a>
</g>
</g>
<!-- Node5&#45;&gt;Node9 -->
<g id="edge8" class="edge">
<title>Node5&#45;&gt;Node9</title>
<path fill="none" stroke="midnightblue" d="M416.47,-423.97C424.85,-422.32 434.93,-420.34 444.96,-418.36"/>
<polygon fill="midnightblue" stroke="midnightblue" points="445.79,-421.76 454.92,-416.4 444.44,-414.9 445.79,-421.76"/>
</g>
<!-- Node10 -->
<g id="node10" class="node">
<title>Node10</title>
<g id="a_node10"><a xlink:href="mxm__bgq_8f.html#a8faaef428336095704ece51624bbfe92" target="_top" xlink:title=" ">
<polygon fill="white" stroke="black" points="455,-361.5 455,-380.5 532,-380.5 532,-361.5 455,-361.5"/>
<text text-anchor="middle" x="493.5" y="-368.5" font-family="Helvetica,sans-Serif" font-size="10.00">mxm_bgq_8</text>
</a>
</g>
</g>
<!-- Node5&#45;&gt;Node10 -->
<g id="edge9" class="edge">
<title>Node5&#45;&gt;Node10</title>
<path fill="none" stroke="midnightblue" d="M408.97,-418.33C420.09,-410.27 436.68,-398.72 452,-390 454.9,-388.35 457.97,-386.72 461.07,-385.14"/>
<polygon fill="midnightblue" stroke="midnightblue" points="462.86,-388.16 470.32,-380.64 459.8,-381.87 462.86,-388.16"/>
</g>
<!-- Node11 -->
<g id="node11" class="node">
<title>Node11</title>
<g id="a_node11"><a xlink:href="mxm__std_8f.html#aa9e8685c4a72f18fb5d1ee88ed17a3d6" target="_top" xlink:title=" ">
<polygon fill="white" stroke="black" points="467.5,-323.5 467.5,-342.5 519.5,-342.5 519.5,-323.5 467.5,-323.5"/>
<text text-anchor="middle" x="493.5" y="-330.5" font-family="Helvetica,sans-Serif" font-size="10.00">mxmf2</text>
</a>
</g>
</g>
<!-- Node5&#45;&gt;Node11 -->
<g id="edge10" class="edge">
<title>Node5&#45;&gt;Node11</title>
<path fill="none" stroke="midnightblue" d="M400.99,-418.4C409.55,-402.7 428.43,-371.34 452,-352 454,-350.36 456.16,-348.83 458.41,-347.4"/>
<polygon fill="midnightblue" stroke="midnightblue" points="460.32,-350.34 467.36,-342.42 456.92,-344.22 460.32,-350.34"/>
</g>
<!-- Node12&#45;&gt;Node5 -->
<g id="edge12" class="edge">
<title>Node12&#45;&gt;Node5</title>
<path fill="none" stroke="midnightblue" d="M336.34,-418.56C345.86,-420.12 355.37,-421.67 363.84,-423.06"/>
<polygon fill="midnightblue" stroke="midnightblue" points="363.5,-426.55 373.94,-424.71 364.63,-419.64 363.5,-426.55"/>
</g>
</g>
</svg>
