<?xml version="1.0" encoding="UTF-8" standalone="no"?>
<!DOCTYPE svg PUBLIC "-//W3C//DTD SVG 1.1//EN"
 "http://www.w3.org/Graphics/SVG/1.1/DTD/svg11.dtd">
<!-- Generated by graphviz version 2.40.1 (20161225.0304)
 -->
<!-- Title: nek_solve Pages: 1 -->
<svg width="211pt" height="294pt"
 viewBox="0.00 0.00 211.00 294.00" xmlns="http://www.w3.org/2000/svg" xmlns:xlink="http://www.w3.org/1999/xlink">
<g id="graph0" class="graph" transform="scale(1 1) rotate(0) translate(4 290)">
<title>nek_solve</title>
<polygon fill="#ffffff" stroke="transparent" points="-4,4 -4,-290 207,-290 207,4 -4,4"/>
<!-- Node167 -->
<g id="node1" class="node">
<title>Node167</title>
<polygon fill="#bfbfbf" stroke="#000000" points="0,-133.5 0,-152.5 61,-152.5 61,-133.5 0,-133.5"/>
<text text-anchor="middle" x="30.5" y="-140.5" font-family="Helvetica,sans-Serif" font-size="10.00" fill="#000000">nek_solve</text>
</g>
<!-- Node168 -->
<g id="node2" class="node">
<title>Node168</title>
<g id="a_node2"><a xlink:href="comm__mpi_8f.html#a4acb4d8e379294232e9219bec063d8f3" target="_top" xlink:title="nekgsync">
<polygon fill="#ffffff" stroke="#000000" points="120.5,-266.5 120.5,-285.5 179.5,-285.5 179.5,-266.5 120.5,-266.5"/>
<text text-anchor="middle" x="150" y="-273.5" font-family="Helvetica,sans-Serif" font-size="10.00" fill="#000000">nekgsync</text>
</a>
</g>
</g>
<!-- Node167&#45;&gt;Node168 -->
<g id="edge1" class="edge">
<title>Node167&#45;&gt;Node168</title>
<path fill="none" stroke="#191970" d="M33.5951,-152.7736C40.9935,-174.6045 61.7585,-227.7077 97,-257 101.0769,-260.3886 105.8051,-263.1942 110.7257,-265.5118"/>
<polygon fill="#191970" stroke="#191970" points="109.7221,-268.8814 120.3046,-269.3918 112.3501,-262.3935 109.7221,-268.8814"/>
</g>
<!-- Node169 -->
<g id="node3" class="node">
<title>Node169</title>
<g id="a_node3"><a xlink:href="papi_8f.html#a401adcc008e595bf3caeaf27a675bdb7" target="_top" xlink:title="dnekgflops">
<polygon fill="#ffffff" stroke="#000000" points="118,-228.5 118,-247.5 182,-247.5 182,-228.5 118,-228.5"/>
<text text-anchor="middle" x="150" y="-235.5" font-family="Helvetica,sans-Serif" font-size="10.00" fill="#000000">dnekgflops</text>
</a>
</g>
</g>
<!-- Node167&#45;&gt;Node169 -->
<g id="edge2" class="edge">
<title>Node167&#45;&gt;Node169</title>
<path fill="none" stroke="#191970" d="M36.4839,-152.564C46.9111,-168.4962 69.9057,-200.5396 97,-219 100.5442,-221.4148 104.4304,-223.56 108.4371,-225.457"/>
<polygon fill="#191970" stroke="#191970" points="107.3265,-228.787 117.901,-229.4432 110.0438,-222.3359 107.3265,-228.787"/>
</g>
<!-- Node170 -->
<g id="node4" class="node">
<title>Node170</title>
<g id="a_node4"><a xlink:href="group__core.html#ga18d3e839786263fc4cf91f7eeb714371" target="_top" xlink:title="Multi&#45;level time advancement. Calls nek_advance() msteps times. ">
<polygon fill="#ffffff" stroke="#000000" points="97,-190.5 97,-209.5 203,-209.5 203,-190.5 97,-190.5"/>
<text text-anchor="middle" x="150" y="-197.5" font-family="Helvetica,sans-Serif" font-size="10.00" fill="#000000">nek__multi_advance</text>
</a>
</g>
</g>
<!-- Node167&#45;&gt;Node170 -->
<g id="edge3" class="edge">
<title>Node167&#45;&gt;Node170</title>
<path fill="none" stroke="#191970" d="M45.4189,-152.5319C58.6407,-160.7326 78.6425,-172.5435 97,-181 101.4279,-183.0398 106.1422,-185.0059 110.8632,-186.8497"/>
<polygon fill="#191970" stroke="#191970" points="109.8812,-190.2192 120.4736,-190.4469 112.3351,-183.6634 109.8812,-190.2192"/>
</g>
<!-- Node171 -->
<g id="node5" class="node">
<title>Node171</title>
<g id="a_node5"><a xlink:href="prepost_8f.html#ad88b6e30014fa10085d6f88052caacb6" target="_top" xlink:title="check_ioinfo">
<polygon fill="#ffffff" stroke="#000000" points="114.5,-152.5 114.5,-171.5 185.5,-171.5 185.5,-152.5 114.5,-152.5"/>
<text text-anchor="middle" x="150" y="-159.5" font-family="Helvetica,sans-Serif" font-size="10.00" fill="#000000">check_ioinfo</text>
</a>
</g>
</g>
<!-- Node167&#45;&gt;Node171 -->
<g id="edge4" class="edge">
<title>Node167&#45;&gt;Node171</title>
<path fill="none" stroke="#191970" d="M61.2742,-147.893C74.2958,-149.9633 89.7399,-152.4189 104.0636,-154.6963"/>
<polygon fill="#191970" stroke="#191970" points="103.8192,-158.2013 114.2447,-156.3151 104.9184,-151.2882 103.8192,-158.2013"/>
</g>
<!-- Node172 -->
<g id="node6" class="node">
<title>Node172</title>
<g id="a_node6"><a xlink:href="prepost_8f.html#a385f380fefa8cf8d330e4e7bcf55b934" target="_top" xlink:title="set_outfld">
<polygon fill="#ffffff" stroke="#000000" points="120.5,-114.5 120.5,-133.5 179.5,-133.5 179.5,-114.5 120.5,-114.5"/>
<text text-anchor="middle" x="150" y="-121.5" font-family="Helvetica,sans-Serif" font-size="10.00" fill="#000000">set_outfld</text>
</a>
</g>
</g>
<!-- Node167&#45;&gt;Node172 -->
<g id="edge5" class="edge">
<title>Node167&#45;&gt;Node172</title>
<path fill="none" stroke="#191970" d="M61.2742,-138.107C76.137,-135.7439 94.1559,-132.879 110.0624,-130.3499"/>
<polygon fill="#191970" stroke="#191970" points="110.8294,-133.772 120.1558,-128.7451 109.7302,-126.8588 110.8294,-133.772"/>
</g>
<!-- Node173 -->
<g id="node7" class="node">
<title>Node173</title>
<g id="a_node7"><a xlink:href="group__zero.html#gaab7e65383186bbbe5e8ee746f763b233" target="_top" xlink:title="userchk">
<polygon fill="#ffffff" stroke="#000000" points="124.5,-76.5 124.5,-95.5 175.5,-95.5 175.5,-76.5 124.5,-76.5"/>
<text text-anchor="middle" x="150" y="-83.5" font-family="Helvetica,sans-Serif" font-size="10.00" fill="#000000">userchk</text>
</a>
</g>
</g>
<!-- Node167&#45;&gt;Node173 -->
<g id="edge6" class="edge">
<title>Node167&#45;&gt;Node173</title>
<path fill="none" stroke="#191970" d="M45.4189,-133.4681C58.6407,-125.2674 78.6425,-113.4565 97,-105 102.5738,-102.4324 108.6013,-99.9814 114.5247,-97.7443"/>
<polygon fill="#191970" stroke="#191970" points="116.0903,-100.8996 124.2968,-94.1985 113.7026,-94.3194 116.0903,-100.8996"/>
</g>
<!-- Node174 -->
<g id="node8" class="node">
<title>Node174</title>
<g id="a_node8"><a xlink:href="prepost_8f.html#a4a3b0e4ce35b3381281c0839e5846370" target="_top" xlink:title="prepost">
<polygon fill="#ffffff" stroke="#000000" points="125.5,-38.5 125.5,-57.5 174.5,-57.5 174.5,-38.5 125.5,-38.5"/>
<text text-anchor="middle" x="150" y="-45.5" font-family="Helvetica,sans-Serif" font-size="10.00" fill="#000000">prepost</text>
</a>
</g>
</g>
<!-- Node167&#45;&gt;Node174 -->
<g id="edge7" class="edge">
<title>Node167&#45;&gt;Node174</title>
<path fill="none" stroke="#191970" d="M36.4839,-133.436C46.9111,-117.5038 69.9057,-85.4604 97,-67 102.6988,-63.1172 109.2815,-59.9315 115.8283,-57.3536"/>
<polygon fill="#191970" stroke="#191970" points="117.031,-60.6408 125.2872,-54.0011 114.6925,-54.0429 117.031,-60.6408"/>
</g>
<!-- Node175 -->
<g id="node9" class="node">
<title>Node175</title>
<g id="a_node9"><a xlink:href="drive2_8f.html#ab79ec3c35ce2079b236a435feee313c2" target="_top" xlink:title="comment">
<polygon fill="#ffffff" stroke="#000000" points="121.5,-.5 121.5,-19.5 178.5,-19.5 178.5,-.5 121.5,-.5"/>
<text text-anchor="middle" x="150" y="-7.5" font-family="Helvetica,sans-Serif" font-size="10.00" fill="#000000">comment</text>
</a>
</g>
</g>
<!-- Node167&#45;&gt;Node175 -->
<g id="edge8" class="edge">
<title>Node167&#45;&gt;Node175</title>
<path fill="none" stroke="#191970" d="M33.5951,-133.2264C40.9935,-111.3955 61.7585,-58.2923 97,-29 101.3693,-25.3683 106.4868,-22.4062 111.7874,-19.997"/>
<polygon fill="#191970" stroke="#191970" points="113.3684,-23.1368 121.4043,-16.2321 110.8165,-16.6185 113.3684,-23.1368"/>
</g>
</g>
</svg>
