<?xml version="1.0" encoding="UTF-8" standalone="no"?>
<!DOCTYPE svg PUBLIC "-//W3C//DTD SVG 1.1//EN"
 "http://www.w3.org/Graphics/SVG/1.1/DTD/svg11.dtd">
<!-- Generated by graphviz version 2.40.1 (20161225.0304)
 -->
<!-- Title: nek_advance Pages: 1 -->
<svg width="509pt" height="921pt"
 viewBox="0.00 0.00 509.00 921.00" xmlns="http://www.w3.org/2000/svg" xmlns:xlink="http://www.w3.org/1999/xlink">
<g id="graph0" class="graph" transform="scale(1 1) rotate(0) translate(4 917)">
<title>nek_advance</title>
<polygon fill="#ffffff" stroke="transparent" points="-4,4 -4,-917 505,-917 505,4 -4,4"/>
<!-- Node67 -->
<g id="node1" class="node">
<title>Node67</title>
<polygon fill="#bfbfbf" stroke="#000000" points="0,-513.5 0,-532.5 74,-532.5 74,-513.5 0,-513.5"/>
<text text-anchor="middle" x="37" y="-520.5" font-family="Helvetica,sans-Serif" font-size="10.00" fill="#000000">nek_advance</text>
</g>
<!-- Node68 -->
<g id="node2" class="node">
<title>Node68</title>
<g id="a_node2"><a xlink:href="comm__mpi_8f.html#a4acb4d8e379294232e9219bec063d8f3" target="_top" xlink:title="nekgsync">
<polygon fill="#ffffff" stroke="#000000" points="128,-893.5 128,-912.5 187,-912.5 187,-893.5 128,-893.5"/>
<text text-anchor="middle" x="157.5" y="-900.5" font-family="Helvetica,sans-Serif" font-size="10.00" fill="#000000">nekgsync</text>
</a>
</g>
</g>
<!-- Node67&#45;&gt;Node68 -->
<g id="edge1" class="edge">
<title>Node67&#45;&gt;Node68</title>
<path fill="none" stroke="#191970" d="M37.7268,-532.6597C41.7914,-584.3372 63.2225,-827.8863 110,-884 112.4775,-886.9719 115.4872,-889.4826 118.7763,-891.6029"/>
<polygon fill="#191970" stroke="#191970" points="117.4713,-894.8683 127.9616,-896.3525 120.6865,-888.6504 117.4713,-894.8683"/>
</g>
<!-- Node69 -->
<g id="node3" class="node">
<title>Node69</title>
<g id="a_node3"><a xlink:href="convect2_8f.html#a9b58d62988f53102b490531b844a1891" target="_top" xlink:title="setup_convect">
<polygon fill="#ffffff" stroke="#000000" points="117.5,-855.5 117.5,-874.5 197.5,-874.5 197.5,-855.5 117.5,-855.5"/>
<text text-anchor="middle" x="157.5" y="-862.5" font-family="Helvetica,sans-Serif" font-size="10.00" fill="#000000">setup_convect</text>
</a>
</g>
</g>
<!-- Node67&#45;&gt;Node69 -->
<g id="edge2" class="edge">
<title>Node67&#45;&gt;Node69</title>
<path fill="none" stroke="#191970" d="M37.9678,-532.5846C43.0076,-580.7876 67.6509,-796.3576 110,-846 111.0088,-847.1825 112.1016,-848.2921 113.2622,-849.3333"/>
<polygon fill="#191970" stroke="#191970" points="111.5343,-852.3958 121.7351,-855.2584 115.5459,-846.6593 111.5343,-852.3958"/>
</g>
<!-- Node70 -->
<g id="node4" class="node">
<title>Node70</title>
<g id="a_node4"><a xlink:href="drive2_8f.html#a6f905c80a0a2b0d5ed7f0449eda3e127" target="_top" xlink:title="settime">
<polygon fill="#ffffff" stroke="#000000" points="133,-817.5 133,-836.5 182,-836.5 182,-817.5 133,-817.5"/>
<text text-anchor="middle" x="157.5" y="-824.5" font-family="Helvetica,sans-Serif" font-size="10.00" fill="#000000">settime</text>
</a>
</g>
</g>
<!-- Node67&#45;&gt;Node70 -->
<g id="edge3" class="edge">
<title>Node67&#45;&gt;Node70</title>
<path fill="none" stroke="#191970" d="M38.2843,-532.6258C44.4276,-577.3867 72.0886,-764.8201 110,-808 113.6625,-812.1715 118.3679,-815.4386 123.3886,-817.9942"/>
<polygon fill="#191970" stroke="#191970" points="122.0343,-821.2216 132.6094,-821.8678 124.7455,-814.7679 122.0343,-821.2216"/>
</g>
<!-- Node71 -->
<g id="node5" class="node">
<title>Node71</title>
<g id="a_node5"><a xlink:href="induct_8f.html#a75294e71da0c68adb56f3804f5dad60f" target="_top" xlink:title="cfl_check">
<polygon fill="#ffffff" stroke="#000000" points="128,-779.5 128,-798.5 187,-798.5 187,-779.5 128,-779.5"/>
<text text-anchor="middle" x="157.5" y="-786.5" font-family="Helvetica,sans-Serif" font-size="10.00" fill="#000000">cfl_check</text>
</a>
</g>
</g>
<!-- Node67&#45;&gt;Node71 -->
<g id="edge4" class="edge">
<title>Node67&#45;&gt;Node71</title>
<path fill="none" stroke="#191970" d="M38.702,-532.6928C46.0878,-573.7901 76.4999,-733.2248 110,-770 112.542,-772.7905 115.5491,-775.1782 118.7969,-777.2198"/>
<polygon fill="#191970" stroke="#191970" points="117.3087,-780.3902 127.8018,-781.855 120.5124,-774.1663 117.3087,-780.3902"/>
</g>
<!-- Node72 -->
<g id="node6" class="node">
<title>Node72</title>
<g id="a_node6"><a xlink:href="subs1_8f.html#aede23f2856c88d81d4315ea73f0177e8" target="_top" xlink:title="setsolv">
<polygon fill="#ffffff" stroke="#000000" points="133.5,-741.5 133.5,-760.5 181.5,-760.5 181.5,-741.5 133.5,-741.5"/>
<text text-anchor="middle" x="157.5" y="-748.5" font-family="Helvetica,sans-Serif" font-size="10.00" fill="#000000">setsolv</text>
</a>
</g>
</g>
<!-- Node67&#45;&gt;Node72 -->
<g id="edge5" class="edge">
<title>Node67&#45;&gt;Node72</title>
<path fill="none" stroke="#191970" d="M37.6224,-532.7703C40.2149,-565.4568 52.8826,-672.2843 110,-732 113.9137,-736.0918 118.8238,-739.3239 123.9914,-741.8707"/>
<polygon fill="#191970" stroke="#191970" points="122.8321,-745.1785 133.4114,-745.7527 125.4993,-738.7065 122.8321,-745.1785"/>
</g>
<!-- Node73 -->
<g id="node7" class="node">
<title>Node73</title>
<g id="a_node7"><a xlink:href="drive2_8f.html#ab79ec3c35ce2079b236a435feee313c2" target="_top" xlink:title="comment">
<polygon fill="#ffffff" stroke="#000000" points="129,-703.5 129,-722.5 186,-722.5 186,-703.5 129,-703.5"/>
<text text-anchor="middle" x="157.5" y="-710.5" font-family="Helvetica,sans-Serif" font-size="10.00" fill="#000000">comment</text>
</a>
</g>
</g>
<!-- Node67&#45;&gt;Node73 -->
<g id="edge6" class="edge">
<title>Node67&#45;&gt;Node73</title>
<path fill="none" stroke="#191970" d="M38.4585,-532.5808C43.2835,-561.0975 61.2891,-646.3955 110,-694 112.8485,-696.7838 116.1566,-699.1754 119.6759,-701.2266"/>
<polygon fill="#191970" stroke="#191970" points="118.197,-704.3995 128.7173,-705.6543 121.2757,-698.1129 118.197,-704.3995"/>
</g>
<!-- Node74 -->
<g id="node8" class="node">
<title>Node74</title>
<g id="a_node8"><a xlink:href="multimesh_8f.html#ae456181cee68ca24e24244df7c9db9c6" target="_top" xlink:title="neknek_setup">
<polygon fill="#ffffff" stroke="#000000" points="119,-665.5 119,-684.5 196,-684.5 196,-665.5 119,-665.5"/>
<text text-anchor="middle" x="157.5" y="-672.5" font-family="Helvetica,sans-Serif" font-size="10.00" fill="#000000">neknek_setup</text>
</a>
</g>
</g>
<!-- Node67&#45;&gt;Node74 -->
<g id="edge7" class="edge">
<title>Node67&#45;&gt;Node74</title>
<path fill="none" stroke="#191970" d="M39.8325,-532.8245C47.3004,-557.0736 69.7688,-620.3813 110,-656 111.729,-657.5308 113.5968,-658.9466 115.5572,-660.255"/>
<polygon fill="#191970" stroke="#191970" points="114.1696,-663.4896 124.6039,-665.3273 117.5931,-657.3838 114.1696,-663.4896"/>
</g>
<!-- Node75 -->
<g id="node9" class="node">
<title>Node75</title>
<g id="a_node9"><a xlink:href="multimesh_8f.html#ab824f6e230e0482379512f8c4bb2b459" target="_top" xlink:title="neknek_exchange">
<polygon fill="#ffffff" stroke="#000000" points="110,-627.5 110,-646.5 205,-646.5 205,-627.5 110,-627.5"/>
<text text-anchor="middle" x="157.5" y="-634.5" font-family="Helvetica,sans-Serif" font-size="10.00" fill="#000000">neknek_exchange</text>
</a>
</g>
</g>
<!-- Node67&#45;&gt;Node75 -->
<g id="edge8" class="edge">
<title>Node67&#45;&gt;Node75</title>
<path fill="none" stroke="#191970" d="M42.1105,-532.7314C52.4948,-551.645 77.829,-593.6419 110,-618 112.3235,-619.7592 114.8317,-621.3796 117.4391,-622.8678"/>
<polygon fill="#191970" stroke="#191970" points="116.0525,-626.0876 126.5621,-627.4284 119.1825,-619.8263 116.0525,-626.0876"/>
</g>
<!-- Node76 -->
<g id="node10" class="node">
<title>Node76</title>
<g id="a_node10"><a xlink:href="drive2_8f.html#aee60b6a659972e6dbd4c16aad7b6f855" target="_top" xlink:title="heat_cvode">
<polygon fill="#ffffff" stroke="#000000" points="124,-589.5 124,-608.5 191,-608.5 191,-589.5 124,-589.5"/>
<text text-anchor="middle" x="157.5" y="-596.5" font-family="Helvetica,sans-Serif" font-size="10.00" fill="#000000">heat_cvode</text>
</a>
</g>
</g>
<!-- Node67&#45;&gt;Node76 -->
<g id="edge9" class="edge">
<title>Node67&#45;&gt;Node76</title>
<path fill="none" stroke="#191970" d="M47.2052,-532.5063C60.7368,-544.7348 85.744,-566.0564 110,-580 113.2726,-581.8812 116.7677,-583.6615 120.3213,-585.3225"/>
<polygon fill="#191970" stroke="#191970" points="119.1858,-588.6454 129.7517,-589.428 121.98,-582.2272 119.1858,-588.6454"/>
</g>
<!-- Node77 -->
<g id="node11" class="node">
<title>Node77</title>
<g id="a_node11"><a xlink:href="drive2_8f.html#aefc07385d7e7539fb57662470f694136" target="_top" xlink:title="gengeom">
<polygon fill="#ffffff" stroke="#000000" points="129.5,-551.5 129.5,-570.5 185.5,-570.5 185.5,-551.5 129.5,-551.5"/>
<text text-anchor="middle" x="157.5" y="-558.5" font-family="Helvetica,sans-Serif" font-size="10.00" fill="#000000">gengeom</text>
</a>
</g>
</g>
<!-- Node67&#45;&gt;Node77 -->
<g id="edge10" class="edge">
<title>Node67&#45;&gt;Node77</title>
<path fill="none" stroke="#191970" d="M67.4072,-532.589C83.26,-537.5882 102.8005,-543.7504 119.6269,-549.0566"/>
<polygon fill="#191970" stroke="#191970" points="118.5823,-552.397 129.172,-552.0667 120.6876,-545.7211 118.5823,-552.397"/>
</g>
<!-- Node78 -->
<g id="node12" class="node">
<title>Node78</title>
<g id="a_node12"><a xlink:href="drive2_8f.html#a7f0d055bb47546a4859ac7d63339197e" target="_top" xlink:title="geneig">
<polygon fill="#ffffff" stroke="#000000" points="135,-513.5 135,-532.5 180,-532.5 180,-513.5 135,-513.5"/>
<text text-anchor="middle" x="157.5" y="-520.5" font-family="Helvetica,sans-Serif" font-size="10.00" fill="#000000">geneig</text>
</a>
</g>
</g>
<!-- Node67&#45;&gt;Node78 -->
<g id="edge11" class="edge">
<title>Node67&#45;&gt;Node78</title>
<path fill="none" stroke="#191970" d="M74.1372,-523C90.2064,-523 108.8609,-523 124.4441,-523"/>
<polygon fill="#191970" stroke="#191970" points="124.6722,-526.5001 134.6722,-523 124.6721,-519.5001 124.6722,-526.5001"/>
</g>
<!-- Node79 -->
<g id="node13" class="node">
<title>Node79</title>
<g id="a_node13"><a xlink:href="drive2_8f.html#acce80cd37f20e9b52729eb52d86a9c86" target="_top" xlink:title="heat">
<polygon fill="#ffffff" stroke="#000000" points="140,-475.5 140,-494.5 175,-494.5 175,-475.5 140,-475.5"/>
<text text-anchor="middle" x="157.5" y="-482.5" font-family="Helvetica,sans-Serif" font-size="10.00" fill="#000000">heat</text>
</a>
</g>
</g>
<!-- Node67&#45;&gt;Node79 -->
<g id="edge12" class="edge">
<title>Node67&#45;&gt;Node79</title>
<path fill="none" stroke="#191970" d="M67.4072,-513.411C86.7025,-507.3262 111.4609,-499.5185 130.139,-493.6284"/>
<polygon fill="#191970" stroke="#191970" points="131.3325,-496.922 139.8169,-490.5764 129.2272,-490.246 131.3325,-496.922"/>
</g>
<!-- Node80 -->
<g id="node14" class="node">
<title>Node80</title>
<g id="a_node14"><a xlink:href="subs1_8f.html#af114fff998975a6e77422a65106222ca" target="_top" xlink:title="setprop">
<polygon fill="#ffffff" stroke="#000000" points="133,-437.5 133,-456.5 182,-456.5 182,-437.5 133,-437.5"/>
<text text-anchor="middle" x="157.5" y="-444.5" font-family="Helvetica,sans-Serif" font-size="10.00" fill="#000000">setprop</text>
</a>
</g>
</g>
<!-- Node67&#45;&gt;Node80 -->
<g id="edge13" class="edge">
<title>Node67&#45;&gt;Node80</title>
<path fill="none" stroke="#191970" d="M47.2052,-513.4937C60.7368,-501.2652 85.744,-479.9436 110,-466 114.2062,-463.5821 118.7801,-461.3309 123.3732,-459.2855"/>
<polygon fill="#191970" stroke="#191970" points="124.8347,-462.4682 132.7167,-455.3883 122.14,-456.0077 124.8347,-462.4682"/>
</g>
<!-- Node81 -->
<g id="node15" class="node">
<title>Node81</title>
<g id="a_node15"><a xlink:href="math_8f.html#af44de42b023a4a68cd98ea341204342d" target="_top" xlink:title="rzero">
<polygon fill="#ffffff" stroke="#000000" points="451.5,-494.5 451.5,-513.5 489.5,-513.5 489.5,-494.5 451.5,-494.5"/>
<text text-anchor="middle" x="470.5" y="-501.5" font-family="Helvetica,sans-Serif" font-size="10.00" fill="#000000">rzero</text>
</a>
</g>
</g>
<!-- Node67&#45;&gt;Node81 -->
<g id="edge14" class="edge">
<title>Node67&#45;&gt;Node81</title>
<path fill="none" stroke="#191970" d="M40.8545,-513.3834C49.5911,-493.0776 73.0569,-446.2025 110,-428 147.8744,-409.3386 168.0225,-407.6191 205,-428 231.241,-442.4632 215.3785,-469.4656 241,-485 303.9575,-523.1713 395.0975,-516.257 441.2946,-509.3698"/>
<polygon fill="#191970" stroke="#191970" points="441.9144,-512.8152 451.2374,-507.7821 440.8106,-505.9028 441.9144,-512.8152"/>
</g>
<!-- Node82 -->
<g id="node16" class="node">
<title>Node82</title>
<g id="a_node16"><a xlink:href="plan4_8f.html#a26aff16d60c39fbe34c5ca86c4041824" target="_top" xlink:title="qthermal">
<polygon fill="#ffffff" stroke="#000000" points="130.5,-323.5 130.5,-342.5 184.5,-342.5 184.5,-323.5 130.5,-323.5"/>
<text text-anchor="middle" x="157.5" y="-330.5" font-family="Helvetica,sans-Serif" font-size="10.00" fill="#000000">qthermal</text>
</a>
</g>
</g>
<!-- Node67&#45;&gt;Node82 -->
<g id="edge15" class="edge">
<title>Node67&#45;&gt;Node82</title>
<path fill="none" stroke="#191970" d="M38.4585,-513.4192C43.2835,-484.9025 61.2891,-399.6045 110,-352 113.2316,-348.8418 117.0548,-346.1884 121.1067,-343.964"/>
<polygon fill="#191970" stroke="#191970" points="122.5996,-347.1298 130.2016,-339.7502 119.6568,-340.7784 122.5996,-347.1298"/>
</g>
<!-- Node83 -->
<g id="node17" class="node">
<title>Node83</title>
<g id="a_node17"><a xlink:href="group__core.html#gab0aeca9ad3db8be87a01ba29d069d71e" target="_top" xlink:title="Driver for solving the incompressible Navier&#45;Stokes equations. ">
<polygon fill="#ffffff" stroke="#000000" points="140,-361.5 140,-380.5 175,-380.5 175,-361.5 140,-361.5"/>
<text text-anchor="middle" x="157.5" y="-368.5" font-family="Helvetica,sans-Serif" font-size="10.00" fill="#000000">fluid</text>
</a>
</g>
</g>
<!-- Node67&#45;&gt;Node83 -->
<g id="edge16" class="edge">
<title>Node67&#45;&gt;Node83</title>
<path fill="none" stroke="#191970" d="M40.2517,-513.4139C48.514,-490.3029 72.3641,-430.7834 110,-395 115.8004,-389.4851 123.1141,-384.9545 130.2528,-381.3735"/>
<polygon fill="#191970" stroke="#191970" points="132.0615,-384.3962 139.7204,-377.0755 129.1679,-378.0222 132.0615,-384.3962"/>
</g>
<!-- Node122 -->
<g id="node46" class="node">
<title>Node122</title>
<g id="a_node46"><a xlink:href="drive2_8f.html#aa4f676fe0a57e3cbdce8c8fe353edeb0" target="_top" xlink:title="meshv">
<polygon fill="#ffffff" stroke="#000000" points="134.5,-285.5 134.5,-304.5 180.5,-304.5 180.5,-285.5 134.5,-285.5"/>
<text text-anchor="middle" x="157.5" y="-292.5" font-family="Helvetica,sans-Serif" font-size="10.00" fill="#000000">meshv</text>
</a>
</g>
</g>
<!-- Node67&#45;&gt;Node122 -->
<g id="edge48" class="edge">
<title>Node67&#45;&gt;Node122</title>
<path fill="none" stroke="#191970" d="M37.6224,-513.2297C40.2149,-480.5432 52.8826,-373.7157 110,-314 114.1689,-309.6415 119.4683,-306.2583 125.0052,-303.6398"/>
<polygon fill="#191970" stroke="#191970" points="126.3846,-306.858 134.3898,-299.9177 123.8038,-300.3511 126.3846,-306.858"/>
</g>
<!-- Node123 -->
<g id="node47" class="node">
<title>Node123</title>
<g id="a_node47"><a xlink:href="navier5_8f.html#a519066c177fc94530849e83d3b9d4cfb" target="_top" xlink:title="q_filter">
<polygon fill="#ffffff" stroke="#000000" points="134.5,-247.5 134.5,-266.5 180.5,-266.5 180.5,-247.5 134.5,-247.5"/>
<text text-anchor="middle" x="157.5" y="-254.5" font-family="Helvetica,sans-Serif" font-size="10.00" fill="#000000">q_filter</text>
</a>
</g>
</g>
<!-- Node67&#45;&gt;Node123 -->
<g id="edge49" class="edge">
<title>Node67&#45;&gt;Node123</title>
<path fill="none" stroke="#191970" d="M38.702,-513.3072C46.0878,-472.2099 76.4999,-312.7752 110,-276 114.0616,-271.5413 119.3107,-268.1112 124.8314,-265.4776"/>
<polygon fill="#191970" stroke="#191970" points="126.2111,-268.6957 134.2173,-261.7566 123.6313,-262.1884 126.2111,-268.6957"/>
</g>
<!-- Node124 -->
<g id="node48" class="node">
<title>Node124</title>
<g id="a_node48"><a xlink:href="induct_8f.html#aa44a44eb5a5e3f510211f8fd8e6b12b7" target="_top" xlink:title="induct">
<polygon fill="#ffffff" stroke="#000000" points="136,-209.5 136,-228.5 179,-228.5 179,-209.5 136,-209.5"/>
<text text-anchor="middle" x="157.5" y="-216.5" font-family="Helvetica,sans-Serif" font-size="10.00" fill="#000000">induct</text>
</a>
</g>
</g>
<!-- Node67&#45;&gt;Node124 -->
<g id="edge50" class="edge">
<title>Node67&#45;&gt;Node124</title>
<path fill="none" stroke="#191970" d="M38.2843,-513.3742C44.4276,-468.6133 72.0886,-281.1799 110,-238 114.3071,-233.0944 120.0565,-229.4394 126.0649,-226.7214"/>
<polygon fill="#191970" stroke="#191970" points="127.4082,-229.9559 135.55,-223.1763 124.9575,-223.3989 127.4082,-229.9559"/>
</g>
<!-- Node125 -->
<g id="node49" class="node">
<title>Node125</title>
<g id="a_node49"><a xlink:href="perturb_8f.html#ad8d4119d40930d56b2095e9457f93bab" target="_top" xlink:title="fluidp">
<polygon fill="#ffffff" stroke="#000000" points="137.5,-171.5 137.5,-190.5 177.5,-190.5 177.5,-171.5 137.5,-171.5"/>
<text text-anchor="middle" x="157.5" y="-178.5" font-family="Helvetica,sans-Serif" font-size="10.00" fill="#000000">fluidp</text>
</a>
</g>
</g>
<!-- Node67&#45;&gt;Node125 -->
<g id="edge51" class="edge">
<title>Node67&#45;&gt;Node125</title>
<path fill="none" stroke="#191970" d="M37.9678,-513.4154C43.0076,-465.2124 67.6509,-249.6424 110,-200 114.6475,-194.5521 121.0791,-190.6512 127.71,-187.8631"/>
<polygon fill="#191970" stroke="#191970" points="129.0724,-191.0956 137.383,-184.5242 126.7883,-184.4787 129.0724,-191.0956"/>
</g>
<!-- Node126 -->
<g id="node50" class="node">
<title>Node126</title>
<g id="a_node50"><a xlink:href="perturb_8f.html#ac353eeb6dfd3fec540b933d9c701b0e7" target="_top" xlink:title="heatp">
<polygon fill="#ffffff" stroke="#000000" points="137,-133.5 137,-152.5 178,-152.5 178,-133.5 137,-133.5"/>
<text text-anchor="middle" x="157.5" y="-140.5" font-family="Helvetica,sans-Serif" font-size="10.00" fill="#000000">heatp</text>
</a>
</g>
</g>
<!-- Node67&#45;&gt;Node126 -->
<g id="edge52" class="edge">
<title>Node67&#45;&gt;Node126</title>
<path fill="none" stroke="#191970" d="M37.7268,-513.3403C41.7914,-461.6628 63.2225,-218.1137 110,-162 114.5088,-156.5913 120.7807,-152.7103 127.2911,-149.9297"/>
<polygon fill="#191970" stroke="#191970" points="128.5407,-153.2006 136.8227,-146.5931 126.2279,-146.5937 128.5407,-153.2006"/>
</g>
<!-- Node84 -->
<g id="node18" class="node">
<title>Node84</title>
<g id="a_node18"><a xlink:href="subs1_8f.html#a8f2e17fa9df4e1df865aa17b294f867c" target="_top" xlink:title="unorm">
<polygon fill="#ffffff" stroke="#000000" points="254.5,-266.5 254.5,-285.5 298.5,-285.5 298.5,-266.5 254.5,-266.5"/>
<text text-anchor="middle" x="276.5" y="-273.5" font-family="Helvetica,sans-Serif" font-size="10.00" fill="#000000">unorm</text>
</a>
</g>
</g>
<!-- Node83&#45;&gt;Node84 -->
<g id="edge17" class="edge">
<title>Node83&#45;&gt;Node84</title>
<path fill="none" stroke="#191970" d="M175.1515,-366.8149C184.7562,-363.8725 196.3975,-359.1579 205,-352 228.0325,-332.8353 219.0652,-315.4118 241,-295 242.4585,-293.6428 244.0322,-292.3523 245.6774,-291.1305"/>
<polygon fill="#191970" stroke="#191970" points="247.7686,-293.9473 254.297,-285.6027 243.9898,-288.0549 247.7686,-293.9473"/>
</g>
<!-- Node85 -->
<g id="node19" class="node">
<title>Node85</title>
<g id="a_node19"><a xlink:href="ssolv_8f.html#a2042097d2d5ef6c25e65f059e2c56756" target="_top" xlink:title="settolv">
<polygon fill="#ffffff" stroke="#000000" points="253.5,-228.5 253.5,-247.5 299.5,-247.5 299.5,-228.5 253.5,-228.5"/>
<text text-anchor="middle" x="276.5" y="-235.5" font-family="Helvetica,sans-Serif" font-size="10.00" fill="#000000">settolv</text>
</a>
</g>
</g>
<!-- Node83&#45;&gt;Node85 -->
<g id="edge18" class="edge">
<title>Node83&#45;&gt;Node85</title>
<path fill="none" stroke="#191970" d="M175.2762,-367.584C185.1599,-364.862 197.0349,-360.112 205,-352 236.6342,-319.7821 211.2001,-290.9217 241,-257 242.1736,-255.6641 243.4644,-254.4061 244.8377,-253.2237"/>
<polygon fill="#191970" stroke="#191970" points="247.1723,-255.862 253.3607,-247.2623 243.1601,-250.1259 247.1723,-255.862"/>
</g>
<!-- Node86 -->
<g id="node20" class="node">
<title>Node86</title>
<g id="a_node20"><a xlink:href="plan4_8f.html#a247fc105464de543a464773054eb509e" target="_top" xlink:title="plan4">
<polygon fill="#ffffff" stroke="#000000" points="256.5,-190.5 256.5,-209.5 296.5,-209.5 296.5,-190.5 256.5,-190.5"/>
<text text-anchor="middle" x="276.5" y="-197.5" font-family="Helvetica,sans-Serif" font-size="10.00" fill="#000000">plan4</text>
</a>
</g>
</g>
<!-- Node83&#45;&gt;Node86 -->
<g id="edge19" class="edge">
<title>Node83&#45;&gt;Node86</title>
<path fill="none" stroke="#191970" d="M175.1143,-367.9906C185.1942,-365.3895 197.3232,-360.6247 205,-352 245.7153,-306.2574 202.8827,-266.929 241,-219 242.8764,-216.6406 245.1281,-214.5369 247.5753,-212.6697"/>
<polygon fill="#191970" stroke="#191970" points="249.7337,-215.4496 256.3877,-207.2049 246.0446,-209.5006 249.7337,-215.4496"/>
</g>
<!-- Node87 -->
<g id="node21" class="node">
<title>Node87</title>
<g id="a_node21"><a xlink:href="navier4_8f.html#a43f20a275a318725bfdf9e8eaa0839fa" target="_top" xlink:title="chkptol">
<polygon fill="#ffffff" stroke="#000000" points="446.5,-456.5 446.5,-475.5 494.5,-475.5 494.5,-456.5 446.5,-456.5"/>
<text text-anchor="middle" x="470.5" y="-463.5" font-family="Helvetica,sans-Serif" font-size="10.00" fill="#000000">chkptol</text>
</a>
</g>
</g>
<!-- Node83&#45;&gt;Node87 -->
<g id="edge20" class="edge">
<title>Node83&#45;&gt;Node87</title>
<path fill="none" stroke="#191970" d="M175.0524,-368.0153C204.1449,-363.7231 263.9166,-357.6937 312,-371 319.3815,-373.0427 403.9665,-424.9123 446.4528,-451.1261"/>
<polygon fill="#191970" stroke="#191970" points="444.7306,-454.1761 455.0781,-456.4522 448.4085,-448.2201 444.7306,-454.1761"/>
</g>
<!-- Node88 -->
<g id="node22" class="node">
<title>Node88</title>
<g id="a_node22"><a xlink:href="multimesh_8f.html#a282d987d75bd8a426ecf0d9e752cd2df" target="_top" xlink:title="vol_flow_ms">
<polygon fill="#ffffff" stroke="#000000" points="241,-152.5 241,-171.5 312,-171.5 312,-152.5 241,-152.5"/>
<text text-anchor="middle" x="276.5" y="-159.5" font-family="Helvetica,sans-Serif" font-size="10.00" fill="#000000">vol_flow_ms</text>
</a>
</g>
</g>
<!-- Node83&#45;&gt;Node88 -->
<g id="edge21" class="edge">
<title>Node83&#45;&gt;Node88</title>
<path fill="none" stroke="#191970" d="M175.2947,-368.1466C185.4385,-365.6008 197.5714,-360.8393 205,-352 254.968,-292.5425 194.4044,-243.1357 241,-181 241.8021,-179.9304 242.6825,-178.9146 243.6249,-177.9505"/>
<polygon fill="#191970" stroke="#191970" points="246.0911,-180.4643 251.7977,-171.5376 241.7699,-174.9572 246.0911,-180.4643"/>
</g>
<!-- Node89 -->
<g id="node23" class="node">
<title>Node89</title>
<g id="a_node23"><a xlink:href="drive2_8f.html#ae46d95459d293cfb4656cbeb0e086f2a" target="_top" xlink:title="vol_flow">
<polygon fill="#ffffff" stroke="#000000" points="250,-114.5 250,-133.5 303,-133.5 303,-114.5 250,-114.5"/>
<text text-anchor="middle" x="276.5" y="-121.5" font-family="Helvetica,sans-Serif" font-size="10.00" fill="#000000">vol_flow</text>
</a>
</g>
</g>
<!-- Node83&#45;&gt;Node89 -->
<g id="edge22" class="edge">
<title>Node83&#45;&gt;Node89</title>
<path fill="none" stroke="#191970" d="M175.4142,-368.2452C185.6004,-365.7343 197.7359,-360.975 205,-352 264.2997,-278.7341 185.8524,-219.4401 241,-143 241.7592,-141.9477 242.5949,-140.9481 243.4921,-139.9991"/>
<polygon fill="#191970" stroke="#191970" points="245.739,-142.6834 251.3229,-133.6795 241.3428,-137.236 245.739,-142.6834"/>
</g>
<!-- Node90 -->
<g id="node24" class="node">
<title>Node90</title>
<g id="a_node24"><a xlink:href="plan4_8f.html#a7dc32896a9c8fafb6bcb0103e7507909" target="_top" xlink:title="printdiverr">
<polygon fill="#ffffff" stroke="#000000" points="247,-456.5 247,-475.5 306,-475.5 306,-456.5 247,-456.5"/>
<text text-anchor="middle" x="276.5" y="-463.5" font-family="Helvetica,sans-Serif" font-size="10.00" fill="#000000">printdiverr</text>
</a>
</g>
</g>
<!-- Node83&#45;&gt;Node90 -->
<g id="edge23" class="edge">
<title>Node83&#45;&gt;Node90</title>
<path fill="none" stroke="#191970" d="M175.0152,-377.3661C184.5774,-381.4205 196.2213,-387.3539 205,-395 226.1964,-413.4617 220.0226,-428.2898 241,-447 242.5259,-448.361 244.1666,-449.659 245.8759,-450.8907"/>
<polygon fill="#191970" stroke="#191970" points="244.45,-454.1281 254.7804,-456.4806 248.1718,-448.1995 244.45,-454.1281"/>
</g>
<!-- Node91 -->
<g id="node25" class="node">
<title>Node91</title>
<g id="a_node25"><a xlink:href="plan5_8f.html#ae6f47947bd1a89d608ae3b90ac8f433d" target="_top" xlink:title="plan5">
<polygon fill="#ffffff" stroke="#000000" points="256.5,-418.5 256.5,-437.5 296.5,-437.5 296.5,-418.5 256.5,-418.5"/>
<text text-anchor="middle" x="276.5" y="-425.5" font-family="Helvetica,sans-Serif" font-size="10.00" fill="#000000">plan5</text>
</a>
</g>
</g>
<!-- Node83&#45;&gt;Node91 -->
<g id="edge24" class="edge">
<title>Node83&#45;&gt;Node91</title>
<path fill="none" stroke="#191970" d="M175.0589,-379.4105C194.0666,-388.5151 224.693,-403.1849 247.3274,-414.0266"/>
<polygon fill="#191970" stroke="#191970" points="245.9507,-417.2479 256.4814,-418.4113 248.9746,-410.9347 245.9507,-417.2479"/>
</g>
<!-- Node92 -->
<g id="node26" class="node">
<title>Node92</title>
<g id="a_node26"><a xlink:href="group__core.html#ga142f9186a662d3de60f09bb0ee26782d" target="_top" xlink:title="Compute pressure and velocity using consistent approximation spaces. Operator splitting technique...">
<polygon fill="#ffffff" stroke="#000000" points="256.5,-304.5 256.5,-323.5 296.5,-323.5 296.5,-304.5 256.5,-304.5"/>
<text text-anchor="middle" x="276.5" y="-311.5" font-family="Helvetica,sans-Serif" font-size="10.00" fill="#000000">plan3</text>
</a>
</g>
</g>
<!-- Node83&#45;&gt;Node92 -->
<g id="edge25" class="edge">
<title>Node83&#45;&gt;Node92</title>
<path fill="none" stroke="#191970" d="M175.2882,-364.4093C184.291,-360.9419 195.3322,-356.4867 205,-352 220.3911,-344.8572 237.1636,-336.0023 250.5932,-328.6377"/>
<polygon fill="#191970" stroke="#191970" points="252.663,-331.4923 259.7138,-323.5843 249.2704,-325.3693 252.663,-331.4923"/>
</g>
<!-- Node121 -->
<g id="node45" class="node">
<title>Node121</title>
<g id="a_node45"><a xlink:href="navier1_8f.html#a23e6343990072aa1a6b17109ccc7ba2b" target="_top" xlink:title="plan1">
<polygon fill="#ffffff" stroke="#000000" points="256.5,-380.5 256.5,-399.5 296.5,-399.5 296.5,-380.5 256.5,-380.5"/>
<text text-anchor="middle" x="276.5" y="-387.5" font-family="Helvetica,sans-Serif" font-size="10.00" fill="#000000">plan1</text>
</a>
</g>
</g>
<!-- Node83&#45;&gt;Node121 -->
<g id="edge47" class="edge">
<title>Node83&#45;&gt;Node121</title>
<path fill="none" stroke="#191970" d="M175.0589,-373.8035C193.812,-376.7977 223.8747,-381.5976 246.4138,-385.1963"/>
<polygon fill="#191970" stroke="#191970" points="246.0546,-388.6832 256.4814,-386.8038 247.1584,-381.7708 246.0546,-388.6832"/>
</g>
<!-- Node93 -->
<g id="node27" class="node">
<title>Node93</title>
<g id="a_node27"><a xlink:href="group__core.html#ga83189b3d1938d87f00ace2e7e05d9e4c" target="_top" xlink:title="Compute and add. ">
<polygon fill="#ffffff" stroke="#000000" points="354,-256.5 354,-275.5 398,-275.5 398,-256.5 354,-256.5"/>
<text text-anchor="middle" x="376" y="-263.5" font-family="Helvetica,sans-Serif" font-size="10.00" fill="#000000">makef</text>
</a>
</g>
</g>
<!-- Node92&#45;&gt;Node93 -->
<g id="edge26" class="edge">
<title>Node92&#45;&gt;Node93</title>
<path fill="none" stroke="#191970" d="M296.6353,-304.2865C311.1609,-297.2792 330.9821,-287.7172 347.1819,-279.9022"/>
<polygon fill="#191970" stroke="#191970" points="348.7482,-283.0326 356.2342,-275.5353 345.7067,-276.7279 348.7482,-283.0326"/>
</g>
<!-- Node103 -->
<g id="node37" class="node">
<title>Node103</title>
<g id="a_node37"><a xlink:href="subs1_8f.html#ae2376b70f309c6118b4e43df9cbe66b1" target="_top" xlink:title="sethlm">
<polygon fill="#ffffff" stroke="#000000" points="353,-218.5 353,-237.5 399,-237.5 399,-218.5 353,-218.5"/>
<text text-anchor="middle" x="376" y="-225.5" font-family="Helvetica,sans-Serif" font-size="10.00" fill="#000000">sethlm</text>
</a>
</g>
</g>
<!-- Node92&#45;&gt;Node103 -->
<g id="edge36" class="edge">
<title>Node92&#45;&gt;Node103</title>
<path fill="none" stroke="#191970" d="M296.6381,-305.1723C301.9353,-302.3448 307.4384,-298.9157 312,-295 332.2342,-277.6308 328.7032,-265.405 348,-247 349.1159,-245.9357 350.2974,-244.8898 351.5192,-243.8699"/>
<polygon fill="#191970" stroke="#191970" points="353.9948,-246.3887 359.9015,-237.5931 349.799,-240.7855 353.9948,-246.3887"/>
</g>
<!-- Node104 -->
<g id="node38" class="node">
<title>Node104</title>
<g id="a_node38"><a xlink:href="planx_8f.html#a02873cc7b2b98973667aa8cb9f2cbadb" target="_top" xlink:title="cresvif">
<polygon fill="#ffffff" stroke="#000000" points="353,-180.5 353,-199.5 399,-199.5 399,-180.5 353,-180.5"/>
<text text-anchor="middle" x="376" y="-187.5" font-family="Helvetica,sans-Serif" font-size="10.00" fill="#000000">cresvif</text>
</a>
</g>
</g>
<!-- Node92&#45;&gt;Node104 -->
<g id="edge37" class="edge">
<title>Node92&#45;&gt;Node104</title>
<path fill="none" stroke="#191970" d="M296.5832,-306.2655C302.1233,-303.3851 307.7675,-299.6548 312,-295 339.8757,-264.3425 321.7679,-241.0752 348,-209 348.8159,-208.0024 349.6975,-207.0362 350.6277,-206.1035"/>
<polygon fill="#191970" stroke="#191970" points="352.9592,-208.717 358.4215,-199.6387 348.4901,-203.3292 352.9592,-208.717"/>
</g>
<!-- Node105 -->
<g id="node39" class="node">
<title>Node105</title>
<g id="a_node39"><a xlink:href="induct_8f.html#a1a8a16f24236d6e6f08fe4d60cb29d01" target="_top" xlink:title="ophinv">
<polygon fill="#ffffff" stroke="#000000" points="353.5,-142.5 353.5,-161.5 398.5,-161.5 398.5,-142.5 353.5,-142.5"/>
<text text-anchor="middle" x="376" y="-149.5" font-family="Helvetica,sans-Serif" font-size="10.00" fill="#000000">ophinv</text>
</a>
</g>
</g>
<!-- Node92&#45;&gt;Node105 -->
<g id="edge38" class="edge">
<title>Node92&#45;&gt;Node105</title>
<path fill="none" stroke="#191970" d="M296.5561,-306.7499C302.2278,-303.856 307.9513,-299.9968 312,-295 348.1275,-250.4126 314.257,-217.4181 348,-171 348.6563,-170.0972 349.3694,-169.2237 350.1273,-168.3802"/>
<polygon fill="#191970" stroke="#191970" points="352.6272,-170.8428 357.8317,-161.6144 348.0082,-165.5831 352.6272,-170.8428"/>
</g>
<!-- Node106 -->
<g id="node40" class="node">
<title>Node106</title>
<g id="a_node40"><a xlink:href="navier1_8f.html#ad1bbe02eb4b6eb1d16f7612e1947dac5" target="_top" xlink:title="opadd2">
<polygon fill="#ffffff" stroke="#000000" points="352,-104.5 352,-123.5 400,-123.5 400,-104.5 352,-104.5"/>
<text text-anchor="middle" x="376" y="-111.5" font-family="Helvetica,sans-Serif" font-size="10.00" fill="#000000">opadd2</text>
</a>
</g>
</g>
<!-- Node92&#45;&gt;Node106 -->
<g id="edge39" class="edge">
<title>Node92&#45;&gt;Node106</title>
<path fill="none" stroke="#191970" d="M296.7551,-306.906C302.4349,-304.0184 308.1129,-300.1236 312,-295 356.579,-236.2402 306.5592,-194.0136 348,-133 348.5343,-132.2133 349.113,-131.4502 349.7283,-130.7107"/>
<polygon fill="#191970" stroke="#191970" points="352.3658,-133.0409 357.3698,-123.7022 347.6343,-127.8821 352.3658,-133.0409"/>
</g>
<!-- Node107 -->
<g id="node41" class="node">
<title>Node107</title>
<g id="a_node41"><a xlink:href="group__core.html#gaeb2c6d4ae2c98143118acce2419c034d" target="_top" xlink:title="Project U onto the closest incompressible field. ">
<polygon fill="#ffffff" stroke="#ff0000" points="348,-313.5 348,-332.5 404,-332.5 404,-313.5 348,-313.5"/>
<text text-anchor="middle" x="376" y="-320.5" font-family="Helvetica,sans-Serif" font-size="10.00" fill="#000000">incomprn</text>
</a>
</g>
</g>
<!-- Node92&#45;&gt;Node107 -->
<g id="edge40" class="edge">
<title>Node92&#45;&gt;Node107</title>
<path fill="none" stroke="#191970" d="M296.6353,-315.8213C308.4006,-316.8855 323.64,-318.2639 337.6154,-319.528"/>
<polygon fill="#191970" stroke="#191970" points="337.7028,-323.0501 347.9775,-320.4653 338.3335,-316.0786 337.7028,-323.0501"/>
</g>
<!-- Node94 -->
<g id="node28" class="node">
<title>Node94</title>
<g id="a_node28"><a xlink:href="comm__mpi_8f.html#af06ec29f06aac3f8809e19de2a7e8946" target="_top" xlink:title="dnekclock">
<polygon fill="#ffffff" stroke="#000000" points="440,-304.5 440,-323.5 501,-323.5 501,-304.5 440,-304.5"/>
<text text-anchor="middle" x="470.5" y="-311.5" font-family="Helvetica,sans-Serif" font-size="10.00" fill="#000000">dnekclock</text>
</a>
</g>
</g>
<!-- Node93&#45;&gt;Node94 -->
<g id="edge27" class="edge">
<title>Node93&#45;&gt;Node94</title>
<path fill="none" stroke="#191970" d="M395.1235,-275.7135C408.7902,-282.6553 427.3929,-292.1043 442.6978,-299.8782"/>
<polygon fill="#191970" stroke="#191970" points="441.2266,-303.0566 451.7275,-304.4647 444.3967,-296.8155 441.2266,-303.0566"/>
</g>
<!-- Node95 -->
<g id="node29" class="node">
<title>Node95</title>
<g id="a_node29"><a xlink:href="navier1_8f.html#a04edbb4ba3cfada4513a76a4e65a5561" target="_top" xlink:title="makeuf">
<polygon fill="#ffffff" stroke="#000000" points="446,-190.5 446,-209.5 495,-209.5 495,-190.5 446,-190.5"/>
<text text-anchor="middle" x="470.5" y="-197.5" font-family="Helvetica,sans-Serif" font-size="10.00" fill="#000000">makeuf</text>
</a>
</g>
</g>
<!-- Node93&#45;&gt;Node95 -->
<g id="edge28" class="edge">
<title>Node93&#45;&gt;Node95</title>
<path fill="none" stroke="#191970" d="M390.6568,-256.3156C394.9933,-253.3803 399.7235,-250.109 404,-247 420.395,-235.0808 423.3753,-230.5967 440,-219 441.8708,-217.695 443.8293,-216.3752 445.8124,-215.0715"/>
<polygon fill="#191970" stroke="#191970" points="447.9164,-217.881 454.4673,-209.5542 444.1535,-211.9784 447.9164,-217.881"/>
</g>
<!-- Node96 -->
<g id="node30" class="node">
<title>Node96</title>
<g id="a_node30"><a xlink:href="hpf_8f.html#aa74c82c5e339de802f489470b23422a0" target="_top" xlink:title="make_hpf">
<polygon fill="#ffffff" stroke="#000000" points="441,-152.5 441,-171.5 500,-171.5 500,-152.5 441,-152.5"/>
<text text-anchor="middle" x="470.5" y="-159.5" font-family="Helvetica,sans-Serif" font-size="10.00" fill="#000000">make_hpf</text>
</a>
</g>
</g>
<!-- Node93&#45;&gt;Node96 -->
<g id="edge29" class="edge">
<title>Node93&#45;&gt;Node96</title>
<path fill="none" stroke="#191970" d="M393.0273,-256.3415C396.9228,-253.6407 400.8416,-250.4802 404,-247 426.4553,-222.2573 417.0656,-205.2993 440,-181 441.0437,-179.8941 442.1652,-178.8266 443.3402,-177.8001"/>
<polygon fill="#191970" stroke="#191970" points="445.6755,-180.4254 451.6132,-171.6507 441.4995,-174.8074 445.6755,-180.4254"/>
</g>
<!-- Node97 -->
<g id="node31" class="node">
<title>Node97</title>
<g id="a_node31"><a xlink:href="navier1_8f.html#ae6ed8f0409f034c9d0dff152a3445d90" target="_top" xlink:title="makevis">
<polygon fill="#ffffff" stroke="#000000" points="444,-114.5 444,-133.5 497,-133.5 497,-114.5 444,-114.5"/>
<text text-anchor="middle" x="470.5" y="-121.5" font-family="Helvetica,sans-Serif" font-size="10.00" fill="#000000">makevis</text>
</a>
</g>
</g>
<!-- Node93&#45;&gt;Node97 -->
<g id="edge30" class="edge">
<title>Node93&#45;&gt;Node97</title>
<path fill="none" stroke="#191970" d="M393.7431,-256.4916C397.5244,-253.8214 401.2126,-250.6369 404,-247 433.754,-208.1774 409.4932,-181.2339 440,-143 440.8098,-141.9851 441.6895,-141.0096 442.6224,-140.0739"/>
<polygon fill="#191970" stroke="#191970" points="444.9558,-142.6884 450.538,-133.6834 440.5586,-137.2418 444.9558,-142.6884"/>
</g>
<!-- Node98 -->
<g id="node32" class="node">
<title>Node98</title>
<g id="a_node32"><a xlink:href="navier1_8f.html#a344ec731e4a89d0f136c91bc1963e8d5" target="_top" xlink:title="advab">
<polygon fill="#ffffff" stroke="#000000" points="449,-76.5 449,-95.5 492,-95.5 492,-76.5 449,-76.5"/>
<text text-anchor="middle" x="470.5" y="-83.5" font-family="Helvetica,sans-Serif" font-size="10.00" fill="#000000">advab</text>
</a>
</g>
</g>
<!-- Node93&#45;&gt;Node98 -->
<g id="edge31" class="edge">
<title>Node93&#45;&gt;Node98</title>
<path fill="none" stroke="#191970" d="M394.2606,-256.4515C397.928,-253.8155 401.437,-250.6558 404,-247 441.3751,-193.6885 401.5906,-157.5712 440,-105 440.766,-103.9516 441.609,-102.9481 442.5115,-101.9891"/>
<polygon fill="#191970" stroke="#191970" points="444.8562,-104.5912 450.3017,-95.5029 440.3772,-99.2118 444.8562,-104.5912"/>
</g>
<!-- Node99 -->
<g id="node33" class="node">
<title>Node99</title>
<g id="a_node33"><a xlink:href="mvmesh_8f.html#a1b9c194ae1f554f335f3d6c21eacded3" target="_top" xlink:title="admeshv">
<polygon fill="#ffffff" stroke="#000000" points="442.5,-38.5 442.5,-57.5 498.5,-57.5 498.5,-38.5 442.5,-38.5"/>
<text text-anchor="middle" x="470.5" y="-45.5" font-family="Helvetica,sans-Serif" font-size="10.00" fill="#000000">admeshv</text>
</a>
</g>
</g>
<!-- Node93&#45;&gt;Node99 -->
<g id="edge32" class="edge">
<title>Node93&#45;&gt;Node99</title>
<path fill="none" stroke="#191970" d="M394.6884,-256.3369C398.242,-253.7375 401.5959,-250.6219 404,-247 449.1186,-179.0271 393.5621,-134.0785 440,-67 440.6392,-66.0767 441.3393,-65.1893 442.0885,-64.3374"/>
<polygon fill="#191970" stroke="#191970" points="444.581,-66.8087 449.8431,-57.613 439.995,-61.5201 444.581,-66.8087"/>
</g>
<!-- Node100 -->
<g id="node34" class="node">
<title>Node100</title>
<g id="a_node34"><a xlink:href="navier1_8f.html#ab907b0b4f57c160c86799b03de3cef19" target="_top" xlink:title="makeabf">
<polygon fill="#ffffff" stroke="#000000" points="443.5,-.5 443.5,-19.5 497.5,-19.5 497.5,-.5 443.5,-.5"/>
<text text-anchor="middle" x="470.5" y="-7.5" font-family="Helvetica,sans-Serif" font-size="10.00" fill="#000000">makeabf</text>
</a>
</g>
</g>
<!-- Node93&#45;&gt;Node100 -->
<g id="edge33" class="edge">
<title>Node93&#45;&gt;Node100</title>
<path fill="none" stroke="#191970" d="M394.7815,-256.3976C398.3294,-253.7945 401.6573,-250.662 404,-247 456.9204,-164.2783 385.4736,-110.6721 440,-29 440.6235,-28.0661 441.3101,-27.1695 442.0479,-26.3098"/>
<polygon fill="#191970" stroke="#191970" points="444.5432,-28.7764 449.746,-19.547 439.9233,-23.5175 444.5432,-28.7764"/>
</g>
<!-- Node101 -->
<g id="node35" class="node">
<title>Node101</title>
<g id="a_node35"><a xlink:href="navier1_8f.html#a0510a60155ebc71a3acda4b1e7e507e5" target="_top" xlink:title="makebdf">
<polygon fill="#ffffff" stroke="#000000" points="443.5,-266.5 443.5,-285.5 497.5,-285.5 497.5,-266.5 443.5,-266.5"/>
<text text-anchor="middle" x="470.5" y="-273.5" font-family="Helvetica,sans-Serif" font-size="10.00" fill="#000000">makebdf</text>
</a>
</g>
</g>
<!-- Node93&#45;&gt;Node101 -->
<g id="edge34" class="edge">
<title>Node93&#45;&gt;Node101</title>
<path fill="none" stroke="#191970" d="M398.3952,-268.3699C408.7799,-269.4688 421.4038,-270.8046 433.1686,-272.0496"/>
<polygon fill="#191970" stroke="#191970" points="432.8955,-275.5401 443.2083,-273.112 433.6322,-268.579 432.8955,-275.5401"/>
</g>
<!-- Node102 -->
<g id="node36" class="node">
<title>Node102</title>
<g id="a_node36"><a xlink:href="convect_8f.html#afc0b2ce765c4ad0f0ec6f2a62536bf57" target="_top" xlink:title="advchar">
<polygon fill="#ffffff" stroke="#000000" points="445,-228.5 445,-247.5 496,-247.5 496,-228.5 445,-228.5"/>
<text text-anchor="middle" x="470.5" y="-235.5" font-family="Helvetica,sans-Serif" font-size="10.00" fill="#000000">advchar</text>
</a>
</g>
</g>
<!-- Node93&#45;&gt;Node102 -->
<g id="edge35" class="edge">
<title>Node93&#45;&gt;Node102</title>
<path fill="none" stroke="#191970" d="M398.3952,-259.3644C409.4203,-256.0977 422.9694,-252.0831 435.3348,-248.4193"/>
<polygon fill="#191970" stroke="#191970" points="436.3333,-251.774 444.9269,-245.5772 434.3446,-245.0624 436.3333,-251.774"/>
</g>
<!-- Node107&#45;&gt;Node81 -->
<g id="edge42" class="edge">
<title>Node107&#45;&gt;Node81</title>
<path fill="none" stroke="#191970" d="M377.6582,-332.8548C382.6458,-359.9377 399.722,-436.6879 440,-485 440.9737,-486.168 442.0386,-487.2858 443.1683,-488.3524"/>
<polygon fill="#191970" stroke="#191970" points="441.2381,-491.2843 451.2883,-494.6375 445.5228,-485.7488 441.2381,-491.2843"/>
</g>
<!-- Node107&#45;&gt;Node87 -->
<g id="edge46" class="edge">
<title>Node107&#45;&gt;Node87</title>
<path fill="none" stroke="#191970" d="M389.8926,-332.5387C394.8891,-336.5304 400.2191,-341.519 404,-347 430.8223,-385.8828 410.3121,-410.2585 440,-447 440.8381,-448.0372 441.7489,-449.0337 442.7143,-449.989"/>
<polygon fill="#191970" stroke="#191970" points="440.8852,-453.0066 450.8879,-456.4991 445.2463,-447.5311 440.8852,-453.0066"/>
</g>
<!-- Node107&#45;&gt;Node94 -->
<g id="edge41" class="edge">
<title>Node107&#45;&gt;Node94</title>
<path fill="none" stroke="#191970" d="M404.0973,-320.3241C412.0652,-319.5652 420.9079,-318.7231 429.473,-317.9073"/>
<polygon fill="#191970" stroke="#191970" points="430.0822,-321.3652 439.7053,-316.9328 429.4185,-314.3968 430.0822,-321.3652"/>
</g>
<!-- Node108 -->
<g id="node42" class="node">
<title>Node108</title>
<g id="a_node42"><a xlink:href="math_8f.html#a3b43508554f14bdea8e14473d7d0803c" target="_top" xlink:title="copy">
<polygon fill="#ffffff" stroke="#000000" points="451.5,-418.5 451.5,-437.5 489.5,-437.5 489.5,-418.5 451.5,-418.5"/>
<text text-anchor="middle" x="470.5" y="-425.5" font-family="Helvetica,sans-Serif" font-size="10.00" fill="#000000">copy</text>
</a>
</g>
</g>
<!-- Node107&#45;&gt;Node108 -->
<g id="edge43" class="edge">
<title>Node107&#45;&gt;Node108</title>
<path fill="none" stroke="#191970" d="M389.1023,-332.6907C394.1118,-336.7724 399.6586,-341.7837 404,-347 424.3836,-371.4912 417.8214,-386.1217 440,-409 441.1941,-410.2318 442.4837,-411.4182 443.8343,-412.5548"/>
<polygon fill="#191970" stroke="#191970" points="441.8524,-415.4411 451.9997,-418.4879 445.9673,-409.7782 441.8524,-415.4411"/>
</g>
<!-- Node109 -->
<g id="node43" class="node">
<title>Node109</title>
<g id="a_node43"><a xlink:href="math_8f.html#a0fcb0ff151fe3548d0d07961e8365efe" target="_top" xlink:title="invers2">
<polygon fill="#ffffff" stroke="#000000" points="446.5,-380.5 446.5,-399.5 494.5,-399.5 494.5,-380.5 446.5,-380.5"/>
<text text-anchor="middle" x="470.5" y="-387.5" font-family="Helvetica,sans-Serif" font-size="10.00" fill="#000000">invers2</text>
</a>
</g>
</g>
<!-- Node107&#45;&gt;Node109 -->
<g id="edge44" class="edge">
<title>Node107&#45;&gt;Node109</title>
<path fill="none" stroke="#191970" d="M388.0403,-332.5214C400.7366,-342.4442 421.4339,-358.2897 440,-371 441.8822,-372.2885 443.8488,-373.5965 445.8375,-374.8922"/>
<polygon fill="#191970" stroke="#191970" points="444.1846,-377.9886 454.5026,-380.3947 447.9371,-372.0794 444.1846,-377.9886"/>
</g>
<!-- Node110 -->
<g id="node44" class="node">
<title>Node110</title>
<g id="a_node44"><a xlink:href="navier1_8f.html#a58af49abaf1ee0cc07be356ad2721d90" target="_top" xlink:title="opdiv">
<polygon fill="#ffffff" stroke="#000000" points="450.5,-342.5 450.5,-361.5 490.5,-361.5 490.5,-342.5 450.5,-342.5"/>
<text text-anchor="middle" x="470.5" y="-349.5" font-family="Helvetica,sans-Serif" font-size="10.00" fill="#000000">opdiv</text>
</a>
</g>
</g>
<!-- Node107&#45;&gt;Node110 -->
<g id="edge45" class="edge">
<title>Node107&#45;&gt;Node110</title>
<path fill="none" stroke="#191970" d="M404.0973,-331.6224C415.6271,-335.1607 428.9886,-339.261 440.69,-342.852"/>
<polygon fill="#191970" stroke="#191970" points="439.8713,-346.2617 450.4581,-345.8496 441.9249,-339.5698 439.8713,-346.2617"/>
</g>
</g>
</svg>
