<?xml version="1.0" encoding="UTF-8" standalone="no"?>
<!DOCTYPE svg PUBLIC "-//W3C//DTD SVG 1.1//EN"
 "http://www.w3.org/Graphics/SVG/1.1/DTD/svg11.dtd">
<!-- Generated by graphviz version 2.43.0 (0)
 -->
<!-- Title: plan3 Pages: 1 -->
<svg width="254pt" height="902pt"
 viewBox="0.00 0.00 254.00 902.00" xmlns="http://www.w3.org/2000/svg" xmlns:xlink="http://www.w3.org/1999/xlink">
<g id="graph0" class="graph" transform="scale(1 1) rotate(0) translate(4 898)">
<title>plan3</title>
<polygon fill="white" stroke="transparent" points="-4,4 -4,-898 250,-898 250,4 -4,4"/>
<!-- Node1 -->
<g id="node1" class="node">
<title>Node1</title>
<g id="a_node1"><a xlink:title=" ">
<polygon fill="#bfbfbf" stroke="black" points="0,-171.5 0,-190.5 44,-190.5 44,-171.5 0,-171.5"/>
<text text-anchor="middle" x="22" y="-178.5" font-family="Helvetica,sans-Serif" font-size="10.00">plan3</text>
</a>
</g>
</g>
<!-- Node2 -->
<g id="node2" class="node">
<title>Node2</title>
<g id="a_node2"><a xlink:href="planx_8f.html#a02873cc7b2b98973667aa8cb9f2cbadb" target="_top" xlink:title=" ">
<polygon fill="white" stroke="black" points="86,-589.5 86,-608.5 136,-608.5 136,-589.5 86,-589.5"/>
<text text-anchor="middle" x="111" y="-596.5" font-family="Helvetica,sans-Serif" font-size="10.00">cresvif</text>
</a>
</g>
</g>
<!-- Node1&#45;&gt;Node2 -->
<g id="edge1" class="edge">
<title>Node1&#45;&gt;Node2</title>
<path fill="none" stroke="midnightblue" d="M23.3,-190.77C25.16,-245.37 36.4,-512.58 80,-580 80.6,-580.93 81.27,-581.83 81.99,-582.68"/>
<polygon fill="midnightblue" stroke="midnightblue" points="79.74,-585.37 89.52,-589.44 84.41,-580.16 79.74,-585.37"/>
</g>
<!-- Node3 -->
<g id="node3" class="node">
<title>Node3</title>
<g id="a_node3"><a xlink:href="group__core.html#gaeb2c6d4ae2c98143118acce2419c034d" target="_top" xlink:title="Project U onto the closest incompressible field.">
<polygon fill="white" stroke="black" points="80,-551.5 80,-570.5 142,-570.5 142,-551.5 80,-551.5"/>
<text text-anchor="middle" x="111" y="-558.5" font-family="Helvetica,sans-Serif" font-size="10.00">incomprn</text>
</a>
</g>
</g>
<!-- Node1&#45;&gt;Node3 -->
<g id="edge2" class="edge">
<title>Node1&#45;&gt;Node3</title>
<path fill="none" stroke="midnightblue" d="M25.24,-190.78C36.78,-241.18 89.62,-471.99 105.48,-541.28"/>
<polygon fill="midnightblue" stroke="midnightblue" points="102.13,-542.32 107.78,-551.29 108.96,-540.76 102.13,-542.32"/>
</g>
<!-- Node20 -->
<g id="node20" class="node">
<title>Node20</title>
<g id="a_node20"><a xlink:href="group__core.html#ga83189b3d1938d87f00ace2e7e05d9e4c" target="_top" xlink:title=" ">
<polygon fill="white" stroke="black" points="87.5,-190.5 87.5,-209.5 134.5,-209.5 134.5,-190.5 87.5,-190.5"/>
<text text-anchor="middle" x="111" y="-197.5" font-family="Helvetica,sans-Serif" font-size="10.00">makef</text>
</a>
</g>
</g>
<!-- Node1&#45;&gt;Node20 -->
<g id="edge19" class="edge">
<title>Node1&#45;&gt;Node20</title>
<path fill="none" stroke="midnightblue" d="M44.06,-185.6C54.07,-187.79 66.26,-190.45 77.43,-192.89"/>
<polygon fill="midnightblue" stroke="midnightblue" points="76.79,-196.33 87.31,-195.04 78.28,-189.49 76.79,-196.33"/>
</g>
<!-- Node29 -->
<g id="node29" class="node">
<title>Node29</title>
<g id="a_node29"><a xlink:href="navier1_8f.html#ad1bbe02eb4b6eb1d16f7612e1947dac5" target="_top" xlink:title=" ">
<polygon fill="white" stroke="black" points="84.5,-152.5 84.5,-171.5 137.5,-171.5 137.5,-152.5 84.5,-152.5"/>
<text text-anchor="middle" x="111" y="-159.5" font-family="Helvetica,sans-Serif" font-size="10.00">opadd2</text>
</a>
</g>
</g>
<!-- Node1&#45;&gt;Node29 -->
<g id="edge29" class="edge">
<title>Node1&#45;&gt;Node29</title>
<path fill="none" stroke="midnightblue" d="M44.06,-176.4C53.19,-174.41 64.13,-172.02 74.45,-169.76"/>
<polygon fill="midnightblue" stroke="midnightblue" points="75.46,-173.13 84.48,-167.57 73.96,-166.29 75.46,-173.13"/>
</g>
<!-- Node30 -->
<g id="node30" class="node">
<title>Node30</title>
<g id="a_node30"><a xlink:href="induct_8f.html#a1a8a16f24236d6e6f08fe4d60cb29d01" target="_top" xlink:title=" ">
<polygon fill="white" stroke="black" points="86,-114.5 86,-133.5 136,-133.5 136,-114.5 86,-114.5"/>
<text text-anchor="middle" x="111" y="-121.5" font-family="Helvetica,sans-Serif" font-size="10.00">ophinv</text>
</a>
</g>
</g>
<!-- Node1&#45;&gt;Node30 -->
<g id="edge30" class="edge">
<title>Node1&#45;&gt;Node30</title>
<path fill="none" stroke="midnightblue" d="M37.46,-171.22C48.95,-163.49 65.44,-152.46 80,-143 81.93,-141.74 83.94,-140.45 85.96,-139.16"/>
<polygon fill="midnightblue" stroke="midnightblue" points="88.14,-141.92 94.69,-133.6 84.38,-136.01 88.14,-141.92"/>
</g>
<!-- Node31 -->
<g id="node31" class="node">
<title>Node31</title>
<g id="a_node31"><a xlink:href="subs1_8f.html#ae2376b70f309c6118b4e43df9cbe66b1" target="_top" xlink:title=" ">
<polygon fill="white" stroke="black" points="86,-76.5 86,-95.5 136,-95.5 136,-76.5 86,-76.5"/>
<text text-anchor="middle" x="111" y="-83.5" font-family="Helvetica,sans-Serif" font-size="10.00">sethlm</text>
</a>
</g>
</g>
<!-- Node1&#45;&gt;Node31 -->
<g id="edge31" class="edge">
<title>Node1&#45;&gt;Node31</title>
<path fill="none" stroke="midnightblue" d="M28.7,-171.23C38.02,-155.85 57.71,-125.6 80,-105 81.28,-103.82 82.64,-102.67 84.04,-101.56"/>
<polygon fill="midnightblue" stroke="midnightblue" points="86.26,-104.28 92.41,-95.65 82.22,-98.56 86.26,-104.28"/>
</g>
<!-- Node4 -->
<g id="node4" class="node">
<title>Node4</title>
<g id="a_node4"><a xlink:href="math_8f.html#a30b83d516b6ab162d3fafe73e03a3e92" target="_top" xlink:title=" ">
<polygon fill="white" stroke="black" points="191.5,-874.5 191.5,-893.5 232.5,-893.5 232.5,-874.5 191.5,-874.5"/>
<text text-anchor="middle" x="212" y="-881.5" font-family="Helvetica,sans-Serif" font-size="10.00">add2</text>
</a>
</g>
</g>
<!-- Node3&#45;&gt;Node4 -->
<g id="edge3" class="edge">
<title>Node3&#45;&gt;Node4</title>
<path fill="none" stroke="midnightblue" d="M132.53,-570.53C136.21,-573.11 139.62,-576.25 142,-580 210.46,-687.77 107.28,-758.7 178,-865 179.31,-866.97 180.9,-868.76 182.66,-870.38"/>
<polygon fill="midnightblue" stroke="midnightblue" points="181.01,-873.5 191.18,-876.45 185.07,-867.8 181.01,-873.5"/>
</g>
<!-- Node5 -->
<g id="node5" class="node">
<title>Node5</title>
<g id="a_node5"><a xlink:href="math_8f.html#a1c8c804ea900711911c4c33fe1f5b184" target="_top" xlink:title=" ">
<polygon fill="white" stroke="black" points="181.5,-836.5 181.5,-855.5 242.5,-855.5 242.5,-836.5 181.5,-836.5"/>
<text text-anchor="middle" x="212" y="-843.5" font-family="Helvetica,sans-Serif" font-size="10.00">add2col2</text>
</a>
</g>
</g>
<!-- Node3&#45;&gt;Node5 -->
<g id="edge4" class="edge">
<title>Node3&#45;&gt;Node5</title>
<path fill="none" stroke="midnightblue" d="M132.47,-570.57C136.15,-573.14 139.58,-576.28 142,-580 202.38,-673.07 115.68,-735.22 178,-827 178.63,-827.93 179.32,-828.82 180.07,-829.67"/>
<polygon fill="midnightblue" stroke="midnightblue" points="177.96,-832.48 187.83,-836.33 182.52,-827.16 177.96,-832.48"/>
</g>
<!-- Node6 -->
<g id="node6" class="node">
<title>Node6</title>
<g id="a_node6"><a xlink:href="navier4_8f.html#a43f20a275a318725bfdf9e8eaa0839fa" target="_top" xlink:title=" ">
<polygon fill="white" stroke="black" points="185.5,-798.5 185.5,-817.5 238.5,-817.5 238.5,-798.5 185.5,-798.5"/>
<text text-anchor="middle" x="212" y="-805.5" font-family="Helvetica,sans-Serif" font-size="10.00">chkptol</text>
</a>
</g>
</g>
<!-- Node3&#45;&gt;Node6 -->
<g id="edge5" class="edge">
<title>Node3&#45;&gt;Node6</title>
<path fill="none" stroke="midnightblue" d="M132.4,-570.61C136.09,-573.19 139.54,-576.31 142,-580 194.32,-658.41 124.04,-711.71 178,-789 178.75,-790.07 179.57,-791.08 180.46,-792.05"/>
<polygon fill="midnightblue" stroke="midnightblue" points="178.31,-794.81 188.25,-798.49 182.78,-789.42 178.31,-794.81"/>
</g>
<!-- Node7 -->
<g id="node7" class="node">
<title>Node7</title>
<g id="a_node7"><a xlink:href="math_8f.html#ad2b51b68d370651f4f6d81952503e7be" target="_top" xlink:title=" ">
<polygon fill="white" stroke="black" points="190,-760.5 190,-779.5 234,-779.5 234,-760.5 190,-760.5"/>
<text text-anchor="middle" x="212" y="-767.5" font-family="Helvetica,sans-Serif" font-size="10.00">cmult</text>
</a>
</g>
</g>
<!-- Node3&#45;&gt;Node7 -->
<g id="edge6" class="edge">
<title>Node3&#45;&gt;Node7</title>
<path fill="none" stroke="midnightblue" d="M132.29,-570.69C135.99,-573.26 139.47,-576.35 142,-580 186.29,-643.8 132.37,-688.15 178,-751 179.04,-752.43 180.23,-753.78 181.51,-755.03"/>
<polygon fill="midnightblue" stroke="midnightblue" points="179.64,-758 189.72,-761.27 183.88,-752.43 179.64,-758"/>
</g>
<!-- Node8 -->
<g id="node8" class="node">
<title>Node8</title>
<g id="a_node8"><a xlink:href="math_8f.html#a3b43508554f14bdea8e14473d7d0803c" target="_top" xlink:title=" ">
<polygon fill="white" stroke="black" points="192,-722.5 192,-741.5 232,-741.5 232,-722.5 192,-722.5"/>
<text text-anchor="middle" x="212" y="-729.5" font-family="Helvetica,sans-Serif" font-size="10.00">copy</text>
</a>
</g>
</g>
<!-- Node3&#45;&gt;Node8 -->
<g id="edge7" class="edge">
<title>Node3&#45;&gt;Node8</title>
<path fill="none" stroke="midnightblue" d="M131.82,-570.59C135.64,-573.19 139.29,-576.33 142,-580 178.34,-629.29 140.63,-664.49 178,-713 179.59,-715.06 181.47,-716.94 183.51,-718.64"/>
<polygon fill="midnightblue" stroke="midnightblue" points="181.7,-721.64 191.95,-724.34 185.62,-715.84 181.7,-721.64"/>
</g>
<!-- Node9 -->
<g id="node9" class="node">
<title>Node9</title>
<g id="a_node9"><a xlink:href="comm__mpi_8f.html#af06ec29f06aac3f8809e19de2a7e8946" target="_top" xlink:title=" ">
<polygon fill="white" stroke="black" points="179,-304.5 179,-323.5 245,-323.5 245,-304.5 179,-304.5"/>
<text text-anchor="middle" x="212" y="-311.5" font-family="Helvetica,sans-Serif" font-size="10.00">dnekclock</text>
</a>
</g>
</g>
<!-- Node3&#45;&gt;Node9 -->
<g id="edge8" class="edge">
<title>Node3&#45;&gt;Node9</title>
<path fill="none" stroke="midnightblue" d="M112.31,-551.17C113.85,-517.2 123.07,-403.04 178,-333 178.92,-331.83 179.93,-330.72 181.01,-329.66"/>
<polygon fill="midnightblue" stroke="midnightblue" points="183.16,-332.43 188.92,-323.53 178.87,-326.9 183.16,-332.43"/>
</g>
<!-- Node10 -->
<g id="node10" class="node">
<title>Node10</title>
<g id="a_node10"><a xlink:href="navier0_8f.html#aaba079db7e38db9800deef09526370ec" target="_top" xlink:title=" ">
<polygon fill="white" stroke="black" points="185.5,-684.5 185.5,-703.5 238.5,-703.5 238.5,-684.5 185.5,-684.5"/>
<text text-anchor="middle" x="212" y="-691.5" font-family="Helvetica,sans-Serif" font-size="10.00">esolver</text>
</a>
</g>
</g>
<!-- Node3&#45;&gt;Node10 -->
<g id="edge9" class="edge">
<title>Node3&#45;&gt;Node10</title>
<path fill="none" stroke="midnightblue" d="M131.25,-570.59C135.19,-573.22 139.04,-576.37 142,-580 170.54,-614.99 148.73,-640.62 178,-675 178.99,-676.16 180.07,-677.27 181.22,-678.33"/>
<polygon fill="midnightblue" stroke="midnightblue" points="179.38,-681.32 189.49,-684.49 183.56,-675.71 179.38,-681.32"/>
</g>
<!-- Node11 -->
<g id="node11" class="node">
<title>Node11</title>
<g id="a_node11"><a xlink:href="induct_8f.html#a92d19447dae1fa7af20c94dbf1c09992" target="_top" xlink:title=" ">
<polygon fill="white" stroke="black" points="181.5,-646.5 181.5,-665.5 242.5,-665.5 242.5,-646.5 181.5,-646.5"/>
<text text-anchor="middle" x="212" y="-653.5" font-family="Helvetica,sans-Serif" font-size="10.00">gensolnp</text>
</a>
</g>
</g>
<!-- Node3&#45;&gt;Node11 -->
<g id="edge10" class="edge">
<title>Node3&#45;&gt;Node11</title>
<path fill="none" stroke="midnightblue" d="M130.1,-570.65C134.28,-573.35 138.51,-576.51 142,-580 163.17,-601.2 156.38,-616.25 178,-637 179.28,-638.23 180.65,-639.41 182.08,-640.53"/>
<polygon fill="midnightblue" stroke="midnightblue" points="180.48,-643.67 190.72,-646.4 184.41,-637.88 180.48,-643.67"/>
</g>
<!-- Node12 -->
<g id="node12" class="node">
<title>Node12</title>
<g id="a_node12"><a xlink:href="math_8f.html#a0fcb0ff151fe3548d0d07961e8365efe" target="_top" xlink:title=" ">
<polygon fill="white" stroke="black" points="185.5,-608.5 185.5,-627.5 238.5,-627.5 238.5,-608.5 185.5,-608.5"/>
<text text-anchor="middle" x="212" y="-615.5" font-family="Helvetica,sans-Serif" font-size="10.00">invers2</text>
</a>
</g>
</g>
<!-- Node3&#45;&gt;Node12 -->
<g id="edge11" class="edge">
<title>Node3&#45;&gt;Node12</title>
<path fill="none" stroke="midnightblue" d="M128.79,-570.67C144.39,-579.65 167.83,-593.14 185.69,-603.43"/>
<polygon fill="midnightblue" stroke="midnightblue" points="184.04,-606.52 194.45,-608.47 187.53,-600.45 184.04,-606.52"/>
</g>
<!-- Node13 -->
<g id="node13" class="node">
<title>Node13</title>
<g id="a_node13"><a xlink:href="plan4_8f.html#a8cde16ca4292836a681d1021ada2dc28" target="_top" xlink:title=" ">
<polygon fill="white" stroke="black" points="178,-570.5 178,-589.5 246,-589.5 246,-570.5 178,-570.5"/>
<text text-anchor="middle" x="212" y="-577.5" font-family="Helvetica,sans-Serif" font-size="10.00">opadd2cm</text>
</a>
</g>
</g>
<!-- Node3&#45;&gt;Node13 -->
<g id="edge12" class="edge">
<title>Node3&#45;&gt;Node13</title>
<path fill="none" stroke="midnightblue" d="M142.24,-566.8C150.33,-568.36 159.24,-570.07 167.88,-571.72"/>
<polygon fill="midnightblue" stroke="midnightblue" points="167.36,-575.19 177.84,-573.64 168.68,-568.31 167.36,-575.19"/>
</g>
<!-- Node14 -->
<g id="node14" class="node">
<title>Node14</title>
<g id="a_node14"><a xlink:href="navier1_8f.html#a4d7a006ce8ef086e842bc09f74169951" target="_top" xlink:title=" ">
<polygon fill="white" stroke="black" points="187,-532.5 187,-551.5 237,-551.5 237,-532.5 187,-532.5"/>
<text text-anchor="middle" x="212" y="-539.5" font-family="Helvetica,sans-Serif" font-size="10.00">opbinv</text>
</a>
</g>
</g>
<!-- Node3&#45;&gt;Node14 -->
<g id="edge13" class="edge">
<title>Node3&#45;&gt;Node14</title>
<path fill="none" stroke="midnightblue" d="M142.24,-555.2C153.21,-553.09 165.68,-550.7 176.96,-548.53"/>
<polygon fill="midnightblue" stroke="midnightblue" points="177.74,-551.95 186.9,-546.63 176.42,-545.07 177.74,-551.95"/>
</g>
<!-- Node15 -->
<g id="node15" class="node">
<title>Node15</title>
<g id="a_node15"><a xlink:href="navier1_8f.html#a58af49abaf1ee0cc07be356ad2721d90" target="_top" xlink:title=" ">
<polygon fill="white" stroke="black" points="190,-494.5 190,-513.5 234,-513.5 234,-494.5 190,-494.5"/>
<text text-anchor="middle" x="212" y="-501.5" font-family="Helvetica,sans-Serif" font-size="10.00">opdiv</text>
</a>
</g>
</g>
<!-- Node3&#45;&gt;Node15 -->
<g id="edge14" class="edge">
<title>Node3&#45;&gt;Node15</title>
<path fill="none" stroke="midnightblue" d="M128.79,-551.33C144.39,-542.35 167.83,-528.86 185.69,-518.57"/>
<polygon fill="midnightblue" stroke="midnightblue" points="187.53,-521.55 194.45,-513.53 184.04,-515.48 187.53,-521.55"/>
</g>
<!-- Node16 -->
<g id="node16" class="node">
<title>Node16</title>
<g id="a_node16"><a xlink:href="navier1_8f.html#a0319e77dcb754cfe343f5e1e0a54f8dd" target="_top" xlink:title=" ">
<polygon fill="white" stroke="black" points="185,-456.5 185,-475.5 239,-475.5 239,-456.5 185,-456.5"/>
<text text-anchor="middle" x="212" y="-463.5" font-family="Helvetica,sans-Serif" font-size="10.00">opgradt</text>
</a>
</g>
</g>
<!-- Node3&#45;&gt;Node16 -->
<g id="edge15" class="edge">
<title>Node3&#45;&gt;Node16</title>
<path fill="none" stroke="midnightblue" d="M118.84,-551.2C129.94,-535.76 153.18,-505.44 178,-485 179.57,-483.71 181.24,-482.45 182.96,-481.24"/>
<polygon fill="midnightblue" stroke="midnightblue" points="185.23,-483.95 191.79,-475.62 181.47,-478.04 185.23,-483.95"/>
</g>
<!-- Node17 -->
<g id="node17" class="node">
<title>Node17</title>
<g id="a_node17"><a xlink:href="navier1_8f.html#a4905d51f51b57bfec184a6b44f858bdb" target="_top" xlink:title=" ">
<polygon fill="white" stroke="black" points="191,-418.5 191,-437.5 233,-437.5 233,-418.5 191,-418.5"/>
<text text-anchor="middle" x="212" y="-425.5" font-family="Helvetica,sans-Serif" font-size="10.00">ortho</text>
</a>
</g>
</g>
<!-- Node3&#45;&gt;Node17 -->
<g id="edge16" class="edge">
<title>Node3&#45;&gt;Node17</title>
<path fill="none" stroke="midnightblue" d="M115.57,-551.34C123.77,-530.2 145.78,-479.14 178,-447 179.4,-445.6 180.93,-444.27 182.54,-443"/>
<polygon fill="midnightblue" stroke="midnightblue" points="184.65,-445.8 190.96,-437.3 180.72,-440.01 184.65,-445.8"/>
</g>
<!-- Node18 -->
<g id="node18" class="node">
<title>Node18</title>
<g id="a_node18"><a xlink:href="math_8f.html#af44de42b023a4a68cd98ea341204342d" target="_top" xlink:title=" ">
<polygon fill="white" stroke="black" points="191.5,-380.5 191.5,-399.5 232.5,-399.5 232.5,-380.5 191.5,-380.5"/>
<text text-anchor="middle" x="212" y="-387.5" font-family="Helvetica,sans-Serif" font-size="10.00">rzero</text>
</a>
</g>
</g>
<!-- Node3&#45;&gt;Node18 -->
<g id="edge17" class="edge">
<title>Node3&#45;&gt;Node18</title>
<path fill="none" stroke="midnightblue" d="M113.97,-551.31C119.66,-525.38 138.33,-453.42 178,-409 179.5,-407.32 181.19,-405.75 182.99,-404.29"/>
<polygon fill="midnightblue" stroke="midnightblue" points="185.04,-407.12 191.34,-398.6 181.1,-401.34 185.04,-407.12"/>
</g>
<!-- Node19 -->
<g id="node19" class="node">
<title>Node19</title>
<g id="a_node19"><a xlink:href="induct_8f.html#a85f2bbdd91096e0df0353ebd6968b71d" target="_top" xlink:title=" ">
<polygon fill="white" stroke="black" points="185.5,-342.5 185.5,-361.5 238.5,-361.5 238.5,-342.5 185.5,-342.5"/>
<text text-anchor="middle" x="212" y="-349.5" font-family="Helvetica,sans-Serif" font-size="10.00">setrhsp</text>
</a>
</g>
</g>
<!-- Node3&#45;&gt;Node19 -->
<g id="edge18" class="edge">
<title>Node3&#45;&gt;Node19</title>
<path fill="none" stroke="midnightblue" d="M113,-551.15C116.51,-520.9 130.8,-428.03 178,-371 178.95,-369.85 179.98,-368.76 181.09,-367.73"/>
<polygon fill="midnightblue" stroke="midnightblue" points="183.23,-370.49 189.07,-361.65 178.99,-364.92 183.23,-370.49"/>
</g>
<!-- Node20&#45;&gt;Node9 -->
<g id="edge23" class="edge">
<title>Node20&#45;&gt;Node9</title>
<path fill="none" stroke="midnightblue" d="M116.84,-209.66C126.44,-228.1 149.46,-268.78 178,-295 179.46,-296.34 181.03,-297.63 182.67,-298.86"/>
<polygon fill="midnightblue" stroke="midnightblue" points="180.9,-301.89 191.18,-304.48 184.76,-296.05 180.9,-301.89"/>
</g>
<!-- Node21 -->
<g id="node21" class="node">
<title>Node21</title>
<g id="a_node21"><a xlink:href="mvmesh_8f.html#a1b9c194ae1f554f335f3d6c21eacded3" target="_top" xlink:title=" ">
<polygon fill="white" stroke="black" points="181,-266.5 181,-285.5 243,-285.5 243,-266.5 181,-266.5"/>
<text text-anchor="middle" x="212" y="-273.5" font-family="Helvetica,sans-Serif" font-size="10.00">admeshv</text>
</a>
</g>
</g>
<!-- Node20&#45;&gt;Node21 -->
<g id="edge20" class="edge">
<title>Node20&#45;&gt;Node21</title>
<path fill="none" stroke="midnightblue" d="M121.8,-209.51C134.27,-221.38 156.77,-241.92 178,-257 179.88,-258.34 181.87,-259.66 183.89,-260.96"/>
<polygon fill="midnightblue" stroke="midnightblue" points="182.44,-264.17 192.8,-266.35 186.06,-258.18 182.44,-264.17"/>
</g>
<!-- Node22 -->
<g id="node22" class="node">
<title>Node22</title>
<g id="a_node22"><a xlink:href="navier1_8f.html#a344ec731e4a89d0f136c91bc1963e8d5" target="_top" xlink:title=" ">
<polygon fill="white" stroke="black" points="188.5,-228.5 188.5,-247.5 235.5,-247.5 235.5,-228.5 188.5,-228.5"/>
<text text-anchor="middle" x="212" y="-235.5" font-family="Helvetica,sans-Serif" font-size="10.00">advab</text>
</a>
</g>
</g>
<!-- Node20&#45;&gt;Node22 -->
<g id="edge21" class="edge">
<title>Node20&#45;&gt;Node22</title>
<path fill="none" stroke="midnightblue" d="M134.96,-208.81C147.96,-213.8 164.42,-220.12 178.7,-225.6"/>
<polygon fill="midnightblue" stroke="midnightblue" points="177.57,-228.92 188.16,-229.23 180.08,-222.38 177.57,-228.92"/>
</g>
<!-- Node23 -->
<g id="node23" class="node">
<title>Node23</title>
<g id="a_node23"><a xlink:href="convect_8f.html#afc0b2ce765c4ad0f0ec6f2a62536bf57" target="_top" xlink:title=" ">
<polygon fill="white" stroke="black" points="184,-190.5 184,-209.5 240,-209.5 240,-190.5 184,-190.5"/>
<text text-anchor="middle" x="212" y="-197.5" font-family="Helvetica,sans-Serif" font-size="10.00">advchar</text>
</a>
</g>
</g>
<!-- Node20&#45;&gt;Node23 -->
<g id="edge22" class="edge">
<title>Node20&#45;&gt;Node23</title>
<path fill="none" stroke="midnightblue" d="M134.96,-200C146.5,-200 160.77,-200 173.82,-200"/>
<polygon fill="midnightblue" stroke="midnightblue" points="173.95,-203.5 183.95,-200 173.95,-196.5 173.95,-203.5"/>
</g>
<!-- Node24 -->
<g id="node24" class="node">
<title>Node24</title>
<g id="a_node24"><a xlink:href="hpf_8f.html#aa74c82c5e339de802f489470b23422a0" target="_top" xlink:title=" ">
<polygon fill="white" stroke="black" points="179.5,-152.5 179.5,-171.5 244.5,-171.5 244.5,-152.5 179.5,-152.5"/>
<text text-anchor="middle" x="212" y="-159.5" font-family="Helvetica,sans-Serif" font-size="10.00">make_hpf</text>
</a>
</g>
</g>
<!-- Node20&#45;&gt;Node24 -->
<g id="edge24" class="edge">
<title>Node20&#45;&gt;Node24</title>
<path fill="none" stroke="midnightblue" d="M134.96,-191.19C147.28,-186.46 162.71,-180.54 176.45,-175.26"/>
<polygon fill="midnightblue" stroke="midnightblue" points="178,-178.42 186.08,-171.56 175.49,-171.88 178,-178.42"/>
</g>
<!-- Node25 -->
<g id="node25" class="node">
<title>Node25</title>
<g id="a_node25"><a xlink:href="navier1_8f.html#ab907b0b4f57c160c86799b03de3cef19" target="_top" xlink:title=" ">
<polygon fill="white" stroke="black" points="182.5,-114.5 182.5,-133.5 241.5,-133.5 241.5,-114.5 182.5,-114.5"/>
<text text-anchor="middle" x="212" y="-121.5" font-family="Helvetica,sans-Serif" font-size="10.00">makeabf</text>
</a>
</g>
</g>
<!-- Node20&#45;&gt;Node25 -->
<g id="edge25" class="edge">
<title>Node20&#45;&gt;Node25</title>
<path fill="none" stroke="midnightblue" d="M128.7,-190.45C133.18,-187.62 137.91,-184.37 142,-181 159.96,-166.22 159.73,-157.4 178,-143 179.77,-141.6 181.66,-140.24 183.6,-138.93"/>
<polygon fill="midnightblue" stroke="midnightblue" points="185.6,-141.81 192.23,-133.55 181.9,-135.87 185.6,-141.81"/>
</g>
<!-- Node26 -->
<g id="node26" class="node">
<title>Node26</title>
<g id="a_node26"><a xlink:href="navier1_8f.html#a0510a60155ebc71a3acda4b1e7e507e5" target="_top" xlink:title=" ">
<polygon fill="white" stroke="black" points="182.5,-76.5 182.5,-95.5 241.5,-95.5 241.5,-76.5 182.5,-76.5"/>
<text text-anchor="middle" x="212" y="-83.5" font-family="Helvetica,sans-Serif" font-size="10.00">makebdf</text>
</a>
</g>
</g>
<!-- Node20&#45;&gt;Node26 -->
<g id="edge26" class="edge">
<title>Node20&#45;&gt;Node26</title>
<path fill="none" stroke="midnightblue" d="M130.72,-190.44C134.78,-187.77 138.81,-184.6 142,-181 166.77,-153.01 152.65,-132.46 178,-105 179.04,-103.88 180.16,-102.8 181.33,-101.77"/>
<polygon fill="midnightblue" stroke="midnightblue" points="183.67,-104.41 189.71,-95.7 179.56,-98.74 183.67,-104.41"/>
</g>
<!-- Node27 -->
<g id="node27" class="node">
<title>Node27</title>
<g id="a_node27"><a xlink:href="navier1_8f.html#a04edbb4ba3cfada4513a76a4e65a5561" target="_top" xlink:title=" ">
<polygon fill="white" stroke="black" points="185.5,-38.5 185.5,-57.5 238.5,-57.5 238.5,-38.5 185.5,-38.5"/>
<text text-anchor="middle" x="212" y="-45.5" font-family="Helvetica,sans-Serif" font-size="10.00">makeuf</text>
</a>
</g>
</g>
<!-- Node20&#45;&gt;Node27 -->
<g id="edge27" class="edge">
<title>Node20&#45;&gt;Node27</title>
<path fill="none" stroke="midnightblue" d="M131.71,-190.33C135.54,-187.73 139.22,-184.62 142,-181 174.41,-138.9 144.71,-108.41 178,-67 178.93,-65.84 179.96,-64.74 181.05,-63.69"/>
<polygon fill="midnightblue" stroke="midnightblue" points="183.19,-66.46 188.98,-57.59 178.92,-60.91 183.19,-66.46"/>
</g>
<!-- Node28 -->
<g id="node28" class="node">
<title>Node28</title>
<g id="a_node28"><a xlink:href="navier1_8f.html#ae6ed8f0409f034c9d0dff152a3445d90" target="_top" xlink:title=" ">
<polygon fill="white" stroke="black" points="183,-0.5 183,-19.5 241,-19.5 241,-0.5 183,-0.5"/>
<text text-anchor="middle" x="212" y="-7.5" font-family="Helvetica,sans-Serif" font-size="10.00">makevis</text>
</a>
</g>
</g>
<!-- Node20&#45;&gt;Node28 -->
<g id="edge28" class="edge">
<title>Node20&#45;&gt;Node28</title>
<path fill="none" stroke="midnightblue" d="M131.91,-190.48C135.73,-187.87 139.35,-184.71 142,-181 182.3,-124.47 136.51,-84.67 178,-29 178.78,-27.96 179.63,-26.96 180.54,-26.01"/>
<polygon fill="midnightblue" stroke="midnightblue" points="182.85,-28.65 188.43,-19.64 178.45,-23.2 182.85,-28.65"/>
</g>
</g>
</svg>
