<?xml version="1.0" encoding="UTF-8" standalone="no"?>
<!DOCTYPE svg PUBLIC "-//W3C//DTD SVG 1.1//EN"
 "http://www.w3.org/Graphics/SVG/1.1/DTD/svg11.dtd">
<!-- Generated by graphviz version 2.43.0 (0)
 -->
<!-- Title: nek_solve Pages: 1 -->
<svg width="227pt" height="370pt"
 viewBox="0.00 0.00 227.00 370.00" xmlns="http://www.w3.org/2000/svg" xmlns:xlink="http://www.w3.org/1999/xlink">
<g id="graph0" class="graph" transform="scale(1 1) rotate(0) translate(4 366)">
<title>nek_solve</title>
<polygon fill="white" stroke="transparent" points="-4,4 -4,-366 223,-366 223,4 -4,4"/>
<!-- Node1 -->
<g id="node1" class="node">
<title>Node1</title>
<g id="a_node1"><a xlink:title="Runs post processing or time advancment based on value of instep. Parent subroutine to nek__multi_adv...">
<polygon fill="#bfbfbf" stroke="black" points="0,-171.5 0,-190.5 66,-190.5 66,-171.5 0,-171.5"/>
<text text-anchor="middle" x="33" y="-178.5" font-family="Helvetica,sans-Serif" font-size="10.00">nek_solve</text>
</a>
</g>
</g>
<!-- Node2 -->
<g id="node2" class="node">
<title>Node2</title>
<g id="a_node2"><a xlink:href="prepost_8f.html#ad88b6e30014fa10085d6f88052caacb6" target="_top" xlink:title=" ">
<polygon fill="white" stroke="black" points="121.5,-342.5 121.5,-361.5 199.5,-361.5 199.5,-342.5 121.5,-342.5"/>
<text text-anchor="middle" x="160.5" y="-349.5" font-family="Helvetica,sans-Serif" font-size="10.00">check_ioinfo</text>
</a>
</g>
</g>
<!-- Node1&#45;&gt;Node2 -->
<g id="edge1" class="edge">
<title>Node1&#45;&gt;Node2</title>
<path fill="none" stroke="midnightblue" d="M35.57,-190.78C40.38,-217.54 57.38,-292.69 102,-333 105.03,-335.74 108.46,-338.08 112.11,-340.09"/>
<polygon fill="midnightblue" stroke="midnightblue" points="110.95,-343.41 121.49,-344.41 113.88,-337.05 110.95,-343.41"/>
</g>
<!-- Node3 -->
<g id="node3" class="node">
<title>Node3</title>
<g id="a_node3"><a xlink:href="drive2_8f.html#ab79ec3c35ce2079b236a435feee313c2" target="_top" xlink:title=" ">
<polygon fill="white" stroke="black" points="129,-304.5 129,-323.5 192,-323.5 192,-304.5 129,-304.5"/>
<text text-anchor="middle" x="160.5" y="-311.5" font-family="Helvetica,sans-Serif" font-size="10.00">comment</text>
</a>
</g>
</g>
<!-- Node1&#45;&gt;Node3 -->
<g id="edge2" class="edge">
<title>Node1&#45;&gt;Node3</title>
<path fill="none" stroke="midnightblue" d="M37.06,-190.51C44.55,-212.27 65.87,-266.02 102,-295 107.06,-299.06 113.02,-302.26 119.15,-304.79"/>
<polygon fill="midnightblue" stroke="midnightblue" points="118.23,-308.18 128.83,-308.23 120.58,-301.58 118.23,-308.18"/>
</g>
<!-- Node4 -->
<g id="node4" class="node">
<title>Node4</title>
<g id="a_node4"><a xlink:href="comm__mpi_8f.html#af06ec29f06aac3f8809e19de2a7e8946" target="_top" xlink:title=" ">
<polygon fill="white" stroke="black" points="127.5,-266.5 127.5,-285.5 193.5,-285.5 193.5,-266.5 127.5,-266.5"/>
<text text-anchor="middle" x="160.5" y="-273.5" font-family="Helvetica,sans-Serif" font-size="10.00">dnekclock</text>
</a>
</g>
</g>
<!-- Node1&#45;&gt;Node4 -->
<g id="edge3" class="edge">
<title>Node1&#45;&gt;Node4</title>
<path fill="none" stroke="midnightblue" d="M40.12,-190.63C50.79,-206.67 74.31,-238.86 102,-257 106.9,-260.21 112.39,-262.92 117.99,-265.21"/>
<polygon fill="midnightblue" stroke="midnightblue" points="116.82,-268.5 127.41,-268.65 119.22,-261.93 116.82,-268.5"/>
</g>
<!-- Node5 -->
<g id="node5" class="node">
<title>Node5</title>
<g id="a_node5"><a xlink:href="papi_8f.html#a401adcc008e595bf3caeaf27a675bdb7" target="_top" xlink:title=" ">
<polygon fill="white" stroke="black" points="125.5,-228.5 125.5,-247.5 195.5,-247.5 195.5,-228.5 125.5,-228.5"/>
<text text-anchor="middle" x="160.5" y="-235.5" font-family="Helvetica,sans-Serif" font-size="10.00">dnekgflops</text>
</a>
</g>
</g>
<!-- Node1&#45;&gt;Node5 -->
<g id="edge4" class="edge">
<title>Node1&#45;&gt;Node5</title>
<path fill="none" stroke="midnightblue" d="M49.23,-190.62C62.74,-198.88 83.18,-210.72 102,-219 106.81,-221.12 111.93,-223.13 117.06,-225"/>
<polygon fill="midnightblue" stroke="midnightblue" points="116.26,-228.43 126.86,-228.41 118.56,-221.82 116.26,-228.43"/>
</g>
<!-- Node6 -->
<g id="node6" class="node">
<title>Node6</title>
<g id="a_node6"><a xlink:href="group__core.html#ga18d3e839786263fc4cf91f7eeb714371" target="_top" xlink:title="Multi&#45;level time advancement. Calls nek_advance() msteps times.">
<polygon fill="white" stroke="black" points="102,-190.5 102,-209.5 219,-209.5 219,-190.5 102,-190.5"/>
<text text-anchor="middle" x="160.5" y="-197.5" font-family="Helvetica,sans-Serif" font-size="10.00">nek__multi_advance</text>
</a>
</g>
</g>
<!-- Node1&#45;&gt;Node6 -->
<g id="edge5" class="edge">
<title>Node1&#45;&gt;Node6</title>
<path fill="none" stroke="midnightblue" d="M66.32,-185.89C74.23,-187.09 83,-188.42 91.9,-189.77"/>
<polygon fill="midnightblue" stroke="midnightblue" points="91.55,-193.25 101.96,-191.29 92.6,-186.33 91.55,-193.25"/>
</g>
<!-- Node7 -->
<g id="node7" class="node">
<title>Node7</title>
<g id="a_node7"><a xlink:href="comm__mpi_8f.html#a4acb4d8e379294232e9219bec063d8f3" target="_top" xlink:title=" ">
<polygon fill="white" stroke="black" points="129,-152.5 129,-171.5 192,-171.5 192,-152.5 129,-152.5"/>
<text text-anchor="middle" x="160.5" y="-159.5" font-family="Helvetica,sans-Serif" font-size="10.00">nekgsync</text>
</a>
</g>
</g>
<!-- Node1&#45;&gt;Node7 -->
<g id="edge6" class="edge">
<title>Node1&#45;&gt;Node7</title>
<path fill="none" stroke="midnightblue" d="M66.32,-176.11C82.2,-173.7 101.51,-170.78 118.42,-168.22"/>
<polygon fill="midnightblue" stroke="midnightblue" points="119.22,-171.64 128.59,-166.68 118.18,-164.72 119.22,-171.64"/>
</g>
<!-- Node8 -->
<g id="node8" class="node">
<title>Node8</title>
<g id="a_node8"><a xlink:href="prepost_8f.html#a4a3b0e4ce35b3381281c0839e5846370" target="_top" xlink:title=" ">
<polygon fill="white" stroke="black" points="134,-114.5 134,-133.5 187,-133.5 187,-114.5 134,-114.5"/>
<text text-anchor="middle" x="160.5" y="-121.5" font-family="Helvetica,sans-Serif" font-size="10.00">prepost</text>
</a>
</g>
</g>
<!-- Node1&#45;&gt;Node8 -->
<g id="edge7" class="edge">
<title>Node1&#45;&gt;Node8</title>
<path fill="none" stroke="midnightblue" d="M49.23,-171.38C62.74,-163.12 83.18,-151.28 102,-143 109.09,-139.88 116.87,-136.98 124.34,-134.44"/>
<polygon fill="midnightblue" stroke="midnightblue" points="125.5,-137.74 133.92,-131.3 123.33,-131.09 125.5,-137.74"/>
</g>
<!-- Node9 -->
<g id="node9" class="node">
<title>Node9</title>
<g id="a_node9"><a xlink:href="drive2_8f.html#a6637d27bdf1984d5964bd31465cd304a" target="_top" xlink:title=" ">
<polygon fill="white" stroke="black" points="135,-76.5 135,-95.5 186,-95.5 186,-76.5 135,-76.5"/>
<text text-anchor="middle" x="160.5" y="-83.5" font-family="Helvetica,sans-Serif" font-size="10.00">runstat</text>
</a>
</g>
</g>
<!-- Node1&#45;&gt;Node9 -->
<g id="edge8" class="edge">
<title>Node1&#45;&gt;Node9</title>
<path fill="none" stroke="midnightblue" d="M40.12,-171.37C50.79,-155.33 74.31,-123.14 102,-105 108.93,-100.46 117.03,-96.92 124.94,-94.19"/>
<polygon fill="midnightblue" stroke="midnightblue" points="126.22,-97.45 134.74,-91.15 124.15,-90.77 126.22,-97.45"/>
</g>
<!-- Node10 -->
<g id="node10" class="node">
<title>Node10</title>
<g id="a_node10"><a xlink:href="prepost_8f.html#a385f380fefa8cf8d330e4e7bcf55b934" target="_top" xlink:title=" ">
<polygon fill="white" stroke="black" points="128,-38.5 128,-57.5 193,-57.5 193,-38.5 128,-38.5"/>
<text text-anchor="middle" x="160.5" y="-45.5" font-family="Helvetica,sans-Serif" font-size="10.00">set_outfld</text>
</a>
</g>
</g>
<!-- Node1&#45;&gt;Node10 -->
<g id="edge9" class="edge">
<title>Node1&#45;&gt;Node10</title>
<path fill="none" stroke="midnightblue" d="M37.06,-171.49C44.55,-149.73 65.87,-95.98 102,-67 106.78,-63.16 112.37,-60.09 118.14,-57.63"/>
<polygon fill="midnightblue" stroke="midnightblue" points="119.75,-60.77 127.93,-54.04 117.34,-54.2 119.75,-60.77"/>
</g>
<!-- Node11 -->
<g id="node11" class="node">
<title>Node11</title>
<g id="a_node11"><a xlink:href="group__zero.html#gaab7e65383186bbbe5e8ee746f763b233" target="_top" xlink:title=" ">
<polygon fill="white" stroke="black" points="133,-0.5 133,-19.5 188,-19.5 188,-0.5 133,-0.5"/>
<text text-anchor="middle" x="160.5" y="-7.5" font-family="Helvetica,sans-Serif" font-size="10.00">userchk</text>
</a>
</g>
</g>
<!-- Node1&#45;&gt;Node11 -->
<g id="edge10" class="edge">
<title>Node1&#45;&gt;Node11</title>
<path fill="none" stroke="midnightblue" d="M35.57,-171.22C40.38,-144.46 57.38,-69.31 102,-29 107.98,-23.6 115.53,-19.73 123.18,-16.96"/>
<polygon fill="midnightblue" stroke="midnightblue" points="124.28,-20.28 132.81,-14 122.22,-13.59 124.28,-20.28"/>
</g>
</g>
</svg>
