<?xml version="1.0" encoding="UTF-8" standalone="no"?>
<!DOCTYPE svg PUBLIC "-//W3C//DTD SVG 1.1//EN"
 "http://www.w3.org/Graphics/SVG/1.1/DTD/svg11.dtd">
<!-- Generated by graphviz version 2.43.0 (0)
 -->
<!-- Title: mxm Pages: 1 -->
<svg width="169pt" height="218pt"
 viewBox="0.00 0.00 169.00 218.00" xmlns="http://www.w3.org/2000/svg" xmlns:xlink="http://www.w3.org/1999/xlink">
<g id="graph0" class="graph" transform="scale(1 1) rotate(0) translate(4 214)">
<title>mxm</title>
<polygon fill="white" stroke="transparent" points="-4,4 -4,-214 165,-214 165,4 -4,4"/>
<!-- Node1 -->
<g id="node1" class="node">
<title>Node1</title>
<g id="a_node1"><a xlink:title="Compute matrix&#45;matrix product C = A*B for contiguously packed matrices A,B, and C.">
<polygon fill="#bfbfbf" stroke="black" points="0,-95.5 0,-114.5 42,-114.5 42,-95.5 0,-95.5"/>
<text text-anchor="middle" x="21" y="-102.5" font-family="Helvetica,sans-Serif" font-size="10.00">mxm</text>
</a>
</g>
</g>
<!-- Node2 -->
<g id="node2" class="node">
<title>Node2</title>
<g id="a_node2"><a xlink:href="comm__mpi_8f.html#af06ec29f06aac3f8809e19de2a7e8946" target="_top" xlink:title=" ">
<polygon fill="white" stroke="black" points="86.5,-190.5 86.5,-209.5 152.5,-209.5 152.5,-190.5 86.5,-190.5"/>
<text text-anchor="middle" x="119.5" y="-197.5" font-family="Helvetica,sans-Serif" font-size="10.00">dnekclock</text>
</a>
</g>
</g>
<!-- Node1&#45;&gt;Node2 -->
<g id="edge1" class="edge">
<title>Node1&#45;&gt;Node2</title>
<path fill="none" stroke="midnightblue" d="M26.99,-114.6C35.55,-130.3 54.43,-161.66 78,-181 79.8,-182.48 81.74,-183.88 83.76,-185.19"/>
<polygon fill="midnightblue" stroke="midnightblue" points="82.51,-188.5 92.93,-190.37 85.95,-182.4 82.51,-188.5"/>
</g>
<!-- Node3 -->
<g id="node3" class="node">
<title>Node3</title>
<g id="a_node3"><a xlink:href="mxm__bgq_8f.html#a8a70163b4dbfdbfcce7bff170597fcad" target="_top" xlink:title=" ">
<polygon fill="white" stroke="black" points="78,-152.5 78,-171.5 161,-171.5 161,-152.5 78,-152.5"/>
<text text-anchor="middle" x="119.5" y="-159.5" font-family="Helvetica,sans-Serif" font-size="10.00">mxm_bgq_10</text>
</a>
</g>
</g>
<!-- Node1&#45;&gt;Node3 -->
<g id="edge2" class="edge">
<title>Node1&#45;&gt;Node3</title>
<path fill="none" stroke="midnightblue" d="M34.97,-114.67C46.09,-122.73 62.68,-134.28 78,-143 80.9,-144.65 83.97,-146.28 87.07,-147.86"/>
<polygon fill="midnightblue" stroke="midnightblue" points="85.8,-151.13 96.32,-152.36 88.86,-144.84 85.8,-151.13"/>
</g>
<!-- Node4 -->
<g id="node4" class="node">
<title>Node4</title>
<g id="a_node4"><a xlink:href="mxm__bgq_8f.html#a3fda9ea4bc7a5713a19d6939fa2b541f" target="_top" xlink:title=" ">
<polygon fill="white" stroke="black" points="78,-114.5 78,-133.5 161,-133.5 161,-114.5 78,-114.5"/>
<text text-anchor="middle" x="119.5" y="-121.5" font-family="Helvetica,sans-Serif" font-size="10.00">mxm_bgq_16</text>
</a>
</g>
</g>
<!-- Node1&#45;&gt;Node4 -->
<g id="edge3" class="edge">
<title>Node1&#45;&gt;Node4</title>
<path fill="none" stroke="midnightblue" d="M42.47,-109.03C49.94,-110.5 58.77,-112.24 67.71,-114"/>
<polygon fill="midnightblue" stroke="midnightblue" points="67.31,-117.49 77.79,-115.99 68.66,-110.62 67.31,-117.49"/>
</g>
<!-- Node5 -->
<g id="node5" class="node">
<title>Node5</title>
<g id="a_node5"><a xlink:href="mxm__bgq_8f.html#af192c3c8b982aa5bbc2a757156718a91" target="_top" xlink:title=" ">
<polygon fill="white" stroke="black" points="81,-76.5 81,-95.5 158,-95.5 158,-76.5 81,-76.5"/>
<text text-anchor="middle" x="119.5" y="-83.5" font-family="Helvetica,sans-Serif" font-size="10.00">mxm_bgq_6</text>
</a>
</g>
</g>
<!-- Node1&#45;&gt;Node5 -->
<g id="edge4" class="edge">
<title>Node1&#45;&gt;Node5</title>
<path fill="none" stroke="midnightblue" d="M42.47,-100.97C50.85,-99.32 60.93,-97.34 70.96,-95.36"/>
<polygon fill="midnightblue" stroke="midnightblue" points="71.79,-98.76 80.92,-93.4 70.44,-91.9 71.79,-98.76"/>
</g>
<!-- Node6 -->
<g id="node6" class="node">
<title>Node6</title>
<g id="a_node6"><a xlink:href="mxm__bgq_8f.html#a8faaef428336095704ece51624bbfe92" target="_top" xlink:title=" ">
<polygon fill="white" stroke="black" points="81,-38.5 81,-57.5 158,-57.5 158,-38.5 81,-38.5"/>
<text text-anchor="middle" x="119.5" y="-45.5" font-family="Helvetica,sans-Serif" font-size="10.00">mxm_bgq_8</text>
</a>
</g>
</g>
<!-- Node1&#45;&gt;Node6 -->
<g id="edge5" class="edge">
<title>Node1&#45;&gt;Node6</title>
<path fill="none" stroke="midnightblue" d="M34.97,-95.33C46.09,-87.27 62.68,-75.72 78,-67 80.9,-65.35 83.97,-63.72 87.07,-62.14"/>
<polygon fill="midnightblue" stroke="midnightblue" points="88.86,-65.16 96.32,-57.64 85.8,-58.87 88.86,-65.16"/>
</g>
<!-- Node7 -->
<g id="node7" class="node">
<title>Node7</title>
<g id="a_node7"><a xlink:href="mxm__std_8f.html#aa9e8685c4a72f18fb5d1ee88ed17a3d6" target="_top" xlink:title=" ">
<polygon fill="white" stroke="black" points="93.5,-0.5 93.5,-19.5 145.5,-19.5 145.5,-0.5 93.5,-0.5"/>
<text text-anchor="middle" x="119.5" y="-7.5" font-family="Helvetica,sans-Serif" font-size="10.00">mxmf2</text>
</a>
</g>
</g>
<!-- Node1&#45;&gt;Node7 -->
<g id="edge6" class="edge">
<title>Node1&#45;&gt;Node7</title>
<path fill="none" stroke="midnightblue" d="M26.99,-95.4C35.55,-79.7 54.43,-48.34 78,-29 80,-27.36 82.16,-25.83 84.41,-24.4"/>
<polygon fill="midnightblue" stroke="midnightblue" points="86.32,-27.34 93.36,-19.42 82.92,-21.22 86.32,-27.34"/>
</g>
</g>
</svg>
