<?xml version="1.0" encoding="UTF-8" standalone="no"?>
<!DOCTYPE svg PUBLIC "-//W3C//DTD SVG 1.1//EN"
 "http://www.w3.org/Graphics/SVG/1.1/DTD/svg11.dtd">
<!-- Generated by graphviz version 2.43.0 (0)
 -->
<!-- Title: pen_fterms_get Pages: 1 -->
<svg width="210pt" height="66pt"
 viewBox="0.00 0.00 210.00 66.00" xmlns="http://www.w3.org/2000/svg" xmlns:xlink="http://www.w3.org/1999/xlink">
<g id="graph0" class="graph" transform="scale(1 1) rotate(0) translate(4 62)">
<title>pen_fterms_get</title>
<polygon fill="white" stroke="transparent" points="-4,4 -4,-62 206,-62 206,4 -4,4"/>
<!-- Node1 -->
<g id="node1" class="node">
<title>Node1</title>
<g id="a_node1"><a xlink:title="Generate forcing terms: pen_k_len and pen_fstab.">
<polygon fill="#bfbfbf" stroke="black" points="110,-19.5 110,-38.5 202,-38.5 202,-19.5 110,-19.5"/>
<text text-anchor="middle" x="156" y="-26.5" font-family="Helvetica,sans-Serif" font-size="10.00">pen_fterms_get</text>
</a>
</g>
</g>
<!-- Node2 -->
<g id="node2" class="node">
<title>Node2</title>
<g id="a_node2"><a xlink:href="group__penalty__mini.html#ga15121d5db02b3accc55625bb9893ddbe" target="_top" xlink:title="Initilise penalty module.">
<polygon fill="white" stroke="black" points="9,-38.5 9,-57.5 65,-57.5 65,-38.5 9,-38.5"/>
<text text-anchor="middle" x="37" y="-45.5" font-family="Helvetica,sans-Serif" font-size="10.00">pen_init</text>
</a>
</g>
</g>
<!-- Node1&#45;&gt;Node2 -->
<g id="edge1" class="edge">
<title>Node1&#45;&gt;Node2</title>
<path fill="none" stroke="midnightblue" d="M99.76,-37.97C87.74,-39.92 75.54,-41.9 65.19,-43.58"/>
<polygon fill="midnightblue" stroke="midnightblue" points="100.46,-41.4 109.76,-36.35 99.33,-34.49 100.46,-41.4"/>
</g>
<!-- Node3 -->
<g id="node3" class="node">
<title>Node3</title>
<g id="a_node3"><a xlink:href="group__penalty__mini.html#gaad698038b43804d17a718e007d0dd8a9" target="_top" xlink:title="Update penalty.">
<polygon fill="white" stroke="black" points="0,-0.5 0,-19.5 74,-19.5 74,-0.5 0,-0.5"/>
<text text-anchor="middle" x="37" y="-7.5" font-family="Helvetica,sans-Serif" font-size="10.00">pen_update</text>
</a>
</g>
</g>
<!-- Node1&#45;&gt;Node3 -->
<g id="edge2" class="edge">
<title>Node1&#45;&gt;Node3</title>
<path fill="none" stroke="midnightblue" d="M99.65,-20.01C90.95,-18.6 82.16,-17.17 74.05,-15.85"/>
<polygon fill="midnightblue" stroke="midnightblue" points="99.33,-23.51 109.76,-21.65 100.46,-16.6 99.33,-23.51"/>
</g>
</g>
</svg>
