<?xml version="1.0" encoding="UTF-8" standalone="no"?>
<!DOCTYPE svg PUBLIC "-//W3C//DTD SVG 1.1//EN"
 "http://www.w3.org/Graphics/SVG/1.1/DTD/svg11.dtd">
<!-- Generated by graphviz version 2.43.0 (0)
 -->
<!-- Title: rprm_rp_reg Pages: 1 -->
<svg width="224pt" height="218pt"
 viewBox="0.00 0.00 224.00 218.00" xmlns="http://www.w3.org/2000/svg" xmlns:xlink="http://www.w3.org/1999/xlink">
<g id="graph0" class="graph" transform="scale(1 1) rotate(0) translate(4 214)">
<title>rprm_rp_reg</title>
<polygon fill="white" stroke="transparent" points="-4,4 -4,-214 220,-214 220,4 -4,4"/>
<!-- Node1 -->
<g id="node1" class="node">
<title>Node1</title>
<g id="a_node1"><a xlink:title="Register new runtime parameter.">
<polygon fill="#bfbfbf" stroke="black" points="140,-95.5 140,-114.5 216,-114.5 216,-95.5 140,-95.5"/>
<text text-anchor="middle" x="178" y="-102.5" font-family="Helvetica,sans-Serif" font-size="10.00">rprm_rp_reg</text>
</a>
</g>
</g>
<!-- Node2 -->
<g id="node2" class="node">
<title>Node2</title>
<g id="a_node2"><a xlink:href="group__chkpoint.html#gab4a17862a5f644ef26e2538240fc3ae8" target="_top" xlink:title="Register checkpointing module.">
<polygon fill="white" stroke="black" points="9,-190.5 9,-209.5 95,-209.5 95,-190.5 9,-190.5"/>
<text text-anchor="middle" x="52" y="-197.5" font-family="Helvetica,sans-Serif" font-size="10.00">chkpt_register</text>
</a>
</g>
</g>
<!-- Node1&#45;&gt;Node2 -->
<g id="edge1" class="edge">
<title>Node1&#45;&gt;Node2</title>
<path fill="none" stroke="midnightblue" d="M163.82,-122.78C150.42,-139.78 128.22,-165.09 104,-181 98.31,-184.73 91.79,-187.87 85.35,-190.45"/>
<polygon fill="midnightblue" stroke="midnightblue" points="166.67,-124.81 169.99,-114.75 161.12,-120.55 166.67,-124.81"/>
</g>
<!-- Node3 -->
<g id="node3" class="node">
<title>Node3</title>
<g id="a_node3"><a xlink:href="group__monitor.html#gad8a160fa3c099342abc581c5073a5744" target="_top" xlink:title="Register monitor runtime parameters.">
<polygon fill="white" stroke="black" points="0,-152.5 0,-171.5 104,-171.5 104,-152.5 0,-152.5"/>
<text text-anchor="middle" x="52" y="-159.5" font-family="Helvetica,sans-Serif" font-size="10.00">mntr_register_par</text>
</a>
</g>
</g>
<!-- Node1&#45;&gt;Node3 -->
<g id="edge2" class="edge">
<title>Node1&#45;&gt;Node3</title>
<path fill="none" stroke="midnightblue" d="M151.26,-119.39C137.45,-126.86 120.02,-135.88 104,-143 96.49,-146.34 88.19,-149.6 80.51,-152.46"/>
<polygon fill="midnightblue" stroke="midnightblue" points="153.09,-122.38 160.18,-114.51 149.73,-116.24 153.09,-122.38"/>
</g>
<!-- Node4 -->
<g id="node4" class="node">
<title>Node4</title>
<g id="a_node4"><a xlink:href="group__penalty__mini.html#ga6eb01b9729b455f0f9c08b3560290493" target="_top" xlink:title="Register penalty module.">
<polygon fill="white" stroke="black" points="13.5,-114.5 13.5,-133.5 90.5,-133.5 90.5,-114.5 13.5,-114.5"/>
<text text-anchor="middle" x="52" y="-121.5" font-family="Helvetica,sans-Serif" font-size="10.00">pen_register</text>
</a>
</g>
</g>
<!-- Node1&#45;&gt;Node4 -->
<g id="edge3" class="edge">
<title>Node1&#45;&gt;Node4</title>
<path fill="none" stroke="midnightblue" d="M129.67,-112.25C116.74,-114.23 102.91,-116.35 90.61,-118.24"/>
<polygon fill="midnightblue" stroke="midnightblue" points="130.44,-115.67 139.8,-110.7 129.38,-108.76 130.44,-115.67"/>
</g>
<!-- Node5 -->
<g id="node5" class="node">
<title>Node5</title>
<g id="a_node5"><a xlink:href="group__runparam.html#ga0a358e8c1cfec90802d0529ace7bcd4e" target="_top" xlink:title="Register runtime parameters database.">
<polygon fill="white" stroke="black" points="10.5,-76.5 10.5,-95.5 93.5,-95.5 93.5,-76.5 10.5,-76.5"/>
<text text-anchor="middle" x="52" y="-83.5" font-family="Helvetica,sans-Serif" font-size="10.00">rprm_register</text>
</a>
</g>
</g>
<!-- Node1&#45;&gt;Node5 -->
<g id="edge4" class="edge">
<title>Node1&#45;&gt;Node5</title>
<path fill="none" stroke="midnightblue" d="M129.62,-97.74C117.76,-95.92 105.14,-93.99 93.64,-92.23"/>
<polygon fill="midnightblue" stroke="midnightblue" points="129.38,-101.24 139.8,-99.3 130.44,-94.33 129.38,-101.24"/>
</g>
<!-- Node6 -->
<g id="node6" class="node">
<title>Node6</title>
<g id="a_node6"><a xlink:href="group__stat.html#ga5b0d78dee858f1d9efcd6ce57aeb5ec8" target="_top" xlink:title="Register 2D and 3D statistics module.">
<polygon fill="white" stroke="black" points="13,-38.5 13,-57.5 91,-57.5 91,-38.5 13,-38.5"/>
<text text-anchor="middle" x="52" y="-45.5" font-family="Helvetica,sans-Serif" font-size="10.00">stat_register</text>
</a>
</g>
</g>
<!-- Node1&#45;&gt;Node6 -->
<g id="edge5" class="edge">
<title>Node1&#45;&gt;Node6</title>
<path fill="none" stroke="midnightblue" d="M151.26,-90.61C137.45,-83.14 120.02,-74.12 104,-67 96.49,-63.66 88.19,-60.4 80.51,-57.54"/>
<polygon fill="midnightblue" stroke="midnightblue" points="149.73,-93.76 160.18,-95.49 153.09,-87.62 149.73,-93.76"/>
</g>
<!-- Node7 -->
<g id="node7" class="node">
<title>Node7</title>
<g id="a_node7"><a xlink:href="wmles__init_8f.html#a7a2c9cfc018e9645c485c2c5bce6d9ca" target="_top" xlink:title="Register WMLES module.">
<polygon fill="white" stroke="black" points="6,-0.5 6,-19.5 98,-19.5 98,-0.5 6,-0.5"/>
<text text-anchor="middle" x="52" y="-7.5" font-family="Helvetica,sans-Serif" font-size="10.00">wmles_register</text>
</a>
</g>
</g>
<!-- Node1&#45;&gt;Node7 -->
<g id="edge6" class="edge">
<title>Node1&#45;&gt;Node7</title>
<path fill="none" stroke="midnightblue" d="M163.82,-87.22C150.42,-70.22 128.22,-44.91 104,-29 98.31,-25.27 91.79,-22.13 85.35,-19.55"/>
<polygon fill="midnightblue" stroke="midnightblue" points="161.12,-89.45 169.99,-95.25 166.67,-85.19 161.12,-89.45"/>
</g>
</g>
</svg>
