<?xml version="1.0" encoding="UTF-8" standalone="no"?>
<!DOCTYPE svg PUBLIC "-//W3C//DTD SVG 1.1//EN"
 "http://www.w3.org/Graphics/SVG/1.1/DTD/svg11.dtd">
<!-- Generated by graphviz version 2.43.0 (0)
 -->
<!-- Title: nek_init Pages: 1 -->
<svg width="213pt" height="1472pt"
 viewBox="0.00 0.00 213.00 1472.00" xmlns="http://www.w3.org/2000/svg" xmlns:xlink="http://www.w3.org/1999/xlink">
<g id="graph0" class="graph" transform="scale(1 1) rotate(0) translate(4 1468)">
<title>nek_init</title>
<polygon fill="white" stroke="transparent" points="-4,4 -4,-1468 209,-1468 209,4 -4,4"/>
<!-- Node1 -->
<g id="node1" class="node">
<title>Node1</title>
<g id="a_node1"><a xlink:title="Initializes the solver and variables.">
<polygon fill="#bfbfbf" stroke="black" points="0,-722.5 0,-741.5 56,-741.5 56,-722.5 0,-722.5"/>
<text text-anchor="middle" x="28" y="-729.5" font-family="Helvetica,sans-Serif" font-size="10.00">nek_init</text>
</a>
</g>
</g>
<!-- Node2 -->
<g id="node2" class="node">
<title>Node2</title>
<g id="a_node2"><a xlink:href="bdry_8f.html#aff6088943a1cc02fb036375d9008b4c7" target="_top" xlink:title=" ">
<polygon fill="white" stroke="black" points="121,-1444.5 121,-1463.5 176,-1463.5 176,-1444.5 121,-1444.5"/>
<text text-anchor="middle" x="148.5" y="-1451.5" font-family="Helvetica,sans-Serif" font-size="10.00">bcmask</text>
</a>
</g>
</g>
<!-- Node1&#45;&gt;Node2 -->
<g id="edge1" class="edge">
<title>Node1&#45;&gt;Node2</title>
<path fill="none" stroke="midnightblue" d="M29.24,-741.59C31.29,-821.66 47.1,-1377.75 92,-1435 96.8,-1441.12 103.67,-1445.27 110.94,-1448.1"/>
<polygon fill="midnightblue" stroke="midnightblue" points="110.38,-1451.59 120.97,-1451.18 112.44,-1444.89 110.38,-1451.59"/>
</g>
<!-- Node3 -->
<g id="node3" class="node">
<title>Node3</title>
<g id="a_node3"><a xlink:href="multimesh_8f.html#a97c55697114eaad3acd14c0b1d8ca4a4" target="_top" xlink:title=" ">
<polygon fill="white" stroke="black" points="111,-1406.5 111,-1425.5 186,-1425.5 186,-1406.5 111,-1406.5"/>
<text text-anchor="middle" x="148.5" y="-1413.5" font-family="Helvetica,sans-Serif" font-size="10.00">chk_outflow</text>
</a>
</g>
</g>
<!-- Node1&#45;&gt;Node3 -->
<g id="edge2" class="edge">
<title>Node1&#45;&gt;Node3</title>
<path fill="none" stroke="midnightblue" d="M29.29,-741.55C31.69,-819.04 49.45,-1343.04 92,-1397 94.7,-1400.42 98.04,-1403.23 101.74,-1405.53"/>
<polygon fill="midnightblue" stroke="midnightblue" points="100.36,-1408.75 110.88,-1410.04 103.46,-1402.48 100.36,-1408.75"/>
</g>
<!-- Node4 -->
<g id="node4" class="node">
<title>Node4</title>
<g id="a_node4"><a xlink:href="drive2_8f.html#ab79ec3c35ce2079b236a435feee313c2" target="_top" xlink:title=" ">
<polygon fill="white" stroke="black" points="117,-1368.5 117,-1387.5 180,-1387.5 180,-1368.5 117,-1368.5"/>
<text text-anchor="middle" x="148.5" y="-1375.5" font-family="Helvetica,sans-Serif" font-size="10.00">comment</text>
</a>
</g>
</g>
<!-- Node1&#45;&gt;Node4 -->
<g id="edge3" class="edge">
<title>Node1&#45;&gt;Node4</title>
<path fill="none" stroke="midnightblue" d="M29.36,-741.96C32.19,-818.24 51.89,-1308.43 92,-1359 96.03,-1364.08 101.49,-1367.81 107.41,-1370.54"/>
<polygon fill="midnightblue" stroke="midnightblue" points="106.38,-1373.89 116.97,-1374.07 108.8,-1367.33 106.38,-1373.89"/>
</g>
<!-- Node5 -->
<g id="node5" class="node">
<title>Node5</title>
<g id="a_node5"><a xlink:href="cvode__driver_8f.html#a1d463d9ff23f47fea6f30a495f27c86a" target="_top" xlink:title=" ">
<polygon fill="white" stroke="black" points="124,-1330.5 124,-1349.5 173,-1349.5 173,-1330.5 124,-1330.5"/>
<text text-anchor="middle" x="148.5" y="-1337.5" font-family="Helvetica,sans-Serif" font-size="10.00">cv_init</text>
</a>
</g>
</g>
<!-- Node1&#45;&gt;Node5 -->
<g id="edge4" class="edge">
<title>Node1&#45;&gt;Node5</title>
<path fill="none" stroke="midnightblue" d="M29.42,-741.82C32.64,-814.98 54.22,-1273.68 92,-1321 97.53,-1327.92 105.7,-1332.33 114.09,-1335.14"/>
<polygon fill="midnightblue" stroke="midnightblue" points="113.33,-1338.56 123.89,-1337.76 115.13,-1331.8 113.33,-1338.56"/>
</g>
<!-- Node6 -->
<g id="node6" class="node">
<title>Node6</title>
<g id="a_node6"><a xlink:href="cvode__driver_8f.html#ae9b38c7eb396f622d998ac1b105a6600" target="_top" xlink:title=" ">
<polygon fill="white" stroke="black" points="114.5,-1292.5 114.5,-1311.5 182.5,-1311.5 182.5,-1292.5 114.5,-1292.5"/>
<text text-anchor="middle" x="148.5" y="-1299.5" font-family="Helvetica,sans-Serif" font-size="10.00">cv_setsize</text>
</a>
</g>
</g>
<!-- Node1&#45;&gt;Node6 -->
<g id="edge5" class="edge">
<title>Node1&#45;&gt;Node6</title>
<path fill="none" stroke="midnightblue" d="M29.49,-741.63C33.1,-811.46 56.55,-1238.92 92,-1283 95.51,-1287.36 100.07,-1290.73 105.08,-1293.33"/>
<polygon fill="midnightblue" stroke="midnightblue" points="103.85,-1296.6 114.42,-1297.21 106.53,-1290.14 103.85,-1296.6"/>
</g>
<!-- Node7 -->
<g id="node7" class="node">
<title>Node7</title>
<g id="a_node7"><a xlink:href="conduct_8f.html#a3b764ba6cf35187ac351c3072456c805" target="_top" xlink:title=" ">
<polygon fill="white" stroke="black" points="118,-1254.5 118,-1273.5 179,-1273.5 179,-1254.5 118,-1254.5"/>
<text text-anchor="middle" x="148.5" y="-1261.5" font-family="Helvetica,sans-Serif" font-size="10.00">dg_setup</text>
</a>
</g>
</g>
<!-- Node1&#45;&gt;Node7 -->
<g id="edge6" class="edge">
<title>Node1&#45;&gt;Node7</title>
<path fill="none" stroke="midnightblue" d="M28.84,-741.71C27.98,-805.45 26.14,-1163.82 92,-1245 96.31,-1250.31 102.18,-1254.15 108.5,-1256.91"/>
<polygon fill="midnightblue" stroke="midnightblue" points="107.34,-1260.22 117.94,-1260.24 109.67,-1253.61 107.34,-1260.22"/>
</g>
<!-- Node8 -->
<g id="node8" class="node">
<title>Node8</title>
<g id="a_node8"><a xlink:href="comm__mpi_8f.html#af06ec29f06aac3f8809e19de2a7e8946" target="_top" xlink:title=" ">
<polygon fill="white" stroke="black" points="115.5,-1216.5 115.5,-1235.5 181.5,-1235.5 181.5,-1216.5 115.5,-1216.5"/>
<text text-anchor="middle" x="148.5" y="-1223.5" font-family="Helvetica,sans-Serif" font-size="10.00">dnekclock</text>
</a>
</g>
</g>
<!-- Node1&#45;&gt;Node8 -->
<g id="edge7" class="edge">
<title>Node1&#45;&gt;Node8</title>
<path fill="none" stroke="midnightblue" d="M28.94,-741.77C28.79,-802.89 30.84,-1132.36 92,-1207 95.76,-1211.59 100.69,-1215.08 106.06,-1217.72"/>
<polygon fill="midnightblue" stroke="midnightblue" points="104.79,-1220.99 115.37,-1221.43 107.37,-1214.48 104.79,-1220.99"/>
</g>
<!-- Node9 -->
<g id="node9" class="node">
<title>Node9</title>
<g id="a_node9"><a xlink:href="comm__mpi_8f.html#af434902df36175d2afdc00fbabc84b2c" target="_top" xlink:title=" ">
<polygon fill="white" stroke="black" points="101.5,-1178.5 101.5,-1197.5 195.5,-1197.5 195.5,-1178.5 101.5,-1178.5"/>
<text text-anchor="middle" x="148.5" y="-1185.5" font-family="Helvetica,sans-Serif" font-size="10.00">dnekclock_sync</text>
</a>
</g>
</g>
<!-- Node1&#45;&gt;Node9 -->
<g id="edge8" class="edge">
<title>Node1&#45;&gt;Node9</title>
<path fill="none" stroke="midnightblue" d="M29.07,-741.74C29.67,-799.87 35.5,-1100.84 92,-1169 93,-1170.2 94.07,-1171.33 95.21,-1172.38"/>
<polygon fill="midnightblue" stroke="midnightblue" points="93.4,-1175.39 103.57,-1178.36 97.47,-1169.69 93.4,-1175.39"/>
</g>
<!-- Node10 -->
<g id="node10" class="node">
<title>Node10</title>
<g id="a_node10"><a xlink:href="drive2_8f.html#ad7dcf95029f223c6def3ab96e6285330" target="_top" xlink:title=" ">
<polygon fill="white" stroke="black" points="125,-1140.5 125,-1159.5 172,-1159.5 172,-1140.5 125,-1140.5"/>
<text text-anchor="middle" x="148.5" y="-1147.5" font-family="Helvetica,sans-Serif" font-size="10.00">dofcnt</text>
</a>
</g>
</g>
<!-- Node1&#45;&gt;Node10 -->
<g id="edge9" class="edge">
<title>Node1&#45;&gt;Node10</title>
<path fill="none" stroke="midnightblue" d="M29.21,-741.6C30.61,-796.39 40.12,-1069.25 92,-1131 97.9,-1138.03 106.52,-1142.46 115.22,-1145.25"/>
<polygon fill="midnightblue" stroke="midnightblue" points="114.37,-1148.65 124.93,-1147.77 116.12,-1141.87 114.37,-1148.65"/>
</g>
<!-- Node11 -->
<g id="node11" class="node">
<title>Node11</title>
<g id="a_node11"><a xlink:href="drive2_8f.html#a29f4f4f29ab462b5dcb910cb6d8a1af1" target="_top" xlink:title=" ">
<polygon fill="white" stroke="black" points="130,-1102.5 130,-1121.5 167,-1121.5 167,-1102.5 130,-1102.5"/>
<text text-anchor="middle" x="148.5" y="-1109.5" font-family="Helvetica,sans-Serif" font-size="10.00">files</text>
</a>
</g>
</g>
<!-- Node1&#45;&gt;Node11 -->
<g id="edge10" class="edge">
<title>Node1&#45;&gt;Node11</title>
<path fill="none" stroke="midnightblue" d="M29.39,-741.69C31.67,-793.52 44.79,-1037.73 92,-1093 99.04,-1101.25 109.83,-1105.92 120.03,-1108.57"/>
<polygon fill="midnightblue" stroke="midnightblue" points="119.37,-1112 129.87,-1110.59 120.78,-1105.15 119.37,-1112"/>
</g>
<!-- Node12 -->
<g id="node12" class="node">
<title>Node12</title>
<g id="a_node12"><a xlink:href="navier5_8f.html#ac7bf11bb142c7d01c82cc8b64e88bff2" target="_top" xlink:title=" ">
<polygon fill="white" stroke="black" points="117.5,-1064.5 117.5,-1083.5 179.5,-1083.5 179.5,-1064.5 117.5,-1064.5"/>
<text text-anchor="middle" x="148.5" y="-1071.5" font-family="Helvetica,sans-Serif" font-size="10.00">fix_geom</text>
</a>
</g>
</g>
<!-- Node1&#45;&gt;Node12 -->
<g id="edge11" class="edge">
<title>Node1&#45;&gt;Node12</title>
<path fill="none" stroke="midnightblue" d="M29.6,-741.61C32.81,-789.96 49.4,-1006.11 92,-1055 96.26,-1059.89 101.83,-1063.52 107.8,-1066.22"/>
<polygon fill="midnightblue" stroke="midnightblue" points="106.78,-1069.57 117.38,-1069.74 109.2,-1063 106.78,-1069.57"/>
</g>
<!-- Node13 -->
<g id="node13" class="node">
<title>Node13</title>
<g id="a_node13"><a xlink:href="drive2_8f.html#a7f0d055bb47546a4859ac7d63339197e" target="_top" xlink:title=" ">
<polygon fill="white" stroke="black" points="123.5,-1026.5 123.5,-1045.5 173.5,-1045.5 173.5,-1026.5 123.5,-1026.5"/>
<text text-anchor="middle" x="148.5" y="-1033.5" font-family="Helvetica,sans-Serif" font-size="10.00">geneig</text>
</a>
</g>
</g>
<!-- Node1&#45;&gt;Node13 -->
<g id="edge12" class="edge">
<title>Node1&#45;&gt;Node13</title>
<path fill="none" stroke="midnightblue" d="M29.88,-741.66C34.13,-786.55 54.01,-974.49 92,-1017 97.69,-1023.37 105.61,-1027.61 113.69,-1030.42"/>
<polygon fill="midnightblue" stroke="midnightblue" points="112.91,-1033.84 123.49,-1033.2 114.82,-1027.1 112.91,-1033.84"/>
</g>
<!-- Node14 -->
<g id="node14" class="node">
<title>Node14</title>
<g id="a_node14"><a xlink:href="drive2_8f.html#aefc07385d7e7539fb57662470f694136" target="_top" xlink:title=" ">
<polygon fill="white" stroke="black" points="117.5,-988.5 117.5,-1007.5 179.5,-1007.5 179.5,-988.5 117.5,-988.5"/>
<text text-anchor="middle" x="148.5" y="-995.5" font-family="Helvetica,sans-Serif" font-size="10.00">gengeom</text>
</a>
</g>
</g>
<!-- Node1&#45;&gt;Node14 -->
<g id="edge13" class="edge">
<title>Node1&#45;&gt;Node14</title>
<path fill="none" stroke="midnightblue" d="M28.45,-741.52C26.89,-777.65 26.27,-907.78 92,-979 96.35,-983.71 101.92,-987.26 107.85,-989.93"/>
<polygon fill="midnightblue" stroke="midnightblue" points="106.74,-993.25 117.33,-993.43 109.17,-986.68 106.74,-993.25"/>
</g>
<!-- Node15 -->
<g id="node15" class="node">
<title>Node15</title>
<g id="a_node15"><a xlink:href="coef_8f.html#a0d49b1aee56670901cd4cdfde7245e6c" target="_top" xlink:title=" ">
<polygon fill="white" stroke="black" points="124.5,-950.5 124.5,-969.5 172.5,-969.5 172.5,-950.5 124.5,-950.5"/>
<text text-anchor="middle" x="148.5" y="-957.5" font-family="Helvetica,sans-Serif" font-size="10.00">genwz</text>
</a>
</g>
</g>
<!-- Node1&#45;&gt;Node15 -->
<g id="edge14" class="edge">
<title>Node1&#45;&gt;Node15</title>
<path fill="none" stroke="midnightblue" d="M28.98,-741.85C29.45,-774.79 35.46,-882.33 92,-941 98.1,-947.33 106.38,-951.55 114.69,-954.36"/>
<polygon fill="midnightblue" stroke="midnightblue" points="113.76,-957.73 124.33,-957.06 115.65,-950.99 113.76,-957.73"/>
</g>
<!-- Node16 -->
<g id="node16" class="node">
<title>Node16</title>
<g id="a_node16"><a xlink:href="ic_8f.html#aaf47b255d1cfac3451a8473ee6876b4f" target="_top" xlink:title=" ">
<polygon fill="white" stroke="black" points="111.5,-912.5 111.5,-931.5 185.5,-931.5 185.5,-912.5 111.5,-912.5"/>
<text text-anchor="middle" x="148.5" y="-919.5" font-family="Helvetica,sans-Serif" font-size="10.00">geom_reset</text>
</a>
</g>
</g>
<!-- Node1&#45;&gt;Node16 -->
<g id="edge15" class="edge">
<title>Node1&#45;&gt;Node16</title>
<path fill="none" stroke="midnightblue" d="M29.73,-741.67C32.42,-770.43 44.25,-856.35 92,-903 95.03,-905.96 98.55,-908.46 102.3,-910.58"/>
<polygon fill="midnightblue" stroke="midnightblue" points="100.86,-913.77 111.4,-914.83 103.83,-907.43 100.86,-913.77"/>
</g>
<!-- Node17 -->
<g id="node17" class="node">
<title>Node17</title>
<g id="a_node17"><a xlink:href="comm__mpi_8f.html#ab90d4741057e2d716d13c2c30ff855de" target="_top" xlink:title=" ">
<polygon fill="white" stroke="black" points="123.5,-874.5 123.5,-893.5 173.5,-893.5 173.5,-874.5 123.5,-874.5"/>
<text text-anchor="middle" x="148.5" y="-881.5" font-family="Helvetica,sans-Serif" font-size="10.00">iniproc</text>
</a>
</g>
</g>
<!-- Node1&#45;&gt;Node17 -->
<g id="edge16" class="edge">
<title>Node1&#45;&gt;Node17</title>
<path fill="none" stroke="midnightblue" d="M30.85,-741.58C36.04,-765.81 52.94,-830.11 92,-865 98.14,-870.49 105.94,-874.4 113.74,-877.19"/>
<polygon fill="midnightblue" stroke="midnightblue" points="112.9,-880.6 123.49,-880.16 114.94,-873.9 112.9,-880.6"/>
</g>
<!-- Node18 -->
<g id="node18" class="node">
<title>Node18</title>
<g id="a_node18"><a xlink:href="drive2_8f.html#ad39f875830fa693f65e91c2eebe4f6fc" target="_top" xlink:title=" ">
<polygon fill="white" stroke="black" points="124.5,-836.5 124.5,-855.5 172.5,-855.5 172.5,-836.5 124.5,-836.5"/>
<text text-anchor="middle" x="148.5" y="-843.5" font-family="Helvetica,sans-Serif" font-size="10.00">initdat</text>
</a>
</g>
</g>
<!-- Node1&#45;&gt;Node18 -->
<g id="edge17" class="edge">
<title>Node1&#45;&gt;Node18</title>
<path fill="none" stroke="midnightblue" d="M32.82,-741.59C40.89,-760.64 61.46,-803.41 92,-827 98.57,-832.08 106.59,-835.85 114.47,-838.63"/>
<polygon fill="midnightblue" stroke="midnightblue" points="113.66,-842.04 124.25,-841.65 115.73,-835.35 113.66,-842.04"/>
</g>
<!-- Node19 -->
<g id="node19" class="node">
<title>Node19</title>
<g id="a_node19"><a xlink:href="drive2_8f.html#a40017911aaca646c450aff8e81c73de3" target="_top" xlink:title=" ">
<polygon fill="white" stroke="black" points="123,-798.5 123,-817.5 174,-817.5 174,-798.5 123,-798.5"/>
<text text-anchor="middle" x="148.5" y="-805.5" font-family="Helvetica,sans-Serif" font-size="10.00">initdim</text>
</a>
</g>
</g>
<!-- Node1&#45;&gt;Node19 -->
<g id="edge18" class="edge">
<title>Node1&#45;&gt;Node19</title>
<path fill="none" stroke="midnightblue" d="M37.45,-741.79C48.73,-754.32 69.89,-775.97 92,-789 98.51,-792.84 105.92,-796.05 113.15,-798.67"/>
<polygon fill="midnightblue" stroke="midnightblue" points="112.21,-802.05 122.8,-801.89 114.42,-795.41 112.21,-802.05"/>
</g>
<!-- Node20 -->
<g id="node20" class="node">
<title>Node20</title>
<g id="a_node20"><a xlink:href="genxyz_8f.html#aea17dd307e81e2ea9c30d813756a8527" target="_top" xlink:title=" ">
<polygon fill="white" stroke="black" points="105.5,-760.5 105.5,-779.5 191.5,-779.5 191.5,-760.5 105.5,-760.5"/>
<text text-anchor="middle" x="148.5" y="-767.5" font-family="Helvetica,sans-Serif" font-size="10.00">mesh_metrics</text>
</a>
</g>
</g>
<!-- Node1&#45;&gt;Node20 -->
<g id="edge19" class="edge">
<title>Node1&#45;&gt;Node20</title>
<path fill="none" stroke="midnightblue" d="M56.19,-740.72C71.49,-745.63 90.89,-751.85 107.86,-757.29"/>
<polygon fill="midnightblue" stroke="midnightblue" points="106.94,-760.67 117.53,-760.39 109.07,-754 106.94,-760.67"/>
</g>
<!-- Node21 -->
<g id="node21" class="node">
<title>Node21</title>
<g id="a_node21"><a xlink:href="multimesh_8f.html#ab824f6e230e0482379512f8c4bb2b459" target="_top" xlink:title=" ">
<polygon fill="white" stroke="black" points="96,-722.5 96,-741.5 201,-741.5 201,-722.5 96,-722.5"/>
<text text-anchor="middle" x="148.5" y="-729.5" font-family="Helvetica,sans-Serif" font-size="10.00">neknek_exchange</text>
</a>
</g>
</g>
<!-- Node1&#45;&gt;Node21 -->
<g id="edge20" class="edge">
<title>Node1&#45;&gt;Node21</title>
<path fill="none" stroke="midnightblue" d="M56.19,-732C65,-732 75.17,-732 85.45,-732"/>
<polygon fill="midnightblue" stroke="midnightblue" points="85.73,-735.5 95.73,-732 85.73,-728.5 85.73,-735.5"/>
</g>
<!-- Node22 -->
<g id="node22" class="node">
<title>Node22</title>
<g id="a_node22"><a xlink:href="multimesh_8f.html#ae456181cee68ca24e24244df7c9db9c6" target="_top" xlink:title=" ">
<polygon fill="white" stroke="black" points="106,-684.5 106,-703.5 191,-703.5 191,-684.5 106,-684.5"/>
<text text-anchor="middle" x="148.5" y="-691.5" font-family="Helvetica,sans-Serif" font-size="10.00">neknek_setup</text>
</a>
</g>
</g>
<!-- Node1&#45;&gt;Node22 -->
<g id="edge21" class="edge">
<title>Node1&#45;&gt;Node22</title>
<path fill="none" stroke="midnightblue" d="M56.19,-723.28C71.49,-718.37 90.89,-712.15 107.86,-706.71"/>
<polygon fill="midnightblue" stroke="midnightblue" points="109.07,-710 117.53,-703.61 106.94,-703.33 109.07,-710"/>
</g>
<!-- Node23 -->
<g id="node23" class="node">
<title>Node23</title>
<g id="a_node23"><a xlink:href="drive2_8f.html#ae3e6cc31f5e6b6b2b5062d80ca77519f" target="_top" xlink:title=" ">
<polygon fill="white" stroke="black" points="120.5,-646.5 120.5,-665.5 176.5,-665.5 176.5,-646.5 120.5,-646.5"/>
<text text-anchor="middle" x="148.5" y="-653.5" font-family="Helvetica,sans-Serif" font-size="10.00">opcount</text>
</a>
</g>
</g>
<!-- Node1&#45;&gt;Node23 -->
<g id="edge22" class="edge">
<title>Node1&#45;&gt;Node23</title>
<path fill="none" stroke="midnightblue" d="M37.45,-722.21C48.73,-709.68 69.89,-688.03 92,-675 97.7,-671.64 104.08,-668.76 110.43,-666.34"/>
<polygon fill="midnightblue" stroke="midnightblue" points="111.99,-669.5 120.28,-662.9 109.69,-662.89 111.99,-669.5"/>
</g>
<!-- Node24 -->
<g id="node24" class="node">
<title>Node24</title>
<g id="a_node24"><a xlink:href="drive2_8f.html#a7cb0ea7de68c5c3cbc3f7290f01a4d51" target="_top" xlink:title=" ">
<polygon fill="white" stroke="black" points="127.5,-608.5 127.5,-627.5 169.5,-627.5 169.5,-608.5 127.5,-608.5"/>
<text text-anchor="middle" x="148.5" y="-615.5" font-family="Helvetica,sans-Serif" font-size="10.00">prinit</text>
</a>
</g>
</g>
<!-- Node1&#45;&gt;Node24 -->
<g id="edge23" class="edge">
<title>Node1&#45;&gt;Node24</title>
<path fill="none" stroke="midnightblue" d="M32.82,-722.41C40.89,-703.36 61.46,-660.59 92,-637 99.5,-631.21 108.87,-627.12 117.77,-624.26"/>
<polygon fill="midnightblue" stroke="midnightblue" points="118.81,-627.6 127.49,-621.52 116.91,-620.86 118.81,-627.6"/>
</g>
<!-- Node25 -->
<g id="node25" class="node">
<title>Node25</title>
<g id="a_node25"><a xlink:href="comm__mpi_8f.html#a18ca1338ab65ed76e2405bf426a32c96" target="_top" xlink:title=" ">
<polygon fill="white" stroke="black" points="112,-570.5 112,-589.5 185,-589.5 185,-570.5 112,-570.5"/>
<text text-anchor="middle" x="148.5" y="-577.5" font-family="Helvetica,sans-Serif" font-size="10.00">printheader</text>
</a>
</g>
</g>
<!-- Node1&#45;&gt;Node25 -->
<g id="edge24" class="edge">
<title>Node1&#45;&gt;Node25</title>
<path fill="none" stroke="midnightblue" d="M30.85,-722.42C36.04,-698.19 52.94,-633.89 92,-599 95.16,-596.18 98.76,-593.77 102.58,-591.71"/>
<polygon fill="midnightblue" stroke="midnightblue" points="104.1,-594.87 111.75,-587.54 101.2,-588.49 104.1,-594.87"/>
</g>
<!-- Node26 -->
<g id="node26" class="node">
<title>Node26</title>
<g id="a_node26"><a xlink:href="connect2_8f.html#a909eeac6dfc8f61a1c9d637c53cc970d" target="_top" xlink:title=" ">
<polygon fill="white" stroke="black" points="124.5,-532.5 124.5,-551.5 172.5,-551.5 172.5,-532.5 124.5,-532.5"/>
<text text-anchor="middle" x="148.5" y="-539.5" font-family="Helvetica,sans-Serif" font-size="10.00">readat</text>
</a>
</g>
</g>
<!-- Node1&#45;&gt;Node26 -->
<g id="edge25" class="edge">
<title>Node1&#45;&gt;Node26</title>
<path fill="none" stroke="midnightblue" d="M29.73,-722.33C32.42,-693.57 44.25,-607.65 92,-561 98.16,-554.98 106.31,-550.86 114.47,-548.05"/>
<polygon fill="midnightblue" stroke="midnightblue" points="115.63,-551.35 124.28,-545.22 113.7,-544.63 115.63,-551.35"/>
</g>
<!-- Node27 -->
<g id="node27" class="node">
<title>Node27</title>
<g id="a_node27"><a xlink:href="ic_8f.html#acaefa33e86633e4a7a4b28347d4620d1" target="_top" xlink:title=" ">
<polygon fill="white" stroke="black" points="126,-494.5 126,-513.5 171,-513.5 171,-494.5 126,-494.5"/>
<text text-anchor="middle" x="148.5" y="-501.5" font-family="Helvetica,sans-Serif" font-size="10.00">setics</text>
</a>
</g>
</g>
<!-- Node1&#45;&gt;Node27 -->
<g id="edge26" class="edge">
<title>Node1&#45;&gt;Node27</title>
<path fill="none" stroke="midnightblue" d="M28.98,-722.15C29.45,-689.21 35.46,-581.67 92,-523 98.47,-516.29 107.41,-511.94 116.23,-509.14"/>
<polygon fill="midnightblue" stroke="midnightblue" points="117.2,-512.5 125.99,-506.57 115.43,-505.73 117.2,-512.5"/>
</g>
<!-- Node28 -->
<g id="node28" class="node">
<title>Node28</title>
<g id="a_node28"><a xlink:href="bdry_8f.html#a98065c380f39e2213ad6e88dcc1c88c7" target="_top" xlink:title=" ">
<polygon fill="white" stroke="black" points="125,-456.5 125,-475.5 172,-475.5 172,-456.5 125,-456.5"/>
<text text-anchor="middle" x="148.5" y="-463.5" font-family="Helvetica,sans-Serif" font-size="10.00">setlog</text>
</a>
</g>
</g>
<!-- Node1&#45;&gt;Node28 -->
<g id="edge27" class="edge">
<title>Node1&#45;&gt;Node28</title>
<path fill="none" stroke="midnightblue" d="M28.45,-722.48C26.89,-686.35 26.27,-556.22 92,-485 98.06,-478.44 106.48,-474.14 114.93,-471.33"/>
<polygon fill="midnightblue" stroke="midnightblue" points="116,-474.67 124.73,-468.66 114.16,-467.91 116,-474.67"/>
</g>
<!-- Node29 -->
<g id="node29" class="node">
<title>Node29</title>
<g id="a_node29"><a xlink:href="subs1_8f.html#af114fff998975a6e77422a65106222ca" target="_top" xlink:title=" ">
<polygon fill="white" stroke="black" points="122,-418.5 122,-437.5 175,-437.5 175,-418.5 122,-418.5"/>
<text text-anchor="middle" x="148.5" y="-425.5" font-family="Helvetica,sans-Serif" font-size="10.00">setprop</text>
</a>
</g>
</g>
<!-- Node1&#45;&gt;Node29 -->
<g id="edge28" class="edge">
<title>Node1&#45;&gt;Node29</title>
<path fill="none" stroke="midnightblue" d="M29.88,-722.34C34.13,-677.45 54.01,-489.51 92,-447 97.34,-441.02 104.65,-436.92 112.21,-434.11"/>
<polygon fill="midnightblue" stroke="midnightblue" points="113.24,-437.46 121.79,-431.2 111.2,-430.76 113.24,-437.46"/>
</g>
<!-- Node30 -->
<g id="node30" class="node">
<title>Node30</title>
<g id="a_node30"><a xlink:href="connect1_8f.html#a39e70815f3e1b27b219e8d1ec15d2c76" target="_top" xlink:title=" ">
<polygon fill="white" stroke="black" points="92,-380.5 92,-399.5 205,-399.5 205,-380.5 92,-380.5"/>
<text text-anchor="middle" x="148.5" y="-387.5" font-family="Helvetica,sans-Serif" font-size="10.00">setup_mesh_dssum</text>
</a>
</g>
</g>
<!-- Node1&#45;&gt;Node30 -->
<g id="edge29" class="edge">
<title>Node1&#45;&gt;Node30</title>
<path fill="none" stroke="midnightblue" d="M29.6,-722.39C32.81,-674.04 49.4,-457.89 92,-409 93.17,-407.65 94.45,-406.4 95.8,-405.24"/>
<polygon fill="midnightblue" stroke="midnightblue" points="97.97,-408 104.29,-399.51 94.05,-402.2 97.97,-408"/>
</g>
<!-- Node31 -->
<g id="node31" class="node">
<title>Node31</title>
<g id="a_node31"><a xlink:href="connect1_8f.html#a555c5112d24b342a7e0c9d0990c53ae2" target="_top" xlink:title=" ">
<polygon fill="white" stroke="black" points="113,-342.5 113,-361.5 184,-361.5 184,-342.5 113,-342.5"/>
<text text-anchor="middle" x="148.5" y="-349.5" font-family="Helvetica,sans-Serif" font-size="10.00">setup_topo</text>
</a>
</g>
</g>
<!-- Node1&#45;&gt;Node31 -->
<g id="edge30" class="edge">
<title>Node1&#45;&gt;Node31</title>
<path fill="none" stroke="midnightblue" d="M29.39,-722.31C31.67,-670.48 44.79,-426.27 92,-371 95.22,-367.23 99.22,-364.21 103.59,-361.78"/>
<polygon fill="midnightblue" stroke="midnightblue" points="105.25,-364.88 112.95,-357.6 102.39,-358.48 105.25,-364.88"/>
</g>
<!-- Node32 -->
<g id="node32" class="node">
<title>Node32</title>
<g id="a_node32"><a xlink:href="comm__mpi_8f.html#a876278decc78f1f369bcb7548279a015" target="_top" xlink:title=" ">
<polygon fill="white" stroke="black" points="111.5,-304.5 111.5,-323.5 185.5,-323.5 185.5,-304.5 111.5,-304.5"/>
<text text-anchor="middle" x="148.5" y="-311.5" font-family="Helvetica,sans-Serif" font-size="10.00">setupcomm</text>
</a>
</g>
</g>
<!-- Node1&#45;&gt;Node32 -->
<g id="edge31" class="edge">
<title>Node1&#45;&gt;Node32</title>
<path fill="none" stroke="midnightblue" d="M29.21,-722.4C30.61,-667.61 40.12,-394.75 92,-333 94.84,-329.62 98.3,-326.84 102.1,-324.56"/>
<polygon fill="midnightblue" stroke="midnightblue" points="103.94,-327.56 111.44,-320.07 100.91,-321.25 103.94,-327.56"/>
</g>
<!-- Node33 -->
<g id="node33" class="node">
<title>Node33</title>
<g id="a_node33"><a xlink:href="drive2_8f.html#ac84969997b3b976452e0337647abcb23" target="_top" xlink:title=" ">
<polygon fill="white" stroke="black" points="125,-266.5 125,-285.5 172,-285.5 172,-266.5 125,-266.5"/>
<text text-anchor="middle" x="148.5" y="-273.5" font-family="Helvetica,sans-Serif" font-size="10.00">setvar</text>
</a>
</g>
</g>
<!-- Node1&#45;&gt;Node33 -->
<g id="edge32" class="edge">
<title>Node1&#45;&gt;Node33</title>
<path fill="none" stroke="midnightblue" d="M29.07,-722.26C29.67,-664.13 35.5,-363.16 92,-295 97.86,-287.94 106.46,-283.49 115.16,-280.7"/>
<polygon fill="midnightblue" stroke="midnightblue" points="116.07,-284.08 124.88,-278.19 114.32,-277.3 116.07,-284.08"/>
</g>
<!-- Node34 -->
<g id="node34" class="node">
<title>Node34</title>
<g id="a_node34"><a xlink:href="ssolv_8f.html#a1c8c4f9d75f6f20e10420e5590f88198" target="_top" xlink:title=" ">
<polygon fill="white" stroke="black" points="125.5,-228.5 125.5,-247.5 171.5,-247.5 171.5,-228.5 125.5,-228.5"/>
<text text-anchor="middle" x="148.5" y="-235.5" font-family="Helvetica,sans-Serif" font-size="10.00">sstest</text>
</a>
</g>
</g>
<!-- Node1&#45;&gt;Node34 -->
<g id="edge33" class="edge">
<title>Node1&#45;&gt;Node34</title>
<path fill="none" stroke="midnightblue" d="M28.94,-722.23C28.79,-661.11 30.84,-331.64 92,-257 97.91,-249.79 106.69,-245.3 115.53,-242.52"/>
<polygon fill="midnightblue" stroke="midnightblue" points="116.55,-245.87 125.39,-240.04 114.84,-239.09 116.55,-245.87"/>
</g>
<!-- Node35 -->
<g id="node35" class="node">
<title>Node35</title>
<g id="a_node35"><a xlink:href="drive2_8f.html#a2560abf814ea78b9e6e566b7174e82e7" target="_top" xlink:title=" ">
<polygon fill="white" stroke="black" points="123,-190.5 123,-209.5 174,-209.5 174,-190.5 123,-190.5"/>
<text text-anchor="middle" x="148.5" y="-197.5" font-family="Helvetica,sans-Serif" font-size="10.00">time00</text>
</a>
</g>
</g>
<!-- Node1&#45;&gt;Node35 -->
<g id="edge34" class="edge">
<title>Node1&#45;&gt;Node35</title>
<path fill="none" stroke="midnightblue" d="M28.84,-722.29C27.98,-658.55 26.14,-300.18 92,-219 97.34,-212.42 105.07,-208.11 113.07,-205.29"/>
<polygon fill="midnightblue" stroke="midnightblue" points="114.15,-208.62 122.82,-202.54 112.25,-201.89 114.15,-208.62"/>
</g>
<!-- Node36 -->
<g id="node36" class="node">
<title>Node36</title>
<g id="a_node36"><a xlink:href="group__zero.html#gaab7e65383186bbbe5e8ee746f763b233" target="_top" xlink:title=" ">
<polygon fill="white" stroke="black" points="121,-152.5 121,-171.5 176,-171.5 176,-152.5 121,-152.5"/>
<text text-anchor="middle" x="148.5" y="-159.5" font-family="Helvetica,sans-Serif" font-size="10.00">userchk</text>
</a>
</g>
</g>
<!-- Node1&#45;&gt;Node36 -->
<g id="edge35" class="edge">
<title>Node1&#45;&gt;Node36</title>
<path fill="none" stroke="midnightblue" d="M29.49,-722.37C33.1,-652.54 56.55,-225.08 92,-181 96.83,-175 103.65,-170.88 110.86,-168.07"/>
<polygon fill="midnightblue" stroke="midnightblue" points="112.28,-171.29 120.79,-164.97 110.2,-164.61 112.28,-171.29"/>
</g>
<!-- Node37 -->
<g id="node37" class="node">
<title>Node37</title>
<g id="a_node37"><a xlink:href="group__zero.html#ga684b0320d82a6ae155bf7e0b53826cd3" target="_top" xlink:title=" ">
<polygon fill="white" stroke="black" points="125,-114.5 125,-133.5 172,-133.5 172,-114.5 125,-114.5"/>
<text text-anchor="middle" x="148.5" y="-121.5" font-family="Helvetica,sans-Serif" font-size="10.00">usrdat</text>
</a>
</g>
</g>
<!-- Node1&#45;&gt;Node37 -->
<g id="edge36" class="edge">
<title>Node1&#45;&gt;Node37</title>
<path fill="none" stroke="midnightblue" d="M29.42,-722.18C32.64,-649.02 54.22,-190.32 92,-143 97.72,-135.83 106.29,-131.35 115,-128.56"/>
<polygon fill="midnightblue" stroke="midnightblue" points="115.91,-131.94 124.73,-126.07 114.18,-125.16 115.91,-131.94"/>
</g>
<!-- Node38 -->
<g id="node38" class="node">
<title>Node38</title>
<g id="a_node38"><a xlink:href="group__zero.html#gad0bac908131bab7fa82d65be4229e976" target="_top" xlink:title=" ">
<polygon fill="white" stroke="black" points="122,-76.5 122,-95.5 175,-95.5 175,-76.5 122,-76.5"/>
<text text-anchor="middle" x="148.5" y="-83.5" font-family="Helvetica,sans-Serif" font-size="10.00">usrdat2</text>
</a>
</g>
</g>
<!-- Node1&#45;&gt;Node38 -->
<g id="edge37" class="edge">
<title>Node1&#45;&gt;Node38</title>
<path fill="none" stroke="midnightblue" d="M29.36,-722.04C32.19,-645.76 51.89,-155.57 92,-105 97.07,-98.6 104.41,-94.35 112.1,-91.53"/>
<polygon fill="midnightblue" stroke="midnightblue" points="113.26,-94.83 121.87,-88.66 111.29,-88.11 113.26,-94.83"/>
</g>
<!-- Node39 -->
<g id="node39" class="node">
<title>Node39</title>
<g id="a_node39"><a xlink:href="group__zero.html#gae8e951758ca4752cd88bc9c5330c9ebe" target="_top" xlink:title=" ">
<polygon fill="white" stroke="black" points="122,-38.5 122,-57.5 175,-57.5 175,-38.5 122,-38.5"/>
<text text-anchor="middle" x="148.5" y="-45.5" font-family="Helvetica,sans-Serif" font-size="10.00">usrdat3</text>
</a>
</g>
</g>
<!-- Node1&#45;&gt;Node39 -->
<g id="edge38" class="edge">
<title>Node1&#45;&gt;Node39</title>
<path fill="none" stroke="midnightblue" d="M29.29,-722.45C31.69,-644.96 49.45,-120.96 92,-67 97.05,-60.59 104.39,-56.33 112.07,-53.5"/>
<polygon fill="midnightblue" stroke="midnightblue" points="113.24,-56.81 121.85,-50.64 111.27,-50.09 113.24,-56.81"/>
</g>
<!-- Node40 -->
<g id="node40" class="node">
<title>Node40</title>
<g id="a_node40"><a xlink:href="connect2_8f.html#a76e6d86442e217d89107f73fa732ca97" target="_top" xlink:title=" ">
<polygon fill="white" stroke="black" points="119,-0.5 119,-19.5 178,-19.5 178,-0.5 119,-0.5"/>
<text text-anchor="middle" x="148.5" y="-7.5" font-family="Helvetica,sans-Serif" font-size="10.00">vrdsmsh</text>
</a>
</g>
</g>
<!-- Node1&#45;&gt;Node40 -->
<g id="edge39" class="edge">
<title>Node1&#45;&gt;Node40</title>
<path fill="none" stroke="midnightblue" d="M29.24,-722.41C31.29,-642.34 47.1,-86.25 92,-29 96.39,-23.4 102.52,-19.44 109.11,-16.65"/>
<polygon fill="midnightblue" stroke="midnightblue" points="110.59,-19.84 118.95,-13.33 108.36,-13.21 110.59,-19.84"/>
</g>
</g>
</svg>
