<?xml version="1.0" encoding="UTF-8" standalone="no"?>
<!DOCTYPE svg PUBLIC "-//W3C//DTD SVG 1.1//EN"
 "http://www.w3.org/Graphics/SVG/1.1/DTD/svg11.dtd">
<!-- Generated by graphviz version 2.40.1 (20161225.0304)
 -->
<!-- Title: eddy_visc Pages: 1 -->
<svg width="470pt" height="237pt"
 viewBox="0.00 0.00 470.00 237.00" xmlns="http://www.w3.org/2000/svg" xmlns:xlink="http://www.w3.org/1999/xlink">
<g id="graph0" class="graph" transform="scale(1 1) rotate(0) translate(4 233)">
<title>eddy_visc</title>
<polygon fill="#ffffff" stroke="transparent" points="-4,4 -4,-233 466,-233 466,4 -4,4"/>
<!-- Node0 -->
<g id="node1" class="node">
<title>Node0</title>
<polygon fill="#bfbfbf" stroke="#000000" points="0,-57.5 0,-76.5 61,-76.5 61,-57.5 0,-57.5"/>
<text text-anchor="middle" x="30.5" y="-64.5" font-family="Helvetica,sans-Serif" font-size="10.00" fill="#000000">eddy_visc</text>
</g>
<!-- Node1 -->
<g id="node2" class="node">
<title>Node1</title>
<g id="a_node2"><a xlink:href="group__postpro.html#ga2282f2912315313d8c35cfd37389c7f3" target="_top" xlink:title="Compute the gradient tensor G_ij := du_i/du_j, for element e. ">
<polygon fill="#ffffff" stroke="#000000" points="105.5,-114.5 105.5,-133.5 166.5,-133.5 166.5,-114.5 105.5,-114.5"/>
<text text-anchor="middle" x="136" y="-121.5" font-family="Helvetica,sans-Serif" font-size="10.00" fill="#000000">comp_gije</text>
</a>
</g>
</g>
<!-- Node0&#45;&gt;Node1 -->
<g id="edge1" class="edge">
<title>Node0&#45;&gt;Node1</title>
<path fill="none" stroke="#191970" d="M46.4606,-76.5138C59.8299,-84.3875 79.4837,-95.7414 97,-105 100.09,-106.6333 103.3413,-108.2988 106.5939,-109.9311"/>
<polygon fill="#191970" stroke="#191970" points="105.1143,-113.1039 115.6309,-114.3895 108.2114,-106.8263 105.1143,-113.1039"/>
</g>
<!-- Node12 -->
<g id="node13" class="node">
<title>Node12</title>
<g id="a_node13"><a xlink:href="group__postpro.html#gab683ff84116ad23a19188953209855d0" target="_top" xlink:title="Compute symmetric part of a tensor gije for element. Does not call any other subroutine, but simply evaluates: &#160;. ">
<polygon fill="#ffffff" stroke="#000000" points="105.5,-76.5 105.5,-95.5 166.5,-95.5 166.5,-76.5 105.5,-76.5"/>
<text text-anchor="middle" x="136" y="-83.5" font-family="Helvetica,sans-Serif" font-size="10.00" fill="#000000">comp_sije</text>
</a>
</g>
</g>
<!-- Node0&#45;&gt;Node12 -->
<g id="edge13" class="edge">
<title>Node0&#45;&gt;Node12</title>
<path fill="none" stroke="#191970" d="M61.015,-72.4956C71.6381,-74.4088 83.7339,-76.5871 95.0633,-78.6275"/>
<polygon fill="#191970" stroke="#191970" points="94.7261,-82.123 105.1881,-80.4509 95.9668,-75.2338 94.7261,-82.123"/>
</g>
<!-- Node13 -->
<g id="node14" class="node">
<title>Node13</title>
<g id="a_node14"><a xlink:href="postpro_8f.html#af9d2aff92c48c37b10261e543b5f18fb" target="_top" xlink:title="mag_tensor_e">
<polygon fill="#ffffff" stroke="#000000" points="97,-38.5 97,-57.5 175,-57.5 175,-38.5 97,-38.5"/>
<text text-anchor="middle" x="136" y="-45.5" font-family="Helvetica,sans-Serif" font-size="10.00" fill="#000000">mag_tensor_e</text>
</a>
</g>
</g>
<!-- Node0&#45;&gt;Node13 -->
<g id="edge14" class="edge">
<title>Node0&#45;&gt;Node13</title>
<path fill="none" stroke="#191970" d="M61.015,-61.5044C69.1506,-60.0392 78.15,-58.4185 87.0074,-56.8233"/>
<polygon fill="#191970" stroke="#191970" points="87.6724,-60.2599 96.8937,-55.0428 86.4317,-53.3708 87.6724,-60.2599"/>
</g>
<!-- Node14 -->
<g id="node15" class="node">
<title>Node14</title>
<g id="a_node15"><a xlink:href="math_8f.html#ad2b51b68d370651f4f6d81952503e7be" target="_top" xlink:title="cmult">
<polygon fill="#ffffff" stroke="#000000" points="115.5,-.5 115.5,-19.5 156.5,-19.5 156.5,-.5 115.5,-.5"/>
<text text-anchor="middle" x="136" y="-7.5" font-family="Helvetica,sans-Serif" font-size="10.00" fill="#000000">cmult</text>
</a>
</g>
</g>
<!-- Node0&#45;&gt;Node14 -->
<g id="edge15" class="edge">
<title>Node0&#45;&gt;Node14</title>
<path fill="none" stroke="#191970" d="M46.4606,-57.4862C59.8299,-49.6125 79.4837,-38.2586 97,-29 100.09,-27.3667 103.3413,-25.7012 106.5939,-24.0689"/>
<polygon fill="#191970" stroke="#191970" points="108.2114,-27.1737 115.6309,-19.6105 105.1143,-20.8961 108.2114,-27.1737"/>
</g>
<!-- Node2 -->
<g id="node3" class="node">
<title>Node2</title>
<g id="a_node3"><a xlink:href="group__postpro.html#gad24367e4a843f60b63a2205aef1ba551" target="_top" xlink:title="Uses mxm() to compute gradient of 3D arrays. ">
<polygon fill="#ffffff" stroke="#000000" points="211,-152.5 211,-171.5 277,-171.5 277,-152.5 211,-152.5"/>
<text text-anchor="middle" x="244" y="-159.5" font-family="Helvetica,sans-Serif" font-size="10.00" fill="#000000">local_grad3</text>
</a>
</g>
</g>
<!-- Node1&#45;&gt;Node2 -->
<g id="edge2" class="edge">
<title>Node1&#45;&gt;Node2</title>
<path fill="none" stroke="#191970" d="M163.253,-133.589C176.5552,-138.2694 192.7545,-143.9692 207.1423,-149.0315"/>
<polygon fill="#191970" stroke="#191970" points="206.1609,-152.3965 216.7558,-152.4141 208.4843,-145.7933 206.1609,-152.3965"/>
</g>
<!-- Node10 -->
<g id="node11" class="node">
<title>Node10</title>
<g id="a_node11"><a xlink:href="byte_8c.html#a2da8eeb074dfd3ffbfb3e9a4d301cda4" target="_top" xlink:title="exitt">
<polygon fill="#ffffff" stroke="#000000" points="226.5,-114.5 226.5,-133.5 261.5,-133.5 261.5,-114.5 226.5,-114.5"/>
<text text-anchor="middle" x="244" y="-121.5" font-family="Helvetica,sans-Serif" font-size="10.00" fill="#000000">exitt</text>
</a>
</g>
</g>
<!-- Node1&#45;&gt;Node10 -->
<g id="edge10" class="edge">
<title>Node1&#45;&gt;Node10</title>
<path fill="none" stroke="#191970" d="M166.6596,-124C182.2161,-124 200.9727,-124 216.1185,-124"/>
<polygon fill="#191970" stroke="#191970" points="216.4114,-127.5001 226.4113,-124 216.4113,-120.5001 216.4114,-127.5001"/>
</g>
<!-- Node11 -->
<g id="node12" class="node">
<title>Node11</title>
<g id="a_node12"><a xlink:href="group__postpro.html#ga53feb767cebebba399ab3c5a50f53155" target="_top" xlink:title="Uses mxm() to compute gradient of 2D arrays. ">
<polygon fill="#ffffff" stroke="#000000" points="211,-76.5 211,-95.5 277,-95.5 277,-76.5 211,-76.5"/>
<text text-anchor="middle" x="244" y="-83.5" font-family="Helvetica,sans-Serif" font-size="10.00" fill="#000000">local_grad2</text>
</a>
</g>
</g>
<!-- Node1&#45;&gt;Node11 -->
<g id="edge11" class="edge">
<title>Node1&#45;&gt;Node11</title>
<path fill="none" stroke="#191970" d="M163.253,-114.411C176.5552,-109.7306 192.7545,-104.0308 207.1423,-98.9685"/>
<polygon fill="#191970" stroke="#191970" points="208.4843,-102.2067 216.7558,-95.5859 206.1609,-95.6035 208.4843,-102.2067"/>
</g>
<!-- Node3 -->
<g id="node4" class="node">
<title>Node3</title>
<g id="a_node4"><a xlink:href="group__postpro.html#gab9ec2260a10061af6ce1c52f3c8a41da" target="_top" xlink:title="Compute matrix&#45;matrix product C = A*B for contiguously packed matrices A,B, and C. ">
<polygon fill="#ffffff" stroke="#000000" points="313,-114.5 313,-133.5 351,-133.5 351,-114.5 313,-114.5"/>
<text text-anchor="middle" x="332" y="-121.5" font-family="Helvetica,sans-Serif" font-size="10.00" fill="#000000">mxm</text>
</a>
</g>
</g>
<!-- Node2&#45;&gt;Node3 -->
<g id="edge3" class="edge">
<title>Node2&#45;&gt;Node3</title>
<path fill="none" stroke="#191970" d="M266.2061,-152.411C277.5358,-147.5186 291.4448,-141.5125 303.5511,-136.2848"/>
<polygon fill="#191970" stroke="#191970" points="304.9969,-139.4729 312.79,-132.2952 302.2218,-133.0464 304.9969,-139.4729"/>
</g>
<!-- Node4 -->
<g id="node5" class="node">
<title>Node4</title>
<g id="a_node5"><a xlink:href="comm__mpi_8f.html#af06ec29f06aac3f8809e19de2a7e8946" target="_top" xlink:title="dnekclock">
<polygon fill="#ffffff" stroke="#000000" points="394,-209.5 394,-228.5 455,-228.5 455,-209.5 394,-209.5"/>
<text text-anchor="middle" x="424.5" y="-216.5" font-family="Helvetica,sans-Serif" font-size="10.00" fill="#000000">dnekclock</text>
</a>
</g>
</g>
<!-- Node3&#45;&gt;Node4 -->
<g id="edge4" class="edge">
<title>Node3&#45;&gt;Node4</title>
<path fill="none" stroke="#191970" d="M336.92,-133.5276C345.3661,-149.1232 363.9603,-180.3302 387,-200 388.7138,-201.4631 390.5596,-202.8497 392.4808,-204.1569"/>
<polygon fill="#191970" stroke="#191970" points="390.8296,-207.2474 401.2095,-209.371 394.4194,-201.238 390.8296,-207.2474"/>
</g>
<!-- Node5 -->
<g id="node6" class="node">
<title>Node5</title>
<g id="a_node6"><a xlink:href="mxm__bgq_8f.html#a8faaef428336095704ece51624bbfe92" target="_top" xlink:title="mxm_bgq_8">
<polygon fill="#ffffff" stroke="#000000" points="389.5,-171.5 389.5,-190.5 459.5,-190.5 459.5,-171.5 389.5,-171.5"/>
<text text-anchor="middle" x="424.5" y="-178.5" font-family="Helvetica,sans-Serif" font-size="10.00" fill="#000000">mxm_bgq_8</text>
</a>
</g>
</g>
<!-- Node3&#45;&gt;Node5 -->
<g id="edge5" class="edge">
<title>Node3&#45;&gt;Node5</title>
<path fill="none" stroke="#191970" d="M344.7851,-133.5709C355.728,-141.5813 372.0394,-153.0975 387,-162 389.6734,-163.5909 392.4962,-165.1787 395.3445,-166.7204"/>
<polygon fill="#191970" stroke="#191970" points="393.8933,-169.911 404.3779,-171.4352 397.1322,-163.7054 393.8933,-169.911"/>
</g>
<!-- Node6 -->
<g id="node7" class="node">
<title>Node6</title>
<g id="a_node7"><a xlink:href="mxm__bgq_8f.html#a3fda9ea4bc7a5713a19d6939fa2b541f" target="_top" xlink:title="mxm_bgq_16">
<polygon fill="#ffffff" stroke="#000000" points="387,-133.5 387,-152.5 462,-152.5 462,-133.5 387,-133.5"/>
<text text-anchor="middle" x="424.5" y="-140.5" font-family="Helvetica,sans-Serif" font-size="10.00" fill="#000000">mxm_bgq_16</text>
</a>
</g>
</g>
<!-- Node3&#45;&gt;Node6 -->
<g id="edge6" class="edge">
<title>Node3&#45;&gt;Node6</title>
<path fill="none" stroke="#191970" d="M351.1661,-127.9368C358.7052,-129.4854 367.7267,-131.3385 376.822,-133.2067"/>
<polygon fill="#191970" stroke="#191970" points="376.1539,-136.6424 386.6536,-135.2261 377.5624,-129.7856 376.1539,-136.6424"/>
</g>
<!-- Node7 -->
<g id="node8" class="node">
<title>Node7</title>
<g id="a_node8"><a xlink:href="mxm__bgq_8f.html#a8a70163b4dbfdbfcce7bff170597fcad" target="_top" xlink:title="mxm_bgq_10">
<polygon fill="#ffffff" stroke="#000000" points="387,-95.5 387,-114.5 462,-114.5 462,-95.5 387,-95.5"/>
<text text-anchor="middle" x="424.5" y="-102.5" font-family="Helvetica,sans-Serif" font-size="10.00" fill="#000000">mxm_bgq_10</text>
</a>
</g>
</g>
<!-- Node3&#45;&gt;Node7 -->
<g id="edge7" class="edge">
<title>Node3&#45;&gt;Node7</title>
<path fill="none" stroke="#191970" d="M351.1661,-120.0632C358.7052,-118.5146 367.7267,-116.6615 376.822,-114.7933"/>
<polygon fill="#191970" stroke="#191970" points="377.5624,-118.2144 386.6536,-112.7739 376.1539,-111.3576 377.5624,-118.2144"/>
</g>
<!-- Node8 -->
<g id="node9" class="node">
<title>Node8</title>
<g id="a_node9"><a xlink:href="mxm__bgq_8f.html#af192c3c8b982aa5bbc2a757156718a91" target="_top" xlink:title="mxm_bgq_6">
<polygon fill="#ffffff" stroke="#000000" points="389.5,-57.5 389.5,-76.5 459.5,-76.5 459.5,-57.5 389.5,-57.5"/>
<text text-anchor="middle" x="424.5" y="-64.5" font-family="Helvetica,sans-Serif" font-size="10.00" fill="#000000">mxm_bgq_6</text>
</a>
</g>
</g>
<!-- Node3&#45;&gt;Node8 -->
<g id="edge8" class="edge">
<title>Node3&#45;&gt;Node8</title>
<path fill="none" stroke="#191970" d="M344.7851,-114.4291C355.728,-106.4187 372.0394,-94.9025 387,-86 389.6734,-84.4091 392.4962,-82.8213 395.3445,-81.2796"/>
<polygon fill="#191970" stroke="#191970" points="397.1322,-84.2946 404.3779,-76.5648 393.8933,-78.089 397.1322,-84.2946"/>
</g>
<!-- Node9 -->
<g id="node10" class="node">
<title>Node9</title>
<g id="a_node10"><a xlink:href="mxm__std_8f.html#aa9e8685c4a72f18fb5d1ee88ed17a3d6" target="_top" xlink:title="mxmf2">
<polygon fill="#ffffff" stroke="#000000" points="401,-19.5 401,-38.5 448,-38.5 448,-19.5 401,-19.5"/>
<text text-anchor="middle" x="424.5" y="-26.5" font-family="Helvetica,sans-Serif" font-size="10.00" fill="#000000">mxmf2</text>
</a>
</g>
</g>
<!-- Node3&#45;&gt;Node9 -->
<g id="edge9" class="edge">
<title>Node3&#45;&gt;Node9</title>
<path fill="none" stroke="#191970" d="M336.92,-114.4724C345.3661,-98.8768 363.9603,-67.6698 387,-48 388.7138,-46.5369 390.5596,-45.1503 392.4808,-43.8431"/>
<polygon fill="#191970" stroke="#191970" points="394.4194,-46.762 401.2095,-38.629 390.8296,-40.7526 394.4194,-46.762"/>
</g>
<!-- Node11&#45;&gt;Node3 -->
<g id="edge12" class="edge">
<title>Node11&#45;&gt;Node3</title>
<path fill="none" stroke="#191970" d="M266.2061,-95.589C277.5358,-100.4814 291.4448,-106.4875 303.5511,-111.7152"/>
<polygon fill="#191970" stroke="#191970" points="302.2218,-114.9536 312.79,-115.7048 304.9969,-108.5271 302.2218,-114.9536"/>
</g>
</g>
</svg>
