<?xml version="1.0" encoding="UTF-8" standalone="no"?>
<!DOCTYPE svg PUBLIC "-//W3C//DTD SVG 1.1//EN"
 "http://www.w3.org/Graphics/SVG/1.1/DTD/svg11.dtd">
<!-- Generated by graphviz version 2.40.1 (20161225.0304)
 -->
<!-- Title: rprm_rp_reg Pages: 1 -->
<svg width="204pt" height="180pt"
 viewBox="0.00 0.00 204.00 180.00" xmlns="http://www.w3.org/2000/svg" xmlns:xlink="http://www.w3.org/1999/xlink">
<g id="graph0" class="graph" transform="scale(1 1) rotate(0) translate(4 176)">
<title>rprm_rp_reg</title>
<polygon fill="#ffffff" stroke="transparent" points="-4,4 -4,-176 200,-176 200,4 -4,4"/>
<!-- Node0 -->
<g id="node1" class="node">
<title>Node0</title>
<polygon fill="#bfbfbf" stroke="#000000" points="0,-76.5 0,-95.5 68,-95.5 68,-76.5 0,-76.5"/>
<text text-anchor="middle" x="34" y="-83.5" font-family="Helvetica,sans-Serif" font-size="10.00" fill="#000000">rprm_rp_reg</text>
</g>
<!-- Node1 -->
<g id="node2" class="node">
<title>Node1</title>
<g id="a_node2"><a xlink:href="wmles__init_8f.html#a7a2c9cfc018e9645c485c2c5bce6d9ca" target="_top" xlink:title="Register WMLES module. ">
<polygon fill="#ffffff" stroke="#000000" points="108.5,-152.5 108.5,-171.5 191.5,-171.5 191.5,-152.5 108.5,-152.5"/>
<text text-anchor="middle" x="150" y="-159.5" font-family="Helvetica,sans-Serif" font-size="10.00" fill="#000000">wmles_register</text>
</a>
</g>
</g>
<!-- Node0&#45;&gt;Node1 -->
<g id="edge1" class="edge">
<title>Node0&#45;&gt;Node1</title>
<path fill="none" stroke="#191970" d="M51.3139,-102.5247C64.8639,-114.8322 84.6022,-131.437 104,-143 109.9376,-146.5394 116.6563,-149.7221 123.0882,-152.4254"/>
<polygon fill="#191970" stroke="#191970" points="53.4487,-99.7311 43.7352,-95.5003 48.6902,-104.8651 53.4487,-99.7311"/>
</g>
<!-- Node2 -->
<g id="node3" class="node">
<title>Node2</title>
<g id="a_node3"><a xlink:href="group__chkpoint.html#gab4a17862a5f644ef26e2538240fc3ae8" target="_top" xlink:title="Register checkpointing module. ">
<polygon fill="#ffffff" stroke="#000000" points="111,-114.5 111,-133.5 189,-133.5 189,-114.5 111,-114.5"/>
<text text-anchor="middle" x="150" y="-121.5" font-family="Helvetica,sans-Serif" font-size="10.00" fill="#000000">chkpt_register</text>
</a>
</g>
</g>
<!-- Node0&#45;&gt;Node2 -->
<g id="edge2" class="edge">
<title>Node0&#45;&gt;Node2</title>
<path fill="none" stroke="#191970" d="M73.1528,-98.8259C88.7176,-103.9247 106.3141,-109.6891 120.7377,-114.4141"/>
<polygon fill="#191970" stroke="#191970" points="73.8644,-95.3761 63.2717,-95.589 71.6852,-102.0282 73.8644,-95.3761"/>
</g>
<!-- Node3 -->
<g id="node4" class="node">
<title>Node3</title>
<g id="a_node4"><a xlink:href="group__monitor.html#gad8a160fa3c099342abc581c5073a5744" target="_top" xlink:title="Register monitor runtime parameters. ">
<polygon fill="#ffffff" stroke="#000000" points="104,-76.5 104,-95.5 196,-95.5 196,-76.5 104,-76.5"/>
<text text-anchor="middle" x="150" y="-83.5" font-family="Helvetica,sans-Serif" font-size="10.00" fill="#000000">mntr_register_par</text>
</a>
</g>
</g>
<!-- Node0&#45;&gt;Node3 -->
<g id="edge3" class="edge">
<title>Node0&#45;&gt;Node3</title>
<path fill="none" stroke="#191970" d="M78.3746,-86C86.6337,-86 95.2836,-86 103.6015,-86"/>
<polygon fill="#191970" stroke="#191970" points="78.1765,-82.5001 68.1764,-86 78.1764,-89.5001 78.1765,-82.5001"/>
</g>
<!-- Node4 -->
<g id="node5" class="node">
<title>Node4</title>
<g id="a_node5"><a xlink:href="group__runparam.html#ga0a358e8c1cfec90802d0529ace7bcd4e" target="_top" xlink:title="Register runtime parameters database. ">
<polygon fill="#ffffff" stroke="#000000" points="113,-38.5 113,-57.5 187,-57.5 187,-38.5 113,-38.5"/>
<text text-anchor="middle" x="150" y="-45.5" font-family="Helvetica,sans-Serif" font-size="10.00" fill="#000000">rprm_register</text>
</a>
</g>
</g>
<!-- Node0&#45;&gt;Node4 -->
<g id="edge4" class="edge">
<title>Node0&#45;&gt;Node4</title>
<path fill="none" stroke="#191970" d="M73.1528,-73.1741C88.7176,-68.0753 106.3141,-62.3109 120.7377,-57.5859"/>
<polygon fill="#191970" stroke="#191970" points="71.6852,-69.9718 63.2717,-76.411 73.8644,-76.6239 71.6852,-69.9718"/>
</g>
<!-- Node5 -->
<g id="node6" class="node">
<title>Node5</title>
<g id="a_node6"><a xlink:href="group__stat.html#ga5b0d78dee858f1d9efcd6ce57aeb5ec8" target="_top" xlink:title="Register 2D and 3D statistics module. ">
<polygon fill="#ffffff" stroke="#000000" points="114.5,-.5 114.5,-19.5 185.5,-19.5 185.5,-.5 114.5,-.5"/>
<text text-anchor="middle" x="150" y="-7.5" font-family="Helvetica,sans-Serif" font-size="10.00" fill="#000000">stat_register</text>
</a>
</g>
</g>
<!-- Node0&#45;&gt;Node5 -->
<g id="edge5" class="edge">
<title>Node0&#45;&gt;Node5</title>
<path fill="none" stroke="#191970" d="M51.3139,-69.4753C64.8639,-57.1678 84.6022,-40.563 104,-29 109.9376,-25.4606 116.6563,-22.2779 123.0882,-19.5746"/>
<polygon fill="#191970" stroke="#191970" points="48.6902,-67.1349 43.7352,-76.4997 53.4487,-72.2689 48.6902,-67.1349"/>
</g>
</g>
</svg>
