<?xml version="1.0" encoding="UTF-8" standalone="no"?>
<!DOCTYPE svg PUBLIC "-//W3C//DTD SVG 1.1//EN"
 "http://www.w3.org/Graphics/SVG/1.1/DTD/svg11.dtd">
<!-- Generated by graphviz version 2.43.0 (0)
 -->
<!-- Title: local_cart_dy_pseudo Pages: 1 -->
<svg width="327pt" height="218pt"
 viewBox="0.00 0.00 327.00 218.00" xmlns="http://www.w3.org/2000/svg" xmlns:xlink="http://www.w3.org/1999/xlink">
<g id="graph0" class="graph" transform="scale(1 1) rotate(0) translate(4 214)">
<title>local_cart_dy_pseudo</title>
<polygon fill="white" stroke="transparent" points="-4,4 -4,-214 323,-214 323,4 -4,4"/>
<!-- Node1 -->
<g id="node1" class="node">
<title>Node1</title>
<g id="a_node1"><a xlink:title="Assuming the mesh is cartesian, compute pseudo(?) y&#45;derivative along y&#45;axis for an element,...">
<polygon fill="#bfbfbf" stroke="black" points="0,-95.5 0,-114.5 122,-114.5 122,-95.5 0,-95.5"/>
<text text-anchor="middle" x="61" y="-102.5" font-family="Helvetica,sans-Serif" font-size="10.00">local_cart_dy_pseudo</text>
</a>
</g>
</g>
<!-- Node2 -->
<g id="node2" class="node">
<title>Node2</title>
<g id="a_node2"><a xlink:href="group__postpro.html#gab9ec2260a10061af6ce1c52f3c8a41da" target="_top" xlink:title="Compute matrix&#45;matrix product C = A*B for contiguously packed matrices A,B, and C.">
<polygon fill="white" stroke="black" points="158,-95.5 158,-114.5 200,-114.5 200,-95.5 158,-95.5"/>
<text text-anchor="middle" x="179" y="-102.5" font-family="Helvetica,sans-Serif" font-size="10.00">mxm</text>
</a>
</g>
</g>
<!-- Node1&#45;&gt;Node2 -->
<g id="edge1" class="edge">
<title>Node1&#45;&gt;Node2</title>
<path fill="none" stroke="midnightblue" d="M122.04,-105C130.93,-105 139.76,-105 147.69,-105"/>
<polygon fill="midnightblue" stroke="midnightblue" points="147.86,-108.5 157.86,-105 147.86,-101.5 147.86,-108.5"/>
</g>
<!-- Node3 -->
<g id="node3" class="node">
<title>Node3</title>
<g id="a_node3"><a xlink:href="comm__mpi_8f.html#af06ec29f06aac3f8809e19de2a7e8946" target="_top" xlink:title=" ">
<polygon fill="white" stroke="black" points="244.5,-190.5 244.5,-209.5 310.5,-209.5 310.5,-190.5 244.5,-190.5"/>
<text text-anchor="middle" x="277.5" y="-197.5" font-family="Helvetica,sans-Serif" font-size="10.00">dnekclock</text>
</a>
</g>
</g>
<!-- Node2&#45;&gt;Node3 -->
<g id="edge2" class="edge">
<title>Node2&#45;&gt;Node3</title>
<path fill="none" stroke="midnightblue" d="M184.99,-114.6C193.55,-130.3 212.43,-161.66 236,-181 237.8,-182.48 239.74,-183.88 241.76,-185.19"/>
<polygon fill="midnightblue" stroke="midnightblue" points="240.51,-188.5 250.93,-190.37 243.95,-182.4 240.51,-188.5"/>
</g>
<!-- Node4 -->
<g id="node4" class="node">
<title>Node4</title>
<g id="a_node4"><a xlink:href="mxm__bgq_8f.html#a8a70163b4dbfdbfcce7bff170597fcad" target="_top" xlink:title=" ">
<polygon fill="white" stroke="black" points="236,-152.5 236,-171.5 319,-171.5 319,-152.5 236,-152.5"/>
<text text-anchor="middle" x="277.5" y="-159.5" font-family="Helvetica,sans-Serif" font-size="10.00">mxm_bgq_10</text>
</a>
</g>
</g>
<!-- Node2&#45;&gt;Node4 -->
<g id="edge3" class="edge">
<title>Node2&#45;&gt;Node4</title>
<path fill="none" stroke="midnightblue" d="M192.97,-114.67C204.09,-122.73 220.68,-134.28 236,-143 238.9,-144.65 241.97,-146.28 245.07,-147.86"/>
<polygon fill="midnightblue" stroke="midnightblue" points="243.8,-151.13 254.32,-152.36 246.86,-144.84 243.8,-151.13"/>
</g>
<!-- Node5 -->
<g id="node5" class="node">
<title>Node5</title>
<g id="a_node5"><a xlink:href="mxm__bgq_8f.html#a3fda9ea4bc7a5713a19d6939fa2b541f" target="_top" xlink:title=" ">
<polygon fill="white" stroke="black" points="236,-114.5 236,-133.5 319,-133.5 319,-114.5 236,-114.5"/>
<text text-anchor="middle" x="277.5" y="-121.5" font-family="Helvetica,sans-Serif" font-size="10.00">mxm_bgq_16</text>
</a>
</g>
</g>
<!-- Node2&#45;&gt;Node5 -->
<g id="edge4" class="edge">
<title>Node2&#45;&gt;Node5</title>
<path fill="none" stroke="midnightblue" d="M200.47,-109.03C207.94,-110.5 216.77,-112.24 225.71,-114"/>
<polygon fill="midnightblue" stroke="midnightblue" points="225.31,-117.49 235.79,-115.99 226.66,-110.62 225.31,-117.49"/>
</g>
<!-- Node6 -->
<g id="node6" class="node">
<title>Node6</title>
<g id="a_node6"><a xlink:href="mxm__bgq_8f.html#af192c3c8b982aa5bbc2a757156718a91" target="_top" xlink:title=" ">
<polygon fill="white" stroke="black" points="239,-76.5 239,-95.5 316,-95.5 316,-76.5 239,-76.5"/>
<text text-anchor="middle" x="277.5" y="-83.5" font-family="Helvetica,sans-Serif" font-size="10.00">mxm_bgq_6</text>
</a>
</g>
</g>
<!-- Node2&#45;&gt;Node6 -->
<g id="edge5" class="edge">
<title>Node2&#45;&gt;Node6</title>
<path fill="none" stroke="midnightblue" d="M200.47,-100.97C208.85,-99.32 218.93,-97.34 228.96,-95.36"/>
<polygon fill="midnightblue" stroke="midnightblue" points="229.79,-98.76 238.92,-93.4 228.44,-91.9 229.79,-98.76"/>
</g>
<!-- Node7 -->
<g id="node7" class="node">
<title>Node7</title>
<g id="a_node7"><a xlink:href="mxm__bgq_8f.html#a8faaef428336095704ece51624bbfe92" target="_top" xlink:title=" ">
<polygon fill="white" stroke="black" points="239,-38.5 239,-57.5 316,-57.5 316,-38.5 239,-38.5"/>
<text text-anchor="middle" x="277.5" y="-45.5" font-family="Helvetica,sans-Serif" font-size="10.00">mxm_bgq_8</text>
</a>
</g>
</g>
<!-- Node2&#45;&gt;Node7 -->
<g id="edge6" class="edge">
<title>Node2&#45;&gt;Node7</title>
<path fill="none" stroke="midnightblue" d="M192.97,-95.33C204.09,-87.27 220.68,-75.72 236,-67 238.9,-65.35 241.97,-63.72 245.07,-62.14"/>
<polygon fill="midnightblue" stroke="midnightblue" points="246.86,-65.16 254.32,-57.64 243.8,-58.87 246.86,-65.16"/>
</g>
<!-- Node8 -->
<g id="node8" class="node">
<title>Node8</title>
<g id="a_node8"><a xlink:href="mxm__std_8f.html#aa9e8685c4a72f18fb5d1ee88ed17a3d6" target="_top" xlink:title=" ">
<polygon fill="white" stroke="black" points="251.5,-0.5 251.5,-19.5 303.5,-19.5 303.5,-0.5 251.5,-0.5"/>
<text text-anchor="middle" x="277.5" y="-7.5" font-family="Helvetica,sans-Serif" font-size="10.00">mxmf2</text>
</a>
</g>
</g>
<!-- Node2&#45;&gt;Node8 -->
<g id="edge7" class="edge">
<title>Node2&#45;&gt;Node8</title>
<path fill="none" stroke="midnightblue" d="M184.99,-95.4C193.55,-79.7 212.43,-48.34 236,-29 238,-27.36 240.16,-25.83 242.41,-24.4"/>
<polygon fill="midnightblue" stroke="midnightblue" points="244.32,-27.34 251.36,-19.42 240.92,-21.22 244.32,-27.34"/>
</g>
</g>
</svg>
