<?xml version="1.0" encoding="UTF-8" standalone="no"?>
<!DOCTYPE svg PUBLIC "-//W3C//DTD SVG 1.1//EN"
 "http://www.w3.org/Graphics/SVG/1.1/DTD/svg11.dtd">
<!-- Generated by graphviz version 2.43.0 (0)
 -->
<!-- Title: pen_frcs_get Pages: 1 -->
<svg width="203pt" height="180pt"
 viewBox="0.00 0.00 203.00 180.00" xmlns="http://www.w3.org/2000/svg" xmlns:xlink="http://www.w3.org/1999/xlink">
<g id="graph0" class="graph" transform="scale(1 1) rotate(0) translate(4 176)">
<title>pen_frcs_get</title>
<polygon fill="white" stroke="transparent" points="-4,4 -4,-176 199,-176 199,4 -4,4"/>
<!-- Node1 -->
<g id="node1" class="node">
<title>Node1</title>
<g id="a_node1"><a xlink:title="Generate forcing along 1D line.">
<polygon fill="#bfbfbf" stroke="black" points="0,-76.5 0,-95.5 79,-95.5 79,-76.5 0,-76.5"/>
<text text-anchor="middle" x="39.5" y="-83.5" font-family="Helvetica,sans-Serif" font-size="10.00">pen_frcs_get</text>
</a>
</g>
</g>
<!-- Node2 -->
<g id="node2" class="node">
<title>Node2</title>
<g id="a_node2"><a xlink:href="math_8f.html#add7cf4f5279a2239cfd54f963a53e618" target="_top" xlink:title=" ">
<polygon fill="white" stroke="black" points="138,-152.5 138,-171.5 172,-171.5 172,-152.5 138,-152.5"/>
<text text-anchor="middle" x="155" y="-159.5" font-family="Helvetica,sans-Serif" font-size="10.00">cfill</text>
</a>
</g>
</g>
<!-- Node1&#45;&gt;Node2 -->
<g id="edge1" class="edge">
<title>Node1&#45;&gt;Node2</title>
<path fill="none" stroke="midnightblue" d="M51.6,-95.63C65.73,-107.61 91.17,-128.28 115,-143 119.26,-145.63 123.94,-148.18 128.53,-150.51"/>
<polygon fill="midnightblue" stroke="midnightblue" points="127.15,-153.73 137.68,-154.94 130.2,-147.43 127.15,-153.73"/>
</g>
<!-- Node3 -->
<g id="node3" class="node">
<title>Node3</title>
<g id="a_node3"><a xlink:href="math_8f.html#ad2b51b68d370651f4f6d81952503e7be" target="_top" xlink:title=" ">
<polygon fill="white" stroke="black" points="133,-114.5 133,-133.5 177,-133.5 177,-114.5 133,-114.5"/>
<text text-anchor="middle" x="155" y="-121.5" font-family="Helvetica,sans-Serif" font-size="10.00">cmult</text>
</a>
</g>
</g>
<!-- Node1&#45;&gt;Node3 -->
<g id="edge2" class="edge">
<title>Node1&#45;&gt;Node3</title>
<path fill="none" stroke="midnightblue" d="M69.14,-95.59C85.56,-101.09 106.19,-107.99 123,-113.62"/>
<polygon fill="midnightblue" stroke="midnightblue" points="122.3,-117.08 132.89,-116.93 124.52,-110.44 122.3,-117.08"/>
</g>
<!-- Node4 -->
<g id="node4" class="node">
<title>Node4</title>
<g id="a_node4"><a xlink:href="math_8f.html#a3b43508554f14bdea8e14473d7d0803c" target="_top" xlink:title=" ">
<polygon fill="white" stroke="black" points="135,-76.5 135,-95.5 175,-95.5 175,-76.5 135,-76.5"/>
<text text-anchor="middle" x="155" y="-83.5" font-family="Helvetica,sans-Serif" font-size="10.00">copy</text>
</a>
</g>
</g>
<!-- Node1&#45;&gt;Node4 -->
<g id="edge3" class="edge">
<title>Node1&#45;&gt;Node4</title>
<path fill="none" stroke="midnightblue" d="M79.24,-86C94.04,-86 110.66,-86 124.46,-86"/>
<polygon fill="midnightblue" stroke="midnightblue" points="124.84,-89.5 134.84,-86 124.84,-82.5 124.84,-89.5"/>
</g>
<!-- Node5 -->
<g id="node5" class="node">
<title>Node5</title>
<g id="a_node5"><a xlink:href="group__io__tools.html#ga53baee4631318962388cf17fe0ceccc5" target="_top" xlink:title="Get free file unit number and store max unit value.">
<polygon fill="white" stroke="black" points="115,-38.5 115,-57.5 195,-57.5 195,-38.5 115,-38.5"/>
<text text-anchor="middle" x="155" y="-45.5" font-family="Helvetica,sans-Serif" font-size="10.00">io_file_freeid</text>
</a>
</g>
</g>
<!-- Node1&#45;&gt;Node5 -->
<g id="edge4" class="edge">
<title>Node1&#45;&gt;Node5</title>
<path fill="none" stroke="midnightblue" d="M69.14,-76.41C83.25,-71.69 100.47,-65.92 115.7,-60.82"/>
<polygon fill="midnightblue" stroke="midnightblue" points="117,-64.08 125.37,-57.59 114.77,-57.44 117,-64.08"/>
</g>
<!-- Node6 -->
<g id="node6" class="node">
<title>Node6</title>
<g id="a_node6"><a xlink:href="math_8f.html#af44de42b023a4a68cd98ea341204342d" target="_top" xlink:title=" ">
<polygon fill="white" stroke="black" points="134.5,-0.5 134.5,-19.5 175.5,-19.5 175.5,-0.5 134.5,-0.5"/>
<text text-anchor="middle" x="155" y="-7.5" font-family="Helvetica,sans-Serif" font-size="10.00">rzero</text>
</a>
</g>
</g>
<!-- Node1&#45;&gt;Node6 -->
<g id="edge5" class="edge">
<title>Node1&#45;&gt;Node6</title>
<path fill="none" stroke="midnightblue" d="M51.6,-76.37C65.73,-64.39 91.17,-43.72 115,-29 118.2,-27.02 121.64,-25.1 125.09,-23.27"/>
<polygon fill="midnightblue" stroke="midnightblue" points="126.78,-26.34 134.15,-18.73 123.64,-20.08 126.78,-26.34"/>
</g>
</g>
</svg>
