<?xml version="1.0" encoding="UTF-8" standalone="no"?>
<!DOCTYPE svg PUBLIC "-//W3C//DTD SVG 1.1//EN"
 "http://www.w3.org/Graphics/SVG/1.1/DTD/svg11.dtd">
<!-- Generated by graphviz version 2.40.1 (20161225.0304)
 -->
<!-- Title: /home/runner/work/snek5000&#45;abl/snek5000&#45;abl/lib/Nek5000/core/nek_comm.c Pages: 1 -->
<svg width="156pt" height="106pt"
 viewBox="0.00 0.00 156.00 106.00" xmlns="http://www.w3.org/2000/svg" xmlns:xlink="http://www.w3.org/1999/xlink">
<g id="graph0" class="graph" transform="scale(1 1) rotate(0) translate(4 102)">
<title>/home/runner/work/snek5000&#45;abl/snek5000&#45;abl/lib/Nek5000/core/nek_comm.c</title>
<polygon fill="#ffffff" stroke="transparent" points="-4,4 -4,-102 152,-102 152,4 -4,4"/>
<!-- Node0 -->
<g id="node1" class="node">
<title>Node0</title>
<polygon fill="#bfbfbf" stroke="#000000" points="0,-56.5 0,-97.5 148,-97.5 148,-56.5 0,-56.5"/>
<text text-anchor="start" x="8" y="-85.5" font-family="Helvetica,sans-Serif" font-size="10.00" fill="#000000">/home/runner/work/snek5000</text>
<text text-anchor="start" x="8" y="-74.5" font-family="Helvetica,sans-Serif" font-size="10.00" fill="#000000">&#45;abl/snek5000&#45;abl/lib/Nek5000</text>
<text text-anchor="middle" x="74" y="-63.5" font-family="Helvetica,sans-Serif" font-size="10.00" fill="#000000">/core/nek_comm.c</text>
</g>
<!-- Node1 -->
<g id="node2" class="node">
<title>Node1</title>
<polygon fill="#ffffff" stroke="#bfbfbf" points="19,-.5 19,-19.5 65,-19.5 65,-.5 19,-.5"/>
<text text-anchor="middle" x="42" y="-7.5" font-family="Helvetica,sans-Serif" font-size="10.00" fill="#000000">stdio.h</text>
</g>
<!-- Node0&#45;&gt;Node1 -->
<g id="edge1" class="edge">
<title>Node0&#45;&gt;Node1</title>
<path fill="none" stroke="#191970" d="M64.0504,-56.168C59.8833,-47.4433 55.0742,-37.374 51.0126,-28.87"/>
<polygon fill="#191970" stroke="#191970" points="54.1394,-27.2957 46.6713,-19.7805 47.8228,-30.3125 54.1394,-27.2957"/>
</g>
<!-- Node2 -->
<g id="node3" class="node">
<title>Node2</title>
<polygon fill="#ffffff" stroke="#bfbfbf" points="83.5,-.5 83.5,-19.5 130.5,-19.5 130.5,-.5 83.5,-.5"/>
<text text-anchor="middle" x="107" y="-7.5" font-family="Helvetica,sans-Serif" font-size="10.00" fill="#000000">math.h</text>
</g>
<!-- Node0&#45;&gt;Node2 -->
<g id="edge2" class="edge">
<title>Node0&#45;&gt;Node2</title>
<path fill="none" stroke="#191970" d="M84.2605,-56.168C88.5578,-47.4433 93.5173,-37.374 97.7058,-28.87"/>
<polygon fill="#191970" stroke="#191970" points="100.904,-30.2979 102.1828,-19.7805 94.6244,-27.2049 100.904,-30.2979"/>
</g>
</g>
</svg>
