<?xml version="1.0" encoding="UTF-8" standalone="no"?>
<!DOCTYPE svg PUBLIC "-//W3C//DTD SVG 1.1//EN"
 "http://www.w3.org/Graphics/SVG/1.1/DTD/svg11.dtd">
<!-- Generated by graphviz version 2.43.0 (0)
 -->
<!-- Title: eddy_visc Pages: 1 -->
<svg width="529pt" height="313pt"
 viewBox="0.00 0.00 529.00 313.00" xmlns="http://www.w3.org/2000/svg" xmlns:xlink="http://www.w3.org/1999/xlink">
<g id="graph0" class="graph" transform="scale(1 1) rotate(0) translate(4 309)">
<title>eddy_visc</title>
<polygon fill="white" stroke="transparent" points="-4,4 -4,-309 525,-309 525,4 -4,4"/>
<!-- Node1 -->
<g id="node1" class="node">
<title>Node1</title>
<g id="a_node1"><a xlink:title="Compute eddy viscosity using shear improved smagorinsky model Here is the key difference:">
<polygon fill="#bfbfbf" stroke="black" points="0,-133.5 0,-152.5 65,-152.5 65,-133.5 0,-133.5"/>
<text text-anchor="middle" x="32.5" y="-140.5" font-family="Helvetica,sans-Serif" font-size="10.00">eddy_visc</text>
</a>
</g>
</g>
<!-- Node2 -->
<g id="node2" class="node">
<title>Node2</title>
<g id="a_node2"><a xlink:href="math_8f.html#ad2b51b68d370651f4f6d81952503e7be" target="_top" xlink:title=" ">
<polygon fill="white" stroke="black" points="129,-247.5 129,-266.5 173,-266.5 173,-247.5 129,-247.5"/>
<text text-anchor="middle" x="151" y="-254.5" font-family="Helvetica,sans-Serif" font-size="10.00">cmult</text>
</a>
</g>
</g>
<!-- Node1&#45;&gt;Node2 -->
<g id="edge1" class="edge">
<title>Node1&#45;&gt;Node2</title>
<path fill="none" stroke="midnightblue" d="M38.01,-152.77C47.23,-171.76 70.03,-213.89 101,-238 106.29,-242.12 112.58,-245.44 118.87,-248.08"/>
<polygon fill="midnightblue" stroke="midnightblue" points="117.99,-251.49 128.58,-251.69 120.43,-244.93 117.99,-251.49"/>
</g>
<!-- Node3 -->
<g id="node3" class="node">
<title>Node3</title>
<g id="a_node3"><a xlink:href="group__postpro.html#ga2282f2912315313d8c35cfd37389c7f3" target="_top" xlink:title="Compute the gradient tensor G_ij := du_i/du_j, for element e.">
<polygon fill="white" stroke="black" points="117.5,-209.5 117.5,-228.5 184.5,-228.5 184.5,-209.5 117.5,-209.5"/>
<text text-anchor="middle" x="151" y="-216.5" font-family="Helvetica,sans-Serif" font-size="10.00">comp_gije</text>
</a>
</g>
</g>
<!-- Node1&#45;&gt;Node3 -->
<g id="edge2" class="edge">
<title>Node1&#45;&gt;Node3</title>
<path fill="none" stroke="midnightblue" d="M42.78,-152.61C55.11,-164.94 78.05,-186.38 101,-200 104.25,-201.93 107.73,-203.73 111.29,-205.4"/>
<polygon fill="midnightblue" stroke="midnightblue" points="110.18,-208.73 120.75,-209.48 112.96,-202.31 110.18,-208.73"/>
</g>
<!-- Node14 -->
<g id="node14" class="node">
<title>Node14</title>
<g id="a_node14"><a xlink:href="group__postpro.html#gab683ff84116ad23a19188953209855d0" target="_top" xlink:title="Compute symmetric part of a tensor gije for element. Does not call any other subroutine,...">
<polygon fill="white" stroke="black" points="118,-171.5 118,-190.5 184,-190.5 184,-171.5 118,-171.5"/>
<text text-anchor="middle" x="151" y="-178.5" font-family="Helvetica,sans-Serif" font-size="10.00">comp_sije</text>
</a>
</g>
</g>
<!-- Node1&#45;&gt;Node14 -->
<g id="edge14" class="edge">
<title>Node1&#45;&gt;Node14</title>
<path fill="none" stroke="midnightblue" d="M62.9,-152.59C77.39,-157.31 95.06,-163.08 110.69,-168.18"/>
<polygon fill="midnightblue" stroke="midnightblue" points="110.02,-171.64 120.61,-171.41 112.19,-164.99 110.02,-171.64"/>
</g>
<!-- Node15 -->
<g id="node15" class="node">
<title>Node15</title>
<g id="a_node15"><a xlink:href="math_8f.html#a3b43508554f14bdea8e14473d7d0803c" target="_top" xlink:title=" ">
<polygon fill="white" stroke="black" points="131,-133.5 131,-152.5 171,-152.5 171,-133.5 131,-133.5"/>
<text text-anchor="middle" x="151" y="-140.5" font-family="Helvetica,sans-Serif" font-size="10.00">copy</text>
</a>
</g>
</g>
<!-- Node1&#45;&gt;Node15 -->
<g id="edge15" class="edge">
<title>Node1&#45;&gt;Node15</title>
<path fill="none" stroke="midnightblue" d="M65.03,-143C82.27,-143 103.51,-143 120.44,-143"/>
<polygon fill="midnightblue" stroke="midnightblue" points="120.86,-146.5 130.86,-143 120.86,-139.5 120.86,-146.5"/>
</g>
<!-- Node16 -->
<g id="node16" class="node">
<title>Node16</title>
<g id="a_node16"><a xlink:href="utils_8f.html#a75d89f87799764b6cb777d9ce36c19b7" target="_top" xlink:title="Adjust gradient at the boundary using the MOST relation.">
<polygon fill="white" stroke="black" points="114,-95.5 114,-114.5 188,-114.5 188,-95.5 114,-95.5"/>
<text text-anchor="middle" x="151" y="-102.5" font-family="Helvetica,sans-Serif" font-size="10.00">gij_from_bc</text>
</a>
</g>
</g>
<!-- Node1&#45;&gt;Node16 -->
<g id="edge16" class="edge">
<title>Node1&#45;&gt;Node16</title>
<path fill="none" stroke="midnightblue" d="M62.9,-133.41C77.39,-128.69 95.06,-122.92 110.69,-117.82"/>
<polygon fill="midnightblue" stroke="midnightblue" points="112.19,-121.01 120.61,-114.59 110.02,-114.36 112.19,-121.01"/>
</g>
<!-- Node17 -->
<g id="node17" class="node">
<title>Node17</title>
<g id="a_node17"><a xlink:href="postpro_8f.html#af9d2aff92c48c37b10261e543b5f18fb" target="_top" xlink:title=" ">
<polygon fill="white" stroke="black" points="108,-57.5 108,-76.5 194,-76.5 194,-57.5 108,-57.5"/>
<text text-anchor="middle" x="151" y="-64.5" font-family="Helvetica,sans-Serif" font-size="10.00">mag_tensor_e</text>
</a>
</g>
</g>
<!-- Node1&#45;&gt;Node17 -->
<g id="edge17" class="edge">
<title>Node1&#45;&gt;Node17</title>
<path fill="none" stroke="midnightblue" d="M42.78,-133.39C55.11,-121.06 78.05,-99.62 101,-86 104.25,-84.07 107.73,-82.27 111.29,-80.6"/>
<polygon fill="midnightblue" stroke="midnightblue" points="112.96,-83.69 120.75,-76.52 110.18,-77.27 112.96,-83.69"/>
</g>
<!-- Node18 -->
<g id="node18" class="node">
<title>Node18</title>
<g id="a_node18"><a xlink:href="utils_8f.html#acdb01a4b3d25323d8e05757532080584" target="_top" xlink:title="Compute planar average of quantity u along horizontal directions.">
<polygon fill="white" stroke="black" points="101,-19.5 101,-38.5 201,-38.5 201,-19.5 101,-19.5"/>
<text text-anchor="middle" x="151" y="-26.5" font-family="Helvetica,sans-Serif" font-size="10.00">planar_avg_horiz</text>
</a>
</g>
</g>
<!-- Node1&#45;&gt;Node18 -->
<g id="edge18" class="edge">
<title>Node1&#45;&gt;Node18</title>
<path fill="none" stroke="midnightblue" d="M38.01,-133.23C47.23,-114.24 70.03,-72.11 101,-48 103.29,-46.21 105.78,-44.58 108.37,-43.08"/>
<polygon fill="midnightblue" stroke="midnightblue" points="110.09,-46.14 117.46,-38.52 106.95,-39.88 110.09,-46.14"/>
</g>
<!-- Node4 -->
<g id="node4" class="node">
<title>Node4</title>
<g id="a_node4"><a xlink:href="byte_8c.html#a2da8eeb074dfd3ffbfb3e9a4d301cda4" target="_top" xlink:title=" ">
<polygon fill="white" stroke="black" points="261,-247.5 261,-266.5 300,-266.5 300,-247.5 261,-247.5"/>
<text text-anchor="middle" x="280.5" y="-254.5" font-family="Helvetica,sans-Serif" font-size="10.00">exitt</text>
</a>
</g>
</g>
<!-- Node3&#45;&gt;Node4 -->
<g id="edge3" class="edge">
<title>Node3&#45;&gt;Node4</title>
<path fill="none" stroke="midnightblue" d="M184.17,-228.59C204.78,-234.73 231.27,-242.63 251.1,-248.53"/>
<polygon fill="midnightblue" stroke="midnightblue" points="250.21,-251.92 260.79,-251.42 252.21,-245.21 250.21,-251.92"/>
</g>
<!-- Node5 -->
<g id="node5" class="node">
<title>Node5</title>
<g id="a_node5"><a xlink:href="group__postpro.html#ga53feb767cebebba399ab3c5a50f53155" target="_top" xlink:title="Uses mxm() to compute gradient of 2D arrays.">
<polygon fill="white" stroke="black" points="244,-209.5 244,-228.5 317,-228.5 317,-209.5 244,-209.5"/>
<text text-anchor="middle" x="280.5" y="-216.5" font-family="Helvetica,sans-Serif" font-size="10.00">local_grad2</text>
</a>
</g>
</g>
<!-- Node3&#45;&gt;Node5 -->
<g id="edge4" class="edge">
<title>Node3&#45;&gt;Node5</title>
<path fill="none" stroke="midnightblue" d="M184.5,-219C199.39,-219 217.3,-219 233.54,-219"/>
<polygon fill="midnightblue" stroke="midnightblue" points="233.92,-222.5 243.92,-219 233.92,-215.5 233.92,-222.5"/>
</g>
<!-- Node13 -->
<g id="node13" class="node">
<title>Node13</title>
<g id="a_node13"><a xlink:href="group__postpro.html#gad24367e4a843f60b63a2205aef1ba551" target="_top" xlink:title="Uses mxm() to compute gradient of 3D arrays.">
<polygon fill="white" stroke="black" points="244,-171.5 244,-190.5 317,-190.5 317,-171.5 244,-171.5"/>
<text text-anchor="middle" x="280.5" y="-178.5" font-family="Helvetica,sans-Serif" font-size="10.00">local_grad3</text>
</a>
</g>
</g>
<!-- Node3&#45;&gt;Node13 -->
<g id="edge12" class="edge">
<title>Node3&#45;&gt;Node13</title>
<path fill="none" stroke="midnightblue" d="M184.17,-209.41C200.33,-204.6 220.11,-198.7 237.45,-193.53"/>
<polygon fill="midnightblue" stroke="midnightblue" points="238.75,-196.8 247.34,-190.59 236.75,-190.09 238.75,-196.8"/>
</g>
<!-- Node6 -->
<g id="node6" class="node">
<title>Node6</title>
<g id="a_node6"><a xlink:href="group__postpro.html#gab9ec2260a10061af6ce1c52f3c8a41da" target="_top" xlink:title="Compute matrix&#45;matrix product C = A*B for contiguously packed matrices A,B, and C.">
<polygon fill="white" stroke="black" points="360,-190.5 360,-209.5 402,-209.5 402,-190.5 360,-190.5"/>
<text text-anchor="middle" x="381" y="-197.5" font-family="Helvetica,sans-Serif" font-size="10.00">mxm</text>
</a>
</g>
</g>
<!-- Node5&#45;&gt;Node6 -->
<g id="edge5" class="edge">
<title>Node5&#45;&gt;Node6</title>
<path fill="none" stroke="midnightblue" d="M317.06,-212.14C327.89,-210.05 339.68,-207.78 350.09,-205.77"/>
<polygon fill="midnightblue" stroke="midnightblue" points="350.81,-209.2 359.96,-203.86 349.48,-202.32 350.81,-209.2"/>
</g>
<!-- Node7 -->
<g id="node7" class="node">
<title>Node7</title>
<g id="a_node7"><a xlink:href="comm__mpi_8f.html#af06ec29f06aac3f8809e19de2a7e8946" target="_top" xlink:title=" ">
<polygon fill="white" stroke="black" points="446.5,-285.5 446.5,-304.5 512.5,-304.5 512.5,-285.5 446.5,-285.5"/>
<text text-anchor="middle" x="479.5" y="-292.5" font-family="Helvetica,sans-Serif" font-size="10.00">dnekclock</text>
</a>
</g>
</g>
<!-- Node6&#45;&gt;Node7 -->
<g id="edge6" class="edge">
<title>Node6&#45;&gt;Node7</title>
<path fill="none" stroke="midnightblue" d="M386.99,-209.6C395.55,-225.3 414.43,-256.66 438,-276 439.8,-277.48 441.74,-278.88 443.76,-280.19"/>
<polygon fill="midnightblue" stroke="midnightblue" points="442.51,-283.5 452.93,-285.37 445.95,-277.4 442.51,-283.5"/>
</g>
<!-- Node8 -->
<g id="node8" class="node">
<title>Node8</title>
<g id="a_node8"><a xlink:href="mxm__bgq_8f.html#a8a70163b4dbfdbfcce7bff170597fcad" target="_top" xlink:title=" ">
<polygon fill="white" stroke="black" points="438,-247.5 438,-266.5 521,-266.5 521,-247.5 438,-247.5"/>
<text text-anchor="middle" x="479.5" y="-254.5" font-family="Helvetica,sans-Serif" font-size="10.00">mxm_bgq_10</text>
</a>
</g>
</g>
<!-- Node6&#45;&gt;Node8 -->
<g id="edge7" class="edge">
<title>Node6&#45;&gt;Node8</title>
<path fill="none" stroke="midnightblue" d="M394.97,-209.67C406.09,-217.73 422.68,-229.28 438,-238 440.9,-239.65 443.97,-241.28 447.07,-242.86"/>
<polygon fill="midnightblue" stroke="midnightblue" points="445.8,-246.13 456.32,-247.36 448.86,-239.84 445.8,-246.13"/>
</g>
<!-- Node9 -->
<g id="node9" class="node">
<title>Node9</title>
<g id="a_node9"><a xlink:href="mxm__bgq_8f.html#a3fda9ea4bc7a5713a19d6939fa2b541f" target="_top" xlink:title=" ">
<polygon fill="white" stroke="black" points="438,-209.5 438,-228.5 521,-228.5 521,-209.5 438,-209.5"/>
<text text-anchor="middle" x="479.5" y="-216.5" font-family="Helvetica,sans-Serif" font-size="10.00">mxm_bgq_16</text>
</a>
</g>
</g>
<!-- Node6&#45;&gt;Node9 -->
<g id="edge8" class="edge">
<title>Node6&#45;&gt;Node9</title>
<path fill="none" stroke="midnightblue" d="M402.47,-204.03C409.94,-205.5 418.77,-207.24 427.71,-209"/>
<polygon fill="midnightblue" stroke="midnightblue" points="427.31,-212.49 437.79,-210.99 428.66,-205.62 427.31,-212.49"/>
</g>
<!-- Node10 -->
<g id="node10" class="node">
<title>Node10</title>
<g id="a_node10"><a xlink:href="mxm__bgq_8f.html#af192c3c8b982aa5bbc2a757156718a91" target="_top" xlink:title=" ">
<polygon fill="white" stroke="black" points="441,-171.5 441,-190.5 518,-190.5 518,-171.5 441,-171.5"/>
<text text-anchor="middle" x="479.5" y="-178.5" font-family="Helvetica,sans-Serif" font-size="10.00">mxm_bgq_6</text>
</a>
</g>
</g>
<!-- Node6&#45;&gt;Node10 -->
<g id="edge9" class="edge">
<title>Node6&#45;&gt;Node10</title>
<path fill="none" stroke="midnightblue" d="M402.47,-195.97C410.85,-194.32 420.93,-192.34 430.96,-190.36"/>
<polygon fill="midnightblue" stroke="midnightblue" points="431.79,-193.76 440.92,-188.4 430.44,-186.9 431.79,-193.76"/>
</g>
<!-- Node11 -->
<g id="node11" class="node">
<title>Node11</title>
<g id="a_node11"><a xlink:href="mxm__bgq_8f.html#a8faaef428336095704ece51624bbfe92" target="_top" xlink:title=" ">
<polygon fill="white" stroke="black" points="441,-133.5 441,-152.5 518,-152.5 518,-133.5 441,-133.5"/>
<text text-anchor="middle" x="479.5" y="-140.5" font-family="Helvetica,sans-Serif" font-size="10.00">mxm_bgq_8</text>
</a>
</g>
</g>
<!-- Node6&#45;&gt;Node11 -->
<g id="edge10" class="edge">
<title>Node6&#45;&gt;Node11</title>
<path fill="none" stroke="midnightblue" d="M394.97,-190.33C406.09,-182.27 422.68,-170.72 438,-162 440.9,-160.35 443.97,-158.72 447.07,-157.14"/>
<polygon fill="midnightblue" stroke="midnightblue" points="448.86,-160.16 456.32,-152.64 445.8,-153.87 448.86,-160.16"/>
</g>
<!-- Node12 -->
<g id="node12" class="node">
<title>Node12</title>
<g id="a_node12"><a xlink:href="mxm__std_8f.html#aa9e8685c4a72f18fb5d1ee88ed17a3d6" target="_top" xlink:title=" ">
<polygon fill="white" stroke="black" points="453.5,-95.5 453.5,-114.5 505.5,-114.5 505.5,-95.5 453.5,-95.5"/>
<text text-anchor="middle" x="479.5" y="-102.5" font-family="Helvetica,sans-Serif" font-size="10.00">mxmf2</text>
</a>
</g>
</g>
<!-- Node6&#45;&gt;Node12 -->
<g id="edge11" class="edge">
<title>Node6&#45;&gt;Node12</title>
<path fill="none" stroke="midnightblue" d="M386.99,-190.4C395.55,-174.7 414.43,-143.34 438,-124 440,-122.36 442.16,-120.83 444.41,-119.4"/>
<polygon fill="midnightblue" stroke="midnightblue" points="446.32,-122.34 453.36,-114.42 442.92,-116.22 446.32,-122.34"/>
</g>
<!-- Node13&#45;&gt;Node6 -->
<g id="edge13" class="edge">
<title>Node13&#45;&gt;Node6</title>
<path fill="none" stroke="midnightblue" d="M317.06,-187.86C327.89,-189.95 339.68,-192.22 350.09,-194.23"/>
<polygon fill="midnightblue" stroke="midnightblue" points="349.48,-197.68 359.96,-196.14 350.81,-190.8 349.48,-197.68"/>
</g>
<!-- Node19 -->
<g id="node19" class="node">
<title>Node19</title>
<g id="a_node19"><a xlink:href="dssum_8f.html#a93169b7e53973103de1372a81375375a" target="_top" xlink:title=" ">
<polygon fill="white" stroke="black" points="237,-38.5 237,-57.5 324,-57.5 324,-38.5 237,-38.5"/>
<text text-anchor="middle" x="280.5" y="-45.5" font-family="Helvetica,sans-Serif" font-size="10.00">gtpp_gs_setup</text>
</a>
</g>
</g>
<!-- Node18&#45;&gt;Node19 -->
<g id="edge19" class="edge">
<title>Node18&#45;&gt;Node19</title>
<path fill="none" stroke="midnightblue" d="M201.29,-36.35C209.66,-37.59 218.38,-38.89 226.84,-40.15"/>
<polygon fill="midnightblue" stroke="midnightblue" points="226.57,-43.65 236.97,-41.66 227.6,-36.73 226.57,-43.65"/>
</g>
<!-- Node20 -->
<g id="node20" class="node">
<title>Node20</title>
<g id="a_node20"><a xlink:href="navier5_8f.html#a43c9d798cb7be60e09268f4176c0d13f" target="_top" xlink:title=" ">
<polygon fill="white" stroke="black" points="245,-0.5 245,-19.5 316,-19.5 316,-0.5 245,-0.5"/>
<text text-anchor="middle" x="280.5" y="-7.5" font-family="Helvetica,sans-Serif" font-size="10.00">planar_avg</text>
</a>
</g>
</g>
<!-- Node18&#45;&gt;Node20 -->
<g id="edge20" class="edge">
<title>Node18&#45;&gt;Node20</title>
<path fill="none" stroke="midnightblue" d="M201.29,-21.65C212.34,-20.01 224,-18.27 234.84,-16.65"/>
<polygon fill="midnightblue" stroke="midnightblue" points="235.57,-20.09 244.94,-15.15 234.54,-13.16 235.57,-20.09"/>
</g>
</g>
</svg>
