<?xml version="1.0" encoding="UTF-8" standalone="no"?>
<!DOCTYPE svg PUBLIC "-//W3C//DTD SVG 1.1//EN"
 "http://www.w3.org/Graphics/SVG/1.1/DTD/svg11.dtd">
<!-- Generated by graphviz version 2.40.1 (20161225.0304)
 -->
<!-- Title: eddy_visc Pages: 1 -->
<svg width="496pt" height="351pt"
 viewBox="0.00 0.00 496.00 351.00" xmlns="http://www.w3.org/2000/svg" xmlns:xlink="http://www.w3.org/1999/xlink">
<g id="graph0" class="graph" transform="scale(1 1) rotate(0) translate(4 347)">
<title>eddy_visc</title>
<polygon fill="#ffffff" stroke="transparent" points="-4,4 -4,-347 492,-347 492,4 -4,4"/>
<!-- Node0 -->
<g id="node1" class="node">
<title>Node0</title>
<polygon fill="#bfbfbf" stroke="#000000" points="0,-114.5 0,-133.5 61,-133.5 61,-114.5 0,-114.5"/>
<text text-anchor="middle" x="30.5" y="-121.5" font-family="Helvetica,sans-Serif" font-size="10.00" fill="#000000">eddy_visc</text>
</g>
<!-- Node1 -->
<g id="node2" class="node">
<title>Node1</title>
<g id="a_node2"><a xlink:href="group__postpro.html#ga2282f2912315313d8c35cfd37389c7f3" target="_top" xlink:title="Compute the gradient tensor G_ij := du_i/du_j, for element e. ">
<polygon fill="#ffffff" stroke="#000000" points="111.5,-228.5 111.5,-247.5 172.5,-247.5 172.5,-228.5 111.5,-228.5"/>
<text text-anchor="middle" x="142" y="-235.5" font-family="Helvetica,sans-Serif" font-size="10.00" fill="#000000">comp_gije</text>
</a>
</g>
</g>
<!-- Node0&#45;&gt;Node1 -->
<g id="edge1" class="edge">
<title>Node0&#45;&gt;Node1</title>
<path fill="none" stroke="#191970" d="M34.9675,-133.6972C44.0977,-152.5509 66.6255,-194.4477 97,-219 99.0198,-220.6326 101.2003,-222.1465 103.4742,-223.5468"/>
<polygon fill="#191970" stroke="#191970" points="102.0943,-226.7774 112.5649,-228.3947 105.3882,-220.6008 102.0943,-226.7774"/>
</g>
<!-- Node12 -->
<g id="node13" class="node">
<title>Node12</title>
<g id="a_node13"><a xlink:href="utils_8f.html#a75d89f87799764b6cb777d9ce36c19b7" target="_top" xlink:title="Adjust gradient at the boundary using the MOST relation. ">
<polygon fill="#ffffff" stroke="#000000" points="108.5,-190.5 108.5,-209.5 175.5,-209.5 175.5,-190.5 108.5,-190.5"/>
<text text-anchor="middle" x="142" y="-197.5" font-family="Helvetica,sans-Serif" font-size="10.00" fill="#000000">gij_from_bc</text>
</a>
</g>
</g>
<!-- Node0&#45;&gt;Node12 -->
<g id="edge13" class="edge">
<title>Node0&#45;&gt;Node12</title>
<path fill="none" stroke="#191970" d="M39.6724,-133.5132C51.8647,-145.7492 74.5002,-167.0789 97,-181 99.9748,-182.8406 103.1593,-184.5813 106.4086,-186.2065"/>
<polygon fill="#191970" stroke="#191970" points="105.0724,-189.4447 115.6177,-190.4683 108.0123,-183.092 105.0724,-189.4447"/>
</g>
<!-- Node13 -->
<g id="node14" class="node">
<title>Node13</title>
<g id="a_node14"><a xlink:href="group__postpro.html#gab683ff84116ad23a19188953209855d0" target="_top" xlink:title="Compute symmetric part of a tensor gije for element. Does not call any other subroutine, but simply evaluates: &#160;. ">
<polygon fill="#ffffff" stroke="#000000" points="111.5,-152.5 111.5,-171.5 172.5,-171.5 172.5,-152.5 111.5,-152.5"/>
<text text-anchor="middle" x="142" y="-159.5" font-family="Helvetica,sans-Serif" font-size="10.00" fill="#000000">comp_sije</text>
</a>
</g>
</g>
<!-- Node0&#45;&gt;Node13 -->
<g id="edge14" class="edge">
<title>Node0&#45;&gt;Node13</title>
<path fill="none" stroke="#191970" d="M58.6362,-133.589C72.5015,-138.3144 89.4156,-144.0789 104.3758,-149.1774"/>
<polygon fill="#191970" stroke="#191970" points="103.2784,-152.501 113.8728,-152.4141 105.5365,-145.8752 103.2784,-152.501"/>
</g>
<!-- Node14 -->
<g id="node15" class="node">
<title>Node14</title>
<g id="a_node15"><a xlink:href="postpro_8f.html#af9d2aff92c48c37b10261e543b5f18fb" target="_top" xlink:title="mag_tensor_e">
<polygon fill="#ffffff" stroke="#000000" points="103,-114.5 103,-133.5 181,-133.5 181,-114.5 103,-114.5"/>
<text text-anchor="middle" x="142" y="-121.5" font-family="Helvetica,sans-Serif" font-size="10.00" fill="#000000">mag_tensor_e</text>
</a>
</g>
</g>
<!-- Node0&#45;&gt;Node14 -->
<g id="edge15" class="edge">
<title>Node0&#45;&gt;Node14</title>
<path fill="none" stroke="#191970" d="M61.263,-124C71.0327,-124 82.0931,-124 92.8241,-124"/>
<polygon fill="#191970" stroke="#191970" points="92.9587,-127.5001 102.9587,-124 92.9586,-120.5001 92.9587,-127.5001"/>
</g>
<!-- Node15 -->
<g id="node16" class="node">
<title>Node15</title>
<g id="a_node16"><a xlink:href="math_8f.html#ad2b51b68d370651f4f6d81952503e7be" target="_top" xlink:title="cmult">
<polygon fill="#ffffff" stroke="#000000" points="121.5,-76.5 121.5,-95.5 162.5,-95.5 162.5,-76.5 121.5,-76.5"/>
<text text-anchor="middle" x="142" y="-83.5" font-family="Helvetica,sans-Serif" font-size="10.00" fill="#000000">cmult</text>
</a>
</g>
</g>
<!-- Node0&#45;&gt;Node15 -->
<g id="edge16" class="edge">
<title>Node0&#45;&gt;Node15</title>
<path fill="none" stroke="#191970" d="M58.6362,-114.411C74.7706,-108.9123 95.0332,-102.0066 111.5415,-96.3805"/>
<polygon fill="#191970" stroke="#191970" points="112.9282,-99.6056 121.2646,-93.0668 110.6701,-92.9798 112.9282,-99.6056"/>
</g>
<!-- Node16 -->
<g id="node17" class="node">
<title>Node16</title>
<g id="a_node17"><a xlink:href="utils_8f.html#acdb01a4b3d25323d8e05757532080584" target="_top" xlink:title="Compute planar average of quantity u along horizontal directions. ">
<polygon fill="#ffffff" stroke="#000000" points="97,-38.5 97,-57.5 187,-57.5 187,-38.5 97,-38.5"/>
<text text-anchor="middle" x="142" y="-45.5" font-family="Helvetica,sans-Serif" font-size="10.00" fill="#000000">planar_avg_horiz</text>
</a>
</g>
</g>
<!-- Node0&#45;&gt;Node16 -->
<g id="edge17" class="edge">
<title>Node0&#45;&gt;Node16</title>
<path fill="none" stroke="#191970" d="M39.6724,-114.4868C51.8647,-102.2508 74.5002,-80.9211 97,-67 99.9748,-65.1594 103.1593,-63.4187 106.4086,-61.7935"/>
<polygon fill="#191970" stroke="#191970" points="108.0123,-64.908 115.6177,-57.5317 105.0724,-58.5553 108.0123,-64.908"/>
</g>
<!-- Node19 -->
<g id="node20" class="node">
<title>Node19</title>
<g id="a_node20"><a xlink:href="math_8f.html#a3b43508554f14bdea8e14473d7d0803c" target="_top" xlink:title="copy">
<polygon fill="#ffffff" stroke="#000000" points="123,-.5 123,-19.5 161,-19.5 161,-.5 123,-.5"/>
<text text-anchor="middle" x="142" y="-7.5" font-family="Helvetica,sans-Serif" font-size="10.00" fill="#000000">copy</text>
</a>
</g>
</g>
<!-- Node0&#45;&gt;Node19 -->
<g id="edge20" class="edge">
<title>Node0&#45;&gt;Node19</title>
<path fill="none" stroke="#191970" d="M34.9675,-114.3028C44.0977,-95.4491 66.6255,-53.5523 97,-29 101.8165,-25.1067 107.5472,-21.8885 113.2785,-19.277"/>
<polygon fill="#191970" stroke="#191970" points="114.8038,-22.4356 122.7632,-15.4428 112.1803,-15.9458 114.8038,-22.4356"/>
</g>
<!-- Node2 -->
<g id="node3" class="node">
<title>Node2</title>
<g id="a_node3"><a xlink:href="group__postpro.html#gad24367e4a843f60b63a2205aef1ba551" target="_top" xlink:title="Uses mxm() to compute gradient of 3D arrays. ">
<polygon fill="#ffffff" stroke="#000000" points="230,-266.5 230,-285.5 296,-285.5 296,-266.5 230,-266.5"/>
<text text-anchor="middle" x="263" y="-273.5" font-family="Helvetica,sans-Serif" font-size="10.00" fill="#000000">local_grad3</text>
</a>
</g>
</g>
<!-- Node1&#45;&gt;Node2 -->
<g id="edge2" class="edge">
<title>Node1&#45;&gt;Node2</title>
<path fill="none" stroke="#191970" d="M172.5334,-247.589C187.7234,-252.3594 206.2853,-258.1888 222.6334,-263.3229"/>
<polygon fill="#191970" stroke="#191970" points="221.8871,-266.757 232.4764,-266.4141 223.9845,-260.0786 221.8871,-266.757"/>
</g>
<!-- Node10 -->
<g id="node11" class="node">
<title>Node10</title>
<g id="a_node11"><a xlink:href="byte_8c.html#a2da8eeb074dfd3ffbfb3e9a4d301cda4" target="_top" xlink:title="exitt">
<polygon fill="#ffffff" stroke="#000000" points="245.5,-228.5 245.5,-247.5 280.5,-247.5 280.5,-228.5 245.5,-228.5"/>
<text text-anchor="middle" x="263" y="-235.5" font-family="Helvetica,sans-Serif" font-size="10.00" fill="#000000">exitt</text>
</a>
</g>
</g>
<!-- Node1&#45;&gt;Node10 -->
<g id="edge10" class="edge">
<title>Node1&#45;&gt;Node10</title>
<path fill="none" stroke="#191970" d="M172.5334,-238C191.7293,-238 216.31,-238 235.0029,-238"/>
<polygon fill="#191970" stroke="#191970" points="235.2436,-241.5001 245.2435,-238 235.2435,-234.5001 235.2436,-241.5001"/>
</g>
<!-- Node11 -->
<g id="node12" class="node">
<title>Node11</title>
<g id="a_node12"><a xlink:href="group__postpro.html#ga53feb767cebebba399ab3c5a50f53155" target="_top" xlink:title="Uses mxm() to compute gradient of 2D arrays. ">
<polygon fill="#ffffff" stroke="#000000" points="230,-190.5 230,-209.5 296,-209.5 296,-190.5 230,-190.5"/>
<text text-anchor="middle" x="263" y="-197.5" font-family="Helvetica,sans-Serif" font-size="10.00" fill="#000000">local_grad2</text>
</a>
</g>
</g>
<!-- Node1&#45;&gt;Node11 -->
<g id="edge11" class="edge">
<title>Node1&#45;&gt;Node11</title>
<path fill="none" stroke="#191970" d="M172.5334,-228.411C187.7234,-223.6406 206.2853,-217.8112 222.6334,-212.6771"/>
<polygon fill="#191970" stroke="#191970" points="223.9845,-215.9214 232.4764,-209.5859 221.8871,-209.243 223.9845,-215.9214"/>
</g>
<!-- Node3 -->
<g id="node4" class="node">
<title>Node3</title>
<g id="a_node4"><a xlink:href="group__postpro.html#gab9ec2260a10061af6ce1c52f3c8a41da" target="_top" xlink:title="Compute matrix&#45;matrix product C = A*B for contiguously packed matrices A,B, and C. ">
<polygon fill="#ffffff" stroke="#000000" points="339,-228.5 339,-247.5 377,-247.5 377,-228.5 339,-228.5"/>
<text text-anchor="middle" x="358" y="-235.5" font-family="Helvetica,sans-Serif" font-size="10.00" fill="#000000">mxm</text>
</a>
</g>
</g>
<!-- Node2&#45;&gt;Node3 -->
<g id="edge3" class="edge">
<title>Node2&#45;&gt;Node3</title>
<path fill="none" stroke="#191970" d="M286.9725,-266.411C299.888,-261.2448 315.9082,-254.8367 329.4633,-249.4147"/>
<polygon fill="#191970" stroke="#191970" points="330.8333,-252.6364 338.8182,-245.6727 328.2336,-246.137 330.8333,-252.6364"/>
</g>
<!-- Node4 -->
<g id="node5" class="node">
<title>Node4</title>
<g id="a_node5"><a xlink:href="comm__mpi_8f.html#af06ec29f06aac3f8809e19de2a7e8946" target="_top" xlink:title="dnekclock">
<polygon fill="#ffffff" stroke="#000000" points="420,-323.5 420,-342.5 481,-342.5 481,-323.5 420,-323.5"/>
<text text-anchor="middle" x="450.5" y="-330.5" font-family="Helvetica,sans-Serif" font-size="10.00" fill="#000000">dnekclock</text>
</a>
</g>
</g>
<!-- Node3&#45;&gt;Node4 -->
<g id="edge4" class="edge">
<title>Node3&#45;&gt;Node4</title>
<path fill="none" stroke="#191970" d="M362.92,-247.5276C371.3661,-263.1232 389.9603,-294.3302 413,-314 414.7138,-315.4631 416.5596,-316.8497 418.4808,-318.1569"/>
<polygon fill="#191970" stroke="#191970" points="416.8296,-321.2474 427.2095,-323.371 420.4194,-315.238 416.8296,-321.2474"/>
</g>
<!-- Node5 -->
<g id="node6" class="node">
<title>Node5</title>
<g id="a_node6"><a xlink:href="mxm__bgq_8f.html#a8faaef428336095704ece51624bbfe92" target="_top" xlink:title="mxm_bgq_8">
<polygon fill="#ffffff" stroke="#000000" points="415.5,-285.5 415.5,-304.5 485.5,-304.5 485.5,-285.5 415.5,-285.5"/>
<text text-anchor="middle" x="450.5" y="-292.5" font-family="Helvetica,sans-Serif" font-size="10.00" fill="#000000">mxm_bgq_8</text>
</a>
</g>
</g>
<!-- Node3&#45;&gt;Node5 -->
<g id="edge5" class="edge">
<title>Node3&#45;&gt;Node5</title>
<path fill="none" stroke="#191970" d="M370.7851,-247.5709C381.728,-255.5813 398.0394,-267.0975 413,-276 415.6734,-277.5909 418.4962,-279.1787 421.3445,-280.7204"/>
<polygon fill="#191970" stroke="#191970" points="419.8933,-283.911 430.3779,-285.4352 423.1322,-277.7054 419.8933,-283.911"/>
</g>
<!-- Node6 -->
<g id="node7" class="node">
<title>Node6</title>
<g id="a_node7"><a xlink:href="mxm__bgq_8f.html#a3fda9ea4bc7a5713a19d6939fa2b541f" target="_top" xlink:title="mxm_bgq_16">
<polygon fill="#ffffff" stroke="#000000" points="413,-247.5 413,-266.5 488,-266.5 488,-247.5 413,-247.5"/>
<text text-anchor="middle" x="450.5" y="-254.5" font-family="Helvetica,sans-Serif" font-size="10.00" fill="#000000">mxm_bgq_16</text>
</a>
</g>
</g>
<!-- Node3&#45;&gt;Node6 -->
<g id="edge6" class="edge">
<title>Node3&#45;&gt;Node6</title>
<path fill="none" stroke="#191970" d="M377.1661,-241.9368C384.7052,-243.4854 393.7267,-245.3385 402.822,-247.2067"/>
<polygon fill="#191970" stroke="#191970" points="402.1539,-250.6424 412.6536,-249.2261 403.5624,-243.7856 402.1539,-250.6424"/>
</g>
<!-- Node7 -->
<g id="node8" class="node">
<title>Node7</title>
<g id="a_node8"><a xlink:href="mxm__bgq_8f.html#a8a70163b4dbfdbfcce7bff170597fcad" target="_top" xlink:title="mxm_bgq_10">
<polygon fill="#ffffff" stroke="#000000" points="413,-209.5 413,-228.5 488,-228.5 488,-209.5 413,-209.5"/>
<text text-anchor="middle" x="450.5" y="-216.5" font-family="Helvetica,sans-Serif" font-size="10.00" fill="#000000">mxm_bgq_10</text>
</a>
</g>
</g>
<!-- Node3&#45;&gt;Node7 -->
<g id="edge7" class="edge">
<title>Node3&#45;&gt;Node7</title>
<path fill="none" stroke="#191970" d="M377.1661,-234.0632C384.7052,-232.5146 393.7267,-230.6615 402.822,-228.7933"/>
<polygon fill="#191970" stroke="#191970" points="403.5624,-232.2144 412.6536,-226.7739 402.1539,-225.3576 403.5624,-232.2144"/>
</g>
<!-- Node8 -->
<g id="node9" class="node">
<title>Node8</title>
<g id="a_node9"><a xlink:href="mxm__bgq_8f.html#af192c3c8b982aa5bbc2a757156718a91" target="_top" xlink:title="mxm_bgq_6">
<polygon fill="#ffffff" stroke="#000000" points="415.5,-171.5 415.5,-190.5 485.5,-190.5 485.5,-171.5 415.5,-171.5"/>
<text text-anchor="middle" x="450.5" y="-178.5" font-family="Helvetica,sans-Serif" font-size="10.00" fill="#000000">mxm_bgq_6</text>
</a>
</g>
</g>
<!-- Node3&#45;&gt;Node8 -->
<g id="edge8" class="edge">
<title>Node3&#45;&gt;Node8</title>
<path fill="none" stroke="#191970" d="M370.7851,-228.4291C381.728,-220.4187 398.0394,-208.9025 413,-200 415.6734,-198.4091 418.4962,-196.8213 421.3445,-195.2796"/>
<polygon fill="#191970" stroke="#191970" points="423.1322,-198.2946 430.3779,-190.5648 419.8933,-192.089 423.1322,-198.2946"/>
</g>
<!-- Node9 -->
<g id="node10" class="node">
<title>Node9</title>
<g id="a_node10"><a xlink:href="mxm__std_8f.html#aa9e8685c4a72f18fb5d1ee88ed17a3d6" target="_top" xlink:title="mxmf2">
<polygon fill="#ffffff" stroke="#000000" points="427,-133.5 427,-152.5 474,-152.5 474,-133.5 427,-133.5"/>
<text text-anchor="middle" x="450.5" y="-140.5" font-family="Helvetica,sans-Serif" font-size="10.00" fill="#000000">mxmf2</text>
</a>
</g>
</g>
<!-- Node3&#45;&gt;Node9 -->
<g id="edge9" class="edge">
<title>Node3&#45;&gt;Node9</title>
<path fill="none" stroke="#191970" d="M362.92,-228.4724C371.3661,-212.8768 389.9603,-181.6698 413,-162 414.7138,-160.5369 416.5596,-159.1503 418.4808,-157.8431"/>
<polygon fill="#191970" stroke="#191970" points="420.4194,-160.762 427.2095,-152.629 416.8296,-154.7526 420.4194,-160.762"/>
</g>
<!-- Node11&#45;&gt;Node3 -->
<g id="edge12" class="edge">
<title>Node11&#45;&gt;Node3</title>
<path fill="none" stroke="#191970" d="M286.9725,-209.589C299.888,-214.7552 315.9082,-221.1633 329.4633,-226.5853"/>
<polygon fill="#191970" stroke="#191970" points="328.2336,-229.863 338.8182,-230.3273 330.8333,-223.3636 328.2336,-229.863"/>
</g>
<!-- Node17 -->
<g id="node18" class="node">
<title>Node17</title>
<g id="a_node18"><a xlink:href="dssum_8f.html#a93169b7e53973103de1372a81375375a" target="_top" xlink:title="gtpp_gs_setup">
<polygon fill="#ffffff" stroke="#000000" points="223,-57.5 223,-76.5 303,-76.5 303,-57.5 223,-57.5"/>
<text text-anchor="middle" x="263" y="-64.5" font-family="Helvetica,sans-Serif" font-size="10.00" fill="#000000">gtpp_gs_setup</text>
</a>
</g>
</g>
<!-- Node16&#45;&gt;Node17 -->
<g id="edge18" class="edge">
<title>Node16&#45;&gt;Node17</title>
<path fill="none" stroke="#191970" d="M187.0559,-55.0749C195.3677,-56.3801 204.0963,-57.7507 212.5551,-59.0789"/>
<polygon fill="#191970" stroke="#191970" points="212.2711,-62.5771 222.693,-60.6708 213.357,-55.6618 212.2711,-62.5771"/>
</g>
<!-- Node18 -->
<g id="node19" class="node">
<title>Node18</title>
<g id="a_node19"><a xlink:href="navier5_8f.html#a43c9d798cb7be60e09268f4176c0d13f" target="_top" xlink:title="planar_avg">
<polygon fill="#ffffff" stroke="#000000" points="231,-19.5 231,-38.5 295,-38.5 295,-19.5 231,-19.5"/>
<text text-anchor="middle" x="263" y="-26.5" font-family="Helvetica,sans-Serif" font-size="10.00" fill="#000000">planar_avg</text>
</a>
</g>
</g>
<!-- Node16&#45;&gt;Node18 -->
<g id="edge19" class="edge">
<title>Node16&#45;&gt;Node18</title>
<path fill="none" stroke="#191970" d="M187.0559,-40.9251C198.0543,-39.1981 209.7825,-37.3565 220.6497,-35.65"/>
<polygon fill="#191970" stroke="#191970" points="221.417,-39.0725 230.753,-34.0636 220.3311,-32.1573 221.417,-39.0725"/>
</g>
</g>
</svg>
