<?xml version="1.0" encoding="UTF-8" standalone="no"?>
<!DOCTYPE svg PUBLIC "-//W3C//DTD SVG 1.1//EN"
 "http://www.w3.org/Graphics/SVG/1.1/DTD/svg11.dtd">
<!-- Generated by graphviz version 2.43.0 (0)
 -->
<!-- Title: eddy_visc Pages: 1 -->
<svg width="501pt" height="218pt"
 viewBox="0.00 0.00 501.00 218.00" xmlns="http://www.w3.org/2000/svg" xmlns:xlink="http://www.w3.org/1999/xlink">
<g id="graph0" class="graph" transform="scale(1 1) rotate(0) translate(4 214)">
<title>eddy_visc</title>
<polygon fill="white" stroke="transparent" points="-4,4 -4,-214 497,-214 497,4 -4,4"/>
<!-- Node1 -->
<g id="node1" class="node">
<title>Node1</title>
<g id="a_node1"><a xlink:title="Compute eddy viscosity using constant smagorinsky model.">
<polygon fill="#bfbfbf" stroke="black" points="0,-76.5 0,-95.5 65,-95.5 65,-76.5 0,-76.5"/>
<text text-anchor="middle" x="32.5" y="-83.5" font-family="Helvetica,sans-Serif" font-size="10.00">eddy_visc</text>
</a>
</g>
</g>
<!-- Node2 -->
<g id="node2" class="node">
<title>Node2</title>
<g id="a_node2"><a xlink:href="math_8f.html#ad2b51b68d370651f4f6d81952503e7be" target="_top" xlink:title=" ">
<polygon fill="white" stroke="black" points="122,-152.5 122,-171.5 166,-171.5 166,-152.5 122,-152.5"/>
<text text-anchor="middle" x="144" y="-159.5" font-family="Helvetica,sans-Serif" font-size="10.00">cmult</text>
</a>
</g>
</g>
<!-- Node1&#45;&gt;Node2 -->
<g id="edge1" class="edge">
<title>Node1&#45;&gt;Node2</title>
<path fill="none" stroke="midnightblue" d="M43.33,-95.84C55.89,-108.03 78.69,-128.92 101,-143 104.65,-145.31 108.64,-147.49 112.64,-149.49"/>
<polygon fill="midnightblue" stroke="midnightblue" points="111.36,-152.75 121.9,-153.82 114.33,-146.41 111.36,-152.75"/>
</g>
<!-- Node3 -->
<g id="node3" class="node">
<title>Node3</title>
<g id="a_node3"><a xlink:href="group__postpro.html#ga2282f2912315313d8c35cfd37389c7f3" target="_top" xlink:title="Compute the gradient tensor G_ij := du_i/du_j, for element e.">
<polygon fill="white" stroke="black" points="110.5,-114.5 110.5,-133.5 177.5,-133.5 177.5,-114.5 110.5,-114.5"/>
<text text-anchor="middle" x="144" y="-121.5" font-family="Helvetica,sans-Serif" font-size="10.00">comp_gije</text>
</a>
</g>
</g>
<!-- Node1&#45;&gt;Node3 -->
<g id="edge2" class="edge">
<title>Node1&#45;&gt;Node3</title>
<path fill="none" stroke="midnightblue" d="M61.13,-95.59C74.62,-100.27 91.04,-105.97 105.63,-111.03"/>
<polygon fill="midnightblue" stroke="midnightblue" points="104.78,-114.44 115.38,-114.41 107.08,-107.83 104.78,-114.44"/>
</g>
<!-- Node14 -->
<g id="node14" class="node">
<title>Node14</title>
<g id="a_node14"><a xlink:href="group__postpro.html#gab683ff84116ad23a19188953209855d0" target="_top" xlink:title="Compute symmetric part of a tensor gije for element. Does not call any other subroutine,...">
<polygon fill="white" stroke="black" points="111,-76.5 111,-95.5 177,-95.5 177,-76.5 111,-76.5"/>
<text text-anchor="middle" x="144" y="-83.5" font-family="Helvetica,sans-Serif" font-size="10.00">comp_sije</text>
</a>
</g>
</g>
<!-- Node1&#45;&gt;Node14 -->
<g id="edge14" class="edge">
<title>Node1&#45;&gt;Node14</title>
<path fill="none" stroke="midnightblue" d="M65.17,-86C76.21,-86 88.79,-86 100.56,-86"/>
<polygon fill="midnightblue" stroke="midnightblue" points="100.64,-89.5 110.64,-86 100.64,-82.5 100.64,-89.5"/>
</g>
<!-- Node15 -->
<g id="node15" class="node">
<title>Node15</title>
<g id="a_node15"><a xlink:href="utils_8f.html#a75d89f87799764b6cb777d9ce36c19b7" target="_top" xlink:title="Adjust gradient at the boundary using the MOST relation.">
<polygon fill="white" stroke="black" points="107,-38.5 107,-57.5 181,-57.5 181,-38.5 107,-38.5"/>
<text text-anchor="middle" x="144" y="-45.5" font-family="Helvetica,sans-Serif" font-size="10.00">gij_from_bc</text>
</a>
</g>
</g>
<!-- Node1&#45;&gt;Node15 -->
<g id="edge15" class="edge">
<title>Node1&#45;&gt;Node15</title>
<path fill="none" stroke="midnightblue" d="M61.13,-76.41C74.62,-71.73 91.04,-66.03 105.63,-60.97"/>
<polygon fill="midnightblue" stroke="midnightblue" points="107.08,-64.17 115.38,-57.59 104.78,-57.56 107.08,-64.17"/>
</g>
<!-- Node16 -->
<g id="node16" class="node">
<title>Node16</title>
<g id="a_node16"><a xlink:href="postpro_8f.html#af9d2aff92c48c37b10261e543b5f18fb" target="_top" xlink:title=" ">
<polygon fill="white" stroke="black" points="101,-0.5 101,-19.5 187,-19.5 187,-0.5 101,-0.5"/>
<text text-anchor="middle" x="144" y="-7.5" font-family="Helvetica,sans-Serif" font-size="10.00">mag_tensor_e</text>
</a>
</g>
</g>
<!-- Node1&#45;&gt;Node16 -->
<g id="edge16" class="edge">
<title>Node1&#45;&gt;Node16</title>
<path fill="none" stroke="midnightblue" d="M43.33,-76.16C55.89,-63.97 78.69,-43.08 101,-29 103.77,-27.25 106.74,-25.57 109.76,-23.99"/>
<polygon fill="midnightblue" stroke="midnightblue" points="111.41,-27.08 118.86,-19.55 108.34,-20.79 111.41,-27.08"/>
</g>
<!-- Node4 -->
<g id="node4" class="node">
<title>Node4</title>
<g id="a_node4"><a xlink:href="byte_8c.html#a2da8eeb074dfd3ffbfb3e9a4d301cda4" target="_top" xlink:title=" ">
<polygon fill="white" stroke="black" points="240,-152.5 240,-171.5 279,-171.5 279,-152.5 240,-152.5"/>
<text text-anchor="middle" x="259.5" y="-159.5" font-family="Helvetica,sans-Serif" font-size="10.00">exitt</text>
</a>
</g>
</g>
<!-- Node3&#45;&gt;Node4 -->
<g id="edge3" class="edge">
<title>Node3&#45;&gt;Node4</title>
<path fill="none" stroke="midnightblue" d="M173.64,-133.59C190.99,-139.4 213.02,-146.77 230.29,-152.56"/>
<polygon fill="midnightblue" stroke="midnightblue" points="229.24,-155.9 239.84,-155.75 231.47,-149.26 229.24,-155.9"/>
</g>
<!-- Node5 -->
<g id="node5" class="node">
<title>Node5</title>
<g id="a_node5"><a xlink:href="group__postpro.html#ga53feb767cebebba399ab3c5a50f53155" target="_top" xlink:title="Uses mxm() to compute gradient of 2D arrays.">
<polygon fill="white" stroke="black" points="223,-114.5 223,-133.5 296,-133.5 296,-114.5 223,-114.5"/>
<text text-anchor="middle" x="259.5" y="-121.5" font-family="Helvetica,sans-Serif" font-size="10.00">local_grad2</text>
</a>
</g>
</g>
<!-- Node3&#45;&gt;Node5 -->
<g id="edge4" class="edge">
<title>Node3&#45;&gt;Node5</title>
<path fill="none" stroke="midnightblue" d="M177.52,-124C188.47,-124 200.89,-124 212.66,-124"/>
<polygon fill="midnightblue" stroke="midnightblue" points="212.79,-127.5 222.79,-124 212.79,-120.5 212.79,-127.5"/>
</g>
<!-- Node13 -->
<g id="node13" class="node">
<title>Node13</title>
<g id="a_node13"><a xlink:href="group__postpro.html#gad24367e4a843f60b63a2205aef1ba551" target="_top" xlink:title="Uses mxm() to compute gradient of 3D arrays.">
<polygon fill="white" stroke="black" points="223,-76.5 223,-95.5 296,-95.5 296,-76.5 223,-76.5"/>
<text text-anchor="middle" x="259.5" y="-83.5" font-family="Helvetica,sans-Serif" font-size="10.00">local_grad3</text>
</a>
</g>
</g>
<!-- Node3&#45;&gt;Node13 -->
<g id="edge12" class="edge">
<title>Node3&#45;&gt;Node13</title>
<path fill="none" stroke="midnightblue" d="M173.64,-114.41C187.75,-109.69 204.97,-103.92 220.2,-98.82"/>
<polygon fill="midnightblue" stroke="midnightblue" points="221.5,-102.08 229.87,-95.59 219.27,-95.44 221.5,-102.08"/>
</g>
<!-- Node6 -->
<g id="node6" class="node">
<title>Node6</title>
<g id="a_node6"><a xlink:href="group__postpro.html#gab9ec2260a10061af6ce1c52f3c8a41da" target="_top" xlink:title="Compute matrix&#45;matrix product C = A*B for contiguously packed matrices A,B, and C.">
<polygon fill="white" stroke="black" points="332,-95.5 332,-114.5 374,-114.5 374,-95.5 332,-95.5"/>
<text text-anchor="middle" x="353" y="-102.5" font-family="Helvetica,sans-Serif" font-size="10.00">mxm</text>
</a>
</g>
</g>
<!-- Node5&#45;&gt;Node6 -->
<g id="edge5" class="edge">
<title>Node5&#45;&gt;Node6</title>
<path fill="none" stroke="midnightblue" d="M296.14,-116.6C304.68,-114.83 313.71,-112.95 321.97,-111.24"/>
<polygon fill="midnightblue" stroke="midnightblue" points="322.83,-114.63 331.91,-109.17 321.41,-107.78 322.83,-114.63"/>
</g>
<!-- Node7 -->
<g id="node7" class="node">
<title>Node7</title>
<g id="a_node7"><a xlink:href="comm__mpi_8f.html#af06ec29f06aac3f8809e19de2a7e8946" target="_top" xlink:title=" ">
<polygon fill="white" stroke="black" points="418.5,-190.5 418.5,-209.5 484.5,-209.5 484.5,-190.5 418.5,-190.5"/>
<text text-anchor="middle" x="451.5" y="-197.5" font-family="Helvetica,sans-Serif" font-size="10.00">dnekclock</text>
</a>
</g>
</g>
<!-- Node6&#45;&gt;Node7 -->
<g id="edge6" class="edge">
<title>Node6&#45;&gt;Node7</title>
<path fill="none" stroke="midnightblue" d="M358.99,-114.6C367.55,-130.3 386.43,-161.66 410,-181 411.8,-182.48 413.74,-183.88 415.76,-185.19"/>
<polygon fill="midnightblue" stroke="midnightblue" points="414.51,-188.5 424.93,-190.37 417.95,-182.4 414.51,-188.5"/>
</g>
<!-- Node8 -->
<g id="node8" class="node">
<title>Node8</title>
<g id="a_node8"><a xlink:href="mxm__bgq_8f.html#a8a70163b4dbfdbfcce7bff170597fcad" target="_top" xlink:title=" ">
<polygon fill="white" stroke="black" points="410,-152.5 410,-171.5 493,-171.5 493,-152.5 410,-152.5"/>
<text text-anchor="middle" x="451.5" y="-159.5" font-family="Helvetica,sans-Serif" font-size="10.00">mxm_bgq_10</text>
</a>
</g>
</g>
<!-- Node6&#45;&gt;Node8 -->
<g id="edge7" class="edge">
<title>Node6&#45;&gt;Node8</title>
<path fill="none" stroke="midnightblue" d="M366.97,-114.67C378.09,-122.73 394.68,-134.28 410,-143 412.9,-144.65 415.97,-146.28 419.07,-147.86"/>
<polygon fill="midnightblue" stroke="midnightblue" points="417.8,-151.13 428.32,-152.36 420.86,-144.84 417.8,-151.13"/>
</g>
<!-- Node9 -->
<g id="node9" class="node">
<title>Node9</title>
<g id="a_node9"><a xlink:href="mxm__bgq_8f.html#a3fda9ea4bc7a5713a19d6939fa2b541f" target="_top" xlink:title=" ">
<polygon fill="white" stroke="black" points="410,-114.5 410,-133.5 493,-133.5 493,-114.5 410,-114.5"/>
<text text-anchor="middle" x="451.5" y="-121.5" font-family="Helvetica,sans-Serif" font-size="10.00">mxm_bgq_16</text>
</a>
</g>
</g>
<!-- Node6&#45;&gt;Node9 -->
<g id="edge8" class="edge">
<title>Node6&#45;&gt;Node9</title>
<path fill="none" stroke="midnightblue" d="M374.47,-109.03C381.94,-110.5 390.77,-112.24 399.71,-114"/>
<polygon fill="midnightblue" stroke="midnightblue" points="399.31,-117.49 409.79,-115.99 400.66,-110.62 399.31,-117.49"/>
</g>
<!-- Node10 -->
<g id="node10" class="node">
<title>Node10</title>
<g id="a_node10"><a xlink:href="mxm__bgq_8f.html#af192c3c8b982aa5bbc2a757156718a91" target="_top" xlink:title=" ">
<polygon fill="white" stroke="black" points="413,-76.5 413,-95.5 490,-95.5 490,-76.5 413,-76.5"/>
<text text-anchor="middle" x="451.5" y="-83.5" font-family="Helvetica,sans-Serif" font-size="10.00">mxm_bgq_6</text>
</a>
</g>
</g>
<!-- Node6&#45;&gt;Node10 -->
<g id="edge9" class="edge">
<title>Node6&#45;&gt;Node10</title>
<path fill="none" stroke="midnightblue" d="M374.47,-100.97C382.85,-99.32 392.93,-97.34 402.96,-95.36"/>
<polygon fill="midnightblue" stroke="midnightblue" points="403.79,-98.76 412.92,-93.4 402.44,-91.9 403.79,-98.76"/>
</g>
<!-- Node11 -->
<g id="node11" class="node">
<title>Node11</title>
<g id="a_node11"><a xlink:href="mxm__bgq_8f.html#a8faaef428336095704ece51624bbfe92" target="_top" xlink:title=" ">
<polygon fill="white" stroke="black" points="413,-38.5 413,-57.5 490,-57.5 490,-38.5 413,-38.5"/>
<text text-anchor="middle" x="451.5" y="-45.5" font-family="Helvetica,sans-Serif" font-size="10.00">mxm_bgq_8</text>
</a>
</g>
</g>
<!-- Node6&#45;&gt;Node11 -->
<g id="edge10" class="edge">
<title>Node6&#45;&gt;Node11</title>
<path fill="none" stroke="midnightblue" d="M366.97,-95.33C378.09,-87.27 394.68,-75.72 410,-67 412.9,-65.35 415.97,-63.72 419.07,-62.14"/>
<polygon fill="midnightblue" stroke="midnightblue" points="420.86,-65.16 428.32,-57.64 417.8,-58.87 420.86,-65.16"/>
</g>
<!-- Node12 -->
<g id="node12" class="node">
<title>Node12</title>
<g id="a_node12"><a xlink:href="mxm__std_8f.html#aa9e8685c4a72f18fb5d1ee88ed17a3d6" target="_top" xlink:title=" ">
<polygon fill="white" stroke="black" points="425.5,-0.5 425.5,-19.5 477.5,-19.5 477.5,-0.5 425.5,-0.5"/>
<text text-anchor="middle" x="451.5" y="-7.5" font-family="Helvetica,sans-Serif" font-size="10.00">mxmf2</text>
</a>
</g>
</g>
<!-- Node6&#45;&gt;Node12 -->
<g id="edge11" class="edge">
<title>Node6&#45;&gt;Node12</title>
<path fill="none" stroke="midnightblue" d="M358.99,-95.4C367.55,-79.7 386.43,-48.34 410,-29 412,-27.36 414.16,-25.83 416.41,-24.4"/>
<polygon fill="midnightblue" stroke="midnightblue" points="418.32,-27.34 425.36,-19.42 414.92,-21.22 418.32,-27.34"/>
</g>
<!-- Node13&#45;&gt;Node6 -->
<g id="edge13" class="edge">
<title>Node13&#45;&gt;Node6</title>
<path fill="none" stroke="midnightblue" d="M296.14,-93.4C304.68,-95.17 313.71,-97.05 321.97,-98.76"/>
<polygon fill="midnightblue" stroke="midnightblue" points="321.41,-102.22 331.91,-100.83 322.83,-95.37 321.41,-102.22"/>
</g>
</g>
</svg>
