<?xml version="1.0" encoding="UTF-8" standalone="no"?>
<!DOCTYPE svg PUBLIC "-//W3C//DTD SVG 1.1//EN"
 "http://www.w3.org/Graphics/SVG/1.1/DTD/svg11.dtd">
<!-- Generated by graphviz version 2.40.1 (20161225.0304)
 -->
<!-- Title: eddy_visc Pages: 1 -->
<svg width="470pt" height="275pt"
 viewBox="0.00 0.00 470.00 275.00" xmlns="http://www.w3.org/2000/svg" xmlns:xlink="http://www.w3.org/1999/xlink">
<g id="graph0" class="graph" transform="scale(1 1) rotate(0) translate(4 271)">
<title>eddy_visc</title>
<polygon fill="#ffffff" stroke="transparent" points="-4,4 -4,-271 466,-271 466,4 -4,4"/>
<!-- Node0 -->
<g id="node1" class="node">
<title>Node0</title>
<polygon fill="#bfbfbf" stroke="#000000" points="0,-76.5 0,-95.5 61,-95.5 61,-76.5 0,-76.5"/>
<text text-anchor="middle" x="30.5" y="-83.5" font-family="Helvetica,sans-Serif" font-size="10.00" fill="#000000">eddy_visc</text>
</g>
<!-- Node1 -->
<g id="node2" class="node">
<title>Node1</title>
<g id="a_node2"><a xlink:href="group__postpro.html#ga2282f2912315313d8c35cfd37389c7f3" target="_top" xlink:title="Compute the gradient tensor G_ij := du_i/du_j, for element e. ">
<polygon fill="#ffffff" stroke="#000000" points="105.5,-152.5 105.5,-171.5 166.5,-171.5 166.5,-152.5 105.5,-152.5"/>
<text text-anchor="middle" x="136" y="-159.5" font-family="Helvetica,sans-Serif" font-size="10.00" fill="#000000">comp_gije</text>
</a>
</g>
</g>
<!-- Node0&#45;&gt;Node1 -->
<g id="edge1" class="edge">
<title>Node0&#45;&gt;Node1</title>
<path fill="none" stroke="#191970" d="M40.2191,-95.747C52.6334,-107.8491 75.1372,-128.6455 97,-143 99.5616,-144.6819 102.2941,-146.3091 105.0785,-147.8565"/>
<polygon fill="#191970" stroke="#191970" points="103.5163,-150.9891 114.0033,-152.4969 106.7455,-144.7784 103.5163,-150.9891"/>
</g>
<!-- Node12 -->
<g id="node13" class="node">
<title>Node12</title>
<g id="a_node13"><a xlink:href="utils_8f.html#a75d89f87799764b6cb777d9ce36c19b7" target="_top" xlink:title="Adjust gradient at the boundary using the MOST relation. ">
<polygon fill="#ffffff" stroke="#000000" points="102.5,-114.5 102.5,-133.5 169.5,-133.5 169.5,-114.5 102.5,-114.5"/>
<text text-anchor="middle" x="136" y="-121.5" font-family="Helvetica,sans-Serif" font-size="10.00" fill="#000000">gij_from_bc</text>
</a>
</g>
</g>
<!-- Node0&#45;&gt;Node12 -->
<g id="edge13" class="edge">
<title>Node0&#45;&gt;Node12</title>
<path fill="none" stroke="#191970" d="M57.1221,-95.589C69.9915,-100.2244 85.6367,-105.8596 99.5895,-110.8853"/>
<polygon fill="#191970" stroke="#191970" points="98.792,-114.3181 109.3864,-114.4141 101.1642,-107.7323 98.792,-114.3181"/>
</g>
<!-- Node13 -->
<g id="node14" class="node">
<title>Node13</title>
<g id="a_node14"><a xlink:href="group__postpro.html#gab683ff84116ad23a19188953209855d0" target="_top" xlink:title="Compute symmetric part of a tensor gije for element. Does not call any other subroutine, but simply evaluates: &#160;. ">
<polygon fill="#ffffff" stroke="#000000" points="105.5,-76.5 105.5,-95.5 166.5,-95.5 166.5,-76.5 105.5,-76.5"/>
<text text-anchor="middle" x="136" y="-83.5" font-family="Helvetica,sans-Serif" font-size="10.00" fill="#000000">comp_sije</text>
</a>
</g>
</g>
<!-- Node0&#45;&gt;Node13 -->
<g id="edge14" class="edge">
<title>Node0&#45;&gt;Node13</title>
<path fill="none" stroke="#191970" d="M61.015,-86C71.6381,-86 83.7339,-86 95.0633,-86"/>
<polygon fill="#191970" stroke="#191970" points="95.1881,-89.5001 105.1881,-86 95.1881,-82.5001 95.1881,-89.5001"/>
</g>
<!-- Node14 -->
<g id="node15" class="node">
<title>Node14</title>
<g id="a_node15"><a xlink:href="postpro_8f.html#af9d2aff92c48c37b10261e543b5f18fb" target="_top" xlink:title="mag_tensor_e">
<polygon fill="#ffffff" stroke="#000000" points="97,-38.5 97,-57.5 175,-57.5 175,-38.5 97,-38.5"/>
<text text-anchor="middle" x="136" y="-45.5" font-family="Helvetica,sans-Serif" font-size="10.00" fill="#000000">mag_tensor_e</text>
</a>
</g>
</g>
<!-- Node0&#45;&gt;Node14 -->
<g id="edge15" class="edge">
<title>Node0&#45;&gt;Node14</title>
<path fill="none" stroke="#191970" d="M57.1221,-76.411C69.9915,-71.7756 85.6367,-66.1404 99.5895,-61.1147"/>
<polygon fill="#191970" stroke="#191970" points="101.1642,-64.2677 109.3864,-57.5859 98.792,-57.6819 101.1642,-64.2677"/>
</g>
<!-- Node15 -->
<g id="node16" class="node">
<title>Node15</title>
<g id="a_node16"><a xlink:href="math_8f.html#ad2b51b68d370651f4f6d81952503e7be" target="_top" xlink:title="cmult">
<polygon fill="#ffffff" stroke="#000000" points="115.5,-.5 115.5,-19.5 156.5,-19.5 156.5,-.5 115.5,-.5"/>
<text text-anchor="middle" x="136" y="-7.5" font-family="Helvetica,sans-Serif" font-size="10.00" fill="#000000">cmult</text>
</a>
</g>
</g>
<!-- Node0&#45;&gt;Node15 -->
<g id="edge16" class="edge">
<title>Node0&#45;&gt;Node15</title>
<path fill="none" stroke="#191970" d="M40.2191,-76.253C52.6334,-64.1509 75.1372,-43.3545 97,-29 99.9217,-27.0817 103.0656,-25.2345 106.2553,-23.4958"/>
<polygon fill="#191970" stroke="#191970" points="107.9082,-26.5817 115.219,-18.9133 104.7219,-20.3489 107.9082,-26.5817"/>
</g>
<!-- Node2 -->
<g id="node3" class="node">
<title>Node2</title>
<g id="a_node3"><a xlink:href="group__postpro.html#gad24367e4a843f60b63a2205aef1ba551" target="_top" xlink:title="Uses mxm() to compute gradient of 3D arrays. ">
<polygon fill="#ffffff" stroke="#000000" points="211,-190.5 211,-209.5 277,-209.5 277,-190.5 211,-190.5"/>
<text text-anchor="middle" x="244" y="-197.5" font-family="Helvetica,sans-Serif" font-size="10.00" fill="#000000">local_grad3</text>
</a>
</g>
</g>
<!-- Node1&#45;&gt;Node2 -->
<g id="edge2" class="edge">
<title>Node1&#45;&gt;Node2</title>
<path fill="none" stroke="#191970" d="M163.253,-171.589C176.5552,-176.2694 192.7545,-181.9692 207.1423,-187.0315"/>
<polygon fill="#191970" stroke="#191970" points="206.1609,-190.3965 216.7558,-190.4141 208.4843,-183.7933 206.1609,-190.3965"/>
</g>
<!-- Node10 -->
<g id="node11" class="node">
<title>Node10</title>
<g id="a_node11"><a xlink:href="byte_8c.html#a2da8eeb074dfd3ffbfb3e9a4d301cda4" target="_top" xlink:title="exitt">
<polygon fill="#ffffff" stroke="#000000" points="226.5,-152.5 226.5,-171.5 261.5,-171.5 261.5,-152.5 226.5,-152.5"/>
<text text-anchor="middle" x="244" y="-159.5" font-family="Helvetica,sans-Serif" font-size="10.00" fill="#000000">exitt</text>
</a>
</g>
</g>
<!-- Node1&#45;&gt;Node10 -->
<g id="edge10" class="edge">
<title>Node1&#45;&gt;Node10</title>
<path fill="none" stroke="#191970" d="M166.6596,-162C182.2161,-162 200.9727,-162 216.1185,-162"/>
<polygon fill="#191970" stroke="#191970" points="216.4114,-165.5001 226.4113,-162 216.4113,-158.5001 216.4114,-165.5001"/>
</g>
<!-- Node11 -->
<g id="node12" class="node">
<title>Node11</title>
<g id="a_node12"><a xlink:href="group__postpro.html#ga53feb767cebebba399ab3c5a50f53155" target="_top" xlink:title="Uses mxm() to compute gradient of 2D arrays. ">
<polygon fill="#ffffff" stroke="#000000" points="211,-114.5 211,-133.5 277,-133.5 277,-114.5 211,-114.5"/>
<text text-anchor="middle" x="244" y="-121.5" font-family="Helvetica,sans-Serif" font-size="10.00" fill="#000000">local_grad2</text>
</a>
</g>
</g>
<!-- Node1&#45;&gt;Node11 -->
<g id="edge11" class="edge">
<title>Node1&#45;&gt;Node11</title>
<path fill="none" stroke="#191970" d="M163.253,-152.411C176.5552,-147.7306 192.7545,-142.0308 207.1423,-136.9685"/>
<polygon fill="#191970" stroke="#191970" points="208.4843,-140.2067 216.7558,-133.5859 206.1609,-133.6035 208.4843,-140.2067"/>
</g>
<!-- Node3 -->
<g id="node4" class="node">
<title>Node3</title>
<g id="a_node4"><a xlink:href="group__postpro.html#gab9ec2260a10061af6ce1c52f3c8a41da" target="_top" xlink:title="Compute matrix&#45;matrix product C = A*B for contiguously packed matrices A,B, and C. ">
<polygon fill="#ffffff" stroke="#000000" points="313,-152.5 313,-171.5 351,-171.5 351,-152.5 313,-152.5"/>
<text text-anchor="middle" x="332" y="-159.5" font-family="Helvetica,sans-Serif" font-size="10.00" fill="#000000">mxm</text>
</a>
</g>
</g>
<!-- Node2&#45;&gt;Node3 -->
<g id="edge3" class="edge">
<title>Node2&#45;&gt;Node3</title>
<path fill="none" stroke="#191970" d="M266.2061,-190.411C277.5358,-185.5186 291.4448,-179.5125 303.5511,-174.2848"/>
<polygon fill="#191970" stroke="#191970" points="304.9969,-177.4729 312.79,-170.2952 302.2218,-171.0464 304.9969,-177.4729"/>
</g>
<!-- Node4 -->
<g id="node5" class="node">
<title>Node4</title>
<g id="a_node5"><a xlink:href="comm__mpi_8f.html#af06ec29f06aac3f8809e19de2a7e8946" target="_top" xlink:title="dnekclock">
<polygon fill="#ffffff" stroke="#000000" points="394,-247.5 394,-266.5 455,-266.5 455,-247.5 394,-247.5"/>
<text text-anchor="middle" x="424.5" y="-254.5" font-family="Helvetica,sans-Serif" font-size="10.00" fill="#000000">dnekclock</text>
</a>
</g>
</g>
<!-- Node3&#45;&gt;Node4 -->
<g id="edge4" class="edge">
<title>Node3&#45;&gt;Node4</title>
<path fill="none" stroke="#191970" d="M336.92,-171.5276C345.3661,-187.1232 363.9603,-218.3302 387,-238 388.7138,-239.4631 390.5596,-240.8497 392.4808,-242.1569"/>
<polygon fill="#191970" stroke="#191970" points="390.8296,-245.2474 401.2095,-247.371 394.4194,-239.238 390.8296,-245.2474"/>
</g>
<!-- Node5 -->
<g id="node6" class="node">
<title>Node5</title>
<g id="a_node6"><a xlink:href="mxm__bgq_8f.html#a8faaef428336095704ece51624bbfe92" target="_top" xlink:title="mxm_bgq_8">
<polygon fill="#ffffff" stroke="#000000" points="389.5,-209.5 389.5,-228.5 459.5,-228.5 459.5,-209.5 389.5,-209.5"/>
<text text-anchor="middle" x="424.5" y="-216.5" font-family="Helvetica,sans-Serif" font-size="10.00" fill="#000000">mxm_bgq_8</text>
</a>
</g>
</g>
<!-- Node3&#45;&gt;Node5 -->
<g id="edge5" class="edge">
<title>Node3&#45;&gt;Node5</title>
<path fill="none" stroke="#191970" d="M344.7851,-171.5709C355.728,-179.5813 372.0394,-191.0975 387,-200 389.6734,-201.5909 392.4962,-203.1787 395.3445,-204.7204"/>
<polygon fill="#191970" stroke="#191970" points="393.8933,-207.911 404.3779,-209.4352 397.1322,-201.7054 393.8933,-207.911"/>
</g>
<!-- Node6 -->
<g id="node7" class="node">
<title>Node6</title>
<g id="a_node7"><a xlink:href="mxm__bgq_8f.html#a3fda9ea4bc7a5713a19d6939fa2b541f" target="_top" xlink:title="mxm_bgq_16">
<polygon fill="#ffffff" stroke="#000000" points="387,-171.5 387,-190.5 462,-190.5 462,-171.5 387,-171.5"/>
<text text-anchor="middle" x="424.5" y="-178.5" font-family="Helvetica,sans-Serif" font-size="10.00" fill="#000000">mxm_bgq_16</text>
</a>
</g>
</g>
<!-- Node3&#45;&gt;Node6 -->
<g id="edge6" class="edge">
<title>Node3&#45;&gt;Node6</title>
<path fill="none" stroke="#191970" d="M351.1661,-165.9368C358.7052,-167.4854 367.7267,-169.3385 376.822,-171.2067"/>
<polygon fill="#191970" stroke="#191970" points="376.1539,-174.6424 386.6536,-173.2261 377.5624,-167.7856 376.1539,-174.6424"/>
</g>
<!-- Node7 -->
<g id="node8" class="node">
<title>Node7</title>
<g id="a_node8"><a xlink:href="mxm__bgq_8f.html#a8a70163b4dbfdbfcce7bff170597fcad" target="_top" xlink:title="mxm_bgq_10">
<polygon fill="#ffffff" stroke="#000000" points="387,-133.5 387,-152.5 462,-152.5 462,-133.5 387,-133.5"/>
<text text-anchor="middle" x="424.5" y="-140.5" font-family="Helvetica,sans-Serif" font-size="10.00" fill="#000000">mxm_bgq_10</text>
</a>
</g>
</g>
<!-- Node3&#45;&gt;Node7 -->
<g id="edge7" class="edge">
<title>Node3&#45;&gt;Node7</title>
<path fill="none" stroke="#191970" d="M351.1661,-158.0632C358.7052,-156.5146 367.7267,-154.6615 376.822,-152.7933"/>
<polygon fill="#191970" stroke="#191970" points="377.5624,-156.2144 386.6536,-150.7739 376.1539,-149.3576 377.5624,-156.2144"/>
</g>
<!-- Node8 -->
<g id="node9" class="node">
<title>Node8</title>
<g id="a_node9"><a xlink:href="mxm__bgq_8f.html#af192c3c8b982aa5bbc2a757156718a91" target="_top" xlink:title="mxm_bgq_6">
<polygon fill="#ffffff" stroke="#000000" points="389.5,-95.5 389.5,-114.5 459.5,-114.5 459.5,-95.5 389.5,-95.5"/>
<text text-anchor="middle" x="424.5" y="-102.5" font-family="Helvetica,sans-Serif" font-size="10.00" fill="#000000">mxm_bgq_6</text>
</a>
</g>
</g>
<!-- Node3&#45;&gt;Node8 -->
<g id="edge8" class="edge">
<title>Node3&#45;&gt;Node8</title>
<path fill="none" stroke="#191970" d="M344.7851,-152.4291C355.728,-144.4187 372.0394,-132.9025 387,-124 389.6734,-122.4091 392.4962,-120.8213 395.3445,-119.2796"/>
<polygon fill="#191970" stroke="#191970" points="397.1322,-122.2946 404.3779,-114.5648 393.8933,-116.089 397.1322,-122.2946"/>
</g>
<!-- Node9 -->
<g id="node10" class="node">
<title>Node9</title>
<g id="a_node10"><a xlink:href="mxm__std_8f.html#aa9e8685c4a72f18fb5d1ee88ed17a3d6" target="_top" xlink:title="mxmf2">
<polygon fill="#ffffff" stroke="#000000" points="401,-57.5 401,-76.5 448,-76.5 448,-57.5 401,-57.5"/>
<text text-anchor="middle" x="424.5" y="-64.5" font-family="Helvetica,sans-Serif" font-size="10.00" fill="#000000">mxmf2</text>
</a>
</g>
</g>
<!-- Node3&#45;&gt;Node9 -->
<g id="edge9" class="edge">
<title>Node3&#45;&gt;Node9</title>
<path fill="none" stroke="#191970" d="M336.92,-152.4724C345.3661,-136.8768 363.9603,-105.6698 387,-86 388.7138,-84.5369 390.5596,-83.1503 392.4808,-81.8431"/>
<polygon fill="#191970" stroke="#191970" points="394.4194,-84.762 401.2095,-76.629 390.8296,-78.7526 394.4194,-84.762"/>
</g>
<!-- Node11&#45;&gt;Node3 -->
<g id="edge12" class="edge">
<title>Node11&#45;&gt;Node3</title>
<path fill="none" stroke="#191970" d="M266.2061,-133.589C277.5358,-138.4814 291.4448,-144.4875 303.5511,-149.7152"/>
<polygon fill="#191970" stroke="#191970" points="302.2218,-152.9536 312.79,-153.7048 304.9969,-146.5271 302.2218,-152.9536"/>
</g>
</g>
</svg>
