<?xml version="1.0" encoding="UTF-8" standalone="no"?>
<!DOCTYPE svg PUBLIC "-//W3C//DTD SVG 1.1//EN"
 "http://www.w3.org/Graphics/SVG/1.1/DTD/svg11.dtd">
<!-- Generated by graphviz version 2.40.1 (20161225.0304)
 -->
<!-- Title: xxt Pages: 1 -->
<svg width="168pt" height="95pt"
 viewBox="0.00 0.00 168.00 95.00" xmlns="http://www.w3.org/2000/svg" xmlns:xlink="http://www.w3.org/1999/xlink">
<g id="graph0" class="graph" transform="scale(1 1) rotate(0) translate(4 91)">
<title>xxt</title>
<polygon fill="#ffffff" stroke="transparent" points="-4,4 -4,-91 164,-91 164,4 -4,4"/>
<!-- Node1 -->
<g id="node1" class="node">
<title>Node1</title>
<polygon fill="#bfbfbf" stroke="#000000" points="74,-.5 74,-19.5 104,-19.5 104,-.5 74,-.5"/>
<text text-anchor="middle" x="89" y="-7.5" font-family="Helvetica,sans-Serif" font-size="10.00" fill="#000000">xxt</text>
</g>
<!-- Node2 -->
<g id="node2" class="node">
<title>Node2</title>
<g id="a_node2"><a xlink:href="structsparse__cholesky.html" target="_top" xlink:title="sparse_cholesky">
<polygon fill="#ffffff" stroke="#000000" points="0,-67.5 0,-86.5 90,-86.5 90,-67.5 0,-67.5"/>
<text text-anchor="middle" x="45" y="-74.5" font-family="Helvetica,sans-Serif" font-size="10.00" fill="#000000">sparse_cholesky</text>
</a>
</g>
</g>
<!-- Node2&#45;&gt;Node1 -->
<g id="edge1" class="edge">
<title>Node2&#45;&gt;Node1</title>
<path fill="none" stroke="#9a32cd" stroke-dasharray="5,2" d="M56.8338,-58.9803C65.1619,-46.2989 75.9816,-29.8235 82.7076,-19.5817"/>
<polygon fill="#9a32cd" stroke="#9a32cd" points="53.8679,-57.1206 51.3041,-67.4005 59.719,-60.9631 53.8679,-57.1206"/>
<text text-anchor="middle" x="89.5" y="-41" font-family="Helvetica,sans-Serif" font-size="10.00" fill="#000000"> fac_A_ll</text>
</g>
<!-- Node3 -->
<g id="node3" class="node">
<title>Node3</title>
<g id="a_node3"><a xlink:href="structcsr__mat.html" target="_top" xlink:title="csr_mat">
<polygon fill="#ffffff" stroke="#000000" points="108,-67.5 108,-86.5 160,-86.5 160,-67.5 108,-67.5"/>
<text text-anchor="middle" x="134" y="-74.5" font-family="Helvetica,sans-Serif" font-size="10.00" fill="#000000">csr_mat</text>
</a>
</g>
</g>
<!-- Node3&#45;&gt;Node1 -->
<g id="edge2" class="edge">
<title>Node3&#45;&gt;Node1</title>
<path fill="none" stroke="#9a32cd" stroke-dasharray="5,2" d="M124.4276,-58.5021C120.779,-51.882 116.4279,-44.4633 112,-38 107.5913,-31.5646 102.0573,-24.7942 97.5225,-19.5232"/>
<polygon fill="#9a32cd" stroke="#9a32cd" points="121.3968,-60.2566 129.1977,-67.4257 127.5701,-56.9566 121.3968,-60.2566"/>
<text text-anchor="middle" x="129.5" y="-41" font-family="Helvetica,sans-Serif" font-size="10.00" fill="#000000"> A_sl</text>
</g>
</g>
</svg>
