<?xml version="1.0" encoding="UTF-8" standalone="no"?>
<!DOCTYPE svg PUBLIC "-//W3C//DTD SVG 1.1//EN"
 "http://www.w3.org/Graphics/SVG/1.1/DTD/svg11.dtd">
<!-- Generated by graphviz version 2.40.1 (20161225.0304)
 -->
<!-- Title: crs_data Pages: 1 -->
<svg width="113pt" height="117pt"
 viewBox="0.00 0.00 113.00 117.00" xmlns="http://www.w3.org/2000/svg" xmlns:xlink="http://www.w3.org/1999/xlink">
<g id="graph0" class="graph" transform="scale(1 1) rotate(0) translate(4 113)">
<title>crs_data</title>
<polygon fill="#ffffff" stroke="transparent" points="-4,4 -4,-113 109,-113 109,4 -4,4"/>
<!-- Node1 -->
<g id="node1" class="node">
<title>Node1</title>
<polygon fill="#bfbfbf" stroke="#000000" points="28,-.5 28,-19.5 82,-19.5 82,-.5 28,-.5"/>
<text text-anchor="middle" x="55" y="-7.5" font-family="Helvetica,sans-Serif" font-size="10.00" fill="#000000">crs_data</text>
</g>
<!-- Node2 -->
<g id="node2" class="node">
<title>Node2</title>
<g id="a_node2"><a xlink:href="structcsr__mat.html" target="_top" xlink:title="csr_mat">
<polygon fill="#ffffff" stroke="#000000" points="0,-89.5 0,-108.5 52,-108.5 52,-89.5 0,-89.5"/>
<text text-anchor="middle" x="26" y="-96.5" font-family="Helvetica,sans-Serif" font-size="10.00" fill="#000000">csr_mat</text>
</a>
</g>
</g>
<!-- Node2&#45;&gt;Node1 -->
<g id="edge1" class="edge">
<title>Node2&#45;&gt;Node1</title>
<path fill="none" stroke="#9a32cd" stroke-dasharray="5,2" d="M32.2697,-79.7584C38.2933,-61.2723 47.15,-34.0912 51.8309,-19.7259"/>
<polygon fill="#9a32cd" stroke="#9a32cd" points="28.8739,-78.8831 29.1035,-89.4754 35.5295,-81.0518 28.8739,-78.8831"/>
<text text-anchor="middle" x="53.5" y="-63" font-family="Helvetica,sans-Serif" font-size="10.00" fill="#000000"> W</text>
<text text-anchor="middle" x="53.5" y="-52" font-family="Helvetica,sans-Serif" font-size="10.00" fill="#000000">AfP</text>
<text text-anchor="middle" x="53.5" y="-41" font-family="Helvetica,sans-Serif" font-size="10.00" fill="#000000">Aff</text>
</g>
<!-- Node3 -->
<g id="node3" class="node">
<title>Node3</title>
<g id="a_node3"><a xlink:href="structQ.html" target="_top" xlink:title="Q">
<polygon fill="#ffffff" stroke="#000000" points="70.5,-89.5 70.5,-108.5 99.5,-108.5 99.5,-89.5 70.5,-89.5"/>
<text text-anchor="middle" x="85" y="-96.5" font-family="Helvetica,sans-Serif" font-size="10.00" fill="#000000">Q</text>
</a>
</g>
</g>
<!-- Node3&#45;&gt;Node1 -->
<g id="edge2" class="edge">
<title>Node3&#45;&gt;Node1</title>
<path fill="none" stroke="#9a32cd" stroke-dasharray="5,2" d="M78.5141,-79.7584C72.2828,-61.2723 63.1206,-34.0912 58.2784,-19.7259"/>
<polygon fill="#9a32cd" stroke="#9a32cd" points="75.2786,-81.1173 81.7895,-89.4754 81.9119,-78.8813 75.2786,-81.1173"/>
<text text-anchor="middle" x="90" y="-63" font-family="Helvetica,sans-Serif" font-size="10.00" fill="#000000"> Q_Aff</text>
<text text-anchor="middle" x="90" y="-52" font-family="Helvetica,sans-Serif" font-size="10.00" fill="#000000">Q_W</text>
<text text-anchor="middle" x="90" y="-41" font-family="Helvetica,sans-Serif" font-size="10.00" fill="#000000">Q_AfP</text>
</g>
</g>
</svg>
