<?xml version="1.0" encoding="UTF-8" standalone="no"?>
<!DOCTYPE svg PUBLIC "-//W3C//DTD SVG 1.1//EN"
 "http://www.w3.org/Graphics/SVG/1.1/DTD/svg11.dtd">
<!-- Generated by graphviz version 2.43.0 (0)
 -->
<!-- Title: planar_avg_spanwise Pages: 1 -->
<svg width="253pt" height="66pt"
 viewBox="0.00 0.00 253.00 66.00" xmlns="http://www.w3.org/2000/svg" xmlns:xlink="http://www.w3.org/1999/xlink">
<g id="graph0" class="graph" transform="scale(1 1) rotate(0) translate(4 62)">
<title>planar_avg_spanwise</title>
<polygon fill="white" stroke="transparent" points="-4,4 -4,-62 249,-62 249,4 -4,4"/>
<!-- Node1 -->
<g id="node1" class="node">
<title>Node1</title>
<g id="a_node1"><a xlink:title="Compute planar average of quantity u along spanwise direction.">
<polygon fill="#bfbfbf" stroke="black" points="0,-19.5 0,-38.5 122,-38.5 122,-19.5 0,-19.5"/>
<text text-anchor="middle" x="61" y="-26.5" font-family="Helvetica,sans-Serif" font-size="10.00">planar_avg_spanwise</text>
</a>
</g>
</g>
<!-- Node2 -->
<g id="node2" class="node">
<title>Node2</title>
<g id="a_node2"><a xlink:href="dssum_8f.html#a93169b7e53973103de1372a81375375a" target="_top" xlink:title=" ">
<polygon fill="white" stroke="black" points="158,-38.5 158,-57.5 245,-57.5 245,-38.5 158,-38.5"/>
<text text-anchor="middle" x="201.5" y="-45.5" font-family="Helvetica,sans-Serif" font-size="10.00">gtpp_gs_setup</text>
</a>
</g>
</g>
<!-- Node1&#45;&gt;Node2 -->
<g id="edge1" class="edge">
<title>Node1&#45;&gt;Node2</title>
<path fill="none" stroke="midnightblue" d="M122.35,-37.28C130.84,-38.44 139.53,-39.64 147.87,-40.78"/>
<polygon fill="midnightblue" stroke="midnightblue" points="147.45,-44.26 157.83,-42.15 148.4,-37.32 147.45,-44.26"/>
</g>
<!-- Node3 -->
<g id="node3" class="node">
<title>Node3</title>
<g id="a_node3"><a xlink:href="navier5_8f.html#a43c9d798cb7be60e09268f4176c0d13f" target="_top" xlink:title=" ">
<polygon fill="white" stroke="black" points="166,-0.5 166,-19.5 237,-19.5 237,-0.5 166,-0.5"/>
<text text-anchor="middle" x="201.5" y="-7.5" font-family="Helvetica,sans-Serif" font-size="10.00">planar_avg</text>
</a>
</g>
</g>
<!-- Node1&#45;&gt;Node3 -->
<g id="edge2" class="edge">
<title>Node1&#45;&gt;Node3</title>
<path fill="none" stroke="midnightblue" d="M122.35,-20.72C133.61,-19.18 145.2,-17.59 155.89,-16.12"/>
<polygon fill="midnightblue" stroke="midnightblue" points="156.39,-19.58 165.82,-14.76 155.44,-12.65 156.39,-19.58"/>
</g>
</g>
</svg>
