<?xml version="1.0" encoding="UTF-8" standalone="no"?>
<!DOCTYPE svg PUBLIC "-//W3C//DTD SVG 1.1//EN"
 "http://www.w3.org/Graphics/SVG/1.1/DTD/svg11.dtd">
<!-- Generated by graphviz version 2.40.1 (20161225.0304)
 -->
<!-- Title: planar_avg_horiz Pages: 1 -->
<svg width="282pt" height="28pt"
 viewBox="0.00 0.00 282.00 28.00" xmlns="http://www.w3.org/2000/svg" xmlns:xlink="http://www.w3.org/1999/xlink">
<g id="graph0" class="graph" transform="scale(1 1) rotate(0) translate(4 24)">
<title>planar_avg_horiz</title>
<polygon fill="#ffffff" stroke="transparent" points="-4,4 -4,-24 278,-24 278,4 -4,4"/>
<!-- Node3 -->
<g id="node1" class="node">
<title>Node3</title>
<polygon fill="#bfbfbf" stroke="#000000" points="0,-.5 0,-19.5 90,-19.5 90,-.5 0,-.5"/>
<text text-anchor="middle" x="45" y="-7.5" font-family="Helvetica,sans-Serif" font-size="10.00" fill="#000000">planar_avg_horiz</text>
</g>
<!-- Node4 -->
<g id="node2" class="node">
<title>Node4</title>
<g id="a_node2"><a xlink:href="dyn__smag_8f.html#aaf0f4048a4e81a838bf903f040cf2db1" target="_top" xlink:title="Compute eddy viscosity using dynamic smagorinsky model. ">
<polygon fill="#ffffff" stroke="#000000" points="126,-.5 126,-19.5 187,-19.5 187,-.5 126,-.5"/>
<text text-anchor="middle" x="156.5" y="-7.5" font-family="Helvetica,sans-Serif" font-size="10.00" fill="#000000">eddy_visc</text>
</a>
</g>
</g>
<!-- Node3&#45;&gt;Node4 -->
<g id="edge1" class="edge">
<title>Node3&#45;&gt;Node4</title>
<path fill="none" stroke="#191970" d="M100.0537,-10C108.9842,-10 117.9386,-10 125.9999,-10"/>
<polygon fill="#191970" stroke="#191970" points="100.03,-6.5001 90.0299,-10 100.0299,-13.5001 100.03,-6.5001"/>
</g>
<!-- Node5 -->
<g id="node3" class="node">
<title>Node5</title>
<g id="a_node3"><a xlink:href="group__abl.html#gaab7e65383186bbbe5e8ee746f763b233" target="_top" xlink:title="Compute the turbulent stress tensors and write statistics. ">
<polygon fill="#ffffff" stroke="#000000" points="223,-.5 223,-19.5 274,-19.5 274,-.5 223,-.5"/>
<text text-anchor="middle" x="248.5" y="-7.5" font-family="Helvetica,sans-Serif" font-size="10.00" fill="#000000">userchk</text>
</a>
</g>
</g>
<!-- Node4&#45;&gt;Node5 -->
<g id="edge2" class="edge">
<title>Node4&#45;&gt;Node5</title>
<path fill="none" stroke="#191970" d="M197.1985,-10C205.9382,-10 214.9366,-10 222.9092,-10"/>
<polygon fill="#191970" stroke="#191970" points="197.1347,-6.5001 187.1347,-10 197.1346,-13.5001 197.1347,-6.5001"/>
</g>
</g>
</svg>
