<?xml version="1.0" encoding="UTF-8" standalone="no"?>
<!DOCTYPE svg PUBLIC "-//W3C//DTD SVG 1.1//EN"
 "http://www.w3.org/Graphics/SVG/1.1/DTD/svg11.dtd">
<!-- Generated by graphviz version 2.40.1 (20161225.0304)
 -->
<!-- Title: set_grid_spacing Pages: 1 -->
<svg width="177pt" height="66pt"
 viewBox="0.00 0.00 177.00 66.00" xmlns="http://www.w3.org/2000/svg" xmlns:xlink="http://www.w3.org/1999/xlink">
<g id="graph0" class="graph" transform="scale(1 1) rotate(0) translate(4 62)">
<title>set_grid_spacing</title>
<polygon fill="#ffffff" stroke="transparent" points="-4,4 -4,-62 173,-62 173,4 -4,4"/>
<!-- Node16 -->
<g id="node1" class="node">
<title>Node16</title>
<polygon fill="#bfbfbf" stroke="#000000" points="0,-19.5 0,-38.5 90,-38.5 90,-19.5 0,-19.5"/>
<text text-anchor="middle" x="45" y="-26.5" font-family="Helvetica,sans-Serif" font-size="10.00" fill="#000000">set_grid_spacing</text>
</g>
<!-- Node17 -->
<g id="node2" class="node">
<title>Node17</title>
<g id="a_node2"><a xlink:href="math_8f.html#ae1294c8ac3b5b3c38bbcc250d252b9cb" target="_top" xlink:title="rone">
<polygon fill="#ffffff" stroke="#000000" points="130,-38.5 130,-57.5 165,-57.5 165,-38.5 130,-38.5"/>
<text text-anchor="middle" x="147.5" y="-45.5" font-family="Helvetica,sans-Serif" font-size="10.00" fill="#000000">rone</text>
</a>
</g>
</g>
<!-- Node16&#45;&gt;Node17 -->
<g id="edge1" class="edge">
<title>Node16&#45;&gt;Node17</title>
<path fill="none" stroke="#191970" d="M90.2564,-37.389C100.3555,-39.261 110.7694,-41.1914 119.9003,-42.884"/>
<polygon fill="#191970" stroke="#191970" points="119.4638,-46.3626 129.9342,-44.7439 120.7397,-39.4798 119.4638,-46.3626"/>
</g>
<!-- Node18 -->
<g id="node3" class="node">
<title>Node18</title>
<g id="a_node3"><a xlink:href="ic_8f.html#a12fbcc70f37b3490eeda7dfb002dcc7d" target="_top" xlink:title="dsavg">
<polygon fill="#ffffff" stroke="#000000" points="126,-.5 126,-19.5 169,-19.5 169,-.5 126,-.5"/>
<text text-anchor="middle" x="147.5" y="-7.5" font-family="Helvetica,sans-Serif" font-size="10.00" fill="#000000">dsavg</text>
</a>
</g>
</g>
<!-- Node16&#45;&gt;Node18 -->
<g id="edge2" class="edge">
<title>Node16&#45;&gt;Node18</title>
<path fill="none" stroke="#191970" d="M90.2564,-20.611C98.8329,-19.0212 107.6365,-17.3893 115.6885,-15.8968"/>
<polygon fill="#191970" stroke="#191970" points="116.5639,-19.2942 125.7585,-14.0301 115.288,-12.4115 116.5639,-19.2942"/>
</g>
</g>
</svg>
