<?xml version="1.0" encoding="UTF-8" standalone="no"?>
<!DOCTYPE svg PUBLIC "-//W3C//DTD SVG 1.1//EN"
 "http://www.w3.org/Graphics/SVG/1.1/DTD/svg11.dtd">
<!-- Generated by graphviz version 2.40.1 (20161225.0304)
 -->
<!-- Title: planar_avg_spanwise Pages: 1 -->
<svg width="234pt" height="66pt"
 viewBox="0.00 0.00 234.00 66.00" xmlns="http://www.w3.org/2000/svg" xmlns:xlink="http://www.w3.org/1999/xlink">
<g id="graph0" class="graph" transform="scale(1 1) rotate(0) translate(4 62)">
<title>planar_avg_spanwise</title>
<polygon fill="#ffffff" stroke="transparent" points="-4,4 -4,-62 230,-62 230,4 -4,4"/>
<!-- Node6 -->
<g id="node1" class="node">
<title>Node6</title>
<polygon fill="#bfbfbf" stroke="#000000" points="0,-19.5 0,-38.5 110,-38.5 110,-19.5 0,-19.5"/>
<text text-anchor="middle" x="55" y="-26.5" font-family="Helvetica,sans-Serif" font-size="10.00" fill="#000000">planar_avg_spanwise</text>
</g>
<!-- Node7 -->
<g id="node2" class="node">
<title>Node7</title>
<g id="a_node2"><a xlink:href="dssum_8f.html#a93169b7e53973103de1372a81375375a" target="_top" xlink:title="gtpp_gs_setup">
<polygon fill="#ffffff" stroke="#000000" points="146,-38.5 146,-57.5 226,-57.5 226,-38.5 146,-38.5"/>
<text text-anchor="middle" x="186" y="-45.5" font-family="Helvetica,sans-Serif" font-size="10.00" fill="#000000">gtpp_gs_setup</text>
</a>
</g>
</g>
<!-- Node6&#45;&gt;Node7 -->
<g id="edge1" class="edge">
<title>Node6&#45;&gt;Node7</title>
<path fill="none" stroke="#191970" d="M110.1761,-37.0026C118.6272,-38.2284 127.3134,-39.4882 135.6529,-40.6978"/>
<polygon fill="#191970" stroke="#191970" points="135.2153,-44.1708 145.6142,-42.1425 136.2201,-37.2433 135.2153,-44.1708"/>
</g>
<!-- Node8 -->
<g id="node3" class="node">
<title>Node8</title>
<g id="a_node3"><a xlink:href="navier5_8f.html#a43c9d798cb7be60e09268f4176c0d13f" target="_top" xlink:title="planar_avg">
<polygon fill="#ffffff" stroke="#000000" points="154,-.5 154,-19.5 218,-19.5 218,-.5 154,-.5"/>
<text text-anchor="middle" x="186" y="-7.5" font-family="Helvetica,sans-Serif" font-size="10.00" fill="#000000">planar_avg</text>
</a>
</g>
</g>
<!-- Node6&#45;&gt;Node8 -->
<g id="edge2" class="edge">
<title>Node6&#45;&gt;Node8</title>
<path fill="none" stroke="#191970" d="M110.1761,-20.9974C121.4099,-19.368 133.0594,-17.6784 143.7575,-16.1268"/>
<polygon fill="#191970" stroke="#191970" points="144.2843,-19.5871 153.6784,-14.6879 143.2795,-12.6596 144.2843,-19.5871"/>
</g>
</g>
</svg>
