<?xml version="1.0" encoding="UTF-8" standalone="no"?>
<!DOCTYPE svg PUBLIC "-//W3C//DTD SVG 1.1//EN"
 "http://www.w3.org/Graphics/SVG/1.1/DTD/svg11.dtd">
<!-- Generated by graphviz version 2.40.1 (20161225.0304)
 -->
<!-- Title: set_ds_filt Pages: 1 -->
<svg width="174pt" height="66pt"
 viewBox="0.00 0.00 174.00 66.00" xmlns="http://www.w3.org/2000/svg" xmlns:xlink="http://www.w3.org/1999/xlink">
<g id="graph0" class="graph" transform="scale(1 1) rotate(0) translate(4 62)">
<title>set_ds_filt</title>
<polygon fill="#ffffff" stroke="transparent" points="-4,4 -4,-62 170,-62 170,4 -4,4"/>
<!-- Node10 -->
<g id="node1" class="node">
<title>Node10</title>
<polygon fill="#bfbfbf" stroke="#000000" points="0,-19.5 0,-38.5 62,-38.5 62,-19.5 0,-19.5"/>
<text text-anchor="middle" x="31" y="-26.5" font-family="Helvetica,sans-Serif" font-size="10.00" fill="#000000">set_ds_filt</text>
</g>
<!-- Node11 -->
<g id="node2" class="node">
<title>Node11</title>
<g id="a_node2"><a xlink:href="math_8f.html#ae1294c8ac3b5b3c38bbcc250d252b9cb" target="_top" xlink:title="rone">
<polygon fill="#ffffff" stroke="#000000" points="114.5,-38.5 114.5,-57.5 149.5,-57.5 149.5,-38.5 114.5,-38.5"/>
<text text-anchor="middle" x="132" y="-45.5" font-family="Helvetica,sans-Serif" font-size="10.00" fill="#000000">rone</text>
</a>
</g>
</g>
<!-- Node10&#45;&gt;Node11 -->
<g id="edge1" class="edge">
<title>Node10&#45;&gt;Node11</title>
<path fill="none" stroke="#191970" d="M62.1275,-34.8557C75.6651,-37.4023 91.3919,-40.3608 104.4934,-42.8255"/>
<polygon fill="#191970" stroke="#191970" points="103.8711,-46.2697 114.3458,-44.6789 105.1653,-39.3904 103.8711,-46.2697"/>
</g>
<!-- Node12 -->
<g id="node3" class="node">
<title>Node12</title>
<g id="a_node3"><a xlink:href="postpro_8f.html#a384436e1573243f4e088689bbea00453" target="_top" xlink:title="build_1d_filt">
<polygon fill="#ffffff" stroke="#000000" points="98,-.5 98,-19.5 166,-19.5 166,-.5 98,-.5"/>
<text text-anchor="middle" x="132" y="-7.5" font-family="Helvetica,sans-Serif" font-size="10.00" fill="#000000">build_1d_filt</text>
</a>
</g>
</g>
<!-- Node10&#45;&gt;Node12 -->
<g id="edge2" class="edge">
<title>Node10&#45;&gt;Node12</title>
<path fill="none" stroke="#191970" d="M62.1275,-23.1443C70.2928,-21.6083 79.2545,-19.9224 87.9562,-18.2855"/>
<polygon fill="#191970" stroke="#191970" points="88.8081,-21.6867 97.9886,-16.3982 87.5139,-14.8074 88.8081,-21.6867"/>
</g>
</g>
</svg>
