<?xml version="1.0" encoding="UTF-8" standalone="no"?>
<!DOCTYPE svg PUBLIC "-//W3C//DTD SVG 1.1//EN"
 "http://www.w3.org/Graphics/SVG/1.1/DTD/svg11.dtd">
<!-- Generated by graphviz version 2.40.1 (20161225.0304)
 -->
<!-- Title: eddy_visc Pages: 1 -->
<svg width="459pt" height="218pt"
 viewBox="0.00 0.00 459.00 218.00" xmlns="http://www.w3.org/2000/svg" xmlns:xlink="http://www.w3.org/1999/xlink">
<g id="graph0" class="graph" transform="scale(1 1) rotate(0) translate(4 214)">
<title>eddy_visc</title>
<polygon fill="#ffffff" stroke="transparent" points="-4,4 -4,-214 455,-214 455,4 -4,4"/>
<!-- Node0 -->
<g id="node1" class="node">
<title>Node0</title>
<polygon fill="#bfbfbf" stroke="#000000" points="0,-57.5 0,-76.5 61,-76.5 61,-57.5 0,-57.5"/>
<text text-anchor="middle" x="30.5" y="-64.5" font-family="Helvetica,sans-Serif" font-size="10.00" fill="#000000">eddy_visc</text>
</g>
<!-- Node1 -->
<g id="node2" class="node">
<title>Node1</title>
<g id="a_node2"><a xlink:href="group__postpro.html#ga2282f2912315313d8c35cfd37389c7f3" target="_top" xlink:title="Compute the gradient tensor G_ij := du_i/du_j, for element e. ">
<polygon fill="#ffffff" stroke="#000000" points="100,-95.5 100,-114.5 161,-114.5 161,-95.5 100,-95.5"/>
<text text-anchor="middle" x="130.5" y="-102.5" font-family="Helvetica,sans-Serif" font-size="10.00" fill="#000000">comp_gije</text>
</a>
</g>
</g>
<!-- Node0&#45;&gt;Node1 -->
<g id="edge1" class="edge">
<title>Node0&#45;&gt;Node1</title>
<path fill="none" stroke="#191970" d="M55.7342,-76.589C67.8142,-81.1794 82.4745,-86.7503 95.602,-91.7388"/>
<polygon fill="#191970" stroke="#191970" points="94.6827,-95.1336 105.2739,-95.4141 97.1693,-88.5901 94.6827,-95.1336"/>
</g>
<!-- Node12 -->
<g id="node13" class="node">
<title>Node12</title>
<g id="a_node13"><a xlink:href="utils_8f.html#a75d89f87799764b6cb777d9ce36c19b7" target="_top" xlink:title="Adjust gradient at the boundary using the MOST relation. ">
<polygon fill="#ffffff" stroke="#000000" points="97,-57.5 97,-76.5 164,-76.5 164,-57.5 97,-57.5"/>
<text text-anchor="middle" x="130.5" y="-64.5" font-family="Helvetica,sans-Serif" font-size="10.00" fill="#000000">gij_from_bc</text>
</a>
</g>
</g>
<!-- Node0&#45;&gt;Node12 -->
<g id="edge13" class="edge">
<title>Node0&#45;&gt;Node12</title>
<path fill="none" stroke="#191970" d="M61.0467,-67C69.0503,-67 77.8417,-67 86.3994,-67"/>
<polygon fill="#191970" stroke="#191970" points="86.6533,-70.5001 96.6533,-67 86.6532,-63.5001 86.6533,-70.5001"/>
</g>
<!-- Node13 -->
<g id="node14" class="node">
<title>Node13</title>
<g id="a_node14"><a xlink:href="math_8f.html#a17c0ecae12cc5c6096939885da90ad2b" target="_top" xlink:title="transpose">
<polygon fill="#ffffff" stroke="#000000" points="101,-19.5 101,-38.5 160,-38.5 160,-19.5 101,-19.5"/>
<text text-anchor="middle" x="130.5" y="-26.5" font-family="Helvetica,sans-Serif" font-size="10.00" fill="#000000">transpose</text>
</a>
</g>
</g>
<!-- Node0&#45;&gt;Node13 -->
<g id="edge14" class="edge">
<title>Node0&#45;&gt;Node13</title>
<path fill="none" stroke="#191970" d="M55.7342,-57.411C67.8142,-52.8206 82.4745,-47.2497 95.602,-42.2612"/>
<polygon fill="#191970" stroke="#191970" points="97.1693,-45.4099 105.2739,-38.5859 94.6827,-38.8664 97.1693,-45.4099"/>
</g>
<!-- Node2 -->
<g id="node3" class="node">
<title>Node2</title>
<g id="a_node3"><a xlink:href="group__postpro.html#gad24367e4a843f60b63a2205aef1ba551" target="_top" xlink:title="Uses mxm() to compute gradient of 3D arrays. ">
<polygon fill="#ffffff" stroke="#000000" points="200,-133.5 200,-152.5 266,-152.5 266,-133.5 200,-133.5"/>
<text text-anchor="middle" x="233" y="-140.5" font-family="Helvetica,sans-Serif" font-size="10.00" fill="#000000">local_grad3</text>
</a>
</g>
</g>
<!-- Node1&#45;&gt;Node2 -->
<g id="edge2" class="edge">
<title>Node1&#45;&gt;Node2</title>
<path fill="none" stroke="#191970" d="M156.3651,-114.589C168.8685,-119.2244 184.0688,-124.8596 197.6249,-129.8853"/>
<polygon fill="#191970" stroke="#191970" points="196.5501,-133.2196 207.1432,-133.4141 198.9835,-126.6561 196.5501,-133.2196"/>
</g>
<!-- Node10 -->
<g id="node11" class="node">
<title>Node10</title>
<g id="a_node11"><a xlink:href="byte_8c.html#a2da8eeb074dfd3ffbfb3e9a4d301cda4" target="_top" xlink:title="exitt">
<polygon fill="#ffffff" stroke="#000000" points="215.5,-95.5 215.5,-114.5 250.5,-114.5 250.5,-95.5 215.5,-95.5"/>
<text text-anchor="middle" x="233" y="-102.5" font-family="Helvetica,sans-Serif" font-size="10.00" fill="#000000">exitt</text>
</a>
</g>
</g>
<!-- Node1&#45;&gt;Node10 -->
<g id="edge10" class="edge">
<title>Node1&#45;&gt;Node10</title>
<path fill="none" stroke="#191970" d="M161.2534,-105C175.2124,-105 191.6003,-105 205.1872,-105"/>
<polygon fill="#191970" stroke="#191970" points="205.3833,-108.5001 215.3833,-105 205.3832,-101.5001 205.3833,-108.5001"/>
</g>
<!-- Node11 -->
<g id="node12" class="node">
<title>Node11</title>
<g id="a_node12"><a xlink:href="group__postpro.html#ga53feb767cebebba399ab3c5a50f53155" target="_top" xlink:title="Uses mxm() to compute gradient of 2D arrays. ">
<polygon fill="#ffffff" stroke="#000000" points="200,-57.5 200,-76.5 266,-76.5 266,-57.5 200,-57.5"/>
<text text-anchor="middle" x="233" y="-64.5" font-family="Helvetica,sans-Serif" font-size="10.00" fill="#000000">local_grad2</text>
</a>
</g>
</g>
<!-- Node1&#45;&gt;Node11 -->
<g id="edge11" class="edge">
<title>Node1&#45;&gt;Node11</title>
<path fill="none" stroke="#191970" d="M156.3651,-95.411C168.8685,-90.7756 184.0688,-85.1404 197.6249,-80.1147"/>
<polygon fill="#191970" stroke="#191970" points="198.9835,-83.3439 207.1432,-76.5859 196.5501,-76.7804 198.9835,-83.3439"/>
</g>
<!-- Node3 -->
<g id="node4" class="node">
<title>Node3</title>
<g id="a_node4"><a xlink:href="group__postpro.html#gab9ec2260a10061af6ce1c52f3c8a41da" target="_top" xlink:title="Compute matrix&#45;matrix product C = A*B for contiguously packed matrices A,B, and C. ">
<polygon fill="#ffffff" stroke="#000000" points="302,-95.5 302,-114.5 340,-114.5 340,-95.5 302,-95.5"/>
<text text-anchor="middle" x="321" y="-102.5" font-family="Helvetica,sans-Serif" font-size="10.00" fill="#000000">mxm</text>
</a>
</g>
</g>
<!-- Node2&#45;&gt;Node3 -->
<g id="edge3" class="edge">
<title>Node2&#45;&gt;Node3</title>
<path fill="none" stroke="#191970" d="M255.2061,-133.411C266.5358,-128.5186 280.4448,-122.5125 292.5511,-117.2848"/>
<polygon fill="#191970" stroke="#191970" points="293.9969,-120.4729 301.79,-113.2952 291.2218,-114.0464 293.9969,-120.4729"/>
</g>
<!-- Node4 -->
<g id="node5" class="node">
<title>Node4</title>
<g id="a_node5"><a xlink:href="comm__mpi_8f.html#af06ec29f06aac3f8809e19de2a7e8946" target="_top" xlink:title="dnekclock">
<polygon fill="#ffffff" stroke="#000000" points="383,-190.5 383,-209.5 444,-209.5 444,-190.5 383,-190.5"/>
<text text-anchor="middle" x="413.5" y="-197.5" font-family="Helvetica,sans-Serif" font-size="10.00" fill="#000000">dnekclock</text>
</a>
</g>
</g>
<!-- Node3&#45;&gt;Node4 -->
<g id="edge4" class="edge">
<title>Node3&#45;&gt;Node4</title>
<path fill="none" stroke="#191970" d="M325.92,-114.5276C334.3661,-130.1232 352.9603,-161.3302 376,-181 377.7138,-182.4631 379.5596,-183.8497 381.4808,-185.1569"/>
<polygon fill="#191970" stroke="#191970" points="379.8296,-188.2474 390.2095,-190.371 383.4194,-182.238 379.8296,-188.2474"/>
</g>
<!-- Node5 -->
<g id="node6" class="node">
<title>Node5</title>
<g id="a_node6"><a xlink:href="mxm__bgq_8f.html#a8faaef428336095704ece51624bbfe92" target="_top" xlink:title="mxm_bgq_8">
<polygon fill="#ffffff" stroke="#000000" points="378.5,-152.5 378.5,-171.5 448.5,-171.5 448.5,-152.5 378.5,-152.5"/>
<text text-anchor="middle" x="413.5" y="-159.5" font-family="Helvetica,sans-Serif" font-size="10.00" fill="#000000">mxm_bgq_8</text>
</a>
</g>
</g>
<!-- Node3&#45;&gt;Node5 -->
<g id="edge5" class="edge">
<title>Node3&#45;&gt;Node5</title>
<path fill="none" stroke="#191970" d="M333.7851,-114.5709C344.728,-122.5813 361.0394,-134.0975 376,-143 378.6734,-144.5909 381.4962,-146.1787 384.3445,-147.7204"/>
<polygon fill="#191970" stroke="#191970" points="382.8933,-150.911 393.3779,-152.4352 386.1322,-144.7054 382.8933,-150.911"/>
</g>
<!-- Node6 -->
<g id="node7" class="node">
<title>Node6</title>
<g id="a_node7"><a xlink:href="mxm__bgq_8f.html#a3fda9ea4bc7a5713a19d6939fa2b541f" target="_top" xlink:title="mxm_bgq_16">
<polygon fill="#ffffff" stroke="#000000" points="376,-114.5 376,-133.5 451,-133.5 451,-114.5 376,-114.5"/>
<text text-anchor="middle" x="413.5" y="-121.5" font-family="Helvetica,sans-Serif" font-size="10.00" fill="#000000">mxm_bgq_16</text>
</a>
</g>
</g>
<!-- Node3&#45;&gt;Node6 -->
<g id="edge6" class="edge">
<title>Node3&#45;&gt;Node6</title>
<path fill="none" stroke="#191970" d="M340.1661,-108.9368C347.7052,-110.4854 356.7267,-112.3385 365.822,-114.2067"/>
<polygon fill="#191970" stroke="#191970" points="365.1539,-117.6424 375.6536,-116.2261 366.5624,-110.7856 365.1539,-117.6424"/>
</g>
<!-- Node7 -->
<g id="node8" class="node">
<title>Node7</title>
<g id="a_node8"><a xlink:href="mxm__bgq_8f.html#a8a70163b4dbfdbfcce7bff170597fcad" target="_top" xlink:title="mxm_bgq_10">
<polygon fill="#ffffff" stroke="#000000" points="376,-76.5 376,-95.5 451,-95.5 451,-76.5 376,-76.5"/>
<text text-anchor="middle" x="413.5" y="-83.5" font-family="Helvetica,sans-Serif" font-size="10.00" fill="#000000">mxm_bgq_10</text>
</a>
</g>
</g>
<!-- Node3&#45;&gt;Node7 -->
<g id="edge7" class="edge">
<title>Node3&#45;&gt;Node7</title>
<path fill="none" stroke="#191970" d="M340.1661,-101.0632C347.7052,-99.5146 356.7267,-97.6615 365.822,-95.7933"/>
<polygon fill="#191970" stroke="#191970" points="366.5624,-99.2144 375.6536,-93.7739 365.1539,-92.3576 366.5624,-99.2144"/>
</g>
<!-- Node8 -->
<g id="node9" class="node">
<title>Node8</title>
<g id="a_node9"><a xlink:href="mxm__bgq_8f.html#af192c3c8b982aa5bbc2a757156718a91" target="_top" xlink:title="mxm_bgq_6">
<polygon fill="#ffffff" stroke="#000000" points="378.5,-38.5 378.5,-57.5 448.5,-57.5 448.5,-38.5 378.5,-38.5"/>
<text text-anchor="middle" x="413.5" y="-45.5" font-family="Helvetica,sans-Serif" font-size="10.00" fill="#000000">mxm_bgq_6</text>
</a>
</g>
</g>
<!-- Node3&#45;&gt;Node8 -->
<g id="edge8" class="edge">
<title>Node3&#45;&gt;Node8</title>
<path fill="none" stroke="#191970" d="M333.7851,-95.4291C344.728,-87.4187 361.0394,-75.9025 376,-67 378.6734,-65.4091 381.4962,-63.8213 384.3445,-62.2796"/>
<polygon fill="#191970" stroke="#191970" points="386.1322,-65.2946 393.3779,-57.5648 382.8933,-59.089 386.1322,-65.2946"/>
</g>
<!-- Node9 -->
<g id="node10" class="node">
<title>Node9</title>
<g id="a_node10"><a xlink:href="mxm__std_8f.html#aa9e8685c4a72f18fb5d1ee88ed17a3d6" target="_top" xlink:title="mxmf2">
<polygon fill="#ffffff" stroke="#000000" points="390,-.5 390,-19.5 437,-19.5 437,-.5 390,-.5"/>
<text text-anchor="middle" x="413.5" y="-7.5" font-family="Helvetica,sans-Serif" font-size="10.00" fill="#000000">mxmf2</text>
</a>
</g>
</g>
<!-- Node3&#45;&gt;Node9 -->
<g id="edge9" class="edge">
<title>Node3&#45;&gt;Node9</title>
<path fill="none" stroke="#191970" d="M325.92,-95.4724C334.3661,-79.8768 352.9603,-48.6698 376,-29 377.7138,-27.5369 379.5596,-26.1503 381.4808,-24.8431"/>
<polygon fill="#191970" stroke="#191970" points="383.4194,-27.762 390.2095,-19.629 379.8296,-21.7526 383.4194,-27.762"/>
</g>
<!-- Node11&#45;&gt;Node3 -->
<g id="edge12" class="edge">
<title>Node11&#45;&gt;Node3</title>
<path fill="none" stroke="#191970" d="M255.2061,-76.589C266.5358,-81.4814 280.4448,-87.4875 292.5511,-92.7152"/>
<polygon fill="#191970" stroke="#191970" points="291.2218,-95.9536 301.79,-96.7048 293.9969,-89.5271 291.2218,-95.9536"/>
</g>
</g>
</svg>
