<?xml version="1.0" encoding="UTF-8" standalone="no"?>
<!DOCTYPE svg PUBLIC "-//W3C//DTD SVG 1.1//EN"
 "http://www.w3.org/Graphics/SVG/1.1/DTD/svg11.dtd">
<!-- Generated by graphviz version 2.43.0 (0)
 -->
<!-- Title: eddy_visc Pages: 1 -->
<svg width="489pt" height="218pt"
 viewBox="0.00 0.00 489.00 218.00" xmlns="http://www.w3.org/2000/svg" xmlns:xlink="http://www.w3.org/1999/xlink">
<g id="graph0" class="graph" transform="scale(1 1) rotate(0) translate(4 214)">
<title>eddy_visc</title>
<polygon fill="white" stroke="transparent" points="-4,4 -4,-214 485,-214 485,4 -4,4"/>
<!-- Node1 -->
<g id="node1" class="node">
<title>Node1</title>
<g id="a_node1"><a xlink:title="Compute eddy viscosity using Vreman model Here is the key difference:">
<polygon fill="#bfbfbf" stroke="black" points="0,-76.5 0,-95.5 65,-95.5 65,-76.5 0,-76.5"/>
<text text-anchor="middle" x="32.5" y="-83.5" font-family="Helvetica,sans-Serif" font-size="10.00">eddy_visc</text>
</a>
</g>
</g>
<!-- Node2 -->
<g id="node2" class="node">
<title>Node2</title>
<g id="a_node2"><a xlink:href="group__postpro.html#ga2282f2912315313d8c35cfd37389c7f3" target="_top" xlink:title="Compute the gradient tensor G_ij := du_i/du_j, for element e.">
<polygon fill="white" stroke="black" points="104.5,-114.5 104.5,-133.5 171.5,-133.5 171.5,-114.5 104.5,-114.5"/>
<text text-anchor="middle" x="138" y="-121.5" font-family="Helvetica,sans-Serif" font-size="10.00">comp_gije</text>
</a>
</g>
</g>
<!-- Node1&#45;&gt;Node2 -->
<g id="edge1" class="edge">
<title>Node1&#45;&gt;Node2</title>
<path fill="none" stroke="midnightblue" d="M59.62,-95.59C72.24,-100.22 87.59,-105.86 101.28,-110.89"/>
<polygon fill="midnightblue" stroke="midnightblue" points="100.3,-114.25 110.89,-114.41 102.71,-107.68 100.3,-114.25"/>
</g>
<!-- Node13 -->
<g id="node13" class="node">
<title>Node13</title>
<g id="a_node13"><a xlink:href="utils_8f.html#a75d89f87799764b6cb777d9ce36c19b7" target="_top" xlink:title="Adjust gradient at the boundary using the MOST relation.">
<polygon fill="white" stroke="black" points="101,-76.5 101,-95.5 175,-95.5 175,-76.5 101,-76.5"/>
<text text-anchor="middle" x="138" y="-83.5" font-family="Helvetica,sans-Serif" font-size="10.00">gij_from_bc</text>
</a>
</g>
</g>
<!-- Node1&#45;&gt;Node13 -->
<g id="edge13" class="edge">
<title>Node1&#45;&gt;Node13</title>
<path fill="none" stroke="midnightblue" d="M65.12,-86C73.23,-86 82.14,-86 90.83,-86"/>
<polygon fill="midnightblue" stroke="midnightblue" points="90.87,-89.5 100.87,-86 90.87,-82.5 90.87,-89.5"/>
</g>
<!-- Node14 -->
<g id="node14" class="node">
<title>Node14</title>
<g id="a_node14"><a xlink:href="math_8f.html#a17c0ecae12cc5c6096939885da90ad2b" target="_top" xlink:title=" ">
<polygon fill="white" stroke="black" points="105.5,-38.5 105.5,-57.5 170.5,-57.5 170.5,-38.5 105.5,-38.5"/>
<text text-anchor="middle" x="138" y="-45.5" font-family="Helvetica,sans-Serif" font-size="10.00">transpose</text>
</a>
</g>
</g>
<!-- Node1&#45;&gt;Node14 -->
<g id="edge14" class="edge">
<title>Node1&#45;&gt;Node14</title>
<path fill="none" stroke="midnightblue" d="M59.62,-76.41C72.24,-71.78 87.59,-66.14 101.28,-61.11"/>
<polygon fill="midnightblue" stroke="midnightblue" points="102.71,-64.32 110.89,-57.59 100.3,-57.75 102.71,-64.32"/>
</g>
<!-- Node3 -->
<g id="node3" class="node">
<title>Node3</title>
<g id="a_node3"><a xlink:href="byte_8c.html#a2da8eeb074dfd3ffbfb3e9a4d301cda4" target="_top" xlink:title=" ">
<polygon fill="white" stroke="black" points="228,-152.5 228,-171.5 267,-171.5 267,-152.5 228,-152.5"/>
<text text-anchor="middle" x="247.5" y="-159.5" font-family="Helvetica,sans-Serif" font-size="10.00">exitt</text>
</a>
</g>
</g>
<!-- Node2&#45;&gt;Node3 -->
<g id="edge2" class="edge">
<title>Node2&#45;&gt;Node3</title>
<path fill="none" stroke="midnightblue" d="M166.13,-133.59C182.09,-139.23 202.26,-146.36 218.39,-152.06"/>
<polygon fill="midnightblue" stroke="midnightblue" points="217.25,-155.37 227.84,-155.41 219.58,-148.77 217.25,-155.37"/>
</g>
<!-- Node4 -->
<g id="node4" class="node">
<title>Node4</title>
<g id="a_node4"><a xlink:href="group__postpro.html#ga53feb767cebebba399ab3c5a50f53155" target="_top" xlink:title="Uses mxm() to compute gradient of 2D arrays.">
<polygon fill="white" stroke="black" points="211,-114.5 211,-133.5 284,-133.5 284,-114.5 211,-114.5"/>
<text text-anchor="middle" x="247.5" y="-121.5" font-family="Helvetica,sans-Serif" font-size="10.00">local_grad2</text>
</a>
</g>
</g>
<!-- Node2&#45;&gt;Node4 -->
<g id="edge3" class="edge">
<title>Node2&#45;&gt;Node4</title>
<path fill="none" stroke="midnightblue" d="M171.55,-124C180.72,-124 190.87,-124 200.67,-124"/>
<polygon fill="midnightblue" stroke="midnightblue" points="200.69,-127.5 210.69,-124 200.69,-120.5 200.69,-127.5"/>
</g>
<!-- Node12 -->
<g id="node12" class="node">
<title>Node12</title>
<g id="a_node12"><a xlink:href="group__postpro.html#gad24367e4a843f60b63a2205aef1ba551" target="_top" xlink:title="Uses mxm() to compute gradient of 3D arrays.">
<polygon fill="white" stroke="black" points="211,-76.5 211,-95.5 284,-95.5 284,-76.5 211,-76.5"/>
<text text-anchor="middle" x="247.5" y="-83.5" font-family="Helvetica,sans-Serif" font-size="10.00">local_grad3</text>
</a>
</g>
</g>
<!-- Node2&#45;&gt;Node12 -->
<g id="edge11" class="edge">
<title>Node2&#45;&gt;Node12</title>
<path fill="none" stroke="midnightblue" d="M166.13,-114.41C179.37,-109.73 195.49,-104.03 209.81,-98.97"/>
<polygon fill="midnightblue" stroke="midnightblue" points="211.12,-102.22 219.38,-95.59 208.79,-95.62 211.12,-102.22"/>
</g>
<!-- Node5 -->
<g id="node5" class="node">
<title>Node5</title>
<g id="a_node5"><a xlink:href="group__postpro.html#gab9ec2260a10061af6ce1c52f3c8a41da" target="_top" xlink:title="Compute matrix&#45;matrix product C = A*B for contiguously packed matrices A,B, and C.">
<polygon fill="white" stroke="black" points="320,-95.5 320,-114.5 362,-114.5 362,-95.5 320,-95.5"/>
<text text-anchor="middle" x="341" y="-102.5" font-family="Helvetica,sans-Serif" font-size="10.00">mxm</text>
</a>
</g>
</g>
<!-- Node4&#45;&gt;Node5 -->
<g id="edge4" class="edge">
<title>Node4&#45;&gt;Node5</title>
<path fill="none" stroke="midnightblue" d="M284.14,-116.6C292.68,-114.83 301.71,-112.95 309.97,-111.24"/>
<polygon fill="midnightblue" stroke="midnightblue" points="310.83,-114.63 319.91,-109.17 309.41,-107.78 310.83,-114.63"/>
</g>
<!-- Node6 -->
<g id="node6" class="node">
<title>Node6</title>
<g id="a_node6"><a xlink:href="comm__mpi_8f.html#af06ec29f06aac3f8809e19de2a7e8946" target="_top" xlink:title=" ">
<polygon fill="white" stroke="black" points="406.5,-190.5 406.5,-209.5 472.5,-209.5 472.5,-190.5 406.5,-190.5"/>
<text text-anchor="middle" x="439.5" y="-197.5" font-family="Helvetica,sans-Serif" font-size="10.00">dnekclock</text>
</a>
</g>
</g>
<!-- Node5&#45;&gt;Node6 -->
<g id="edge5" class="edge">
<title>Node5&#45;&gt;Node6</title>
<path fill="none" stroke="midnightblue" d="M346.99,-114.6C355.55,-130.3 374.43,-161.66 398,-181 399.8,-182.48 401.74,-183.88 403.76,-185.19"/>
<polygon fill="midnightblue" stroke="midnightblue" points="402.51,-188.5 412.93,-190.37 405.95,-182.4 402.51,-188.5"/>
</g>
<!-- Node7 -->
<g id="node7" class="node">
<title>Node7</title>
<g id="a_node7"><a xlink:href="mxm__bgq_8f.html#a8a70163b4dbfdbfcce7bff170597fcad" target="_top" xlink:title=" ">
<polygon fill="white" stroke="black" points="398,-152.5 398,-171.5 481,-171.5 481,-152.5 398,-152.5"/>
<text text-anchor="middle" x="439.5" y="-159.5" font-family="Helvetica,sans-Serif" font-size="10.00">mxm_bgq_10</text>
</a>
</g>
</g>
<!-- Node5&#45;&gt;Node7 -->
<g id="edge6" class="edge">
<title>Node5&#45;&gt;Node7</title>
<path fill="none" stroke="midnightblue" d="M354.97,-114.67C366.09,-122.73 382.68,-134.28 398,-143 400.9,-144.65 403.97,-146.28 407.07,-147.86"/>
<polygon fill="midnightblue" stroke="midnightblue" points="405.8,-151.13 416.32,-152.36 408.86,-144.84 405.8,-151.13"/>
</g>
<!-- Node8 -->
<g id="node8" class="node">
<title>Node8</title>
<g id="a_node8"><a xlink:href="mxm__bgq_8f.html#a3fda9ea4bc7a5713a19d6939fa2b541f" target="_top" xlink:title=" ">
<polygon fill="white" stroke="black" points="398,-114.5 398,-133.5 481,-133.5 481,-114.5 398,-114.5"/>
<text text-anchor="middle" x="439.5" y="-121.5" font-family="Helvetica,sans-Serif" font-size="10.00">mxm_bgq_16</text>
</a>
</g>
</g>
<!-- Node5&#45;&gt;Node8 -->
<g id="edge7" class="edge">
<title>Node5&#45;&gt;Node8</title>
<path fill="none" stroke="midnightblue" d="M362.47,-109.03C369.94,-110.5 378.77,-112.24 387.71,-114"/>
<polygon fill="midnightblue" stroke="midnightblue" points="387.31,-117.49 397.79,-115.99 388.66,-110.62 387.31,-117.49"/>
</g>
<!-- Node9 -->
<g id="node9" class="node">
<title>Node9</title>
<g id="a_node9"><a xlink:href="mxm__bgq_8f.html#af192c3c8b982aa5bbc2a757156718a91" target="_top" xlink:title=" ">
<polygon fill="white" stroke="black" points="401,-76.5 401,-95.5 478,-95.5 478,-76.5 401,-76.5"/>
<text text-anchor="middle" x="439.5" y="-83.5" font-family="Helvetica,sans-Serif" font-size="10.00">mxm_bgq_6</text>
</a>
</g>
</g>
<!-- Node5&#45;&gt;Node9 -->
<g id="edge8" class="edge">
<title>Node5&#45;&gt;Node9</title>
<path fill="none" stroke="midnightblue" d="M362.47,-100.97C370.85,-99.32 380.93,-97.34 390.96,-95.36"/>
<polygon fill="midnightblue" stroke="midnightblue" points="391.79,-98.76 400.92,-93.4 390.44,-91.9 391.79,-98.76"/>
</g>
<!-- Node10 -->
<g id="node10" class="node">
<title>Node10</title>
<g id="a_node10"><a xlink:href="mxm__bgq_8f.html#a8faaef428336095704ece51624bbfe92" target="_top" xlink:title=" ">
<polygon fill="white" stroke="black" points="401,-38.5 401,-57.5 478,-57.5 478,-38.5 401,-38.5"/>
<text text-anchor="middle" x="439.5" y="-45.5" font-family="Helvetica,sans-Serif" font-size="10.00">mxm_bgq_8</text>
</a>
</g>
</g>
<!-- Node5&#45;&gt;Node10 -->
<g id="edge9" class="edge">
<title>Node5&#45;&gt;Node10</title>
<path fill="none" stroke="midnightblue" d="M354.97,-95.33C366.09,-87.27 382.68,-75.72 398,-67 400.9,-65.35 403.97,-63.72 407.07,-62.14"/>
<polygon fill="midnightblue" stroke="midnightblue" points="408.86,-65.16 416.32,-57.64 405.8,-58.87 408.86,-65.16"/>
</g>
<!-- Node11 -->
<g id="node11" class="node">
<title>Node11</title>
<g id="a_node11"><a xlink:href="mxm__std_8f.html#aa9e8685c4a72f18fb5d1ee88ed17a3d6" target="_top" xlink:title=" ">
<polygon fill="white" stroke="black" points="413.5,-0.5 413.5,-19.5 465.5,-19.5 465.5,-0.5 413.5,-0.5"/>
<text text-anchor="middle" x="439.5" y="-7.5" font-family="Helvetica,sans-Serif" font-size="10.00">mxmf2</text>
</a>
</g>
</g>
<!-- Node5&#45;&gt;Node11 -->
<g id="edge10" class="edge">
<title>Node5&#45;&gt;Node11</title>
<path fill="none" stroke="midnightblue" d="M346.99,-95.4C355.55,-79.7 374.43,-48.34 398,-29 400,-27.36 402.16,-25.83 404.41,-24.4"/>
<polygon fill="midnightblue" stroke="midnightblue" points="406.32,-27.34 413.36,-19.42 402.92,-21.22 406.32,-27.34"/>
</g>
<!-- Node12&#45;&gt;Node5 -->
<g id="edge12" class="edge">
<title>Node12&#45;&gt;Node5</title>
<path fill="none" stroke="midnightblue" d="M284.14,-93.4C292.68,-95.17 301.71,-97.05 309.97,-98.76"/>
<polygon fill="midnightblue" stroke="midnightblue" points="309.41,-102.22 319.91,-100.83 310.83,-95.37 309.41,-102.22"/>
</g>
</g>
</svg>
